/* XPM */
static char *result[] = {
/* columns rows colors chars-per-pixel */
"64 64 185 2 ",
"   c black",
".  c #210800",
"X  c #290C00",
"o  c #290C08",
"O  c #291008",
"+  c #311108",
"@  c #3A1408",
"#  c #421408",
"$  c #421908",
"%  c #421910",
"&  c #4A2110",
"*  c #522410",
"=  c #522419",
"-  c #542919",
";  c #5A2C19",
":  c #5A3119",
">  c #633219",
",  c #633521",
"<  c #6B3521",
"1  c #663B23",
"2  c #6B3D22",
"3  c #6B3F29",
"4  c #733E23",
"5  c #6D442B",
"6  c #734121",
"7  c #734429",
"8  c #7B4529",
"9  c #774A2D",
"0  c #7B4A2C",
"q  c #7C4D31",
"w  c #C41A07",
"e  c #C82309",
"r  c #D62C0A",
"t  c #D8360D",
"y  c #E63B0D",
"u  c #E93E0E",
"i  c #804B2D",
"p  c #834E31",
"a  c #845231",
"s  c #895635",
"d  c #8C5935",
"f  c #8C553A",
"g  c #8C593A",
"h  c #925E3C",
"j  c #94613D",
"k  c #98633E",
"l  c #D94718",
"z  c #DB511F",
"x  c #EB420F",
"c  c #EB4510",
"v  c #E64E12",
"b  c #EC4C11",
"n  c #EC4B1A",
"m  c #ED5313",
"M  c #EE5B15",
"N  c #E75818",
"B  c #EE5E19",
"V  c #EF6217",
"C  c #E6661A",
"Z  c #EF6419",
"A  c #EF6A1B",
"S  c #F06D1B",
"D  c #EF721D",
"F  c #F0731D",
"G  c #F1791F",
"H  c #D8512E",
"J  c #ED5524",
"K  c #E95927",
"L  c #ED5B2B",
"P  c #EB5E34",
"I  c #EF6B25",
"U  c #EE632B",
"Y  c #EF6B2C",
"T  c #F07125",
"R  c #F27D20",
"E  c #F07728",
"W  c #F17A2B",
"Q  c #EE6232",
"!  c #EE6939",
"~  c #EF6B3C",
"^  c #F17C34",
"/  c #F07639",
"(  c #F17C3C",
")  c #946142",
"_  c #9A6542",
"`  c #9C6943",
"'  c #A36C44",
"]  c #A56D4A",
"[  c #A5724A",
"{  c #AC754B",
"}  c #AD794A",
"|  c #AD7552",
" . c #AD7B52",
".. c #B57D52",
"X. c #ED6F46",
"o. c #EE7942",
"O. c #EC784A",
"+. c #F17B47",
"@. c #EB7752",
"#. c #F38522",
"$. c #F38B24",
"%. c #F49326",
"&. c #F49927",
"*. c #F4962B",
"=. c #F59C29",
"-. c #F28737",
";. c #F28D3A",
":. c #F49C31",
">. c #F4943A",
",. c #F49B3D",
"<. c #F5A32A",
"1. c #F7AE2D",
"2. c #F7AF31",
"3. c #F6A539",
"4. c #F7B134",
"5. c #F7B33B",
"6. c #B58252",
"7. c #BD8652",
"8. c #B5835A",
"9. c #BD865A",
"0. c #BD8B5B",
"q. c #BD8D63",
"w. c #EF8844",
"e. c #F18443",
"r. c #F18846",
"t. c #F39848",
"y. c #EC845C",
"u. c #F28659",
"i. c #F39753",
"p. c #F1945C",
"a. c #F5A448",
"s. c #F5A848",
"d. c #F7B542",
"f. c #F8B645",
"g. c #F7B64B",
"h. c #F7B94C",
"j. c #F8B94C",
"k. c #F5A756",
"l. c #F7B454",
"z. c #F7BA51",
"x. c #F8BC53",
"c. c #F7BB5E",
"v. c #F8BE5A",
"b. c #C59463",
"n. c #CE9A63",
"m. c #CE9A6B",
"M. c #F28B66",
"N. c #EE9162",
"B. c #F29467",
"V. c #F39A65",
"C. c #F49B68",
"Z. c #F4A66C",
"A. c #F7B364",
"S. c #F4A97B",
"D. c #F7BA75",
"F. c #F9C15F",
"G. c #F9C364",
"H. c #F9C66B",
"J. c #F9C372",
"K. c #FAC974",
"L. c #FACB7A",
"P. c #FACE86",
"I. c #FACF8D",
"U. c #F9CD93",
"Y. c #F7C699",
"T. c #F9D095",
"R. c #F9D19B",
"E. c #F9D3A5",
"W. c #F9D4AA",
"Q. c #F9D7B0",
"!. c #FADAB4",
"~. c #FADDBB",
"^. c #FBE0BF",
"/. c #FBE2C4",
"(. c #FBE6CB",
"). c #FDE8CE",
"_. c #FEECD5",
"`. c #FEEEDA",
"'. c #FEF0DE",
"]. c #F5EDE3",
"[. c #FEF3E5",
"{. c #FEF6EA",
"}. c #FEF8EF",
"|. c #FEFAF4",
" X c #FFFEFC",
/* pixels */
"' { k a { [ [ a [ 0.` 0 0 6 d d d a d s ) ] ] ] ] 5 + 2 ' s , , s p ; p p ] p ; ; 1 1 $ 2 + , h < 4 4 4 4 q %   p ; 0 ; ; ,  . .",
"g k { k k h k h h ` ` ` _ > d } { _ s 0 s ] ] 1 X 2 ' ' ' > , { d p p p a ] ] ; ; 1 g > g , + h , * * h 4 % % % % ; 0 ; q g g g ",
"g { { { a k [ h a 0 8 ` ` { d d d a s 0 ) ] ] 1 2 ' ' ' ' { s s { p { p a ] ] p ] g g 1 g , , , h * * h 4 % 7.7.% q q 0 ` g , , ",
"[ q.j { h  .m. . .' g ' 6...7 7 5 s s s [ 0.0.7 ` 8.8.d 8.` p p 6.7 _ _ 7  .7  . ...2 6 2 % & 7 8 ; ; p s g & g % $ q $ 9 ; s q ",
"[ j } j j 0. . . .` g g ` ..j h 7 a s 1 [ 7 ` _ _ 8.g N.u.e.! I L U ! O.M.7 7  .9 2 j k j 9 & 9 7 ; ; ;  .& & g 2 ....0 9 ; s  .",
"s j j j j  .m.0. .[ ` g ] ....) 7 s s 6 > 5 7 p.I N Z Z A Z Z V M m b x x x x J u.> ..> > k 7 k 7 ;  .; ; & g g % q ..0 9  .s a ",
"[ q.j [ [  .m.m.m.6.6.[ ' ..h 7 7 s s d  .M Z F D F G G #.F F Z A M M m m x x x x u x j j ` k 8 7 s  .a ; 2 g g 3 $ q 9 9 s ; - ",
"6.{ q.h { [ n.n.[ [ [ [ [ 9.` 8 0 a a M A D D G #.#.%.%.#.#.#.G F F D A M M b M b x x x x y.p - - [ [ a [ ] ] ] ] 2 2 2 2 ; q p ",
"` j q.q.[ q q q [ j p k [ _ 0 8 ` Y Z F #.#.#.$.%.=.>.<.=.,.&.%.#.#.F F S M M M m m x x x u J ; - [ [ > p ] * % ] k 2 2 j } [ ; ",
"_ [ h q.q.q q q [ j p p j 0 _ i.Z E W $.;.&.,.t.3.a.a.f.l.g.a.s.:.$.#.#.G F S Z M m m x x x x u O.> > > a 8 9 9 ] k 2 2 j q q q ",
"6.q. .h  .[ q q q a ) j j 0 ( T -.-.i.k.k.l.l.g.l.G.H.K.L.F.z.h.,.:.&.$.#.#.G S S M M M b x x x c P > p a & 7 9 ] k 0.j 2 ; } q ",
"9.8.g ) h [ a a [ ` 0 ` ` I ^ r.V.Z.D.A.A.F.J.H.P.P.T.R.I.L.K.z.j.2.=.&.$.#.#.F F S M m m b x x u y n i p { p =   # _ ` 6 j 8.8.",
"j h 8.8.g [ a a a _ 0 q.A ( i.Z.U.Y.R.R.L.R.E.W./.).~./.W.L.L.F.x.d.2.<.=.%.#.#.F F S M M m b x c u x c [ p q = = # # 2 ` j 6 j ",
"2 1 h 8.) p b.[ [ q.` T ( C.D.W.!.!.W.W.E.W./.(.`.{.{._.!.W.L.L.x.5.1.1.<.=.$.#.#.#.F F V M m b c u u y n q { q q k 7 ` ` j 6 8.",
"j 2 2 h 2 a [ b.b.q.( ^ N.Y.Q.).(.(.(.(.(.(._.`. X X X[._.^.P.L.G.d.5.1.<.=.=.&.#.#.G S F S M m b x x x x K { q p ` ` 7 2 4 6 ) ",
" ._ 7 5 4 2 2 2 2 u.W B.S.W.(.].[.{.'._._._.[.[. X X X|.'.!.R.K.x.5.5.1.1.<.<.=.%.#.$.G G S S M M b x x x x X.8.] ` a ` ` h 4 2 ",
" .` 5  X7 > ` ` ` S e.C.E./.`.{. X}.}._._._.{.[. X X X|.'.Q.T.L.F.4.1.1.1.1.<.=.=.&.$.#.G F F S M M b u x x x h f 9.` a a h  .g ",
"6 5 ` ` _ p p ` I E t.C.W.~.`.[.|.}._._.(._._.{. X|. X|.~.W.L.H.f.4.1.1.1.1.1.1.<.=.&.$.#.#.F S V M M x x u x n g 8.p a a h 6. .",
"g ` 0.0._ a _ r.S -.i.D.E.!.).`.`._.!.!.!.~.~._.'._.'._.W.I.v.h.1.1.1.1.1.1.1.1.1.=.=.&.$.$.#.S S B M m x x x x o.8.` p a g  . .",
" .' g ` ..8.9.B G ;.k.J.I.W.!.Q.W.W.R.T.T.R.Q./.^.^.^.W.U.G.z.h.1.1.1.1.1.1.1.1.<.1.<.=.&.$.#.G S S M M m x u x x q .._ _ | j j ",
") ....g ` ] C.F R w.k.c.K.P.P.U.I.L.L.L.K.L.E.E.W.^.I.L.H.j.4.5.1.1.1.1.1.1.1.1.1.<.1.<.&.$.$.#.G S Z M b c x x n @.k q ) | h h ",
"0 ` ......[ m S #.%.s.x.v.H.H.G.F.G.h.F.K.L.L.L.P.K.H.h.j.5.5.1.1.1.1.1.1.1.1.1.1.1.<.<.=.=.$.$.G S F M M b x x u u k _ _ 0 0 k ",
"j g ....' ] M F #.$.3.2.j.z.d.g.f.f.x.h.h.F.x.F.F.j.h.j.1.5.1.1.4.1.1.1.1.1.1.1.1.1.1.1.1.=.$.$.R R S S M m b x c u _ ....h h h ",
" ._ _ _  .o.B A R #.*.=.2.5.2.d.2.2.5.5.5.z.z.h.d.f.d.1.1.1.1.1.1.1.1.1.1.1.1.1.1.1.1.1.<.<.=.%.$.#.R S V M b b x u +.' ' ) [ [ ",
"_ _ p _  .b M S G #.$.=.1.1.1.1.1.1.1.1.5.5.4.5.f.4.1.1.1.1.1.1.1.1.1.1.1.1.1.1.1.1.1.1.1.1.=.$.$.#.G T F Z M b c x c = 0 a a k ",
"_ ) _ p p c M V S R $.=.1.<.1.1.1.1.1.1.1.1.1.1.1.1.1.1.1.1.4.t.4.1.1.1.1.1.1.1.1.1.1.1.1.1.<.&.%.$.$.R F S V M n x c 0 ' [ k ] ",
"q `  .) ` x b V S R $.%.=.<.<.1.1.1.1.1.4.1.1.1.1.1.1.1.1.1.h.M h.2.1.1.1.2.1.1.1.1.1.1.1.<.<.<.=.%.#.#.R S S M M b x i ' [ p k ",
"[ g g 0.u.x m V S R $.$.=.<.1.1.1.1.1.1.1.1.1.1.1.1.1.1.1.d.3.m A 5.1.1.1.1.1.1.1.1.1.1.1.1.<.1.<.&.&.#.#.R S Z M m c @.q p p _ ",
" .[ g ] ~ c m M S F $.%.=.<.1.1.1.1.1.4.1.1.1.1.1.1.d.f.F.F.Z m w g.F.F.F.1.1.1.1.1.1.1.2.1.2.1.<.<.=.%.$.#.R S Z m c ! q < _ _ ",
"` [ [ [ K x b M V F #.$.=.<.1.1.1.1.1.1.1.1.1.1.1.5.D D Z b D N w b v v V 1.1.1.1.2.1.1.1.1.1.1.<.1.=.&.%.#.R S V m m L q 2 _ ` ",
" .[ [ [ N x b M S F #.$.=.=.<.<.1.1.1.1.1.1.1.1.1.1.F.z t C Z A D C l l F.1.1.1.1.1.1.1.1.1.1.1.1.<.1.=.=.&.#.F Z B m J q a p > ",
"k j j ..n x b M B S R #.=.=.1.1.1.1.1.1.1.1.1.1.1.1.1.F.H e e v e w P 5.1.1.1.1.1.1.1.1.1.1.1.1.1.1.<.<.=.%.$.#.Z B M J ` k 8 _ ",
"{ ) 7 4 N u x M V S G #.$.=.1.1.1.1.4.1.1.1.1.1.2.1.1.1.-.M C w M v e.1.2.1.1.1.1.1.1.1.4.1.1.1.1.1.1.1.<.&.$.G D V M J 7.j j j ",
"{ ..) 8 J x b M M S G #.$.&.<.<.1.1.1.1.1.1.1.1.1.1.2.1.I V r y w N ^ 1.1.1.1.1.1.1.1.1.1.1.1.1.1.1.1.1.1.&.&.#.D V M Q k k  . .",
"p h ..h ! u b b M S F #.#.=.=.<.1.1.1.1.1.1.1.1.1.1.1.1.U K >.F.:.z Z h.1.1.1.1.1.1.1.1.1.1.1.1.1.1.1.1.1.<.%.#.F S m Y p 0 |  .",
"} [ * p @.u x v M A F #.#.$.=.<.1.1.1.1.1.1.1.1.1.1.1.4.3.4.1.1.1.d.a.5.1.1.1.1.1.1.1.1.1.1.1.1.1.1.1.1.<.<.&.$.D V M o._ s s s ",
"} { 9 0 M.x x b m M F G #.%.=.<.1.<.1.1.1.1.1.1.1.1.1.1.1.1.1.1.1.2.1.1.1.1.1.1.1.1.1.1.1.1.1.1.1.1.1.1.1.1.&.$.D A M 7 `  .s s ",
"a 0 [ } [ x x m M V A G #.$.&.=.<.1.1.1.1.1.2.1.1.1.1.1.1.1.1.1.1.1.1.1.2.1.1.1.1.1.1.1.1.1.1.1.1.1.1.1.1.1.&.$.D Z m 7 7 s s > ",
"; 9 q q } x x b m M Z F G #.%.=.<.<.<.1.1.1.1.1.1.1.1.1.1.1.1.1.1.1.1.1.1.1.1.1.1.1.1.1.1.1.1.1.1.1.1.1.1.1.&.#.G A m 7 ` > >  .",
"2 a 2 a k L x x b M Z F G #.$.$.&.<.<.<.1.<.1.1.1.1.1.1.1.1.1.1.1.1.1.1.1.1.1.1.1.1.1.1.1.1.1.1.1.1.1.1.1.1.&.$.G Z / - j [ a q ",
"j k ` a `  .x x b m M Z F G #.$.$.<.<.<.<.<.<.<.1.1.1.1.1.1.1.1.1.1.1.1.1.1.1.1.1.1.4.1.1.1.1.1.1.1.1.<.<.=.%.#.F Z - 7 - : : a ",
"6 6 q 6 ` j x x b m M Z F G #.#.$.&.=.<.<.<.<.1.<.1.1.1.1.1.1.1.1.1.1.1.1.1.1.1.1.1.1.1.1.1.1.1.1.1.1.1.<.=.%.G D M j 7 j 0 : : ",
"h q 6 q a j Q x b b M M V F G #.#.#.$.%.=.=.<.<.<.1.1.<.1.1.1.1.1.1.1.1.1.1.1.1.1.1.1.1.1.1.1.1.1.1.1.1.<.%.$.G F -.h h j a [ q ",
"8.[ [ [ a a ` x x x b m M V S F G #.#.$.$.&.=.&.<.<.<.1.1.1.1.1.1.1.1.1.1.1.1.1.1.1.1.1.1.1.1.1.1.1.1.<.<.%.#.G V h 8 h d a a 2 ",
"_ h [ ] p a a K x c b b m V V S F G F #.#.$.$.&.=.=.<.<.1.1.1.1.1.1.1.1.1.1.1.1.1.1.4.1.1.1.1.1.1.1.<.=.&.$.G S / ] h h h a a a ",
"8.p h [ [ ` 6.6.c x x x m m m V V S F G G G #.$.$.=.=.<.1.1.1.1.1.4.1.1.1.1.1.1.1.1.1.1.1.1.1.1.1.<.<.=.$.#.F V a ] h d h a a i ",
"h p ) p p p 6.a O.x b x m b b b M M Z S S F #.#.#.$.=.=.=.=.<.1.1.1.1.1.1.1.1.1.1.1.1.1.1.1.4.1.<.<.=.%.$.G Z M.a d d h d a a a ",
"0 { { 0 $ ; ' k : U x x c x b b m b M V S F F G #.$.=.=.=.=.<.1.1.1.1.1.1.1.4.1.1.1.1.1.1.1.1.1.<.=.%.$.G S / a s d d d ` h a a ",
"0.{ { 9 } k ` ` 8 s b x x x x x c b M V M V Z F F $.#.%.&.=.=.<.1.<.1.1.1.1.1.1.1.1.1.1.1.<.<.<.=.%.$.G I V a a a d ` d d ` p a ",
"0 9 { { } 0 : 0 a > ' x x x x x x x c b m V V Z F F #.#.%.=.=.<.1.1.1.1.<.1.1.1.1.1.1.1.<.1.<.=.%.$.G F C [ a a [ d ` ` 8 p ` h ",
"9 % 7 { 9 : 0 k ` ' ' a x x x x x x x c b m M M S F F $.$.$.=.=.<.<.<.<.1.1.<.1.<.1.<.1.<.=.=.$.#.G F V ` [ s : > 8 d s 8 a h k ",
"6.b.> _ j & } } { 6.6.@ 0 x c x x u x x x b M M V F F G #.#.#.=.&.<.=.=.<.<.<.<.<.<.<.=.=.&.$.$.G S V _ 1 6.5 o   2 p p ) k a a ",
"6.b.b.> j 0 9 9 & 9 @   0 ) x x u c u u x x c m M Z F S G F #.#.$.$.%.%.%.&.&.=.%.%.&.&.%.#.R F S V _ 1   o 6. . .p q 2 ) h k j ",
"6.> j > j } 6.& 9 6.9 @ 9 0 9 Q u c x x x x c b m M V S S G F G G #.#.#.#.#.$.G #.#.#.#.R G F Z / ' 1 ` _ o 5  . .< ) ) ) k ] [ ",
"s j j b.j 0 q & & 6.6.9 6.) ; ; u.c u c x x c x b b M M M V V S S S A A F A S F F F D F F S N V.] k ' , _  .5  . .q ) ) ) a j [ ",
"% ' ' 5 O & 9 k ` : ; 0 0 h 8 k h ] X.c x x u x x b c x b m M M m m V V V V M Z Z V M M V o.a [ ] s s ] 2 ` _ ; 0 { { q { [ a a ",
"$     + 2 _ ' _ ` 0 _ _ 0 8 h | j j [ [ U c c c c u x x x b b M b c x b m m M m M M n Q j a a a p s ] ] 4 ; k ' 0 0 % p { [ [ [ ",
"{ 5 1 ' ' _ 4 _ 7 _ ` _ _ ) 8 8 8 j j j h 7 g n u c u x x x x x x c x b b b b b N h 2 8.8.a ] [ a s ] s 2 _ k k ` 0 0 0 0 a [ , ",
"{ ] ' ' ' ` ` _ 7 8 0 0 0 ) h k 8 a a j ] ) g ) h = B.Q b u c x x c x b U y.i i ; h j 2 2 > a [ [ ] ] s s 0 h ' 0 { { { 0 ] a f ",
"{ j .._ h ' 7.s d _ _ _ _ 4 h { h a a 2 2 s s s .. .s  .s $ $ a i 0 j d 0 d [ [ [ ` ` ; 9 7 8 g f a 2 ` a , ' ' '  ._ p _  .g g ",
"h j ....7 s ' ] s 6 6 4 _ g 4 7 h a a ` a a s s ; s  . . .a q 7.i 0 0 8 h s s a s ` 9 : 0 7 7 : 7 a 2 2 a 1 1 ' ' p p | ) g  .g ",
"d k ..j 8 s ' 9.9.6 _ q._ 7 { h d a k ' a s s ..d > > >  .9.a q 7.0 0 h h a < s [ 0 0 0 ` f f 7 7 2 ` ` ` 1   1 '  .| _  . .g  .",
"g j ..j j 9.7.] 9._ q.q.q.h { { { a a a ` ..; s a > s s s 9.9.9.0.j h { i p s s [ k ` k 0 7 f ; 7 2 a a a . . ' ' h _ p _  .2 g ",
"[ ] 3 ] ] |  . . .) ) ) 3 d 4 ] ] 4 4 4 6.7 + { { 0 0 0 0 6 [ d 6 h h h h h h h j 7 7 ' 5 7 [ [   , g 2 > 4 h 6.h p p { { q 8.q "
};
