/* XPM */
static char *result[] = {
/* columns rows colors chars-per-pixel */
"64 64 199 2 ",
"   c black",
".  c #240900",
"X  c #290C08",
"o  c #291008",
"O  c #311108",
"+  c #3A1408",
"@  c #421408",
"#  c #421808",
"$  c #421910",
"%  c #4A2110",
"&  c #522410",
"*  c #522419",
"=  c #552A19",
"-  c #5A2C19",
";  c #5A3119",
":  c #633319",
">  c #633521",
",  c #663B23",
"<  c #6B3D22",
"1  c #6B3C26",
"2  c #733E23",
"3  c #6D442B",
"4  c #734121",
"5  c #734429",
"6  c #7B4529",
"7  c #774A2D",
"8  c #7B4A2C",
"9  c #7C4D31",
"0  c #C51B07",
"q  c #C71E08",
"w  c #CB2309",
"e  c #CC2B0C",
"r  c #D32A0B",
"t  c #D8350D",
"y  c #CE2E16",
"u  c #D43412",
"i  c #D63515",
"p  c #E93F0E",
"a  c #804B2D",
"s  c #834E31",
"d  c #845232",
"f  c #895635",
"g  c #8C5935",
"h  c #8C553A",
"j  c #8C593A",
"k  c #925D3C",
"l  c #94613D",
"z  c #98633E",
"x  c #DA4715",
"c  c #EB410F",
"v  c #EC4610",
"b  c #E24811",
"n  c #EC4C11",
"m  c #EC4E1C",
"M  c #E35315",
"N  c #ED5314",
"B  c #EE5C16",
"V  c #E45C18",
"C  c #ED5C1D",
"Z  c #EE6117",
"A  c #EF6419",
"S  c #EF691A",
"D  c #F06D1B",
"F  c #EE711D",
"G  c #F0731E",
"H  c #F1791F",
"J  c #D94D28",
"K  c #EC5623",
"L  c #E95925",
"P  c #ED5B2B",
"I  c #EC5E32",
"U  c #EF6523",
"Y  c #EF6B24",
"T  c #EC632A",
"R  c #EF6B2A",
"E  c #F27D20",
"W  c #F1762C",
"Q  c #F07828",
"!  c #E86A34",
"~  c #EC6439",
"^  c #EF6C3C",
"/  c #ED7535",
"(  c #EE733B",
")  c #F07030",
"_  c #F17B34",
"`  c #F07639",
"'  c #946142",
"]  c #9A6542",
"[  c #9C6943",
"{  c #A36C44",
"}  c #A56D4A",
"|  c #A5724A",
" . c #AC754B",
".. c #AD794A",
"X. c #AD7552",
"o. c #AD7B52",
"O. c #B57D52",
"+. c #EE7144",
"@. c #EE7649",
"#. c #F17B43",
"$. c #ED7C53",
"%. c #F38422",
"&. c #F38B24",
"*. c #F3882B",
"=. c #F49427",
"-. c #F49827",
";. c #F59628",
":. c #F59C29",
">. c #F28232",
",. c #F2883B",
"<. c #F49936",
"1. c #F49B3B",
"2. c #F5A42A",
"3. c #F7AD2D",
"4. c #F7AF31",
"5. c #F6A938",
"6. c #F7B134",
"7. c #F8B137",
"8. c #F8B33D",
"9. c #B58253",
"0. c #BD8652",
"q. c #B5835A",
"w. c #BD865A",
"e. c #BD8B5B",
"r. c #BD8E63",
"t. c #EE8247",
"y. c #F28643",
"u. c #F28746",
"i. c #F39645",
"p. c #F3954A",
"a. c #F39949",
"s. c #EF8359",
"d. c #F28A59",
"f. c #EF9E55",
"g. c #F39658",
"h. c #F5A542",
"j. c #F6AA43",
"k. c #F6AB49",
"l. c #F7B544",
"z. c #F8B543",
"x. c #F7B34C",
"c. c #F7B94C",
"v. c #F8BA4D",
"b. c #F6AB53",
"n. c #F4A459",
"m. c #F7B451",
"M. c #F8BC54",
"N. c #F7B25B",
"B. c #F8B85A",
"V. c #F8BE5B",
"C. c #C59363",
"Z. c #CE9A63",
"A. c #CE9A6B",
"S. c #EC8A67",
"D. c #F28D69",
"F. c #F29766",
"G. c #EC9474",
"H. c #F39C72",
"J. c #F49B79",
"K. c #F4A766",
"L. c #F8BB64",
"P. c #F5A970",
"I. c #F6B278",
"U. c #F9C05E",
"Y. c #F9C263",
"T. c #F9C56B",
"R. c #F9C677",
"E. c #FACB7A",
"W. c #EFAE8C",
"Q. c #F5B784",
"!. c #F8C481",
"~. c #FACD84",
"^. c #F9CF8D",
"/. c #F9D08F",
"(. c #F8C995",
"). c #F9D093",
"_. c #F9D29C",
"`. c #F8CFA3",
"'. c #F9D3A4",
"]. c #F9D5AB",
"[. c #F9D8AE",
"{. c #F9D7B0",
"}. c #FAD9B3",
"|. c #FADDBA",
" X c #FBE0BF",
".X c #F6E0C6",
"XX c #FBE2C3",
"oX c #FCE6CB",
"OX c #FDE9CE",
"+X c #FEECD4",
"@X c #FDEEDB",
"#X c #FEF0DE",
"$X c #F9EFE0",
"%X c #FDF2E4",
"&X c #FEF6EB",
"*X c #FEF8EF",
"=X c #FBF7F2",
"-X c #FDF9F3",
";X c #FFFEFD",
/* pixels */
"{  .z d  .| | d | e.[ 8 8 < g g g f f d ' } } } } < O 1 { g > > f s - s s } s - - , , # : + > k > 2 2 2 2 s $   9 - 8 - - > o.9.",
"j z  .z z l l l l [ [ [ z 4 g .. .' f 8 f } | , . 3 { { { > >  .g s s s s { } - - > j , j > O k > & & k 2 $ $ $ $ - 8 - 8 j j j ",
"j  . . .d l | l d 8 6 [ z  .g g g f f 8 ' } } 1 , { { { {  .f f  .s  .s d } } s } j j , j > > > k & & k 2 $ 0.0.$ s 9 9 [ j > > ",
"| r.l  .l X.A.o.X.{ j [ 9.O.5 5 5 f d f | e.e.5 ] O.W.P.d.#.( ^ ^ ^ $.D.5 o.5 O.O.O.< , < % $ 8 2 - - s f j % j $ # 8 # 9 - 9 9 ",
"| l ..l l e.X.X.o.| j j { O.' k 5 f f < | 6 W.( Z Z Z A S Z Z B N N N v v v p ~ 6 < k k k 5 % 5 6 - - - o.% $ k 1 O.O.8 9 = d o.",
"f l l l l ..A.r.o.{ [ j [ 9.O.z 5 f f < ) C D D D G H H G G Y A A B N N n n v v c v L < : [ 5 [ 5 - o.- - % j j % 9 O.8 7 9.d d ",
"| r.l | | o.A.A.A.9.9.| { O.k 5 5 f #.B D E H %.%.%.&.&.%.E E E D D A B B N n n v p p v ^ [ [ 5 5 f o.d - 1 j j 1 # 8 8 7 h = - ",
"9. .r.k  .| Z.Z.| | | | | w.] 8 t.Z D E %.E &.&.=.-.:.<.:.=.&.%.%.G G D Z B B N N v v p v v ^ - - | | d | } | } } < < , 1 - s 9 ",
"] l r.r.| 9 9 9 | l s k | ] 8 B G E %.,.;.:.:.:.5.h.5.l.k.h.1.-.&.&.%.G G D A Z B n n c c c c v = | | : s } * $ } z : 4 ' ..| = ",
"] | l r.r.9 9 9 | l s s z t.D >.y.p.p.a.h.k.k.v.m.M.Y.Y.V.c.x.5.<.;.&.%.%.H G D Z Z N n v v c c c +.: : d 7 6 7 } l , 4 l 9 d 9 ",
"9.r.| l | | 9 9 9 s ' k / W u.g.F.N.N.V.B.V.L.T.E.^./.~.E.T.U.l.j.2.:.;.&.%.H G D A Z N v v c c c c I f d % 7 5 } l e.l 4 - | 9 ",
"w.q.k ' ' | d d | [ 8 Q W g.K.P.Q.!.R.E.R.~.).'.{.}.}._.).E.T.U.z.6.2.-.-.&.%.%.H D S Z B N v c c c p v a  .9 *   @ [ [ 3 z q.q.",
"' j q.q.j | d f d [ W t.F.P.(.].].'.'._.'.].|.+X+X+X+XXX'./.E.U.M.8.3.:.:.=.&.%.%.G D A Z N n n c c c c v s 9 * * # @ 1 z l 4 l ",
"< < l q.k d C.| | ` _ F.Q.`.|.XXoXXX}.|.XXOX+X&X=X=X%X+X|._.E.T.M.8.6.3.2.:.=.&.%.H H D D Z B N v c c c p I  .s s z 3 [ [ l 4 q.",
"l < < k < d | C.t.W F.I.`..X@X$X@X+X+X@X+X@X&X;X;X;X*X#XXX].E.T.M.8.4.3.2.:.:.;.&.%.%.H G D Z N N c c c v p +.9 s [ [ 3 4 4 4 l ",
"o.] 5 3 5 , < W.Y g.H.(.|.@X&X=X&X%X+X+X@X#X*X;X;X;X;X@XoX].~.T.v.8.3.3.3.2.2.:.-.=.%.%.H G D Z Z N n c p p v q.} [ d [ [ j 2 2 ",
"o.] 3 5 5 : [ Y >.g.I.].oX$X=X-X&X%X@X+X+X#X&X-X;X-X*X#XXX'.E.U.z.8.3.3.3.2.2.2.:.-.&.&.%.H D D Z N N c c c c c g e.[ d d k o.j ",
"4 5 ] [ z d u.Q u.K.!.].oX#X&X%X@X+XXX XoX+X#X&X*X*X#XOX].~.T.v.8.7.3.3.3.3.3.3.2.:.-.&.%.%.H G D B N N c c c c ^ q.d d d k o.9.",
"k ] e.r.] d D Q p.K.!._.|.OX+XOXXX}.].[.}.|.OX+X#X+XOX[./.T.U.8.7.3.3.3.3.3.3.3.2.2.:.=.&.&.H H D A B N v c c p v q.[ d f j o.o.",
"o.[ j [ O.U D *.a.K.R.).].].].]._.^.).)._.].}. X X[._.~.T.c.8.3.3.3.3.3.3.3.3.3.3.2.2.-.=.&.&.H G D A B N c c c c ^ O.' ] X.l l ",
"l O.O.j { Z Q *.p.n.L.E.E.~.E.E.E.E.E.E.~.^._._.I.).E.U.U.z.6.3.3.3.3.3.3.3.3.3.3.3.2.2.:.=.&.%.H G A B B v c c p v ' 9 ' X.z k ",
"8 { O.O.d.S E *.<.k.B.U.T.Y.U.U.v.M.U.T.R.E.E.^.T P.U.8.6.3.3.3.3.3.3.3.3.3.3.3.3.3.3.2.:.-.=.%.%.H G Z B N n c p p ~ ] ' 8 8 k ",
"k j O.O.B A G %.;.5.8.z.v.z.z.z.z.v.v.V.V.V.T.n.b J c.6.3.3.3.3.3.3.3.3.3.3.3.3.3.3.3.2.:.:.-.&.%.H G S A B N v v p v O.O.k k z ",
"X.] ' ] B A G %.&.<.5.4.3.7.3.3.6.6.z.M.U.T.T.A b r R.U.z.7.3.3.3.3.3.4.3.3.3.3.3.3.3.3.3.2.-.=.%.%.H G S B N n v p c { { l | } ",
"] ] 9 s.N A D H &.-.2.2.3.3.3.3.3.6.z.! >.R N G M q N L Y ! j.3.3.3.3.3.3.3.3.3.3.3.3.3.3.3.:.-.&.&.E H G A Z N n v c s.s d d z ",
"] ] ] P N B D G &.=.:.2.3.3.3.3.3.3.6.f.i x V B V b B V u y.6.3.3.4.3.4.3.3.3.3.3.3.3.3.3.3.2.:.;.&.%.%.H D Z B N v c m { } z } ",
"d ] o.n n B S G %.=.:.2.2.3.3.3.3.3.3.3.B.i 0 0 n e q q n.6.3.3.3.3.3.3.3.3.3.3.3.3.3.3.3.3.2.:.:.=.&.%.H H D Z B N c c { | d l ",
"[ j j c n B A G H &.-.2.2.3.3.3.3.3.3.3.4.i.M E w M B / c.3.3.3.3.3.3.4.3.3.3.4.3.3.3.3.3.3.3.2.2.:.=.&.%.H G A B N v c 8 s s ] ",
"o.| J.v n N A G H &.-.:.2.3.3.3.3.3.3.4.6.i.A u w w V C c.3.3.3.4.3.3.3.3.3.3.3.3.3.3.3.3.3.3.3.2.:.-.=.&.%.H D Z B N c 9 < ] ] ",
"[ | s.p n B B G H &.;.:.2.3.3.3.3.3.3.3.z.W t M N.! y N b.3.3.3.3.3.4.3.3.3.3.3.3.3.3.3.3.3.3.3.3.2.2.-.=.&.%.G D B N v 9 < ] ] ",
"9.| #.v n N Z D H %.=.:.2.2.3.3.3.3.3.3.z.W B.6.6.6.m.>.<.3.3.3.3.3.3.3.4.3.3.3.3.3.3.3.3.3.3.3.3.2.2.2.:.=.%.E D Z N v s s s < ",
"z l ^ v c N Z S H &.&.:.2.2.3.3.3.3.3.3.3.6.3.3.3.3.3.6.3.3.3.3.3.3.3.3.3.3.3.3.3.3.3.3.3.3.3.3.3.3.3.2.:.:.&.%.G Z B n ] k a k ",
"O.k ) c v n B D G %.&.-.2.2.3.3.3.3.3.3.3.3.3.3.3.3.3.3.3.3.3.3.3.3.3.3.3.8.6.3.3.3.3.3.3.3.3.3.3.3.3.3.2.:.=.%.H S B n 0.k k z ",
" .O.( p v N B S D %.&.=.-.2.3.3.3.3.3.3.3.3.3.3.3.3.3.4.3.3.3.3.3.3.3.3.3.T.5.8.4.3.3.3.3.3.4.3.3.3.3.3.2.2.=.&.H S Z n { k X.X.",
"s k d.p v n B Z G H &.=.-.2.2.3.3.3.3.3.3.3.4.3.3.3.4.3.3.3.3.3.3.3.3.3.z.Y b x.3.3.3.3.3.3.3.3.3.3.3.3.3.:.:.&.H D Z N d 8 o.X.",
" . .& c v N B Z D H %.&.-.2.2.3.3.3.3.3.3.3.3.4.3.3.3.3.3.4.4.3.3.4.6.z.N.B r ! z.7.4.3.3.3.3.3.3.3.3.3.3.2.:.&.H D Z n ] g f f ",
"..| 8 c c n N B D H %.&.-.2.2.2.3.3.3.3.4.3.3.3.3.3.3.3.3.3.3.3.x.b.i.) U S w u W ,.f.h.4.3.3.3.3.3.3.3.3.3.:.&.H D Z N ] o.g g ",
"d a | n c v N B S D %.%.=.-.2.2.3.3.3.3.3.3.3.3.3.3.3.3.3.3.3.3.x.e M F B &.e V D A t b.3.4.3.3.3.3.3.3.3.3.:.=.%.G B n 5 f f ; ",
"- 8 8 ~ c v n B Z D H %.&.-.-.2.3.3.3.6.3.3.3.3.4.3.3.3.3.3.3.3.4.x.J 0 e M b x e y x.7.3.3.3.3.3.3.3.3.3.3.:.&.%.S B T ] : : o.",
"< d 4 D.c c n N B D G %.%.=.-.2.3.3.3.3.3.3.3.3.3.3.3.3.3.3.3.3.3.3.V.K V S t V t N.6.3.3.3.3.3.3.3.3.3.3.2.:.&.%.G Z F.l | d 9 ",
"l [ [ f c c n n B Z D H %.&.=.-.3.3.3.3.2.3.3.3.3.3.3.3.3.3.3.3.3.3.V.C F r 0 x n b.4.4.3.3.3.3.3.3.3.3.3.2.:.&.H D B 5 = ; ; d ",
"< < d : n c v n B Z D G H %.&.-.-.2.2.2.3.2.3.3.3.3.3.3.3.3.3.3.3.3.V.N e Z ! w b a.7.3.3.3.3.4.3.3.3.2.2.2.:.&.H S B 5 l 9 ; ; ",
"l d < d G.v c n N B Z D H %.%.&.=.-.-.2.2.2.2.2.3.3.3.3.3.3.3.3.3.4.1.P a.c.8.m./ _ z.3.3.3.3.3.3.3.3.3.2.:.=.%.G A F.l l 9 | 9 ",
"q.| | | s v c v n B Z Z D H H %.&.&.-.-.-.2.2.2.3.2.3.3.3.3.3.3.3.4.5.l.3.3.3.3.6.z.3.3.3.6.3.3.3.3.3.3.2.:.&.%.G U 8 k g d d 4 ",
"k ' | | s ` c c n n B B Z D D H %.%.%.%.-.-.-.-.2.2.3.3.3.3.3.3.3.3.3.3.3.3.3.3.3.3.3.3.3.3.3.3.3.3.3.2.:.=.%.H A d.k g k d d d ",
"q.s k | } ] m c v n n B Z Z D H D H %.%.%.&.-.-.:.2.2.3.3.3.3.3.3.3.3.3.3.3.3.3.3.3.3.3.3.3.3.3.3.3.2.:.-.&.%.G Z { k k g f d d ",
"z s k s s d D.v c v n n B B Z Z D D H H %.%.&.&.=.:.2.2.2.3.3.3.3.3.3.3.3.3.3.3.3.3.3.3.3.3.3.3.3.2.2.-.=.%.H Z d k k k k d d d ",
"8  . .8 $ - ] P v v c n v N N B B Z D D D H %.&.&.=.-.-.2.3.3.3.3.3.3.3.3.6.3.3.3.4.3.3.3.3.3.3.2.2.:.;.&.H D U d g g g z g d s ",
"e. . .9 ..[ ] ] c v c c n c n N N Z Z A D G H E %.&.=.:.:.3.3.3.3.3.3.3.3.3.3.3.3.3.3.3.3.3.3.2.2.:.-.%.Q F A d d j [ g g [ d s ",
"8 5  . ...8 ; 8 8 v c c c c c c v N N Z Z D D H %.&.&.=.:.2.2.3.3.3.3.3.3.3.3.3.3.3.3.3.3.3.2.2.2.;.%.%.F Z 9 d | g [ [ 6 s z k ",
"7 $ 7  .7 ; 8 z ] { v c c c c c v v N N B Z D G H %.&.&.=.2.2.2.2.3.3.3.3.3.3.3.3.3.3.3.2.2.2.:.-.%.%.G Z | d : : 8 f g 6 d l z ",
"9.C.: z z % .... .9.@.c c c c c c c v N N B Z A G H %.%.=.-.:.:.2.2.3.2.3.3.2.2.3.2.3.2.2.:.-.=.%.%.G A , 9.3 o   < s 9 z l d f ",
"9.C.C.: l 8 9 7 % 7 + s.c c c c c c c c n N Z B D G H %.%.&.&.-.:.:.2.:.2.2.2.2.2.2.:.:.:.;.&.&.H G A ,   X 9.o.X.s s 1 ' l l k ",
"9.: l : l ....% 8 9.8 + S.v c c c c c c n n N B Z D G H %.%.&.&.&.=.=.-.-.-.;.;.;.;.-.-.=.&.%.H D A , ] ] X 3 o.o.< ' ' ' l | | ",
"g z l C.l 8 8 % % 9.9.8 9.' m c c c c c p v n N B Z Z D D G H H %.%.%.%.%.%.%.%.%.%.%.&.%.E G D A ] ] , ] o.3 o.o.9 ' ' ' d ' | ",
"+ | { 3 o % 7 z [ ; - 8 8 k 6 K c c c c c c v n N N Z B Z D D D D G G G G G G G F G H G G D B / | f f } < ] ] ; 8  . .8  .| d d ",
"#     O , { ] ] ] 8 ] ] 8 6 k X.l m v c c c v p v n N n N N B Z Z B Z Z A Z Z S S S S A A R d d d f } } , - ] z 8 8 % 8  .| | | ",
" .3 1 { { ] 5 z 5 ] ] ] ] ' 6 6 6 z J.P c c v p c n c n n n n n N N N B B N B B B B N R H.d | | d f } f : { ] { ] 8 8 8 8 d } > ",
" .{ { { { ] ] { 5 8 8 8 8 k z k 6 d d l | L v v c c c c c c n c c c n v c n c n n P l < 1 : d | | } } f g a z ] 8  . . .9 } f f ",
" .z O.k k { w.g g ] ] ] ] 5 k  .j d d 4 < d h d O.N c c c c c c c c c c c N t. .| [ [ - 8 5 5 h h d < [ d , { { { O.' s ' o.j j ",
"k l O.O.5 g { { f 4 4 2 ] k 5 5 k d d { d d f f - f o.o.o.9 d e.d 8 6 6 l f d f f [ 8 - 8 5 5 ; 5 d : 4 d > > { { s s X.] j X.j ",
"j z O.l 5 f { w.0.4 ] r.' 5  .k g d [ z d f f O.f : : : o.w.9 d 0.6 8 g l d > f  .8 8 8 ] h h 5 5 , [ [ [ ,   , { o.X.] o.o.j o.",
"j ' O.l l w.w.{ w.] r.r.r.k  . . .d d d [ O.- f f : f g g w.w.w.w.l k  .a f h f | z [ [ 8 5 h ; 5 < f f d . . { { ] ' s ] X.< j ",
"| } 1 } | X.X.o.o.' ' ' 1 g 2 } { 2 2 2 9.3 O  . .6 6 8 6 4 | g 4 l k k k k k k k 3 3 { 5 5 | |   , j : < : k 9.k s d  ...9 q.9 "
};
