/* XPM */
static char *result[] = {
/* columns rows colors chars-per-pixel */
"64 64 199 2 ",
"   c black",
".  c #240900",
"X  c #290C08",
"o  c #291008",
"O  c #311108",
"+  c #3A1408",
"@  c #421408",
"#  c #421808",
"$  c #421910",
"%  c #4A2110",
"&  c #522410",
"*  c #522419",
"=  c #5A2C19",
"-  c #5A3119",
";  c #633319",
":  c #633521",
">  c #663B22",
",  c #6B3D22",
"<  c #6B3C26",
"1  c #733E23",
"2  c #6D442B",
"3  c #734121",
"4  c #734329",
"5  c #7B4529",
"6  c #774A2D",
"7  c #7B4A2C",
"8  c #7C4D31",
"9  c #C51B07",
"0  c #C61E08",
"q  c #C91F08",
"w  c #CB240A",
"e  c #CC2A0B",
"r  c #D2290A",
"t  c #D3310E",
"y  c #D8380E",
"u  c #CB2B11",
"i  c #D32D11",
"p  c #E83D0E",
"a  c #834E31",
"s  c #845232",
"d  c #895635",
"f  c #8C5935",
"g  c #8C553A",
"h  c #8C593A",
"j  c #925D3C",
"k  c #94613D",
"l  c #98633E",
"z  c #D94412",
"x  c #DB4B18",
"c  c #DD5917",
"v  c #EB420F",
"b  c #E9480F",
"n  c #E24611",
"m  c #EB4511",
"M  c #E14912",
"N  c #EC4B12",
"B  c #E6471D",
"V  c #EC4D1A",
"C  c #E25315",
"Z  c #EC5313",
"A  c #E45A16",
"S  c #EE5C15",
"D  c #EC551B",
"F  c #E35B1C",
"G  c #EC5C19",
"H  c #EE6117",
"J  c #E4621A",
"K  c #EF6419",
"L  c #EF6A1B",
"P  c #F06D1B",
"I  c #F0731D",
"U  c #F17A1F",
"Y  c #DA4A28",
"T  c #DD5124",
"R  c #EC5523",
"E  c #ED5B23",
"W  c #E75828",
"Q  c #EC5B2B",
"!  c #EE5F30",
"~  c #DF6129",
"^  c #EF6423",
"/  c #EE622A",
"(  c #EC6A28",
")  c #EE6A2C",
"_  c #F06D28",
"`  c #ED732B",
"'  c #F07223",
"]  c #F27D20",
"[  c #F0742C",
"{  c #F17C2B",
"}  c #EE6435",
"|  c #E96739",
" . c #F0673A",
".. c #EB7737",
"X. c #F17434",
"o. c #F07B33",
"O. c #F17B3B",
"+. c #946142",
"@. c #9A6542",
"#. c #9C6942",
"$. c #A36C44",
"%. c #A56D4A",
"&. c #A5724A",
"*. c #AC754B",
"=. c #AD794A",
"-. c #AD7552",
";. c #AD7B52",
":. c #B57D52",
">. c #ED7343",
",. c #F38522",
"<. c #F38B24",
"1. c #F2852B",
"2. c #F49426",
"3. c #F49827",
"4. c #F49529",
"5. c #F59C29",
"6. c #F1863A",
"7. c #F49B33",
"8. c #F5A42A",
"9. c #F7AD2D",
"0. c #F6A435",
"q. c #F7AE32",
"w. c #F5A23C",
"e. c #F6AB3B",
"r. c #F7B135",
"t. c #F7B23C",
"y. c #F8B33C",
"u. c #B48253",
"i. c #BD8652",
"p. c #B5825A",
"a. c #BD865A",
"s. c #BD8B5B",
"d. c #BD8E63",
"f. c #E98349",
"g. c #F18344",
"h. c #F28B49",
"j. c #F29547",
"k. c #F39846",
"l. c #F18D55",
"z. c #F39A56",
"x. c #F5A444",
"c. c #F6AB44",
"v. c #F4A24A",
"b. c #F7B543",
"n. c #F8B543",
"m. c #F6B24D",
"M. c #F8B64A",
"N. c #F7BA4E",
"B. c #F8BA4D",
"V. c #F5A253",
"C. c #F6AC54",
"Z. c #F6AE5C",
"A. c #F7B452",
"S. c #F8BC54",
"D. c #F7B55C",
"F. c #F7B95A",
"G. c #F9BE5A",
"H. c #C59363",
"J. c #CE9A63",
"K. c #CE9A6B",
"L. c #F29563",
"P. c #F4A567",
"I. c #F7B664",
"U. c #F8BC61",
"Y. c #F4AB7B",
"T. c #F6B575",
"R. c #F8BD72",
"E. c #F7BC7B",
"W. c #F8C05E",
"Q. c #F9C262",
"!. c #F9C66D",
"~. c #F9C673",
"^. c #FAC973",
"/. c #FACB7B",
"(. c #F6B88B",
"). c #F9C680",
"_. c #FACD84",
"`. c #FACE8C",
"'. c #F8CB9D",
"]. c #F9D095",
"[. c #F9D19B",
"{. c #F9D2A4",
"}. c #F9D5AB",
"|. c #FAD9AF",
" X c #F8D8B4",
".X c #F9DAB6",
"XX c #FADEBB",
"oX c #FBE0BF",
"OX c #FCE3C4",
"+X c #FCE6CB",
"@X c #FDE8CE",
"#X c #FEECD5",
"$X c #FDEEDB",
"%X c #FEF0DE",
"&X c #FEF3E4",
"*X c #FEF6EB",
"=X c #FEF8EE",
"-X c #FEF9F3",
";X c #FFFDFB",
/* pixels */
"$.*.l s *.&.&.s %.s.#.5 5 > f f f d d d +.%.&.%.%.2 O , $.d : ; f s = a s %.a = = > > @ > O : j : 1 1 1 1 a $   8 = 7 = - : ;.;.",
"h l *.l l k j l k #.#.#.#.3 f &.*.+.d 6 d %.#.> X , $.$.$.: : *.d a a a a %.%.= = > h > h : O j : & & j 1 $ $ $ $ = 8 = 7 h h h ",
"h *.*.*.s k &.j s 7 7 #.l *.f f f d f 5 +.%.%.2 , $.$.$.( E ^ E D D R R a %.%.a %.h j ; h > ; > j & & j 4 $ i.i.$ a 7 7 #.h : : ",
"&.d.k *.j ;.K.;.;.#.h $.i.:.4 4 4 d d f &.a.a.O.K S H H H S S S Z Z N b v v v / :.:., , , $ $ 7 1 = = a d h $ h $ # 7 # 8 = 8 d ",
"&.k =.k k s.-.;.;.#.h h $.:.+.l 4 d d , >.G K K P I ' I I L L L S S S Z N N v v v m V j j 4 % 4 1 : = = ;.% % h < :.:.7 6 = d ;.",
"d k k l k =.K.d.;.&.#.h #.u.:.j 1 d ) K P P U ] U ,.,.<.,.,.U I P P H S S Z Z N v v p v N G 4 #.1 = ;.= = % h h % 7 :.7 6 ;.8 d ",
"&.d.k &.*.;.K.K.K.u.u.&.$.:.j 4 O.H K U U ,.,.<.2.3.4.4.4.<.<.,.U U P P H S H Z Z m m m m m B 4 5 s ;.s = , h h < # 6 6 8 s = = ",
"u.&.d.j *.&.J.J.&.&.&.&.&.a.@.^ P U ] <.<.2.5.5.7.0.q.e.e.w.7.7.<.,.,.U I P P S S Z N p m p v v R &.&.s -.%.%.%.%., , , < = a 8 ",
"#.k d.d.&.8 8 8 &.k a l &.[ P ' 6.6.k.7.7.V.x.c.m.N.D.D.A.m.b.x.5.2.<.,.] ] I P K S S Z v v v v v V *.; a %.$ $ %.k , 3 k &.&.= ",
"@.&.j d.d.8 8 8 &.l a a ) P 6.h.z.V.C.Z.C.A.F.U.!./././.^.!.D.S.c.w.5.2.<.,.] U P K H Z Z v v v v p m ; d 7 8 6 &.k , , k 8 s 8 ",
"p.d.&.j ;.&.8 8 8 a +.K X.l.L.P.T.E.~.R.^.~._.`.[.|.}.{.]./.!.S.M.e.9.5.5.<.,.,.I P P S S Z N v v v v v ) $ 6 6 %.k s.k 3 = &.8 ",
"a.p.j +.j &.s s &.#.' ` l.P.).'.{.].].].].{.}.+XoX#X@XoX}.`.^.!.N.n.t.8.5.2.<.<.U U I P H S S N p v p p p >.a *   @ #.#.2 k p.p.",
"k j p.p.j &.s s s ) ) L.Y.'. XXXXXXX.X}..XOX@X$X=X&X%X@XXX{./.~.S.b.y.9.8.5.2.<.<.,.U I P H S Z N v v v v v a * * @ @ < l l 3 k ",
"> , j p.j s H.&.[ ..l.(.'.XX+X$X#X#X@X#X@X#X*X;X-X;X-X$X+X{.`.^.S.b.r.9.8.8.5.2.2.,.,.U I P K H S N v v p m m a a l 4 #.#.k 3 p.",
"@.; 2 h , s &.H.` 6.P.(. X$X*X-X&X&X#X$X#X&X=X;X;X;X;X*X#X.X[.!.W.n.y.9.9.8.8.5.2.2.,.,.U I P H S Z N v m p p m 8 #.#.2 3 3 3 k ",
"u.@.4 4 4 1 ; _ ` z.Y.}.OX$X*X;X*X*X$X#X#X$X=X;X;X;X;X*X@X|.`.^.B.n.q.9.9.9.8.8.5.2.2.,.,.U I P K S S N p p m m Q #.s #.#.h 1 1 ",
";.+.2 4 4 ; [ ' g.P.E.{.OX$X=X=X&X#X#X+X@X#X&X&X=X-X*X#XOX[.^.G.n.y.r.9.9.8.9.9.8.5.3.2.,.,.I I L L S N m v v v v a.$.a s j ;.j ",
"3 2 #.#.@.s K 1.h.P.E.}.XX#X#X#X#XoXXX|.|.+X#X#X&X%X#XoX[._.Q.S.y.y.9.9.9.9.9.8.8.8.5.3.<.<.,.I P L S S Z v v p v V s s a j ;.;.",
"j #.s.s.#./ I 1.j.I.R.].|.XXOXoX|.'.].].{.|.XXOXOXOXoX{./.Q.Q.[ C.9.9.9.9.9.9.9.9.8.8.5.3.<.<.,.U P L S Z m v v v v  .s s h u.;.",
";.#.h #.:.K U <.w.Z.T./._.].[.`././._./.`.'.{.|.}.[.`.^.Q.S.I.A T b.9.9.9.9.9.8.9.9.8.8.5.3.<.,.] I P H S Z N p v v m @.@.-.j k ",
"+.u.:.h / L U <.k.A.Z.~.^.^.!.W.W.Q.!.^.^.`.`._._.^.!.S.S.S.L z w F.n.q.q.q.9.9.9.9.9.8.8.3.2.<.,.] I P S Z m v p v p 8 @.;.j l ",
"7 #.:.:.S L ] <.7.e.C.N.S.B.S.B.N.S.S.S.Q.^.!.^.S.W.c.{ E D I C 9 V E E ,.0.9.9.9.9.9.9.8.8.3.<.,.] I P K S S N v p m Y +.5 5 j ",
"l h :.:.S L I ,.2.7.q.r.y.r.y.y.y.y.b.B.S.S.S.N.M.M.f.z C L S J t L S z G n.9.9.9.9.9.8.8.8.5.3.<.,.] I P K S Z N p v p :.j +.l ",
";.@.@.E S S ' ] <.5.5.8.9.9.9.9.9.y.t.y.y.y.y.b.9.r.b.V.e 9 M C A r 9 ~ W.9.9.9.9.9.9.9.9.8.5.5.2.,.] ] P L H S Z N v m $.k %.&.",
"+.@.a N Z H P U ,.2.5.8.9.9.9.9.9.9.r.9.9.y.9.9.9.9.9.r.z.N <.y A K ! N.9.9.9.9.9.9.9.9.9.9.8.5.4.2.,.,.] P K S S N v v Q s s j ",
"@.@.@.b N S L U ,.2.5.8.8.9.9.9.9.9.9.9.9.9.9.9.9.9.9.9.6.K M w w K N N.9.9.9.9.9.9.9.9.9.9.9.8.5.5.<.,.,.] P K S S N v R *.l %.",
"s +.Q b Z S P P ,.<.5.8.8.9.9.9.q.9.9.9.9.9.9.9.9.9.9.r.X.z n ` Y 9 N A.9.r.9.9.9.9.9.9.9.9.9.9.8.5.4.<.,.] ] P H S S v m %.s j ",
"$.h D v N S K I ,.<.2.8.8.9.9.9.q.9.9.9.9.9.9.9.9.9.9.W.W { Q.9.y.~.N j.9.9.9.9.9.9.9.9.9.8.9.9.9.5.5.2.2.,.] P P K S N v a a $.",
";.&.B p N S K I U <.2.5.8.9.9.9.9.9.9.9.9.9.9.9.9.9.9.9.y.r.9.9.9.9.y.t.9.9.9.9.9.9.9.9.9.9.9.9.9.8.5.5.2.<.,.] P K S S v , @.@.",
"$.&.V m N S H I U ,.2.5.8.8.9.9.9.9.9.9.9.9.9.9.9.9.9.9.9.9.9.9.9.9.9.9.9.9.9.9.9.9.9.9.9.9.9.9.9.9.8.8.3.3.<.,.I P H Z m , @.@.",
";.&.N m N S K L I ,.2.5.8.9.9.9.9.9.9.9.9.9.9.9.9.9.9.9.9.9.9.9.9.9.9.r.9.9.9.9.q.9.q.9.9.9.9.9.9.9.8.9.5.5.2.,.] P K N N } a 1 ",
"k l V m v S H K I ,.<.5.8.8.8.9.9.9.9.9.9.y.b.y.9.9.9.9.9.9.9.9.9.9.9.9.9.9.9.y.w.r.9.9.9.9.9.9.9.9.9.9.8.5.5.<.,.I P Z N } 5 j ",
"*.@.N v v Z S L I ,.<.3.8.8.8.9.9.9.9.9.9.F.G C.9.9.9.9.9.9.9.9.9.9.9.9.9.9.r.D.n c.9.9.9.9.9.9.9.9.9.8.9.8.8.2.,.I P S b } l l ",
"*.:.N v v N S P I U <.2.5.8.8.9.9.9.9.9.t.g.n z y.9.9.9.9.9.9.9.9.9.9.9.9.q.N.` e ..r.9.9.9.9.9.9.9.9.9.9.8.5.3.<.I P S b l =.;.",
"a j N v v N S H P U ,.2.3.8.8.8.9.9.N.Q.!.K M w I.W.B.q.9.9.9.9.9.9.9.r.N.Q.Z.S e t ^.S.N.9.9.9.9.9.9.9.9.9.8.3.<.I P S N 5 ;.;.",
"*.*.N v N N S S I U ,.<.2.5.8.9.x.( 1.G m I x q Z S ^ ' e.9.9.9.9.9.w.` { S N U e r Z S ( [ n.9.9.9.9.9.9.9.8.5.<.U P S N d d d ",
"=.&.} v v N Z S H U ,.<.<.8.8.8.t.v.u x C P c C K C i j.y.9.9.9.q.9.M...w F C I e J H x z c.r.9.9.9.9.9.9.9.8.5.<.,.L S D ;.f d ",
"s a &.v p N N S H I U ,.<.5.5.8.9.9.Z.t 9 w y e 0 r P.q.9.9.9.r.9.9.9.y.z.w q e n w 9 t D.9.9.9.9.9.9.9.9.9.8.5.,.U P S ( s d ; ",
"= 7 7 N v N N S K P I <.,.3.5.5.8.9.t.g.S U w A S X.y.9.9.9.9.9.9.9.9.9.n.E L L 9 L N z.r.9.9.9.9.9.9.9.9.9.9.5.2.U I S ) ; ; ;.",
", s , Q v v N S S L I U ,.<.3.8.8.8.b.[ P r w q A ( B.9.9.9.9.9.q.9.9.9.M.D S w 9 e S O.y.q.9.9.9.9.9.r.9.9.8.5.<.U L S k &.s 8 ",
"j #.#.s v v v Z S H P I ,.,.2.3.8.8.S./ y R D.| i Z G.9.9.9.9.9.9.9.9.9.W.D y ` I.W t A n.9.9.9.9.9.9.9.9.8.8.5.<.U P G * - - 8 ",
", , f ; v v v N S S H U I ,.<.<.2.5.e.) D.q.9.r.D.1.c.q.9.9.9.9.9.9.9.9.e.k.m.r.9.r.I.K r.9.9.9.9.9.9.9.8.9.5.2.<.I K o.k s - - ",
"j s , s E v v N Z S K P I U ,.,.2.2.8.0.5.8.8.9.9.9.9.9.9.9.9.9.9.9.9.9.y.r.9.9.9.9.8.t.r.9.9.9.9.9.9.8.8.8.5.<.,.P K k k s &.s ",
"p.&.&.&.a v v v N Z S H P I U ,.,.,.<.2.3.3.8.5.8.9.9.9.9.9.9.9.9.9.9.9.9.9.9.9.9.9.9.9.9.9.9.9.9.9.9.9.9.5.3.,.I L ^ h f s f ; ",
"j j &.&.s N m m v N S S H L I I I ,.,.<.<.3.3.3.8.8.8.9.9.8.9.9.9.9.9.9.9.9.9.9.9.9.9.9.9.9.9.9.9.9.9.8.8.5.<.,.I S f j j s s s ",
"a.a +.%.%.$.m v N N N Z H H K L I I U ] <.<.<.3.3.8.8.8.9.9.9.9.9.9.9.9.9.9.9.9.9.9.9.9.9.r.9.9.9.9.9.8.5.3.,.U P _ j f h s s s ",
"+.a j a a s Q v v v N Z Z S H H H P I I U ,.,.<.<.5.5.8.9.8.9.9.9.9.9.9.9.9.9.9.9.9.9.9.9.9.9.9.9.8.8.5.3.<.,.P H j j j f s s s ",
"6 *.*.8 # - @.N v v v v N b Z S S H K L I I U ,.<.<.5.8.8.8.9.9.9.9.9.r.9.9.9.9.9.9.9.9.9.9.9.9.9.8.8.3.<.,.I H >.d f f #.j s a ",
"a.*.*.7 =.@.@.@.m v m v v b m N Z S S H L I I U ,.<.<.5.8.8.8.9.9.9.9.9.9.9.9.9.9.9.9.9.9.9.9.8.8.8.3.<.,.I L / s f #.d d $.a s ",
"6 6 *.*.=.7 - 7 7 v v v v v v v v Z Z S S L I I U ,.<.2.3.8.8.9.9.8.9.9.9.9.9.9.9.9.9.9.9.8.8.8.5.3.2.,.U K K s &.f #.#.5 s #.j ",
"6 $ 5 *.6 - 7 l @.R m v v v v v v v m Z S S P I U U ,.<.2.5.3.8.8.8.9.9.9.9.9.9.9.9.9.8.8.9.8.5.5.<.,.U I G s ; ; 5 f d 5 s j l ",
"u.H.; k k % =.=.*.i.! m v v v v v v N N Z S S L I I U <.<.2.5.8.8.8.8.8.8.9.8.9.9.9.9.8.8.8.5.3.<.,.U P A u.2 X   > a a +.l s s ",
"u.H.H.; k 7 6 7 % 5 + Q v v p v v v v m v N S H H I U ,.,.<.<.2.3.5.8.5.5.8.5.8.8.8.8.5.5.3.3.<.,.U P K   X u.;.-.a a > +.k k j ",
"u.; k - k =.u.% 8 u.6 + / V v v v v v v N N Z S S L P I U U ,.<.<.,.<.2.2.3.3.3.3.3.3.2.2.<.,.U I K G @.$.X 2 ;.;., +.+.+.l &.&.",
"f k k H.k 7 7 % % u.u.6 u.+.v v v p v v v v v Z S S S P P I I I U ,.,.,.<.,.,.,.U U U <.,.] U P S / #.> @.;.2 ;.;.a +.+.+.s k &.",
"% $.$.2 o % 6 l @.- = 7 7 l 5 R v v v v v v m v N Z S H S L L L P P P I I I I L L P I I I P K G *.d d %., @.@.= 7 &.*.8 *.&.s s ",
"#     O < @.$.j @.7 @.$.5 5 j :.k Z v p m p m m N m N N Z Z S S S S S H H H H S H K K K K H ^ s s d %.%., = $.@.7 7 $ a *.%.&.&.",
"*.2 , $.$.@.1 $.4 @.@.@.@.j 5 5 5 k k N m m p m v v m m v N b N N N Z N S S S Z Z Z Z G ) s &.&.s d %.d , $.j @.#.7 7 7 7 d &.: ",
"*.$.$.$.$.@.$.@.4 7 7 6 5 +.+.j 5 s s l %.} m p v v m m v v b v b v v N m Z N N b E k , , ; s %.&.%.%.d d 7 @.@.7 *.*.*.8 &.s s ",
"&.l :.j l %.i.f f l #.@.@.1 j *.j s s , , d d d Q R V v v v v m v v v v v D G $.&.#.#.- 7 4 4 h h s , #.s : $.$.$.:.+.a @.;.h h ",
"j k :.:.4 d $.$.d 3 3 3 #.h 4 4 f s s #.s d d d = d :.;.u.8 }  . .5 5 a j d d d d #.6 = 7 4 4 - 4 s , , s > ; $.$.a a -.@.h ;.h ",
"j l :.k 4 d %.a.a.3 @.d.+.4 *.j j s l $.s d d :.d ; ; ; ;.a.8 8 a.5 5 f j d : d &.5 7 7 #.g h 4 1 , #.#.@.>   > $.-.;.@.-.;.h ;.",
"h +.:.k j a.a.$.a.@.d.d.d.j *.*.*.s s s #.:.= d s ; d d f a.a.i.a.k j *.5 d d d %.#.#.#.7 4 g - 4 , s s d . . $.$.j @.a @.;.> h ",
"&.%.< %.%.;.;.;.;.+.+.+.< d 3 %.$.1 1 1 u.2 O *.*.7 5 5 5 3 &.f 3 j l j j j j j j 4 2 $.4 4 &.&.  ; h > , ; j :.j d a *.*.8 p.8 "
};
