/* XPM */
static char *result[] = {
/* columns rows colors chars-per-pixel */
"64 64 171 2 ",
"   c black",
".  c #210800",
"X  c #290800",
"o  c #290C00",
"O  c #290C08",
"+  c #291008",
"@  c #311008",
"#  c #311408",
"$  c #3A1408",
"%  c gray19",
"&  c #421408",
"*  c #421808",
"=  c #421C08",
"-  c #421810",
";  c #421C10",
":  c #4A2010",
">  c #4A2410",
",  c #522410",
"<  c #5A2410",
"1  c #522810",
"2  c #522419",
"3  c #522819",
"4  c #562B19",
"5  c #5A2819",
"6  c #5A2D19",
"7  c #5A3119",
"8  c #632D19",
"9  c #633119",
"0  c #633519",
"q  c #633121",
"w  c #633521",
"e  c #6B3521",
"r  c #633921",
"t  c #673921",
"y  c #633B25",
"u  c #673D25",
"i  c #673F25",
"p  c #6B3921",
"a  c #6B3D21",
"s  c #6B3D25",
"d  c #6B3F25",
"f  c #6F3F25",
"g  c #6B3D29",
"h  c #6B3F29",
"j  c #733D21",
"k  c #733F25",
"l  c #6F4329",
"z  c #6B452D",
"x  c #6F492D",
"c  c #734121",
"v  c #734129",
"b  c #734329",
"n  c #734529",
"m  c #734729",
"M  c #77472D",
"N  c #7B4529",
"B  c #774929",
"V  c #77492D",
"C  c #774B2D",
"Z  c #7B4929",
"A  c #7B4D29",
"S  c #7B492D",
"D  c #7B4B2D",
"F  c #7B4D2D",
"G  c #775728",
"H  c #7B4931",
"J  c #7B4D31",
"K  c #7F4D31",
"L  c #7F5131",
"P  c gray31",
"I  c #804B2D",
"U  c #804D2D",
"Y  c #804D31",
"T  c #804F31",
"R  c #844D31",
"E  c #844F31",
"W  c #805131",
"Q  c #845131",
"!  c #845331",
"~  c #845531",
"^  c #845335",
"/  c #885331",
"(  c #885531",
")  c #8C5531",
"_  c #885335",
"`  c #885535",
"'  c #885735",
"]  c #8C5735",
"[  c #8C5935",
"{  c #8C553A",
"}  c #8C573A",
"|  c #88593A",
" . c #8C593A",
".. c #8C5B3A",
"X. c #90593A",
"o. c #905B3A",
"O. c #94593A",
"+. c #905D3A",
"@. c #905F3A",
"#. c #945D3A",
"$. c #945F3A",
"%. c #905D3E",
"&. c #905F3E",
"*. c #945F3E",
"=. c #94613A",
"-. c #94613E",
";. c #94633E",
":. c #98613E",
">. c #98633E",
",. c #FF6600",
"<. c #946142",
"1. c #986342",
"2. c #986542",
"3. c #986742",
"4. c #9C6542",
"5. c #9C6742",
"6. c #9C6942",
"7. c #9C6D42",
"8. c #9C6946",
"9. c #9C6B46",
"0. c #A56942",
"q. c #A56D42",
"w. c #A06B46",
"e. c #A06D46",
"r. c #A56D46",
"t. c #A06D4A",
"y. c #A06F4A",
"u. c #A56D4A",
"i. c #A56F4A",
"p. c #A5714A",
"a. c #A5734A",
"s. c #A5754A",
"d. c #A0734E",
"f. c #A9734A",
"g. c #AD714A",
"h. c #AD754A",
"j. c #A9754E",
"k. c #A9774E",
"l. c #AD794A",
"z. c #AD7552",
"x. c #AD7952",
"c. c #AD7D52",
"v. c #AD7D56",
"b. c #B57D52",
"n. c #06A100",
"m. c #FFC700",
"M. c #B58252",
"N. c #B18256",
"B. c #BD8652",
"V. c #B5825A",
"C. c #B5865A",
"Z. c #BD865A",
"A. c #BD8A5A",
"S. c #BD8E5A",
"D. c #BD8A5F",
"F. c #BD8A63",
"G. c #BD8E63",
"H. c #C59263",
"J. c #C59663",
"K. c #CE9A63",
"L. c #CE9A6B",
"P. c #CE9E6B",
"I. c #D6A673",
"U. c #004FC9",
"Y. c #669ACD",
"T. c #E6B684",
"R. c #F6D5B3",
"E. c #9ACDFF",
"W. c gray95",
"Q. c #FFFEF9",
"!. c white",
/* pixels */
"e.h.>.Q h.p.p.Q p.A.6.Z Z a [ [ [ ` ` ` <.u.u.u.u.d @ d q.` w w ` E 6 E E u.Y 6 6 t t * t @ w O.w k k k k T -   T 6 D 6 6 w c.c.",
" .>.h.>.>.-.-.-.-.6.6.6.6.a [ h.h.<.` Z ` u.u.u o d q.q.q.w w h.` E E E E u.u.6 6 t  .t  .w @ O.w , , O.k - - - - 6 D 6 D | | | ",
" .h.h.h.Q -.p.-.Q Z Z 6.6.h.[ [ [ ` ` Z <.u.u.u u q.q.q.q.h.` ` h.E g.E E u.u.Y u. . .t  .w w w O., , O.k - B.B.- D D D 6.| w w ",
"p.G.=.k.=.x.L.x.x.e. .e.M.b.v v v ' ' ' p.A.A.n 3.V.V. .V.5.R R M.n 2.2.n v.n v.v.b.a a a : : n n 6 6 ^ ^  .:  .: * D * D 5 ^ ^ ",
"p.=.k.=.=.D.x.x.x.e. . .e.b.*.*.v ' ' a p.n 3.3.3.V. . . .R 5.R 5.Z.2.2.n n n v.n a +.+.+.n : n n 6 6 6 x.: :  .s b.b.D D 5 ^ c.",
"] =.=.=.=.x.L.D.x.e.e. .e.b.b.*.v ' ' a a n n A.A.V.9 V.V.5.M.5.R 2.n 2.n n n T.v.a b.a a 6.n 6.n 6 x.6 6 :  . .: D b.D D c.^ ^ ",
"p.G.=.k.k.x.L.L.L.M.M.e.e.b.*.v v ' ' ' p.A.A.A.A. .V.V. .M.M.5.5.2.2.n n n n n n a a +.+.6.6.n n ^ x.^ 6 s  . .s * D D D ^ 5 5 ",
"N.j.G.#.j.a.K.K.a.s.s.s.s.Z.5.Z Z ! ! ! ! F F p.F %.H.H.%.x.x.-.-.S =.=.S L L L c.p.& p.p.R R 4 4 s.s.! s.u.u.u.u.a a a a 5 T T ",
"4.#.G.G.j.J J J a.-.R -.s.5.Z Z 5.a ! 6.a p.F 1 p.%.H.%.5 Z Z -.-.=.=.S q , c.c.c.p.b p.b R R 4 4 s.s.9 ! u.: : u.;.a a ;.s.s.5 ",
"4.j.#.G.G.J J J a.-.R R -.Z 5.Z.Z.! ! 6.a p.p.F F   5 %.%.Z Z Z -.S =.=.=.L L L L p.b p.p.4 R R 4 9 9 9 ! M M M u.;.a a ;.T T T ",
"N.G.j.#.j.a.J J J R -.-.-.Z 5.Z.5.a 6.6.! p.F F p.%.%.%.% % % Z % % % % S , , L , b b b b 4 R R X ! 9 ! ! : M M u.;.A.;.a 5 s.T ",
"Z.V.&.&.&.a.Q Q a.8.Z 8.8.N 6.N N l.l.! ! Q Q b.5.6.% % % % % % % % % % % a U a U E E E 8 } } 5 5 I I I I h.K 2   & 6.6.f -.V.V.",
"-.&.V.V.&.a.Q Q Q 8.Z F.8.] 6.6.6.l.l.l.6 5.b.5.Q % % % % % % % % % % % % % #.#.#.E p.8 8 } 5 5 } I I p.p.K K 2 2 & & f 6.-.c -.",
"a a &.V.&.Q J.a.a.F.8.Z Z ] ] 6.6.! l.l.l.Q Q 5.% % % % % % % % % % % % % % #.#.#.p.p.E E } } } Z.I < p.I K h.K K 6.f 6.6.-.c V.",
"-.a a &.a Q a.J.J.F.Z Z 8.6.] N ] ! ! ! 6 Q Q % % % % % % % % % % % % % % % % #.#.p.p.E p.} Z.} Z.I I p.I h.h.K K 6.6.f f c c -.",
"c.3.v v v p p p p W W 7.7.[ [ [ p.4.U U 0 2 v % % % % % % % % % % % % % % % % Q Q U 4.U 4.u.u. .u., , , Q t.V.V.t.9.Q 9.9.+.j j ",
"c.3.v Q.v p 4.4.4.W W 7.7.[ [ p.p.4.U U 4.v #.% % % % % % % % % % % % % % % % Q Q 4.4.0 U u. .n u.b.Q , ,  . . . .C.9.Q Q +.c.+.",
"c v 3.3.3.E E 4.4.w W w W p.p.[ [ 4.4.4.4.#.#.% % P % % % % P % % % % % % % % 9 Q U 4.4.U n u. .n Q Q Q b.V.V. . .C.Q Q Q +.c.c.",
"@.3.S.S.3.E 4.E E W 7.W w c [ p.[ U U U U #.v % % % P % % P % P % % % % % % % Q 9 0 U 4.U  . . .n Q Q Q Q t.t. .V.C.9.Q Q +.c.c.",
"x.w. .w.b.C.C.O.O.Z.~ ~ ~ p E E 4.2.x.2.Q Z Z % % P % P % P % P % % % % % % % w.Q e. . .e.Q Q Q Q o.p.p.o.Z Z Z -.H b.1.1.z.*.*.",
"-.b.b. .w.i.O.i.O.e.~ ~ ~ E E E 4.2.Q Q 2./ / % % % R.R.R.R.R.R.% % % % % % % Q Q  . .e.M.3.3.Q 3.p.p.p.o.-.x.x.Z 1.1.H 1.z.*.*.",
"Z w.b.b.b.i.O.i.i.~ ~ ~ ~ 4.4.E 4.2.Q Q 2.#.#.% % % R.R.R.R.R.R.R.% % % % % % w.w. .e.e.e.3.3.3.c.N N o.o.-.-.-.x.b.1.1.1.Z Z *.",
"-. .b.b.w.i.C.i.O.~ ~ ~ ~ E E E E 2.x.x.Q Z Z % % % R.R.R.R.R.R.R.% % % % % % Q Q M.M.e. .Q c.c.c.o.p.o.o.Z Z Z x.1.1.b.b.*.*.*.",
"x.2.2.2.c.5.A.5.N +.+.Q Q Z [ Z [ >.>.h.Q Z =.% % % R.R.R.R.R.% % % % % % % % p.N 4.4.R 4.5.5.Z 5.R x.x.R y.y.v v D D q.q.-.p.p.",
"2.2.R 2.c.A.A.5.N +.Q +.6.6.[ [ 6.h.h.h.Q Z =.% % % % R.R.R.% W.W.% % % % % % o.% % % 4.b.Z.5.5.Z.R R R R P.P.y.y.3 3 3 D Q Q -.",
"2.2.2.R R 5.A.5.N +.+.+.+.6.[ [ [ Q h.h.Q Z ( % % % % R.R.% E.W.% % % % % % % % ,.,.,.% b.5.Z 5.5.x.I.I.x.y.v v y.q.D D q.p.-.p.",
"Q 2.c.2.2.5.N N 5.6.+.+.+.6.6.[ 6.Q Q Q Q ( ( % % % % R.R.R.R.R.R.% % % % % % ,.% ,.,.,.% Z Z Z Z R x.x.R v v v v D q.D q.p.Q -.",
"e. . .A.A.a. . .a.i.i.#.i.#.#.#.C.l.>.R R +.+.% % % % % R.% % % R.% % % % % ,.% ,.% % % % % J  .J J J J b...x...a J 9.J J E E 4.",
"c.p. .p.A.a.a.a. .i.i.#.i.#.#.#.p.l.>.>.>.+.+.% +.% !.% % R.R.R.R.% % % % % % % % [ [ [ 6.4.J  .4.2.b.J J x.x.x...J J J J p 4.4.",
"e.p.p.p. . . .a.S.V.#.#.#.#.#.p.#.R R >.l.M.+.p p Q % % ,.% % % % % ,.% % % % % 4.6.Z Z 6. .J  . .2.2.J J x.a x...9.A.J J p 4.4.",
"c.p.p.p. .a. . .a.V.#.i.#.#.p.#.#.>.R l.l.M.+.p p % % % ,.,.,.% % ,.% % % % % % Z [ [ [ Z 4.4.J J 2.2.2.b.x.x.....J 9.9.J E E p ",
">.*.*.b.b.4.Q Q Q ` p.p.p.#.#.#.#.R R *.p.h.$.h.Z % % % ,.,.% % ,.% % % % % % % A Z [ 6.[ =./ N / o.6.6.o.p.C.#.#.R R R 5.-.Z -.",
"h.*.v v *.Q a Q 4.` ` p.p.f.A.f.f.*.R R p.h.h.h.$.% % % ,.% ,.,.% % % % % % % W.% 6.6.[ [ / / / / o.6.6.6.#.#.p.#.R 5.M.M.-.-.-.",
"h.b.*.v b.4.a 4.4.p.` p.p.A.A.f.f.p.p.% *.h.$.Z % W.% % ,.,.% % % % % % % % W.W.W.% 6.6.Z N / =./ o.6.o.6.p.#.#.#.5.R 5.5.-.x.x.",
"Q *.b.*.b.Q a 4.4.p.` p ` f.A.A.#.*.% R.% h.$.$.% W.% % % % % % % % % % % % W.W.W.W.% % % / =./ / R R R 6.p.#.#.C.M.R R R Z x.x.",
"l.s., F s.Q Q Q Q #.c.e.#.-.-.Q p.u.% % R.% % % W.W.% % m.m.G % % % % % !.!.% W.W.W.% R.R.% #.#.#.Q Q 2.Q ` ` ` q.4.4.4.4.' ' ' ",
"l.s.F F s.8.8.Q Q #.#.c.c.p.Q Q -.% R.% % R.% W.W.W.% Y.% % % Y.% % Y.Y.% !.!.% W.% R.% % % Q #.#.2.2.Q 2.` q.q.g n 4.n 4.c.' ' ",
"Q F s.s.s.8.Q 8.Q e.e.#.e.p.p.-.Q % % % % R.R.% W.% % Y.% % Y.Y.Y.% Y.Y.% !.!.!.% R.R.R.R.R.% n #.x.x.x.x.q.q.q.q.4.n n n ' ' 9 ",
"5 F F F s.Q 8.V.8.#.e.#.e.p.Q p.p.*.Q % % % R.% % !.% Y.% % % Y.Y.Y.% Y.Y.% !.!.% R.R.R.% R.% Q #.Q 2.Q Q q.` q.q.n > n 4.9 9 c.",
"a ! a ! 6.-.Z x.x.M.+.+.M.9.9.9.9.Q % R.% % % % s.% Y.Y.% % % Y.Y.Y.Y.Y.Y.% !.% R.% % % R.R.% 4.4.Z Z Z Z p.N p.N n n 3 =.p.W W ",
"*.6.6.! 6.x.Z Z -.M.M.+.+.9.P.9.9.J.% % R.% 3.s.3.% Y.Y.Y.% % Y.Y.Y.Y.% % % % Z % % R.R.% % R 4.X.Z ` Z <.o.N o.p.=.3 n 3 7 7 W ",
"a a ! a 6.-.Z -.x.p p M.p 9.P.9.P.J.Q Q % s.3. . .% Y.Y.Y.% % Y.Y.Y.% R.R.R.% $.Z N % % =.X.R X.R Z Z Z Z N o.o.o.=.=.n =.W 7 7 ",
"*.! a ! ! -.-.-.-.+.+.M.p p 9.P.9.a.a.a.a. . . .s.% Y.Y.% % % % Y.Y.Y.% % % % % $.=./ / / R R R R Z ` ` Z N o.o.o.=.=.=.=.W p.W ",
"V.p.p.p.R Q 6.Q Q M.M.M.M.p.T p.p.p. .p. .Q Q 5.% Y.Y.% Y.% % % Y.Y.Y.Y.Y.Y.Y.% v +.+.Z Z  . .M M ` ` <.<. .Z Q  .o.N o.o.Q Q a ",
"-.*.p.p.R Q Q Q Q x   + + 6 6 T p.p. .v  .b.5.Q % Y.Y.Y.% % % % % Y.Y.Y.Y.Y.Y.% % Z Z +.+. . . . .Z ` ` ` Q Z Z  .p.o.o.o.Q Q Q ",
"V.R *.p.p.6.M.M.M.x x x M.p.T 6 6 v  . . .b.5.5.% % Y.% % % % % % % % % % Y.% % % p.p.Z Z  .M M  .<.Z Z Z Z Q Z Q p.o.o.o.Q Q Q ",
"-.R *.R R Q M.Q Q x M.M.M.p.p.p.p.p.v  .p.5.b.b.% % % % % % % % 1.% % % Y.% % % % p.+.+.p. . .M w Z ` ` Z Q  . .Q o.o.o.o.Q Q Q ",
"C h.h.V ; 7 4.4.7 p / / q.6 6 T p.q.q.> > w ....w % n.n.n.% % x.N  .% % % % % % % e.Q Q e.i. . . .Z Z o.o.! ! ! ! ] ] ] 6.+.Q Q ",
"A.h.h.V h.4.4.4.D / / / p 6 T p.T B q.q.B w M.M...% % % % U.% x.N n u.% % n.n.n.% A.A.e.Q  . . .Z.u.Z o.o.p.! ! ! ] 6.] ] 6.Q Q ",
"C V h.h.h.D 7 D D p q.q.p T p.p.p.B B q.q...M...% W.W.U.U.U.% N N u. .% U.% % % % % e.e.e. . .i.Z.o.Z Z o.p.! ! p.] 6.6.N Q 6.+.",
"C ; V h.V 7 D 4.4.q.q./ p T p.T p.q.B B B ..w % W.W.W.W.U.% x.N N  .n u.% U.W.W.W.% Q Q Q  . . . .Z Z Z u.p.! 0 0 N ] ] N Q +.6.",
"M.H.0 ;.;.> h.h.h.M.M.$ C <.<.<.<. . .D a x.x.% % % % % % { C.t.t.b.N :.% W.W.W.W.% p.p.' p.p.+.Z 4.4.4.y c.z O   p Y Y <.-.Q Q ",
"M.H.H.0 ;.F F F > C $   C <.M <.6 D D a  .x.x.v v *.x.N N { { { { :.N :.% % % % % % a p.p.p.p.p.+.4.4.y   O c.c.c.Y Y p <.-.-.-.",
"M.0 ;.0 ;.h.h.> F M.C $ C M M M 6 a D D  .%.%.v v N *.N *.C.C.t.{ :.:.N N  .p.p.p.p.a a p.Z Z p.+.4.y 4.4.O z c.c.p <.<.<.-.p.p.",
"' ;.;.H.;.F F > > M.M.C M.<.6 6 M  . . .D v %.%.x.*.N N *.t.t.C.C.:.b.:.N v v  .v ' p.' ' +.Z p.p.4.4.y 4.c.z c.c.Y <.<.<.Q -.p.",
"; q.q.i + > n 4.4.6 6 S S *.N *.*.p.-.p.p.x.&.&.x.^ ^ ^ b.l.! ! l.^ ^ ^ ^ T T 6 6 a &.&.a ! ! p.p.` ` u.a 4.4.7 D h.h.D h.p.^ ^ ",
";     + i 4.4.4.4.S 4.4.S N *.x.*.-.p.p.-.n &.x.x.b.b.b.^ l.l.6 6 ^ 6 ^ x.p.p.p.p.&.a a &.! ! ! ! ` u.u.a 7 4.4.D D : D h.p.p.p.",
"h.i i q.q.4.n 4.n 4.4.4.4.*.N N N -.-.-.-.n &.&.n ^ ^ ^ 3 l.l.6 6 6 ^ x.x.p.T T T &.a V.V.! p.p.! ` u.` a 4.4.4.4.D D D D ^ p.w ",
"h.q.q.q.q.4.4.4.n S S S S *.*.*.N Q Q -.p.&.&.&.&.3   3 ^ ! ! ! ! ^ x.^ 6 T T T 6 &.&.a a 0 ! p.p.u.u.` ` D 4.4.D h.h.h.D p.^ ^ ",
"h.-.b.-.-.r.Z.) ) 3.3.3.3.v o.h.o.! ! a a ` ` ` b.c.' c.' = = W W Z @.@.Z _ p.p.p.6.6.6 D b b { { ! a 6.! r 0.0.0.x.1.R 1.x.....",
"o.-.b.b.n ) r.r.) c c c 3.o.v v o.! ! 6.! ` ` ` 6 ' c.c.c.W W Z.W Z Z Z @._ _ _ _ 6.D 6 D b b 7 b ! a a ! r r 0.0.R R x.1...x...",
"o.-.b.-.n ) r.Z.Z.c 3.G.3.v h.o.o.! 6.6.! ` ` b.` 9 9 9 c.Z.W W Z.Z Z @.@._ e _ p.D D D 6.{ { b b a 6.6.6.r   r 0.x.x.1.x.x...x.",
"o.-.b.-.-.Z.Z.r.Z.3.G.G.G.o.h.h.h.! ! ! 6.b.6 ` ` 9 ' ' ' Z.Z.Z.Z.@.@.s.Z _ _ _ p.6.6.6.D b { 7 b a ! ! ! . . 0.0.1.1.R 1.x.a ..",
"d.u.h u.u.x.x.x.x.<.<.<.h ] c u.u.j j j M.l # g.g.Z Z Z Z c p.[ c *.*.*.*.#.#.#.#.l l q.l m p.p.  t { t t a @.M.@.Q Q h.h.J V.J "
};
