/* XPM */
static char *result[] = {
/* columns rows colors chars-per-pixel */
"64 64 194 2 ",
"   c black",
".  c #240900",
"X  c #290C08",
"o  c #291008",
"O  c #311108",
"+  c #3A1408",
"@  c #421408",
"#  c #421808",
"$  c #421910",
"%  c #4A2110",
"&  c #522410",
"*  c #522519",
"=  c #5A2C19",
"-  c #5A3119",
";  c #633319",
":  c #633521",
">  c #663B22",
",  c #6B3D22",
"<  c #6B3C26",
"1  c #733E23",
"2  c #6D442B",
"3  c #734121",
"4  c #734329",
"5  c #7B4529",
"6  c #774A2D",
"7  c #7B4B2C",
"8  c #7C4D31",
"9  c #C51B07",
"0  c #C71E08",
"q  c #CA1E08",
"w  c #CB230A",
"e  c #CE2C0C",
"r  c #D32709",
"t  c #D42C0B",
"y  c #D4340D",
"u  c #D93A0E",
"i  c #D22E13",
"p  c #D23416",
"a  c #D43A12",
"s  c #D83B14",
"d  c #E53A0D",
"f  c #EA3F0E",
"g  c #834E31",
"h  c #845232",
"j  c #895635",
"k  c #8C5935",
"l  c #8C553A",
"z  c #8C593A",
"x  c #925D3C",
"c  c #94613D",
"v  c #98633E",
"b  c #DB4211",
"n  c #DD4C14",
"m  c #DC451B",
"M  c #EB410F",
"N  c #E14412",
"B  c #EC4611",
"V  c #E34A17",
"C  c #EC4C12",
"Z  c #EC4C1A",
"A  c #E35416",
"S  c #ED5314",
"D  c #EE5B16",
"F  c #ED531C",
"G  c #E65C18",
"H  c #ED5B1B",
"J  c #EE6017",
"K  c #EF6419",
"L  c #EF6A1A",
"P  c #F06D1B",
"I  c #ED731E",
"U  c #F0731E",
"Y  c #F1791F",
"T  c #DB4C24",
"R  c #DE5C2E",
"E  c #ED5422",
"W  c #E75A24",
"Q  c #ED5B23",
"!  c #EE5D2B",
"~  c #EE6125",
"^  c #EF6A23",
"/  c #EB6929",
"(  c #F06D25",
")  c #F06D2C",
"_  c #F07223",
"`  c #F27D20",
"'  c #F07329",
"]  c #E66833",
"[  c #E9733A",
"{  c #F17D32",
"}  c #F07538",
"|  c #946142",
" . c #9A6542",
".. c #9C6942",
"X. c #A36C44",
"o. c #A56D4A",
"O. c #A5724A",
"+. c #AC754B",
"@. c #AD794A",
"#. c #AD7552",
"$. c #AD7B52",
"%. c #B57D52",
"&. c #ED7D45",
"*. c #F38422",
"=. c #F38B24",
"-. c #F38D29",
";. c #F49426",
":. c #F49827",
">. c #F4942B",
",. c #F59C29",
"<. c #ED8639",
"1. c #F28937",
"2. c #F1843C",
"3. c #F39737",
"4. c #F49D3A",
"5. c #F5A42A",
"6. c #F7AD2D",
"7. c #F5A335",
"8. c #F7AE32",
"9. c #F5A43C",
"0. c #F6AA3B",
"q. c #F7B135",
"w. c #F8B137",
"e. c #F7B23B",
"r. c #F8B23C",
"t. c #B58252",
"y. c #BD8652",
"u. c #B5825A",
"i. c #BD865A",
"p. c #BD8B5B",
"a. c #BD8E63",
"s. c #EB8842",
"d. c #F28D48",
"f. c #F39443",
"g. c #F49C43",
"h. c #F39C4C",
"j. c #EE8E51",
"k. c #F39D52",
"l. c #F2965B",
"z. c #F5A445",
"x. c #F7AB44",
"c. c #F6AB49",
"v. c #F7B444",
"b. c #F8B442",
"n. c #F7B34C",
"m. c #F8B74A",
"M. c #F7B848",
"N. c #F8B94C",
"B. c #F6AC52",
"V. c #F5A759",
"C. c #F7B454",
"Z. c #F8BC53",
"A. c #F8B857",
"S. c #F6B35B",
"D. c #F8BC5C",
"F. c #C59463",
"G. c #CE9A63",
"H. c #CE9A6B",
"J. c #F29866",
"K. c #F4A669",
"L. c #F5AB69",
"P. c #F7B564",
"I. c #F8BC62",
"U. c #F5AE7B",
"Y. c #F8BD76",
"T. c #F9C264",
"R. c #FAC66C",
"E. c #F9C472",
"W. c #FAC973",
"Q. c #F8C47A",
"!. c #FACB7C",
"~. c #F6B883",
"^. c #F9C687",
"/. c #FACD84",
"(. c #F9CF8D",
"). c #F7C392",
"_. c #F8CB98",
"`. c #F9D093",
"'. c #F9D29C",
"]. c #F9D3A4",
"[. c #F9D6AC",
"{. c #FAD9AF",
"}. c #F8D7B5",
"|. c #FADAB5",
" X c #FADDBA",
".X c #FBE2C3",
"XX c #FCE6CB",
"oX c #FDE9CF",
"OX c #FDECD5",
"+X c #FEF0DE",
"@X c #FDF2E3",
"#X c #FEF6EB",
"$X c #FEF9F3",
"%X c #FFFEFC",
/* pixels */
"X.+.v h +.O.O.h O.p...7 7 , k k k j j j | o.o.o.o.> O 2 X.j ; : j h = h g o.g = = ; , # > O : x : 1 1 1 1 g $   g = 7 = - : $.$.",
"z v +.v v c v x v  .....v 3 k O.O.| j 7 j o.o.> X 3 X.X.O.; : +.j g g h g o.o.= = > z , l : O x : & & x 1 $ $ $ $ = 7 = 8 z z z ",
"z +.+.+.g c o.v g 7 7  ...+.k k k j j 7 | X.o.> , X.X.X.X.+.Q Q E Q Z g g o.o.g o.z z > z : : ; x & & x 1 $ y.i.$ 8 8 7 ..z : : ",
"O.a.c +.c $.H.$.$...k X.t.%.4 4 4 j k z O.p.p.4  .( S D J J D D D S C C M f M Q ! %., , , % $ 6 1 = = g h z % z $ # 7 # 6 = h h ",
"O.c @.c c p.$.#.$...z z X.%.c c 4 j j ; O.( H J L L I U U P P P K D D S S C M M M M B ! x 4 % 4 5 = = = $.% % z < %.%.7 8 = h $.",
"j c c v c @.H.a.$.O...z X.%.%.x 4 j j ^ J P P Y Y *.*.*.*.*.` Y Y P K J D S S C C M M M B C 4 X.4 = $.= - $ z z % 7 %.7 6 $.h h ",
"O.a.c O.+.$.H.H.H.t.t.O.X.%.x 4 4 } J L _ Y *.*.=.;.;.;.,.;.-.*.*.Y Y P P K J D S C C M M M M C 4 h %.h = < z z < # 6 6 6 l = = ",
"t.O.a.x O.O.G.G.O.O.O.O.O.i. .7 H L Y *.=.=.:.:.,.,.9.z.0.z.4.3.;.*.*.` U P P K D D S B M M M M Z O.O.h +.o.o.o.o., , , < = g 8 ",
" .x a.a.#.8 8 8 O.c g x O. .) P ' 2.2.f.f.4.g.9.c.M.n.A.Z.N.C.x.9.3.;.=.*.Y Y U P K D S C M M M f B Z ; g o.% $ o.v , , c @.O.= ",
" .$.z a.a.8 8 8 O.c g g v ' _ { d.k.V.V.C.C.C.D.I.E.!./.!.W.T.Z.n.0.,.:.=.=.*.Y P P K D S S M M f f f B g 8 5 6 o.v , , c 8 h 8 ",
"t.a.O.c O.O.8 8 8 h | v ( P j.J.L.Y.E.E.Y.E.!./.(.[.[.'.'.`.W.R.N.M.w.,.:.;.=.=.*.U P K D S S M f f M f Z $ 4 6 o.c p.c , = O.8 ",
"i.u.x x | O.h h O...7 ^ } J.K.^.).]._.(.(.`.].[..XoXOXoX|.'.(.W.T.Z.r.8.5.:.;.=.*.Y U U K D D C B B f M f B g *   #  ...3 c u.u.",
"| c u.u.x O.h h h ..' [ J.U.'.}. X X|.|.{. X.XOX+X#X@X+XXX X'.!.T.Z.b.8.6.,.,.;.*.*.Y U P P D D F C M f M M B * * @ # 3 ..| 3 c ",
", , z u.x h F.O.O.} / J.J.]. XoX+XOXOXXXXXOXOX#X$X%X%X$XOX.X]./.E.Z.b.8.6.6.,.:.;.=.*.*.U P P D D C C M M M f V 8 ..<  ...c 3 u.",
"c , , c , g O.F.F.I j.J._.}.OX@X$X@XOXOXOXOX#X#X%X%X%X%X@XXX]./.W.Z.r.w.6.5.5.,.,.;.=.*.*.Y U L J D C C M M M M ! ....2 3 3 3 c ",
"$. .4 2 1 , , , ^ 2.l.~.}.XX@X$X$X#X#X+X+XOX@X#X$X%X%X$X+XXX[.!.T.M.r.6.6.6.6.5.5.:.;.;.*.Y Y U K J D C B M M M M ..h ....z 1 1 ",
"$. .4 4 4 ,  .( _ d.K.~.[.oX+X$X#X@XOXoXoXoXOX@X#X$X$X#XOX|.`.R.Z.M.q.6.6.6.6.6.5.5.,.:.=.=.` ` P K J S C M M M f B X.g h x $.x ",
"3 2 .... .8 g L { j.L.^.[..XOX+XOXoX.X.X[..X~.OX+X@XOXOX.X'.!.D.N.q.6.6.6.6.6.6.N.7.5.,.;.=.*.` Y U K D D B M M M M g j g x $.$.",
"x  .p.p. .h J U 1.V.L.Q.'.{. X X|.|.'.'.].~.S }.oXoXXX{.`.!.D.M.e.6.6.6.6.6.6.6.g.W N.,.,.;.=.*.Y U P J D C B M M f C g h z $.t.",
"$...z ..%.u.J Y 1.h.S.E./.`.`.`./.!.!.!.`.d.u j.|.].'./.W.Z.M.w.6.6.6.6.6.6.6.C._ y f.6.,.,.;.=.*.Y P P D D C M M f f  . .+.c x ",
"| %.%.z X.~ L ` -.z.B.S.R.W.W.R.T.R.E.E.Y.J u q ).(.Q.T.Z.b.q.q.6.6.6.q.e.v.C.B.J t p D.r.7.7.-.*.*.U U J D S B f f f d  .#.x v ",
"7 ..%.%.%.S P ` =.3.x.n.Z.Z.Z.Z.C.' ' H Z _ u q F F ~ Q b.q.6.6.6.6.6.4.*.I F C Y t t F H ~ S ,.=.*.Y U P J D C B B f B | 7 7 x ",
"c z %.%.X.D L _ *.>.5.0.w.e.w.w.M.s.p b G U n J K n p z.e.6.6.6.6.6.6.b.[ y n J *.a L G s T x.5.;.*.*.U P P D D C M M M ! x x x ",
"$. . . .H D D Y *.=.,.5.8.6.6.6.6.e.V.w q u b a w p S.q.6.6.6.6.6.6.6.6.M.&.w w V N t 9 T Z.5.,.:.=.*.*.Y P K D D C M M Z | O.O.",
"|  .g  .C D J P Y =.:.5.5.6.6.6.6.6.b.} J I 9 I A &.8.6.6.6.6.6.6.6.6.6.6.Z./ I A w ` B V.6.5.5.,.;.=.*.` U U J D C B M M j h c ",
" . . .8 B S D P Y *.;.,.5.6.6.6.6.6.v.S J t 9 w G K w.6.6.6.6.6.6.6.6.6.6.D.S J t 9 e D f.6.6.5.5.,.;.*.*.` U P J D C M M O.c O.",
"h  .$. .M S D L Y *.=.,.5.5.6.6.6.6.n.M a ] C.R s ^ M.6.6.6.6.6.6.6.6.6.8.c.N a 1.f.m N 2.e.6.5.5.5.,.;.*.*.` P P J S B M F h x ",
"..z z S M C D P U *.=.:.,.6.5.6.6.6.9./ D.q.6.q.D./ v.6.6.6.6.q.6.6.6.6.6.<.1.A.q.6.e.A.' b.6.6.6.5.,.,.;.=.*.Y P K D S M C g  .",
"$.O.z B B C D K U *.=.;.,.5.6.6.6.6.q.q.6.6.6.6.6.w.8.6.6.6.6.6.6.6.6.6.6.q.q.6.6.6.6.q.q.6.6.6.5.6.5.,.;.;.=.*.U K K S B F X. .",
"..O.o.Z M C D K U Y =.;.,.5.5.6.6.6.6.6.6.6.6.6.6.6.6.6.6.6.6.6.6.6.6.6.6.6.6.6.6.6.6.6.6.6.6.6.6.6.5.5.5.,.;.*.Y U K S C E  . .",
"$.O.O.B M B D D U Y =.;.,.5.6.6.6.6.6.6.6.6.6.6.6.6.6.6.6.6.6.6.6.6.6.6.6.6.6.6.6.6.6.6.6.6.6.6.6.6.6.6.5.,.,.=.=.U K D C Z g , ",
" .v x B M B D J P U *.=.:.5.5.6.6.6.6.6.6.6.6.6.6.6.6.6.6.6.6.6.6.6.6.6.6.6.6.6.6.6.6.6.6.6.6.6.6.6.6.6.5.5.,.;.*.Y P D S Z g x ",
"+.x 5 B B B S J P U *.=.:.,.5.6.6.6.6.6.6.6.6.6.6.6.6.6.6.6.6.6.6.6.6.6.6.6.q.6.6.6.6.6.6.6.6.6.6.6.6.6.6.5.,.:.=.Y P D C E v c ",
"+.%.| C M B C D P U *.=.;.,.5.6.6.6.6.6.6.6.q.6.q.6.6.6.6.6.6.6.6.6.6.6.6.6.6.6.6.6.6.8.8.6.6.6.6.6.6.6.6.6.5.:.=.*.U D S H #.$.",
"g x %.B M B C J K P Y =.=.,.5.5.6.6.6.6.6.6.6.6.c.g.q.6.6.6.6.6.q.6.6.6.6.6.6.6.6.6.w.1.x.6.6.6.6.6.6.6.6.6.6.,.;.Y I K S E $.$.",
"@.O.& Q M B B D D U Y *.;.:.,.5.6.6.6.6.6.6.6.Z.1.m b.6.6.6.6.6.6.6.6.6.6.6.6.6.6.6.Z.K [ e.6.6.6.6.6.6.6.6.5.,.;.*.U J S H j j ",
"@.O.7 8 M M B D D P U *.=.;.,.5.6.6.6.6.8.6.r.c.J w V.w.6.6.6.6.6.6.6.6.6.6.6.6.6.b.4.D i C.8.6.6.6.6.6.6.6.6.,.;.*.Y K S $.j j ",
"j 7 O.@.M M B S D P U Y =.;.,.5.6.6.6.r.I.I.V._ K 9 s L.D.I.v.8.6.6.6.6.6.q.M.T.P.k.P D 9 ] K.I.T.r.6.6.6.6.5.5.;.*.U K S z k - ",
"- 7 7 7 C M B C D K P Y *.=.;.,.5.5.8.f.n P D B ` 9 F D G u 3.q.6.6.6.6.6.e.<.A U S S U 0 D J G V c.8.6.6.6.6.5.;.=.Y J S ; ; $.",
"3 8 3 h B M M C S D P U Y *.;.;.5.5.5.b.s.w a A I y G b y d.0.6.6.6.6.6.6.6.b.] w b A _ n A y p z.8.6.6.6.6.6.,.;.*.Y J ~ O.h 8 ",
"c  . .h ..M M C C D K U U *.=.;.,.,.5.6.r.k.w u n b y w V.8.6.6.6.6.6.6.6.6.6.M.<.r b N b t w S.6.6.6.6.6.6.5.,.=.*.P H = - - h ",
"3 > h , ..M M M S S D P U Y *.=.=.,.,.,.5.x.C Y r 0 _ C S.6.6.6.6.6.6.6.6.6.6.6.z.J I t e P B c.6.6.6.6.6.6.,.,.=.*.P S c 8 - - ",
"c 8 , h j Q M M C C D K P U Y =.=.=.:.,.,.k.D y u i e S f.8.6.6.6.6.6.6.6.6.6.q.{ G r m w y C x.6.6.6.6.6.5.5.;.*.Y K ( c 8 O.8 ",
"u.O.O.O.g g C M B C S D K P U Y ` *.=.=.,.1.N ] C.A.[ V 2.6.6.6.6.q.6.6.6.6.6.q.~ V <.N.B.] F B.6.6.6.6.5.5.,.=.*.Y D z k h h 3 ",
"| x O.O.g h F M M C C D J J P U Y Y ` =.;.3.m.,.,.5.6.Z.4.6.6.6.6.6.q.6.6.6.6.q.z.N.6.6.8.e.T.r.6.6.6.6.5.,.;.=.` K K x x h h h ",
"u.g | o.O.v t.C M M C C S D J K P U U U ` *.=.=.;.:.,.5.6.6.6.6.6.6.6.6.6.6.6.6.8.6.6.6.6.6.6.6.6.6.5.6.,.:.=.*.P J x k x g h h ",
"x g x g g j t.h f M B B C C D D K K P U ` ` ` *.=.;.:.5.,.5.6.6.6.6.6.6.6.6.6.6.6.6.6.6.6.6.6.6.6.6.5.5.,.;.*.U J ) k x k g h h ",
"7 +.+.6 # -  . .S M M M B C S C S D H J P P ` ` *.=.;.,.,.5.5.6.6.6.6.6.6.6.q.6.6.6.6.6.6.6.6.6.6.5.5.,.;.*.Y P J k k x v x h h ",
"p.+.+.7 @. . . .7 M M B M M B B S S S D J L U U Y *.*.;.:.5.5.6.6.6.6.6.6.6.6.6.6.6.6.6.6.6.6.6.5.5.,.;.=.` P J j j ..k k X.g h ",
"7 6 +.+.@.7 - 7 6 , B M M M M M M B S S D J K I Y *.*.=.;.,.5.5.6.5.6.6.6.6.6.6.6.6.6.6.6.6.5.5.,.,.;.=.` U J h O.k .. .5 g v x ",
"8 # 6 +.6 - 7  . .X.F M M M M M M M B B S D D K P U Y =.=.:.:.5.5.5.6.6.6.6.6.5.6.6.6.6.6.5.5.5.,.;.=.Y Y D ) - ; 5 k j 5 h x ..",
"t.F.; v v % @.@.+.t.t.+ M M M M M M M B C S D J K U Y *.*.;.;.,.,.5.5.5.5.6.5.5.6.5.6.5.5.5.,.,.;.*.*.U J ] 2 X   , g 8 v c h h ",
"t.F.F.; c 7 7 6 % 6 +   7 B B f M M M B M B S D K L U Y Y *.*.=.;.,.,.,.,.5.,.5.,.5.,.5.,.,.;.=.*.Y P J ) X $.t.$.8 g , | v c c ",
"t.; c ; c @.@.% 7 t.6 + 7 6 B f M M M f C B M S D K K P U Y *.*.*.=.=.=.=.;.;.;.;.;.;.;.;.=.=.` U P H  . .X 2 $.$.< x | | x O.o.",
"j c c F.c 7 7 % % y.%.6 t.| = C M M M M M M B C C D J J L U U U Y Y Y *.*.*.*.Y Y U Y *.*.` Y U L D  .>  .#.2 $.$.g | | | h c O.",
"$ X.X.2 o % 6  . .- = 7 7 | 5 x F M M M M M f B B C S D D J J J L P P P P P U P P P P P U U P H P j j o., X. .- 7 +.+.8 +.O.h h ",
"#     O , X.X. . .7  . .7 5 x #.c c C M M M f B M B B B S S S S D D D D J D D K J J D K H D J h h j o.o.1 =  . .7 7 $ g +.O.O.O.",
"+.2 , X.X.v 4  .4  . . .X.x 5 5 5 c c c C M M B M M M M M C C C B C C C S S S D S C C S F j O.O.h j o.j , x X. . .8 7 7 7 h O.: ",
"+.X.X.X.X.v  . .4 7 7 6 7 | | x 7 h h c O.z | B M M M M f M M M M M M B B C B C B S c , ; ; h O.O.o.o.j j 7 v X.7 +.+.+.7 o.j h ",
"O.v %.v x X.i.k k  . . . .1 x +.x h h 3 , j j j %.t.F C B M M M M M M M C B S +.O.....= 8 6 4 k z g , ..h : X.X.X.#. .g  .$.z z ",
"x x %.%.4 j X.X.j 3 3 3  .z 4 1 x g h v h j j j = j $.$.$.g 8 p.h 5 5 5 x h j j j ..7 - 6 4 4 - 4 k , , h > : X.X.g g #. .z $.z ",
"x v %.c 4 j X.i.i.3  .a. .4 +.x x h v X.h j h %.j ; ; ; $.i.h 8 y.7 5 x x j ; j O.7 7 7 ..l l 4 4 ; .. ...:   : X.#.$. .#.$.z $.",
"z | %.c v i.i.X.i. .a.a.a.x +.+.+.h h h v t.= j h ; j j j i.i.i.p.c x +.g j j l O.v ..v 6 4 l - 4 3 j h j . . X.X.v | g  .$., z ",
"O.o.< o.o.#.$.$.$.| | | < k 1 o.X.1 1 1 t.4 O +.+.7 7 7 7 3 O.k 3 x x x k x x x c 2 4 X.4 4 O.O.  > z ; , ; x t.x g h +.+.8 u.8 "
};
