/* XPM */
static char *result[] = {
/* columns rows colors chars-per-pixel */
"64 64 228 2 ",
"   c black",
".  c #290A00",
"X  c #291008",
"o  c #361208",
"O  c #421608",
"+  c #421910",
"@  c #4A2110",
"#  c #522310",
"$  c #532516",
"%  c #562B19",
"&  c #5A2C19",
"*  c #5A3119",
"=  c #632D19",
"-  c #633219",
";  c #672B27",
":  c #633521",
">  c #673C23",
",  c #6B3C22",
"<  c #6B3F29",
"1  c #733F24",
"2  c #69273C",
"3  c #77273C",
"4  c #6A3A3C",
"5  c #733B3E",
"6  c #6F492D",
"7  c #734121",
"8  c #734429",
"9  c #7B4529",
"0  c #774A2C",
"q  c #7B4A2B",
"w  c #6E413E",
"e  c #7D4D31",
"r  c #754738",
"t  c #7F5131",
"y  c #6D2945",
"u  c #752444",
"i  c #7B2545",
"p  c #762944",
"a  c #7B2A46",
"s  c #74264A",
"d  c #7A264C",
"f  c #752A4C",
"g  c #7C294D",
"h  c #6C3743",
"j  c #783649",
"k  c #7B2851",
"l  c #7D2A52",
"z  c #6D3A52",
"x  c #773656",
"c  c #684348",
"v  c #774A48",
"b  c #70534E",
"n  c #7C445B",
"m  c #7B4764",
"M  c #7B5663",
"N  c #9B3235",
"B  c #B72736",
"V  c #804C2D",
"C  c #834E31",
"Z  c #845231",
"A  c #895533",
"S  c #8C5935",
"D  c #8C573A",
"F  c #8C593A",
"G  c #925D3B",
"H  c #94613D",
"J  c #98633E",
"K  c #822549",
"L  c #862848",
"P  c #832B4C",
"I  c #82324B",
"U  c #87374B",
"Y  c #97374E",
"T  c #832654",
"R  c #832C53",
"E  c #892E56",
"W  c #842D58",
"Q  c #8A2E59",
"!  c #8C3454",
"~  c #883855",
"^  c #8A315A",
"/  c #A43B4B",
"(  c #B7324A",
")  c #A73D52",
"_  c #883768",
"`  c #903062",
"'  c #884C51",
"]  c #8A455A",
"[  c #974959",
"{  c #97555B",
"}  c #A74556",
"|  c #AD4A51",
" . c #B54756",
".. c #BB555C",
"X. c #946142",
"o. c #9A6642",
"O. c #9C6A43",
"+. c #A26D44",
"@. c #A56D4A",
"#. c #A5724A",
"$. c #AC754B",
"%. c #AD794A",
"&. c #AD7552",
"*. c #AD7B52",
"=. c #B57D52",
"-. c #8B4B65",
";. c #9B4B66",
":. c #845462",
">. c #985669",
",. c #9C5B72",
"<. c #A64C64",
"1. c #A75668",
"2. c #B65967",
"3. c #B1546C",
"4. c #9A667A",
"5. c #A86578",
"6. c #B36479",
"7. c #AE7074",
"8. c #C74648",
"9. c #C74759",
"0. c #CB5168",
"q. c #C86775",
"w. c #D16F79",
"e. c #C4727A",
"r. c #E16174",
"t. c #B58252",
"y. c #BD8652",
"u. c #B5835A",
"i. c #BD865A",
"p. c #BD8A5A",
"a. c #BD8D63",
"s. c #C59463",
"d. c #CE9A63",
"f. c #CE9C6B",
"g. c #AA6B84",
"h. c #A87888",
"j. c #B2708A",
"k. c #B67888",
"l. c #C77888",
"z. c #D1798C",
"x. c #CA7D92",
"c. c #BA8596",
"v. c #B39095",
"b. c #BA92A4",
"n. c #BFA2B7",
"m. c #D4898F",
"M. c #C68798",
"N. c #D58A9A",
"B. c #C99A9A",
"V. c #E48E96",
"C. c #E2969B",
"Z. c #E6B684",
"A. c #C38CA4",
"S. c #C68FA5",
"D. c #CB97A9",
"F. c #D89BAC",
"G. c #D29AB1",
"H. c #E79AA7",
"J. c #F09DA6",
"K. c #CEA3AF",
"L. c #D9A6AA",
"P. c #CCA3B6",
"I. c #D5A8B8",
"U. c #D9B3BD",
"Y. c #E8A5A9",
"T. c #E5A9B8",
"R. c #F3ACB9",
"E. c #E8B5B9",
"W. c #DAB8C7",
"Q. c #DBB3CB",
"!. c #E6BAC7",
"~. c #ECBCCD",
"^. c #CEC1CE",
"/. c #D7C5CD",
"(. c #D8C7D6",
"). c #D8D3D8",
"_. c #E9C4CC",
"`. c #F4CACB",
"'. c #E3C3D4",
"]. c #E7C7D8",
"[. c #EACCDB",
"{. c #F5C9D8",
"}. c #E3D5DD",
"|. c #E9D6DE",
" X c #EADEDE",
".X c #F6D6DB",
"XX c #EFC7E0",
"oX c #EBCDE3",
"OX c #F1CFE8",
"+X c #E3D5E1",
"@X c #EBD4E4",
"#X c #E4DAE3",
"$X c #EBDBE4",
"%X c #E6D7EA",
"&X c #EDD4EB",
"*X c #EDDCEB",
"=X c #F5D4E5",
"-X c #F4DBE5",
";X c #F9D8E6",
":X c #F3D6EC",
">X c #F3DCEB",
",X c #FADCEC",
"<X c #F5DDF2",
"1X c #F7DAF6",
"2X c #FBDEF3",
"3X c #ECE2E7",
"4X c #EDE2EC",
"5X c #F7E5E8",
"6X c #F3E2EC",
"7X c #FAE2EB",
"8X c #F4E9EC",
"9X c #EAF1E9",
"0X c #E3E4F0",
"qX c #EDE5F2",
"wX c #EDEAF2",
"eX c #F4E4F3",
"rX c #FAE4F4",
"tX c #F5EBF4",
"yX c #FAEAF6",
"uX c #F6E4F8",
"iX c #FAE3F9",
"pX c #F5ECF9",
"aX c #FBEDFA",
"sX c #ECF2F5",
"dX c #F4F2F6",
"fX c #F8F2F6",
"gX c #F4F4FA",
"hX c #FAF1FA",
/* pixels */
"+.$.J Z $.#.#.Z #.p.O.9 q 7 S S F A A A X.#.@.@.@.< X , +.S : : S C & C C @.C & & - > O > o : G : 1 1 1 1 C +   C & q & * : *.*.",
"F J $.J J H G J H o.O.O.O.- S %.#.X.A 0 Z @.@.> . < +.+.+.: : $.A C C C C @.@.& & > F > F : o G : # # G 1 + + + + & q * e F F F ",
"F $.$.$.Z H #.H Z q q O.o.$.S S S A A 0 X.#.@.< , +.+.+.@.$.A A $.C $.C C #.@.C #.F F > F - : : G # # G 8 + y.y.+ q q q O.F : : ",
"#.a.H $.G *.f.&.*.O.F +.t.=.8 8 8 F t t #.p.p.8 o.u.t.G =.o.C C t.8 o.o.8 *.8 *.*.=.> 7 > @ @ 8 8 & & C Z F @ F + O t O e % Z t ",
"#.H $.H H p.&.*.*.+.F F +.=.X.G 8 Z S 7 +.8 O.J o.u.F F F C o.C o.p.H O.8 8 8 u.0 > G H G 8 @ 8 8 & & & *.@ + F < =.=.q 0 % Z *.",
"S H H H H *.f.a.*.+.+.F +.=.=.G 8 S A 7 , 8 6 p.p.u.= u.u.o.y.o.e O.8 J 8 8 8 Z.u.- =.- , O.8 o.8 & *.& & @ F F @ e =.q e *.Z Z ",
"#.a.H %.#.*.f.f.f.t.t.+.+.=.X.8 8 A S S #.p.p.p.p.F u.u.F t.t.o.o.o.J 8 8 8 6 8 8 , > G G O.o.8 8 Z *.F & < F F < O q e r Z & & ",
"t.#.a.G $.#.d.d.#.#.#.#.#.i.o.q q Z t Z Z q t #.q G s.s.G *.*.X.H q H H 0 t t t *.#.O #.#.C C % & #.#.Z #.#.@.@.#.- , , , & Z e ",
"o.H a.a.#.r e e #.X.C H #.o.q q o., A J 7 #.q # #.F s.H # q 9 H H H H q - # *.t.*.#.8 #.1 C C & % #.#.= C @.@ + @.J > 7 H #.#.% ",
"o.#.H a.a.e e e #.H C C H q o.i.p.S Z O.> #.#.t q   & F H q q q H q H H H Z t t t #.8 #.@.& C C % - - - Z 0 0 9 @.J > 7 H t t t ",
"u.a.#.H #.#.t e e t X.X.H 9 O.i.O.- J O.Z #.q q #.X.H H H 9 9 q q G q : V # # Z # 8 8 8 1 & C C . Z = A Z @ 0 r @.J p.J > % #.t ",
"i.u.H H X.#.Z Z #.O.q O.O.9 O.9 q %.%.Z Z Z Z =.O.o.A - Z A * A =.G 9 G J - V , q C C e = D D & & V V V V $.e $   O o.o.1 H u.u.",
"H H u.u.F #.Z Z Z O.q p.O.S o.O.O.%.%.%.& o.=.O.Z Z Z Z A =.= * * 9 9 9 9 V G G G Z #.= = D $ & D V V @.@.e C $ $ O o 8 O.G 7 H ",
"> > F u.X.C s.#.#.a.O.q q S S O.O.Z %.%.%.Z Z o.o.Z Z O.J =.* * * 9 X.G J V G G G #.#.C C D D D i.V # #.V C $.e e O.7 o.O.J 7 u.",
"H > 7 H , C #.s.s.a.9 q O.o.S 9 S Z Z Z & Z Z o.o.o.o.O.+.A =.=.S *.G *.*.V G G G @.#.C #.D i.D i.V V @.q $.$.e e o.o.8 1 7 7 H ",
"*.o.< 8 1 , , , > Z Z O.O.S S S #.o.Z V - $ 1 8 8 S S A J J A A A *.C e e - = Z A V o.V +.@.@.D @.# # # Z @.u.u.@.O.Z O.O.F 1 1 ",
"*.O.8 8 8 > o.o.O.Z t O.O.S S #.#.J V V o.1 G G J V q q S A A A S e C # e - - Z Z o.O.- q @.F 8 @.=.Z # @ F F F F u.O.Z Z G *.F ",
"7 8 O.O.X.Z V o.O.- t - t #.#.S S o.o.o.+.G G G S J H H J J S %.A e *.e e C - - Z V o.o.Z 8 @.F 9 Z Z Z =.u.u.D F u.Z Z Z F *.t.",
"F o.p.p.o.C o.C V t J Z > 7 S #.S V V V V G 1 1 S A G G H O.J O.$.*.C # # - #.Z - - V o.q F S F 8 C Z Z Z @.O.F u.u.O.Z Z F *.t.",
"*.O.F +.=.u.i.G H p.A Z Z > Z Z o.o.*.o.Z 9 9 V A A V 9 q V J Z C G > G F @.i.O.Z +.F F +.Z Z Z Z G #.@.G q q q J e =.o.o.*.F H ",
"H =.=.F +.#.G @.G +.A Z Z C Z Z o.o.Z Z o.A A 9 9 H G A 9 C C C J , - J F O.Z Z Z D D O.t.O.O.t o.#.#.#.F J *.*.9 o.o.r X.&.X.G ",
"q +.=.=.=.@.G @.+.Z Z A Z +.J C o.o.Z Z o.G G A 9 G G A q C J J #.F H ' ~ v 4 c c b b O.O.o.X.O.*.9 q F F H J J *.=.o.o.o.q q G ",
"H F =.=.+.@.u.@.S A A A Z C V C C o.%.%.Z 9 9 A A C A 9 q V V C X.G t.I [ Y 3 u 2 s f z x z z x n m M M G 0 q q *.X.o.=.=.G X.G ",
"*.o.o.o.*.o.p.o.9 H S Z V V A V S J J %.Z 9 H A A G Z Z C A 9 q q 9 v I N.5.I u u s k k T R l d l R l l x ~ x m n ] M :.+.J #.#.",
"X.o.C X.*.p.p.O.9 G Z G J +.S S o.$.$.$.Z q H q H J H G Z F F 9 C q h g.I.Q.>.I K u d T T T l d P E P R R R ^ E ^ ` ` _ _ _ _ m ",
"o.o.o.C C o.p.o.9 G G S G J S S S Z $.$.Z 9 A 9 q S G S Z D F q S j m P.OXuX!.;.I 2 y f l l f f g l R g g R ^ ^ ^ ^ W ^ ` ` _ ^ ",
"Z o.*.o.o.O.9 9 o.O.G S G +.+.S o.A Z Z Z A A q 9 Z Z J Z S S Z b P k.W.>XtX;XS.[ P i K l k k k g g R R R R E E ^ ^ ^ ^ ^ ^ ^ ^ ",
"O.F F p.p.#.F F #.@.#.H +.G G G i.%.J V V G G S G G Z G Z S S Z h 3.b.].@X$X6X{.c.~ P K d f f f g g g P R R E R ^ ^ ^ ^ ^ ^ ^ Q ",
"*.#.F #.p.#.#.#.F #.@.G #.G G G #.$.J J J G G G G J F Z Z H H c f S.].aXpXpXpXhX;Xl.! i d R d P g g I R E R E R E E E E ^ ^ ^ ^ ",
"O.#.#.#.F F F #.p.u.G G G G G $.G V C J $.y.G 1 - Z Z G G S q 2 h.U.5XgXgXhXaXaXyX_.,.^ K P d d l R l R R R R ~ E E E E E E E ^ ",
"t.#.#.#.F #.F D #.u.G @.G G +.G G J C %.%.t.G - 1 Z J Z Z S r { P.*XfXdXgXaXhXaXyXfX!.;.K K P d l T R l g R I E R R E E E E E Q ",
"o.F X.=.=.o.Z Z Z A #.#.$.G G G G C C G #.$.G $.q G G G J b 3 c.Q.0X3X0XqX*XeXeX4X8X6XI.~ K u d T l R R R l R E E R E T E E ^ Q ",
"$.G 1 8 G Z , C o.Z Z @.#.#.p.#.$.G C C #.$.%.$.H H C C F ; [ b.^.(.+X+X%X>XqXeX8XwX8X8XS.j i P P R R T k l T R P R ^ ^ E ^ E W ",
"$.=.X.8 =.o., o.o.#.S @.#.p.p.#.$.@.#.G G $.S 0 G O.G S w U D.|.gXgXtXhXaXaXaXhXaXtXdXdX4Xk.I a g g d l l l l l g R T R R E W ^ ",
"Z G =.X.=.A < o.o.$.S , S #.p.p.G G #.#.#.$.H H G V H Z 2 k.W.hXgXwXhXyXaXaXaXfXyXdXdXfXtX+X5.I 3 g s l l d l l l R R R R ^ ^ ^ ",
"%.$.# q #.Z Z Z C G =.+.G G J Z $.@.G G @.=.o.X.J 8 8 c ] G.>XgXgXsXhXtXfXhXtXyXhXfXgXyXaXfX].>.j 3 f d k k s k g R g R ^ ^ ~ ^ ",
"%.#.t q #.O.O.Z Z G G *.*.#.Z Z X.@.@.@.#.o.*.&.o.8 b 2 A.XXaXtXtXfXtXdXdXfXhXaXhXaXaXaXhXgX7XE.>.j a f f f s l d R g T R ^ W ^ ",
"Z q #.#.#.O.Z O.Z @.+.G O.#.#.X.C G @.@.H Z o.*.o.8 < ,.n.].+X+X}.}.$X$X).4X6XtX4X/.,XrXeXwX4X5XK.~ P i p f s l l R g l E ^ ^ ^ ",
"& 0 t 0 $.Z O.u.O.G +.G #.#.Z #.#.G Z X.t Z O.Z Z v x v./.).(.|.}.#X-X4X4X4X5X/.v.5.[.qXtXgXtXtX5XM.U ! a y p d d l g l l ^ ^ ^ ",
"7 t 7 Z O.G q *.*.t.F G u.O.O.O.+.C Z s.#.F #.J #.3 j.'.aXfXfXyXfXsXhXyXyX.X!.1.2.Y._.9XsXsXtXsXyX-Xj.U I u d g d l g g R R W ^ ",
"H O.O.Z O.*.9 q J t.t.G G o.f.O.O.s.Z Z Z F O.#.z -.P.uXaXfXdXdXgXfXfXyX5Xl.2.0.9.q.B.9XdXhXtXaXtX7X|.4.! L K p d d g g l W W W ",
"> > S - O.H q H *., > t.> O.f.O.f.s.Z Z #.#.o.b z b.[.pXhXhXdXfXdX8XE._..X0.B r. .w.L.B.3XaXgXrXhXyXtX'.,.L K d g g d g W l W W ",
"H Z > Z Z H H H H F G t., , O.f.O.#.#.#.#.F F h 4.W.6XdXwX3X5X5X-X{.1.| V.9.( 9.q.} 1.v.-X,XrXyXyXsXtX7XI.<.! i d g p d x l l W ",
"u.#.#.#.Z Z O.Z Z t.t.t.t.#.C #.#.#.F #.F C b ] b.'.@X).)./.W.k.a.~.m.N B B 9.( z.x.I.-X4X7XrXyXwXsXeX2X=XG.] R i d p s l l l l ",
"J X.@.#.V Z Z Z Z 6   X X & & C #.@.D 8 F =.y c.].yXyXfX.X5XT.) ) H._.9.8.| m.F.~.2XuXuX#X3XyXfXpXtXaXyXrX7XS.~ g i p p k k f l ",
"u.C G #.#.O.=.y.t.6 6 6 t.#.Z & & 8 F D F c -.I.6XtX5X5Xv.L./. .0.( H.C.| C.`.7X7XrXXXb.h.}.yXtXtXaXaXeX6XtX=Xj.~ g i u d f k k ",
"G C J C V Z t.Z A 8 t.t.t.#.#.#.#.#.8 S @.z b.&XtX#XM.T.[ L..Xo.9.( 3.Y.Y..X9X5X,XoX5.3.T.3XfXtXtXaXyXtXtXeXrX].4.g a u s s f f ",
"q $.$.q + & o.o.* - A A +.& & V #.+.+.@ 4 g.Q.<XeX_.<.0. .Y. Xe.) H.x.!.fXfXfX_.7.B.e.0.6.U.8X8XyXrXyXtXyXrX2XuX~.>.P d u s y f ",
"p.$.$.0 $.o.o.o.e A A A , & V @.t 0 +.r n K.&X1X>X;Xz.( B } B.B.{ ~..X*X&X@X[.3.2.H.J.Y z.F.B.$XeX*X4X4X4X>X>X>X=XD.] K a i u u ",
"0 0 $.$.%.q * q q > +.+., V #.#.#.0 9 5 k./.0X<X&X[.!./ 0.e.{ !._.$X>X@X:XP.6.z...| w.q./ <.D.uXhXyXpXuXeXeXyXrXrXrXK.] L L 3 y ",
"0 + e #.0 * q o.o.+.+.A , C @.V #.+.z >.U.4XtXyXwX5X7XM.} ~.,X,XrXyX#Xv._._.{ m.!.m.} H.M._.yXtXpXaXtXeXtXuXaXrXrXrX5Xc.L K u 2 ",
"t.s.- J H @ %.%.$.y.=.o q X.X.J H v ~ A.|.tXeX>XtXtX4X{.I.;XrXaX'.L.Y.7.k..XM.2.l.-.M.-XeXtXyXeXhXtXyXtXtXtXrXyXrX7X7X=Xg.L i 3 ",
"t.s.s.- H t t q @ e o   0 X.8 X.% p g.~.yX2XuXeXfXwXrXwXeX>X2XQ.] } } ..( C.C.3.'.-X>XqXtXwXpXrXaXpXaXaXyXyXaXrXrXuX<XqX[.,.3 K ",
"t.- H - H %.%.@ q t.q o 0 0 8 e ' ] F.&X*X1X:X#X#X$X+X}.XX].{.g.<.R.C. . ./ 3.H..X>X*XeX<XeXrXuX6XeX<XqX4X6X6X>X&X@X+XW./.G.[ 3 ",
"S J H a.H t 0 @ @ t.t.q t.X.& & 3 k.(.%X&XOXoX+X+XoX#X@X!.} T.5.1.`.E.0.R.~.{.;XrX<XrXuXyX7XrXaXaXuXyXtXaXyXyXrXrXiXuXtXwXtXI.U ",
"+ +.+.7 X @ 6 J o.* & 0 q J q h 1.W.uXuX1X1XuXeXeX:X'..X`.<.6.E.>.5.<.k.{.,X,X,XrXuX2X2XrXrXrXrXrXaXyXyXrXaXuXrXrXyXrXtX4X6X5XD.",
"+     o , o.+.o.o.q o.o.0 9 G ] D.1XqXqXuX1XrXuXiX].-.B.V.) / E._.K.N.XXuXuXrXuX<XqXrX,XyXyXyXaXrXyXaXrXtXyXyXrXrXrXyXuXeXrXrX;X",
"$.7 > +.@.o.1 o.8 o.o.o.o.X.5 h.~.2X1X1XuXuXuX<X2X:X6.)  .C.2.x.;XeX<XuX0XqXuX<XrXeXeXwXwX7XrXrXyXaXaXaXrXyXrXrXrXrXiXyXuXuXaXrX",
"$.+.@.+.+.J +.o.8 q q e e t ] I.1X1XeXrX<XrX2X2XeX>XT.Y N.-X_.~.6XpX2XiXqXuX2X2X,XeX>XrXtXtXuXrXrXaXyXyXaXrXrXrXrXrX>X:X1X&X%X%X",
"$.J =.G G +.y.A S o.o.o.o.h k.'.&X:X*X:X>X:X=X@X|.|.{.3.5._.'.'.(./.(.XXoXoX&X&X@X:X:X:X*X*X>X>X6XeX4XeX4XeXeX>X,X@X].(.Q.oX(.(.",
"G H =.=.8 A +.@.A 7 7 7 r ,.Q.].oX@X:X:X*X>X:X@X#X}.;X!.Q.@X@X%X#X%X:X>X*X1X<X<X,X<X<X<X<XeXeXrXuXuXtXtXeXtXrXrXrXrXrX7X1XuXuXwX",
"F J =.H 8 A +.i.i.7 O.a.' D.:X,X,X<X<XeXrXrXrXrXtXtX>XrX2X<X6XrXrXrX7X,X<XqXeXuXuXrX<XuXeXuX>XeXrXyXyXuXyXuXtXrXyXrXrXeXuXuXpXuX",
"F H =.H H i.i.+.i.O.a.4 h.].2X<X2X2X<XrXeX,XrXrXrX>XeXuX1XyX2X2X2X2X2X>X6X4XeX2X<X6X<X>X>X5X5XeXeXrXuXeXeXtXuXyXrXrXeXeXeXqXqXuX",
"#.@.< @.@.*.&.*.*.X.b >.Q.2X2X2X2X2XrXrX<XeX,X<XrX<XqXqXiXiXiX2XiXuXeXeX,X;X;X;X;X;X,X,X;X;X;X;X5X7X5X5X5X7X5X7X5X7X5X-X5X-X;X;X"
};
