/* XPM */
static char *result[] = {
/* columns rows colors chars-per-pixel */
"64 64 162 2 ",
"   c black",
".  c #290A00",
"X  c #290C08",
"o  c #311008",
"O  c #421408",
"+  c #421808",
"@  c #421810",
"#  c #4A2010",
"$  c #522310",
"%  c #5A2410",
"&  c #522810",
"*  c #522419",
"=  c #542A19",
"-  c #5A2B19",
";  c #5A3119",
":  c #632D19",
">  c #633219",
",  c #601D3C",
"<  c #6A1F3F",
"1  c #633521",
"2  c #653A23",
"3  c #6B3C22",
"4  c #6B3D29",
"5  c #733F24",
"6  c #6B233E",
"7  c #73223E",
"8  c #78273E",
"9  c #6B452D",
"0  c #734121",
"q  c #734429",
"w  c #7B4529",
"e  c #7B4A2A",
"r  c #7C4D31",
"t  c #7F5131",
"y  c #6B1E42",
"u  c #741F47",
"i  c #7A1A46",
"p  c #761D49",
"a  c #7E1F4B",
"s  c #5E2940",
"d  c #662444",
"f  c #6C2243",
"g  c #642A46",
"h  c #6B2846",
"j  c #6E2449",
"k  c #722345",
"l  c #7B2346",
"z  c #702844",
"x  c #782D43",
"c  c #742549",
"v  c #7A254C",
"b  c #76294D",
"n  c #7B2A4D",
"m  c #6B3749",
"M  c #7D314C",
"N  c #7E2650",
"B  c #772A51",
"V  c #7D2A51",
"C  c #7E2F58",
"Z  c #763552",
"A  c #7C3153",
"S  c #7F335B",
"D  c #7D3C5E",
"F  c #7D3D63",
"G  c #744E4B",
"H  c #7B4454",
"J  c #7D4A56",
"K  c #7D4C5D",
"L  c #735050",
"P  c #7D5657",
"I  c #7B565D",
"U  c #7A5B5D",
"Y  c #7A4560",
"T  c #7B4A63",
"R  c #7D5364",
"E  c #804C2D",
"W  c #834E31",
"Q  c #845231",
"!  c #895533",
"~  c #8C5935",
"^  c #8C573A",
"/  c #8C593A",
"(  c #925C3B",
")  c #94613C",
"_  c #98633E",
"`  c #83244D",
"'  c #802B4F",
"]  c #832651",
"[  c #892651",
"{  c #832C54",
"}  c #8A2D55",
"|  c #862E59",
" . c #8B2E5A",
".. c #902D55",
"X. c #912E5B",
"o. c #853155",
"O. c #893155",
"+. c #883A54",
"@. c #85315B",
"#. c #8C315C",
"$. c #843B5D",
"%. c #8A3C5C",
"&. c #91335E",
"*. c #8C2F61",
"=. c #853462",
"-. c #8C3361",
";. c #833C62",
":. c #8B3960",
">. c #923461",
",. c #913861",
"<. c #814955",
"1. c #83425E",
"2. c #88475C",
"3. c #946142",
"4. c #9B6542",
"5. c #9C6943",
"6. c #A36C44",
"7. c #A46E4A",
"8. c #A5724A",
"9. c #AC754B",
"0. c #AD794A",
"q. c #AD7552",
"w. c #AD7B52",
"e. c #B57D52",
"r. c #874064",
"t. c #8A4266",
"y. c #8B4960",
"u. c #924761",
"i. c #934C60",
"p. c #825264",
"a. c #805862",
"s. c #97556C",
"d. c #B58252",
"f. c #BD8652",
"g. c #B5835A",
"h. c #BD865A",
"j. c #BD8A5B",
"k. c #BD8D63",
"l. c #C59463",
"z. c #CE9A63",
"x. c #CE9B6B",
"c. c #D6A673",
"v. c #A36E85",
"b. c #B06B82",
"n. c #B07C92",
"m. c #C1829D",
"M. c #E6B684",
"N. c #CE9DAE",
"B. c #C6A4B3",
"V. c #D4ACBF",
"C. c #E7A7BD",
"Z. c #DDBACC",
"A. c #D7C8D6",
"S. c #E9CADB",
"D. c #E7D6E7",
"F. c #EED2E5",
"G. c #F4D4E9",
"H. c #F6DBED",
"J. c #F8D9EA",
"K. c #FADFF5",
"L. c #F6E1F4",
"P. c #F5E7F8",
/* pixels */
"6.9._ Q 9.8.8.Q 8.j.5.e e > ( ~ ~ Q / ~ 3.8.7.7.7.4 o 9 6.! > 1 ~ W - W W 7.W - - 2 2 + 2 o 1 ( > 5 5 5 5 r @   Q - r ; - 1 w.d.",
"/ _ 9._ 3.) _ ( _ 5.5.5.5.3 ~ 0.0.3.Q e ! 7.7.4 . 0 6.6.6.1 1 9.~ W W W Q 7.7.- = 2 / 3 / 1 o ( 1 $ $ ( 5 @ @ @ @ - e - e / / / ",
"/ 9.9.9.W ) 8.( W e e 5.4.9.~ ~ ~ Q ! e 3.7.7.2 3 6.6.6.6.9.! ~ 9.Q 9.W W 8.7.W 8./ / 3 / 1 1 1 ( $ $ ( 5 @ f.f.@ r r W 4.3.1 1 ",
"8.k.) 9._ w.x.w.w.5./ 6.d.e.q q q ! ! ! 8.j.j.9 4.g.d.~ g.4.W W e.q 4.4.q w.q w.w.e.0 > 3 # # q q - - ! ! / # / # + e o r = t t ",
"8.) 0.) ) j.w.w.w.5./ / 6.e.) ( 9 Q ~ 3 8.9 5._ 4.g./ / / W 5.W 5.j.4.4.q q q g.9 3 ( ) ( q @ q q - ; - w.# # / 4 e.e.e r = Q d.",
"! ) ) ) ) w.x.k.w.8.5./ 6.e.e.3.q ! ~ 3 3 q q j.j.g.> g.g.5.d.4.Q 3.q 4.q q 9 M.w.0 e.3 3 5.e 5.q - w.= - # / / @ e e.r q w.! t ",
"8.k.) 9.8.w.x.x.x.d.d.8.6.e.( q q ~ ~ ~ 8.j.j.j.j./ g.g.^ d.d.4.4.3._ q q q q q q 3 3 ( / 5.5.q q Q w.! - 4 / / 4 + r e r Q = - ",
"d.9.k.( 8.8.z.z.8.8.8.8.8.h.5.e e Q Q Q Q e e 8.e / l.l.( q.w.3.) e ) ) e t t t w.8.O 8.8.Q W = = 0.8.Q 8.8.7.7.8.3 3 3 3 - W r ",
"5./ k.k.8.r r r 8.) W 3.8.4.e e 4.> ~ 5.0 8.r & 8.( l.3.% e e ) ) ) ) e 1 $ w.w.w.8.q 8.q W W - - 8.8.: W 7.# @ 7._ 0 2 ) 8.8.- ",
"4.0.) k.k.r r r 8.3.W W ) e 4.h.j.Q Q 5.2 8.8.e r   = ( ) e e e ) e ) ) ) t t t t 8.q 8.7.= W W = > > > Q r e r 7.) 2 0 ) t t t ",
"g.k.8.) q.8.r r t W 3.) _ e 5.h.4.3 5.4.Q 8.e r 8./ / 3.( e w w e ) e 1 e $ $ Q $ q q q 5 - W W . ! > Q Q # q w 7._ j.) 3 - 8.t ",
"h.g.3./ 3.8.Q Q 8.5.e 5.5.w 5.w e 0.0.! Q Q Q d.5.5.! > Q ~ ; ! e.3.w ( _ 3 E 3 E W W E : ^ ^ - - e E r e 9.W *   O 4.4.0 ) g.g.",
") ) g.g.( 8.Q Q Q 4.e k.4.~ 4.4.4.0.0.0.- 5.e.5.Q Q Q W E e.> ; ; w w w w e _ ( ( Q 8.: : ^ % - / E E 7.8.r W * * O O 4 5.) 0 ) ",
"2 3 / g.3.W l.8.8.k.5.e e ~ ~ 5.4.! 0.0.9.Q Q 4.5.W Q 5.6.0.; ; ; w _ ( ( W ( ( ( 8.7.! W ^ ^ ^ h.E % 8.W r 9.r e 5.5 5.5.3.0 g.",
"_ 3 3 3.3 W 8.l.l.k.e e 5.5.~ w ~ Q Q ! - Q Q 4.4.5.5.5.6.! e.e.~ w.( w.w.e ( ( ( 7.8.E 8.^ h.^ h.E E 7.W 9.9.r W 5.5.q 3 0 0 3.",
"w._ 9 q 5 3 3 2 3 t Q 5.5.~ ~ ~ 8.5.e E > * 5 q q ! ! ~ ( 6.! ! ! w.Q r W > > Q ! E 4.E 6.7.7.^ 7.$ $ $ Q 5.g.g.7.5.Q 5.5.( 3 5 ",
"w.4.9 q q 3 4.4.4.Q t 5.5.~ ~ 8.8.4.E E 5.5 ( ( ( E E e ~ ! ! ~ ! r r $ W > > Q ! 4.4.> e 7./ q 7.e.Q $ $ / / / / g.5.Q Q / d./ ",
"0 q 5.5.3.Q W 4.4.> t 2 t 8.8.~ ~ 4.5.5.4.( ( ( ( ) ) ) _ _ ! 0.! t w.W r Q > : Q E 4.4.Q q 8./ q Q Q Q e.g.g.^ / g.Q Q Q / d.w.",
") 5.j.j.4.W 4.W E t _ t > 0 ~ 8.~ E E e W ( w 5 ( ! ) ( ) 5.5.5.e.w.r $ $ : 8.Q > > E 5.e / / / q Q Q Q Q 7.5.^ g.g.5.Q Q / w.w.",
"9.5./ 5.e.h.g.( ) j.~ ! ! 0 t t 4.3.w.4.W e e e ! E E E e E _ E W ( 3 ( / 6.h.6.Q 6./ / 5.! Q Q Q ( 7.8.( e e e 3.r e.4.4.q.) 3.",
"3.e.e./ 5.7.( 7.( 6.Q ! ! W W W 4.4.Q Q 4.! ! w e ( ( ! E W W W _ 3 > _ ( 6.W Q Q / / 5.d.4.4.t 4.8.8.8./ _ w.w.r 4.3.w 4.q.3.( ",
"e 5.e.e.e.8.( 7.8.Q Q Q Q 4.4.Q 4.4.Q Q 4.( ( ! w ( ( ! w W ( _ 8./ / ( 3 W Q 5.6./ 5.7.6.4.4.4.w.w w ( ( ( ) _ q.e.4.4.3.e e ) ",
"_ / e.e.6.7.h.7.~ Q Q Q Q Q Q Q W 4.0.0.Q w w ! ! ! ! w e W E W ) / d.d.( 6.Q Q Q d.d.7./ Q w.w.w.( 8.( / e e e w.3.4.e.e.( 3.( ",
"w.3.4.4.w.4.j.4.e ( ) Q Q e ~ e ~ _ _ 0.Q w ) ! ! ~ Q Q Q Q e w e e e 0 ! 8.8.8.w 4.4.W 4.4.5.e 5.W w.q.W 7.5.q q e e 6.6._ 8.8.",
"T R p.4.w.j.j.5.w ( Q ( 5.4.~ ~ 4.9.9.9.Q e ) e ) _ ( ( Q ^ / e Q e 0 > e ( 8.~ ( W 4.4.e.h.6.4.h.W W W Q x.x.7.5.= = = r Q W ) ",
"@.=.=.:.%.$.1.1.K K I U / 4.~ ~ ~ Q 9.9.Q e ! e e ~ ( ~ Q / / e / e w w 0 e ( ( ( 6.4.e.e.4.e 4.5.w.c.c.w.5.q q 7.7.e r 6.8.) 8.",
"#.} &.} ..&...#.%.#.$.$.F D Y T R R a.Q Q ! ~ e e W Q 6.Q / / W Q ! ! ! ! 8.8.~ w E 4.d.W w e e w W q.w.W q q 5 q e 6.e 6.8.Q ) ",
" .X. .X. .&.#.&.#.#. . .#. .-.-.=.-.-.>.=.=.F R ( ( W ~ Q ~ ~ Q Q ! w ! ! ~ 4.~ ~ e ~ _ w ^ e / r r r r e./ w./ 4 r 5.r r W W 4.",
" . . .X. . .#.#.#.| } #. .&. .#.=.=.O.&.} &.| =.F I / Q Q ) ) Q Q Q ! ! ! ! ~ ~ 5.~ ~ ~ 5.4.r / 4.3.e.r r w.q.w./ r r r r 1 4.4.",
" .}  .}  .|  .| | | | | #.@.o.| o.| [ ....O.O.| @.F P ( ~ ~ Q Q Q ! ( ) w e 4.w 4.4.e e 5./ r ^ ^ 4.4.r r w.4 w./ 5.j.r r 3 6.4.",
"#.| | | } | | | | | | | | | } | { o.o.O.O.} O.}  . .=.Q ! ~ Q Q Q E w w ! _ ~ E e ~ ~ ~ w 4.5.r r 4.4.4.d.w.w./ / t 5.5.r W W 3 ",
"| | | | | | | | | #.#.| | @.| | { o.O.O.o.O.O.} X. .*.F 5.( e ~ E ~ ! e ! ) ) ) e e ~ 4.~ _ Q w Q / 5.5./ 8.g.( ( W W W 4._ w ( ",
"@.@.@.#.| | @.| | | O.#.| | | | [ | | @.o.o.| |  .*.*.D r.r r Q e ( ! ! ~ _ 9.e.) 5.5.~ ~ ! ! ! E ( 6._ _ ( ( 9.( W 4.e.d._ ( 3.",
"| | #.| | #.| | | | | | | | | | | } | | @.o.@.| | C S @.| $.( ( e E ! ( ! e w.) ) 5.5.5.e w ! ) ! ~ 5.( 6.9.( ( ( 4.E 6.6.( w.w.",
"#.#.#. .| #.#.| | | | { [ #.|  . . .| | @.| | | @.S C @.o.@.1.~ e e Q ( ( w.) e _ 5._ 6.e ! ( ! ! W W W 5.6.( ( f.f.E W W e w.q.",
"| #.#...| | #.#.#.} #.| | #. .| |  .#.#.| | | | | | | | $.@.#.p.~ ! Q Q Q ( ( ( ( _ _ _ 0.( ( ( ( W ! _ ! ! ! ! 6.4.4.4.4.! ! ~ ",
"#. . .X. . .X.#.&.#. . . . . .#.#.@.@.#.| |  .| *.#.|  .} o.} #.I t ! ) Q ( ( ( ( E ! _ _ q W ( ( _ 3.Q 4.! 6.6.9 q 4.q 4.w.~ Q ",
"&.&.&.#. . .&.&.#. .&.&. . . .#.#.#.O.| #.#. . . .@. .@.{ o.O.| $.! ) 8.0.( ( ! ! _ _ E E ! ( q ( 0.e.9.w.6.6.6.6.4.q q q ~ ~ > ",
"#.&.#.#.| X.>.#.&. .#. .#.&.#.&.&.#.#.#.#.#.#.#.| | #.@.o.@.| ..} ;.8.8.) w e ! ! Q Q E ! ( W ! ( E _ Q Q 6.! 6.6.q # q 4.> ; w.",
"#.O.&.&.&.#.>.>.>.&.#. .#.#.>.>.#.| #.#.#.#.| #.| | $.@.@.#. .}  .| K _ 0 w E ( w ! w ! ! W ^ 4.6.E E w e 8.w 8.e q q = ) 8.Q t ",
"O.#.&.&.X.#.&.>.&.#.#. .#.#.#.#.|  . .-.#.#.#.#. .@.#.@.@.@.| } [  .@.T q e e e e w w w _ W W 5.( e Q e 3.~ w ( 8.) & q = ; ; t ",
"| #.&.&.&.#.#.&.>.#.#.#.#.>.>.>.#.#.&. . . .#.#. .%.#.| @.=.#.{ } ..| =.Y e ( ( e w w ! ( ( W ^ W e e w e w ( ( ~ ) ) q ) Q ; ; ",
"|  .*.>.>.&.&.>.>.#.#.#.>.&.#.&. .#.&.#.#. .| #.#.>.#. .-.-.| | } } [  .*.D 0.( ) ) Q ! Q W W W W w Q ~ e w ( ~ ( ) ) ) ) t 8.t ",
"|  .*.*. .#. .-.>.,.>.#.|  . . .&. . .>.>.#. .&.&.#.&.&.*.-.=.| o.O.| }  .%.J q 0 ( ~ e e / ^ e q ! ~ 3.3./ w Q ~ ( w ~ ~ ! ! > ",
"C { |  . . .-.-.&.#.#.#.|  .#.&. .X. . .#. . .&.#.#.&.#.X.*.*.*.O.O.O.#. .#.@.J q w e ( ( / / / / e ^ ~ ! Q e e / 8.( ( ( Q Q Q ",
"N N N | | }  .#.#. .&.#.#.#. . .X. .&.X.&.&. .#.&.#.#.&.&.*.*.*.+.O.O.#.#.&.X.%.( 8.8.e e / e q / 3.e w w e Q e Q 7.^ ^ ( Q Q Q ",
"B p N ] { | |  . . . . . .| |  . .>.&.&.>.>.&.>.&.#.#.#.&.>.>.>.#.O.O.%.#. .X. .%.7.( ( 8./ / w 1 e Q ~ e Q / ^ Q ~ ( ( ( Q Q E ",
"B B v N { | { }  .| | #.#.#.#.-.X. . .&.#.>. .#.#.#.#.+.#.&.>.>.&.#.#.#.-.-. . .&.2.! E 6.7./ / / w e / ( Q Q Q ! ~ ~ ~ 5.( Q Q ",
"k c v N B { V | |  .#.#.#.| | #.#.#.#.&.>.#.#.&.X.&. .o.#.&.>.>.X.&.&.-.#.=.#.&.>.>.y.6.Q / / / h.7.e ( / 8.! Q Q / 5.~ ~ 5.Q E ",
"j c v n c v N N N ] | | | | | #.#.O.#.#.#.&.#.X. .*. .|  .#.>.>.&.#.#.#.>.&.&.#.%.%.-.2.6./ / 7.h.( e w / 8.Q Q 8.~ 5.4.w W 5.( ",
"d c c v v v v N N N { N v { | o.o.o.{ | #.| } }  .X.X.&. .>.>.-. . .#.>.,.>.&.&.&.,.>.>.2./ / / ~ e e e 5.8.! > > e ~ ~ w Q ( 5.",
"d g j a a p v c p c N v v n { | { { { [ | |  . . .X.*.>.#.&.>.>.>.#.&.>.>.&.X.X.&.&.>.>.r.U 8.( w 4.4.4.2 d.9 X   3 r W 3._ Q Q ",
"6 s d p i l l l l n n n n ' n ' ' ' ' n { n | |  .| }  . .|  .#. .>.>.>.&.X. .X.X.&.&.&.#.t.8.8.( 4.4.2   X w.w.w.W W 3 3.) ( 3.",
"6 6 y u u k k k k z c l v v v l n ' n { n V [ o.{ } { | |  .} } }  . . . .| | X.X.&.#...#.-.1.8.( 4.2 5.4.X 9 w.w.1 3.3.3.) 8.8.",
"8 7 u y y f < < 7 k z l b x l l b ' V V { { { V { { | | | | | } { } |  .O.#.#.}  .#.O.+.O.&.&.1.8.4.4.1 4.w.9 e.w.Q 3.3.3.Q _ 8.",
"2.8 k , h y k f k c k c l c c z c c v b v n n V N V V { { { { | { { } } | | { | } #.o.o.O.&.} { H ~ ! 7.4 4.4.; e 9.8.r 9.8.Q Q ",
"m.' z 6 , < < < < 7 f k k k k k k c b b b b n n V V V B v { n { { { { { { ' V | | o.{ C @.| } [ o.<.7.7.3 - 6.( e r @ E 0.8.8.8.",
"F.v.M 7 6 6 6 6 < f f j k k k k k b b l c c b n n B n B n n V n n { { { { { { { A @.{ { @.O.O.{ } o.<.! 3 4.4.6.5.e r e e Q 8.1 ",
"D.Z.s.8 7 f f y y f f j k j k k k f c k k c b k b b b b n B n n n V { { ' { { V o.{ { [ { A @.[ [ ` M H ! e 4.4.e 9.9.9.r 7.! ! ",
"A.S.N.i.7 d 6 < f j j j c j c k c f j j l c k k f j c k c b b b b B n V n { ' { V V [ [ { A @.o.[ [ { A L 1 6.6.6.q.4.W 3.q.^ 3.",
"P.L.H.B.1.6 h d y d h j j y j j f j j u u k k u k j k y c v B n b n b B n n n ' ' n { { { { { V V n { A Z G > 6.6.W W w.3./ w./ ",
"P.L.K.J.n.+.7 6 < d f f f f f f j k c j k y u k k k k k u c v c b b b v b n n n n ' ' n n n n ] ' ` V C C Z   2 6.w.q.4.w.w./ w.",
"J.L.J.L.B.b.n 7 h f < y y f < < < y f j j < < y f k c c c v a c v v N c v b b n B V V V V V V { [ [ ] V { C Z 6.6.( 4.E 3.w.3 / ",
"J.J.G.G.V.C.u.n 6 7 6 < < , < < f y y f f 6 6 6 6 k k u u c v v v v v c v b B B B B B V V V N N N v v v v v n m ( W Q 9.9.r g.r "
};
