/* XPM */
static char *result[] = {
/* columns rows colors chars-per-pixel */
"64 64 244 2 ",
"   c black",
".  c #2C0F07",
"X  c #421C0D",
"o  c #4A2410",
"O  c #522718",
"+  c #5A2D19",
"@  c #5A3119",
"#  c #633419",
"$  c #5C3731",
"%  c #653723",
"&  c #653B23",
"*  c #6B3C21",
"=  c #753A2E",
"-  c #6E462C",
";  c #734121",
":  c #74432A",
">  c #7B4529",
",  c #774A2C",
"<  c #7B4A2B",
"1  c #7A4B33",
"2  c #403260",
"3  c #366F5D",
"4  c #185862",
"5  c #345378",
"6  c #347171",
"7  c #474C77",
"8  c #7D4C71",
"9  c #7E5373",
"0  c #447C6D",
"q  c #4C7275",
"w  c #437C77",
"e  c #8C0B17",
"r  c #960D1A",
"t  c #99111E",
"y  c #AC040C",
"u  c #A90715",
"i  c #B90B18",
"p  c #A4111D",
"a  c #B6131C",
"s  c #901528",
"d  c #AA1022",
"f  c #B61523",
"g  c #A8263B",
"h  c #C70C1A",
"j  c #D00F1F",
"k  c #C9131B",
"l  c #D2131D",
"z  c #C81324",
"x  c #D31322",
"c  c #D4162D",
"v  c #DA1729",
"b  c #E31828",
"n  c #E01730",
"m  c #D22137",
"M  c #824E31",
"N  c #845232",
"B  c #895534",
"V  c #8C553A",
"C  c #8C593A",
"Z  c #925D3C",
"A  c #94613D",
"S  c #98623E",
"D  c #913654",
"F  c #B33347",
"G  c #C02744",
"H  c #946142",
"J  c #9A6542",
"K  c #9C6943",
"L  c #A46C44",
"P  c #A46E4A",
"I  c #A5724A",
"U  c #AC754B",
"Y  c #AD794A",
"T  c #AD7A52",
"R  c #B57D52",
"E  c #8A5474",
"W  c #A65365",
"Q  c #B16A77",
"!  c #B96977",
"~  c #C44C65",
"^  c #C16C7B",
"/  c #C1737D",
"(  c #398379",
")  c #329078",
"_  c #4E8671",
"`  c #5B937A",
"'  c #61947C",
"]  c #52A97C",
"[  c #B58252",
"{  c #B5845A",
"}  c #BD865A",
"|  c #BD8B5A",
" . c #9E8A7F",
".. c #BD8E63",
"X. c #C99866",
"o. c #285285",
"O. c #365885",
"+. c #395A96",
"@. c #317388",
"#. c #47548A",
"$. c #4C718F",
"%. c #466798",
"&. c #556A95",
"*. c #57789B",
"=. c #6F6F94",
"-. c #4E6CA4",
";. c #5775A3",
":. c #686FA4",
">. c #8E6E8F",
",. c #887899",
"<. c #9B7895",
"1. c #AF728A",
"2. c #A57A9A",
"3. c #A37D9B",
"4. c #8678A4",
"5. c #8974B1",
"6. c #A57DA4",
"7. c #B47DA4",
"8. c #C37A84",
"9. c #D17286",
"0. c #897DC7",
"q. c #379987",
"w. c #39928F",
"e. c #38A588",
"r. c #36A295",
"t. c #3CACA4",
"y. c #4C8D91",
"u. c #728794",
"i. c #55AE8F",
"p. c #6CB093",
"a. c #5588A8",
"s. c #6785A9",
"d. c #738DAD",
"f. c #79A6AE",
"g. c #76CEAC",
"h. c #8B8B94",
"j. c #95969B",
"k. c #A4829C",
"l. c #AA839E",
"z. c #B38F94",
"x. c #8EAD91",
"c. c #9A86A8",
"v. c #8990AB",
"b. c #9A9CB9",
"n. c #AB84A2",
"m. c #A887A7",
"M. c #A88EAF",
"N. c #B687A9",
"B. c #BB85AD",
"V. c #B692AA",
"C. c #B88AB3",
"Z. c #BE8AB1",
"A. c #A797B7",
"S. c #B794B6",
"D. c #8EAFB4",
"F. c #9AA3BA",
"G. c #B2ABB6",
"H. c #C287AD",
"J. c #C494A8",
"K. c #C087B0",
"L. c #C28AB2",
"P. c #C399BA",
"I. c #C8A4BA",
"U. c #CDB3B7",
"Y. c #E2A2B0",
"T. c #8EC6B3",
"R. c #A5CAB0",
"E. c #C9D2B2",
"W. c #8A9EC5",
"Q. c #B49DCC",
"!. c #98B7C5",
"~. c #91ACD0",
"^. c #96ABD8",
"/. c #B9A9C6",
"(. c #A5B8CA",
"). c #B6B7C6",
"_. c #AFB3D3",
"`. c #A5B8D6",
"'. c #9BA8EA",
"]. c #A2A8E1",
"[. c #CA9EC4",
"{. c #D09FC4",
"}. c #C6A8C6",
"|. c #D2AECA",
" X c #CEB6CB",
".X c #D3B7CC",
"XX c #D3ADD2",
"oX c #C7B7D4",
"OX c #D8BAD4",
"+X c #E4BCD3",
"@X c #E1BFE0",
"#X c #95C6CA",
"$X c #A7C5C7",
"%X c #B6CAC8",
"&X c #B7D2CC",
"*X c #ABCAD5",
"=X c #B7C8D8",
"-X c #B9D3D8",
";X c #BAD3E6",
":X c #BBD6E4",
">X c #CECCD2",
",X c #C8C9DA",
"<X c #D7C8D7",
"1X c #DEC3DA",
"2X c #DCCBDC",
"3X c #C3D8DA",
"4X c #E3C4DC",
"5X c #E3CBDE",
"6X c #EAC8DB",
"7X c #EACDDB",
"8X c #C9E1DC",
"9X c #DACAE6",
"0X c #C8D6E6",
"qX c #D0D3E9",
"wX c #D7DBE8",
"eX c #E5C4E2",
"rX c #EBC6E3",
"tX c #E3CBE2",
"yX c #E9CCE7",
"uX c #F7CDEA",
"iX c #EBD2E5",
"pX c #E9D6EA",
"aX c #F3D4EC",
"sX c #F8D6EA",
"dX c #F3DBED",
"fX c #F1CFF1",
"gX c #EADAF2",
"hX c #F4D6F4",
"jX c #FAD4F3",
"kX c #F5DDF3",
"lX c #FADEF2",
"zX c #CAE5E9",
"xX c #D9E5EC",
"cX c #D4F2EE",
"vX c #D9EBF6",
"bX c #CBF2F0",
"nX c #DBF2F5",
"mX c #D8F4F6",
"MX c #E3E5ED",
"NX c #EFE7F3",
"BX c #E6E8F5",
"VX c #F5E3F3",
"CX c #FAE1F4",
"ZX c #F9E6F7",
/* pixels */
"L U S N U I I N I 1 E .XhXhXdXdXsXlXdXlXdXsXdXdXiXpXiXpX7X5XtX7X5X5X7XU.z.! ! / ! ^ ^ ! 8.^ ^ ^ / 8.8./ / 8./ z./ / 1.^ ^ ^ ! Q ",
"C S U S S H A A H = J..XrX5XtX7X7XiXiXiXiXiX7XiXiXiX5X5X5X7X2X<X7X6XJ.F a p p p p p d p p p r r t r r r e r e e r t e r r e e e ",
"C U U U V H I H 1 Q +XsXkXkXlXlXCXCXCXCXCXCXVXCXVXCXZXZXNXNXdXsX+X9.F m f z z h h f f k i i f h a i i i i y y y y u u u y y u y ",
"I ..A Y H T X.T E J.7XlXkXkXCXlXlXCXCXCXCXCXVXCXCXZXVXCXCXVXsXY.~ z z z l x x j j l j l j k j h h h h i i i h i i i y y y y y r ",
"I A Y A A | T $ J.OX7XsXZXCXkXkXCXlXCXlXCXCXCXVXkXNXZXCXCX7X9.F m b b l v l l x l l l l l k k z k k h k a i h h h i i i i a p e ",
"B A A A Z T 1 W 6X1XpXlXNXZXCXCXCXCXlXlXCXCXdXVXVXlXdXdXY.~ F m l l b b v v v b x x v x x x x j l l j j k h h j h h h i i p s D ",
"I ..A Y I T $  .sX+X.X5X5X2XtXiXiXiXiXiXiXiX7X7X5X5X|.9.F G m n b b l b b n b b v n b v x x j x x x x j j z x c j h j z d s W I.",
"[ I ..Z Y I X.X.L .X<X7XiXiXpXaXsXdXdXdXdXdXdXdXiXY.~ g m b n n b b b m n n v c v v c v c c c c v v c j z z z z z z d s D 2.Q.^.",
"J Z ....Y 1 1 1 Y U.sXdXZXCXCXCXCXCXCXCXCXCXlXsX1.= s p d a d f f p a f a a f a a i a a i i d i a i a a d t d p p e s E C.Q.'.'.",
"J I A ....1 1 1 I U.iXZXVXVXCXlXCXVXlXdXCXCXlXsXI.>.Q Q Q Q Q Q Q Q Q ! ! ! ! ^ ! ! ^ ^ ^ ^ 1.! ! ! ! ! Q Q Q ! 1.E 1.Q.].'.'.'.",
"{ ..I A Y I , 1 1 >XiXCXVXCXCXlXVXVXCXCXlXlXlXlXlX.X X,X/.).oXoXOXXX}./.}.}.}.}.}.}.I./.[.Q.Q.}.}.G./././._.oX/./.A.v.v.5.5.0.0.",
"} { A A A I N N I >X5XiXpXaXaXpXdXdXdXdXsXdXjXaXpX<XxXwXG.=X,X9X9XQ.c.6.c.m.c.c.m.c.6.M.M.M.N.m.c.j.v.v.u.:XvX0Xv.=.=.$.$.&.:.5.",
"S H { { A I 1 N N 5XOXOX}.|..X.X.X>X.XV.|.XX}.G.G.G._.=Xv.A.A.S.[.6.6.2.6.n.k.k.k.<.9 m.V.S.V.M.u.q _ 0 q #XzX*Xy.@.6 ) y.q m.V.",
"# ; C { A N X.I I 5XP.+X7XiXtX<X<X.X5X<.<.m.c.M.c.:.W.oX4.>.=.<.>.6.<.n.N.n.2.2.2.l.E N.L.Z.B.N.=.0 ( ) w.i.#Xf.y.w.q.) ) 3 j.V.",
"A * * H * N I X.X.2Xn.I.|.OX4X2X1X.XtXk.,.=.7 7 7 7 F.0X&.7 7 2 2 >.,.2.3.n.m.3.<.2.E 7.L.L.L.V.u._ q.) @.w.;Xf.$.( w.q.) 3 j.V.",
"[ S = - : ; # ; # 2X2.|.OX@XtX2X2X.XtXm.>.=.&.#.O.5 F.=X&.5 #.O.7 =.=.2.3.n.n.3.2.l.9 n.L.L.H.V.u.6 ) 4 4 @.;Xf.5 4 6 r.) 0 j.V.",
"[ H - ; : # L J J 2X6.}.|.OX4X2X1X.XeXm.4.=.&.%.%.5 v.:X*.O.+.+.#.:.,.n.n.n.m.n.2.6.E 6.N.B.N.V.u._ y.4 4 $.0Xv.5 o.@.r.q.3 u.3.",
"; - K K K 1 M J J 9X<.|.OX@XyXtXtXOXuXM.4.&.;.;.-.%.W.:Xa.+.+.+.#.4.,.<.3.k.l.k.2.m.E 7.K.H.C.M.u.w w.6 5 $.0XW.O.o.+.t.q.6 j.P.",
"C K | | J M J N M tXm.XXXXOXeX6X6X.XpXM.,.&.-.*.;.;.~.;Xa.%.+.%.#.5.,.<.<.n.k.k.<.7.9 7.L.L.Z.C.,.0 ( 6 O.&.zXW.o.o.@.r.) 6 F.eX",
"T K C K R } { Z Z tXm.|.XXOXeXeX4XOXtXM.,.&.-.-.;.;.!.zX*.%.%.&.%.4.<.k.m.m.n.l.3.n.E B.K.Z.Z.N.u.6 w.@.%.*.zXW.5 o.@.r.e.w ).jX",
"H R R C L P Z P Z tXn.|.|..X4X7XeXXX@XC.,.#.%.-.;.;.(.0X:.-.-.-.:.5.<.2.k.l.k.l.3.n.E N.K.K.L.C.h.0 y.) $.s.zX~.o.o.@.r.q.0 0XaX",
"< L R R R P Z P P 9Xn.|..X<X1X6XeXXXeX7.>.#.#.-.-.*.(.0Xd.-.-.;.:.=.<.<.l.n.m.l.<.n.9 7.B.B.B.N.h._ ) @.$.s.zX~.@.@.@.r.e._ ). X",
"Z C R R L I { P Z eXl.I.U.OX<X1X@XXX@X6.>.O.%.-.-.%.(.0Xd.a.y.*.=.,.>.<.<.k.m.<.<.2.9 7.K.K.B.N.h._ ) ( $.d.bXD.*.-.w.r.e._ wXpX",
"T J J J T J | J : pXz.I.U..X1X1X@X.X@X6.=.5 +.+.-.%.(.-Xd.u.#Xx.*.=.>.2.k.k.k.3.<.6.9 N.K.Z.Z.V.h._ ) 6 6 s.zXW.*.@.w.e.) _ wXdX",
"J J M J T | | J > tXm.I.|.OX5X4X4XOXeX6.:.#.O.%.%.%.`.:Xu.D.R.x.h.=.E h.k.k.l.k.<.2.8 7.L.Z.B.N.j.y.i.6 6 *.zXD.a.a.w.r.e._ 3XdX",
"J H J M N J | J > 9XM.S.|.XX1X4XOX.X@Xm.>.7 O.#.-.&.`.;Xu.' x.x.h.h.>.<.2.2.k.<.<.2.8 7.L.L.Z.N.j._ i.6 #.s.zXF.a.a.y.r.e.( 3XdX",
"N J T H J J > > K 2Xk.I.|.OX4X4X@XXXeX6.>.=.&.:.:.:._.:XD.j.E.E.h.,.<.l.n.n.n.l.6.7.E 7.K.K.B.n.j.` i.( q d.qX^.s.a.a.r.e.3 )..X",
"K C C | | I C C I 2X>.OXeXuXyXeXrXeXrX6.>.M.A.Q.A.).wX=XF.j.G.z.n.>.<.2.2.l.n.l.6.6.8 7.K.K.Z.N.j.` i.6 $.`.=X_.s.;.a.r.e.6 ,XtX",
"[ I C P | I I I C 2Xm.<.n.m.m.n.n.k.2.1.7.Q.S.M.G.>XBX0XW.M.V.V.P.3.Q >.1.<.<.<.<.>.1.7.K.K.Z.z.x.` i.6 a.cXvX(.a.;.y.q.) _ 0XgX",
"K I I I C C C I | 2XP.{.S.[.[.[.P.P.P.P.{.{.{.[.G.2XBX,XF.M.C.N.B.Z.V.H.H.H.H.7.B.Z.7.L.Z.B.Z.V.j.` i.( y.mXvX~.a.@.w.r.e._ qXpX",
"T I I I C I C C I 5XiXuXhXjXjXjXjXuXjXuXuXjXjXjXkXBXBX,XF.M.S.B.K.B.N.B.B.K.H.7.N.7.N.C.N.N.Z.m.' _ ] p.T.bXbX!.d.a.t.e.e.6 3XhX",
"J A A R R J N N N 2XOX4XtXrXeXrXeX6X6XrXrXrXrX@XtXxXBX0Xb.M.A.C.C.m.V.S.L.P.L.P.P.S.P.P.P.P.I.U.x.] i.g.g.bXbX!.d.t.r.r.i.3 ). X",
"U Z : : H N # N J 2X|.6X4XeXrXrXrXuXuXuXfX9XgXfX9XqXBX,Xb./.9XeXXX|.oX@X@X@XOX9X1X1XOX1X1X XU.G.x._ ] i.T.bXbX!.s.y.w.q.( 3 E. X",
"U R Z ; R J ; J J 7XaXjXsXsXsXuXuXjXuXfXhXfX9X,XqX=XqX*XW.].9X9XpXwXgXgXgXgXgXgXdXNXpXpXMX2X>X>X>XR.R.T.R.xXvX!.#XD.D.g.D.p.F.G.",
"N Z R A R N - J J 5XaXfXjXjXsXuXuXuXjXjXhXgXoX,X0X-X;X;X;X0XqXqXwXvXqXvXgXwXxXvXwXMXMXMXMXMXMXxXwX8X8X8X%X,XwX`.*X:X:X:X*X;X=XoX",
"T U O , I N N N N iXfXjXuXdXhXkXjXjXhXhXhX9XoXxXvXvXmXmXvXvXvXBXBXvXvXvXmXvXvXvXnXnXvXcXvXxXnXnXMXxXcX8X3XwXvXqX`.].`.].`.]._.].",
"Y I < < I K K N M >X2X9XtX2X5X5XrX5XtX9X2X9X(.F.F.D.!.(.$X$X$X$X$X$X*X*X&X-X-X-X-X8XzXzXzXzXzXcXxXnXbXbXcXnXvXvX^.'.^.^.^.'.^.^.",
"N < Y I I K N K N BXBXBXMXxXxXMXpXwXwXxXxXxXF.G.zXzX:X8X3X3X-X-X-X-X-X&X=X*X*X%X*X&X$X$X$X$X(.$X$XG.#X!.T.D.!.`.f.d.a.a.s.d.d.s.",
"@ , 1 , Y N K { S %X&X%X>X%X%X&X&X&X3X&X3X3Xj.D.mXmXmXnXnXnXnXvXmXmXnXnXnXnXnXnXmXmXmXmXnXmXcXcXnXxXxXzXzX3X0X*Xd.~.~.~.^.'.'.^.",
"* N * B S A < T T 0 _ 0 q _ _ ` ` ` ' ' _ ' ' y.T.R.$X&X8X8XzXcXbXcXcXcXcXcXcXcXcXcXcXcXmXcXcXcXnXnXnXcXmXcXnX8Xf.^.^.^.^.^.~.^.",
"A K S B S [ , < H [ [ C Z K X.I K X.N N N C S I J < T A < Z U Z J : ; : : < < < < > > > Z M M J C < B > S B > Z P H O ; O @ @ 1 ",
"* * N * L A < A [ # * [ * K X.I X.X.N N I I S Z C S A < < S U U M = = : ; < Z Z < > > B S V M Z N < < > > M B A C A A : A N @ @ ",
"A N * N B A A A A Z A [ * * K X.L I I I I C C C I Z < Z T S S U M - S | J U U Z Z A N B B M M M M > B B < > Z B Z Z A Z A N I N ",
"{ I I I N B S 1 N [ [ [ [ I 1 I I I C I C N B S R H , H H R R J R A A [ T R Z : ; Z Z > < C V , , B B S A Z < N C Z > Z C N N * ",
"S Z P I N N N N B -   . . + + M I I C : C [ S B J J H H H R R H J T T > A A : H ; < > A C C V C C > B B B N < < Z L Z Z A N N N ",
"{ M Z I I S [ [ [ - - - [ I 1 + + : C C C [ K J J Z H H H H J J 1 > > > > Z R R Z I I > < C , , C S > < < > N > N L Z Z C N N N ",
"S M S M N N [ N B : [ [ [ I I I I P ; C I J [ R R : O S H 1 J J H S > A S Z R R R I C Z I B C , # < B B > N B Z N Z Z B Z N N N ",
", U U < X @ K S @ # B B L @ + M I L I o o # C C # M Z = M = Z T > C P P P T T B R L N N L I C C C < < C Z N N N N B B B L B N N ",
"| U U , U J J J < B B B * + M L N , L L < # [ [ C U Y Z > > Z T > : P P C T T B T | | L N C C C | P < Z Z I N N N C S C B S N N ",
", , U U R , @ < M # U L * M I L I , ; I L C [ C C Y I Y Z > H > > P C C C B T T T B K K L C C L } C > > C I N N I B K L < B S Z ",
", X , U , @ , J J L L B * M I M I L , < < C # % C Z > Z > H T < > C : P C # B T B N N N N C C C C < < > I I N @ # > C B < N A S ",
"[ X.# H S o U Y U [ [ . , H S S H C C 1 * T T A T R Z Z > V { P K R > S J ; C = : B I I B I I A < K K S & T - .   * M 1 S A N B ",
"[ X...# A < , , o , X   , H , H + 1 < * C T U - = A T > > V C C V S > S Z I C : C B * I I I I I Z S J &   . T [ T M M * S A A A ",
"R # A @ S Y Y o < R < . , , 1 : + * < < C Z C - : > S > Z { { K V J Z > > C I I I I * * L < < I A S & J J . - T T % H H H A I I ",
"B A A X.S < < o o [ [ 1 R H + + , V C C 1 : C H T Z > > H P K { { Z R J > : : B - B I B C A < I I J J & J T - T T M H H H N A I ",
"X L L - . o , K J @ + < < H > Z Z I A I P T H C T N N N R Y B N T V N N B M 1 + + - C A # N N I I B B P * J J + , U U 1 U I N N ",
"X     . * J Z L J < J J < > Z T A A I I A ; H T T R R [ N Y Y @ + B + N T I I I I A * * H 1 N N N B P P * + J J < < o < U P I P ",
"U - * L L J > J , J J J L Z > > > A A A S : H C : N N N O Y Y @ + + N Y T I N 1 N C * { { B I I N B P B * S L J K 1 < < < N I % ",
"U L L L L J L J : < < , < Z Z H > N B S I A A H H O   O B N N N N B T B + M 1 N + A H * # # N I I P P B B < J J < U U U 1 I V N ",
"U S R H S L } B B J J J J = Z U Z B N # * B N B [ T N [ B X X 1 1 < A C < B I I I K K + 1 , : C V N * K N % L L L R J M H T C C ",
"C A R R : B L L B ; ; : J Z : = Z M B K N B B B + B T T T N N | N > < > C N B B B J < + , : : @ : N * * B & # L L M M T H C T C ",
"Z A R A , B L } } ; J ..J : Y C Z M S K N B B R B # # # T | < N } < < Z A B % B I < < < K V V : : * K K J #   & L T T J T T C T ",
"Z H R A Z } } L } S ......Z Y U U B N B K R + B B # B B B | } } } Z Z P M B B B L K L S , : V @ : * B N B . . L L Z J M J T * C ",
"I P * P P T T T T J H H * B ; L U * * * [ : . U I < < , > ; I B ; A Z Z Z Z Z Z Z - - L - , I I   * C # # # Z R Z M N U U 1 { 1 "
};
