/* XPM */
static char *result[] = {
/* columns rows colors chars-per-pixel */
"64 64 231 2 ",
"   c black",
".  c #2C0F07",
"X  c #3D0926",
"o  c #421708",
"O  c #421C10",
"+  c #4A2210",
"@  c #522419",
"#  c #522819",
"$  c #5A2C19",
"%  c #5A3119",
"&  c #633319",
"*  c #460C28",
"=  c #4A132A",
"-  c #51132F",
";  c #4C1A33",
":  c #571A37",
">  c #691737",
",  c #4D253A",
"<  c #59223B",
"1  c #653723",
"2  c #653B23",
"3  c #6B3C21",
"4  c #733D21",
"5  c #66223F",
"6  c #494238",
"7  c #6E462C",
"8  c #734121",
"9  c #74432A",
"0  c #7B4529",
"q  c #774A2C",
"w  c #7B4A2B",
"e  c #7C4C31",
"r  c #6D1D42",
"t  c #592A42",
"y  c #672642",
"u  c #6B2341",
"i  c #732545",
"p  c #74254A",
"a  c #76284A",
"s  c #6C3950",
"d  c #7E3F61",
"f  c #1D577C",
"g  c #274D7A",
"h  c #255779",
"j  c #2B6777",
"k  c #38647D",
"l  c #6A4355",
"z  c #7C4866",
"x  c #8F0A17",
"c  c #880E24",
"v  c #852336",
"b  c #824E31",
"n  c #845232",
"m  c #895534",
"M  c #8C553A",
"N  c #8C593A",
"B  c #925D3C",
"V  c #94613D",
"C  c #98613E",
"Z  c #8A3C59",
"A  c #946142",
"S  c #9B6542",
"D  c #9C6A43",
"F  c #A46C43",
"G  c #A36D4A",
"H  c #A5714A",
"J  c #AD754A",
"K  c #AD794A",
"L  c #AD7552",
"P  c #AD7A52",
"I  c #B57D52",
"U  c #9C4F69",
"Y  c #905273",
"T  c #B16879",
"R  c #538778",
"E  c #B58252",
"W  c #B5845A",
"Q  c #BD865A",
"!  c #BD8B5A",
"~  c #BD8E63",
"^  c #CA9967",
"/  c #1D5F86",
"(  c #2A5889",
")  c #335184",
"_  c #2B5694",
"`  c #296689",
"'  c #376687",
"]  c #36748D",
"[  c #2A6697",
"{  c #2B6B9D",
"}  c #326895",
"|  c #2B739C",
" . c #357699",
".. c #2D6BA3",
"X. c #336CA4",
"o. c #2C77A7",
"O. c #3279A6",
"+. c #347AB2",
"@. c #4E718C",
"#. c #477C95",
"$. c #6E7197",
"%. c #5D74A3",
"&. c #6D77A8",
"*. c #90688A",
"=. c #95799B",
"-. c #AC7193",
";. c #9578A2",
":. c #AE78AA",
">. c #B878A8",
",. c #C177A6",
"<. c #C37CAD",
"1. c #C67EB5",
"2. c #877DC5",
"3. c #3B839B",
"4. c #2E82AD",
"5. c #3687A8",
"6. c #3382AC",
"7. c #3484B3",
"8. c #3689B5",
"9. c #548A8D",
"0. c #588699",
"q. c #6A8A96",
"w. c #6C9299",
"e. c #4988A7",
"r. c #5789A8",
"t. c #5396AE",
"y. c #678BA9",
"u. c #7A88AA",
"i. c #6A93A8",
"p. c #7B93AA",
"a. c #728AB6",
"s. c #7897B5",
"d. c #53A5BA",
"f. c #6DA4B1",
"g. c #7CA9B9",
"h. c #6D9DC3",
"j. c #5EAAC4",
"k. c #76A6C7",
"l. c #9C849E",
"z. c #A98E98",
"x. c #9A84A5",
"c. c #8D90B4",
"v. c #A484A7",
"b. c #B885AC",
"n. c #B795AB",
"m. c #A589BB",
"M. c #BB8AB5",
"N. c #A899B4",
"B. c #B994B8",
"V. c #87A5B9",
"C. c #95AABA",
"Z. c #A6A6BA",
"A. c #B5AAB7",
"S. c #C383AE",
"D. c #C483B3",
"F. c #C983B4",
"G. c #C988B8",
"H. c #CD8ABC",
"J. c #D388BD",
"K. c #D38DBD",
"L. c #C799B9",
"P. c #D595BD",
"I. c #C8A3BA",
"U. c #D1A1BE",
"Y. c #9C8EC8",
"T. c #9B93CA",
"R. c #909ACB",
"E. c #AA91C8",
"W. c #A896C8",
"Q. c #B799C7",
"!. c #88ACCE",
"~. c #9AADC7",
"^. c #8BA5D4",
"/. c #8DABD4",
"(. c #97A6D9",
"). c #93A6DC",
"_. c #A4A9C5",
"`. c #B9AAC7",
"'. c #A6B4CE",
"]. c #BAB4CD",
"[. c #A4ABD5",
"{. c #B7A9D1",
"}. c #B7B4D5",
"|. c #95A8E1",
" X c #98AEED",
".X c #9BB2E9",
"XX c #A8B3E9",
"oX c #ACB2E8",
"OX c #D28CC2",
"+X c #DB8EC3",
"@X c #CD94C3",
"#X c #CA94CA",
"$X c #C998C8",
"%X c #D594C3",
"&X c #DA95C5",
"*X c #D59AC5",
"=X c #DB9AC5",
"-X c #D595CA",
";X c #DB96CB",
":X c #D59ACB",
">X c #DB9ACB",
",X c #DA9BD1",
"<X c #E196CA",
"1X c #E29CCB",
"2X c #E49DD3",
"3X c #EA9DD5",
"4X c #E89BD8",
"5X c #C6A7C7",
"6X c #D5A6CB",
"7X c #DAA1CB",
"8X c #CFB3CB",
"9X c #D9A6D4",
"0X c #C6B6D4",
"qX c #D7B6D5",
"wX c #DAB2D5",
"eX c #E3A3D5",
"rX c #E9A2D7",
"tX c #E1ABD1",
"yX c #E2BEE4",
"uX c #9DCBD6",
"iX c #A6C7DB",
"pX c #B1CDD5",
"aX c #AFD0E5",
"sX c #CECAD9",
"dX c #DCE2DF",
"fX c #DCD0E4",
"gX c #ECC9E7",
"hX c #F4CEEC",
"jX c #F3D3ED",
"kX c #EED2F0",
"lX c #F6D4F1",
/* pixels */
"T T T T T T T Z i 5 5 y 5 y y y u y 5 y y < 5 r u r i 5 5 5 a a a i i a p a a p p p a p p a a a a a a i a a v a s $ w % $ 1 P E ",
"x > x x > 5 ,.U Z 5 : : : : : : : t : y y y 5 > u u 5 5 5 5 a 5 i i i 5 a a i i i u i i i s y p a a u u a i p p a s w % w N e m ",
"x x x c U -.D.-.U y = = X X * X X X X X X X X * * * - * = = = = , - : : < : > r > > 5 5 y y y y y 5 y s i i i i a s s w D N 2 2 ",
"x x v T L.M.B.:.H.S.-.-.-.-.-.*.*.Y Y Y Y Y z z z l s s s < < , , ; ; ; ; = = * * * * * * - - - - = = - - ; < < < , , 6 e $ n n ",
"x Z M.0X}.W.Q.:.%X=X=X*X*X*X=X=X7X7X2X1X1X1X7X7X6XI.6XU.U.U.L.L.B.b.b.v.b.:.=.=.*.*.*.*.*.Y Y Y Y d d p s O + N 3 I I q e # m P ",
"U P.oXXXoXW.Q.:.-X;X%X:X5XP.=X=X;X;X=X1X1X1X7X5X0X0XpXsXsXsXfXZ.N.Z.`.{.}.0X].].`.`.$X6X6X:X&X&XP.K.+X<.z.+ N N + w I e q P n n ",
"8X[.XXXXXXT.{.:.:.>.>.b.b.<.S.F.G.G.G.K.P.P.$X`.'.@.@.@.k @.aX~.@.k @.@.0.%.$.u.&.c.c.{.9X6X2XrX2X2XrX;Xn.3 m N 3 O e q e M $ $ ",
"(.XXXX.X[.W.#X:.-XOXP.P.&X+X&X&X+X&X-X&X%X=X@X}.$.e.0.e.#.i.aXk.]  .X._ } ( ( / ( g g %.Q.m.D.J.F.J.OXD.I.F H H G 3 3 3 2 $ e e ",
" X X X XXXW.#X:.OX%XP.*X=X<X;X;X&X;X:X>X>X*X8XC.R t.3.3.3.g.uXf.]  .X.X..._ _ [ ( ( ( ) c.8X,X2X4X1X<X+XP.G + + G A 3 3 V K H $ ",
" X XXXXXoXW.Q.:.OX%XP.=X=X;X;X=X=X;X:X1X7XL.gXC.f.j.d.d.f.pXuXf.t.t.t.e.#.X. . .] } ' k $.`.9XrX4X4X4X,XL.9 9 q G C 3 3 V e e e ",
"Y.2.Y.&.c.:.$X>.OX&X%X%X&X&X%X%X=X*X%X1X7Xz.].i.t.5.d.d.f.uXC.9.e.e.t.h.j.h.j.j.k.k.^.^.~.pX5XrX4X2X4X>XL.+ q q G C ! C 3 $ K e ",
";.&.*.*.$.m.D.,.OX;X%X=X&X&X;X:X>X<X;X<X1Xv.C.#.3.5.5.3.f.uXw.j j | [ _ ` / / f f g f g j c.`.9X4X2X2X;XP.L w @   o D S 8 V W W ",
"M.B.D.L.qXgXP.>.,.S.S.b.<.<.D.D.G.H.OXJ.@X=.C.#.3.3.4.5.t.pXg.3.5.5.5.5.5.3.| | } [ ` ` h V.].:X4X3X3X<XL.b b @ @ o o 3 D V 8 V ",
"M.b.L.yXwXyXL.,.J.P.H.H.K.K.OX@X@X%X-X+X:Xx.~.#.3.5.6.4.d.uXg.3.d.8.8.5.4.4.o.o. .} [ [ h p.W.B.1.1.OXOXL.b J b b D 3 D D V 8 W ",
"n.M.wXlXwXwXG.,.J.&X*X*X;X&X&X:X:X;X>X;X9Xx.~.] { o.O.o.e.uXg.3.8.8.8.4.4.4.4.o.X.X...[ ` s.].9X4X3X4X,X5XJ J e b S D 9 3 8 8 V ",
"b.5XjXkXsXqXG.,.+X&X%X=X&X&X;X=X;X>X>X>X9Xv.~.@.} o.o.O.t.uXk. .8.8.4.8.4.4.4.4.O.o.o...h p.{.eX3X2X4X;X5XD W W G D n D D B 4 3 ",
"l.5XqXqX5XqXL.>.K.P.*X%X&X&X&X;X&X;X7X=X6Xv._.' } ......0.uXg.` 5.4.5.5.7.8.8.6.4.o.o.O.' p.5XeX3X3XrX>XI.N m N N W D n n B P B ",
"wXjXlXkX8XqXb.>.K.%X*X*X&X&X&X&X<X=X7X>X6Xv.T.@.` ....{ 0.uXg.] 4.4.5.5.8.7.7.6.6.4.o. .' p.5X9XrX4X2X;XI.W W N N W n n n B P P ",
"hXlXlXlX8XwXb.>.>.<.D.D.D.D.D.D.F.K.G.P.*X;.Z.' _ _ ..[ e.iXg.j 4.| o.+.7.7.6.6.8.7.O.O.' s.N.@XOXOX-XJ.I.G D N W W D n n N P E ",
"lXlXlXjX9XwXb.b.P.&X%X&X%X&X&X&X%XP.P.=X:X;._.k _ _ _ _ 0.iXg.j | | o.O.O.O.6.5.8.+.O.5.' s.Q.-X&X+X-XJ.n.w w w V e I A S L V B ",
"hXjXjXhX8XwXb.b.P.&X&X;X;X;X>X;X:X7X>X>X7Xv.Z.k ( _ _ ( @.pXV.j  .| | | o.o.o.4.+.7.5.5.] k.{.9X4X2X,XOXB.C L L w A A e S L V B ",
"8X8X6X6XQ.wXM.>.%X=X&X&X=X;X;X;X:X=X1X7X9Xl.Z.k ( _ _ ( #.uXg.'  .o.o.{ | | | 4.5.+.5.O.] k.{.9X2X2X2XJ.n.C V V P I S S A w w B ",
"gXjXhXhX5XwXb.b.&X=X%X*X=X;X;X>X;X>X1X2X7X;._.k ( _ _ ( @.iXg.j  .o.....{ { | ..+.o.6.3.] s.{.9X2X>X2XG.n.w w w L S S I I B C B ",
"jXjXlXgXL.wXM.b.%X1X;X=X;X=X;X;X;X;X1X2X9Xx._.) _ _ _ ) @.iXV.` { ......{ { { ..o.o.O. .] c.Q.9X3XrXrXOXn.D H 9 9 q w F F A H H ",
"jXjXlXjX5XwXb.:.S.F.G.G.G.G.G.H.H.K.K.%X*X=._.k ( _ _ ) @.iXg.h [ X.X.X.X...{ [ ...... .' p.m.G.J.G.OX>.B.^ ^ D G # # # w n n V ",
"jXjXlXjX6X9Xb.:.G.K.H.K.H.H.K.OXK.K.&X%X>X;.Z.k ( g g g @.iXg.f / ` } } } ..[ _ [ / ` ` k p.N.L.%X:X;X<.n.G q 4 G F e w H H V H ",
"8X8XtXqX5XwXb.>.P.1X&X=X;X=X=X;X=XP.=X2X2Xl.`.p.p.u.&.s.V.C.p.0.#.r.r.r.r.t.t.r.y.a.y.i.i.c.N.6X>X>XeXD.n.q 9 9 9 q F w F H n V ",
"gXgXgXgX9XqXb.>.H.&X&X&X=X-X&X%X*X*X;X,X>Xn.8XsXfXfXfXfXsXA.C.C.~.~._._.'.[.'.'.}.}.}.'.]._.N.6X;X:X>XM.n.B P N 3 e D e w b b S ",
"jXkXlXhX9XwXb.-.H.=X:X:X&X-X&X:X:X>X,X,X2X*XI.A.A.I.L.$XI.A.I.`.{.5X`.5X5X5X5X5X6X5X6X5X5X5X6X>X2X:X>XD.z.W P P N e e e e 3 S S ",
"kXkXjXhX8XwXb.>.H.>X*X*X*X:X;X;X:X>X;X;X>X*X>X;X*X*X&X;X>X;X:X7X:X:X-X;X,X#X$X#X@X-X#X-X@X%XOXP.%XP.&X>.z.P 2 P N D ! e e 3 S S ",
"lXlXlXhXtXtXb.-.>.<.<.<.<.1.F.1.G.G.OXOXOXOXOXOXK.OXJ.G.G.G.G.S.G.G.G.G.G.D.G.1.1.<.<.1.1.1.F.F.F.D.G.-.z.P P N N e F D e b b 3 ",
"0XqXqXwXU.wXn.b.P.P.K.OXOX&XP.&X;X,X;X;X,X;X,X<X>X>X;X:X:X>X7X7X1X>X1X2X2X2X9X,X7X2X;X>X;X=X:X:X:X1X1X1.n.H W B B n n b S C w B ",
"8X8X8XU.A.`.N.b.@X%X&X&XP.&X*X=X:X;X>X>X>X1X>X>X;X;X;X-X;X;X,X>X7X>X1X<X2X<X,X,X>X;X:X>X>X>X:X-X-X&X<X<.N.N B F V n C ! E V V V ",
"Z.Z.Z.Z.N.x.x.b.H.-X&X%X*X*XP.*X=X=X>X7X=X=X=X=X&XP.&X+X&X&X&X=X=X=X;X<X<X<X1X;X1X>X;X=X;X;X;X:X:X;X>X>.z.H B B V C m C C C P E ",
"pXpX}.iXpX0X{.v.$X&X-X-X=X=X;X=X=X*X>X>X7X>X:X>X;X;X-X-X:X:X,X:X7X6X:X6X,X6X7X=X%X=X>X=X*X*XL.@X#X#X$Xv.z.H B V E E m m n q P P ",
"[..X XXXaX}.{.m.#X:X-X#X:X:X#X-X:X#X#X#X#X$X#X#X#X#X#XM.Q.B.B.;.l.l.x.l.x.;.;.v.Q.B.W.m.m.m.E.E.E.E.T.m.z.m m m F C C C D m m n ",
"R.).).R.^.R.c.x.Y.Y.m.m.m.m.m.E.T.Y.Y.Y.Y.Y.Y.Y.T.Y.T.Y.Y.T.T.$.&.c.c.u.&.$.%.&.[.(.(.(.(.(.(.[.|.(.V.C.A.m F F 7 q C 9 S E n m ",
"a.u.;.h.s.f.R.R.[.T.(.W.(.(.(.(.).).(.).^.^.|.|.).|.|.|.|.|.).%.a.a.y.y.y.y.&.h.(.[.(.)./.R.(.~.R.R.uXdXdXC F F F C q 9 9 m N % ",
"|.). X|.|..X).|.|.|.|.|.|.|.|.)./.(./.^.!.^./.^.^.^.^.^.!.k.!.y.i.w.i.w.w.w.u.w.q.R w.w.w.q.$.k p.pXpXdXdXC m F F 8 + 9 C & & P ",
"/./././.!./.!.R.^.^.^.^.k.R.k.k.s.s.i.i.y.y.q.q.0.0.9.9.9.R R R R R 9 S 9 w 0 B b b b n m b M F C w n 8 m E w K w 9 q # V H n e ",
"V F D e D E q q A E E N V D ^ H D ^ n n n m D K S w P V w B J C B 4 9 9 9 w q w w 0 0 0 C b b S B w m w C m b V H V $ 8 # % % n ",
"8 8 e 8 D V w V E & 2 E 3 D ^ D ^ ^ n n H H D N N C V w w C J J b 9 9 4 9 w B B 0 0 0 m B B b M b w 0 w 0 b m m N V V 8 V e % % ",
"V e 8 e n V V V V B V E 3 3 D ^ D H H H H N N N H A w A P C C J b 9 S ! S J J B B B n m m b b b b 0 m m 0 0 m V N V V V V e H e ",
"W G H H n m C n n E E W E H e H H H N H N n e S I A 9 A A I I S I A S P P I A 4 8 B B 0 0 N M q w m m V V N w n N B 8 B B n n 8 ",
"C C H H b m n n n 7   . . % $ n H G N 9 N I D n S A A A A I I S A P P 0 C C 9 A 8 b w B N N M N m w m m m n w 0 B F B B B n n n ",
"W b B H H C E E E 7 7 7 E H w $ $ 9 N N N E D C S A A A A S A A e 0 0 0 q B I I V F H w w N q q N C w w 0 w n w n F B B N n n n ",
"V b V b n m E n n q E E E H H H H H 9 N H D I I I 9 # A A e S S S B 0 C B B I I I H N V H N N 9 & w n m 0 n B m n B B m B n n n ",
"q J J w O % C C & & n m F $ $ b H F H + + & N N & b B 0 0 4 A L q M G G G I P m K F n n F H N N N w w B B n n n n m m m F m n n ",
"! J J q J S S S w m m m 4 $ b H w w F F w & E E N J J B 0 0 B L 0 9 G G N P P m P ! ! D n m N N Q G w N N H n n n N D m m C m n ",
"q q J J K e % w q 3 J F & b H H H q q F F N E N N K J J B 0 C 0 0 G N M N m P P P n F F F N N H Q B w w A H n n H N F C w n C B ",
"e . q J q % w D S F F m 3 b F n H F q w q N & 1 N B 0 B 0 A P q 0 N 9 G N & m P M n n n n N N N m b 0 w D G e % & w N N w n V C ",
"E ^ & A C + K K J E E . q A A C A N N e 3 P P A P P B V w M W D G I 0 A S 9 N 4 9 m H H m H H B w S S C 2 E 7 .   & b b C V n m ",
"E ^ ^ % V e w q + q o   q A q A $ q e 3 N P L 7 9 B L 0 0 M M M M C 0 C C H N 9 N m 3 H H H H H B C S 2   . P W P e e 3 C V V V ",
"E & V & V K K + w E e . q q 9 q $ 3 w w N N N 7 9 0 A 0 B W ~ D M C C 0 0 M H H H G 3 3 H w w H B F 2 S S . 7 P P 3 A A A V H H ",
"m C C ~ V q q + + E I q E A $ $ q N N N w 9 A V P C q 0 C G D W W S I C q 9 9 N 7 e H m N V w H H C C 3 S P 7 P P b A A A n V H ",
"O F F 8 . + q D S % $ e w C 9 A B H A H H P N A L n n n I K m n K n n n m e e $ % 8 V B & n n H H m m G 3 S S % w J J e J H n n ",
"O     . 3 S F S S w S S e 0 A L V V H H V 9 N P P I E E n K K % $ n % m P H H H H A 8 2 B n n n m m G G 3 $ S S w e + w J G H H ",
"J 2 8 F G S 4 S q S S S F B 0 0 0 V V C V 9 V A 9 n n n # K K % $ $ e E P H e e e B 2 W W n H H n m G m 3 S S S D w e w w n G 1 ",
"J F F F F S F S 9 w w q e A B B w n n V H A V B A #   # n n n n m M L e $ n n e $ B A 3 8 & n H H G G m m w S S q J J J e H n M ",
"J V I V V G Q m m S S S S 4 B J N n n 8 & m m m E P m E m o o n e w B B q m H H H D D $ q 7 9 m M n 3 D n 2 F F F P S b A P N N ",
"N V I I 9 m F F m 8 8 9 S N 9 9 N m n C n m m m $ N P P P n e ! n 0 w 0 V m m n m D w $ e 9 9 % 9 m 8 3 n 1 & F F n b L S N P N ",
"B V I V 9 m F Q Q 8 S ~ S 9 J N B n C F n m m I m % & & P ! n e Q 0 w B N m 1 m H q w w D M m 9 9 & D D D %   2 F P L S P P N P ",
"B B I A A Q Q G Q C ~ ~ ~ B J J J n n n D I $ m n & m m m ! Q Q Q V B H b m M m H D D D q 9 M % 9 3 n n n . . F F A S n S L 3 N ",
"H G 7 G G P K P P S A A 3 m 4 G G 4 4 4 E 7 . J J w w w w 8 F m 8 V B B B B B B B 8 7 F 9 9 H H   3 N & 3 & N E B b e J J e W e "
};
