/* XPM */
static char *result[] = {
/* columns rows colors chars-per-pixel */
"64 64 191 2 ",
"   c black",
".  c #001B01",
"X  c #290A00",
"o  c #291008",
"O  c #311108",
"+  c #3A1408",
"@  c #002401",
"#  c #022C01",
"$  c #043402",
"%  c #063A01",
"&  c #0A3E01",
"*  c #09380B",
"=  c #263801",
"-  c #4B1A03",
";  c #421408",
":  c #421908",
">  c #421910",
",  c #552203",
"<  c #463702",
"1  c #493003",
"2  c #4A2110",
"3  c #522310",
"4  c #562610",
"5  c #522419",
"6  c #562B19",
"7  c #5A2C19",
"8  c #5A3119",
"9  c #662402",
"0  c #78340E",
"q  c #632D19",
"w  c #633219",
"e  c #7B3611",
"r  c #633521",
"t  c #673C23",
"y  c #6B3C22",
"u  c #6B3B26",
"i  c #733F24",
"p  c #0C4000",
"a  c #114400",
"s  c #194201",
"d  c #154B01",
"f  c #194E02",
"g  c #1B5001",
"h  c #1F5709",
"j  c #304B0B",
"k  c #225502",
"l  c #255C05",
"z  c #255C08",
"x  c #335B01",
"c  c #235E10",
"v  c #296107",
"b  c #27610D",
"n  c #2B640A",
"m  c #2C660B",
"M  c #346403",
"N  c #2A6512",
"B  c #2D6915",
"V  c #326D15",
"C  c #367214",
"Z  c #387516",
"A  c #37761A",
"S  c #3E7D1B",
"D  c #3D4E24",
"F  c #3D7D21",
"G  c #414B0C",
"H  c #477706",
"J  c #407F1C",
"K  c #6A6D19",
"L  c #74721C",
"P  c #505D23",
"I  c #6F4329",
"U  c #6F492D",
"Y  c #734121",
"T  c #734329",
"R  c #7B4529",
"E  c #774A2D",
"W  c #7B4A2A",
"Q  c #7C4D31",
"!  c #7F5131",
"~  c #456936",
"^  c #747B29",
"/  c #52734C",
"(  c #852A09",
")  c #9B2405",
"_  c #843104",
"`  c #863708",
"'  c #9B3505",
"]  c #A63203",
"[  c #B4310C",
"{  c #D82E1A",
"}  c #EA3620",
"|  c #944C0B",
" . c #964112",
".. c #9A4314",
"X. c #9F4718",
"o. c #A54309",
"O. c #8A6B0E",
"+. c #804C2D",
"@. c #905A26",
"#. c #834E31",
"$. c #845231",
"%. c #895533",
"&. c #8C5935",
"*. c #8C573A",
"=. c #8C593A",
"-. c #925D3B",
";. c #AC5323",
":. c #B05525",
">. c #B65A29",
",. c #97632E",
"<. c #926834",
"1. c #94613D",
"2. c #98623E",
"3. c #BB6231",
"4. c #A2703C",
"5. c #C74E21",
"6. c #C85325",
"7. c #C56735",
"8. c #C66836",
"9. c #946142",
"0. c #9A6642",
"q. c #9C6A43",
"w. c #A26D44",
"e. c #A56D4A",
"r. c #A57D46",
"t. c #A5724A",
"y. c #AC754B",
"u. c #AD794A",
"i. c #AD7552",
"p. c #AD7B52",
"a. c #B57D52",
"s. c #C67A46",
"d. c #D67543",
"f. c #DB7946",
"g. c #578403",
"h. c #41801E",
"j. c #518615",
"k. c #59911E",
"l. c #699404",
"z. c #709E06",
"x. c #679914",
"c. c #7BA406",
"v. c #72A91C",
"b. c #448421",
"n. c #478824",
"m. c #4A8B26",
"M. c #458828",
"N. c #4C8D28",
"B. c #4E912B",
"V. c #5B9421",
"C. c #50932C",
"Z. c #559931",
"A. c #599F34",
"S. c #5CA236",
"D. c #5FA539",
"F. c #61A93C",
"G. c #5E864D",
"H. c #6EA156",
"J. c #8D9711",
"K. c #82AE06",
"L. c #88AB0B",
"P. c #86B207",
"I. c #92BF0A",
"U. c #90B117",
"Y. c #90A02C",
"T. c #94C10A",
"R. c #8EC216",
"E. c #A08E57",
"W. c #B58252",
"Q. c #BB8953",
"!. c #B5835A",
"~. c #BD865A",
"^. c #BD8B5A",
"/. c #BD8D63",
"(. c #81B66C",
"). c #B3A363",
"_. c #D58551",
"`. c #C59463",
"'. c #C99B64",
"]. c #CE9C6B",
"[. c #DA9862",
"{. c #C7A268",
"}. c #CDA46B",
"|. c #DCA26A",
" X c #D5A973",
".X c #D7B076",
"XX c #D9B277",
"oX c #9EAD99",
"OX c #E4BF83",
"+X c #BFC5CA",
"@X c #CCD7CF",
/* pixels */
"w.y.2.$.y.t.e.$.t.^.q.W W Y &.&.&.%.%.&.9.e.e.e.e.I O y w.&.r r &.#.7 #.#.e.#.7 7 t w : t O r -.w i i i i #.>   Q 7 W 7 8 r p.p.",
"=.2.y.2.2.1.1.1.1.0.q.q.q.w &.u.y.9.%.T %.e.e.t o u w.w.w.r r y.%.#.#.#.$.e.e.7 7 t =.y =.r O -.r 3 3 -.i > > > > 7 E 7 Q =.=.=.",
"=.u.y.y.$.2.t.2.$.W W q.q.y.&.&.&.%.&.W 9.e.e.t y w.4.w.w.y.%.%.y.$.y.#.$.e.e.#.e.=.=.w =.t r r -.3 3 -.i > W.`.> #.W Q q.=.r r ",
"t./.1.y.1.i.].i.p.w.*.q.W.a.T T I &.&.$.t.^.^.T 0.!.!.=.!.0.#.#.W.T 0.0.T p.T p.p.W.I y y > 2 T i 7 7 %.%.=.- =.> : W : E 6 $.$.",
"t.1.t.1.1.^.p.p.p.t.=.=.w.a.9.-.T &.&.t t.Y q.2.0.!.=.=.=.#.0.#.0.~.0.0.T T T !.E t =.-.-.T 2 T T 7 7 8 i.> > =.u W.a.Q Q 7 %.p.",
"%.1.1.1.1.p.].^.p.q.t.=.w.a.a.9.T $.&.t y U U ^.^.!.q !.!.q.W.0.$.2.U 0.T T I OXp.t W.y y w.T 0.E 7 p.8 8 2 =.=.2 W a.W E p.$.$.",
"t./.1.y.y.p.].].].W.W.q.e.a.-.i T &.&.$.t.^.^.^.^.=.!.!.*.W.W.0.0.0.2.T T T T T T Y w -.=.q.0.T T $.p.$.8 u =.*.u : E E Q $.7 7 ",
"W.y./.-.t.t.'.].t.t.t.t.y.~.0.W E $.$.$.%.W E t.E -.`.`.-.i.p.2.1.W 1.1.E ! ! ! p.y.: t.t.#.#.6 6 y.t.$.i.e.e.e.e.y y u u 7 #.Q ",
"0.=././.i.Q E Q t.1.#.1.t.0.W W 0.w $.q.I t.Q 4 e.-.`.9.7 W W 2.1.1.1.W r 3 p.p.W.t.I t.R #.#.6 6 t.y.q $.e.> > e.2.I t 1.r.t.7 ",
"0.p.1././.Q Q Q t.1.#.#.9.W 0.~.~.%.$.w.w t.t.E E   6 =.-.W R W 1.W 1.1.2.! ! ! ! t.I t.e.6 #.#.6 w w w $.E #.E e.1.w I 1.$.#.Q ",
"!./.t.=.t.t.Q Q E $.9.9.1.W 0.~.2.Y q.q.$.u.Q W t.9.=.9.-.W W W W -.W r W 4 3 $.3 T T T i 5 #.#.X $.q %.$.> E T e.2.^.1.y 7 t.! ",
"~.!.1.1.9.t.$.$.t.q.W q.q.R q.R R u.u.$.$.$.$.W.q.q.$.y #.%.7 &.a.9.R -.2.w +.i W #.#.#.q *.*.7 7 +.+.+.#.u.#.5   ; 0.q.u 1.!.!.",
"1.1.!.!.1.t.$.$.$.0.W /.q.&.q.q.q.u.u.y.7 0.a.0.#.$.$.$.+.a.8 8 8 W W R R W -.-.-.$.t.q q *.7 7 *.+.+.e.e.#.Q 5 5 ; ; Y q.1.Y 1.",
"y y =.!.-.#.`.t.t./.0.W W &.%.q.q.$.u.u.u.$.$.0.q.#.+.q.q.a.8 8 7 R 9.-.9.+.-.-.-.t.t.#.#.*.*.*.~.+.4 e.Q #.y.Q #.q.u q.q.2.Y !.",
"1.t I =.y %.t.`.`./.W W 0.q.&.R &.$.$.%.7 $.$.0.q.q.q.q.0.%.a.a.%.p.2.p.i.W -.-.-.t.e.+.t.*.~.*.~.+.+.e.Q y.u.Q Q q.q.u Y Y Y 1.",
"p.0.T T T w u u y $.$.q.q.&.&.&.t.q.W $.w 5 i T T %.&.%.-.w.@.%.%.p.W $.#.w w $.%.+.q.+.w.e.e.*.e.3 3 4 %.q.!.!.e.q.%.q.q.2.w i ",
"W.9.I I T w q.0.q.$.! q.q.&.&.t.t.q.+.+.0.i -.-.-.W Q W &.%.%.%.%.#.Q 3 #.w q $.#.w.0.w W e.=.T e.a.$.3 3 =.=.>.3.;.q.$.$.=.p.1.",
"Y I q.q.0.$.$.0.0.w ! r ! t.t.&.&.0.0.q.0.-.-.-.-.1.2.1.-.q.&.i.&.Q p.#.Q $.w w $.+.0.0.! T t.=.T $.$.$.a.!.!.:... .$.$.#.-.p.p.",
"-.0.^.^.0.#.0.#.$.! 4.! r Y &.t.&.+.+.W +.-.i R -.%.-.,.1.w.q.q.i.p.Q 3 3 w e.$.w w W q.+.=.=.=.T +.#.$.$.e.q.;.:._ , #.$.=.W.p.",
"p.q.=.w.a.!.~.-.-.^.! %.$.y $.$.0.0.i.0.%.W W R %.%.W W W +.-.#.+.-.y -.=.w.~.w.$.w.=.=.w.$.$.$.$.-.t.t.=.W W W >._ 0 0.0.i.1.1.",
"2.a.a.=.q.t.-.e.-.w.$.$.$.#.#.#.0.0.$.$.0.%.#.W R -.-.#.R #.#.#.2.y y =.-.w.#.$.$.=.=.q.W.0.0.$.0.t.e.t.-.2.p.i.8._ 9 Q 9.i.1.-.",
"W w.a.a.a.t.-.e.t.$.$.$.%.0.w.+.0.0.$.$.0.-.-.%.+.-.-.@.W #.2.2.t.-.=.-.y #.$.q.w.*.q.e.q.0.0.0.p.R R =.=.-.2.2.f._ 9 2.0 ..W 9.",
"-.=.a.a.w.e.!.e.-.$.$.$.$.$.+.%.+.0.p.i.$.W R %.%.#.%.W W +.+.#.1.1.W.W.-.q.#.$.$.a.W.t.&.$.p.a.p.-.t.-.-.X.- W :.....;  .>.-.-.",
"p.0.9.0.p.2.`.0.R -.-.$.$.W &.R &.2.2.y.$.R ,.%.%.-.$.#.$.$.R W W W W y &.t.t.e.W q.0.#.q.0.0.R q.#.p.p.7.....- :.:._ 0 ` 7.t.t.",
"0.0.#.0.p.^.^.q.R -.+.-.w.q.&.&.q.y.y.y.$.W ,.W -.0.-.*.$.=.=.W $.W w Y W -.t.-.-.+.w.2.a.`.q.q.~.#.#.$.#.7._ ..e 7._ ..:.$.$.9.",
"9.0.0.Q +.0.^.q.R -.=.-.-.2.&.&.&.#.y.y.$.W %.W W -.-.-.$.=.*.W &.W W R y R =.-.*.w.2.a.a.2.R q.0.i. X Xp.t.8._ ' f._ _ d.t.9.g ",
"! 0.p.0.0.0.W W q.2.-.-.-.2.w.,.q.%.%.$.$.%.%.W W #.+.q.$.=.=.$.$.%.%.@.%.e.t.-.R +.q.a.#.R R W W #.i.i.#.i ;.8.` .._ _ :.t.$.m ",
"q.=.=.^.^.t.*.=.t.t.t.-.e.-.-.-.!.u.2.+.$.&.-.-.-.-.+.-.$.&.&.$.+.%.+.$.%.&.0.&.&.R &.q.R *.Q *.Q Q Q Q a.=.p.7.X._ _ ..Q $.g m ",
"p.t.=.t.~.t.t.t.=.t.t.-.e.-.-.-.e.u.2.2.2.-.-.-.=.q.-.$.$.-.1.$.+.%.$.$.%.&.&.&.2.&.&.&.q.q.Q =.0.0.a.Q Q p.p.p.f..._ ..Q y m f ",
"e.t.t.t.=.=.=.t.^.!.-.-.-.-.-.w.-.+.%.2.y.W.-.i y +.#.-.-.&.$.$.%.@.-.-.R R 2.R w.2.W W q.*.Q *.=.0.9.Q Q p.y i.=.f._ _ Q y J p ",
"p.t.t.e.=.t.=.=.t.!.-.e.-.-.y.-.-.2.#.u.u.W.-.w y $.q.+.$.&.$.$.#.R W W $.0.&.W W &.&.&.W 0.0.Q Q 0.0.0.a.p.a.=.=.:..._ e m m g ",
"2.1.9.a.a.0.$.$.$.%.t.t.y.-.-.-.-.#.#.-.t.y.-.y.R -.-.-.q.-.W %.W -.%.W %.2.2.2.W R &.q.&.-.$.W $.=.q.q.=.t.!.-.1...:._ 9 J m g ",
"y.-.T T -.$.y $.0.*.%.t.t.t.`.t.t.2.#.#.t.y.y.y.1.-.#.#.=.Q Q %.Q -.%.%.&.1.u.i.1.q.q.&.&.$.%.%.%.&.2.w.q.-.-.w.-.#.8._ ..G g & ",
"y.a.9.T a.0.y 0.0.t.%.t.t.~.~.t.y.t.t.-.-.y.-.W 1.q.-.=.#.Q -.=.Q W %.-.%.W p.2.2.w.2.w.W W %.-.$.-.2.-.q.t.-.-.-.w.f.` _ G p p ",
"#.-.W.-.a.%.u q.0.e.%.y %.t.^.^.-.-.t.t.t.y.-.1.-.#.-.#.#.Q %.*.Q W %.-.-.p.2.W 1.2.w.2.W %.,.%.%.#.#.#.q.t.-.-.!.a.:.' _ e g $ ",
"u.y.3 E t.$.$.$.$.-.u.w.-.1.9.$.e.e.9.-.e.u.0.9.0.T T *.*.T %.%.%.%.$.$.$.-.-.-.-.2.2.2.u.-.-.-.-.$.$.0.$.g %.%.4.w.:.:.9 # & f ",
"u.y.E E t.q.q.$.#.-.-.a.!.t.$.$.0.e.e.e.e.0.p.p.0.T *.*.i T q.0.%.&.%.9.$.-.-.-.-.%.+.2.2.T #.-.-.2.0.#.0.%.& w.u Y 1 s f p n p ",
"%.E t.u.t.q.$.q.$.w.w.-.q.t.t.-.#.-.e.e.1.$.0.p.9.T e.e.i *.*.%.=.! <.t.u.-.-.%.%.2.2.%.%.#.-.W -.a.p.u.p.w.$ g # w.m g g f m h ",
"6 W E Q t.%.q.!.q.-.q.-.q.t.! i.e.9.#.2.$.$.0.$.$.e.e.e.*.i i q.%.! t.t.2.R R %.%.+.%.+.$.-.#.#.-.$.0.$.$.w.%.g p & F.f p g f Z ",
"t $.I $.q.9.W p.i.W.-.-.!.q.q.q.q.$.$.`.t.=.t.0.t.i.I.-.9.2.2.0.$.I T 0.Y W W ,.R %.R %.%.+.-.-.0.R R W W # # p f $ F.h p p g m ",
"1.2.4.$.q.p.W W 2.W.W.=.-.q.].q.q.`.$.#.$.=.0.t.0.W c.2.W 2.y.-.2.T T i T R W W W R R R -.#.#.w.=.W &.m Z Z Z v p p F.A f f g g ",
"y y $.y q.1.W 1.p.y y W.y q.}.q.].'.$.%.t.t.0.=.=.9.c.W W 2.y.y.#.I T T T R -.-.W R R %.-.-.#.-.$.E g m Z.Z.b.k v p F.S p g g $ ",
"1.$.y $.$.2.1.1.2.=.=.W.y y q.].q.t.t.t.t.=.=.=.y.1.c.9.p.$ @ u.#.T . ^.q.y.. 2.-.-.%.$.%.+.#.#.+.W Z v v C F.D.A B F.S f g d g ",
"!.t.t.t.#.$.0.$.$.W.W.W.W.e.#.t.t.t.=.t.=.$.$.q.a.9.c.H $ # # @ . * # @ @ $ # . T . @ +.W *.*.E W %.=.D.D.m.k C C.p F.z g g g g ",
"-.9.t.t.#.$.$.$.$.E   o o 7 7 #.e.t.*.T =.W.q.$.. 9.x K.. $ a p a & a a & a a # . . # . -.=.=.=.=.W %.%.%.A D.C g f l p g g g g ",
"!.#.-.e.t.0.W.W.W.U U U W.t.! 7 8 T *.*.=.$ . * # . x I.g g g g $ a g f g g g g g g a a . @ @ E =.9.W S S A k Z.N g p l h.g d a ",
"2.#.9.#.+.$.W.$.$.U W.W.W.t.t.t.e.t.T # @ . * . a g k T.g p % f g $ d $ g g g & a f f f f a . . r W Z.B.B.n Z.F.V f f N F.D.v d ",
"W y.u.W > 7 0.q.7 y %.%.w.7 7 Q t.e.$ @ # . a f g g g c.H d g g a $ d f g g f & d & k f g g g a . a # =.v Z.Z.F.p f g d d n.D.v ",
"^.u.y.E y.q.q.q.W %.%.%.w 7 #.e.& @ $ @ & g g g a p p M P.f g g f f g g g f d d f d g d p g p % d # @ -.=.t.m Z.p g g g , ) m.D.",
"E E y.y.u.E 7 W R y w.4.i #.# @ & # # d a a g f g a a k T.p d g v B.B.B.B.C f g g g g p & a g d a g # E -.t.$.f & n.v g = { [ m.",
"E > E y.E 8 E 0.q.w.w.%.u d $ $ @ # g g g a a % g g f g g.v.Z.F.S S D.F.S.n D.D.m.h.g d d g g p & a f $ . e.%.w & F.N.k h ( } < ",
"W.`.w 2.2.2 y.u.y.a.W.; z d $ # # g g g d p p a d g v C.S.T.m.D.D.D.D.S.B.D.Z.b g z m.B.v g f d $ p g s @ @ $ N p F.F.V h d 1 = ",
"W.`.`.w 1.Q ! W 2 E + v k p * # g g g g g p d g l h.N.F.Z.x.I.D.B.B.m.D.D.D.M.~ G.z Z h.m.m g g g $ b b % d h g d F D.H.b.d p f ",
"W.w 1.w 1.u.r.2 ! W.v m g $ @ g g g g g f d g v C.C.F.F.F.L O.J._._.s.] | X.G.+X/ p C g b.F b.g f J v a g f d a g d F.D.F.n.g a ",
"%.2.1.`.1.W E 2 2 v C g g @ $ g p d % f g g v S.F.F.L | 6.3.<.Y.U.'.,.<.OX|.f.) < p g p D.D.c b v g d a d g l n.S.C.V b.F.k g g ",
"> w.w.I o 2 E 0.0.J k f a @ a a d % p g g v m D.L ] _..X}.4.}.OXJ.L. XOXOXP P N d h.S.S % d g g g d d f l B.A.b c c d A F.l a g ",
":     O u 0.w.0.m C a p # $ g g p p g g g B.C.K ] 4.OXOX.X@.u.8 7 l.U.& & A b.z g B.F.F.g g g A J S.H.D.F.M.d d g % @ & D.F d g ",
"u.u u 4.w.0.i q.h.k & d @ @ g g g g g g Z F.K 5.,.E.OX.X,.u.u.8 7 p g.I.U.F.B.D.h.g Z m g h C.c A B n N d d f f f % @ $ F.B.a p ",
"u.w.w.w.w.2.2.m J g g g . $ g $ g g g g S.^ 5..Xu.{.{.5 $.$.$.$.p b.A.m c.I.R.v.F.N.l g g p H U.T.T.T.T.K.g.& * $ $ $ p F F.k p ",
"y.9.a.2.2.w.~.J m d g g # $ p d a d g C D.] OXOXr.W.&.p.=.: : ! H.(.n.-.E %.t.c.K.T.T.T.T.K.c.v.V.V.V.H H c.T.H % d g f V F.Z g ",
"-.2.a.a.T %.C J k a & a $ & g g $ p g M.^ ' '.Q.7 %.p.p.p.! ! ~.@XoXb W =.%.%.%.l k.j.j.k.f _.o.F.F.F.C.f . f l.z.g d g d F.F g ",
"-.-.a.1.T &.n C & a $ $ # $ f p d a g D.' Q.<.a.%.w w w u.~.$.! @XW W =.1.%.u $ M.S f n.F.G.@.` | F.n.n.C $ f f g.z.$ p p F.B.d ",
"=.9.a.1.9.~.J Z f d g $ @ a g g f g z Z.8. X7 %.$.w &.&.%.~.~.~.~.-.-.y.R %.#.d A.0.q.x F.C r.OX[.o.F.$ $ f g g % P.x d p F.B.d ",
"t.e.u e.e.i.S J g f f $ . $ g g d g m O.OXXXO y.y.W W W W Y t.&.Y 1.-.9.2.-.-.M.h I T 4.h.J ).OXE.D @ % g g f g g k P.M j F.M.g "
};
