/* XPM */
static char *result[] = {
/* columns rows colors chars-per-pixel */
"64 64 213 2 ",
"   c black",
".  c #001A01",
"X  c #1E1901",
"o  c #291001",
"O  c #311008",
"+  c #002301",
"@  c #022C02",
"#  c #043402",
"$  c #063606",
"%  c #073A00",
"&  c #0A3D00",
"*  c #163800",
"=  c #0E3E12",
"-  c #212300",
";  c #2A3501",
":  c #323401",
">  c #393302",
",  c #353311",
"<  c #560C00",
"1  c #421608",
"2  c #541600",
"3  c #421810",
"4  c #650300",
"5  c #680700",
"6  c #751904",
"7  c #472100",
"8  c #412900",
"9  c #573100",
"0  c #4A2010",
"q  c #522310",
"w  c #532516",
"e  c #542A19",
"r  c #5A2B19",
"t  c #5A3119",
"y  c #642705",
"u  c #742207",
"i  c #792B0C",
"p  c #633807",
"a  c #653908",
"s  c #75340D",
"d  c #632D19",
"f  c #633219",
"g  c #7B3611",
"h  c #7B3711",
"j  c #633521",
"k  c #673A22",
"l  c #6B3C22",
"z  c #6B3925",
"x  c #733F24",
"c  c #0C4000",
"v  c #114500",
"b  c #154B01",
"n  c #1A4D01",
"m  c #184A09",
"M  c #1B5001",
"N  c #1F5709",
"B  c #214C01",
"V  c #284E0A",
"C  c #225502",
"Z  c #245B05",
"A  c #275A0A",
"S  c #34550F",
"D  c #296107",
"F  c #2B650B",
"G  c #2C660C",
"H  c #346809",
"J  c #296311",
"K  c #336D11",
"L  c #316D19",
"P  c #357113",
"I  c #397616",
"U  c #37771B",
"Y  c #3E7C1B",
"T  c #3E6E23",
"R  c #3D7D21",
"E  c #4F4D0D",
"W  c #55420A",
"Q  c #4B560D",
"!  c #445617",
"~  c #6C4A0A",
"^  c #774614",
"/  c #794715",
"(  c #7C4C1A",
")  c #79531B",
"_  c #487904",
"`  c #476E17",
"'  c #716A0C",
"]  c #6F4329",
"[  c #734121",
"{  c #734329",
"}  c #7B4529",
"|  c #7B4A2A",
" . c #7C4D31",
".. c #7F5131",
"X. c #5E6524",
"o. c #6B6F28",
"O. c #76783E",
"+. c #537543",
"@. c #911000",
"#. c #A51802",
"$. c #BC1F00",
"%. c #892607",
"&. c #843104",
"*. c #8E330C",
"=. c #8D390C",
"-. c #A83509",
";. c #D82F1A",
":. c #EA3620",
">. c #87441B",
",. c #844D1B",
"<. c #9A4314",
"1. c #85511F",
"2. c #8B6B1A",
"3. c #8B4720",
"4. c #804C2D",
"5. c #914922",
"6. c #8C5522",
"7. c #885B26",
"8. c #945F2B",
"9. c #834E31",
"0. c #845231",
"q. c #895533",
"w. c #8C5935",
"e. c #8C573A",
"r. c #8C593A",
"t. c #925D3B",
"y. c #B05525",
"u. c #B45828",
"i. c #896C30",
"p. c #9A6632",
"a. c #996935",
"s. c #94613D",
"d. c #98623E",
"f. c #A5633F",
"g. c #A3713D",
"h. c #C36634",
"j. c #C66836",
"k. c #946142",
"l. c #9B6642",
"z. c #9C6943",
"x. c #947942",
"c. c #A26D44",
"v. c #A46D4A",
"b. c #A87A44",
"n. c #A5724A",
"m. c #AC754B",
"M. c #AD7A4A",
"N. c #AD7552",
"B. c #AD7A52",
"V. c #B57D52",
"C. c #DB7945",
"Z. c #5A860E",
"A. c #77850B",
"S. c #67980A",
"D. c #729B04",
"F. c #7AA305",
"G. c #73A81A",
"H. c #478824",
"J. c #488924",
"K. c #548929",
"L. c #4E902A",
"P. c #51942D",
"I. c #559A31",
"U. c #5A9D34",
"Y. c #669535",
"T. c #5CA136",
"R. c #5FA639",
"E. c #69A82B",
"W. c #61A93C",
"Q. c #678F56",
"!. c #899B15",
"~. c #82AD06",
"^. c #8CA30D",
"/. c #87B408",
"(. c #92BC0B",
"). c #91882E",
"_. c #A1AB32",
"`. c #97C40A",
"'. c #95C31D",
"]. c #ABC727",
"[. c #968648",
"{. c #AB824C",
"}. c #B1834D",
"|. c #B58252",
" X c #BD8652",
".X c #B88B54",
"XX c #B5835A",
"oX c #BD865A",
"OX c #BD8B5B",
"+X c #BD935B",
"@X c #B3A450",
"#X c #BD8D63",
"$X c #88A07F",
"%X c #C0945D",
"&X c #C2B75C",
"*X c #C79663",
"=X c #C59A62",
"-X c #CE9B6B",
";X c #CEA56B",
":X c #C3AC6A",
">X c #CFAE6E",
",X c #D6AB73",
"<X c #DAB379",
"1X c #859D83",
"2X c #8FAB88",
"3X c #B0BAAF",
"4X c #DABA8B",
"5X c #E6B684",
"6X c #E4BF83",
"7X c #B2C1B4",
"8X c #B8BEC0",
"9X c #C8CDD2",
"0X c #DBDEE1",
/* pixels */
"c.m.d.0.n.n.n.9.n.OXz.| | l w.w.w.q.q.q.k.c.v.v.v.] O z c.q.f j q.9.r 9.9.v.9.r r k k 1 f O j t.j x x x x  .3   9.r  .e t t |.B.",
"r.d.m.d.d.d.d.d.s.d.z.z.z.l w.m.m.k.r.| r.v.n.k o z c.c.c.j k m.w.9.9.9.0.v.v.r r k r.k r.k O t.j q q t.x 3 3 3 3 r  .r | r.r.r.",
"r.m.m.m.0.s.n.d.0.| | z.d.m.w.w.w.q.q.| k.v.n.k z c.n.g.c.M.0.e.m.9.m.9.0.n.v.9.n.r.r.k r.k j j t.w q t.{ 3  X X3 |  ...z.r.j j ",
"n.#Xs.m.s.N.-XB.B.c.r.z. XV.{ { ] q.r.w.c.OXOX] l.XXXXr.XXl.9.9.|.{ l.l.{ B.{ B.B.V.k [ k 0 0 { { r r 9.q.t.3 r.0 1 | 1  .r ....",
"n.s.n.s.s.OXB.N.B.c.r.r.c.V.d.t.{ q.q.f n.{ l.l.l.XXe.r.r.9.l.9.z.OXk.l.{ { { XX] [ t.r.t.{ 0 { { r r t B.0 0 r.l V.V.|  .e 0.B.",
"w.s.s.s.s.B.-XOXB.c.c.r.z.|.V.k.] w.q.] [ { ] OXOXXXf XXXXl.|.z.0.d.{ l.{ { { 5XB.k |.k l z.{ z.{ r B.t r 0 r.r.0  .V. .{ |.q.q.",
"n.#Xs.M.M.B.-X-X-X|.|.c.v.V.t.{ ] w.q.q.n..XOXOXOXr.XXXXr.|.|.l.z.l.s.{ | ] ] ] { [ k t.t.z.l.{ | 0.B.0.r l r.r.z 1 | |  .e.e e ",
"|.n.#Xt.m.n.*X-Xn.n.n.n.n.oXl.| | 0...0.0. ...n.| r.*X*Xt.B.N.k.s.| s.s. .....0.B.n.1 n.n.9.9.e e n.n.q.n.n.v.v.v.] k k k r  .9.",
"z.s.#X#Xn. . . .n.k.9.s.n.z.| | d.l 0.z.f m.| q n.t.*Xr.r | | d.s.d.s.| f q B.|.B.n.] n.{ 9.9.r e n.n.f 0.v.0 3 v.s.[ f l.n.b.r ",
"l.n.s.#X#X . . .n.s.9.0.s.| l.oX%X0.0.z.k m.n... .  r k.r.| | | s.{ s.s.s.0.......n.{ n.v.r 9.9.r f f f 0.}  .{ v.s.k k s.......",
"|.#Xn.s.N.n. . . ...k.k.d.| l.oXl.l z.z.0.n.| | n.r.s.t.t.| | | } s.| j | 0 q 9.q { { { x r 9.9.o 0.f 0.0.0 }  .v.d.OXs.k r n...",
"oXXXk.r.k.n.0.0.n.z.| z.z.} z.} } M.M.0.0.0.0.|.l.z.0.f 9.e.t q.V.k.} t.s.[ 4.x | 9.9.9.d e.e.w r | 4.9.| N. .w   1 z.z.x k.XXXX",
"s.s.XXXXr.n.0.0.0.z.| #Xz.e.d.z.z.M.M.m.r l.V.l.0.0.0.0.0.V.t t t } } } } | t.t.d.9.n.d d e.w d e.4.4.v.v. .9.w w 1 3 z z.s.[ k.",
"k k k.XXk.0.*Xn.n.#Xz.| | e.w.z.z.0.M.M.M.0.0.z.l.0.0.z.z.V.t t t } d.t.k.4.t.t.t.n.n.0.9.e.e.e.oX4.w v.9. .m. . .z.x z.z.d.[ XX",
"s.k k t.l 0.n.*X*X#X| | z.z.w.} w.0.0.0.r 0.9.l.z.z.z.z.l.q.V.V.q.B.d.B.B.| t.t.t.n.n.9.n.e.%Xe.%X4.4.v. .m.m. .9.l.z.] z ^ [ s.",
"B.l.{ { x k k z k y y z.z.w.w.w.n.z.4.4.f e { { [ 0.e.e.t.f.q.8.q.B... .9.f f 0.0.4.l.4.l.v.v.e.v.q q q 0.v.V.#Xz.z.0.z.z.r.x x ",
"{.l.] { { k l.l.g &.j.- z.w.. v.n.l.4.4.l.{ t.t.t.|  .| w.q.q.q.e. ...2 9.f f 0.0.l.l.f | v.r.{ v.V.9.q q e.r.r.r.XXz.0.0.r.|.r.",
"[ { l.l.l.9.9.l.s &.y.X . @ + . . . l.l.l.t.t.t.t.t.d.s.s.z.q.B.q...XX . .9.f f 0.4.l.z.9.{ v.r.x 9.0.0.V.XXXXr.r.XX0.0.0.r.|.B.",
"r.l.+XOXl.9.$ X <.&.u.: K Y Z v @ . ..| 4.t.} x t.e.s.t.s.l.z.l.M.B.9.q q f n.0.f f ..d.4.r.r.r.{ 9.0.0.0.v.z.r.XXXXz.0.0.r.B.B.",
"B.v.r.z.V.$ + X <.&.j.: M M I I ` P # l.0.| | } 6.q.| 4.| 4.d.9.0.r.k t.r.v.oXz.0.c.r.r.c.0.0.0.q.t.v.m.t.| | | k. .V.l.l.N.s.k.",
"k.V.V.r.@ $ % : <.&.C.- n c # n M Y ` & l.q.q.} | t.t.0.| 9.9.9.d.l l t.t.c.9.9.0.r.r.c.|.z.l...d.n.n.v.t.s.B.B.} l.k. .l.N.s.t.",
"| v.V.@ . % n > &.<.5.v M n c n c M G Y & t.t.q.} t.8.q.| 9.t.d.n.r.r.t.l 9.0.c.c.r.v.c.c.l.l.l.B.} } r.r.d.s.t.N.V.k.l.k.| | k.",
"t.r.& $ - > & g &.<.5.n n n c c M c & F Y | } q.q.q.q.| | 9.9.9.d.t.|.|.t.c.0.0.0.|.|.z.r.0.B.B.B.t.n.t.t.| | | B.l.l.V.V.k.t.d.",
"B.G % , y.u & g i y.3.=.y.- c n M b # n G G d.6.q.t.4.0.9.0.} | | | | l q.n.n.n.} l.l.9.l.l.z.} z.9.B.B.4.v.v.{ { | | c.c.t.n.n.",
"G M % . h.&.: y &.j.&.&.h.- c M M M # # M Y s.| s.z.r.s.9.r.r.| 9.| l l | t.v.t.t.4.c.d.V.%Xc.l.#X9.9.9.9.-X-Xz.v.e e e  .0.0.s.",
"G $ @ % 3.<.g <.&.h.<.j.: c c M M M n n M G G | | w.t.w.0.r.r.| w.| | | l } t.t.e.c.d.V.N.f.| l.l.N.,X,XB.n.{ { z.c.|  .c.v.t.n.",
"C = @ % ; h.<.<.&.<.<.3.M M M B n B M M # n G | | 9.0.l.0.r.e.0.0.q.w.6.q.n.c.t.} 9.c.|.9.} | | } 9.B.N.9.{ { x {  .c.| c.n.0.k.",
"n = . n n 5.&.&.&.<.C.; M B 4 5 5 4 4 4 M M R t.w.t.0.t.0.w.w.0.0.0.| q.q.w.d.e.q.| q.d.} e. .r. . . . .V.r.B.r.l  .z. . .9.9.l.",
"M + . M c - y.&.&.C.; c 8 4 6.6./ 6.6.6.4 M G N t.l.t.0.0.s.s.0.0.q.q.q.q.q.w.w.l.w.w.w.z.l. .r.l.k.V. . .N.B.B.r. . . . .l l.l.",
"n % % M c : <.&.<.5.M W i / 6.a 6.6.6.6.i 8 K N l 0.0.w.t.w.0.0.9.0.8.t.} | f.} c.d.| | z.r. .r.e.l.k. . .B.l B.r.z.OX . .l l.l.",
"& . $ c c : <.&.u.: 9 i 6.t 1.6.6.6./ ^ 6.4 M G l 0.l.9.9.w.0.0.0.| | | q.l.w.| | w.w.w.} l.l. . .l.l.l.|.B.B.r.r...z.z.9.9.4.z ",
"= . % n M : <.&.j.S 4 / / / 6.6.6.p ^ 6.6.i 8 ` } t.t.t.a.d. .q.4.t.q.| 0.s.s.s.| | w.z.w.s.0.} q.r.l.z.t.n.XXt.t.9.9.9.l.t.4.t.",
"$ + M M M g &.&.j.< i ^ ^ 6.6.1.6.6.6.6.^ 6.8 R d.t.9.9.r. . .q. .t.q.q.w.t.M.V.s.z.z.w.w.0.q.q.9.t.l.l.z.t.t.n.t.9.c.V.V.d.d.s.",
"$ @ M c & g &.&.C.< ^ N.n.6.6.6.6.6.6.6.^ 6.4 Y t.z.t.r.0. .t.r. .| q.t.q.4.N.d.d.z.z.z.| } q.d.6.t.l.t.z.m.t.t.t.f.9.l.l.t.N.B.",
"n . M c c g &.<.5.i 9 l q.p 6.6.6.6.6./ ^ ^ 4 Y s.9.t.9.9. .q.e. .| q.t.t.M.s.| d.z.l.g.| q.s.0.0.9.9.9.d.n.t.t..X|.9.4.9.| B.B.",
"& . M M & # # W 5.6.}.z.t.^ 6.p a a 9 6.6.6.4 F k.{ { e.e.{ 0.e.q.0.0.0.0.s.t.t.t.d.d.d.m.t.8.t.t.0.0.l.q.q.q.w.c.l.l.c.l.q.q.q.",
"M + % & M M M M A * t.B.B.c B 6.6.6.6.6.6.6.4 A l.x e.e.{ x z.z.w...0.k.0.t.t.t.t.9.q.d.d.{ 0.t.t.l.l.4.l.e.f.c.z { z.] l.|.q.r.",
"& = # N G M M U R.c.z.c & & 1.6.6.6.6.6./ 6.4 N l.{ v.v.x e.q.q.w.w.s.n.n.s.t.w.w.d.d.4.0.0.t.{ t.V.B.B.N.g.c.c.c.l.| ] { q.q.t ",
"@ m + Y M c c P.R.& M $ n ; 6.6.6.6.6./ ^ 6.> N 0.v.v.v.e.} x c.q...n.n.p.| } q.q.4.0.0.0.t.0.9.t.0.l.0.0.c.e.g.c.{ 0 { l.f t B.",
"m @ A G c c M R.R.c n M E 1.1.~ a a a a / s 9 # n.N.B.d.t.d.d.d.0.] [ l.{ | | t.| q.} . . 9.t.l.l.} } | } n.} n.| { { e d.n...0.",
"J @ K M n c D H.R.c c c I I ` E 6.6.6.6.6.i H n.l.| B.s.| k.m.t.s.{ { x { | | | + @ @ b b b D.c @ # e.| k.t.} r.n.s.q | e t t ..",
"v M # c M M Y L.R.M Y K N I.P.P.K.6.6.7.6.5 G e.r.s.s.| | d.m.m.0.{ x { . + @ % b M c M v _ F.M c # v & | } t.t.t.s.s.{ s...t t ",
"n # n n n M G W.H.N J.T.P.D [.{.P L.6.^ 6.7 v r.n.k.| s.B.t.d.m.9.{ l.+ & b M M c & M c & /.H M n # M M b % r.. w.s.s.s.s...c...",
"M c M M M M c I.N N I.D P.T.T.K.^ a.a.^ i 8 c l.V.k.{ k.k.V.V.l.. @ % m b n # n M n M M n (.C # M n M M M M n c $ t.} w.r.0...[ ",
"M n M M M M c M M c U R.I Q ) ) 7.,.^ / 6 M z.0.z.k.k.k.k.V.|.k.% n v n M v M n M > 2 2 ' F.n n n M # v M M # M # n.+ t.t.0.0.0.",
"M M M c M D Z c n J R.T.W.E.O.6.1.6.6.1.y * l.l.l.k.k.k.k.. . % M c c n n D H 2 6 / p.;X/.' s * c c n n M % c M M # $ t.r.0.0.0.",
"c M c D I.W.I c M L R.I I P.L.Y.a.6.6.*.9 c V.V.V.{ e k.. $ % M M c & N I 2 u ,./ =X,X@X~.5X* +.3Xc 2 n M n M M & c % @ t.4.0.0.",
"n v Z T.I.D c M M b R.T.Y X.i.D U.8.6.@.v & r.r.j } t.} } & v b M v Z Q u ,.%Xa.^ <X<X'._.V n T 9X$X,.u : M M M n v n + z.t.0.0.",
"M M J.J.&.#.& M I c Y Q ) 6.( ) i.,.*.9 C K P |.r.M.n.+ # M # c n A Q i z.[.2X7Xg.;X@X/.O.n I U.M 4X.X^ 6 : M v v M M & @ z.0.0.",
"F M U.a :.*.v M R.L ) 6.6.6.6.6.( ,.@.M M v P I D v # @ M v b b D Q %.^ 5XV 9XT 6X)./.>Xv I P ! :X,Xb.a.6.u : n c & c n $ 0.z.r.",
"n & n ;.;.; F U W.A .X}.p.6.6.6.6.*.9 n v # c C K I Z # % # c M I %.7.8.+Xc D D Z./.+XO.n T.` *X6X6X7.;X%X6.< M v M M M @ 9.s.z.",
"v n v > v N D R.W.X..X.X.X|.6.6.6.@.n n v n M M v C Z I G D P M ~ >.#X6X>X{.c _ /.S S n I I.n.;X6X6X{.<X6X,.i > M M # M # @ 0.0.",
"n M M b M H.W.W.R x..Xb.{.g.g.6.*.9 Y Y M n b # M M n n M c v P S p.,X6X6X<X)./.Z n & M P J.n.n.<X6X;X6X+X6.1.8 M M b c # $ d.d.",
"& # & M M I.I.R.! .X.Xg.b.}.^ 6.@.C W.W.T.H.R L.T.T.H.I D n M M H P o.6X&X].F.M M H.b v M I.D n.r.=Xg.6X7.+Xp.1 v c v M % @ v.n.",
"M # n v M Y I.D ^ ( ( ( 8.p.,.*.~ D.`.`.`.'.G.E.W.I.b U R.T.H.R n Z S./.~._ Z c Y I.v b M Z K n.n.l.l.}.8.6X.X> b c c M $ + s.n.",
"M c n b M J.W.! b.a.6.1.( ~ 2.^.(._ B C n Z D.~.`.`.D.Z.S.G.G.G.`.`.D.H P.H.K b K H.G M M M M b # 0.e.v..X6X.X> M M b M + @ 0.0.",
"M c M M M W.R x..X.XM.p.6.^.~.E c v @ @ v M & c C D Z.F.D.G.F.!._.:X6X[.O.% c # K T.M M M G Z M M c @ v.=X6Xf.M M c v M + v n.n.",
"M b M c G R.J 6X;X=X.XM.^.A.#.n c M c . @ $ b c M M Z L N ~ =.;X;X5X6X+Xn.v.....v U.I n Z # % c P.U 1Xm f <Xi M c & c c + M n.j ",
"M M b c Y W.O.6X6X6X;X!.A.-.&.v c c v c + $ c n v v M J N %.( 7.;X+Xp.0.r 0... .r P U.n & f 0.n.J 2X0X3Xw.6.> n M v n $ @ n 0.0.",
"M M M M P.I.O.6X6X,X'.!.,.-.Q c M # c b v @ % v b # c M ` E >X6X6X,Xr.s.| 0.n.n.n.z.H.n v { { r.w.L.Y.8X0.i M v M M c $ # N r.r.",
"M M M M W.L 6X6X<X:X/.g.,.#.G c M c c b M @ + # c c v b G N ;X6X%X| | | r.q.0.0.q.l.& Y Y { { t { ..[ f 0.; c c c M # @ v n B.r.",
"c M c Z W.L ^ ^ ^ ].A./ -.2.Z n G M M M M n . + % n M v b Y o.M.%X| | t.s.q.z e.n.|  .Y M & e.[ ] [ z.z.& M n M M M . @ Z b r.B.",
"M M M G W.L 6.6.^.A.6./ =.o.c L.P.M M c c M # @ $ M M c $ G N OXoXt.t.n.} e.0.q.v.z.v.Q.7X% e.t ] ] 0.c M M c c c & $ A P m l r.",
"M c M Z W.L M.^.A.6.6.6.$.H.c R.T.` M v c M n + + M v b v Z Y $ h t.k.t.k.t.t.t.k.] ] 9X] { n.n.  k % n v v v c M $ @ Y G % XX ."
};
