/* XPM */
static char *result[] = {
/* columns rows colors chars-per-pixel */
"64 64 250 2 ",
"   c black",
".  c #051803",
"X  c #270A03",
"o  c #291008",
"O  c #361606",
"+  c #053807",
"@  c #0A330C",
"#  c #302506",
"$  c #243924",
"%  c #421807",
"&  c #421910",
"*  c #4B2706",
"=  c #4A2110",
"-  c #532413",
";  c #542A19",
":  c #5A2C19",
">  c #5A3119",
",  c #65310D",
"<  c #633319",
"1  c #633521",
"2  c #663B23",
"3  c #6B3C21",
"4  c #6B3C27",
"5  c #733E23",
"6  c #044904",
"7  c #065805",
"8  c #174819",
"9  c #0E5011",
"0  c #315513",
"q  c #036402",
"w  c #066906",
"e  c #067503",
"r  c #037B01",
"t  c #127706",
"y  c #116B12",
"u  c #197816",
"i  c #267415",
"p  c #1A5E28",
"a  c #2D532A",
"s  c #146E28",
"d  c #287825",
"f  c #307033",
"g  c #525106",
"h  c #72550C",
"j  c #516F0E",
"k  c #796E10",
"l  c #574638",
"z  c #6E462C",
"x  c #734121",
"c  c #734329",
"v  c #7B4529",
"b  c #774A2C",
"n  c #7B4A2B",
"m  c #7C4D31",
"M  c #7C5431",
"N  c #4E762C",
"B  c #6F7539",
"V  c #3A6B43",
"C  c #5C6E57",
"Z  c #7A6B47",
"A  c #706C5D",
"S  c #AD240F",
"D  c #FE3501",
"F  c #D43024",
"G  c #8C500D",
"H  c #A45D19",
"J  c #A6720F",
"K  c #804C2D",
"L  c #975B28",
"P  c #834E31",
"I  c #845232",
"U  c #895534",
"Y  c #8C5935",
"T  c #8C563A",
"R  c #8C593A",
"E  c #9D573D",
"W  c #925D3C",
"Q  c #8E732C",
"!  c #94613D",
"~  c #98623E",
"^  c #FF4801",
"/  c #FF5501",
"(  c #CF6A1F",
")  c #FF6501",
"_  c #FF7501",
"`  c #8A5E53",
"'  c #946142",
"]  c #9A6542",
"[  c #9C6943",
"{  c #8B7C50",
"}  c #A36C44",
"|  c #A46D4A",
" . c #A5724A",
".. c #AC754B",
"X. c #A27B4B",
"o. c #AD794A",
"O. c #AD7552",
"+. c #AD7B52",
"@. c #B57D52",
"#. c #B87D50",
"$. c #E76751",
"%. c #058802",
"&. c #069802",
"*. c #138A10",
"=. c #2F8D15",
"-. c #07A802",
";. c #17A605",
":. c #07B601",
">. c #13B507",
",. c #1EB519",
"<. c #2BAE14",
"1. c #0E8E2E",
"2. c #298728",
"3. c #30942C",
"4. c #29A825",
"5. c #33B427",
"6. c #4C920F",
"7. c #6C8C16",
"8. c #54B414",
"9. c #74AA0C",
"0. c #479139",
"q. c #6C8C30",
"w. c #51B131",
"e. c #6FB32D",
"r. c #0AC502",
"t. c #14C906",
"y. c #0AD901",
"u. c #19D903",
"i. c #1DC114",
"p. c #27D806",
"a. c #30CF12",
"s. c #0DEC01",
"d. c #14E802",
"f. c #17F404",
"g. c #27E909",
"h. c #31F010",
"j. c #34D128",
"k. c #37E927",
"l. c #4DD515",
"z. c #4ED62D",
"x. c #49C739",
"c. c #48D839",
"v. c #6DD932",
"b. c #50EF32",
"n. c #398D53",
"m. c #518E4E",
"M. c #6F8F56",
"N. c #53B147",
"B. c #6DB34C",
"V. c #598F66",
"C. c #719270",
"Z. c #75AF6D",
"A. c #59C845",
"S. c #54D743",
"D. c #6CD050",
"F. c #5CE944",
"G. c #6FE850",
"H. c #7BCE6D",
"J. c #72DA65",
"K. c #A99B1F",
"L. c #8D8D39",
"P. c #AF9332",
"I. c #8DA237",
"U. c #FE8702",
"Y. c #FF9701",
"T. c #F09612",
"R. c #CBA215",
"E. c #FFA702",
"W. c #FFB304",
"Q. c #FFBB02",
"!. c #F9B014",
"~. c #CE8C31",
"^. c #F99A2D",
"/. c #D0AC30",
"(. c #FCB12E",
"). c #A2DE2C",
"_. c #FFCA04",
"`. c #FFD603",
"'. c #FFD316",
"]. c #FFEC09",
"[. c #DDC73E",
"{. c #FDC929",
"}. c #F7D035",
"|. c #FEE42D",
" X c #8E8C4E",
".X c #AB9446",
"XX c #B58252",
"oX c #BD8652",
"OX c #B5835A",
"+X c #BD865A",
"@X c #BD8A5A",
"#X c #8EB255",
"$X c #B7AF53",
"%X c #8A8E6E",
"&X c #BD8D63",
"*X c #B19A79",
"=X c #8FAB70",
"-X c #ACAB77",
";X c #C49A5D",
":X c #D3B54D",
">X c #FCB151",
",X c #C99665",
"<X c #D8996A",
"1X c #D1B073",
"2X c #FCB971",
"3X c #86CC55",
"4X c #80EC5C",
"5X c #89D46F",
"6X c #ACCB74",
"7X c #89ED69",
"8X c #97E77A",
"9X c #A4EB7A",
"0X c #D9CF53",
"qX c #F6D24F",
"wX c #D6EE56",
"eX c #FAE749",
"rX c #EFEE52",
"tX c #FDE856",
"yX c #FBF156",
"uX c #D2D26E",
"iX c #F5D06F",
"pX c #F8ED6D",
"aX c #6DAD80",
"sX c #78CB97",
"dX c #899386",
"fX c #A79B8B",
"gX c #95AF90",
"hX c #ACB191",
"jX c #B6BBB1",
"kX c #E0B986",
"lX c #98CA8E",
"zX c #ACD590",
"xX c #9DEF8A",
"cX c #ADEE8F",
"vX c #B6CFAF",
"bX c #B2E3AB",
"nX c #D2D290",
"mX c #E7D38B",
"MX c #CCEC95",
"NX c #ECE88F",
"BX c #FBF389",
"VX c #F6E997",
"CX c #F7F597",
"ZX c #CED5AF",
"AX c #E2D7A9",
"SX c #CDEEAF",
"DX c #F3F7AD",
"FX c #BCD8C6",
"GX c #D1D4D0",
"HX c #DFEADC",
/* pixels */
"} ..~ I .. . .I  .@X[ v v < R Y Y I U U ' | | | | x o z } U < 1 T P : I P | P : : 2 < % 2 O 1 E 1 5 5 5 5 P &   P : m : : 1 +.+.",
"R ~ ..~ ~ ! ~ ! ! ] [ [ [ x Y o.o.' U n U |  .4 X 3 } } } 1 1 o.U P P I P | | : : 2 R 3 T 1 O W 1 = - W 5 & & & & : n : n R R R ",
"R ......I '  .! I n n [ [ ..Y Y Y U U b ' | | 2 4 } } } } ..U U ..P ..P I | | P  .R R 2 R 1 1 < W - - E 5 & oXoX& m n n [ R 1 1 ",
" .&X! o.~ +.,X+.+.[ R } XX@.c c z U U M  .@X@Xc [ @.OXY OX] P P XXv ] ' c +.c @.+.@.2 x 4 = & b c : : M U W & R = % m % m ; I M ",
" .! X.! ! @XXX+.+.} R R [ @.' W c U U x  .c [ ~ ] OXT R R P ] P ] @X] [ c c c OXc x R R W b & c c : : : +.= = R 4 @.@.n b : I +.",
"U ! ! ! ! o.,X&X+.[ | R } XX@.W c U U x x c z @X@XOX< OXOX] XX] P ~ z [ c c c kXOX< XX3 3 [ b [ c : +.: > & R R = m @.n m +.I I ",
" .&X! ....+.,X<X,XOXXX} } #.' c c U U U  .@X@X@X@XR OX@.R XXXX[ ] ] ~ c c c c c v 2 3 W W ] | 5 c I +.U : 3 R R 4 % n m m I : : ",
"XX..&XW O. .,X,X . .X. . .+X] n b I I I I b m  .n R ,X,X' O.O.' ! n ! ! n K M M +.| %  .| P P ; :  .X.I  . .| | | 3 3 2 4 : P m ",
"[ W &X&X .m m m  .~ P ~  .[ v n [ 3 I [ < ..n -  .W ,XW : n n ! ! ! ! n 1 C.+.X.+. .c  .5 P P ; :  . .< P | = & | ~ 3 3 !  . .: ",
"] ..W &X&Xm m m  .! P I ! v ] @X@XY I [ x  . .M n   ; ~ R v n n ! n R f V *.w 1.V  .c  .| : P P : < < < U b m c | ! 3 3 ! M m I ",
"OX&X .W o. .n M M P ' ' ~ v [ +X[ < } ~ I  .n n  .R E ! ! v b n c ' 1.*.7 r &.&.-.y z c 5 : P P X P < P U & c b | ~ @X! 3 :  .I ",
"OXOX' W '  .I I  .[ v [ [ v [ v v o.o.I I I I @.[ [ J %XI U > M XX+ y %.t G v.w.x.i.m.P < T T : : K K K K o.m ;   % [ [ 3 ! OXOX",
"! W OXOXR  .P K M ' n @X[ Y [ [ [ o.o.o.: [ @.] I I ;X* A +X1 ; 4.s w &.O J #XD.8X=Xj.FX> R : : T K K |  .K P - ; % % 3 [ ! x ! ",
"3 3 W OXE P ,X3X%XfXdX-X#XY U [ [ I o.o.o.P P [ [ P kX, l @.> lX1.s %.%.% j p.S k #XgXvXP R T R +XK - | K K GXM.M.jX5 } [ ~ 5 OX",
"! 2 2 W 3 jXSX,X,X+Xv n } MXDXx T I I I : I P } ] ] *Xh l I @.r s q e 6 , g G W./.8.9XzX .T +XT #.P K lXgXzXjXm m [ nXgXgXx x ! ",
"+.[ c c ZX< 5 5 < I I [ [ Y bXMX .] K K < ; c 5 5 P J G * ; f q 7 w # # O , .XL.|.G N.xX] | | R O.gX0X- P | +.&X| [ U [ } v.5 5 ",
"+.[ z dX4 3 ] ] [ M I [ [ Y T hXO.] K K ] c E W W K mXG * O y.y 9 w @ O O G R.qXP.S A.bXK | R b gX%XP & - Y R R R OX[ I I R zX! ",
"x c [ [ [ P P ] [ < I 1 M  .| aXT ] ] ] ] W W W W W ' fX, # w 7 6 7 y % h k :X0XpXG B.FXK z | W fXU K U @.OXOXR R OXI I I W XXo.",
"W [ @X@X[ I ] P K I ~ M 1 x Y gXY K K K K W x c Y U W W J 0 e 7 9 6 7 G eX{.Y.E.{.;.nX' K R T ).x I U K I | | R OXOX[ I I W X.XX",
"+.[ R [ @.OXOXE W oXY U I 3 I hX} E +.] I n v n L I K K J % r 7 7 q % G -XR.:X:XP.l.MXR } I zXI U W  . .Y n b v ! m @.' ] O.' R ",
"! @.@.R [  .W | W } I U U P K ZX[ [ I M ~ U I n n W W U =X;.&.6 6 %.>.k vX[./.Q P.v.H.] XX' uXM ]  . . .W W +.+.v ' ] m ' O.! ! ",
"v } @.@.@.| W |  .I I I I ~ ~ MX[ [ V.M ~ ~ W U K E W U 0.:.%.7 6 -.t.<.L.j q.uX8.D.jX| } ] -X' @.c v R W ~ ! ! +.@.] ' ] v v W ",
"! R @.@.} | OX| W I I I I P =XaXP p V C.p aXZ.U U N d -.i t.&.w w -.y.0.7 0.N 0X8.F.o.[ T U fXo.+.W  .W R v v v +.] ] @.@.W ' ~ ",
"+.] ] ' +.} @X] v R W P P C.6.6 + 6 6 6 9 . 8 f m.d =.&.*.g.-.6 6 %.r.7 q j i 0 5.m.] P ] [ fXK ] P +.O.P |  .c 5 n n } } !  . .",
"] ] m ] +.@X@X[ v W I W V.N + 7 w 7 7 w 7 r q 6 p =.w f t.h k t %.9.j a.6 y K.%.t gX| ] @.+XhX} +XP P U m.C ,X| [ ; : ; n I I ' ",
"' ] ] P P ] @X] v R ! R 9 9.q r %.r %.:.&.&.&.i t e e =Xf.;.j 7 w 6.<.u.a u 0 &.:.w [ @.@.] 6X~ [ @.<Xf 0.dXb 5  .| m m }  .! | ",
"M ] +.] ] ] v b ] ] Y 7 + t e r -.:.%.s.p.g.t t ;.3.9 %.J g.s.e w y.g.L.e q %.d.f.t.f #.P K -Xv t.>.:.j.y 6 6 8 c b } m }  .I ! ",
"[ R R @X@X .R R  .| 7 s 7 7 %.-.i =.=.*.g g g 0 d &.t 6.I.w.f.g.p.s.l.K.2.u <.h.g.g.a.*.gXC.B 7 i H.p.;.<.%.&.-.&.7 7 C.m P P ] ",
"+. .R  .@X . . .R 7 6 9 7 t t h G /.$X9 -.:.d.;.9 B.=.=.=.{ b.b.h.h.6Xx.l.<.4X4.gXb.a.l.y.t 7 -.:.g.a.h.h f * r.p.t.y.%.8 C ~ ] ",
"|  . . .R R U .X9 e 6 9 q 8.j ~.-XZ.3.y.-.w.2.S.v.e.B H ;.7.{ ` m l P.0X Xv.v.$ f C w.j.f.p.g.h.l.e.0X=.K./.!.H 6.h.h.t.%.+ C ] ",
"+. . . .R  .R dX&.r + 1.7 t q.E N.j.cXZ.4.zXW nXzXP  X{ I.C # F F C :X[.L l.).6 6 8 8 f G 8.).wX$X|.rXw.M. XuXtXK.;.g.a.t.e @ 5 ",
"~ ! ! @.@.] I m.-.%.6 1.q S aXlXE P m A A...2.hXc R sX@ @ g A $.$.C $XyX=.d.-.K.7 7 6 + 7 .X X|.NX! ~ ~ W  .@XT }.( f.h.z.-.6 s ",
"..W c c W P 3 u :.-.7 f 7  .@X..9XZ.C.Z.9.g ..O.W s 9 7 e -.*XE m A -X*Xp.5.:.>.6.a.7 7.. y B.P P E ~ [ [ W W  .W P.y.h.b.r.q d ",
"..@.' c @.] 3 -.:.%.7 1.@ @X@X ... . .' ' ..W A a + q q -.-.M H G Z [.F a.Q 0 f.u.y.-.e 6 q &.' U Y [ W [  .W W E :X>.h.3X;.w %.",
"P W XXW @.I 4 r.f.t.&.@ 0  .@X@XE W | | | ..' p . %.%.e t.j !.uXnXpXpXe.w.).J L 7.p.y.e r y e *.U P K P [  .W W oXnXy.i.5X:.w *.",
"o...- n  .I I ;.p.u.&.8 d ' ` I | | ' E | aXa 8 e -.t.<.0.G K.P.-XNXmXl.8X4.=.#X,X7.g.>.t y 9 ,.lXI I ] I I U Y } { f.l.G.*.9 3.",
"o. .M n  .[ [ 6.j.h.t.s 8 m.J.m ~ | | | gX@ p *.4.k.b.b.S T.{.eXeX!.( 8.A.5.,.*.y rXG 4.y y p *.H.[ ] P ' U } } 3 ,.l.c.j.p 3.vX",
"I n X. . .] I w.5.4.h.2.i p 8 n.N.n.V A p u u i.F.5X#X( 0X~.yXyXyXyXT.e.c.x.z.h.,.m.q.l.4.i a d x.+.....+.} } M.i.j.b.j.2.i z.GX",
": n n n X.M | 3.2.,.k.j.5.2.d d d 2.s 2.=.4.j.A.G.w.( .XuX~.pXpXpXpX1XB.z.W w.xXb.j.N 8.4.s p 2.k.m.m.V.V.m.3.4.j.j.5.2.4.5.8X+.",
"4 I x I [ ' C 5.S.b.k.b.j.k.j.4.2.4.4.j.j.x.H.G.L .XBXyX/.M  X%X=XZXzX6Xj.Z E v.J.b.w.q.4.f f 4.F.m.f f 2.2.4.4.d f d 5.x.B.vXP ",
"! [ [ I Z.N.3.m.w.S.x.x.c.c.c.x.c.k.F.G.G.G. XoX:X<XuXBXnX^.pXpXpXtX:XhXc.w..X.XB.J.A.0.w.V f N.F.m.m.3.3.N.0.w.w.S.F.D.7XbX> m ",
"3 3 P Z.A.A.F.7X=XX.D.D.G.N.c.A.G.cX5XG.D.#.hXNXBXNXNXK K iXpXBXVXCXmX9XzXM.<X;XX.N.G.m.M.m.A.S.G.F.N.A.A.S.A.G.A.D.zX5XbXU > > ",
"! U x C D.G.bX~ ' nX<X=X3X-X6XhX6X4X-X;XnXBXqXnXNX' n W o.eX'.yXBXDXAX5XzX3XnXAXjXC. Xm.C N.G.J.xX4XG.7XJ.7X4X5XzXcXJ.vX! I  .M ",
"OXgXlXC.J.xX| lXI XX+.uXkX<XnX2X,XmXNXiXnXDXCXE @.' b ' pX'.`.`.tXBXmX9XcX5XJ.aXZ.H.C.Z.Z.5X8XMXMXcXMXcXbXbXxXxXlXbXP W Y I U < ",
"dXlXxXH.C.Z.H.5XI z   hXnXVX1XCXCXhXR b U eXE.].] ' ' ' BX`.W.`.tX'.DXmXcXcX7XH.H.H.H.8X8XcXrX'.`.yXcX9XcXxXZ.v R  .Y E W I I I ",
"GXHXW bXlXcXzXgXXXz z z OX .m : : c R R iXQ._.E.{.' ' ' }.Y.E.U.U.E.BX}.rXpXMXxX7X9X9XxXcXwX{._.`.W.}.nXAXv I m I  .R W W K I I ",
"] P vXzXxXSX@.P U b XXOXOX . . . . .c |.!._.`.E.Y.eX; ' ) ^ Y.^ / VX_.`._.{.XXXXOX .R ! +.{.!.) Y.Y.!.Y K I R R I W W Y Y I I I ",
"m SXSXZXcXZX] ] > < U I [ : : K  .} } tX) Y.D ) ^ |.W v _._ D ^ !.qXQ.`._.(.yXU +.| I I  .{.^ E._ ) Y.W Y I I I I U Y Y [ W I I ",
"&XGXo.v vX} ] ] n U U U 3 : qX_.].pX} pX_ / ) / _ pXW.`._.qXiXiXeXY.E.W./ _ _.pXrXrXCX| K qX_ _ ) D !.W R  .I I I Y ~ Y Y [ I I ",
"c GX..o.SXSX: m v 3 } } 3 K Q.`.`.{.v } iXY.Y.U.}.W._._.{.tXE v tXU.) E._ D mXQ._.].{.CX} R _ ) ^ ^ n n R  .I I  .Y [ [ v I ~ W ",
"M O v o.n > n ~ } } } U 3 (.E._ U.Q.'.v n Y 2 2 T Q._.`.Q.U.O.b v qXE.D ^ (.{.E.Q.Q.(.iXP T R R R n n v  . .I < < v Y T v I ! [ ",
"XX,X< ~ ~ = o.o...@.@.O n Y.E.W._ Y.!.v < #.+.R O.Y.W._.) U.OX| | #.n ~ ~ c ^.E.E.E./ >XU  . .W n ~ } ~ 2 +.z X   3 m P ~ ! I I ",
"XX,X;X< ! n b M = n O   b T./ U.^ D kX5 R +.O.c c U.D ^ D 2XR T T ~ v ~ ~ iXY.U./ D ^ 2X . . . .W ~ ] 2   o +.OXO.m P 3 ' ~ ! ! ",
"XX< ! > ~ ..o.= n XXm O b b ^.) Q.>XP K R W R z 5 v >X^.2XXXOX[ T E ~ v c ' (.D / / |.2  .b v  .W } 2 ] ] o z +.+.3 ' ' ' W  . .",
"U ! ! ,X! m b = = OXXXn XX~ : : b T R R m c R W +.W c v ' | | OXOX] @.W c 5 c VXqXVX} U U R v  .} ] ] 2 ] O.z +.+.P ' ' ' I !  .",
"& } } z o = c [ [ : : n n W v ~ W  .'  .| +.' ' +.U U I @...P I o.I I U T P P : > 3 ! R x I I  . .U U | 4 ] ] : n ....m .. .I I ",
"O     o 2 ] ] ] ] v ] ] n v W O.! !  . .! c ' X.+.OX@.@.U o.o.: : I : I +. .|  . .! 3 3 R I I I I U | | 3 > ] ] n m & P .. .|  .",
"o.z x } } ] v ] v ] ] ] ] ' v v v ~ ! ' ! c W W c I I I ; o.o.: : : I +.+. .I m m ' 3 OXOXI  . .I U | U 3 E } ] ] n n n n U  .1 ",
"o.} } } } ] } E z n n b v ' W ] v K I !  .W ' ' W ;   ; I I I I I I +.I : m m I : W ! 3 x < I  . .| | U U n ] ] n ......m  .U I ",
"..~ @.~ ~ } +XY U ~ [ [ ] 5 W ..W I I x 3 U I U @.+.U XXR O % I M n W ! b T  . . .[ [ : b c c R T I 3 [ I 2 } } } +.] P ' +.R R ",
"W ' @.@.c U } } U x x x ] R 5 c R I I ~ I U U U : R +.+.+.I M +XM n n v W U U P U ~ K > n c c > c I 3 < I < 2 } } P P O.' R +.R ",
"W W @.W c U } @X+Xx [ &X[ z ..W W I [ [ I U U @.U > < < o.+XI M oXv n ! W U 1 T  .M n n [ T T c c 3 [ [ [ 2   2 } +.O.] +.+.R +.",
"W ~ @.' ~ +X+X} +X] &X&X&XW ......I I I [ @.: U U < U U U +X+X+X@XW W  .v U U U  .~ ~ [ n c T > c 3 U I I X X } } E ] P ] +.3 R ",
" .| 4 | | O.+.+.+.' ' ' 3 T 5 | } 5 5 5 XXz O  ...v n n n x  .Y x ! ' W W W E W W z c } z c  . .  2 T 3 3 < R XXW I I ....m OXm "
};
