/* XPM */
static char *result[] = {
/* columns rows colors chars-per-pixel */
"64 64 249 2 ",
"   c black",
".  c #051803",
"X  c #270A03",
"o  c #291008",
"O  c #361606",
"+  c #053807",
"@  c #0A330C",
"#  c #302506",
"$  c #243924",
"%  c #421807",
"&  c #421910",
"*  c #4B2706",
"=  c #4A2210",
"-  c #532412",
";  c #542A19",
":  c #5A2C19",
">  c #5A3119",
",  c #65310F",
"<  c #633319",
"1  c #633521",
"2  c #663B23",
"3  c #6B3C21",
"4  c #6B3C26",
"5  c #733E23",
"6  c #044904",
"7  c #065805",
"8  c #174819",
"9  c #0E5011",
"0  c #315513",
"q  c #036402",
"w  c #066906",
"e  c #067503",
"r  c #037B01",
"t  c #127706",
"y  c #116B12",
"u  c #197816",
"i  c #267415",
"p  c #1A5E28",
"a  c #2D532A",
"s  c #146E28",
"d  c #287825",
"f  c #307033",
"g  c #525106",
"h  c #72550C",
"j  c #516F0E",
"k  c #796E10",
"l  c #574638",
"z  c #6E462C",
"x  c #734121",
"c  c #734329",
"v  c #7B4529",
"b  c #774A2C",
"n  c #7B4A2B",
"m  c #7C4D31",
"M  c #715B32",
"N  c #4E762C",
"B  c #6F7539",
"V  c #3A6B43",
"C  c #5C6E57",
"Z  c #7A6B47",
"A  c #706C5D",
"S  c #AD240F",
"D  c #FE3501",
"F  c #D43024",
"G  c #8C500D",
"H  c #A45D19",
"J  c #A6720F",
"K  c #804C2D",
"L  c #975B28",
"P  c #834E31",
"I  c #845232",
"U  c #895534",
"Y  c #8C5935",
"T  c #8C563A",
"R  c #8C593A",
"E  c #9D573D",
"W  c #925D3C",
"Q  c #8E732C",
"!  c #94613D",
"~  c #98623E",
"^  c #FF4801",
"/  c #FF5501",
"(  c #CF6A1F",
")  c #FF6501",
"_  c #FF7501",
"`  c #946142",
"'  c #9A6542",
"]  c #9C6943",
"[  c #8B7C50",
"{  c #A36C44",
"}  c #A46D4A",
"|  c #A5724A",
" . c #AC754B",
".. c #A27B4B",
"X. c #AD794A",
"o. c #AD7552",
"O. c #AD7A52",
"+. c #B57D52",
"@. c #B87D50",
"#. c #E76751",
"$. c #058802",
"%. c #069802",
"&. c #138A10",
"*. c #2F8D15",
"=. c #07A802",
"-. c #17A605",
";. c #07B601",
":. c #13B507",
">. c #1EB519",
",. c #2BAE14",
"<. c #0E8E2E",
"1. c #298728",
"2. c #30942C",
"3. c #29A825",
"4. c #33B427",
"5. c #4C920F",
"6. c #6C8C16",
"7. c #54B414",
"8. c #74AA0C",
"9. c #479139",
"0. c #6C8C30",
"q. c #51B131",
"w. c #6FB32D",
"e. c #0AC502",
"r. c #14C906",
"t. c #0AD901",
"y. c #19D903",
"u. c #1DC114",
"i. c #27D806",
"p. c #30CF12",
"a. c #14E802",
"s. c #17F404",
"d. c #27E909",
"f. c #31F010",
"g. c #32CC28",
"h. c #36D927",
"j. c #37E927",
"k. c #4DD515",
"l. c #5DEA1B",
"z. c #4ED62D",
"x. c #49C739",
"c. c #48D839",
"v. c #6DD932",
"b. c #50EF32",
"n. c #398D53",
"m. c #518E4E",
"M. c #6F8F56",
"N. c #53B147",
"B. c #6DB34C",
"V. c #598F66",
"C. c #719270",
"Z. c #75AF6D",
"A. c #59C845",
"S. c #54D743",
"D. c #6CD050",
"F. c #5CE944",
"G. c #6FE850",
"H. c #7BCE6D",
"J. c #72DA65",
"K. c #A99B1F",
"L. c #8D8D39",
"P. c #AF9332",
"I. c #8DA237",
"U. c #FE8702",
"Y. c #FF9701",
"T. c #F09612",
"R. c #CBA215",
"E. c #FFA702",
"W. c #FFB304",
"Q. c #FFBB02",
"!. c #F9B014",
"~. c #CE8C31",
"^. c #F99A2D",
"/. c #D0AC30",
"(. c #FCB12E",
"). c #A2DE2C",
"_. c #FFCA04",
"`. c #FFD603",
"'. c #FFD316",
"]. c #FFEC09",
"[. c #DDC73E",
"{. c #FDC929",
"}. c #F7D035",
"|. c #FEE42D",
" X c #8E8C4E",
".X c #AB9446",
"XX c #B58252",
"oX c #BD8652",
"OX c #B5835A",
"+X c #BD865A",
"@X c #BD8B5A",
"#X c #8EB255",
"$X c #B7AF53",
"%X c #8A8E6E",
"&X c #BD8D63",
"*X c #B19A79",
"=X c #8FAB70",
"-X c #ACAB77",
";X c #C49A5D",
":X c #D3B54D",
">X c #FCB151",
",X c #C99766",
"<X c #D8996A",
"1X c #D0B273",
"2X c #FCB971",
"3X c #86CC55",
"4X c #80EC5C",
"5X c #89D46F",
"6X c #ACCB74",
"7X c #89ED69",
"8X c #97E77A",
"9X c #A4EB7A",
"0X c #D9CF53",
"qX c #F6D24F",
"wX c #D6EE56",
"eX c #FAE749",
"rX c #EFEE52",
"tX c #FDE856",
"yX c #FBF156",
"uX c #D2D26E",
"iX c #F5D06F",
"pX c #F8ED6D",
"aX c #6DAD80",
"sX c #78CB97",
"dX c #899387",
"fX c #A79B8B",
"gX c #95AF90",
"hX c #ACB191",
"jX c #B6BBB1",
"kX c #DDBB87",
"lX c #98CA8E",
"zX c #ACD590",
"xX c #9DEF8A",
"cX c #ADEE8F",
"vX c #B6CFAF",
"bX c #B2E3AB",
"nX c #D2D290",
"mX c #E7D38B",
"MX c #CCEC95",
"NX c #ECE88F",
"BX c #FBF389",
"VX c #F6E997",
"CX c #F7F597",
"ZX c #CED5AF",
"AX c #E2D7A9",
"SX c #CDEEAF",
"DX c #F3F7AD",
"FX c #BCD8C6",
"GX c #DEE4DB",
/* pixels */
"{  .~ I  .| | I | @X] v n 3 Y Y Y I U U ` } } } } 4 o x { Y 1 1 Y P : P P } P : : 2 2 & 1 o 1 W 1 5 5 5 5 P &   m : n : : 1 O.O.",
"R ~  .~ ~ ! ! ! ! ] ] ] ~ x Y  . .' U n U } | 2 X x { { { 1 1  .U P P P P } } : > 2 R 2 T 3 O W 1 - - W 5 & & & & : n : m R R R ",
"R  . . .I ~ | ! I n n ] ]  .Y Y Y I U b ` } } 2 3 { { { {  .U U  .I  .P P } } P ] R R > T 1 1 1 Y - - E 5 & oXoX& n n m ] R 1 1 ",
"| &X! X.! O.,XO.O.] R { XX+.c c z U U U | @X@Xc ' OXOXW +.' P P @.c ' ' b O.b O.O.XXx x 3 = & v c : : P I R = R = & n % m ; U m ",
"| ! | ! ! @XO.O.O.] R R ] +.~ ! x U U 2 | b ] ~ ' OXT T W P ] P ] OX' ] C.z c O.z > W R W c & c c : : : O.= = R 4 +.+.n b ; I O.",
"U ! ! ! ! O.<X&XO.} ] R ] +.+.` z Y U x x c c @X@XOX1 +.+.{ XX] P ` V a <.q <.V XXx XXx < ] v ] c : O.: : = R R = m +.n b XXI T ",
"| &X! X.X.O.,X,X<XXXXX{ { +.W c b I U Y ] @X@X@X@XW OX@.T XXXX' ] <.&.q r %.%.;.p x < W ~ ] ] c c I O.U : 4 R R 4 % b n m I ; : ",
"XX| &X! | | <X,X| ....| | +X] v n U m I I m n ..b J %X,X` o.o.` + y r t G v.x.x.u.m.% | | I P : : ..| I | } } } } 3 3 3 4 : P m ",
"] W &X&X .m m m | ` n ~ | ] n n ] < Y ] <  .n - | &X- A - b c 3.<.q %.O J #Xv.9X=Xh.FXO.c K P : ; |  .< P } = & } ~ x x ! ..| : ",
"'  .W &X&Xm 3X XfXdX-X#X! n ' oX+XI I { 3 | | m b kX, l W x lX<.s $.$.O j r.S G #X=XvX| } : P P : < < < P FXC.M.jX~ < 5 ! m m I ",
"XX&X| E jXSXm m z m ` ` MXSX' +X] 3 ] ] I | m n ..*XG l W b r s q t 6 , h k !./.7.8XxX4 c : P P X P lX=XnXjXc v | nXgXgX3 : | I ",
"+XOXT ZX` | I I | } b ] } MXMXv v X.X.I I I I +.~ J G = = 1.q 9 e # O O , .XQ |.G N.bXT 1 T T : gXuXK K K X.m ;   % ] ] v.! OXOX",
"` R dXOXR | I I P ] v &X{ T hX{ ] X.X.X.: ' +.] I mXG = O t.w 9 e @ O O G R.qX.XS N.bX: < T : gX%XK K } } P m ; ; % % 4 { zXx ! ",
"3 3 W OX` I ,X| | &X] v v T =X~ ] I X.X.X.I I ' ] I *X, # w 7 6 7 7 % h k :X0XrXG B.vXI I T Y fX+.K - } m P  .P m ] 4 ] ] ` x XX",
"` 3 4 R 3 P } ,X,X&Xm b ' } gXv Y I I I : I I ' ] ] ] J 0 r w 9 6 w G |.}.U.E.{.,.nX] P | T ).T oXK K } n  .o.m P ] ] c x x x ! ",
"O.' c c 5 3 3 3 4 m I ] ] T gXT | ' K n < ; 5 c c U R J O r 6 6 w O G ;X/.:X:XP.k.MX' m ' zX| W } - - - I } OX+.} ' I ] ] Y 5 5 ",
"O.] z GXP 4 ' ' ] P P ] ] Y ZX] } ' P P ' 5 W W W n m =X-.%.6 6 $.:.k jX0X[.L.K.v.H.' < I 6XR c } +.P - - T R R R OX] I I W O.! ",
"x c ] ] ] T P ' ] 1 m 1 I | MXT R V.' ] ' W W E W Y ! q.:.$.7 6 ;.e.,.L.j Z 0X7.N.jX' ' K -X} R v I I I +.OXOXR R OXP I I R O.O.",
"W ] @X@X] I ' P I m ] I 2 =XZ.} s V C.s C.aXc 5 C *.=.i e.%.r q =.t.N 7 5.9.0X7.F.< P ' K fXY R c K I K I { } U OXOX] I I R XXO.",
"O.] R ] +.OXOXE W @XU M V.5.8 + 6 7 6 6 @ 8 V m.d *.$.&.d.=.6 6 $.r.7 7 N i 0 4.m.{ R R ] hXI I I W |  .R n n n ! m +.' ' O.W W ",
"! +.+.R ] | W } W { I C 9.+ 7 q 7 7 q 7 e q 6 p 1.q f r.h k t %.8.j i.7 u K.&.r gXR R { XXhX] m ] | X.9.M.` O.O.K ` ` m ' o.W ! ",
"n { +.+.XX} W } | I I 9 8.q r $.r $.;.%.%.%.i u e r #Xd.&.j 7 t *.*.y.0 u 0 %.;.y Y ] { ] 1X] ] O.v f m.dXW ! ! o.@.' ` ` n n ` ",
"W R +.+.{ } OX} W I 7 + i e r =.;.$.s.i.i.&.t -.2.0 r L.d.a.w w y.d.I.e 7 r s.s.t.f XX} T 6XO.e.:.;.g.w 6 6 $ c o.' } +.+.W W W ",
"O.' ' ' O.] +X] c 9 y 7 7 $.=.i *.*.&.g g g 0 d $.$.*.P.q.s.d.i.s.k.L.1.u ,.f.i.d.p.u gX%XN 7 1.D.i.,.*.$.%.=.%.q 7 C.{ { ~ | | ",
"' ` P ' O.@X@X] y 6 6 q t $.h G /.$X9 %.r.a.-.8 B.*.*.*. Xb.f.j.f.6Xx.7.p.4X2.hXl.p.k.t.r q ;.;.d.i.f.h N * e.y.r.t.$.8 C K I W ",
"' ' ' P n ] @X9 e 6 6 q 7.j ~.-XZ.1.a.=.q.d c.v.w.B H -.0.[ T 4 l P.0XM.v.v.8 a V.N.f.s.p.d.f.k.w.0X*.I.K.!.H j d.f.r.$.+ C ' | ",
"I ' O.` ' ] dX$.r + <.7 u 0.' N.g.bXV.,.zXY zXzXK  X[  XZ # F F C :X[.L k.l.+ 9 8 @ f k 7.).rX/.|.pXq.M. XuXyXK.,.d.i.r.r @ P ~ ",
"] R R @XOX..N.=.$.6 <.7 S %XlXE XX+.C.A.P 9.hXW ! sX+ . f A #.#.C $XyX5.i.=.K.7 7 6 @ 6 .X X}.NXn b m m @.R ..qX( s.f.v.=.6 s ] ",
"XX| R | @X| u ;.=.6 f q | ` W 9XZ.C.Z.8.g E ` R s 7 7 r =.*XE T Z -X*Xi.g.=.:.5.p.7 6.. y B.m R ] ' +.m m O.O.O.P.r.f.b.e.q s { ",
"] | | | R R =.e.$.7 <.8 W ` W  .W K K ~ X.+.C $ + q w =.=.M G H Z [.F g.Q 0 s.i.t.=.r 6 7 %.m ` T ' ` m m O.3 o.:X:.f.3X=.w $.' ",
"O.| | | R | e.d.e.%.@ 8 W W | W W ~ P X.X.+.p @ $.$.e r.j !.uXuXpXpX8.w.).J L 8.i.t.r r y y &.m m ' ' ' +.o.O.W nXt.u.5X=.w &.z ",
"' ` W +.+.' -.i.y.%.8 s } W W W W K P ~ aXa 8 t =.:.3.9.G K.P.-XNXnXz.8X<.*.#X;X6.d.:.y y 9 :.lXI R ] ] W | OXW [ s.k.G.&.9 2.! ",
" .` 5 c W P 7.>.f.u.u p V.N.&X} | R P gX@ p &.>.f.F.l.F T.{.rXtX'.( 7.A.g.,.1.y rXG 3.t p p &.H.R W ] ] ] ! W | >.z.z.j.9 2.ZXT ",
" .+.` x +.` q.g.3.d.1.s p p m.N.n.f C.y 1.u 4.F.5XD.( 0XP.tXyXyXtX~.7.c.q.b.f.>.m.0.p.2.i p u x.T R ] R ] ..M.u.h.l.h.2.d z.GXo.",
"P W XX! +.P N 1.3.j.h.4.s d d d 1.s 1.2.3.u.A.J.w.( .XuX( pXpXpXpX1Xw.h.R q.xXj.g.N 7.3.d p 1.z.m.C V.M.m.<.3.4.h.4.2.3.4.H.O.o.",
"X.| - b ..C 4.c.b.j.b.h.j.h.3.2.2.4.4.g.x.H.v.L XXBXtX/.M  X X%XZXnX6Xh.M.F v.J.b.q.0.3.f f 2.b.m.f d 1.1.3.3.d f p 4.x.B.vXU T ",
"X...n Z.q.2.m.c.F.x.x.c.c.S.x.b.c.b.G.J.G. XoX:X:XuXVXnX>XpXpXpXtX:X6Xc.N..X.XD.G.A.m.N.n.f q.G.m.1.n.2.N.9.x.q.x.F.D.7XbXXXR U ",
"I n aXA.D.F.7X=X[ D.B.G.N.S.N.G.xX5XD.3X@.hXmXBXBXNX} } tXBXBXVXCXmX6XzXM.;X@X..B.D.m.m.m.A.S.4XF.N.A.N.c.A.G.A.J.zX5XbXz M U < ",
": n C B.G.SX] OXnX<X=X3X6X6X-X6XJ.6X1XuXVXqXnXNXP } } } eX'.eXCXDXAX7XzX3XMXnXjXM. XC m.N.D.7X8XG.J.7X7XJ.G.8XzXcX5XbXx ] < > XX",
"hXlXC.J.xX` lXo. .XX1XmX<X1XmX,XmXNXiXnXDXCX} '  .o.o.pX'.`.].tXCXAX6XcX5XH.dXZ.H.Z.Z.Z.5X8XMXbXcXMXcXMXSXxXxXxXbXc c ; ! | m m ",
"lXxXH.C.Z.H.H.m ~ XXhXnXVXhXDXCX-X,XI I tXW.]...' n O.BX_.W.`.qX].DXmXcXcX7XH.J.J.7X8X8XcXwX_.`.yXcXxXcXxX=Xv W  .W - c - > > m ",
"GXx zXgXxXzXfX` O.3 2 XX3 { ,X] ,X,XR iXW._.Y.{.R ` W }.Y.E.U.U.E.BX}.eXNXcXxX8XxXxXxXxXpX{.Q.`.Q.}.mXZXc v Y W Y ! ! c ~ I > > ",
"` FXzXxXSX` ` ` ! Y ! XX3 3 ] <X] | |.!._.`.E.E.eXW b ) / Y.^ / VX'.`._.{.X. .W W ! U U {.!.) Y.Y.E.U U v v W Y Y W ! ! ! I ..I ",
"SXSXZXcXSXI ] I I XXXXOX@.} P | ..| yX) Y.D ) / |.` b _._ D D !.}._.`._.(.tX` 5 x Y W v {./ E._ ) Y.I ` ` R n I W W v Y Y I I 3 ",
"ZXW  .vXm U I I I z   o o qX`.].pX} pX_ / ) / _ pXW.`._.qXiXiXeXU.Y.W.) _ _.yXtXrXCXb W }._ _ ) D !.T U Y I n v W } W Y W I I I ",
"GXP ` ZXSX] XXXXXXz z z XXQ.].`.{.c Y iXY.Y.U.}.W._._.{.tX' ' tXU.) E._ D mXQ._.].{.CXb m _ ) D / ` v b n v K n P { W W R I U K ",
"` P ~ P P I XXI K b XXXX(.E._ Y.W.'.b T | ] +.+.Q._.`.Q._ n ' ` qXE.D ^ (.{.Y.Q.Q.(.iXW | R R b 1 n U U v I T R P W T W W I K I ",
"m  .X.b & > ] ~ > 3 U U Y.E.E._ U.!.{ = = 1 R R U.W._.) U.v W +.v W } } } ^.E.E.W.^ >XU } } R R R v n W W I I I I Y Y Y ] Y U I ",
"@X . .b  .] ] ] n I U P Y.^ U.^ D kX .{ K , XXXXU.D ^ D 2Xv W X.v c | } iXY.U./ D ^ iX{ I R R R +X} v W R | U I I Y ] Y Y ] P I ",
"b b  . .X.b : b n 3 { { 3 ^.) Q.>Xb K { { Y XXR R >X^.2XW v ! v v | T T T (.^ / D |.} ] { R R | +XW n n R | I I | Y ] ] v P ] W ",
"b & b  .b > n ] { { { U 3 m | P | { b n v R 1 1 R W m W v ` o.b v T c } R < VXqXVXP I I I T Y R R v v n | | I < < v U Y v I W ] ",
"XX,X< ` ! =  .X. .+.XXO b ` ` ` ` R R n 3 +.o.R O.o.` E v T OX} } +.v ~ ' c R 5 5 U | | U | | Y n ] ~ ~ 2 O.z o   3 P m ` ~ I K ",
"XX,X,X> ! n m m = b O   b ` b ` : b b 3 R O.O.c c W O.v v T R R T ~ v ~ ~ | T c R T 3 | | | | | W ~ ' 2   o O.O.o.P m 3 ` W ~ ! ",
"XX> ! < ! X.X.= n +.m O b b v b : 3 m n R W R z c v ` v ` OXOX] T ~ ~ v v R | | | } 3 3 | b n | W { 2 ] ' o z O.O.3 ` ` ` ~ | | ",
"U ~ ~ &X! m m * = XXXXm @.` : : b T R R m c ` R O.` v v W } } OXOX` +.~ b c c R z U | U U W v | | ~ ] 2 ' +.z O.O.P ` ` ` I ! | ",
"& { { x o = b ~ ' > : n n ` c ` W | ` | } O.R ` o.I I I +.X.I I X.T I P I m m : : x W W x I I | | U I } 4 ' ~ : b  . .m  .| I I ",
"&     o 3 ' ' ] ' m ' { v v W o.! ! | | ! c W O.O.+.XXXXI X.X.> : I > I O.| | | | ` 3 3 W I I I I U } } < > ' ' n m & K  .| | | ",
" .x 4 { { ' c ] c ] ' ] ' ` v v v ~ ! ! ! c W ` z I I m ; X.X.> : : I O.O.| P m I R 2 OXOXI | | I U } U x ' ' ] ] b n n K U | 1 ",
" .{ { { { ] { E c v b b v ` W ` v I I ] | R ` W ` ;   ; I I I I I U O.I : P m I : ! ! 4 3 < I | } } } U Y n E ' n  . . .m | I I ",
" .~ @.~ W { +XY Y ' ' ' ' 5 W  .W I I < 3 U U U +.O.U XXY % % I m n W W m I | | | ] ] : b c c R T I 3 ] I 2 { { { o.' P ` O.W R ",
"R ! +.+.c U { { U x x x ' R c 5 W I I ] I U U U : U O.O.O.I m @XI v n n R I T I I ] n : b c c > c I 3 3 I 2 2 { { P P o.' R O.R ",
"W ~ +.! c Y { +X+Xx ] &X] c  .W W I ~ ] I I T +.T < < < O.+XI m oXn n ! ! U 1 T | n n n ] T T c c 3 ] ] ] <   2 { O.O.' o.O.R O.",
"R W +.! W +X+X{ +X' &X&X&XW  . . .I I I ] +.: I I < U U I @X+X+X+XR ~ | n I U U | ] ] ] b c T > c x I I I X X { { E ' P ` O.3 R ",
"| { z } } O.O.O.O.` ` ` 4 T x } { 5 5 5 XXc O  . .n n b n x | Y x ~ W W W W E W W z c { c c | |   < T 3 2 3 Y XXW I I  . .m OXm "
};
