/* XPM */
static char *result[] = {
/* columns rows colors chars-per-pixel */
"64 64 190 2 ",
"   c black",
".  c #001D01",
"X  c #240900",
"o  c #290C08",
"O  c #291008",
"+  c #311208",
"@  c #3A1408",
"#  c #002401",
"$  c #012B01",
"%  c #033402",
"&  c #063B01",
"*  c #0B3D00",
"=  c #08390C",
"-  c #0C3B10",
";  c #233201",
":  c #421408",
">  c #421B08",
",  c #421C10",
"<  c #4A2410",
"1  c #522410",
"2  c #522810",
"3  c #522819",
"4  c #5A2D19",
"5  c #5A3119",
"6  c #613706",
"7  c #633319",
"8  c #633421",
"9  c #6B3521",
"0  c #663B23",
"q  c #6B3C21",
"w  c #6B3E29",
"e  c #733D21",
"r  c #0C4000",
"t  c #114500",
"y  c #154B01",
"u  c #194E01",
"i  c #1B5001",
"p  c #1F5709",
"a  c #164418",
"s  c #205502",
"d  c #235A04",
"f  c #275905",
"g  c #235A0A",
"h  c #27610D",
"j  c #2C660B",
"k  c #2E680D",
"l  c #32670A",
"z  c #286311",
"x  c #326C11",
"c  c #326E19",
"v  c #347012",
"b  c #367418",
"n  c #3E7C1B",
"m  c #4F510D",
"M  c #69450C",
"N  c #7F4F0A",
"B  c #754513",
"V  c #724917",
"C  c #7A511F",
"Z  c #496C1D",
"A  c #407E1C",
"S  c #6D442B",
"D  c #6F492D",
"F  c #734121",
"G  c #734329",
"H  c #7B4529",
"J  c #774A2C",
"K  c #7B4A2B",
"L  c #7B4C31",
"P  c #7F5131",
"I  c #4D6F29",
"U  c #677625",
"Y  c #76793F",
"T  c #4E6E51",
"R  c #627F55",
"E  c #941902",
"W  c #BC1F00",
"Q  c #9D390C",
"!  c #BB2200",
"~  c #BB2803",
"^  c #AA3008",
"/  c #A33A0C",
"(  c #C1340A",
")  c #8D4406",
"_  c #864907",
"`  c #8F450B",
"'  c #824C09",
"]  c #88500E",
"[  c #885519",
"{  c #945D15",
"}  c #A84718",
"|  c #8C6116",
" . c #8F661A",
".. c #804D2D",
"X. c #8B5522",
"o. c #825B27",
"O. c #935E2A",
"+. c #834E31",
"@. c #845231",
"#. c #885534",
"$. c #8C5935",
"%. c #8C563A",
"&. c #8C593A",
"*. c #925D3B",
"=. c #B95627",
"-. c #92622D",
";. c #9C6834",
":. c #94613D",
">. c #98623E",
",. c #9C743F",
"<. c #A06E39",
"1. c #A2713C",
"2. c #A8753F",
"3. c #C96A38",
"4. c #946142",
"5. c #9A6542",
"6. c #9C6A43",
"7. c #A46C43",
"8. c #A46E4A",
"9. c #A77641",
"0. c #A47D46",
"q. c #AB7B45",
"w. c #A5724A",
"e. c #AC754B",
"r. c #AD794A",
"t. c #AD7A52",
"y. c #B57D52",
"u. c #CF7845",
"i. c #D07341",
"p. c #D27B49",
"a. c #41801E",
"s. c #6D9B05",
"d. c #448521",
"f. c #478824",
"g. c #4A8B26",
"h. c #4D8E29",
"j. c #5A8927",
"k. c #568C29",
"l. c #4E902A",
"z. c #559223",
"x. c #51942C",
"c. c #569A32",
"v. c #599F34",
"b. c #77802E",
"n. c #758230",
"m. c #5CA136",
"M. c #5FA539",
"N. c #66A037",
"B. c #60A63A",
"V. c #61A93C",
"C. c #6FB232",
"Z. c #65845B",
"A. c #65A943",
"S. c #708B6D",
"D. c #8BB707",
"F. c #AA814A",
"G. c #B3854E",
"H. c #B58252",
"J. c #B58B54",
"K. c #B88C54",
"L. c #B5845A",
"P. c #BD865A",
"I. c #BD8B5A",
"U. c #BD915A",
"Y. c #BD8E63",
"T. c #80AC6B",
"R. c #D4834F",
"E. c #C59363",
"W. c #C59B62",
"Q. c #C89E65",
"!. c #CE9E6B",
"~. c #C8A167",
"^. c #CEA46B",
"/. c #D0A86E",
"(. c #D4AC73",
"). c #D7B076",
"_. c #DCB57A",
"`. c #DFBA7E",
"'. c #8D9F8C",
"]. c #90B586",
"[. c #9CA7A8",
"{. c #E6B684",
"}. c #E4BF83",
"|. c #B6C4BC",
" X c #CAD2D9",
".X c #D8DADA",
"XX c #DADDE5",
"oX c #DFE2E8",
"OX c #E4E7ED",
"+X c #E9ECF1",
/* pixels */
"7.e.>.@.r.w.n j i & i t # % i r % i l ` !.Q.8.8.8.q + q 7.%.8 8 #.+.4 +.+.8.* B.h 0 0 > z d Z.$ % % % i t i i i i i f D.s.C.l u ",
"&.>.e.>.>.j A k i r * & $ % i t y * j } ;.8.8.0 o q 7.8.7.7 8 r.%.+.@.+.@.8.t g.b 0 &.8 %.I XX[.. % i t r r y i y i n F.l z.i i ",
"&.e.e.e.@.j A i i i i r # = i i i i l 2.q.7.7.0 9 7.7.7.7.r.#.%.e.+.e.+.@.8.8.I '.&.&.9 &.= = % % i i r r r i y p l.n.).h B.x.c.",
"w.Y.:.r.*.k k k i y r i . = % y y y f R W.E.P.G 5.L.L.*.L.5.+.+.H.G >.5.G t.G T +Xy.F $ % # # % i i i i t i i t b m.U }.z g.b v.",
"w.:.w.:.:.j A v y % r u % . % t & r i Z w.G 6.5.5.L.&.&.&.+.5.+.5.I.6.6.G G G L.J q &.&.&.# % i i i i i i i i v n V.U W.Y v.i h ",
"#.:.:.:.:.j A A t i i t * . % & r i i r q G S I.I.L.5 y.L.5.H.5.@.>.S >.G J S {.t.0 H.q % % i i y r i i i i v V.V.M.j.-._.Z v.h.",
"w.Y.>.r.r.t.f.x.i i i & i $ % = i i y i w.I.I.I.I.&.L.L.&.y.H.5.5.5.>.G G G S G G F q $ % u i r r y i i i d c.M.V.V.M.B B q.; c ",
"H.w.Y.*.w.w.l.V.i i i r r r # % i i & t r K P w.K :.E.E.4.t.t.4.:.K :.:.K P P P t.w.: w.t y u & % r i y t f.M.m.m.V.b.(.}.U.r.O.",
"5.*.Y.Y.e.P h.M.k i i i t i # % & y * y i 8.K 2 8.4.E.&.2 K H >.:.:.:.K 8 1 t.t.t.w.G & i r i i & t i t n v.g.h.l.M.q.}.}.}.}.}.",
"5.e.:.Y.Y.P Z v.f u y r i i i $ $ % * i i * e.K K   4 4.*.K K K 4.K :.:.:.@.L @.P % $ u i i i i i i r r x V.B.g.m.) K.}.}.}.}.}.",
"L.Y.w.&.w.w.M v.l.i r r y i i i # $ % i % u & K w.&.4.&.*.K K K K *.H 7 K 1 1 # = % i i i i r i i i i x B.V.B.V.{ Q 6._.}.}.}.}.",
"P.L.4.:.4.w./ V.c.s r t i i r y u $ # $ - & y $ % 6.@.9 @.#.5 #.y.4.H $ % $ ..q $ i i i i y y u y i u c.V.V.B.j.^ [ B W.}.}.}.}.",
":.:.L.L.&.w.} j.V.x i r i i i i i i # # # - t % % = +.+.@.y.5 5 5 H H . $ $ - % i i i i i & & & i i v V.V.V.M.( }.J.o.0./.}.}.}.",
"q q &.L.4.@.;.| V.x.i i i r r t i i i # # = % # $ a +.6.6.y.5 5 % H 4.4.$ $ $ i i r i i i i i i i s M.x.V.A.) R.}.}.}.0.-.(.}.}.",
">.q q 4.q @.w.=.m.c.x y i i % y t u i i * # . $ $ $ - 6.5.%.% . $ - $ # # * u i r t t i i i i i u c.h.f.M.j.i.^.}.}.).F.}.o.9.^.",
"t.5.w G e q q K.| a.d.h i i t i i r r y i i * # # # $ % *.. = % # # # * u s u i y r i i i i i i v V.V.V.M.) W.^.^.U.X.}.}.}.}.}.",
"t.6.S G G 9 5.5.3.B.x.v i u i i i r r i u r r i i # # # # . $ # # i i i i i i i r r y r r y i v V.V.V.V.j./ X.X.O.L.6.}.}.}.}.}.",
"F S 5.6.5.+.@.5.G.| B.B.v u % u i i i i r r r i i i u i i i i i i u r r r u y i i i y r & i k l.h.x.V.M._ C C }.`.L.@.^.`.}.}.}.",
"&.6.I.U.6.+.5.+.+.3.B.V.B.x.u i i i i y u r i u y i i i i i u u i i % r r % i i i i i i i v c.d.d.B.V.| p.}.}.}.~.L.6.@.^.}.}.}.",
"t.7.&.6.y.L.L.*.*.P.] B.V.V.k t s i % r i i i r y t r i i i r & % i i i i i y r i i i i v M.V.V.B.B.j.( `.(.~.G.:.L y.4.F.^.}.}.",
":.y.y.&.7.8.*.8.*.7.J.] M.m.k n i i r i i i i r r % i i i i i & % r i i i r i % u i i v V.V.V.V.V.M.W ;.G.W.O.t.H 4.4.L I.1._.}.",
"K 6.y.y.y.8.*.8.w.@.@.G.] n n u i i i i i i i i r i i i i i % u i i i y i i i % i d x.V.V.V.V.V.M._ Q X.V U.^.4.t.y.5.5.0.}.U.q.",
":.&.y.y.7.8.L.8.*.@.@.@.~.k k r r i i d i u i i i i u u i i i i i i i i i i i d x.V.M.V.V.V.A.M._ p.}.}.}.}.J K t.5.5.y.# ~.`.}.",
"t.5.5.5.t.5.P.7.H *.:.@.m n r r r t x.V.x.d i i i r * i i i i i i i d i i h x.V.V.M.l.l.V.M.M._ u.}.^.}._.6.6.G e K K 7.r m Q.}.",
"5.4.+.5.t.I.I.6.H &.@.*.>.j i r i x.B.B.n B.V.A p s i i i i i i s s k M.n x.V.V.V.d.a.M.M.M.' / ,.H.~.7.+.!.!.8.8.3 3 3 % i b.~.",
"5.5.5.+.+.5.I.6.H *.&.*.*.k i i k h.a.n c B.V.l.m.V.V.a.n V.V.V.V.V.V.V.x a.V.V.M.M.M.A.M.] Q [ X.M F./.t.6.G G 6.8.L # i A V.b.",
"@.4.t.5.5.5.H H 5.;.:.&.*.p u i A V.M.* n A.B.B.V.V.V.a.h.M.V.V.V.V.V.V.V.V.V.V.M.A.B.k.~ u.}.}.}.}.}.t.+.G e G G L 7.$ i B.V.! ",
"6.&.&.I.I.w.&.&.e.w.w.*.8.* % i V.B.g X.E k.B.N.V.V.V.V.V.V.V.V.V.V.V.V.V.V.V.M.k.' ! =.}./.}.}.}.`.L L y.&.t.&.q L 6.r k a. ./ ",
"H.w.&.w.I.w.w.w.&.8.8.*.w.* i A V.A 6 B /.}.( W ' l.V.V.V.V.V.V.V.V.V.B.l.N ! W i.}.q.B X.^./.^.X.4.y.L L t.t.t.&.L L r n V. .X.",
"6.w.w.w.&.&.&.w.I.L.*.*.*.s i V.A +.+.>.B ^.q.X./.}.W ! W W W ! W W W }.}.F.X.,.K.^.}.}.}.}.}.&.%.5.5.L L t.q t.&.6.I.r x.x./ ^.",
"t.w.w.w.&.w.&.&.w.L.*.8.l i x.s *.>.+.r.r.y.*.7 1.}.}.F.1.K.}.}.0.X.K.K.}.}.}.6 [ /.}.}.^.K.5.L K 6.5.5.y.t.t.&.&.P 6.r x.V.3.}.",
"5.4.*.y.y.5.@.@.@.#.w.k u * k *.*.+.+.*.e.e.*.r.K X.K.&.6.X.^.}.^.K.B 1.}.}.}.^.K.K $.6.$.:.@.K @.*.5.5.*.w.L.*.*.+.+.r V. .X.9.",
"e.*.G G >.@.q @.5.#.#.r i A l.e.e.4.+.+.w.e.e.e.*.*.+.+.*.L L #.L *.#.+.*.*.t.t.:.6.6.$.$.@.#.#.X.*.5.7.6.*.*.e.*.+.7.* x. .H.}.",
"e.y.l.V.M.j q >.5.w.#.i i M.p w.8.w.w.*.*.e.:.K *.;.*.*.+.L *.*.L K #.*.X...y.*.>.6.6.6.K K @.:.#.%.5.*.6.8.*.*.*.>.+.* x. .}.}.",
"#.R OX].V.V.M.k 5.w.u i l.A I.I.*.*.w.w.w.e.*.*.>.+.*.+.+.L %.#.L K #.*.*.t.4.K >.5.6.5.K X.*.#.#.+.+.+.<.8.*.*.P.y.+.+.V. .^.}.",
"r. X.Xx i i x V.j i % k M.% :.% i 8.>.*.8.r.5.4.5.G G %.%.G #.#.%.@.o.@.@.*.*.*.*.>.>.>.e.*.*.*.*.+.+.5.+.#.$.$.7.7.>.5.x.B./ 2.",
"r.w.S.% w.% i i x j u t r & u j N.g.8.8.8.5.t.t.4.G %.%.G w 6.6.#.#.@.>.@.*.*.*.*.@.@.5.>.H +.*.*.>.4.+.5.#.7.7.S G 5.J A x.=.}.",
"@.K e.w.w.5.r i i i i i b n u x.V.|.n 8.:.@.5.t.5.G 8.8.G %.#.#.#.#.:.0.e.*.*.X.#.>.>.X.+.@.*.G *.t.t.y.t.7.7.7.7.>.G G A B.{ }.",
"4 L P J 0.@.r i i i i l.A.x y g A..X X*.@.@.5.@.+.8.8.8.%.e e 7.#.P w.w.>.K ..+.@.+.+.X.+.*.+.+.*.+.5.+.+.1.#.7.7.G < G 5.x.N.i.",
"0 P F @.6.>.i b i i b n p 6.6.6.% f ..E.w.&.w.5.e.t.t.*.5.*.5.>.@.D G 5.F H ..*.K #.H #.#.+.%.7.<.H K K K w.H w.K G G 3 >.A x.{ ",
":.5.6.@.6.j m.y j u h y *.6.!.6.6.W.@.@.@.&.5.0.5.K t.*.K >.e.*.:.G e G w K K ..H H H H :.+.+.5.%.K @.K *.*.H $.w.:.2 G 3 5 a.V.",
"F q @.& f.B.a.>.& i c.r 0 6.^.6.!.E.@.@.w.w.5.&.&.4.:.K K >.e.e.+.G e G G K *.*.H H H #.:.%.+.*.+.K K K H H *.*.$.:.:.F :.@.5 a.",
":.@.0 n T.V.:.:.:.g V.x.q 9 6.!.6.w.w.w.w.&.&.&.w.4.H 4.t.*.>.e.+.S 5.I.5.e.r.*.*.:.X.#.#.+.+.+.+...#.#.K H *.*.*.*.:.:.:.P w.@.",
"L.w.w.S.OXx.5.@.@.y V.S.n w.P w.w.w.&.w.&.@.@.5.y.4.J 4.4.y.y.5.y.4.4.H.y.y.*.w F *.*.K K &.%.J H #.#.4.4.&.K +.$.*.H *.&.@.P F ",
">.*.w.|.Z.t #.@.@.% ].oXd 4 4 +.8.w.%.G &.y.5.@.5.4.4.4.4.y.y.5.4.t.t.H >.:.G 4.G H K *.&.&.&.&.%.K #.#.#.+.K K &.w.$.*.*.@.@.@.",
"L.+.4.w.w.6.H.H.H.D S XXOXw.@.4 4 G &.&.&.y.6.5.5.4.4.4.4.5.4.4.L H H H H 4.y.y.*.w.w.K K &.J H &.4.K K K K o.H @.8.*.*.*.@...@.",
"*.+.4.+.+.@.H.@.@.J H.H.H.w.w.w.w.w.G &.w.6.y.y.y.J 3 4.4.L 5.5.5.>.H *.:.*.y.y.y.w.&.*.w.&.&.G 7 H @.#.K +.&.&.@.*.*.&.*.+.+.+.",
"K e.e.H , 5 5.5.7 7 @.#.7.4 4 +.w.7.7.< < 8 &.&.9 e *.H H H *.t.H %.8.8.8.t.t.#.t.7.@.@.7.w.&.&.&.K K *.*.@.@.+.+.$.%.$.;.:.@.@.",
"I.e.e.J e.5.5.5.L #.#.#.9 4 +.w.@.J 7.7.G 8 H.H.&.e.e.*.H H *.t.H G 8.8.%.t.t.#.t.I.I.8.@.&.&.&.P.8.K &.&.w.@.#.@.$.6.$.$.6.+.+.",
"L J e.e.e.K 5 K K q 7.1.9 +.w.w.w.G J 1.9.&.H.&.&.e.e.e.*.H 4.H H 8.%.*.&.#.t.t.t.@.6.6.7.&.&.w.P.*.K K &.w.@.@.w.$.6.6.H +.>.:.",
"K , J e.J 5 L ;.5.7.7.#.9 +.7.@.w.7.K G K &.7 8 &.*.H *.H 4.t.H H &.G 8.&.7 #.t.#.@.@.@.+.&.$.&.&.H K H 8.w.@.7 7 H $.%.K @.:.>.",
"H.E.7 4.5.< e.r.e.H.H.@ J 4.4.4.5.&.&.K q t.t.4.t.y.*.:.H %.L.8.8.y.H *.>.G *.w G #.w.w.#.w.w.&.K 5.7.>.0 t.D O   q L +.:.>.@.@.",
"H.E.E.7 4.L K L < J @   J 4.J 4.4 L K q &.t.t.S G *.t.H H %.&.&.%.>.H >.4.8.&.G &.#.q w.w.w.w.w.*.>.5.0   o t.t.H.L +.9 4.:.:.4.",
"H.7 :.7 :.r.r.< L H.J @ J J J J 4 q K L &.*.&.S G H 4.H *.L.L.6.%.>.*.H H &.w.w.w.w.q q w.K K w.*.5.0 5.5.o D t.t.9 4.4.4.:.w.w.",
"#.:.4.E.:.L K < < H.H.L y.4.4 4 J %.&.&.K G &.4.t.4.H H 4.8.8.L.L.4.y.>.H G G &.G #.w.&.#.*.K w.w.5.5.0 5.t.S t.t.P 4.4.4.@.:.w.",
", 7.9.0 O < G 5.5.4 4 H K 4.H 4.*.w.4.w.8.t.4.&.t.+.@.@.y.e.@.@.r.#.#.@.@.@.L 4 5 q 4.&.q @.@.w.w.#.#.8.q 7.5.4 K e.e.L e.w.@.@.",
">     O w 5.5.5.5.K 5.5.L H 4.t.*.:.w.w.4.G 4.t.t.y.y.y.#.r.q.4 4 @.4 @.t.w.w.8.w.&.F q :.@.@.@.@.#.8.8.e 4 >.7.K L , ..e.w.w.w.",
"e.S q 7.7.5.G 5.G 5.5.5.5.*.H H H >.:.:.:.G 4.&.D #.P #.3 r.r.4 4 4 #.t.t.w.@.L L 4.0 L.L.@.w.w.@.#.8.#.9 5.5.5.5.K L K K @.w.8 ",
"e.7.7.7.7.5.4.5.G K K K ..4.*.*.H @.@.4.w.:.:.4.4.3   3 @.@.@.@.#.@.t.@.4 L L @.4 :.:.q 0 7 @.w.w.8.8.#.#.K 5.5.K e.e.e.L 8.#.#.",
"e.4.y.>.>.8.p.#.$.5.6.5.5.e *.e.*.@.@.q q #.@.#.y.t.#.H.&.@ > @.P K &.:.K #.w.w.w.5.6.4 K G G &.%.@.F 5.@.0 7.7.7.t.5.+.4.t.&.&.",
"&.:.y.y.G $.7.<.$.F e e 5.&.G w *.@.@.6.@.%.#.#.4 #.t.t.t.@.P P...K K K 4.#.#.#.#.6.K 4 K G G 5 G @.F 0 @.0 5 7.7.+.+.t.5.&.t.&.",
"*.>.y.:.G #.8.E.P.F 5.Y.5.G e.*.*.@.;.6.@.@.#.y.#.5 7 7 t.P.P P P.K K *.&.#.9 #.w.L K L 5.%.%.G G q 6.5.5.0   0 7.t.t.5.t.t.&.t.",
"&.:.y.:.*.P.P.7.P.5.Y.Y.E.*.e.e.e.+.@.@.6.y.4 #.@.7 &.#.%.P.P.P.P.:.*.w.H #.%.+.w.;.6.5.K G %.5 S F @.@.@.X X 7.7.>.5.+.4.t.q &.",
"w.8.w 8.8.t.t.t.t.4.4.4.w $.e 8.8.e e e H.S + e.e.K K K H V 8.%.V *.4.*.4.*.*.*.*.G S 7.S J w.w.  8 &.0 9 9 *.y.*.+.@.e.e.L L.L "
};
