/* XPM */
static char *result[] = {
/* columns rows colors chars-per-pixel */
"64 64 189 2 ",
"   c black",
".  c #001C01",
"X  c #210800",
"o  c #290C08",
"O  c #291008",
"+  c #311208",
"@  c #3A1408",
"#  c #002401",
"$  c #012B02",
"%  c #043302",
"&  c #063B01",
"*  c #0B3D01",
"=  c #083609",
"-  c #0E3E12",
";  c #103F13",
":  c #2C3804",
">  c #421408",
",  c #421B08",
"<  c #421C10",
"1  c #4A2410",
"2  c #522310",
"3  c #542417",
"4  c #522819",
"5  c #5A2C19",
"6  c #5A3119",
"7  c #612700",
"8  c #623908",
"9  c #633319",
"0  c #633521",
"q  c #6B3521",
"w  c #653B23",
"e  c #6B3C21",
"r  c #6B3E29",
"t  c #733D21",
"y  c #0C4100",
"u  c #114500",
"i  c #154A00",
"p  c #184D01",
"a  c #1B5001",
"s  c #1F5709",
"d  c #164418",
"f  c #1F5113",
"g  c #205502",
"h  c #245B05",
"j  c #296107",
"k  c #2C660B",
"l  c #2F690D",
"z  c #306B0F",
"x  c #2A6411",
"c  c #336D11",
"v  c #326D19",
"b  c #367213",
"n  c #397616",
"m  c #3E7C1B",
"M  c #3B7921",
"N  c #504C0D",
"B  c #6C400E",
"V  c #704B0A",
"C  c #7F4F0A",
"Z  c #644712",
"A  c #764614",
"S  c #724917",
"D  c #7B4C17",
"F  c #486B1B",
"G  c #766D1A",
"H  c #64761C",
"J  c #6D442B",
"K  c #6F492D",
"L  c #734121",
"P  c #734329",
"I  c #7B4529",
"U  c #774A2C",
"Y  c #7B4A2A",
"T  c #7C4D31",
"R  c #407E28",
"E  c #64652C",
"W  c #76793F",
"Q  c #8F1300",
"!  c #A31A00",
"~  c #BC1F00",
"^  c #953609",
"/  c #A52201",
"(  c #B52401",
")  c #B92100",
"_  c #A73204",
"`  c #A33C0D",
"'  c #BB360B",
"]  c #C33E13",
"[  c #8A4607",
"{  c #98410C",
"}  c #824E1B",
"|  c #87551B",
" . c #935D17",
".. c #A74C1C",
"X. c #8C6116",
"o. c #8F661A",
"O. c #804C2D",
"+. c #8C5522",
"@. c #855B27",
"#. c #8E5824",
"$. c #925D29",
"%. c #834E31",
"&. c #845231",
"*. c #895534",
"=. c #8C5935",
"-. c #8C563A",
";. c #8C593A",
":. c #925D3B",
">. c #9C6822",
",. c #96622E",
"<. c #926531",
"1. c #996632",
"2. c #956A36",
"3. c #9C6A35",
"4. c #94623D",
"5. c #98623E",
"6. c #A06E39",
"7. c #BB6D34",
"8. c #A3713C",
"9. c #C44318",
"0. c #C05F2E",
"q. c #C76D3C",
"w. c #946142",
"e. c #9A6542",
"r. c #9C6A43",
"t. c #A36C44",
"y. c #A46D4A",
"u. c #A77741",
"i. c #A37D46",
"p. c #AB7C46",
"a. c #A5714A",
"s. c #AD754A",
"d. c #AD7A4A",
"f. c #AD7552",
"g. c #AD7A52",
"h. c #B57D52",
"j. c #D07240",
"k. c #42811F",
"l. c #4E881C",
"z. c #55911E",
"x. c #448421",
"c. c #468626",
"v. c #4A8B25",
"b. c #4B8E29",
"n. c #548525",
"m. c #5C8625",
"M. c #548B28",
"N. c #4D902A",
"B. c #51942C",
"V. c #559A31",
"C. c #589E34",
"Z. c #648527",
"A. c #689B34",
"S. c #5CA136",
"D. c #5FA639",
"F. c #61A93C",
"G. c #92BF0A",
"H. c #8BA221",
"J. c #95904D",
"K. c #AF814B",
"L. c #B1834D",
"P. c #B58252",
"I. c #B58A53",
"U. c #B98D55",
"Y. c #B5845A",
"T. c #BD865A",
"R. c #BD8A5A",
"E. c #B2975E",
"W. c #BD925A",
"Q. c #BD8E63",
"!. c #D3804D",
"~. c #D68A56",
"^. c #C1965E",
"/. c #C3985F",
"(. c #C59463",
"). c #C59A62",
"_. c #C89E65",
"`. c #CE9E6B",
"'. c #C9A067",
"]. c #CEA56B",
"[. c #D0A86E",
"{. c #CFAA70",
"}. c #D6A673",
"|. c #D3AB72",
" X c #D7B076",
".X c #D9B277",
"XX c #DBB57A",
"oX c #DFB97E",
"OX c #E4BF83",
/* pixels */
"y & i a N.M.G.H.W.,.| | _ m 7 H D.F.z h p a a % $ u % a a a k g a * & &.%.y.T 5 5 w w , e + 0 :.% u a u i i a i % $ x m k 0 g.g.",
"c n c a n l.J.oXOX X| ` [ k.W 9.H D.B.v.a a a y . % a a y a h z i u y y * * y.5 5 w ;.9 ;.0 * u a i i a y u & $ # v B.v g ;.;.;.",
"F.B.F.V.C.V.W OXOXXXK.` o.x 8..X9.H D.V.a a & y # = u y y y a R y a * u % i a a u y * % u y i a u * y a u = $ . M F.C.m y ;.0 0 ",
"F.C.F.F.x.c.W XXOXW.K.` o.y P @.2.' H D.b a y y % = & u u a a b x p a a a a a i y a a a * * y a i % * a * ; $ c.C.C.F.v.T 4 ;.T ",
"F.v.F.v.* c J.}./.OX} _ N.y 4.. N  X9.S.m p y a % % % a a a a l M * % = $ $ a a i $ y u u y i = - = u * $ # R S.v.b.F.c U 5 &.g.",
"x.a h x.x.F OX).U.U.t ~ V.y # % y ).~. .N.b a a a # * a a i y h F.$ # $ . * * $ = d % a u % d - $ . . # = c.F.F.V.v.S.Y U P.&.&.",
"c.F.n.v : I.I.2.1.V D ~ F.u $ i b D u.' S.m p a a . u a a u * a F.u x f = . # $ $ # * . $ $ $ # # = f R S.C.V.F.V.F.b.Y U -.5 5 ",
"Z f Z +.1.d.i.u.$.+.+.~ F.a % a V ..2.j.Z.N.y i a . % a * * u a B.R V.F.F.F.F.f f f f f f f g F.C.B.F.V.V.n b.b.F.b.r w w 5 %.T ",
"OXOXOXOXOXOXOXOXOXL.+.~ F.g y c / W.i.OX[ N.u y a # % a a y y y R R z.m F.B.S.F.F.V.V.F.F.F.F.F.V.m b.F.m V.b.F.N.w.e e 4.i.a.5 ",
"OXOXOXOXOXOXOXOXOXOX$.~ S.R a { { {.).^.C b.a y % $ $ a i a a u m N.m F.F.B.c n C.F.F.v.R V.F.F.V.m F.V.F.F.F.b.y.4.e L 4.T T %.",
"OXOXOXOXOXOXOXXXOXOXU.~ v.c y ..I.I.u.1.G n a u $ $ * a % i a y k.B.k.F.S.B.c v.F.F.V.k.n m F.F.F.F.S.B.V.F.b.U y.4.R.4.e 5 a.&.",
"oXOXOXOXOXOXOX_.OXOX1.~ N.V.y E.XXOXOXK.m j i a % % a a a u a a k.F.m F.F.F.F.V.B.S.v.c F.F.F.F.F.F.F.F.C.s.T 3   > r.r.r 4.Y.Y.",
"[.OXOXOXOXOX'.W..X^.+.) Z.D.s E .X].L.d.l a % i = % g a i a a a V.F.m D.F.F.F.x.V.F.F.F.F.F.F.F.S.C.N.a.y.%.T 3 3 > > L r.4.t 4.",
"L.].OXOXOXOXW.|.3.+.} ^ X.N.s y .X&.d.d.n y a * % * a * y y i g F.F.j m N.S.C.C.C.C.C.C.C.F.m m T.%.3 a.T %.s.%.T r.r r.r.4.L Y.",
"L./.[.OX.X].K.D } D $.{ [ V.l.a & &.&.c j a * % # a a % a u u m N.F.1.g.g.&.:.:.:.a.a.O.a.-.T.-.^.O.O.a.T s.s.%.%.r.r.t r L L 4.",
"|./.8.6.<.T @.(.OXOX|.$.) D.D.V.a % k j u $ $ # a a a a a a h z C.F.T &.T 9 9 &.&.O.e.O.t.y.y.-.t.2 2 2 *.r.Y.Y.r.r.&.r.r.:.t t ",
"OXOXOXOXOXOXOXOXOXOXOXW.` X.F.B.B.a u # # # a a a & & % a s B.B.x.b.T 2 %.9 9 %.&.e.r.9 O.y.=.K y.h.*.2 2 ;.;.;.;.Y.r.&.&.:.g.;.",
"OXOXOXOXOXOXOXOXOXOXOXOX+.~ S.b.k.k.h a a a % % y y p y a c F.F.F.m g.%.T %.9 9 &.O.e.e.O.P y.;.t %.&.%.h.Y.Y.-.;.Y.&.&.&.:.g.P.",
"OXOXOXOXOXOXOX[.OXOXOX'.+.` X.n C.n F.B.B.h y y a j s b V.F.F.F.D.g.%.2 2 9 a.&.9 9 O.e.&.=.;.;.P %.&.&.&.y.r.-.Y.Y.r.&.&.;.g.K.",
"OXOXOXoXOXOXOXOX'.OXoX3.+.A ~ n.F.F.F.F.S.F.F.F.B.v.D.S.b.N.N.F.n.:.w :.;.y.T.r.&.t.;.;.r.&.&.&.&.:.a.a.:.Y Y Y 4.T h.w.w.f.w.w.",
"OXOXOX[.OXoXOXOX8.).+.+.B ,.` ) B.F.V.N.B.x.k.b.N.F.x.D.h D.N.M.Q 9 e :.:.t.%.&.&.;.;.t.P.e.e.T e.a.y.y.:.4.g.g.I e.w.T e.f.4.:.",
"oXoXOXOXU._.XX).+.A S W.OXOXu.` ~ M.D.N.k.F.B.l x.F.D.D.N.F.M.Q 8 ;.:.:.e %.%.t.t.;.y.r.t.e.e.r.g.I I :.;.4.4.:.f.h.w.e.w.Y Y w.",
"OX[.W.p.1.S V @.OXOXOXOXOXOXOX+.` ) H S.F.F.B.x.F.F.F.D.F.M.! +.4.:.P.P.:.t.&.&.&.h.P.r.;.&.g.g.g.:.a.:.:.Y Y Y h.w.e.h.h.:.:.4.",
"OXOXOXOXOXOXOXOXOXOXOXOXOXOXOXU.+.+.~ ] F A.F.F.F.F.D.m.[ ( i.$.I Y Y e =.a.y.a.I r.r.%.e.r.r.I r.%.g.g.O.y.y.P P Y O.t.t.4.a.a.",
"OXOXOXOXOXOXOXOXOXOXOXOXOXOXoX+.+.A #.+.) ) ~ ~ ~ ~ ~ ) +.+.A Y *.I e e Y :.a.:.:.O.t.e.h.(.t.e.T.%.%.%.%.`.`.y.y.4 4 4 Y &.&.4.",
"oXOXOXOXOXOXOXOXOXOXOXOXOXOX6.+.A #.OX[.+.+.A #.+.+.A U.].A ;.Y =.Y Y I 9 Y :.:.-.t.5.h.h.:.Y e.e.g.}.}.g.y.P P r.t.U T a.a.4.a.",
"D <.oXOXOXOX].OXOXOXOXOXOX6.+.8 R.OXOXOX8.+.A OX].+.i.OX`.=.;.&.&.=.*.#.=.y.a.:.I O.e.h.%.I I Y Y %.f.g.%.r P r P Y t.Y t.a.&.4.",
"OXOXi.$._.OX].oX'.OXoX_.A B W.OXOXOXOXOXI.A W.OXoX3.OXOX&.=.=.&.&.&.Y *.&.=.e.*.=.Y =.r.O.-.Y -.T T T T h.:.g.;.r T r.T %.%.%.e.",
"8.OXU.OXOXOXU.+.+.A 8 OXOXOXOXOXOXOXOXOX+.i.].OX].U.].&.&.4.4.&.%.*.+.*.*.=.=.=.e.=.=.=.5.r.T ;.e.e.h.T T g.g.g.;.T T T T q e.e.",
"OXOXa.a.].].OXOXOXOXOXOXOXOXOXOXOX[.8.8.i.OXOX].+.&.&.=.:.=.&.&.%.&.:.:.I Y 6.I r.6.Y Y r.;.T ;.-.e.w.T T g.e g.;.r.R.T T e e.e.",
"OXOXa.a.;.+.U.].OXOXOXOXOX].OXOXOX].A i.OXOX8.e e %.e.&.O.=.&.&.&.O.Y Y &.e.*.I Y =.=.=.Y r.5.T T 5.e.w.h.g.g.;.;.T t.r.T %.%.e ",
"OXU.:.h.h.e.&.&.+.+.8.].OXOX].+.+.OXOXU.+.s.:.s.Y :.:.:.r.:.Y =.O.:.*.Y *.4.e.:.Y Y =.5.=.4.*.I *.:.r.r.:.a.Y.:.:.%.%.%.e.4.Y 5.",
"OXOXt P :.&.e &.e.*.-.a.a.a.^.a.s.:.%.%.a.s.s.s.:.:.%.%.;.T T *.Y :.*.&.:.:.f.h.4.r.r.=.=.&.+.%.*.:.e.t.r.:.:.s.:.O.t.h.h.w.4.4.",
"OXOXw.P h.e.e e.r.a.*.a.s.R.T.a.a.s.a.w.5.s.:.Y 4.r.:.;.%.T :.:.T Y *.:.+.O.g.4.4.e.r.r.Y I *.:.*.:.5.-.r.a.:.:.:.6.%.5.e.:.f.g.",
"OXU.I.4.h.&.r e.e.y.*.e *.a.R.R.:.:.a.a.a.s.:.4.:.O.:.%.%.T -.*.T Y *.:.:.g.4.Y :.t.t.6.Y *.1.*.*.&.%.%.t.y.:.:.Y.h.%.%.%.Y g.g.",
"].OXOXO.a.&.&.&.%.:.g.t.:.:.4.&.a.y.:.:.y.g.w.e.e.I P -.-.P *.*.*.&.&.&.&.:.:.:.:.e.:.5.s.:.:.:.:.&.&.e.%.*.=.=.t.t.5.t.e.;.*.*.",
"OXOXOXY a.r.r.&.&.:.:.h.P.a.T &.w.s.y.y.a.e.f.g.e.P -.-.P P r.r.=.&.&.4.*.:.:.:.:.&.&.5.5.I %.:.:.5.w.&.e.*.t.t.r U r.P e.g.=.*.",
"OXOXOX+.a.r.&.r.&.t.t.:.r.a.a.w.%.:.y.y.:.&.e.g.w.P y.y.t *.*.*.*.&.2.a.a.:.:.#.*.1.:.*.&.&.:.I :.f.f.h.g.t.t.6.6.5.K P U &.*.9 ",
"OX].`.OX'.&.r.Y.r.:.r.:.r.f.&.a.s.:.%.w.&.&.w.&.&.y.y.y.-.I P r.*.&.a.d.4.Y I &.%.%.&.&.O.:.%.%.:.%.e.&.&.t.*.t.t.U 1 P e.9 9 g.",
"q.OXOXOXOXw.I g.g.P.:.:.Y.r.r.r.r.*.%.(.a.;.i.e.a.f.h.4.:.e.:.5.%.K P 5.P Y Y 5.O.%.O.*.*.%.:.:.6.O.I I I a.I a.I P P 4 4.a.&.T ",
">.OXOXOXOX^.Y Y :.P.P.:.:.r.`.r.r.(.&.&.&.;.r.a.r.Y g.4.Y 4.s.5.4.P P t P Y I I Y I I I 5.%.%.t.;.Y *.Y 4.:.I :.a.:.4 P 4 6 6 &.",
"D.>.!.OX].OXoX4.h.w w P.e r.`.r.`.(.&.&.a.a.r.;.;.4.4.I Y 5.s.s.%.P P P P Y :.1.Y I I &.:.:.%.:.O.Y Y Y Y Y ;.=.:.4.:.U 4.T 6 6 ",
"x.D.A.o.OXOXOX^.4.;.;.P.e e r.`.r.s.a.a.a.;.*.;.a.w.Y 4.g.:.5.s.%.P e.R.r.s.s.:.:.4.&.&.&.%.%.%.%.I *.*.I I =.4.:.:.1.4.4.T a.T ",
"Y.a.b.D.>.[.W.OXW.P.P.P.h.a.%.a.a.a.;.a.;.&.&.r.h.w.P w.w.h.h.e.h.w.w.g.g.h.:.P P :.:.Y Y ;.-.U Y *.*.w.w.;.I &.=.:.I -.:.%.%.S ",
"4.w.y.y.V. .OXOX]./.  O O 5 5 &.a.y.;.P ;.h.r.&.e.w.w.w.w.h.h.e.w.g.g.I 4.:.P w.P Y Y :.;.;.-.;.;.Y *.*.*.*.I Y ;.y.:.:.:.&.&.&.",
"Y.%.:.s.a.V.>.3..X].U U P.a.T 5 5 P ;.;.;.h.e.e.r.w.w.w.w.w.e.w.T Y I I I w.h.h.:.a.y.Y Y ;.U P ;.w.U Y Y I &.Y &.t.:.-.=.&.&.&.",
":.%.w.%.%.&.A.!.OX6.P.L.P.a.a.a.a.a.P ;.a.r.h.h.h.P 3 w.w.T w.e.e.4.I 4.4.:.h.h.h.a.:.:.a.;.;.U 0 I *.*.I &.-.=.&.:.:.:.:.&.O.&.",
"Y s.s.Y < 9 M...].].&.*.t.5 5 %.a.t.t.1 1 0 ;.;.0 I :.I I I w.f.I -.y.y.y.h.f.*.d.t.&.&.t.a.;.;.;.Y I :.:.&.&.&.&.=.=.=.e.:.&.&.",
"R.s.s.U s.e.S.q.OXU.*.*.q 5 %.a.&.U t.t.Y 0 P.P.;.a.d.:.I I :.h.I U y.y.;.g.g.*.g.R.R.r.&.;.;.;.T.y.Y :.:.a.&.&.&.;.r.=.=.r.&.&.",
"T U s.s.s.N.o.].U.t t.8.t O.a.a.a.U U 6.t.;.P.;.;.d.s.s.:.I 4.I I y.-.-.;.*.g.g.g.&.y.t.y.;.;.a.T.:.Y I ;.a.&.&.a.=.r.r.I %.e.:.",
"U < U s.b.F.0.U.e.t.t.&.w %.a.O.a.t.Y U I ;.0 0 ;.:.I :.I w.f.T I -.U y.;.9 *.f.*.&.&.&.&.;.;.;.;.Y Y I y.a.&.9 9 I =.*.Y &.:.5.",
"P.(.9 w.F.7.6.d.s.P.P.@ Y w.w.w.w.;.;.Y 9 P.g.w.g.h.:.5.I -.Y.r.y.h.I 5.4.P :.r P *.a.a.*.y.a.;.Y e.e.e.w K.K o   w %.%.w.4.&.&.",
"P.(.(.9 4.U U Y 1 U @   U w.P w.5 Y Y e ;.g.f.J P :.f.U I -.;.-.-.e.I :.4.a.;.P ;.*.e a.a.a.a.a.:.5.e.w   o g.g.g.T %.e w.4.4.4.",
"P.9 4.9 4.d.d.1 T P.U @ U T U U 5 e T Y ;.;.;.J t I w.I w.Y.Y.y.*.:.:.O.I ;.a.a.a.a.e e a.Y Y a.:.e.w e.r.o K g.g.q w.w.w.4.a.a.",
"=.w.4.^.4.Y T 1 1 P.P.U h.w.5 5 U -.;.;.Y P ;.w.g.w.I I w.y.r.Y.Y.e.h.:.I P P ;.J &.a.*.&.;.Y a.a.e.e.w e.g.K g.g.&.w.w.w.&.4.y.",
"< t.t.J O 1 P r.e.5 5 Y Y w.I w.w.a.w.a.a.g.w.:.g.*.&.&.h.s.&.&.s.&.*.-.&.&.T 5 5 J :.w.S &.&.a.a.*.=.y.e e.e.5 U s.s.T s.a.*.&.",
",     + r e.e.e.r.Y e.e.Y I :.f.4.4.a.a.4.U w.g.g.h.h.Y.&.d.d.6 5 *.6 &.g.a.a.a.a.w.w e 4.&.&.&.&.*.y.y.e 5 e.5.Y Y < O.s.a.a.a.",
"s.J e t.t.e.P e.P r.e.e.t.w.I I I 4.4.4.:.P ;.4.P &.&.&.4 d.d.6 5 5 &.g.g.a.T T T 4.e Y.Y.&.a.a.&.*.a.*.e e.e.t.r.T T Y Y *.a.0 ",
"s.t.t.t.t.e.e.e.P U I T Y w.:.w.Y &.&.w.a.;.w.w.w.4   4 &.&.&.&.&.*.g.&.5 T &.T 5 4.;.e 9 9 *.a.a.a.y.*.-.Y e.e.Y s.s.s.T a.*.&.",
"s.w.h.4.w.t.!.%.=.e.e.w.e.t :.s.=.*.*.9 e *.*.*.P.g.&.P.*., , &.T Y :.:.Y -.a.a.a.r.r.5 T P P ;.-.&.e r.&.0 6.t.t.f.e.%.w.g.;.;.",
";.4.h.h.P *.t.t.=.L L L e.:.P P :.&.&.r.&.*.*.*.5 ;.g.g.g.&.T R.T I Y Y 4.*.*.*.*.e.T 5 Y P P 6 P &.e e &.0 w t.t.%.%.g.e.;.g.;.",
":.4.h.4.U *.t.^.T.L e.Q.w.P s.;.;.&.r.r.&.*.*.h.*.6 9 9 g.T.&.T R.Y Y :.;.*.q *.a.Y Y T r.-.-.P P e r.r.r.0   w t.g.f.w.g.f.;.g.",
":.4.h.4.4.T.T.t.T.e.Q.Q.Q.:.s.s.s.*.&.&.r.h.5 *.*.9 *.*.*.R.T.T.R.:.:.a.I -.*.*.a.r.r.r.Y P -.6 I 9 &.&.&.X X t.t.5.e.%.w.g.e ;.",
"a.y.r y.y.g.g.g.f.w.w.w.r =.L y.y.t t t P.J + s.s.Y Y U Y L a.=.L :.:.w.:.:.:.:.:.L J t.J U a.s.  w -.w q t :.P.:.%.&.s.d.T Y.T "
};
