/* XPM */
static char *result[] = {
/* columns rows colors chars-per-pixel */
"64 64 166 2 ",
"   c black",
".  c #210800",
"X  c #290800",
"o  c #290C00",
"O  c #290C08",
"+  c #291008",
"@  c #311008",
"#  c #311408",
"$  c #3A1408",
"%  c gray19",
"&  c #421408",
"*  c #421808",
"=  c #421C08",
"-  c #421810",
";  c #421C10",
":  c #4A2010",
">  c #4A2410",
",  c #522410",
"<  c #5A2410",
"1  c #522810",
"2  c #522419",
"3  c #522819",
"4  c #562B19",
"5  c #5A2819",
"6  c #5A2D19",
"7  c #5A3119",
"8  c #632D19",
"9  c #633119",
"0  c #633519",
"q  c #633121",
"w  c #633521",
"e  c #6B3521",
"r  c #633921",
"t  c #673921",
"y  c #633B25",
"u  c #673D25",
"i  c #673F25",
"p  c #6B3921",
"a  c #6B3D21",
"s  c #6B3D25",
"d  c #6B3F25",
"f  c #6F3F25",
"g  c #6B3D29",
"h  c #6B3F29",
"j  c #733D21",
"k  c #733F25",
"l  c #6F4329",
"z  c #6B452D",
"x  c #6F492D",
"c  c #734121",
"v  c #734129",
"b  c #734329",
"n  c #734529",
"m  c #734729",
"M  c #77472D",
"N  c #7B4529",
"B  c #774929",
"V  c #77492D",
"C  c #774B2D",
"Z  c #7B4929",
"A  c #7B492D",
"S  c #7B4B2D",
"D  c #7B4D2D",
"F  c #775728",
"G  c #7B4931",
"H  c #7B4D31",
"J  c #7F4D31",
"K  c #7F4F31",
"L  c #7F5131",
"P  c gray40",
"I  c #804B2D",
"U  c #804D2D",
"Y  c #804D31",
"T  c #804F31",
"R  c #844D31",
"E  c #844F31",
"W  c #805131",
"Q  c #845131",
"!  c #845331",
"~  c #845531",
"^  c #845335",
"/  c #885331",
"(  c #885531",
")  c #8C5531",
"_  c #885335",
"`  c #885535",
"'  c #885735",
"]  c #8C5735",
"[  c #8C5935",
"{  c #8C553A",
"}  c #8C573A",
"|  c #88593A",
" . c #8C593A",
".. c #8C5B3A",
"X. c #90593A",
"o. c #905B3A",
"O. c #94593A",
"+. c #905D3A",
"@. c #905F3A",
"#. c #945D3A",
"$. c #905D3E",
"%. c #905F3E",
"&. c #945F3E",
"*. c #94613A",
"=. c #94613E",
"-. c #94633E",
";. c #98613E",
":. c #98633E",
">. c #946142",
",. c #986342",
"<. c #986542",
"1. c #986742",
"2. c #9C6542",
"3. c #9C6742",
"4. c #9C6942",
"5. c #9C6D42",
"6. c #9C6946",
"7. c #9C6B46",
"8. c #A56942",
"9. c #A56D42",
"0. c #A06B46",
"q. c #A06D46",
"w. c #A56D46",
"e. c #A06D4A",
"r. c #A06F4A",
"t. c #A56D4A",
"y. c #A56F4A",
"u. c #A5714A",
"i. c #A5734A",
"p. c #A5754A",
"a. c #A0734E",
"s. c #A9734A",
"d. c #AD714A",
"f. c #AD754A",
"g. c #A9754E",
"h. c #A9774E",
"j. c #AD794A",
"k. c #AD7552",
"l. c #AD7952",
"z. c #AD7D52",
"x. c #AD7D56",
"c. c #B57D52",
"v. c #09BD00",
"b. c #CD9A00",
"n. c #B58252",
"m. c #B18256",
"M. c #BD8652",
"N. c #B5825A",
"B. c #B5865A",
"V. c #BD865A",
"C. c #BD8A5A",
"Z. c #BD8E5A",
"A. c #BD8A5F",
"S. c #B6BC45",
"D. c #BD8A63",
"F. c #BD8E63",
"G. c #C59263",
"H. c #C59663",
"J. c #CE9A63",
"K. c #CE9A6B",
"L. c #CE9E6B",
"P. c #D6A673",
"I. c #CBBA8A",
"U. c #E6B684",
"Y. c #FFB9DA",
"T. c #FFFEF9",
/* pixels */
"q.f.:.Q f.u.u.Q u.C.4.Z Z a [ [ [ ` ` ` >.t.t.t.t.d @ d 9.` w w ` E 6 E E t.Y 6 6 t t * t @ w O.w k k k k T -   T 6 S 6 6 w z.z.",
" .:.f.:.:.=.=.=.=.4.4.4.4.a [ f.f.>.` Z ` t.t.u o d 9.9.9.w w f.` E E E E t.t.6 6 t  .t  .w @ O.w , , O.k - - - - 6 S 6 S | | | ",
" .f.f.f.Q =.u.=.Q Z Z 4.4.f.[ [ [ ` ` Z >.t.t.u u 9.9.9.9.f.` ` f.E d.E E t.t.Y t. . .t  .w w w O., , O.k - M.M.- S S S 4.| w w ",
"u.F.*.h.*.l.K.l.l.q. .q.n.c.v v v ' ' ' u.C.C.n 1.N.N. .N.3.R R n.n <.<.n x.n x.x.c.a a a : : n n 6 6 ^ ^  .:  .: * S * S 5 ^ ^ ",
"u.*.h.*.*.A.l.l.l.q. . .q.c.&.&.v ' ' a u.n 1.1.1.N. . . .R 3.R 3.V.<.<.n n n x.n a +.+.+.n : n n 6 6 6 l.: :  .s c.c.S S 5 ^ z.",
"] *.*.*.*.l.K.A.l.q.q. .q.c.c.&.v ' ' a a n n C.C.N.9 N.N.3.n.3.R <.n <.n n n U.x.a c.a a 4.n 4.n 6 l.6 6 :  . .: S c.S S z.^ ^ ",
"u.F.*.h.h.l.K.K.K.n.n.q.q.c.&.v v ' ' ' u.C.C.C.C. .N.N. .n.n.3.3.<.<.n n n n n n a a +.+.4.4.n n ^ l.^ 6 s  . .s * S S S ^ 5 5 ",
"m.g.F.#.g.i.J.J.i.p.p.p.p.V.3.Z Z ! ! ! ! D D u.D $.G.G.$.l.l.=.=.A *.*.A L L L z.u.& u.u.R R 4 4 p.p.! p.t.t.t.t.a a a a 5 T T ",
"2.#.F.F.g.H H H i.=.R =.p.3.Z Z 3.a ! 4.a u.D 1 u.$.G.$.5 Z Z =.=.*.*.A q , z.z.z.u.b u.b R R 4 4 p.p.9 ! t.: : t.-.a a -.p.p.5 ",
"2.g.#.F.F.H H H i.=.R R =.Z 3.V.V.! ! 4.a u.u.D D   5 $.$.Z Z Z =.A *.*.*.L L L L u.b u.u.4 R R 4 9 9 9 ! M M M t.-.a a -.T T T ",
"m.F.g.#.g.i.H H H R =.=.=.Z 3.V.3.a 4.4.! % % D u.$.$.$.$.Z Z Z Z *.A q A % % L , b b b b 4 R R X ! 9 ! ! : M M t.-.C.-.a 5 p.T ",
"V.N.%.%.%.i.Q Q i.6.Z 6.6.N 4.N N j.j.! ! % v.% 3.4.Q p Q ' 7 ' c.&.N &.&.% v.% U E E E 8 } } 5 5 I I I I f.J 2   & 4.4.f =.N.N.",
"=.%.N.N.%.i.Q Q Q 6.Z D.6.] 4.4.4.j.j.j.6 3.% v.% Q Q Q Q c.7 7 7 N N N N % v.% #.E u.8 8 } 5 5 } I I u.u.J J 2 2 & & f 4.=.c =.",
"a a %.N.%.Q H.i.i.D.6.Z Z ] ] 4.4.! j.j.j.Q % % v.% % 4.4.c.7 7 7 N &.&.&.% % v.% u.u.E E } } } V.I < u.I J f.J J 4.f 4.4.=.c N.",
"=.a a %.a Q i.H.H.D.Z Z 6.4.] N ] ! ! ! 6 Q Q % % v.v.% % ' c.c.' l.&.l.l.% % v.% u.u.E u.} V.} V.I I u.I f.f.J J 4.4.f f c c =.",
"z.1.v v v p p p p W W 5.5.[ [ [ u.% % U 0 2 v % % % v.v.v.% % % ) z.K K K % % v.% U 2.U 2.t.t. .t., , , Q e.N.N.e.7.Q 7.7.+.j j ",
"z.1.v T.v p 2.2.2.W W 5.5.[ [ u.u.% I.% 2.v #.#.% % v.v.v.v.v.v.% % % % % % v.% v.% 2.0 U t. .n t.c.Q , ,  . . . .B.7.Q Q +.z.+.",
"c v 1.1.1.E E 2.2.w W w W u.u.[ [ 2.% I.% % #.#.% % % v.% v.v.v.v.v.v.v.v.v.% % v.% 2.2.U n t. .n Q Q Q c.N.N. . .B.Q Q Q +.z.z.",
"@.1.Z.Z.1.E 2.E E W 5.W w c [ u.[ U U % I.I.% % #.% % % v.v.v.v.v.% % v.v.v.v.v.v.% U 2.U  . . .n Q Q Q Q e.e. .N.B.7.Q Q +.z.z.",
"l.0. .0.c.B.B.O.O.V.~ ~ ~ p E E 2.<.l.% I.I.I.I.% % % % v.v.% % v.% v.v.% % % v.v.%  . .q.Q Q Q Q o.u.u.o.Z Z Z =.G c.,.,.k.&.&.",
"=.c.c. .0.y.O.y.O.q.~ ~ ~ E E E 2.<.Q % % I.I.% % #.% % % v.% % v.v.v.% % P P % v.%  .q.n.1.1.Q 1.u.u.u.o.=.l.l.Z ,.,.G ,.k.&.&.",
"Z 0.c.c.c.y.O.y.y.~ ~ ~ ~ 2.2.E 2.<.Q Q % % % v.v.% % % v.v.v.v.v.v.v.% % % P % v.% q.q.q.1.1.1.z.N N o.o.=.=.=.l.c.,.,.,.Z Z &.",
"=. .c.c.0.y.B.y.O.~ ~ ~ ~ E E E E <.l.l.Q % % v.% % % v.v.v.v.v.% % v.% % % P % v.v.% q. .Q z.z.z.o.u.o.o.Z Z Z l.,.,.c.c.&.&.&.",
"l.<.<.<.z.3.C.3.N +.+.Q Q Z [ Z [ :.:.f.Q Z % v.v.% % % v.v.v.v.% % v.v.% % % % v.v.% R 2.3.3.Z 3.R l.l.R r.r.v v S S 9.9.=.u.u.",
"<.<.R <.z.C.C.3.N +.Q +.4.4.[ [ 4.f.f.f.Q Z *.% v.v.% % % % % v.v.v.v.v.v.% % % v.% 2.2.c.V.3.3.V.R R R R L.L.r.r.3 3 3 S Q Q =.",
"<.<.<.R R 3.C.3.N +.+.+.+.4.[ [ [ Q f.f.Q Z ( % v.v.v.% % % % % % % v.v.v.v.% v.% 2.2.c.c.3.Z 3.3.l.P.P.l.r.v v r.9.S S 9.u.=.u.",
"Q <.z.<.<.3.N N 3.4.+.+.+.4.4.[ 4.Q Q Q Q ( ( % v.v.% % % % S.% % Y.% % v.v.% v.% R 2.c.R Z Z Z Z R l.l.R v v v v S 9.S 9.u.Q =.",
"q. . .C.C.i. . .i.y.y.#.y.#.#.#.B.j.:.R R +.% v.% v.% % S.S.% S.S.% Y.% % % % % ] Z [ 4.Z  .H  .H H H H c...l...a H 7.H H E E 2.",
"z.u. .u.C.i.i.i. .y.y.#.y.#.#.#.u.j.:.:.:.% v.v.v.% % v.% % S.S.% S.% % % b.b.% 2.[ [ [ 4.2.H  .2.<.c.H H l.l.l...H H H H p 2.2.",
"q.u.u.u. . . .i.Z.N.#.#.#.#.#.u.#.R R :.j.% v.v.% v.v.% v.v.% S.S.% S.S.% F F % % 4.Z Z 4. .H  . .<.<.H H l.a l...7.C.H H p 2.2.",
"z.u.u.u. .i. . .i.N.#.y.#.#.u.#.#.:.R j.% v.v.% v.v.v.% v.v.v.% % % S.% b.b.b.% % [ [ [ Z 2.2.H H <.<.<.c.l.l.....H 7.7.H E E p ",
":.&.&.c.c.2.Q Q Q ` u.u.u.#.#.#.#.R R &.% v.% % % % % % v.% v.v.v.% % F F F % v.% Z [ 4.[ *./ N / o.4.4.o.u.B.#.#.R R R 3.=.Z =.",
"f.&.v v &.Q a Q 2.` ` u.u.s.C.s.s.&.R R % % % S.S.S.% % % v.v.v.% v.% % % % % % -.4.% % % % / / / o.4.4.4.#.#.u.#.R 3.n.n.=.=.=.",
"f.c.&.v c.2.a 2.2.u.` u.u.C.C.s.s.u.u.&.% v.% S.S.% % % % % v.v.v.v.% v.v.% S.% % % S.% S.S.% *./ o.4.o.4.u.#.#.#.3.R 3.3.=.l.l.",
"Q &.c.&.c.Q a 2.2.u.` p ` s.C.C.#.&.u.% v.% % % % % % % v.% % % % % % % % % % v.v.% S.% S.S.% / / R R R 4.u.#.#.B.n.R R R Z l.l.",
"j.p., D p.Q Q Q Q #.z.q.#.=.=.Q u.t.% v.% % v.% S.S.% S.% % b.% % % % % b.% % v.v.% % % S.S.% #.#.Q Q <.Q ` ` ` 9.2.2.2.2.' ' ' ",
"j.p.D D p.6.6.Q Q #.#.z.z.u.Q Q =.t.% v.% % v.% S.S.% S.% b.b.% % % % % % % % % % % S.% S.S.% #.#.<.<.Q <.` 9.9.g n 2.n 2.z.' ' ",
"Q D p.p.p.6.Q 6.Q q.q.#.q.u.u.=.Q % v.% % % v.% S.S.S.% % % % % % % % % % % % % / % % % % % #.n #.l.l.l.l.9.9.9.9.2.n n n ' ' 9 ",
"5 D D D p.Q 6.N.6.#.q.#.q.u.Q u.u.% v.% % % % % S.S.S.% % % v.v.v.v.% v.% % % % / Q Q Q Q #.Q Q #.Q <.Q Q 9.` 9.9.n > n 2.9 9 z.",
"a ! a ! 4.=.Z l.l.n.+.+.n.7.7.7.7.% v.% % % % % % % % % % % % v.v.v.% v.% S.% % % / N / / R X.2.2.Z Z Z Z u.N u.N n n 3 *.u.W W ",
"&.4.4.! 4.l.Z Z =.n.n.+.+.7.L.7.7.% v.% % % % v.v.v.v.% % S.S.% v.% % v.% % S.S.S.% N N *.R R 2.X.Z ` Z >.o.N o.u.*.3 n 3 7 7 W ",
"a a ! a 4.=.Z =.l.p p n.p 7.L.7.L.% % % % p.1.% v.v.% % % S.S.S.% b.b.% % % % S.% v.% / *.X.R X.R Z Z Z Z N o.o.o.*.*.n *.W 7 7 ",
"&.! a ! ! =.=.=.=.+.+.n.p p 7.L.7.i.i.i.i. . . .% % % % S.S.% S.% F F % % % S.% % v.% / / R R R R Z ` ` Z N o.o.o.*.*.*.*.W u.W ",
"N.u.u.u.R Q 4.Q Q n.n.n.n.u.T u.u.u. .u. .Q Q 3.c.>.% % % S.% S.% % % % % % % S.% v.% Z Z  . .M M ` ` >.>. .Z Q  .o.N o.o.Q Q a ",
"=.&.u.u.R Q Q Q Q x   + + 6 6 T u.u. .v  .c.3.Q 3.% % v.v.% S.% ,.z.z.N % % % % % % Z +.+. . . . .Z ` ` ` Q Z Z  .u.o.o.o.Q Q Q ",
"N.R &.u.u.4.n.n.n.x x x n.u.T 6 6 v  . . .c.3.3.3.% % v.v.% % ,.G N N N % % % v.v.% u.Z Z  .M M  .>.Z Z Z Z Q Z Q u.o.o.o.Q Q Q ",
"=.R &.R R Q n.Q Q x n.n.n.u.u.u.u.u.v  .u.3.c.c.c.% % % % v.% ,.,.=.N =.% % % v.v.% +.+.u. . .M w Z ` ` Z Q  . .Q o.o.o.o.Q Q Q ",
"C f.f.V ; 7 2.2.7 p / / 9.6 6 T u.9.9.> > w ....w % % v.v.v.% l.N  .t.t.% % % % % % % % q.y. . . .Z Z o.o.! ! ! ! ] ] ] 4.+.Q Q ",
"C.f.f.V f.2.2.2.S / / / p 6 T u.T B 9.9.B w n.n...% % % v.v.% l.N n t.t.% % % S.% % S.S.%  . . .V.t.Z o.o.u.! ! ! ] 4.] ] 4.Q Q ",
"C V f.f.f.S 7 S S p 9.9.p T u.u.u.B B 9.9...n.....% % % % % &.N N t. .% S.% % % S.S.% % S.%  .y.V.o.Z Z o.u.! ! u.] 4.4.N Q 4.+.",
"C ; V f.V 7 S 2.2.9.9./ p T u.T u.9.B B B ..% % % % % S.S.% % N N  .n % S.% % % % S.% Q % %  . . .Z Z Z t.u.! 0 0 N ] ] N Q +.4.",
"n.G.0 -.-.> f.f.f.n.n.$ C >.>.>.>. . .S a % S.% % % S.% % S.S.% e.c.N ;.% v  .v % % % u.' u.u.+.Z 2.2.2.y z.z O   p Y Y >.=.Q Q ",
"n.G.G.0 -.D D D > C $   C >.M >.6 S S a  .% S.% % % S.% % % % % { ;.N ;.;.u. .v  .' a u.u.u.u.u.+.2.2.y   O z.z.z.Y Y p >.=.=.=.",
"n.0 -.0 -.f.f.> D n.C $ C M M M 6 a S S  .% % v v % % % &.B.B.e.{ ;.;.N N  .u.u.u.u.a a u.Z Z u.+.2.y 2.2.O z z.z.p >.>.>.=.u.u.",
"' -.-.G.-.D D > > n.n.C n.>.6 6 M  . . .S v $.$.l.&.N N &.e.e.B.B.;.c.;.N v v  .v ' u.' ' +.Z u.u.2.2.y 2.z.z z.z.Y >.>.>.Q =.u.",
"; 9.9.i + > n 2.2.6 6 A A &.N &.&.u.=.u.u.l.%.%.l.^ ^ ^ c.j.! ! j.^ ^ ^ ^ T T 6 6 a %.%.a ! ! u.u.` ` t.a 2.2.7 S f.f.S f.u.^ ^ ",
";     + i 2.2.2.2.A 2.2.A N &.l.&.=.u.u.=.n %.l.l.c.c.c.^ j.j.6 6 ^ 6 ^ l.u.u.u.u.%.a a %.! ! ! ! ` t.t.a 7 2.2.S S : S f.u.u.u.",
"f.i i 9.9.2.n 2.n 2.2.2.2.&.N N N =.=.=.=.n %.%.n ^ ^ ^ 3 j.j.6 6 6 ^ l.l.u.T T T %.a N.N.! u.u.! ` t.` a 2.2.2.2.S S S S ^ u.w ",
"f.9.9.9.9.2.2.2.n A A A A &.&.&.N Q Q =.u.%.%.%.%.3   3 ^ ! ! ! ! ^ l.^ 6 T T T 6 %.%.a a 0 ! u.u.t.t.` ` S 2.2.S f.f.f.S u.^ ^ ",
"f.=.c.=.=.w.V.) ) 1.1.1.1.v o.f.o.! ! a a ` ` ` c.z.' z.' = = W W Z @.@.Z _ u.u.u.4.4.6 S b b { { ! a 4.! r 8.8.8.l.,.R ,.l.....",
"o.=.c.c.n ) w.w.) c c c 1.o.v v o.! ! 4.! ` ` ` 6 ' z.z.z.W W V.W Z Z Z @._ _ _ _ 4.S 6 S b b 7 b ! a a ! r r 8.8.R R l.,...l...",
"o.=.c.=.n ) w.V.V.c 1.F.1.v f.o.o.! 4.4.! ` ` c.` 9 9 9 z.V.W W V.Z Z @.@._ e _ u.S S S 4.{ { b b a 4.4.4.r   r 8.l.l.,.l.l...l.",
"o.=.c.=.=.V.V.w.V.1.F.F.F.o.f.f.f.! ! ! 4.c.6 ` ` 9 ' ' ' V.V.V.V.@.@.p.Z _ _ _ u.4.4.4.S b { 7 b a ! ! ! . . 8.8.,.,.R ,.l.a ..",
"a.t.h t.t.l.l.l.l.>.>.>.h ] c t.t.j j j n.l # d.d.Z Z Z Z c u.[ c &.&.&.&.#.#.#.#.l l 9.l m u.u.  t { t t a @.n.@.Q Q f.f.H N.H "
};
