/* XPM */
static char *result[] = {
/* columns rows colors chars-per-pixel */
"64 64 166 2 ",
"   c black",
".  c #210800",
"X  c #290800",
"o  c #290C00",
"O  c #290C08",
"+  c #291008",
"@  c #311008",
"#  c #311408",
"$  c #3A1408",
"%  c gray19",
"&  c #421408",
"*  c #421808",
"=  c #421C08",
"-  c #421810",
";  c #421C10",
":  c #4A2010",
">  c #4A2410",
",  c #522410",
"<  c #5A2410",
"1  c #522810",
"2  c #522419",
"3  c #522819",
"4  c #562B19",
"5  c #5A2819",
"6  c #5A2D19",
"7  c #5A3119",
"8  c #632D19",
"9  c #633119",
"0  c #633519",
"q  c #633121",
"w  c #633521",
"e  c #6B3521",
"r  c #633921",
"t  c #673921",
"y  c #633B25",
"u  c #673D25",
"i  c #673F25",
"p  c #6B3921",
"a  c #6B3D21",
"s  c #6B3D25",
"d  c #6B3F25",
"f  c #6F3F25",
"g  c #6B3D29",
"h  c #6B3F29",
"j  c #733D21",
"k  c #733F25",
"l  c #6F4329",
"z  c #6B452D",
"x  c #6F492D",
"c  c #734121",
"v  c #734129",
"b  c #734329",
"n  c #734529",
"m  c #734729",
"M  c #77472D",
"N  c #7B4529",
"B  c #774929",
"V  c #77492D",
"C  c #774B2D",
"Z  c #7B4929",
"A  c #7B492D",
"S  c #7B4B2D",
"D  c #7B4D2D",
"F  c #7B4931",
"G  c #7B4D31",
"H  c #7F4D31",
"J  c #7F5131",
"K  c gray40",
"L  c #804B2D",
"P  c #804D2D",
"I  c #804D31",
"U  c #804F31",
"Y  c #844D31",
"T  c #844F31",
"R  c #805131",
"E  c #845131",
"W  c #845331",
"Q  c #845531",
"!  c #845335",
"~  c #885331",
"^  c #885531",
"/  c #8C5531",
"(  c #885335",
")  c #885535",
"_  c #885735",
"`  c #8C5735",
"'  c #8C5935",
"]  c #8C553A",
"[  c #8C573A",
"{  c #88593A",
"}  c #8C593A",
"|  c #8C5B3A",
" . c #90593A",
".. c #905B3A",
"X. c #94593A",
"o. c #905D3A",
"O. c #905F3A",
"+. c #945D3A",
"@. c #945F3A",
"#. c #905D3E",
"$. c #905F3E",
"%. c #945F3E",
"&. c #94613A",
"*. c #94613E",
"=. c #94633E",
"-. c #98613E",
";. c #98633E",
":. c #946142",
">. c #986342",
",. c #986542",
"<. c #986742",
"1. c #9C6542",
"2. c #9C6742",
"3. c #9C6942",
"4. c #9C6D42",
"5. c #9C6946",
"6. c #9C6B46",
"7. c #A56942",
"8. c #A56D42",
"9. c #A06B46",
"0. c #A06D46",
"q. c #A56D46",
"w. c #A06D4A",
"e. c #A06F4A",
"r. c #A56D4A",
"t. c #A56F4A",
"y. c #A5714A",
"u. c #A5734A",
"i. c #A5754A",
"p. c #A0734E",
"a. c #A9734A",
"s. c #AD714A",
"d. c #AD754A",
"f. c #A9754E",
"g. c #A9774E",
"h. c #AD794A",
"j. c #AD7552",
"k. c #AD7952",
"l. c #AD7D52",
"z. c #AD7D56",
"x. c #B57D52",
"c. c #09BD00",
"v. c #CD9A00",
"b. c #B58252",
"n. c #B18256",
"m. c #BD8652",
"M. c #B5825A",
"N. c #B5865A",
"B. c #BD865A",
"V. c #BD8A5A",
"C. c #BD8E5A",
"Z. c #BD8A5F",
"A. c #B6BC45",
"S. c #BD8A63",
"D. c #BD8E63",
"F. c #C59263",
"G. c #C59663",
"H. c #CE9A63",
"J. c #CE9A6B",
"K. c #CE9E6B",
"L. c #D6A673",
"P. c #CBBA8A",
"I. c #E6B684",
"U. c #9ACDFF",
"Y. c gray95",
"T. c #FFFEF9",
/* pixels */
"0.d.;.E d.y.y.E y.V.3.Z Z a ' ' ' ) ) ) :.r.r.r.r.d @ d 8.) w w ) T 6 T T r.I 6 6 t t * t @ w X.w k k k k U -   U 6 S 6 6 w l.l.",
"} ;.d.;.;.*.*.*.*.3.3.3.3.a ' d.d.:.) Z ) r.r.u o d 8.8.8.w w d.) T T T T r.r.6 6 t } t } w @ X.w , , X.k - - - - 6 S 6 S { { { ",
"} d.d.d.E *.y.*.E Z Z 3.3.d.' ' ' ) ) Z :.r.r.u u 8.8.8.8.d.) ) d.T s.T T r.r.I r.} } t } w w w X., , X.k - m.m.- S S S 3.{ w w ",
"y.D.&.g.&.k.J.k.k.0.} 0.b.x.v v v _ _ _ y.V.V.n <.M.M.} M.2.Y Y b.n ,.,.n z.n z.z.x.a a a : : n n 6 6 ! ! } : } : * S * S 5 ! ! ",
"y.&.g.&.&.Z.k.k.k.0.} } 0.x.%.%.v _ _ a y.n <.<.<.M.} } } Y 2.Y 2.B.,.,.n n n z.n a o.o.o.n : n n 6 6 6 k.: : } s x.x.S S 5 ! l.",
"` &.&.&.&.k.J.Z.k.0.0.} 0.x.x.%.v _ _ a a n n V.V.M.9 M.M.2.b.2.Y ,.n ,.n n n I.z.a x.a a 3.n 3.n 6 k.6 6 : } } : S x.S S l.! ! ",
"y.D.&.g.g.k.J.J.J.b.b.0.0.x.%.v v _ _ _ y.V.V.V.V.} M.M.} b.b.2.2.,.,.n n n n n n a a o.o.3.3.n n ! k.! 6 s } } s * S S S ! 5 5 ",
"n.f.D.+.f.u.H.H.u.i.i.i.i.B.2.Z Z W W W W D D y.D #.F.F.#.k.k.*.*.A &.&.A J J J l.y.& y.y.Y Y 4 4 i.i.W i.r.r.r.r.a a a a 5 U U ",
"1.+.D.D.f.G G G u.*.Y *.i.2.Z Z 2.a W 3.a y.D 1 y.#.F.#.5 Z Z *.*.&.&.A q , l.l.l.y.b y.b Y Y 4 4 i.i.9 W r.: : r.=.a a =.i.i.5 ",
"1.f.+.D.D.G G G u.*.Y Y *.Z 2.B.B.W W 3.a y.y.D % % % #.#.Z Z Z *.% % &.&.J J J J y.b y.y.4 Y Y 4 9 9 9 W M M M r.=.a a =.U U U ",
"n.D.f.+.f.u.G G G Y *.*.*.Z 2.B.2.a 3.3.W y.D % c.% % % #.Z Z Z % c.c.% A , , J , b b b b 4 Y Y X W 9 W W : M M r.=.V.=.a 5 i.U ",
"B.M.$.$.$.u.E E u.5.Z 5.5.N 3.N N h.h.W W E % c.% % % % E _ 7 % c.% c.c.% a P a P T T T 8 % % 5 5 L L L L d.H 2   & 3.3.f *.M.M.",
"*.$.M.M.$.u.E E E 5.Z S.5.` 3.3.3.h.h.h.6 2.% c.% % % % E x.7 % c.% % c.% P +.+.+.T y.8 % P.% 5 [ L L y.y.H H 2 2 & & f 3.*.c *.",
"a a $.M.$.E G.u.u.S.5.Z Z ` ` 3.3.W h.h.h.% c.% % % % % % x.% c.c.c.c.c.c.% +.+.+.% % % P.% [ [ B.L < y.L H d.H H 3.f 3.3.*.c M.",
"*.a a $.a E u.G.G.S.Z Z 5.3.` N ` W W W 6 % c.% % % % % % _ % c.c.c.c.c.c.% +.+.% P.P.P.% [ B.[ B.L L y.L d.d.H H 3.3.f f c c *.",
"l.<.v v v p p p p R R 4.4.' ' ' y.1.P P 0 % c.% % % % % % 2.% c.c.% % c.c.% 9 % P.P.P.P.% r.r.} r., , , E w.M.M.w.6.E 6.6.o.j j ",
"l.<.v T.v p 1.1.1.R R 4.4.' ' y.y.1.P P 1.% c.% % % % % % % c.c.c.% % c.c.% 9 % % % P.P.% r.} n r.x.E , , } } } } N.6.E E o.l.o.",
"c v <.<.<.T T 1.1.w R w R y.y.' ' 1.1.1.1.% c.% % % % % % % c.c.c.% c.c.% % % v.v.v.% P.% n r.} n E E E x.M.M.} } N.E E E o.l.l.",
"O.<.C.C.<.T 1.T T R 4.R w c ' y.' P P P P % c.% % % % K K % c.% c.c.c.c.% % v.v.v.v.% % P } } } n E E E E w.w.} M.N.6.E E o.l.l.",
"k.9.} 9.x.N.N.X.X.B.Q Q Q p T T 1.,.k.,.E % c.% % % K K % % c.c.c.c.c.c.c.% % % v.v.% } 0.E E E E ..y.y...Z Z Z *.F x.>.>.j.%.%.",
"*.x.x.} 9.t.X.t.X.0.Q Q Q T T T 1.,.E E ,.% c.% % K K % % c.c.% % c.c.c.c.% v.v.% % } 0.b.<.<.E <.y.y.y...*.k.k.Z >.>.F >.j.%.%.",
"Z 9.x.x.x.t.X.t.t.Q Q Q Q 1.1.T 1.,.E E ,.% c.% % K K % % c.c.% % c.% c.c.% v.v.v.% 0.0.0.<.<.<.l.N N ....*.*.*.k.x.>.>.>.Z Z %.",
"*.} x.x.9.t.N.t.X.Q Q Q Q T T T T ,.k.k.% c.c.% % K K % % c.c.c.c.c.% c.c.c.% v.% b.b.0.} E l.l.l...y.....Z Z Z k.>.>.x.x.%.%.%.",
"k.,.,.,.l.2.V.2.N o.o.E E Z ' Z ' ;.;.d.% c.% c.% % % % c.c.% c.c.c.c.c.c.% % % % 1.1.Y 1.2.2.Z 2.Y k.k.Y e.e.v v S S 8.8.*.y.y.",
",.,.Y ,.l.V.V.2.N o.E o.3.3.' ' 3.d.d.d.E % c.c.% % % c.c.c.c.% % % % % c.c.% v.% Y 1.1.x.B.2.2.B.Y Y Y Y K.K.e.e.3 3 3 S E E *.",
",.,.,.Y Y 2.V.2.N o.o.o.o.3.' ' ' E d.d.E Z % c.c.% c.c.c.% % % % % % % % c.% v.% 1.1.x.x.2.Z 2.2.k.L.L.k.e.v v e.8.S S 8.y.*.y.",
"E ,.l.,.,.2.N N 2.3.o.o.o.3.3.' 3.E E E E ^ % c.c.% c.c.% % Y.% A.% v.% % c.% % % Y 1.x.Y Z Z Z Z Y k.k.Y v v v v S 8.S 8.y.E *.",
"0.} } V.V.u.} } u.t.t.+.t.+.+.+.N.h.;.Y Y o.o.% % % % % U.Y.% A.A.% v.v.% % v.v.v.% ' 3.Z } G } G G G G x.| k.| a G 6.G G T T 1.",
"l.y.} y.V.u.u.u.} t.t.+.t.+.+.+.y.h.;.;.;.o.o.o.% % % % % % A.% % v.% % % % % v.v.% ' ' 3.1.G } 1.,.x.G G k.k.k.| G G G G p 1.1.",
"0.y.y.y.} } } u.C.M.+.+.+.+.+.y.+.Y Y ;.h.b.o.% % % % % % % % v.v.% c.% % c.c.% % v.% Z 3.} G } } ,.,.G G k.a k.| 6.V.G G p 1.1.",
"l.y.y.y.} u.} } u.M.+.t.+.+.y.+.+.;.Y h.h.b.o.% % v.v.v.v.v.v.v.% c.% c.% c.c.% v.v.v.% Z 1.1.G G ,.,.,.x.k.k.| | G 6.6.G T T p ",
";.%.%.x.x.1.E E E ) y.y.y.+.+.+.+.Y Y %.y.d.@.% c.% v.v.v.v.v.% c.% % c.% c.% A.% v.v.% % &.~ N ~ ..3.3...y.N.+.+.Y Y Y 2.*.Z *.",
"d.%.v v %.E a E 1.) ) y.y.a.V.a.a.%.% % % % d.d.% % % % % % % % c.c.c.% % % A.A.A.% % v.v.% ~ ~ ~ ..3.3.3.+.+.y.+.Y 2.b.b.*.*.*.",
"d.x.%.v x.1.a 1.1.y.) y.y.V.V.a.a.% A.A.% A.% % % A.% % % % % % % % % % % % % A.A.% v.v.v.% ~ &.~ ..3...3.y.+.+.+.2.Y 2.2.*.k.k.",
"E %.x.%.x.E a 1.1.y.) p ) a.V.V.+.% A.A.% A.% % % % % % % % % % % % % % % % % % % % % v.v.v.% ~ ~ Y Y Y 3.y.+.+.N.b.Y Y Y Z k.k.",
"h.i., D i.E E E E +.l.0.+.*.*.E y.% A.A.% % % % % % % % % % % v.v.v.% % A.% A.A.% % % % % % % +.+.E E ,.E ) ) ) 8.1.1.1.1._ _ _ ",
"h.i.D D i.5.5.E E +.+.l.l.y.E E *.% A.A.% c.% % % % [ % v.% v.v.v.v.v.% A.% A.A.% % % v.v.v.% +.+.,.,.E ,.) 8.8.g n 1.n 1.l._ _ ",
"E D i.i.i.5.E 5.E 0.0.+.0.y.y.*.E %.% % % % % k.,.v r.% % % % % % % % % % A.A.A.% % % % v.v.% n +.k.k.k.k.8.8.8.8.1.n n n _ _ 9 ",
"5 D D D i.E 5.M.5.+.0.+.0.y.E y.y.%.E %.E E ,.E E % % c.c.% c.c.c.c.% % % A.A.A.% % v.v.% v.% E +.E ,.E E 8.) 8.8.n > n 1.9 9 l.",
"a W a W 3.*.Z k.k.b.o.o.b.6.6.6.6.E E G.u.} i.% % A.% c.% % % c.c.% % % % % % % % % v.v.v.% % 1.1.Z Z Z Z y.N y.N n n 3 &.y.R R ",
"%.3.3.W 3.k.Z Z *.b.b.o.o.6.K.6.6.G.E E E } % % A.A.A.% % v.v.% % A.A.% % % % % % % % % % % % 1. .Z ) Z :...N ..y.&.3 n 3 7 7 R ",
"a a W a 3.*.Z *.k.p p b.p 6.K.6.K.G.E E u.% c.% A.A.% % % v.v.% A.A.A.A.% % % % % % % % % % Y  .Y Z Z Z Z N ......&.&.n &.R 7 7 ",
"%.W a W W *.*.*.*.o.o.b.p p 6.K.6.u.u.u.u.% c.% % % % % % % v.% A.A.% % % % d.% % % % % % Y Y Y Y Z ) ) Z N ......&.&.&.&.R y.R ",
"M.y.y.y.Y E 3.E E b.b.b.b.y.U y.y.y.} y.} % c.% % % % % % % % % A.% c.c.% % %.v % % % % Z } } M M ) ) :.:.} Z E } ..N ....E E a ",
"*.%.y.y.Y E E E E x   + + 6 6 U y.y.} v } x.% K % % % % % x.x.>.% % c.c.% % v %.v Z Z o.o.} } } } Z ) ) ) E Z Z } y.......E E E ",
"M.Y %.y.y.3.b.b.b.x x x b.y.U 6 6 v } } } x.% K K % % % :.>.>.>.% K % % % % % x.%.y.y.Z Z } M M } :.Z Z Z Z E Z E y.......E E E ",
"*.Y %.Y Y E b.E E x b.b.b.y.y.y.y.y.v } y.2.% % % % % % :.F >.>.% K K % % % % x.x.y.o.o.y.} } M w Z ) ) Z E } } E ........E E E ",
"C d.d.V ; 7 1.1.7 p ~ ~ 8.6 6 U y.8.8.> > w % % % v.v.% N N %.k.% K K % % % % _ k.0.E E 0.t.} } } Z Z ....W W W W ` ` ` 3.o.E E ",
"V.d.d.V d.1.1.1.S ~ ~ ~ p 6 U y.U B 8.8.B w % % % v.v.% N N %.k.N % % % % % % _ k.V.V.0.E } } } B.r.Z ....y.W W W ` 3.` ` 3.E E ",
"C V d.d.d.S 7 S S p 8.8.p U y.y.y.B B 8.8.% % % v.% % % +.N %.N N % v.% % % % k.k.E 0.0.0.} } t.B...Z Z ..y.W W y.` 3.3.N E 3.o.",
"C ; V d.V 7 S 1.1.8.8.~ p U y.U y.8.B B % v.v.v.v.% % +.N %.k.N N % v.% % % % % _ E E E E } } } } Z Z Z r.y.W 0 0 N ` ` N E o.3.",
"b.F.0 =.=.> d.d.d.b.b.$ C :.:.:.:.} } S % % % % % k.%.%.N ] N.w.w.x.% v.% % % % v _ y.y._ y.y.o.Z 1.1.1.y l.z O   p I I :.*.E E ",
"b.F.F.0 =.D D D > C $   C :.M :.6 S S a } k.k.v v %.k.N N ] ] ] ] -.% v.v.v.v.% } _ a y.y.y.y.y.o.1.1.y   O l.l.l.I I p :.*.*.*.",
"b.0 =.0 =.d.d.> D b.C $ C M M M 6 a S S } #.#.v v N %.N %.N.N.w.] -.% % % % % % y.y.a a y.Z Z y.o.1.y 1.1.O z l.l.p :.:.:.*.y.y.",
"_ =.=.F.=.D D > > b.b.C b.:.6 6 M } } } S v #.#.k.%.N N %.w.w.N.N.-.x.-.N v v } v _ y._ _ o.Z y.y.1.1.y 1.l.z l.l.I :.:.:.E *.y.",
"; 8.8.i + > n 1.1.6 6 A A %.N %.%.y.*.y.y.k.$.$.k.! ! ! x.h.W W h.! ! ! ! U U 6 6 a $.$.a W W y.y.) ) r.a 1.1.7 S d.d.S d.y.! ! ",
";     + i 1.1.1.1.A 1.1.A N %.k.%.*.y.y.*.n $.k.k.x.x.x.! h.h.6 6 ! 6 ! k.y.y.y.y.$.a a $.W W W W ) r.r.a 7 1.1.S S : S d.y.y.y.",
"d.i i 8.8.1.n 1.n 1.1.1.1.%.N N N *.*.*.*.n $.$.n ! ! ! 3 h.h.6 6 6 ! k.k.y.U U U $.a M.M.W y.y.W ) r.) a 1.1.1.1.S S S S ! y.w ",
"d.8.8.8.8.1.1.1.n A A A A %.%.%.N E E *.y.$.$.$.$.3   3 ! W W W W ! k.! 6 U U U 6 $.$.a a 0 W y.y.r.r.) ) S 1.1.S d.d.d.S y.! ! ",
"d.*.x.*.*.q.B./ / <.<.<.<.v ..d...W W a a ) ) ) x.l._ l._ = = R R Z O.O.Z ( y.y.y.3.3.6 S b b ] ] W a 3.W r 7.7.7.k.>.Y >.k.| | ",
"..*.x.x.n / q.q./ c c c <...v v ..W W 3.W ) ) ) 6 _ l.l.l.R R B.R Z Z Z O.( ( ( ( 3.S 6 S b b 7 b W a a W r r 7.7.Y Y k.>.| k.| ",
"..*.x.*.n / q.B.B.c <.D.<.v d.....W 3.3.W ) ) x.) 9 9 9 l.B.R R B.Z Z O.O.( e ( y.S S S 3.] ] b b a 3.3.3.r   r 7.k.k.>.k.k.| k.",
"..*.x.*.*.B.B.q.B.<.D.D.D...d.d.d.W W W 3.x.6 ) ) 9 _ _ _ B.B.B.B.O.O.i.Z ( ( ( y.3.3.3.S b ] 7 b a W W W . . 7.7.>.>.Y >.k.a | ",
"p.r.h r.r.k.k.k.k.:.:.:.h ` c r.r.j j j b.l # s.s.Z Z Z Z c y.' c %.%.%.%.+.+.+.+.l l 8.l m y.y.  t ] t t a O.b.O.E E d.d.G M.G "
};
