/* XPM */
static char *result[] = {
/* columns rows colors chars-per-pixel */
"64 64 166 2 ",
"   c black",
".  c #210800",
"X  c #290800",
"o  c #290C00",
"O  c #290C08",
"+  c #291008",
"@  c #311008",
"#  c #311408",
"$  c #3A1408",
"%  c gray19",
"&  c #421408",
"*  c #421808",
"=  c #421C08",
"-  c #421810",
";  c #421C10",
":  c #4A2010",
">  c #4A2410",
",  c #522410",
"<  c #5A2410",
"1  c #522810",
"2  c #522419",
"3  c #522819",
"4  c #562B19",
"5  c #5A2819",
"6  c #5A2D19",
"7  c #5A3119",
"8  c #632D19",
"9  c #633119",
"0  c #633519",
"q  c #633121",
"w  c #633521",
"e  c #6B3521",
"r  c #633921",
"t  c #673921",
"y  c #633B25",
"u  c #673D25",
"i  c #673F25",
"p  c #6B3921",
"a  c #6B3D21",
"s  c #6B3D25",
"d  c #6B3F25",
"f  c #6F3F25",
"g  c #6B3D29",
"h  c #6B3F29",
"j  c #733D21",
"k  c #733F25",
"l  c #6F4329",
"z  c #6B452D",
"x  c #6F492D",
"c  c #734121",
"v  c #734129",
"b  c #734329",
"n  c #734529",
"m  c #734729",
"M  c #77472D",
"N  c #7B4529",
"B  c #774929",
"V  c #77492D",
"C  c #774B2D",
"Z  c #7B4929",
"A  c #7B492D",
"S  c #7B4B2D",
"D  c #7B4D2D",
"F  c #7B4931",
"G  c #7B4D31",
"H  c #7F4D31",
"J  c #7F4F31",
"K  c #7F5131",
"L  c gray40",
"P  c #804B2D",
"I  c #804D2D",
"U  c #804D31",
"Y  c #804F31",
"T  c #844D31",
"R  c #844F31",
"E  c #805131",
"W  c #845131",
"Q  c #845331",
"!  c #845531",
"~  c #845335",
"^  c #885331",
"/  c #885531",
"(  c #8C5531",
")  c #885335",
"_  c #885535",
"`  c #885735",
"'  c #8C5735",
"]  c #8C5935",
"[  c #8C553A",
"{  c #8C573A",
"}  c #88593A",
"|  c #8C593A",
" . c #8C5B3A",
".. c #90593A",
"X. c #905B3A",
"o. c #94593A",
"O. c #905D3A",
"+. c #905F3A",
"@. c #945D3A",
"#. c #905D3E",
"$. c #905F3E",
"%. c #945F3E",
"&. c #94613A",
"*. c #94613E",
"=. c #94633E",
"-. c #98613E",
";. c #98633E",
":. c #946142",
">. c #986342",
",. c #986542",
"<. c #986742",
"1. c #9C6542",
"2. c #9C6742",
"3. c #9C6942",
"4. c #9C6D42",
"5. c #9C6946",
"6. c #9C6B46",
"7. c #A56942",
"8. c #A56D42",
"9. c #A06B46",
"0. c #A06D46",
"q. c #A56D46",
"w. c #A06D4A",
"e. c #A06F4A",
"r. c #A56D4A",
"t. c #A56F4A",
"y. c #A5714A",
"u. c #A5734A",
"i. c #A5754A",
"p. c #A0734E",
"a. c #A9734A",
"s. c #AD714A",
"d. c #AD754A",
"f. c #A9754E",
"g. c #A9774E",
"h. c #AD794A",
"j. c #AD7552",
"k. c #AD7952",
"l. c #AD7D52",
"z. c #AD7D56",
"x. c #B57D52",
"c. c #09BD00",
"v. c #CD9A00",
"b. c #B58252",
"n. c #B18256",
"m. c #BD8652",
"M. c #B5825A",
"N. c #B5865A",
"B. c #BD865A",
"V. c #BD8A5A",
"C. c #BD8E5A",
"Z. c #BD8A5F",
"A. c #B6BC45",
"S. c #BD8A63",
"D. c #BD8E63",
"F. c #C59263",
"G. c #C59663",
"H. c #CE9A63",
"J. c #CE9A6B",
"K. c #CE9E6B",
"L. c #D6A673",
"P. c #CBBA8A",
"I. c #E6B684",
"U. c #9ACDFF",
"Y. c gray95",
"T. c #FFFEF9",
/* pixels */
"0.d.;.W d.y.y.W y.V.3.Z Z a ] ] ] _ _ _ :.r.r.r.r.d @ d 8._ w w _ R 6 R R r.U 6 6 t t * t @ w o.w k k k k Y -   Y 6 S 6 6 w l.l.",
"| ;.d.;.;.*.*.*.*.3.3.3.3.a ] d.d.:._ Z _ r.r.u o d 8.8.8.w w d._ R R R R r.r.6 6 t | t | w @ o.w , , o.k - - - - 6 S 6 S } } } ",
"| d.d.d.W *.y.*.W Z Z 3.3.d.] ] ] _ _ Z :.r.r.u u 8.8.8.8.d._ _ d.R s.R R r.r.U r.| | t | w w w o., , o.k - m.m.- S S S 3.} w w ",
"y.D.&.g.&.k.J.k.k.0.| 0.b.x.v v v ` ` ` y.V.V.n <.M.M.| M.2.T T b.n ,.,.n z.n z.z.x.a a a : : n n 6 6 ~ ~ | : | : * S * S 5 ~ ~ ",
"y.&.g.&.&.Z.k.k.k.0.| | 0.x.%.%.v ` ` a y.n <.<.<.M.| | | T 2.T 2.B.,.,.n n n z.n a O.O.O.n : n n 6 6 6 k.: : | s x.x.S S 5 ~ l.",
"' &.&.&.&.k.J.Z.k.0.0.| 0.x.x.%.v ` ` a a n n V.V.M.9 M.M.2.b.2.T ,.n ,.n n n I.z.a x.a a 3.n 3.n 6 k.6 6 : | | : S x.S S l.~ ~ ",
"y.D.&.g.g.k.J.J.J.b.b.0.0.x.%.v v ` ` ` y.V.V.V.V.| M.M.| b.b.2.2.,.,.n n n n n n a a O.O.3.3.n n ~ k.~ 6 s | | s * S S S ~ 5 5 ",
"n.f.D.@.f.u.H.H.u.i.i.i.i.B.2.Z Z Q Q Q Q D D y.D #.F.F.#.k.k.*.*.A &.&.A K K K l.y.& y.y.T T 4 4 i.i.Q i.r.r.r.r.a a a a 5 Y Y ",
"1.@.D.D.f.G G G u.*.T *.i.2.Z Z 2.a Q 3.a y.D 1 y.#.F.#.5 Z Z *.*.&.&.A q , l.l.l.y.b y.b T T 4 4 i.i.9 Q r.: : r.=.a a =.i.i.5 ",
"1.f.@.D.D.G G G u.*.T T *.Z 2.B.B.Q Q 3.a y.y.D D   5 #.#.% % Z *.A &.&.&.% % % K y.b y.y.4 T T 4 9 9 9 Q M M M r.=.a a =.Y Y Y ",
"n.D.f.@.f.u.G G G T *.*.*.Z 2.B.2.a 3.3.Q y.D D y.#.#.#.% c.c.% Z &.A q % % % c.% b b b b 4 T T X Q 9 Q Q : M M r.=.V.=.a 5 i.Y ",
"B.M.$.$.$.u.W W u.5.Z 5.5.N 3.N N % % Q Q W W x.2.3.W % c.c.% c.% %.N %.% % % % c.% R R 8 { { 5 5 P P P P d.H 2   & 3.3.f *.M.M.",
"*.$.M.M.$.u.W W W 5.Z S.5.' 3.3.3.% P.% 6 2.x.2.W W W % c.% % c.% N N N % % % % c.% y.8 8 { 5 5 { P P y.y.H H 2 2 & & f 3.*.c *.",
"a a $.M.$.W G.u.u.S.5.Z Z ' ' 3.3.Q % P.% % % 2.2.W % c.c.c.c.c.c.% %.% % % % % % c.% R R { { { B.P < y.P H d.H H 3.f 3.3.*.c M.",
"*.a a $.a W u.G.G.S.Z Z 5.3.' N ' Q Q % P.P.P.% 2.3.% c.c.c.c.c.c.% %.% % % % % % c.% R y.{ B.{ B.P P y.P d.d.H H 3.3.f f c c *.",
"l.<.v v v p p p p E E 4.4.] ] ] y.1.I % P.P.P.P.% ` % c.c.% % c.c.% J % % % % % % c.% I 1.r.r.| r., , , W w.M.M.w.6.W 6.6.O.j j ",
"l.<.v T.v p 1.1.1.E E 4.4.] ] y.y.1.I % P.P.% % % G % c.c.% % c.c.c.% % % % % % % c.% 0 I r.| n r.x.W , , | | | | N.6.W W O.l.O.",
"c v <.<.<.R R 1.1.w E w E y.y.] ] 1.1.% P.% v.v.v.% % % c.c.% c.c.c.% % % % % % % c.% 1.I n r.| n W W W x.M.M.| | N.W W W O.l.l.",
"+.<.C.C.<.R 1.R R E 4.E w c ] y.] I I I % % v.v.v.v.% % c.c.c.c.% c.% L L % % % % c.% 1.I | | | n W W W W w.w.| M.N.6.W W O.l.l.",
"k.9.| 9.x.N.N.o.o.B.! ! ! p R R 1.,.k.,.W % v.v.% % % c.c.c.c.c.c.c.% % L L % % % c.% | 0.W W W W X.y.y.X.Z Z Z *.F x.>.>.j.%.%.",
"*.x.x.| 9.t.o.t.o.0.! ! ! R R R 1.,.W W ,.^ % % v.v.% c.c.c.c.% % c.c.% % L L % % c.% 0.b.<.<.W <.y.y.y.X.*.k.k.Z >.>.F >.j.%.%.",
"Z 9.x.x.x.t.o.t.t.! ! ! ! 1.1.R 1.,.W W ,.@.% v.v.v.% c.c.% c.% % c.c.% % L L % % c.% 0.0.<.<.<.l.N N X.X.*.*.*.k.x.>.>.>.Z Z %.",
"*.| x.x.9.t.N.t.o.! ! ! ! R R R R ,.k.k.W Z Z % v.% c.c.c.% c.c.c.c.c.% % L L % % c.c.% | W l.l.l.X.y.X.X.Z Z Z k.>.>.x.x.%.%.%.",
"k.,.,.,.l.2.V.2.N O.O.W W Z ] Z ] ;.;.d.W Z &.% % % % c.c.c.c.c.c.% c.c.% % % % c.% c.% 1.2.2.Z 2.T k.k.T e.e.v v S S 8.8.*.y.y.",
",.,.T ,.l.V.V.2.N O.W O.3.3.] ] 3.d.d.d.W Z &.% v.% c.c.% % % % % c.c.c.c.% % % c.c.% 1.x.B.2.2.B.T T T T K.K.e.e.3 3 3 S W W *.",
",.,.,.T T 2.V.2.N O.O.O.O.3.] ] ] W d.d.W Z / % v.% c.% % % % % % % % c.c.c.% c.c.% 1.x.x.2.Z 2.2.k.L.L.k.e.v v e.8.S S 8.y.*.y.",
"W ,.l.,.,.2.N N 2.3.O.O.O.3.3.] 3.W W W W / / % % % c.% % v.% A.% Y.% % c.c.% c.c.% 1.x.T Z Z Z Z T k.k.T v v v v S 8.S 8.y.W *.",
"0.| | V.V.u.| | u.t.t.@.t.@.@.@.N.h.;.T T O.% v.v.v.% % v.v.% A.A.% Y.U.% % % % % Z ] 3.Z | G | G G G G x. .k. .a G 6.G G R R 1.",
"l.y.| y.V.u.u.u.| t.t.@.t.@.@.@.y.h.;.;.;.O.% v.v.% % % % % v.% % A.% % % % % % 1.] ] ] 3.1.G | 1.,.x.G G k.k.k. .G G G G p 1.1.",
"0.y.y.y.| | | u.C.M.@.@.@.@.@.y.@.T T ;.h.% v.% % c.c.% % c.% v.v.% % % % % % % % 3.Z Z 3.| G | | ,.,.G G k.a k. .6.V.G G p 1.1.",
"l.y.y.y.| u.| | u.M.@.t.@.@.y.@.@.;.T h.% v.v.v.% c.c.% c.% c.% v.v.v.v.v.v.v.% % ] ] ] Z 1.1.G G ,.,.,.x.k.k. . .G 6.6.G R R p ",
";.%.%.x.x.1.W W W _ y.y.y.@.@.@.@.T T % % v.v.% A.% c.% c.% % c.% v.v.v.v.v.% c.% Z ] 3.] &.^ N ^ X.3.3.X.y.N.@.@.T T T 2.*.Z *.",
"d.%.v v %.W a W 1._ _ y.y.a.V.a.a.%.% v.v.% % A.A.A.% % % c.c.c.% % % % % % % % =.3.% % % % ^ ^ ^ X.3.3.3.@.@.y.@.T 2.b.b.*.*.*.",
"d.x.%.v x.1.a 1.1.y._ y.y.V.V.a.a.y.% v.v.v.% A.A.% % % % % % % % % % % % % A.% % % A.% A.A.% &.^ X.3.X.3.y.@.@.@.2.T 2.2.*.k.k.",
"W %.x.%.x.W a 1.1.y._ p _ a.V.V.@.% v.v.v.% % % % % % % % % % % % % % % % % % % % % A.% A.A.% ^ ^ T T T 3.y.@.@.N.b.T T T Z k.k.",
"h.i., D i.W W W W @.l.0.@.*.*.W y.% % % % % % % A.A.% A.% % v.v.v.% % % % % % % % % % % A.A.% @.@.W W ,.W _ _ _ 8.1.1.1.1.` ` ` ",
"h.i.D D i.5.5.W W @.@.l.l.y.W W *.% v.v.v.% % % A.A.% A.% v.v.v.v.v.% v.% @.% % % % c.% A.A.% @.@.,.,.W ,._ 8.8.g n 1.n 1.l.` ` ",
"W D i.i.i.5.W 5.W 0.0.@.0.y.y.*.W % v.v.% % % % A.A.A.% % % % % % % % % % @.@.^ ^ % % % % % @.n @.k.k.k.k.8.8.8.8.1.n n n ` ` 9 ",
"5 D D D i.W 5.M.5.@.0.@.0.y.W y.y.% v.% v.v.% % A.A.A.% % % c.c.c.c.% c.c.% % ^ ^ W W W W @.W W @.W ,.W W 8._ 8.8.n > n 1.9 9 l.",
"a Q a Q 3.*.Z k.k.b.O.O.b.6.6.6.6.% % v.v.v.% % % % % % % % % c.c.% % % c.% A.% % ^ N ^ ^ T ..1.1.Z Z Z Z y.N y.N n n 3 &.y.E E ",
"%.3.3.Q 3.k.Z Z *.b.b.O.O.6.K.6.6.% % % % % % % % % % % % A.A.% % v.v.% % A.A.A.% % N N &.T T 1...Z _ Z :.X.N X.y.&.3 n 3 7 7 E ",
"a a Q a 3.*.Z *.k.p p b.p 6.K.6.K.G.% % % % % % % % % % A.A.A.A.% v.v.% % % A.A.% c.% ^ &...T ..T Z Z Z Z N X.X.X.&.&.n &.E 7 7 ",
"%.Q a Q Q *.*.*.*.O.O.b.p p 6.K.6.u.u.% % % % % % *.% % % % A.A.% v.% % % % % % % c.% ^ ^ T T T T Z _ _ Z N X.X.X.&.&.&.&.E y.E ",
"M.y.y.y.T W 3.W W b.b.b.b.y.Y y.y.y.| y.% % % % x.:.% % c.c.% A.% % % % % % % % % c.% Z Z | | M M _ _ :.:.| Z W | X.N X.X.W W a ",
"*.%.y.y.T W W W W x   + + 6 6 Y y.y.| v | x.2.W 2.:.% % c.c.% % >.l.l.% % % % % L % Z O.O.| | | | Z _ _ _ W Z Z | y.X.X.X.W W W ",
"M.T %.y.y.3.b.b.b.x x x b.y.Y 6 6 v | | | x.2.2.2.% % % % % L % F N N N % % % L L % y.Z Z | M M | :.Z Z Z Z W Z W y.X.X.X.W W W ",
"*.T %.T T W b.W W x b.b.b.y.y.y.y.y.v | y.2.x.x.x.% % % % L L % >.*.N *.% % % % % % O.O.y.| | M w Z _ _ Z W | | W X.X.X.X.W W W ",
"C d.d.V ; 7 1.1.7 p ^ ^ 8.6 6 Y y.8.8.> > w  . .w % % % % L L % N | r.r.% v.v.% % % W W 0.t.| | | Z Z X.X.Q Q Q Q ' ' ' 3.O.W W ",
"V.d.d.V d.1.1.1.S ^ ^ ^ p 6 Y y.Y B 8.8.B w b.b. .% % % % % % k.N n r.r.% v.v.% % % V.0.W | | | B.r.Z X.X.y.Q Q Q ' 3.' ' 3.W W ",
"C V d.d.d.S 7 S S p 8.8.p Y y.y.y.B B 8.8. .b. . .% % % % v.% N N r.| | % % % v.% % % 0.0.| | t.B.X.Z Z X.y.Q Q y.' 3.3.N W 3.O.",
"C ; V d.V 7 S 1.1.8.8.^ p Y y.Y y.8.B B B  .w w % % % % % v.% N N | n r.| % % v.v.v.v.% W | | | | Z Z Z r.y.Q 0 0 N ' ' N W O.3.",
"b.F.0 =.=.> d.d.d.b.b.$ C :.:.:.:.| | S a k.k.#.% % % % v.% N.w.w.x.N -.-.v | % % % % % ` y.y.O.Z 1.1.1.y l.z O   p U U :.*.W W ",
"b.F.F.0 =.D D D > C $   C :.M :.6 S S a | k.k.v % v.v.v.v.% [ [ [ -.N -.-.y.| v | ` a y.y.y.y.y.O.1.1.y   O l.l.l.U U p :.*.*.*.",
"b.0 =.0 =.d.d.> D b.C $ C M M M 6 a S S | #.#.v % % % % % % N.w.[ -.-.N N | y.y.y.y.a a y.Z Z y.O.1.y 1.1.O z l.l.p :.:.:.*.y.y.",
"` =.=.F.=.D D > > b.b.C b.:.6 6 M | | | S v #.#.k.%.N N %.w.w.N.N.-.x.-.N v v | v ` y.` ` O.Z y.y.1.1.y 1.l.z l.l.U :.:.:.W *.y.",
"; 8.8.i + > n 1.1.6 6 A A %.N %.%.y.*.y.y.k.$.$.k.~ ~ ~ x.h.Q Q h.~ ~ ~ ~ Y Y 6 6 a $.$.a Q Q y.y._ _ r.a 1.1.7 S d.d.S d.y.~ ~ ",
";     + i 1.1.1.1.A 1.1.A N %.k.%.*.y.y.*.n $.k.k.x.x.x.~ h.h.6 6 ~ 6 ~ k.y.y.y.y.$.a a $.Q Q Q Q _ r.r.a 7 1.1.S S : S d.y.y.y.",
"d.i i 8.8.1.n 1.n 1.1.1.1.%.N N N *.*.*.*.n $.$.n ~ ~ ~ 3 h.h.6 6 6 ~ k.k.y.Y Y Y $.a M.M.Q y.y.Q _ r._ a 1.1.1.1.S S S S ~ y.w ",
"d.8.8.8.8.1.1.1.n A A A A %.%.%.N W W *.y.$.$.$.$.3   3 ~ Q Q Q Q ~ k.~ 6 Y Y Y 6 $.$.a a 0 Q y.y.r.r._ _ S 1.1.S d.d.d.S y.~ ~ ",
"d.*.x.*.*.q.B.( ( <.<.<.<.v X.d.X.Q Q a a _ _ _ x.l.` l.` = = E E Z +.+.Z ) y.y.y.3.3.6 S b b [ [ Q a 3.Q r 7.7.7.k.>.T >.k. . .",
"X.*.x.x.n ( q.q.( c c c <.X.v v X.Q Q 3.Q _ _ _ 6 ` l.l.l.E E B.E Z Z Z +.) ) ) ) 3.S 6 S b b 7 b Q a a Q r r 7.7.T T k.>. .k. .",
"X.*.x.*.n ( q.B.B.c <.D.<.v d.X.X.Q 3.3.Q _ _ x._ 9 9 9 l.B.E E B.Z Z +.+.) e ) y.S S S 3.[ [ b b a 3.3.3.r   r 7.k.k.>.k.k. .k.",
"X.*.x.*.*.B.B.q.B.<.D.D.D.X.d.d.d.Q Q Q 3.x.6 _ _ 9 ` ` ` B.B.B.B.+.+.i.Z ) ) ) y.3.3.3.S b [ 7 b a Q Q Q . . 7.7.>.>.T >.k.a  .",
"p.r.h r.r.k.k.k.k.:.:.:.h ' c r.r.j j j b.l # s.s.Z Z Z Z c y.] c %.%.%.%.@.@.@.@.l l 8.l m y.y.  t [ t t a +.b.+.W W d.d.G M.G "
};
