/* XPM */
static char *result[] = {
/* columns rows colors chars-per-pixel */
"64 64 205 2 ",
"   c black",
".  c #260C03",
"X  c #311108",
"o  c #2F352F",
"O  c #2D3C2D",
"+  c #38352E",
"@  c #303030",
"#  c #3B3A31",
"$  c #3A3A3A",
"%  c #421408",
"&  c #421908",
"*  c #421910",
"=  c #4A2110",
"-  c #522410",
";  c #532817",
":  c #5A2C19",
">  c #5A3119",
",  c #633319",
"<  c #443E2A",
"1  c #633521",
"2  c #663B22",
"3  c #6B3D22",
"4  c #6B3C26",
"5  c #733E23",
"6  c #1E6A1E",
"7  c #1B741B",
"8  c #1A7A1A",
"9  c #2A452A",
"0  c #294929",
"q  c #255325",
"w  c #245B24",
"e  c #216121",
"r  c #296B29",
"t  c #337731",
"y  c #6E5A1D",
"u  c #78611A",
"i  c #47422E",
"p  c #554925",
"a  c #6E442A",
"s  c #734121",
"d  c #734329",
"f  c #7B4529",
"g  c #774A2D",
"h  c #7B4B2C",
"j  c #635528",
"k  c #7B4D31",
"l  c #7F5131",
"z  c #5B722D",
"x  c #7B723D",
"c  c #434343",
"v  c #4B4B4B",
"b  c #535353",
"n  c #5C5C5C",
"m  c #5C675C",
"M  c #646463",
"N  c #6D6D6D",
"B  c #7B7666",
"V  c #747474",
"C  c #7C7C7C",
"Z  c #896C15",
"A  c #9A7810",
"S  c #A47F0C",
"D  c #804B2D",
"F  c #834E31",
"G  c #845232",
"H  c #895635",
"J  c #8C5737",
"K  c #8C593A",
"L  c #925D3C",
"P  c #94613D",
"I  c #98623E",
"U  c #827736",
"Y  c #946142",
"T  c #9A6542",
"R  c #9C6943",
"E  c #A46C43",
"W  c #A56D4A",
"Q  c #A5724A",
"!  c #AC754B",
"~  c #AD794A",
"^  c #AD7552",
"/  c #AD7B52",
"(  c #B57D52",
")  c #0F9D0F",
"_  c #168416",
"`  c #129312",
"'  c #189C18",
"]  c #0DA30D",
"[  c #0BAA0B",
"{  c #07B607",
"}  c #05BD05",
"|  c #08B308",
" . c #13AF13",
".. c #2F8D2F",
"X. c #27A527",
"o. c #03C203",
"O. c #00CD00",
"+. c #4F884F",
"@. c #B28E13",
"#. c #A69738",
"$. c #B3A13A",
"%. c #CB9901",
"&. c #D7B11A",
"*. c #FFC700",
"=. c #FFC804",
"-. c #FFCB0B",
";. c #FFCD13",
":. c #FFCE1A",
">. c #FFD015",
",. c #FFD31D",
"<. c #FFCF23",
"1. c #FFD223",
"2. c #FFD32C",
"3. c #FFD82C",
"4. c #ECC839",
"5. c #FFD433",
"6. c #FFDA35",
"7. c #FFD63A",
"8. c #FFDA3D",
"9. c #FFE13E",
"0. c #A3954F",
"q. c #B58253",
"w. c #BD8652",
"e. c #B5835A",
"r. c #BD865A",
"t. c #BD8A5B",
"y. c #B3A44C",
"u. c #8E886E",
"i. c #BD8E63",
"p. c #A39B63",
"a. c #C8B855",
"s. c #CA9766",
"d. c #DAC54C",
"f. c #E9D24E",
"g. c #FFD644",
"h. c #FFDA45",
"j. c #FFD749",
"k. c #FFDC4C",
"l. c #FFDC53",
"z. c #FFDD5B",
"x. c #FFE343",
"c. c #FFE44B",
"v. c #FFE553",
"b. c #FFE35C",
"n. c #FFE95D",
"m. c #FFDE63",
"M. c #FFDE69",
"N. c #FFE464",
"B. c #FFE964",
"V. c #FFE46B",
"C. c #FFEA6A",
"Z. c #FFE573",
"A. c #FFEB73",
"S. c #FFE57B",
"D. c #FFEB7C",
"F. c #848484",
"G. c #8C8C8C",
"H. c #959595",
"J. c gray61",
"K. c #B7B689",
"L. c #A4A4A4",
"P. c #AAAAAA",
"I. c #B6A7AE",
"U. c #B5B5B5",
"Y. c #E6B684",
"T. c #D4CC91",
"R. c #E2D684",
"E. c #FFE583",
"W. c #FFEC83",
"Q. c #FFE68C",
"!. c #FFED8B",
"~. c #FFF085",
"^. c #FFF18D",
"/. c #FFED93",
"(. c #FDEA98",
"). c #FFF194",
"_. c #FFF29B",
"`. c #C5C3BF",
"'. c #E5E1AA",
"]. c #FFEDA8",
"[. c #FFF2A4",
"{. c #FFF5AC",
"}. c #FFEEB3",
"|. c #FFF5B3",
" X c #FFF9B5",
".X c #FFF3BC",
"XX c #FFFABB",
"oX c #CEBAC3",
"OX c #C4C4C4",
"+X c #CBCBCB",
"@X c #D4D4D4",
"#X c #FFF4C4",
"$X c #FFF5CB",
"%X c #FFF9CA",
"&X c #FFF6D4",
"*X c #FFF8D3",
"=X c #FFF7DA",
"-X c #FFF9DC",
";X c #E3E3E3",
":X c gray93",
">X c #FFFAE3",
",X c #FFFCEB",
"<X c #F2F2F2",
"1X c #FFFDF4",
"2X c #FFFFFE",
/* pixels */
"E ! I G ! Q W G Q t.R h f s H H H H H H Y Q W W W a X 2 E H 1 1 H F : F F W F : : 2 2 & 2 X 1 L 1 5 5 5 5 F *   F : h : : 1 / q.",
"K I ! I I P P P P R R R I s H ~ ~ Y H f H W E a . 3 E E E 1 1 ! H F F F F W W : : 2 K 2 J 1 X L 1 - - L 5 * * * * : h : k K H K ",
"K ! ! ! G I Q Y G h h R I ! J J J H H h Y W W 2 3 E E E E ! H G ! F ! F F Q W F W K K 2 J 2 1 1 L - - L 5 * w.w.* h h h R K 1 1 ",
"Q i.P ! I / s./ ^ R K E q.q.d d a H H G Q t.t.d R e.e.J ( E F F q.d T T d / d ( / ( 3 s 3 * = d 5 : : F H L * K * & k & k : G l ",
"Q P ! P P t.q./ / R K K E ( P P d H H 2 Q d T T T e.K K K F R F R t.T Y d d d e.d 3 L K P d = d f : : : / = = K 4 ( ( h g ; H / ",
"H P P P P ! s.s./ R Q K Q 1X.XL d H H s %X,Xa t.t.e.: e.e.R ( R G I a T g d a Y./ >X%X3 , R d R .X2X/ : : = K K = h ( h k / G G ",
"Q i.P ~ ! / s.s.s.e.q.Q R >Xl.d d H H H N.%Xt.t.t.1X{.e.J q.#XE.%XT I d [.d d d d .XZ.L P R R d 8.1X^ G : 4 K K 3 & h h k G : : ",
"q.Q i.L Q Q s.s.Q ~ Q Q Q -X:.{.h G G .X2.V.,XQ h ,X8.s.L &Xk.*.z.-XP P 3.l l l >Xb.8.#XQ G F [.:.,XQ G Q Q W W W 3 3 4 4 : F k ",
"R L i.i.Q k k k Q P F L Q -X=.z.R 3 G Z.=.;.&X- W ,X;._.: ].-.=.-..XP ^.-.- / / #X-.-.E.d F F g.*.1XQ , G W = * W Y 3 , T ~ Q : ",
"R Q L i.i.k k [.-XP F g.Y -X*.1.[.G  X2.*.*.b.1Xh C.=.h.*Xh.*.=.=.k.-X5.*.A.l ,Xv.*.=.8.#X; _.:.*.,X2Xl.G h *X].W Y 3 3 P l l l ",
"( i.^ L Q Q k z.#XF P =.C.=X*.=.2.[.E.=.*.*.-.,XQ -.=.;.k.=.h._.7.-.v.-.*.-.- &X-.=.*.=./._.3.=.*.1XB.:.H & {.Z.W I t.P 3 ; Q l ",
"r.e.L P Y Q F z.9.-Xh 9.-.c.*.*.*.3.2.*.Z.2.*.:.v.=.=.=.=.=.l.XXk.*.=.*.*.*.c.:.*.5.N.*.2.1.*.*.*.c.-.c.D *X8.M.  & R T a P e.e.",
"I K e.e.Y Q F l.*.&Xf 2X*.*.*.*.*.*.*.*.D.XX1.=.=.=.*.*.*.k.W.x.~.7.*.*.*.*.=.*.2.XXZ.*.*.*.*.*.*.*.=.2XW .X*.M.; & % 4 R I s I ",
"3 3 Y e.L G s.D.-.*.&X2X*.*.*.*.*.*.*.*.W.n.[.>.=.-.[.=.=.k.~.c.^.g.*.-.|.*.*.3._.C.Z.*.*.*.*.=.*.*.-.2X#X*.:.!.k R s R R L 5 e.",
"Y 3 3 K 3 G Q /.>.=.*.=Xv.*.*.*.-.-.*.*.W.n.v.[.:.-.XXR.4.E.(.2X~.~.8.).'.&.,._.v.C.Z.*.*.;.=.=.*.*.n.#X*.*.>.].F R R a s s s P ",
"/ T d d d 3 , 3 g.*.*.*.#X*.*.*.h.S.;.*.W.n.>XA.[.5.K.q z f.{.2X[.c.^.d.# @ T.~.%XC.A.*.:.E.5.=.*.*.#X*.*.*.z.e.W T G R T K 5 5 ",
"q.Y ,X-Xd 3 T T l.*.*.*.*.*.*.*.h.{.N.:.D.n.>X2XD.(.9 [ ) +.2X2X2XD.d.i @ @ c 2X*XC.Z.>.C.{.7.*.*.*.*.*.*.=.m.K K e.T -X1XK q.K ",
"s a #Xb.&XG F T [.:.*.*.g.*.*.*.h.~.C.N./.n.>X2X2X#.6 8 X.+.@X2X2X}.j @ @ @ r U.%XC.!.V.C.).5.*.*.*.g.*.*.1.{.K K e.&Xc.&XL / q.",
"L R .X-.E.F T F F 2.*.*.V.k.=.*.1.v.x.C.{.n.-X2X2XO O.O.O.` H.2X2X2XM o @ @ } b *XC.{.B.9.b.:.=.*.l.N.*.=.g.W K e.e.V.-.%XK / q.",
"/ R .X*.5..Xe..X>Xk.*.*.=.z.k.*.*.8.B.D.~.c.>X2X2Xo o.8 ' ` G.2X2XU.c @ @ o } b *Xv.~.A.C.3.*.*.l.z.*.*.=.z.-X#XP .X2.*.$X^ P K ",
"Y ( #X:.=.5.S.[.S.].-.*.*.:.{.l.*.v.D.|.%Xn.>X2XF.` { @ e { +.OX2XN @ @ @ @ } b *XC.*X[.~.h.=.z. X-.*.*.<._.E.[.S.2.=.>.-XQ I L ",
"h R ,XS.*.*.-.7.(.m.-.*.*.-.v.).k.N.8.|.2X*X1X2Xo e O.) [ O._ J.2XN @ @ @ @ } b ,X&X2X[.8.N.x._.l.*.*.*.-.M.Q.7.-.*.*.Q.1Xh h Y ",
"I K ( ].*.*.=.*.2.6.=.*.*.*.2.).c.c.C.W.*X2X2X2X@ O O.O.[ _ _ v M $ @ @ @ o } b 2X2X#X~.C.c.x.[.:.*.*.*.-.5.2.*.*.*.*..X( I L L ",
"^ T T  X1.*.*.*.=.-.*.*./.*.=.k.~.W._.x.#X2X2X2X@ { } 6 o.} _ v n n $ @ @ o } b 2X2X|.c.[.D.~.8.*.*._.*.*.-.*.*.*.*.1.%XE L Q Q ",
"T T F 2XE.*.*.*.*.*.*.*.:.{.W.=.1.x.[.,XW.&X2X2X@ O.{ q O.O._ @ @ $ b $ @ o.o.b 2X%X!.1X).x.,.=./.{.;.*.*.*.*.*.*.*.(.2Xh G G I ",
"T Y T D (.*.*.*.Q.1.*.*.-.{.n.XXXX~.[.2X2X2X2X2X@ O O.O.O.O.O.8 @ @ @ n @ O.@ b 2X2X2X2X/.^.XXXXv. X*.*.*.5.D.*.*.*.].h E Q I W ",
"l T / T  X1.*.*.=._.:.*.*.:.[.x.c.x.x.|.2X2X2X2X@ O.o.O.) @ 8 8 v M $ M $ o.o b 2X2X2X[.x.c.c.x.{.-.*.*.2.Q.*.*.*.3..Xk E Q G P ",
"R K K t.t.E.=.*.*.E.XX1.=.>.^.D.,X.Xn.{.1X2X2X;X0 o.w O.] 9 _ _ O @ @ b @ O.o.b 2X2X1X[.n.#X,XA.).-.*.2. XD.*.*.=.(.R k k F F T ",
"q.Q K Q t.|.2.*.*.*.{.XX2.1.1._.W.2X2X[.*X2X2Xc [ O.[ [ [ [ { O._ O @ @ q O.] C 2X2X#X|.2X2XZ.[.>.2.2.XX_.*.*.*.5.#Xk k k , E T ",
"R Q Q Q K K Z.=.*.*.Z.XXXX^.k.D.!.>X2X2X2X2X2Xc e ` @ # p @ e ) { _ e O o.) $ OX+X2X2X2X2X-X~.D.h.).XX XV.*.*.-.Q.R r.h k 3 T T ",
"/ Q Q =X#XW .X2.*.*.*.Z. Xc.D.l.N.).2X2X2X2X2Xc O.@ @ p A @ b C ..{ O.0 } @ $ C F.U.+X2X2XW.N.v.W.x.XXV.*.*.=.7.#Xl #X>XF F F 3 ",
"T P L &XE.#X2XV.-.*.*.*.XXA.c.C.8.^.&X2X2X2X2Xc O.@ @ < y @ n +XI.t _ O 8 @ G.H.H.G.H.+X%X^.8.C.c.A.XX*.=.=.=.S.2X.XS.=XR L f Y ",
"! Y 5 d (.7.#X#X2.=.*.*.b.{.v.[.).n.[.2X2X2X2XL.8 @ @ v v c @ M oXU.c @ @ J.G.F.n +XM n a.C._.[.c.XXl.=.*.*.7.$X.X5.].( ( I I L ",
"! ( Y d &Xj.7.$Xb.=.*.*.*.v.^.{.>X.X_.%X2X2X2X2XU.@ @ c c v c @ n ^ ..9 J.<XL.F.J.G.P.P.u.T.,X_.^.k.*.=.*.-.Z..X5.z.=XT R L / / ",
"F L ( L ( (.;.5.].<.=.D.*.:.[.A.2X2X>X,X2X2X2X2XN @ @ @ @ $ r e 7 ' o.0 ;XN V OX;X+XU.P.F.U.2XC.{.-.=.Z.*.5.(.2.:.].F F G h / ^ ",
"~ ! - h Q >Xz.*.2.-.=.2.Q.=.h.).[.2X2X2X2X2X2XN n @ @ @ @ e { 8 ` o.6 $ n OXU.n F.<X;XH.c U.).).8.=./.1.*.-.2.*.m.,XT T R H H G ",
"~ Q h l Q R ,Xk.*.*.*.*.XX!.=.h.^.[.2X2X2X2XN n @ @ @ @ @ O 0 O O 0 o @ @ b v { ' v H.;XC y.).6.*.).XX*.*.*.*.z.,Xd R d T / H H ",
"G h ~ Q Q R G D.-.*.*.*.:.XX|.|.^./.2X2X2XN n $ @ O  .n @ @ @ v M n $ n @ o.{ O m :XP.H.F.$._. X|.XX-.*.*.*.>.!.E T d d d H H , ",
"; h 2Xg Q G R e.g.*.*.*.-.XX[.C.XX~.[.2XV n $ @ @ O O. .M M M c @ @ n $ @ o c 2X2X2XP.o #.^.XXn.{.XX=.*.*.*.z.E E d = d 2X, , / ",
"3 &Xk.,X1X1X2X^ / 5.*.*.=.>.{._.c.A.A.U b $ @ @ @ @ o w O.X.v @ @ @ n @ @ M <X2X2X2X2X_.W.C.x.[.{.-.=.*.*.g.f W 1X1X1X,X7.>Xl G ",
"I R #X2.S.S.Q.-X2XD.-.*.*.:.<.[.^.c.f.x b $ o @ @ @ O | | ..c o @ @ b $ @ @ V 2X2X1X_.v.B.c._.[.:.:.*.*.;.W.1X-XE.Q.V.2.&X> > G ",
"3 3 H ].-.m.k.1.[.#X1.*.=.W.2.k.D.).u.b c @ @ @ @ @ o @ o O w q O 0 O q @ @ M ;X2X&XC.|.>X~.W.h.2.!.*.=.5.#X_.,.z.l.-..XP l > > ",
"L G 3 &Xh.*.*.*.1.=.3.*.*.;.Q._.V.R.x b $ @ @ @ @ @ @ @ O 8 | | w 8 0 { O @ $ C 2X2X2X2X).).z.[.W.-.*.=.1.-.,.*.*.*.l.-XP F Q l ",
"e.Q Q Q .X5.*.*.*.*.*.*.*.*.:.W.{.p.v c @ @ @ @ @ @ @ @ e [ 8 e @ @ e } 7 @ @ C 2X2X2X-XA.C.|.W.-.*.*.=.=.=.*.*.*.7.$XL K F F 3 ",
"T L Q Q F .X5.*.=.h.-.*.*.*.*.:.Z.0.v c @ @ @ @ @ v @ @ 0 ] ] q @ @ ] O.O.@ @ n +X2X-X_.C.B.V.;.*.*.*.*.-.g.*.*.5.#XL L L G G G ",
"( F L Q W T S.-.=.g.N.V.*.*.*.*.,.0.v c @ @ @ @ v U.@ 9 _ ] O.8 @ @ 6 } 8 @ @ $ G.2X-X[.!.N.:.*.*.*.*.V.N.8.*.;.!.E J J L F G G ",
"Y F Y F F G -Xb.-.=.8.XXS.Z.N.*.%.x v $ @ @ @ v OX<X@ O 6 6 ) 7 @ @ @ e ` ` @ $ G.2X$X^.V.:.*.*.V.Z.S.|.7.=.-.N.-XL L L L G G G ",
"h ! ! h & > I -X5.*.*.5.XXA. X!.p.c v @ @ @ v +X1 2XP.9 ] ] _ 9 @ @ @ @ } O.@ $ G.*XW.V.:.l.W.!. XC.XX5.*.*.h.-XG J J J I J G G ",
"t.! ! h ~ I R R &X<.*.*.2._.n.n.y.c v @ @ b +X2XK <Xb q O.O._ @ @ @ @ b 0 q @ $ u.D.{.{.).{.A.n.n._.1.=.*.5.=XG G J R H H I H G ",
"g g ! ! ~ g > h h >X:.*.*.2.).9.$.v v o v a.v.,XK :X@ o 9 9 o @ @ @ b M $ n @ $ u.x.v.v.v.v.x.x._.1.*.=.2.>XF G Q J R R f G I L ",
"k X g ! g > l I T E v.=.*.=.2. XK.c v b OX1X1X2XK <X@ @ $ M v @ @ b M $ ;X<Xn $ u.1X1X_.9.x.). X,.=.*.=.n.Q G > , f J J f G P I ",
"e.s., I P = ~ D.$X2X2Xx.=.:.).=.@.c M a.#X/ / L ^ <X@ @ @ c v Z y @ @ ;XI d <XN G.G  X_.).^.5.=.[.-.=.b.2X2XXX).  3 D F I P G H ",
"q.s.s., P h h h l..XN.>XXX;.5.D.@.i #.[.2X^ / d d <X@ @ + i v + A %.p ;XL Q L d K K 1X_.D.8.-.!.1.;.#X=XV.}.M./ / F F 3 Y P L P ",
"q., P , P ~ q.= h l.%X5.$X%XW.g.V.:.6.c.[.2XL d a <Xo < j A < y %.%.j `.2XK W Q Q 1X_.c.6.>.S.7.!.%X$X7..Xm.a q./ 3 Y Y Y I Q Q ",
"H I P i.P l l = = q.W.2Xg.}.k.Z.l.D.~.W.A. X1XK ^ <Xi @.j %.A < u S S < <Xd d K 1X|.A.~.D.D.k.S.k.}.j.1X!./ a / / k Y Y Y G P Q ",
"& E E a . = a I R : : h 1Xm.].m.v.g.D.].,X_.,XY ^ <XB Z Z %.%.u n V V V <Xk F ; -X{.>X[.D.7.N.z.{.z.H W 3 T T > h ! ! h Q W H G ",
"&     X 4 T E T T h T T h 1X].&XA.b.z./.[.,XK / ^ ( :Xu.Z A Z p U.F > G / Q Q Q Q >X[./.l.N.Z.-X_.2XW W 3 : L E h h * D ! Q Q Q ",
"Q a 2 E E T 5 R d T T T T Y f f f *XQ.%X.X>XP Y a l l :XH.H.H.H.@X: G / / Q F k l >X#X#XQ.=XQ W G H W H 3 I E T T h h h D G Q 1 ",
"~ E E E E T E I d f h h h L L L f G G P Q Y K Y P ;   ; H G G G H G / G : k k G : L L 3 3 , H Q W W W H H h T T k ! ! ! h W H H ",
"! Y ( L I E r.H H R T T T 5 L ! K G G s 3 H H G / q.G q.H & & l F f L L h H Q Q Q R R : h d d K J G 3 R G 1 E E E ^ T F Y / K K ",
"L L ( ( d H E E H s s s T L d d L G G E F H H H : K / / / G F t.F h f f L H H F H R h : h d d > d G 3 3 G 2 2 E E F F ^ T K / K ",
"L I ( I d H E r.r.s T i.T d ! K L G I I G H H ( G , , , / r.l G t.f f L L H 1 H Q h h h T J K d d 3 R R R ,   1 E / ^ T / / K / ",
"K P ( P I r.r.E r.I i.i.i.L ! ! ! G G G I q.: H H , H H H r.r.w.t.L L ! D H H H Q R R R h d K : d 3 G G G . . E E I T F T / 3 K ",
"Q W 4 W W ^ / / / T Y Y 4 J 5 W E 5 s 5 q.a X ! ! f h g h s Q H s P L L L L L L L a d E a d W Q   3 L , 3 , L ( L F G ! Q k e.k "
};
