/* XPM */
static char *result[] = {
/* columns rows colors chars-per-pixel */
"64 64 207 2 ",
"   c black",
".  c #260C03",
"X  c #311108",
"o  c #2F352F",
"O  c #2D3C2D",
"+  c #38352E",
"@  c #303030",
"#  c #3B3A31",
"$  c #3A3A3A",
"%  c #421408",
"&  c #421908",
"*  c #421910",
"=  c #4A2110",
"-  c #522614",
";  c #5A2C19",
":  c #5A3119",
">  c #633319",
",  c #443E2A",
"<  c #633521",
"1  c #663B22",
"2  c #6B3D22",
"3  c #6B3C26",
"4  c #733E23",
"5  c #1E6A1E",
"6  c #1B741B",
"7  c #1A7A1A",
"8  c #2A452A",
"9  c #294929",
"0  c #255325",
"q  c #245B24",
"w  c #216121",
"e  c #296B29",
"r  c #6E5A1D",
"t  c #78611A",
"y  c #47422E",
"u  c #554925",
"i  c #6E442A",
"p  c #734121",
"a  c #734329",
"s  c #7B4529",
"d  c #774A2D",
"f  c #7B4B2C",
"g  c #635528",
"h  c #7B4D31",
"j  c #7F5131",
"k  c #5B722D",
"l  c #7B723D",
"z  c #434343",
"x  c #4C4940",
"c  c #4B4B4B",
"v  c #535945",
"b  c #535353",
"n  c #5C5C5C",
"m  c #5C675C",
"M  c #646463",
"N  c #6D6D6D",
"B  c #7B7666",
"V  c #747474",
"C  c #7C7C7C",
"Z  c #896C15",
"A  c #9A7810",
"S  c #A47F0C",
"D  c #804B2D",
"F  c #834E31",
"G  c #845232",
"H  c #895635",
"J  c #8C5935",
"K  c #8C553A",
"L  c #8C593A",
"P  c #925E3C",
"I  c #94613D",
"U  c #98633E",
"Y  c #827736",
"T  c #946142",
"R  c #9A6542",
"E  c #9C6943",
"W  c #A46C43",
"Q  c #A56D4A",
"!  c #A5724A",
"~  c #AC754B",
"^  c #AD794A",
"/  c #AD7552",
"(  c #AD7B52",
")  c #B57D52",
"_  c #0F9D0F",
"`  c #168416",
"'  c #129312",
"]  c #189C18",
"[  c #0DA30D",
"{  c #0BAA0B",
"}  c #07B607",
"|  c #05BD05",
" . c #08B308",
".. c #13AF13",
"X. c #2F8D2F",
"o. c #27A527",
"O. c #03C203",
"+. c #00CD00",
"@. c #4F884F",
"#. c #B28E13",
"$. c #A69738",
"%. c #B3A13A",
"&. c #CB9901",
"*. c #D7B11A",
"=. c #FFC700",
"-. c #FFC804",
";. c #FFCB0B",
":. c #FFCD13",
">. c #FFCE1A",
",. c #FFD015",
"<. c #FFD31D",
"1. c #FFCF23",
"2. c #FFD223",
"3. c #FFD32C",
"4. c #FFD82C",
"5. c #ECC839",
"6. c #FFD433",
"7. c #FFDA35",
"8. c #FFD63A",
"9. c #FFDA3D",
"0. c #FFE13E",
"q. c #A3954F",
"w. c #B58253",
"e. c #BD8652",
"r. c #B5835A",
"t. c #BD865A",
"y. c #BD8A5B",
"u. c #B3A44C",
"i. c #8E886E",
"p. c #BD8E63",
"a. c #A39B63",
"s. c #C6B54E",
"d. c #CA9766",
"f. c #CDBE63",
"g. c #DAC54C",
"h. c #E9D24E",
"j. c #FFD644",
"k. c #FFDA45",
"l. c #FFD749",
"z. c #FFDC4C",
"x. c #FFDC53",
"c. c #FFDD5B",
"v. c #FFE343",
"b. c #FFE44B",
"n. c #FFE553",
"m. c #FFE35C",
"M. c #FFE95D",
"N. c #FFDE63",
"B. c #FFDE69",
"V. c #FFE464",
"C. c #FFE964",
"Z. c #FFE46B",
"A. c #FFEA6A",
"S. c #FFE573",
"D. c #FFEB73",
"F. c #FFE57B",
"G. c #FFEB7C",
"H. c #848484",
"J. c #8C8C8C",
"K. c #959595",
"L. c gray61",
"P. c #B7B689",
"I. c #A4A4A4",
"U. c #AAAAAA",
"Y. c #B6A7AE",
"T. c #B5B5B5",
"R. c #E6B684",
"E. c #D4CC91",
"W. c #E2D684",
"Q. c #FFE583",
"!. c #FFEC83",
"~. c #FFE68C",
"^. c #FFED8B",
"/. c #FFF085",
"(. c #FFF18D",
"). c #FFED93",
"_. c #FDEA98",
"`. c #FFF194",
"'. c #FFF29B",
"]. c #C5C3BF",
"[. c #E5E1AA",
"{. c #FFEDA8",
"}. c #FFF2A4",
"|. c #FFF5AC",
" X c #FFEEB3",
".X c #FFF5B3",
"XX c #FFF9B5",
"oX c #FFF3BC",
"OX c #FFFABB",
"+X c #CEBAC3",
"@X c #C4C4C4",
"#X c #CBCBCB",
"$X c #D4D4D4",
"%X c #FFF4C4",
"&X c #FFF5CB",
"*X c #FFF9CA",
"=X c #FFF6D4",
"-X c #FFF8D3",
";X c #FFF7DA",
":X c #FFF9DC",
">X c #E3E3E3",
",X c gray93",
"<X c #FFFAE3",
"1X c #FFFCEB",
"2X c #F2F2F2",
"3X c #FFFDF4",
"4X c #FFFFFE",
/* pixels */
"W ~ U G ~ ! ! G Q y.E d f p H H J H H H I Q Q Q Q 2 X 2 W J < < H F ; F F Q F ; ; 1 1 & 3 X > P < 4 4 4 4 F *   F ; f ; ; < ( w.",
"L U ~ U R P P U I E E E U p H ^ ^ T H d H Q Q 1 . i W W W < < ~ H F F F F Q Q ; ; 1 L > L < X P < - - P 4 * * * * ; f ; f L L L ",
"L ~ ~ ~ G I ! T G s s E E ~ J J J H H d T Q Q 1 2 W W W W ~ H H ~ F ~ F G ! Q F ! L L 1 L < < < P - - K p * e.e.* h f f E L < < ",
"! p.I ~ U ( d.( ( W L W w.) a a i H H L ! y.y.a E r.r.J r.R F F w.s R R a ( a ( ( ) 1 p 2 = * s 4 ; ; H H L * L * & h & d ; j j ",
"! I ^ I I y.( ( ( Q L L E ) I P a H H > ! a E U E r.L L L F R F R t.R R a a d ( a p L L P a = a s ; ; ; ( = = L 3 ) ) f h ; G ( ",
"H I I I I ^ d.d.( E ! L W 4XoXI a H H p *X<Xi y.y.r.> r.r.R w.R F E i R a a a R.( 1X*X2 2 E a E oX3X( ; ; = L L = f ) f h ( G G ",
"! p.I ! ~ ( d.d.d.w.w.E E 3X9.a a H H H G.oXy.y.y.L }.r.K w.&XF.%XU U a |.3Xa a a *XV.P L E R a z.<X/ G ; 2 L L 3 & s f h G ; ; ",
"w.~ p.P ~ ! d.d.~ ! ^ ! ! 3X:.}.f G G %X8.m.<X! d L 4.d.P :Xc.=.z.=XI I 9.3Xj j 1XZ.3.oX! G F |.>.<X! H ! ! Q Q Q 2 3 3 3 ; F h ",
"R P p.p.! h h h ! I F P ! 1X-.l.E 2 G Q.;.;.%X- ! P ;.).; oX;.=.;.{.I '.:.1X( w.;X:.-.S.a G F c.-.:X! > G Q = * Q I i p I ! ! ; ",
"R ~ I p.p.h d |.-XT F x.4X3X=.:.'.H %X7.=.=.n.1Xf S.=.6.;Xn.=.=.=.v.=Xl.=.A.j 3XM.=.=.3.oX- }.2.=.:X> l.H s ;X}.! I > 1 I j j j ",
"r.p.~ L / ! h S.|.F I >.C.3X=.-.2.'._.-.=.=.;.;X! ;.=.:.b.;.8.'.z.-.b.:.=.;.= 1X;.=.=.-.F.{.3.-.=.;XA.-.G = %Xc.Q R y.I > ; ! j ",
"t.r.T L T ! G B.7.-Xd b.-.b.=.=.=.2.3.=.V.8.=.:.n.=.=.=.-.=.z.OXn.=.-.=.=.=.n.>.=.3.S.=.4.4.=.=.=.b.;.0.f :X9.c.  % E E a U r.r.",
"I P r.r.P ! G B.=.oXs 3X-.=.=.=.=.=.=.=.D.XX3.=.=.=.=.=.=.8.(.v.!.l.=.=.=.=.=.=.>.OXG.=.=.=.=.=.=.=.=.4X! -X=.x.- % % 4 E I p I ",
"2 2 L r.P G d.^.:.=.&X4X;.=.=.=.=.=.=.=.D.A.'.3.=.=.|.;.=.9.(.v./.z.-.-.}.;.=.:.|.M.!.=.=.=.=.=.=.=.=.4X;X=.:.G.F U i R E U p r.",
"T p p P 3 F Q '.2.=.=.&XM.=.=.=.;.;.=.=.S.C.n.'.<.*.[.`.8.(.^.4X'.!.5.W.oX;.<.|.n.M.!.=.=.;.;.=.=.=.n.;X=.=.,.).h E E i 2 p p I ",
"( T a i 4 2 3 2 x.=.=.=.%X=.=.=.6.^.:.=.S.A.-X/.E.@ # g.(.b.}.4X|.h.k 0 P.6.}.D.:XM.!.=.:.F.k.=.=.=.oX=.=.=.j.r.Q E H E E L 4 4 ",
"( R 3X-Xi 3 U R B.=.=.=.=.=.=.=.8.|.Z.>.S.A.-X4Xz @ @ y s.D.4X4X4XH._ { 8 _.G.4X<XM.G.:.V.|.l.=.=.=.=.=.=.-.z.L L r.E :X3XI ( P ",
"p i =Xn.-XF F R |.2.=.=.j.=.=.=.7.`.C.A.^.A.&X].e @ @ @ v }.4X4X$X@.{ ` 5 $.4X4X:XM.'.C.A./.k.=.=.=.j.=.=.>.}.L L r.;Xm.%XL ( w.",
"P E &X;.S.F R F G j.=.=.V.x.=.=.<.m.0.C.|.C.-Xb | @ @ @ M 4X4X4XJ.' +.+.+.O 4X4X<XM.|.A.v.n.2.=.=.l.Z.=.=.3.Q L r.r.!.;.oXL ( w.",
"( E &X=.3..Xr.%X:Xc.-.=.=.c.x.=.=.6.C.D.(.n.-Xb | @ @ @ y T.4X4XJ.' ' 7 | O 4X4X<Xb.(.G.M.9.=.=.z.c.-.=.=.z.<XoXT oX6.=.oX( P L ",
"T w.=X<.=.3.F.}.F.}.>.=.=.;..Xm.=.k./.}.&XC.-Xb O.@ @ @ @ V 4X@X@.} w @ } ' H.4X<XM.*X.XG.n.=.z.|.<.=.=.:.{.F.{.F.6.-.,.oX( I P ",
"f E 3X~.=.=.;.6.~.B.:.=.=.=.z.'.v.V.9.}.4X-X3Xb | @ @ @ @ N 4XL.` +.{ _ +.w @ 4X3X-X4X.X9.V.z.`.x.;.=.=.-.N._.9.;.=.=.F.1Xs s T ",
"U L )  X=.=.=.=.3.7.;.=.=.=.>.}.b.b.C.!.%X4X4Xb | @ @ @ @ $ M c ` ` { +.+.O @ 4X4X4X-XG.A.b.b.'.3.=.=.=.-.7.3.=.=.=.=.{.) P U P ",
"/ R R &X2.=.=.=.=.;.=.=.'.=.-.9.(.G.}.b..X4X4Xb O.@ @ @ $ n n z ` | O.5 |  .@ 4X4X4X%Xb.`.(.G.z.-.=.`.=.=.;.=.=.=.=.<.oXW I ! ! ",
"R R F 4X_.=.=.=.=.=.=.=.:.|.`.-.<.v._.3X^.*X4Xb | | @ $ b $ $ @ ` +.+.0 } +.@ 4X4X=X^.1X}.v.2.-.^.|.>.=.=.=.=.=.=.=.~.4Xs G G I ",
"R T U F {.=.=.=.G.6.=.=.=.XXn.OXOX(.`.4X4X4X4Xb @ +.@ n @ @ @ 7 +.+.+.+.+.O @ 4X4X4X4X4X}./.OXOXM.|.;.=.=.2.~.=.=.=.).f W ! I ! ",
"j R ( R %X4.=.=.=.^.3.=.=.;.|.v.b.b.0.}.4X4X4Xb O +.@ n $ M b 6 7 @ _ +.O.+.@ 4X4X4X4XoXv.b.b.v.}.,.=.=.>.'.=.=.=.3..Xf W ! G I ",
"E L L y.y._.-.=.=.S.OX3.=.;.`.A.1X%XM.}.3X4X4Xb O.+.@ n @ @ o ` ` 9 [ +.q O.9 >X4X4X3X|.M..X1XG.`.:.=.>.OX^.=.=.-.Q.E h f F F R ",
"w.! L ! y.%X7.=.=.=.'.OX3.3.>.}.D.4X4X.X%X4X4XC _ +.0 @ @ O ` +.} { { { { +.{ z 4X4X-X}.4X4X/.`.2.2.3.OX|.=.=.=.3.oXh h h 2 R W ",
"E ! ! ! L L Q.;.=.=.Z.oXOX`.k.G.!.:X4X4X4X4X$XT.z _ O.O w 7 } ' 5 @ u + @ ' q z 4X4X4X4X4X:X(.G.l.(.OXOXS.=.=.-.S.R t.h h 2 R U ",
"( ! ! <XoXQ %X8.=.=.=.Z.OXv./.x.C.!.4X4X#XU.J.C $ @ O.9 +. .X.C b @ A u @ @ +.z 4X4X4X4X4X).C.x.!.v.OXS.=.=.=.3.oXh &X;Xh F F 2 ",
"R I P ;XF.oX4XF.;.=.=.=.OXD.b.A.7.^.&X#XK.J.K.L.H.@ 7 O ` X.Y.#Xn @ r , @ @ +.z 4X4X4X4X=X(.k.C.b.D.OX=.=.=.;.Z.4X%XF.&XW P D P ",
"~ T a 4 {.6.oX&X8.=.=.=.x.XXb.|.`.C.f.n M #Xn J.J.K.@ @ c Y.+Xn @ z c c $ @ 7 U.4X4X4X4X}.M._.|.n.|.m.=.=.=.3.%X%X8.~.) ) P U I ",
"~ ) P a ;Xc.6.oXS.;.=.=.=.z.(.}.1XE.i.U.U.J.L.C I.2XI.8 X.C n @ z c z z @ @ U.4X4X4X4X-X}..X<X|.(.x.-.=.=.;.c.&X8.x.=XW R U / ( ",
"F P ) I ) {.,.6._.6.=.S.=.;.|.A.4XT.H.U.].#X>X@XV N >X9 O._ 6 w e @ @ @ @ @ V 4X4X4X4X1X<X4X4XD.}.,.=.Q.=.1.}.6.:._.F F G s ( ( ",
"^ ~ - s ! 1XB.=.2.:.=.2.`.=.8.`.).T.z J.>X2XH.n T.@Xb o 5 +.' 7 } q @ @ @ @ n N 4X4X4X4X4X4X}.(.k.=.^.3.=.;.3.=.x.1XR R R H H H ",
"^ ! h f ! E 1Xc.=.=.=.=.OX`.-.8.`.u.C >XJ.c ] } v c @ @ O 9 O O 8 O @ @ @ @ $ n N 4X4X4X4X}.(.k.-.^.OX=.=.=.=.l.1Xa E a R ( H H ",
"G f ! ^ ! E G ^.:.=.=.=.;.OX.XXX`.%.H.K.U.2Xm O } O.$ n $ M M c @ @ @ n ..O @ $ n N 4X4X4X`.(.XX.XOX,.=.=.=.;.G.W R a a a H H > ",
"; d 3Xh ! G R r.x.=.=.=.=.OX|.M.OX`.$.@ U.4X4X4Xz @ @ $ n @ @ z M M M ..+.O @ @ $ n V 4X}./.OXA.}.OX;.=.=.=.l.W W a = a 4X> > w.",
"2 <Xj.1X3X4X3X( ( l.=.=.=.;.|.|.b.A.!.'.3X4X4X4X2Xn @ $ b @ @ @ c o.+.q @ @ @ @ @ $ b Y D.D.v.'..X,.=.=.=.6.s ! 3X3X3X1Xx.-Xh h ",
"I E =X3.A.~.Q.;X3X^.:.=.=.<.:.}.`.b.M.n.'.3X4X4XV @ @ $ b @ o @ c X.} } O o @ @ @ $ c l h.M.(.|.2.>.=.=.;.G.4X:X^.F.F.3.&X: : j ",
"2 2 G oX;.x.N.<.'.%X3.=.=.^.3.j.G.(.<X.XA.-X4X>XM @ @ 0 O 8 O 0 q O @ @ @ @ @ @ @ @ z c i.`.G.b.3.!.;.=.2.%X}.<.x.N.;.{.I F : : ",
"P G 2 ;Xx.=.=.=.<.;.2.-.=.-.^.}.V.(.`.4X4X4X4XC @ @ O } 8 7 q  . .7 O o @ @ @ @ @ @ $ c l W.Z.).^.:.=.=.2.;.2.=.=.=.j.-XI j ! j ",
"r.! ! ! &X8.=.=.=.=.=.=.=.=.;.!.|.D.D.:X4X4X4XC $ @ 6 | w @ @ q 7 { w @ @ @ @ @ @ @ @ z c a.|.^.>.=.=.=.=.=.=.=.=.6.oXL J H H > ",
"R P Q ! F %X8.=.=.k.:.=.=.=.=.:.Z.A.C.}.:X4X@Xn @ @ +.+.{ @ @ 0 { _ 9 @ o z @ @ @ @ @ z c a.Z.<.=.=.=.=.;.l.=.=.6.oXP P P G G G ",
"r.F P ! W E ).:.=.9.V.Z.=.=.=.=.>.V.^.'.:X4XJ.$ @ @ 7 | 5 @ @ 6 +._ ` 8 @ T.b @ @ @ @ z c q.<.=.=.=.=.Z.V.l.=.;.F.W P P P F G F ",
"U F P F F G ;XV.;.=.8..XF.G.Z.=.=.>.V.(.-X4XJ.$ @ ' ' w @ @ @ 6 ' 5 5 O @ ,X@Xc @ @ @ @ c g *.=.m.S.F.OX9.=.;.m.=XP J J P G G G ",
"d ~ ~ d * : R :Xj.=.=.6.OXC.OX!.!.x.>.Z.!.-XJ.$ @ +.| @ @ @ @ 8 ` [ [ 8 U.3X( #Xb @ @ @ x c a.^..XD.XX6.=.=.6.;XF H J J E J G F ",
"t.~ ~ d ^ U E R ;X6.=.=.2.}.M.n.D.|.`.|.|.G.i.+ o 0 0 b @ @ @ @ ` +.+.0 b 2X~ 4X@Xb @ o c z u.M.M.'.3.=.=.1.;XG G J E J J E G F ",
"d d ~ ~ ^ h : d d <X3.=.=.1.'.v.v.n.n.n.n.v.i.$ @ b # M b @ @ @ O 8 8 @ @ ,X( 3Xn.s.b o c c %.0.`.3.=.=.:.<XG G ! H E R s F U P ",
"d & s ~ d : f E R W M.-.=.=.2.XX`.v.v.'.3X3XJ.$ M 2X>X, M b @ @ c M z @ @ 2XL 4X3X3X#Xc c c P..X6.=.=.=.b.! G : > s J H s G I U ",
"w.d.> U I = ^ (.oX4X4Xn.-.;.}.=.6.(.).'.XX( J.N 2X/ T >X@ @ r Z c z @ @ @ 2XK a a H %Xs.M z #.-.`.,.-.b.4X4X*X!.  2 F F U I G H ",
"w.d.d.: U f f f B. XA.=X*X;.3.^.:.9.G.'.4X( ( a 3 T / >Xu &.Z + c x @ @ @ ,XL p L H 3X}.$., #.Q.6.:.oX<XC.oXc.( ( F F 3 T P U I ",
"w.: I > I ^ ^ = f B.oXj.&X*X^.8.S.>.4.b.'.3XL i a s 3X@Xr &.&.t , A g y + 2X! ! ! 4X|.b.7.,.D.k.G.%X-X6.&Xx.i w.( 3 P T T I Q ! ",
"J U I p.I j d - = w.~.3Xj. Xz.D.l.G.G.!.D.|.3XL / P 2X# S S t , A &.g S y 2Xa L 3XoXD.!.G.G.x.S.x.{.l.4XQ.( i ( ( h T T T G I ! ",
"* W W i . - i U U : ; f f c.oXc.V.9.G.}.<X|.<XT ( K 2XC V V n t &.&.Z Z B 2Xh ; 1X'.1X}.G.l.n.N.|.N.3XQ > W E : f ~ ~ h ~ ! G G ",
"&     X 3 U U W R f R R f 4X'.<XD.C.z._.}.<XP ( ( ) w.r.H ^ T.u Z Z Z i.,X! ! ! ! 1X|.).c.m.S.=X}.3XQ Q 4 ; R R f f * F ~ ! ! Q ",
"~ i 3 W W W a P a R R R R P s s s :X).oX%X;XP T a G j H - ^ $XK.K.K.L.>X~ ! h h h <XoX&X~.-XQ ! G H Q H 2 R R U R f f f f H ! < ",
"~ W W W W R R W a f f s f P P P s G F I Q I L L P -   - G G G G H H ( G ; F F G ; I I 2 2 > H ! ! Q Q H H f P W f ~ ~ ~ f ! G G ",
"~ U ) P T W t.J J E R R R a P ~ L G G p 3 H L H ( w.G w.L & & j F s J I s G ! ! ! E E ; f a a L K G 2 R G < W W W ) T F R ( L L ",
"L I ) ) a H W W J p p 4 R P 4 a P F G E G H H H : H ( ( ( j j y.G f s D P H H G H R f ; d a a : a G 2 > G 1 1 W W F F ( R L ( L ",
"P I ) I a H W t.t.p R p.R a ~ L P G U E G H G ) H > > > ( t.j G e.s s P P H 3 G ! f f f E K K a a 2 E W E >   1 W ( / R ( / L ( ",
"P T ) I U t.t.W t.R p.p.p.P ~ ~ ~ G G G E ) ; H H > H H J t.t.t.y.I P ! s H H H ! E E E f a K : a p H G G . . W W U R F T ( 2 L ",
"! Q 3 Q Q ( / ( ( T T T 3 J p Q W 4 4 4 w.a X ~ ~ s d d s p ! J p P P P P P P P P i i W a a ! !   > L 1 2 > P ) P F G ~ ~ h r.h "
};
