/* XPM */
static char *result[] = {
/* columns rows colors chars-per-pixel */
"64 64 166 2 ",
"   c black",
".  c #210800",
"X  c #290800",
"o  c #290C00",
"O  c #290C08",
"+  c #291008",
"@  c #311008",
"#  c #311408",
"$  c #3A1408",
"%  c gray19",
"&  c #421408",
"*  c #421808",
"=  c #421C08",
"-  c #421810",
";  c #421C10",
":  c #4A2010",
">  c #4A2410",
",  c #522410",
"<  c #5A2410",
"1  c #522810",
"2  c #522419",
"3  c #522819",
"4  c #562B19",
"5  c #5A2819",
"6  c #5A2D19",
"7  c #5A3119",
"8  c #632D19",
"9  c #633119",
"0  c #633519",
"q  c #633121",
"w  c #633521",
"e  c #6B3521",
"r  c #633921",
"t  c #673921",
"y  c #633B25",
"u  c #673D25",
"i  c #673F25",
"p  c #6B3921",
"a  c #6B3D21",
"s  c #6B3D25",
"d  c #6B3F25",
"f  c #6F3F25",
"g  c #6B3D29",
"h  c #6B3F29",
"j  c #733D21",
"k  c #733F25",
"l  c #6F4329",
"z  c #6B452D",
"x  c #6F492D",
"c  c #734121",
"v  c #734129",
"b  c #734329",
"n  c #734529",
"m  c #734729",
"M  c #77472D",
"N  c #7B4529",
"B  c #774929",
"V  c #77492D",
"C  c #774B2D",
"Z  c #7B4929",
"A  c #7B492D",
"S  c #7B4B2D",
"D  c #7B4D2D",
"F  c #775728",
"G  c #7B4931",
"H  c #7B4D31",
"J  c #7F4D31",
"K  c #7F5131",
"L  c gray40",
"P  c #804B2D",
"I  c #804D2D",
"U  c #804D31",
"Y  c #804F31",
"T  c #844D31",
"R  c #844F31",
"E  c #805131",
"W  c #845131",
"Q  c #845331",
"!  c #845531",
"~  c #845335",
"^  c #885331",
"/  c #885531",
"(  c #8C5531",
")  c #885335",
"_  c #885535",
"`  c #885735",
"'  c #8C5735",
"]  c #8C5935",
"[  c #8C553A",
"{  c #8C573A",
"}  c #88593A",
"|  c #8C593A",
" . c #8C5B3A",
".. c #90593A",
"X. c #905B3A",
"o. c #94593A",
"O. c #905D3A",
"+. c #905F3A",
"@. c #945D3A",
"#. c #945F3A",
"$. c #905D3E",
"%. c #905F3E",
"&. c #945F3E",
"*. c #94613A",
"=. c #94613E",
"-. c #94633E",
";. c #98613E",
":. c #98633E",
">. c #946142",
",. c #986342",
"<. c #986542",
"1. c #986742",
"2. c #9C6542",
"3. c #9C6742",
"4. c #9C6942",
"5. c #9C6D42",
"6. c #9C6946",
"7. c #9C6B46",
"8. c #A56942",
"9. c #A56D42",
"0. c #A06B46",
"q. c #A06D46",
"w. c #A56D46",
"e. c #A06D4A",
"r. c #A06F4A",
"t. c #A56D4A",
"y. c #A56F4A",
"u. c #A5714A",
"i. c #A5734A",
"p. c #A5754A",
"a. c #A0734E",
"s. c #A9734A",
"d. c #AD714A",
"f. c #AD754A",
"g. c #A9754E",
"h. c #A9774E",
"j. c #AD794A",
"k. c #AD7552",
"l. c #AD7952",
"z. c #AD7D52",
"x. c #AD7D56",
"c. c #B57D52",
"v. c #09BD00",
"b. c #CD9A00",
"n. c #B58252",
"m. c #B18256",
"M. c #BD8652",
"N. c #B5825A",
"B. c #B5865A",
"V. c #BD865A",
"C. c #BD8A5A",
"Z. c #BD8E5A",
"A. c #BD8A5F",
"S. c #B6BC45",
"D. c #BD8A63",
"F. c #BD8E63",
"G. c #C59263",
"H. c #C59663",
"J. c #CE9A63",
"K. c #CE9A6B",
"L. c #CE9E6B",
"P. c #D6A673",
"I. c #CBBA8A",
"U. c #E6B684",
"Y. c #FFB9DA",
"T. c #FFFEF9",
/* pixels */
"q.f.:.W f.u.u.W u.C.4.Z Z a ] ] ] _ _ _ >.t.t.t.t.d @ d 9._ w w _ R 6 R R t.U 6 6 t t * t @ w o.w k k k k Y -   Y 6 S 6 6 w z.z.",
"| :.f.:.:.=.=.=.=.4.4.4.4.a ] f.f.>._ Z _ t.t.u o d 9.9.9.w w f._ R R R R t.t.6 6 t | t | w @ o.w , , o.k - - - - 6 S 6 S } } } ",
"| f.f.f.W =.u.=.W Z Z 4.4.f.] ] ] _ _ Z >.t.t.u u 9.9.9.9.f._ _ f.R d.R R t.t.U t.| | t | w w w o., , o.k - M.M.- S S S 4.} w w ",
"u.F.*.h.*.l.K.l.l.q.| q.n.c.v v v ` ` ` u.C.C.n 1.N.N.| N.3.T T n.n <.<.n x.n x.x.c.a a a : : n n 6 6 ~ ~ | : | : * S * S 5 ~ ~ ",
"u.*.h.*.*.A.l.l.l.q.| | q.c.&.&.v ` ` a u.n 1.1.1.N.| | | T 3.T 3.V.<.<.n n n x.n a O.O.O.n : n n 6 6 6 l.: : | s c.c.S S 5 ~ z.",
"' *.*.*.*.l.K.A.l.q.q.| q.c.c.&.v ` ` a a n n C.C.N.9 N.N.3.n.3.T <.n <.n n n U.x.a c.a a 4.n 4.n 6 l.6 6 : | | : S c.S S z.~ ~ ",
"u.F.*.h.h.l.K.K.K.n.n.q.q.c.&.v v ` ` ` u.C.C.C.C.| N.N.| n.n.3.3.<.<.n n n n n n a a O.O.4.4.n n ~ l.~ 6 s | | s * S S S ~ 5 5 ",
"m.g.F.@.g.i.J.J.i.p.p.p.p.V.3.Z Z Q Q Q Q D D u.D $.G.G.$.l.l.=.=.A *.*.A K K K z.u.& u.u.T T 4 4 p.p.Q p.t.t.t.t.a a a a 5 Y Y ",
"2.@.F.F.g.H H H i.=.T =.p.3.Z Z 3.a Q 4.a u.D 1 u.$.G.$.5 Z Z =.=.*.*.A q , z.z.z.u.b u.b T T 4 4 p.p.9 Q t.: : t.-.a a -.p.p.5 ",
"2.g.@.F.F.H H H i.=.T T =.Z 3.V.V.Q Q 4.a u.u.D D   5 $.$.Z Z Z =.A *.*.*.K K K K u.b u.u.4 T T 4 9 9 9 Q M M M t.-.a a -.Y Y Y ",
"m.F.g.@.g.i.H H H T =.=.=.Z 3.V.3.a 4.4.Q u.D D u.% % $.$.Z Z Z Z *.A q A , , K , % % b b 4 T T X Q 9 Q Q : M M t.-.C.-.a 5 p.Y ",
"V.N.%.%.%.i.W W i.6.Z 6.6.N 4.N N j.j.Q Q W W c.% v.% p W ` 7 ` c.&.N &.&.a I a % v.% R 8 { { 5 5 P P P P f.J 2   & 4.4.f =.N.N.",
"=.%.N.N.%.i.W W W 6.Z D.6.' 4.4.4.j.j.j.6 3.c.3.% v.% W W c.7 7 7 N N N N I @.% v.% u.8 8 { 5 5 { P P u.u.J J 2 2 & & f 4.=.c =.",
"a a %.N.%.W H.i.i.D.6.Z Z ' ' 4.4.Q j.j.j.W W % v.% % 4.4.c.7 7 7 N &.&.&.% % v.% % u.R R { { { V.P < u.P J f.J J 4.f 4.4.=.c N.",
"=.a a %.a W i.H.H.D.Z Z 6.4.' N ' Q Q Q 6 W W % v.% % 4.4.` c.c.` l.&.% % v.v.% % u.u.R u.{ V.{ V.P P u.P f.f.J J 4.4.f f c c =.",
"z.1.v v v p p p p E E 5.5.] ] ] u.2.I I 0 2 v % v.% % ` *.3.( ( % % % v.v.v.% % % I 2.I 2.% % | t., , , W e.N.N.e.7.W 7.7.O.j j ",
"z.1.v T.v p 2.2.2.E E 5.5.] ] u.u.2.I I 2.v % v.% v.% % % % % % v.v.v.v.v.v.% % W 2.2.0 % I.% n t.c.W , , | | | | B.7.W W O.z.O.",
"c v 1.1.1.R R 2.2.w E w E u.u.] ] 2.2.2.2.@.% v.% % v.v.v.v.v.v.v.v.v.% v.% % % W I % % I.% t.| n W W W c.N.N.| | B.W W W O.z.z.",
"+.1.Z.Z.1.R 2.R R E 5.E w c ] u.] I I I I @.% v.v.v.v.v.v.% % v.v.v.v.v.% % % W % % I.I.% | | | n W W W W e.e.| N.B.7.W W O.z.z.",
"l.0.| 0.c.B.B.o.o.V.! ! ! p R R 2.<.l.<.W Z % v.v.% % % v.v.% v.% % v.v.% % % % I.I.I.I.% W W W W X.u.u.X.Z Z Z =.G c.,.,.k.&.&.",
"=.c.c.| 0.y.o.y.o.q.! ! ! R R R 2.<.W W <.^ % v.% L L % % v.v.v.% % v.% % % W % % I.I.% % 1.1.W 1.u.u.u.X.=.l.l.Z ,.,.G ,.k.&.&.",
"Z 0.c.c.c.y.o.y.y.! ! ! ! 2.2.R 2.<.W W <.@.% v.% L % % % v.v.v.v.v.v.v.% % % v.v.% % % q.1.1.1.z.N N X.X.=.=.=.l.c.,.,.,.Z Z &.",
"=.| c.c.0.y.B.y.o.! ! ! ! R R R R <.l.l.W % v.v.% L % % % v.% % v.v.v.v.v.% % % v.% % q.| W z.z.z.X.u.X.X.Z Z Z l.,.,.c.c.&.&.&.",
"l.<.<.<.z.3.C.3.N O.O.W W Z ] Z ] :.:.f.W % v.v.% % % % v.v.% % v.v.v.v.% % % v.v.% 2.T 2.3.3.Z 3.T l.l.T r.r.v v S S 9.9.=.u.u.",
"<.<.T <.z.C.C.3.N O.W O.4.4.] ] 4.f.f.f.W Z % v.% % % v.v.v.v.v.v.% % % % % v.v.% T 2.2.c.V.3.3.V.T T T T L.L.r.r.3 3 3 S W W =.",
"<.<.<.T T 3.C.3.N O.O.O.O.4.] ] ] W f.f.W Z / % v.% v.v.v.v.% % % % % % % v.v.v.% 2.2.c.c.3.Z 3.3.l.P.P.l.r.v v r.9.S S 9.u.=.u.",
"W <.z.<.<.3.N N 3.4.O.O.O.4.4.] 4.W W W W / / % v.% v.v.% % Y.% % S.% % % % v.v.% T 2.c.T Z Z Z Z T l.l.T v v v v S 9.S 9.u.W =.",
"q.| | C.C.i.| | i.y.y.@.y.@.@.@.B.j.:.T T O.O.O.% % % % % Y.% S.S.% S.S.% % v.% v.% ] 4.Z | H | H H H H c. .l. .a H 7.H H R R 2.",
"z.u.| u.C.i.i.i.| y.y.@.y.@.@.@.u.j.:.:.:.O.O.O.% b.b.% % % S.% S.S.% % v.% % v.v.v.% ] 4.2.H | 2.<.c.H H l.l.l. .H H H H p 2.2.",
"q.u.u.u.| | | i.Z.N.@.@.@.@.@.u.@.T T :.j.n.O.% % F F % S.S.% S.S.% v.v.% v.v.% v.v.% Z 4.| H | | <.<.H H l.a l. .7.C.H H p 2.2.",
"z.u.u.u.| i.| | i.N.@.y.@.@.u.@.@.:.T j.j.n.O.% % b.b.b.% S.% % % v.v.v.% v.v.v.% v.v.% Z 2.2.H H <.<.<.c.l.l. . .H 7.7.H R R p ",
":.&.&.c.c.2.W W W _ u.u.u.@.@.@.@.T T &.u.f.#.% v.% F F F % % v.v.v.% v.% % % % % % v.% ] *.^ N ^ X.4.4.X.u.B.@.@.T T T 3.=.Z =.",
"f.&.v v &.W a W 2._ _ u.u.s.C.s.s.&.% % % % f.f.% % % % % % v.% v.v.v.% % % S.S.S.% % % ] ^ ^ ^ ^ X.4.4.4.@.@.u.@.T 3.n.n.=.=.=.",
"f.c.&.v c.2.a 2.2.u._ u.u.C.C.s.s.% S.S.% S.% % % S.% v.v.% v.v.v.v.% % % % % S.S.% v.% Z N ^ *.^ X.4.X.4.u.@.@.@.3.T 3.3.=.l.l.",
"W &.c.&.c.W a 2.2.u._ p _ s.C.C.@.% S.S.% S.% v.v.% % % % % % % % % % v.% % % % % % % v.% ^ *.^ ^ T T T 4.u.@.@.B.n.T T T Z l.l.",
"j.p., D p.W W W W @.z.q.@.=.=.W u.% S.S.% % % v.v.% % b.% % % % % b.% % S.% S.S.% v.% % v.% @.@.@.W W <.W _ _ _ 9.2.2.2.2.` ` ` ",
"j.p.D D p.6.6.W W @.@.z.z.u.W W =.% S.S.% S.% % % % % % % % % % % b.b.% S.% S.S.% v.% % v.% W @.@.<.<.W <._ 9.9.g n 2.n 2.z.` ` ",
"W D p.p.p.6.W 6.W q.q.@.q.u.u.=.W &.% % % % % l.% % % % % % % % % % % % % S.S.S.% v.% % % v.% n @.l.l.l.l.9.9.9.9.2.n n n ` ` 9 ",
"5 D D D p.W 6.N.6.@.q.@.q.u.W u.u.&.W &.W W <.W % % % % v.% v.v.v.v.% % % S.S.S.% % % % % v.% W @.W <.W W 9._ 9.9.n > n 2.9 9 z.",
"a Q a Q 4.=.Z l.l.n.O.O.n.7.7.7.7.W W H.i.| p.% % % S.% v.% v.v.v.% % % % % % % % % % % % v.% 2.2.Z Z Z Z u.N u.N n n 3 *.u.E E ",
"&.4.4.Q 4.l.Z Z =.n.n.O.O.7.L.7.7.H.W W W | % S.S.S.% % v.% % v.% S.S.% % v.v.v.v.% % % % v.% 2...Z _ Z >.X.N X.u.*.3 n 3 7 7 E ",
"a a Q a 4.=.Z =.l.p p n.p 7.L.7.L.H.W W i.% v.% S.% % % % b.b.% S.S.S.% % % v.v.% N N % % % % ..T Z Z Z Z N X.X.X.*.*.n *.E 7 7 ",
"&.Q a Q Q =.=.=.=.O.O.n.p p 7.L.7.i.i.i.i.% v.% % S.% % % F F % S.% S.S.% % % % #.*.^ ^ ^ T T T T Z _ _ Z N X.X.X.*.*.*.*.E u.E ",
"N.u.u.u.T W 4.W W n.n.n.n.u.Y u.u.u.| u.| % v.% S.% % % % % % % S.% S.% % % &.v v O.O.Z Z | | M M _ _ >.>.| Z W | X.N X.X.W W a ",
"=.&.u.u.T W W W W x   + + 6 6 Y u.u.| v | c.% % % % % % >.c.c.,.% S.% v.v.% % &.v Z Z O.O.| | | | Z _ _ _ W Z Z | u.X.X.X.W W W ",
"N.T &.u.u.4.n.n.n.x x x n.u.Y 6 6 v | | | c.% v.v.% % % >.,.,.,.G % % v.v.% % c.&.u.u.Z Z | M M | >.Z Z Z Z W Z W u.X.X.X.W W W ",
"=.T &.T T W n.W W x n.n.n.u.u.u.u.u.v | u.3.% v.v.% % % >.G ,.,.,.% v.% % % % c.c.u.O.O.u.| | M w Z _ _ Z W | | W X.X.X.X.W W W ",
"C f.f.V ; 7 2.2.7 p ^ ^ 9.6 6 Y u.9.9.> % % % % % % % % N N &.l.N % v.v.v.% % ` l.q.W W q.y.| | | Z Z X.X.Q Q Q Q ' ' ' 4.O.W W ",
"C.f.f.V f.2.2.2.S ^ ^ ^ p 6 Y u.Y B 9.% S.S.% % S.% % % N N &.l.N % v.v.% % % ` l.C.C.q.W | | | V.t.Z X.X.u.Q Q Q ' 4.' ' 4.W W ",
"C V f.f.f.S 7 S S p 9.9.p Y u.u.u.B % S.% % S.S.% % % S.% N &.N N t.% % % % % l.l.W q.q.q.| | y.V.X.Z Z X.u.Q Q u.' 4.4.N W 4.O.",
"C ; V f.V 7 S 2.2.9.9.^ p Y u.Y u.9.% % B % S.% % % % S.% &.l.N N % % S.S.% % % % % W W W | | | | Z Z Z t.u.Q 0 0 N ' ' N W O.4.",
"n.G.0 -.-.> f.f.f.n.n.$ C >.>.>.>.| | S a % % % l.l.&.% N [ B.e.% S.S.% % S.% % % S.% u.` u.u.O.Z 2.2.2.y z.z O   p U U >.=.W W ",
"n.G.G.0 -.D D D > C $   C >.M >.6 S S a | l.l.v v &.l.N N [ [ [ % % % % % S.% % % S.% u.u.u.u.u.O.2.2.y   O z.z.z.U U p >.=.=.=.",
"n.0 -.0 -.f.f.> D n.C $ C M M M 6 a S S | $.$.v v N &.N &.B.B.e.[ ;.;.N % % % u.u.% % a u.Z Z u.O.2.y 2.2.O z z.z.p >.>.>.=.u.u.",
"` -.-.G.-.D D > > n.n.C n.>.6 6 M | | | S v $.$.l.&.N N &.e.e.B.B.;.c.;.N v v | v ` u.` ` O.Z u.u.2.2.y 2.z.z z.z.U >.>.>.W =.u.",
"; 9.9.i + > n 2.2.6 6 A A &.N &.&.u.=.u.u.l.%.%.l.~ ~ ~ c.j.Q Q j.~ ~ ~ ~ Y Y 6 6 a %.%.a Q Q u.u._ _ t.a 2.2.7 S f.f.S f.u.~ ~ ",
";     + i 2.2.2.2.A 2.2.A N &.l.&.=.u.u.=.n %.l.l.c.c.c.~ j.j.6 6 ~ 6 ~ l.u.u.u.u.%.a a %.Q Q Q Q _ t.t.a 7 2.2.S S : S f.u.u.u.",
"f.i i 9.9.2.n 2.n 2.2.2.2.&.N N N =.=.=.=.n %.%.n ~ ~ ~ 3 j.j.6 6 6 ~ l.l.u.Y Y Y %.a N.N.Q u.u.Q _ t._ a 2.2.2.2.S S S S ~ u.w ",
"f.9.9.9.9.2.2.2.n A A A A &.&.&.N W W =.u.%.%.%.%.3   3 ~ Q Q Q Q ~ l.~ 6 Y Y Y 6 %.%.a a 0 Q u.u.t.t._ _ S 2.2.S f.f.f.S u.~ ~ ",
"f.=.c.=.=.w.V.( ( 1.1.1.1.v X.f.X.Q Q a a _ _ _ c.z.` z.` = = E E Z +.+.Z ) u.u.u.4.4.6 S b b [ [ Q a 4.Q r 8.8.8.l.,.T ,.l. . .",
"X.=.c.c.n ( w.w.( c c c 1.X.v v X.Q Q 4.Q _ _ _ 6 ` z.z.z.E E V.E Z Z Z +.) ) ) ) 4.S 6 S b b 7 b Q a a Q r r 8.8.T T l.,. .l. .",
"X.=.c.=.n ( w.V.V.c 1.F.1.v f.X.X.Q 4.4.Q _ _ c._ 9 9 9 z.V.E E V.Z Z +.+.) e ) u.S S S 4.[ [ b b a 4.4.4.r   r 8.l.l.,.l.l. .l.",
"X.=.c.=.=.V.V.w.V.1.F.F.F.X.f.f.f.Q Q Q 4.c.6 _ _ 9 ` ` ` V.V.V.V.+.+.p.Z ) ) ) u.4.4.4.S b [ 7 b a Q Q Q . . 8.8.,.,.T ,.l.a  .",
"a.t.h t.t.l.l.l.l.>.>.>.h ' c t.t.j j j n.l # d.d.Z Z Z Z c u.] c &.&.&.&.@.@.@.@.l l 9.l m u.u.  t [ t t a +.n.+.W W f.f.H N.H "
};
