/* XPM */
static char *result[] = {
/* columns rows colors chars-per-pixel */
"64 64 204 2 ",
"   c black",
".  c #260B04",
"X  c #291008",
"o  c #311108",
"O  c #3A1408",
"+  c #421408",
"@  c #421908",
"#  c #421910",
"$  c #4A2110",
"%  c #522410",
"&  c #522419",
"*  c #542A19",
"=  c #5A2C19",
"-  c #5A3119",
";  c #633219",
":  c #633521",
">  c #663B23",
",  c #6B3D22",
"<  c #6B3C26",
"1  c #733E23",
"2  c #6D442B",
"3  c #734121",
"4  c #734429",
"5  c #7B4529",
"6  c #774A2D",
"7  c #7B4A2C",
"8  c #7C4D31",
"9  c #C51B07",
"0  c #C61D08",
"q  c #C91E08",
"w  c #CB2209",
"e  c #CB270A",
"r  c #D22B0B",
"t  c #D52A0B",
"y  c #D2340D",
"u  c #D9330C",
"i  c #D2380F",
"p  c #DB3B0F",
"a  c #CB2811",
"s  c #D23514",
"d  c #D43C15",
"f  c #DB3D12",
"g  c #E33C0D",
"h  c #E93E0E",
"j  c #804B2D",
"k  c #834E31",
"l  c #845231",
"z  c #895635",
"x  c #8C5935",
"c  c #8C553A",
"v  c #8C593A",
"b  c #925E3C",
"n  c #94613D",
"m  c #98633E",
"M  c #DD4411",
"N  c #DB4817",
"B  c #DD5115",
"V  c #E3420F",
"C  c #EB410F",
"Z  c #E44715",
"A  c #EC4511",
"S  c #E24B13",
"D  c #EC4B12",
"F  c #EC4D1A",
"G  c #E35516",
"H  c #ED5414",
"J  c #E65A17",
"K  c #EE5C15",
"L  c #ED531C",
"P  c #E35B18",
"I  c #ED5D1B",
"U  c #EE6117",
"Y  c #EE6419",
"T  c #E6681B",
"R  c #EF691A",
"E  c #F06C1B",
"W  c #F0741E",
"Q  c #F1791F",
"!  c #DB4824",
"~  c #D9562C",
"^  c #E54F23",
"/  c #ED5522",
"(  c #ED5A23",
")  c #E35628",
"_  c #ED5C2A",
"`  c #EE6424",
"'  c #EF6A21",
"]  c #EE622B",
"[  c #E76B2D",
"{  c #EE6A2B",
"}  c #F06822",
"|  c #F06D2B",
" . c #EE7823",
".. c #F27C21",
"X. c #F0752A",
"o. c #E76A37",
"O. c #F06E32",
"+. c #E97538",
"@. c #F17D37",
"#. c #946142",
"$. c #9A6542",
"%. c #9C6943",
"&. c #A36C44",
"*. c #A56D4A",
"=. c #A5724A",
"-. c #AC754B",
";. c #AD794A",
":. c #AD7552",
">. c #AD7B52",
",. c #B57D52",
"<. c #E97D45",
"1. c #F07541",
"2. c #F38422",
"3. c #F38B24",
"4. c #F3892D",
"5. c #F49326",
"6. c #F49827",
"7. c #F4952A",
"8. c #F59C29",
"9. c #ED8239",
"0. c #F28737",
"q. c #F2843C",
"w. c #F49834",
"e. c #F5A42A",
"r. c #F7AD2D",
"t. c #F7AF32",
"y. c #F5A638",
"u. c #F7B034",
"i. c #F8B137",
"p. c #F7B23A",
"a. c #F8B23B",
"s. c #B58252",
"d. c #BD8652",
"f. c #B5835A",
"g. c #BD865A",
"h. c #BD8B5B",
"j. c #BD8D63",
"k. c #EC8A48",
"l. c #F28C44",
"z. c #F18648",
"x. c #ED9045",
"c. c #F39344",
"v. c #F49E42",
"b. c #F3934B",
"n. c #F49B4B",
"m. c #F29755",
"M. c #F5A542",
"N. c #F6AB44",
"B. c #F4A24C",
"V. c #F6AA4B",
"C. c #F7B343",
"Z. c #F8B542",
"A. c #F7B54D",
"S. c #F7B849",
"D. c #F8B94C",
"F. c #F5A457",
"G. c #F7AB54",
"H. c #F5AB5B",
"J. c #F7B557",
"K. c #F8BB54",
"L. c #F8BC5A",
"P. c #C59463",
"I. c #CE9A63",
"U. c #CE9A6B",
"Y. c #F29763",
"T. c #F4A467",
"R. c #F6AC65",
"E. c #F8BD60",
"W. c #F6B56A",
"Q. c #F5A172",
"!. c #F7BA7A",
"~. c #F9C05E",
"^. c #F9C263",
"/. c #FAC66C",
"(. c #F9C373",
"). c #FACA75",
"_. c #FACB7B",
"`. c #E6B684",
"'. c #F7BC88",
"]. c #F9C585",
"[. c #FACD83",
"{. c #F7C18B",
"}. c #F9CE8C",
"|. c #F7C496",
" X c #F9D092",
".X c #F9D29C",
"XX c #F9CFAB",
"oX c #F9D3A4",
"OX c #F9D5AB",
"+X c #F8D7B1",
"@X c #F9D9B2",
"#X c #FADDBA",
"$X c #FBE3C4",
"%X c #FBE6CB",
"&X c #FDE8CE",
"*X c #FEECD5",
"=X c #FDE7DA",
"-X c #FEEEDA",
";X c #FEF0DF",
":X c #F9EFE0",
">X c #FEF2E3",
",X c #FEF6EC",
"<X c #FEFAF4",
"1X c #FFFEFE",
/* pixels */
"&.-.m l -.=.=.l =.h.%.5 7 , x x x z z l #.*.*.*.*.< o 2 &.z : ; v k = k l *.k = = > > + > o : b : 1 1 1 1 8 #   k = 7 = = : >.>.",
"v m -.m m b m b m %.%.%.m 3 x -.-.#.z 7 z *.=.> . 3 &.&.&.: : -.z k k k k *.*.= = < v , v ; o b : % % b 1 # # # # = 8 = 7 v v v ",
"v -.-.-.l m =.b k 7 7 %.%.-.x x x z l 6 #.*.*.> > &.&.&.&.-.z z -.k -.k l *.*.k *.v v > v : : ; b % % b 1 # d.d.# 8 8 7 %.v : : ",
"=.j.n -.b >.U.>.>.%.v &.s.,.4 4 4 z z z =.h.h.4 m f.f.x f.%.k k s.4 $.$.4 >.4 ,.>.d.; , < $ # 6 1 = = k z b # v # @ 7 @ 6 = z 8 ",
"=.n ;.n n h.>.>.>.%.v v %.,.m b 4 z z 3 =.4 %.%.%.f.v v v k H H ] ] $.$.4 4 4 >.4 , v b n 4 $ 4 5 = = = >.$ $ v < ,.,.7 8 = l >.",
"z n n n n >.U.h.>.=.%.v %.,.,.#.4 z z > , 4 4 h.' { K U U K K H D H C C A L / `.,., s., ; %.4 %.6 = >.= = $ v v $ 8 ,.7 6 >.l l ",
"=.j.n =.=.>.U.U.U.s.s.=.&.,.b 4 4 z z z =.O.H Y W Q W W W E E U K K H H D C A h A ] ; b n %.%.4 4 l :.l = < v v < @ 7 7 8 l = = ",
"s.-.j.b -.=.I.I.=.=.=.=.=.g.$.7 7 l l U Y R W ....2.2.2.2.2.Q W R R K K H H F A C C A F =.l j = = =.=.z =.=.*.*.*., , < < = l 8 ",
"%.n j.j.=.8 6 8 =.n k b =.%.5 7 $.I E ' ..2.2.3.3.7.5.8.5.5.2.2.Q W W R U K H D D C C C C D j = * =.-.; z *.# # *.n 3 > n =.=.- ",
"$.-.n j.j.8 8 8 =.n k k m 7 %.{ E  ...4.4.w.7.8.y.y.M.N.N.N.w.7.3.2.Q W W R Y K K D A C C C A ( * ; ; ; l 5 k 6 *.n , , n 8 8 l ",
"s.j.>.v >.=.8 8 8 l m #.n 7 { ' @.0.c.n.v.M.V.N.A.L.E.^.L.J.C.M.7.5.3.2.Q Q E R K K H A C C C C / l ; l l # 4 6 *.n h.n , = =.l ",
"f.f.v #.b =.l l =.%.7 %.%.' X.l.Y.F.H.H.J.K.L./._._.[.[.)./.L.A.N.e.8.5.2.2.Q W R K K H D C C h A A j j j ;.k &   + %.%., n f.f.",
"m v f.f.#.=.l l k $.7 j.' z.m.Q.!.{.[.).(._. X.XOX#X#XOX}.[./.~.H.t.e.8.3.3.2.Q E E U K H D C C h h A *.*.8 k & & O + 3 %.n 3 n ",
", , #.f.b k P.=.=.j.%.` z.Y.{.|.oXoXoXoXoXoX#X&X*X*X*X$XOX X[.X.) K.e.e.8.7.3.2.Q E E Y K K D C h A A A k 8 -.8 k %.3 %.%.m 3 f.",
"n , , v , k =.P.P.j.' k.Q.|.OX%X%X%X$X#X$X*X-X>X<X<X>X*X#XoX'.Y t n.u.r.8.8.5.3.2.2.E E Y K H D C C h C A -.-.8 8 %.%.< , 3 3 n ",
">.$.4 4 1 , , , < | @.Y.{.+X&X-X:X-X*X*X&X*X>X<X1X1X-XXX'.Q. .W 9 ) b.n.B.y.8.5.3.2.2.W E R K H H C C C h / f.f.*.%.z %.%.v 1 1 ",
">.%.2 4 4 , $.$.{ X.m.'.oX$X:X,X<X,X>X*X*X;X,X<X1X1X=X! R K D 2.0 U K G Z y.8.8.5.3.2...W E Y K H D h C C C ] c b f.%.z k b >.v ",
"3 2 %.%.$.k k $.R q.Y.'.+X=X,X,X<X:X*X*X-X*X;X<X1X<X<X%X! 0 M Q J p q s J.r.r.8.8.5.3.2.Q Q E Y K H A C h h C b v f.l l l v >.s.",
"v %.h.h.%.l $.Y X.b.T.].OX&X-X>X-X*X$X#X#X$X*X>X>X,X-X%XXXV T S B G F L.r.r.r.r.8.8.5.3.2...Q E U K H A C C h H f.f.%.k l v >.>.",
">.&.v %.,.f.f.E 2.m.R.[.oX@X%X%X#X+XoXoXOX@X$X&X*X&X$XOX{.G Y r 9 P L K.r.r.r.r.e.e.6.6.3.2.Q W E K H D C C h h m 8 ,.$.%.:.n n ",
"n ,.,.v %.*.U W 0.B.J.!.[..X.X.X X[.[.[.}..XoX@X@XoX X).R.S y [ ~ r J E.r.r.r.r.r.e.e.6.5.3.2.Q E Y K H A C C h ^ #.#.6 #.:.b b ",
"7 &.,.,.,.*.U  .4.w.H.^.).).).)./.^././._.[.}. X[.)./.K.n.( ~.i.p.L._ B.r.r.r.r.r.r.e.8.7.5.2...W E U K D A C C h ,.$.$.$.7 7 b ",
"b v ,.,.*.] Y W 3.w.N.J.D.L.K.K.~.D.~.~././.).).^.~.D.a.a.p.r.r.r.r.t.i.r.r.r.r.r.r.r.e.8.3.3.2.Q W E K H D C C h ( %.,.,.b b m ",
":.%.#.%.>.H Y ..2.7.w.t.a.p.a.i.p.i.S.D.D.D.K.~.D.a.u.t.r.r.r.u.r.r.r.r.r.r.r.r.p.r.r.e.e.8.5.3.2.W E Y K H D C A A 7 &.&.m *.=.",
"$.#.k $.>.H Y E Q 3.8.e.r.r.r.r.r.u.u.i.a.L.X.J.t.t.r.r.r.r.r.r.r.r.r.r.r.r.r.D.J p.r.r.e.8.7.3.2...W E Y K H C h A * * 7 l l m ",
"$.$.$.k ( H K W Q 3.5.e.e.r.r.r.r.r.u.r.i.L.S <.u.r.r.r.r.r.r.r.r.r.r.r.r.r.i.V.p H.r.r.r.e.8.7.3.2...Q E U H H A h F 8 &.*.m *.",
"l #.>.$.L H K R W 2.5.8.e.e.r.r.r.r.r.u.D.R V s L.t.u.r.r.r.r.r.r.r.r.r.t.t.K.U u ! D.u.t.e.e.8.6.3.2.Q W Y U H D A F j &.=.l n ",
"%.v v h.C D K Y W 2.5.8.e.r.r.r.r.A.c.R F W M 0 L ` @.c.i.r.r.r.r.r.a.V.l.I H Q u t H ` @.c.e.e.8.5.3.2.Q E Y K D A F k 8 k k $.",
"s.=.v =.C D K Y W ..3.8.e.e.r.r.t.B.s G R K P M R J r b.u.r.r.r.r.r.i.k.y P Y E M G R S f G.r.e.8.8.3.3.2.Q E K H D A 8 8 , $.$.",
"%.=.=.=.C D H U W ..2.6.e.e.e.r.r.i.G.d 0 s B M e e n.u.r.r.r.r.r.r.r.p.c.a w S M f w d G.r.r.r.e.e.6.5.3.2.W Y K D A 8 8 , $.$.",
">.=.=.=.C A H Y E Q 2.5.8.e.e.r.r.r.u.F.D 2.r T H k.i.r.r.r.r.r.r.r.r.r.u.q.K  .0 Q V F.r.r.r.e.r.e.8.8.3.2.Q R K H C &.k k k , ",
"$.n b _ C C H K E Q 3.5.8.e.r.r.r.r.r.n.R u w w U I u.r.r.r.r.r.r.r.r.r.r.| R t 0 w K 0.r.r.r.r.r.r.e.8.8.3.2.W U H D k $.b 5 b ",
"-.b 4 1 h D D K R W 2.3.6.e.e.r.r.r.u.q.u ^ W.+.t I Z.r.r.r.r.r.r.r.u.r.S.Y u [ W.~ g @.i.u.r.r.r.r.r.e.6.5.2.W U H D s.s.n n n ",
"-.,.#.4 C A D K R W 2.3.6.e.e.r.r.r.p.@.F.a.r.a.V.w.a.r.r.r.r.u.r.r.r.r.~.4.V.p.r.Z.B.q.i.r.r.r.r.r.r.e.e.6.2.Q R K C %.$.m >.>.",
"k b ,.m C C D K Y W 2.2.5.6.e.e.r.r.r.i.r.r.r.r.r.p.r.r.r.r.r.r.r.r.r.r.r.t.r.r.r.r.u.i.r.r.r.r.r.r.r.r.e.6.2.Q R H D k k 7 :.>.",
";.-.% j C C D K U E Q 2.5.6.e.r.r.r.r.r.r.r.r.r.r.r.r.r.r.r.r.r.r.r.r.r.r.r.r.r.r.r.r.r.r.r.r.r.r.r.r.r.e.8.3...R K H %.%.z z z ",
";.-.7 7 C C D H K R Q 2.5.6.8.e.e.r.r.r.r.r.r.r.r.r.r.r.r.r.r.u.r.r.r.r.r.r.r.r.r.r.r.r.r.r.r.r.r.r.r.r.r.8.3...E K I 4 $.>.z z ",
"l 7 =.-.F C D H K R W Q 2.6.8.e.r.r.r.r.r.r.t.r.r.r.r.r.r.r.r.r.r.r.r.r.r.r.r.r.r.r.r.r.r.r.r.r.r.r.r.r.r.8.5...E K ( 4 3 z v ; ",
"= 6 6 8 L C C D K U W Q 2.3.6.8.e.r.r.r.r.a.4.Z.r.r.r.r.r.r.r.r.r.r.r.r.r.r.r.S. .i.r.r.r.r.r.r.r.r.r.r.e.8.5...E K ( 4 $.; - >.",
", l 2 l &.C C D H K E Q 2.2.6.8.e.e.e.r.r.E.S c.u.t.r.r.r.r.r.r.r.r.r.r.r.r.r.A.p J.r.u.r.r.r.r.r.r.r.r.e.8.3...E K 4 * n =.8 l ",
"n m m l m C C D D K R E Q 2.3.6.8.e.r.e.a.9.M ! D.t.r.r.r.r.r.r.r.r.r.r.r.t.D.' i [ Z.r.t.r.r.r.r.r.r.r.e.8.3...E I * 4 * - - 8 ",
", , l , &.{ C C D K U E Q Q 2.3.6.C.~.T.c.R V q q.T.E.K.r.r.r.r.r.u.r.~.E.F.q.R u w c.R.E.A.r.r.r.r.r.e.8.6.2.W U | n 3 n l - - ",
"n l , l l b C C A D K U E Q 2.2.5.@.M R K U B y U E Z +.a.r.r.r.r.r.a.[ N W H ' u V Y E g b.t.r.r.r.r.e.8.3.2.W K n b n n l =.l ",
"f.=.=.=.k l F C A D H K U E W Q 2.7.k.9 y S G G d w +.C.r.t.r.r.r.r.r.S.+.e i G N G y a x.i.r.r.r.r.e.8.6.3.Q E O.v 5 b b l l ; ",
"#.b =.*.k l l A C A D K K Y E W Q Q 4.k.p T u B p o.p.r.r.r.r.r.r.r.r.r.Z.X.V T r P u k.u.r.r.r.r.e.e.8.5.2.E U v -.b x b l l l ",
"f.k b -.-.$.s.F A A A D H K U Y E W Q l.K S w y Y | e.e.r.r.r.r.r.r.r.r.i.X.R M 0 M H x.r.r.r.r.r.e.e.5.3.Q Y | j *.x b x l l l ",
"m k m k k j s.l A A A A A H K K K Y W 0.L w o.a u L e.e.e.r.r.r.r.u.r.r.a.{ f d <.e S @.u.r.r.r.e.8.8.2.2.E U b l b b b b l l l ",
"7 -.-.7 # - $.$.( A A C A A D D H K X.( +.w.2.w.c.L y.8.e.e.r.e.r.r.r.r.D.) m.a.u.A.z.` a.r.r.e.e.8.5.2.W U j l l z x x m b j l ",
"g.-.-.6 ;.m m m 8 I C C C C A C D H K } } E W W 3.w.5.6.e.e.e.r.r.r.r.r.r.a.t.r.r.r.u.a.r.e.e.e.6.3.2.W Y { l l l x %.x x m l l ",
"6 6 -.-.;.7 - 8 7 , D C C C C C A A D H K Y Y W W 2.2.5.6.8.e.r.r.r.r.r.r.r.r.r.r.r.r.r.r.e.8.8.5.2.Q E ] =.l l =.x %.%.5 l &.b ",
"6 @ 6 -.6 - 7 m &.&.&.A C C C C h C A D H K U E W Q 2.3.5.8.8.e.e.e.e.e.r.r.r.e.r.e.e.e.e.8.8.3.2.Q E U %.=.l ; ; 5 z z 5 l b m ",
"s.P.; m n $ ;.;.-.,.s.O D C C C C C C A A H K Y E W Q 2.3.3.5.8.8.e.e.e.e.e.e.e.e.e.e.8.8.6.2.2.W E I &.> s.2 X   , k 8 #.m l l ",
"s.P.P.; n 7 6 6 $ 6 O   7 F h A C C C C D C H K K E W Q Q 3.3.3.3.6.6.6.e.8.8.e.8.8.8.7.3.3.2.Q Y Y $.>   X >.>.:.8 k , #.b m b ",
"f.; n - n ;.s.$ 7 s.6 O 6 6 / h h h C C C C D H K U R E W W Q 2.2.2.2.2.2.2.2.2.2.3.3.2...Q R K | $.> $.$.X 2 >.>., #.#.#.m =.=.",
"l m m P.n 8 8 % $ f.s.7 s.#.= ] A A C C C C A D D K K K U Y E E E W Q Q Q W W W W W Q Q E R U =.*.$.$.> $.,.2 >.>.k #.#.#.l n =.",
"# &.&.2 X $ 4 m m - = 7 7 b 5 m b L A C C h h A A A D H K K K K U U K U Y U U Y Y R Y I K { l =.=.z z *.< $.$.= 7 -.-.8 -.=.l l ",
"@     o < $.$.$.%.7 $.$.5 5 b :.n n =.L A h A h C C C C D D A H D H H H K K K K K K H Y #.l l l l z *.*., = b &.7 7 # 7 ;.*.=.=.",
"-.2 < &.&.&.1 $.4 $.$.%.%.#.5 5 5 n n n #.1.D V C C C C C C C C C C A D A D D A G #., f.f.l =.=.l z *.z , $.&.$.%.7 7 7 8 z *.: ",
"-.&.&.&.&.$.&.$.4 7 7 5 5 #.#.b 5 l l n *.b b #.b L L C C C C C C C C V ( ( j l = b b 3 , ; l =.=.*.*.z z 5 m $.7 -.-.-.8 =.z l ",
"-.m ,.b b &.g.z x m %.%.%.1 b -.b l l 3 , z z z >.s.l s.z @ @ l l 7 b b 7 l =.=.=.%.%.= 7 4 4 c v l , $.l > &.&.&.:.$.k $.:.v v ",
"v n ,.,.4 x &.&.z 3 3 3 %.v 1 4 b l l m l z z l = x >.>.>.l 8 h.l 7 5 5 b l z z l %.7 = 7 4 4 - 4 l , ; l > > &.&.k k >.$.v :.v ",
"b m ,.n 4 x &.g.g.3 %.j.$.4 -.b b l m %.l z z ,.z - ; ; >.g.l 8 d.5 5 b n l : z =.l 7 7 %.c c 4 4 , %.&.%.;   > &.:.>.#.>.>.v >.",
"v #.,.n b g.g.&.g.%.j.j.j.b -.-.-.l l l %.,.= z l ; z z z g.g.d.g.n b -.j z z z =.m m %.7 4 v = 4 , l l l . . &.&.m $.k $.>., v ",
"=.*.< *.*.>.>.:.>.#.#.#.< z 1 *.&.1 1 1 s.4 o -.-.7 7 7 7 3 =.x 3 b b b b b b b b 2 4 &.2 4 =.=.  > c , , ; b ,.b k l -.-.6 f.8 "
};
