/* XPM */
static char *result[] = {
/* columns rows colors chars-per-pixel */
"64 64 209 2 ",
"   c black",
".  c #260A03",
"X  c #291008",
"o  c #311108",
"O  c #421408",
"+  c #421808",
"@  c #421910",
"#  c #4A2110",
"$  c #522414",
"%  c #5A2C19",
"&  c #5A3119",
"*  c #633319",
"=  c #633521",
"-  c #663B22",
";  c #6B3D22",
":  c #6B3C26",
">  c #733E23",
",  c #6E442A",
"<  c #734121",
"1  c #734329",
"2  c #7B4529",
"3  c #774A2D",
"4  c #7B4B2C",
"5  c #7C4D31",
"6  c #C51A07",
"7  c #C91D07",
"8  c #C61D08",
"9  c #CB1F08",
"0  c #C72009",
"q  c #CC2309",
"w  c #CC290C",
"e  c #D2260A",
"r  c #D22B0B",
"t  c #D82D0B",
"y  c #CF320D",
"u  c #D7350D",
"i  c #DB3A0E",
"p  c #CC2B12",
"a  c #CD3018",
"s  c #D63915",
"d  c #DC3C11",
"f  c #E43C0E",
"g  c #E33D12",
"h  c #824E31",
"j  c #845232",
"k  c #895635",
"l  c #8C5935",
"z  c #8C553A",
"x  c #8C593A",
"c  c #925D3C",
"v  c #94613D",
"b  c #98633E",
"n  c #DC4411",
"m  c #DE4A17",
"M  c #DF5216",
"N  c #E5410F",
"B  c #EB410F",
"V  c #E34515",
"C  c #EC4510",
"Z  c #E34B13",
"A  c #EC4B12",
"S  c #E34B1B",
"D  c #EC4C1A",
"F  c #E45315",
"G  c #ED5314",
"H  c #EE5B16",
"J  c #ED531C",
"K  c #E45A19",
"L  c #EC5C1B",
"P  c #EE6117",
"I  c #EE6419",
"U  c #E5691B",
"Y  c #EE6A1A",
"T  c #F0631D",
"R  c #F06C1B",
"E  c #F0731E",
"W  c #F1791F",
"Q  c #DA4926",
"!  c #DE542C",
"~  c #E45725",
"^  c #ED5522",
"/  c #ED5C25",
"(  c #ED5E2C",
")  c #EA5E30",
"_  c #DF6436",
"`  c #ED6224",
"'  c #EF6B24",
"]  c #EE642A",
"[  c #EF6A2B",
"{  c #F06A27",
"}  c #ED7229",
"|  c #F17422",
" . c #F27D21",
".. c #F0752C",
"X. c #F17A2C",
"o. c #E96534",
"O. c #F06634",
"+. c #EC7637",
"@. c #F07433",
"#. c #F17B34",
"$. c #F07338",
"%. c #F17D3A",
"&. c #946142",
"*. c #9A6542",
"=. c #9C6942",
"-. c #A36C44",
";. c #A56D4A",
":. c #A5724A",
">. c #AC754B",
",. c #AD794A",
"<. c #AD7552",
"1. c #AD7B52",
"2. c #B57D52",
"3. c #E67942",
"4. c #F17C44",
"5. c #F38423",
"6. c #F38B24",
"7. c #F3862B",
"8. c #F49326",
"9. c #F49827",
"0. c #F4932A",
"q. c #F59C29",
"w. c #EE8231",
"e. c #F28739",
"r. c #F39434",
"t. c #F59933",
"y. c #F3943C",
"u. c #F59D3A",
"i. c #F5A42A",
"p. c #F7AE2D",
"a. c #F5A334",
"s. c #F7AE32",
"d. c #F5A33D",
"f. c #F6AA3C",
"g. c #F7B135",
"h. c #F8B137",
"j. c #F7B23B",
"k. c #F8B23C",
"l. c #B48253",
"z. c #BD8652",
"x. c #B5825A",
"c. c #BD865A",
"v. c #BD8B5B",
"b. c #BD8E63",
"n. c #ED8847",
"m. c #F28B46",
"M. c #EF9A4E",
"N. c #F39947",
"B. c #F28D53",
"V. c #EF9854",
"C. c #F29854",
"Z. c #F39A59",
"A. c #F5A343",
"S. c #F6AC44",
"D. c #F5A54D",
"F. c #F6AB4C",
"G. c #F7B444",
"H. c #F8B543",
"J. c #F7B34D",
"K. c #F8B749",
"L. c #F8B94C",
"P. c #F5A453",
"I. c #F6AD52",
"U. c #F5A458",
"Y. c #F7B552",
"T. c #F8B757",
"R. c #F8BB54",
"E. c #F7B35A",
"W. c #F8BD5A",
"Q. c #C59363",
"!. c #CE9A63",
"~. c #CE9A6B",
"^. c #F19A70",
"/. c #F4A56A",
"(. c #F7B867",
"). c #F4A976",
"_. c #F6B276",
"`. c #F8BD70",
"'. c #F9C05E",
"]. c #F9C163",
"[. c #F9C56D",
"{. c #FAC973",
"}. c #FACB7A",
"|. c #F1A287",
" X c #F5B688",
".X c #FACD84",
"XX c #F7C38E",
"oX c #FACF8B",
"OX c #FAD08F",
"+X c #F7C794",
"@X c #F9D095",
"#X c #F9D19A",
"$X c #F8CEA6",
"%X c #F9D3A4",
"&X c #F9D6AC",
"*X c #FADAB4",
"=X c #F9DCBB",
"-X c #FBE0BF",
";X c #FBE2C4",
":X c #FCE5C9",
">X c #FBE7CE",
",X c #F8E7D2",
"<X c #FDEBD4",
"1X c #FEEED9",
"2X c #FEF0DD",
"3X c #FDF2E3",
"4X c #FDF6EB",
"5X c #FEFAF4",
"6X c #FFFDFB",
/* pixels */
"-.>.b j >.;.:.j ;.v.=.4 2 < l l l k k j &.;.;.;.;.; o ; -.l = = k h % h j ;.h % % - - O - o * c = > > > > h @   h % 4 % % = l.1.",
"x b >.b b v b v v =.=.=.=.* l ,.>.&.k 4 k ;.;.- . , -.-.-.* = >.k j j h h ;.;.% % - x ; x = o c = $ $ c > @ @ @ @ % 5 % 4 x x x ",
"x >.>.>.j b :.c h 4 4 =.=.>.l l l k j 4 &.;.;.- ; -.-.-.O.L J A D J / O.h ;.;.h ;.x x < x = = = c $ $ c > @ z.z.@ 5 4 4 &.x = = ",
":.b.v >.c 1.~.1.1.=.l -.l.2.1 1 1 k k k :.v.v.1 ..I P P P P P G G G A B C C A ^ 1.l.; * ; @ # 1 > % % j k c @ x @ + 4 + 3 % x 5 ",
":.v >.v v v.1.1.1.=.x x =.2.v v 1 k k ; $.L H R R E R E E R Y I P H H G A C C C B B A c x 1 # 1 2 % & % <.# # x : 2.2.4 3 % j 1.",
"k v v v v ,.~.b.1.:.=.x ;.2.2.c 1 k ] I I R E  . .5.5.5.5. .W E R I P H H G A C B B B B D / 1 =.2 % 1.& & @ x x # 4 2.4 3 l.k j ",
":.b.v :.>.1.~.~.~.l.l.:.-.2.&.1 @.T R E W  .5.6.6.8.0.0.0.6.6.5.W E E R P P P G G C B B B B D 1 1 j 1.k % : x x ; O 4 4 5 j % % ",
"l.>.b.c :.:.!.!.:.:.:.:.:.c.*.P R E  .5.6.8.0.9.q.a.A.d.a.u.N.8.6.6. .E E R I H H G G C B B B B J :.:.j :.:.;.;.;.; ; ; : % 5 5 ",
"*.c b.b.:.5 5 5 :.v h b :.$.Y ..X.e.y.y.N.a.d.f.G.J.Y.L.Y.Y.k.d.t.8.6.5.W W E R P H H G C B B B f A >.> h ;.$ @ ;.&.; ; v ,.:.& ",
"*.:.v b.b.5 5 5 :.v h h @.Y %.m.C.U.I.I.I.J.T.W.(.{.{.}.[.].R.J.f.q.9.8.6.6.W W R Y H G A A B B C f f ^ h 3 5 > :.v ; ; v 5 5 5 ",
"x.b.:.v <.:.5 5 5 j &.' X.e.Z././.`.`.[.[.`.{..X#X%X%X#XoX{.{.R.K.f.i.q.8.6.5.5.W R I P H G A B B f C f ~ @ 3 3 ;.v v.v ; % :.j ",
"c.x.c c &.:.j j :.=.| %.B./. XXX#X+XoXoXoXOX&X*X-X:X;X*X%XoX{.].R.S.h.i.q.8.6.6. .W E R P H G A B C g g g D h $   O =.=.: v x.x.",
"v c x.x.c :.j j j ..#.B.).+X$X*X&X&X&X%X&X=X=X;X3X2X1X>X*X%X}.{.W.K.g.p.i.q.0.6.6.0.5.E Y P H G A B f B B B / % $ O O : =.v < v ",
"; ; c x.c j Q.:.} %.B.|.%X=X,X,X<X>X>X:X<X<XZ.|.5X6X4X<X:X%X.X{.R.K.j.p.p.q.9.9.f.X.A.W E Y P H G G B B B B f ^ 5 =.1 =.=.b < x.",
"*.* , x ; j :.4.| B./.+X=X,X3X4X3X<X<X<X1X;X' Q 5X6X5X3X>X*X@X{.'.L.h.p.p.i.i.q.N.G ( r.W E R P P G G B B B C g h *.=., > < < v ",
"l.*.1 1 1 ; * I e.^. X&X,X4X4X5X4X3X<X<X<X/.P 7 |.6X5X4X>X*X.X{.R.k.h.p.p.s.s.T.X.Z q y.7.6.| E T P G A B B f C C =.j =.=.l > > ",
"1.&., 1 , ; ' ..B./.+X*X<X4X5X4X3X+X).4.) R R 6 g O.B./. X&X}.'.L.j.s.G.S.m.' ^ R K 6 m I @.%.#.R T H G A B B B B T -.h h c 2.c ",
"< , =.=.b } R w.Z.).+X*X>X1X3X2X1X^.s F I G 5.9 I I V d ).@X[.R.G.p.p.f._ n L P R U w I H V D r.W R P G G B B B f B h h h c 2.,.",
"v =.v.v.b ' | e.Z.`..X%X;X>X<X;X=X*X Xp 8 n E n m 7 a $X+X[.W.G.g.p.p.p.K.+.8 q Z Y U n 6 s A.5.W R R H G G B B f f A k j x 1.1.",
"1.=.x =.4.R X.r.U.(.}.@X&X&X%X@XoXoXoX Xf U F m K t +X.X[.R.G.h.g.p.p.p.p.K.n.V Y n ' F s F.6.6.5.R R P H G C B C C C -.*.<.c b ",
"b l.2.x P R 5.r.P.T.`.}.}.[.}.[.[.{.}._.G Y e 8 Y A _.].'.k.g.p.p.p.p.p.p.g.m.Y F 0 0 P J S.0.6.5.W R R P G G B B B g ^ *.<.c b ",
"4 =.2.2.P R 5.r.u.Y.R.W.'.'.'.'.W.W.].B.G q S a 0 F N.G.g.g.p.p.p.p.p.p.p.G.+.G w V p u L T.9.6.5.5.W E I H G A B B B B &.4 4 c ",
"c x 2.] P R  .6.t.f.H.H.H.H.H.k.G.K.W.] S /.[.`.Z.S e.k.p.p.p.p.p.p.p.p.p.L.V o.D.G.Y.n.A P.i.9.6.5.W E R P H G A B B B 2.c c c ",
"1.*.*.G H R W 6.8.a.p.h.g.g.p.g.g.j.G.D.W.L.K.G.G.W.a.g.p.p.p.p.p.p.p.p.s.s.u.G.p.p.p.f.S.a.i.9.8.5.5.5.E R H H G C B f ^ b :.:.",
"*.*.5 G H R E 5.6.q.i.p.p.p.p.p.p.g.j.g.g.g.h.g.p.p.p.p.p.p.p.p.p.p.p.p.p.p.p.p.p.p.p.p.p.p.i.9.q.6.5.5.W R R P G A C C f h k c ",
"*.*.D A H I E 5.6.q.i.i.p.p.p.p.p.p.p.p.p.p.g.p.p.p.p.p.p.p.p.K.d.p.p.p.p.p.p.p.p.p.p.p.p.p.p.i.q.9.6.5.W W E T H G A C B >.c >.",
"h *.D A H P E W 6.9.q.i.p.p.p.p.p.p.p.p.p.p.g.p.p.p.p.p.p.p.s.A.~ K.p.p.p.p.p.p.p.p.p.p.p.p.p.p.i.q.8.6.6.W E R R H G C f A h b ",
"-.x D A G P E W 5.8.q.i.p.p.p.p.p.p.p.p.p.p.p.p.p.p.p.p.p.p.W.| r E.s.p.p.p.p.p.p.p.p.p.p.p.p.p.i.q.q.9.6.6. .R R H G A C D h -.",
"1.:.A C G P Y E 5.8.q.i.i.i.p.p.p.p.p.p.p.p.p.p.p.g.g.j.L.'.D.I r s W.R.H.h.p.s.p.p.p.p.p.p.p.p.i.i.i.q.9.6.5. .E I H G C D -.b ",
"=.:.B B G P R E 5.6.9.i.i.p.p.p.p.p.p.p.p.p.p.p.p.g.a.7...H G E e r G [ w.e.j.p.p.p.p.p.p.p.p.p.p.i.i.i.9.8.6.5.W I I G A D b -.",
"1.:.C A A H I E 5.6.9.q.i.i.p.p.p.p.p.p.g.p.p.p.p.p.'.y d W H 5.t R W G q P.g.p.p.p.p.p.p.p.p.p.i.p.i.i.i.q.8.6. .E I H C D h ; ",
"b b g B A H Y E W 6.9.q.i.p.p.p.p.p.p.p.p.p.p.p.p.p.p.'.! 6 w M N s 0 a D.h.p.p.p.p.p.p.p.p.p.p.p.p.p.p.i.9.9.6.5.E R H A C h c ",
",.c f C A H I R  .6.6.q.i.i.p.p.p.p.p.g.p.p.p.p.p.p.p.p.].J Y Y y  .f C.p.p.p.p.p.p.p.p.p.p.p.p.p.p.p.p.i.i.i.9.5. .Y H G A c b ",
">.2.C C A H P E  .5.6.q.q.p.i.p.p.p.p.p.p.p.p.p.p.p.p.p.W.A  .e 6 w G n.p.p.p.p.p.p.p.p.p.p.p.p.p.p.p.p.p.i.q.q.5. .E P G J <.1.",
"k c f C A H H R W 5.6.q.q.i.h.A.H.p.p.p.p.p.p.p.p.p.p.p.D.Z e o.3.w Z } h.p.p.p.p.p.p.p.p.p.g.h.r.G.p.p.p.p.i.q.6. .E P G D 1.1.",
",.>.B C A G P Y E  .5.9.q.i.K.Y M.h.p.p.p.p.p.p.p.p.p.s.e.~ I.H.k.W.+.| H.p.p.p.p.p.p.p.p.p.p.L.I N.p.p.p.p.i.q.8.5.Y I G J k k ",
",.-.D B G A P P Y  .5.8.9.p.y.F V Y.p.p.p.p.p.p.p.p.p.p.H.j.p.p.p.p.h.K.p.p.p.p.p.p.p.p.p.p.k.M.Z Q L.p.p.p.i.q.9.5.E I H D k k ",
"j h A B B G H P E  .t.S.S.E.' H 9 n.R.L.L.s.p.p.s.p.p.p.p.p.p.p.p.p.p.p.p.p.p.p.p.p.g.H.R.K.E.Y n q V.R.L.H.s.i.8.5.W I H L k * ",
"% h D f B C G H Y 7.@.' G C Y U 7 N A H o.y.g.p.p.p.p.p.p.p.p.p.p.p.p.p.p.p.p.p.p.p.S.w.{ G B Y M 0 G A L ) r.i.9.5. .I H O.* 1.",
"* k ( C g A G H Y  .N.w u W I  .n W F w %.K.p.p.p.p.p.p.p.p.p.p.p.p.p.p.p.p.p.p.p.p.g.M.q n E I M n W K r +.G.q.9.5.E I G :.j 5 ",
"c -.b B B C G H P R 5.m.s 6 i P Z q 0 n.k.p.p.p.p.p.p.p.p.p.p.j.j.p.p.p.p.p.p.p.p.p.p.j.M.p 9 d Z m q 7 n.k.i.i.8.5.W P T & & 5 ",
"; ; j J B B A G P I R 7.Z.G  .r U Y J J.i.p.p.p.p.p.p.p.p.p.p.I.{ k.p.p.p.p.p.p.p.p.p.p.j.m.H 5.r F I ] L.i.i.q.6. .E P ] j & & ",
"c j > j C C B G H P R 5.%.E i 9 6 F J S.i.p.p.p.p.p.p.p.p.p.K.w.u '.p.p.p.p.p.p.p.p.p.p.h.' R y 7 8 K A L.i.q.9.6. .Y P v 5 :.j ",
"x.:.:.;.f f A A G P I r./ i Q n._ y H I.q.i.p.i.p.p.p.p.g.H.(.I r ` L.j.p.p.p.p.p.p.p.p.H.J i m n._ t A F.i.i.9.6. .Y ` c j j ; ",
"c c :.:./ B C C G H H #.D n.u.5.q.D.] N.q.9.q.i.i.s.S.J.N.%.] R e q #.N.U.D.s.s.p.p.p.p.H.K N.L.g.k.E.] y.i.9.6.5.E P l c j j j ",
"c.h &.;.>.C B B A A H I | W E W  .5.0.0.8.8.q.q.i.p.M.w I R A 5.r H I Y i #.j.p.p.p.p.p.g.h.g.p.p.p.p.j.s.q.0.6.W R T c l j j h ",
"&.h c h h J B C A A A H H P Y E | W W 5.5.6.8.8.9.q.s.V.s q n U n m u w n.G.p.p.p.p.p.p.p.p.p.p.p.p.p.i.i.9.6.5.E P c c c j j j ",
"4 >.>.5 + * D B C B A A H H H H R R E W W 5.6.6.8.q.q.p.E.d n I i M w m.s.p.p.p.p.p.p.p.p.p.p.p.p.p.i.i.q.8.5.E I ' l l b c h j ",
"v.>.>.3 ,.b b B B B B A A G G H H R H R E W 5.5.5.8.q.q.R.G 5.i 6 K G m.p.p.p.p.p.p.p.p.p.p.p.p.i.i.i.i.9.5. .Y L l =.l l =.j j ",
"4 3 >.>.,.4 & / B B B B B A A G G H H R R E W W 5.6.8.q.P.A i d Q 6 G @.p.p.p.p.p.p.p.p.p.p.p.p.i.i.q.q.6. .E I :.l =.*.2 h b c ",
"3 @ 2 >.3 & 4 b G B B B B B B C A G H H P R R E W 5.6.8.e.f [ L.R.U.m [ k.p.p.p.p.p.p.p.p.p.p.i.i.q.9.6.5.E I ` * 2 k l 2 j c -.",
"l.Q.* v v # ,.,.>.A B B B B B B C A A G H P R E W 5.5.8.t.d.s.p.i.s.G.S.j.p.p.i.p.p.p.i.p.i.i.i.q.8.6. .E I [ X   ; h 5 b v h j ",
"l.Q.Q.* v 4 3 3 # 4 C B B B B B B B A A G H P R E W 5.5.6.8.q.q.i.i.p.p.p.i.p.p.p.p.i.i.i.i.i.q.8.6.5.E I I 1.l.1.h h ; c b v v ",
"l.* v * v ,.l.# 5 l.4 B B B B B B B B C A G H P R E W 5.5.5.8.q.q.9.q.i.i.i.i.i.i.i.i.i.q.q.9.6.5. .E I I X , 1.1.; &.&.&.&.;.:.",
"l v v Q.v 5 4 # # l.2.4 D C f B B B C f C A H H I R R W 5.5.5.5.8.6.8.9.9.9.q.q.q.q.9.9.9.8.6.5. .Y I [ *.1., 1.1.h &.&.&.j v :.",
"@ -.-., X # 3 b b & $ h h J B B B B f C C A A H H P R R W E W 5.5.5.5.5.5.6.6.6.6.6.6.6.6.5. .E Y I ' ;.: *.*.& 4 :.:.5 >.:.j j ",
"+     o : *.c -.=.4 *.*.4 2 ] C B B B B B B C A A H H H T T E R Y E W E W W W W  . .W  .E E R I L k ;.;.; % c -.4 4 @ h >.;.:.:.",
">., ; -.-.*.2 *.2 =.*.*.*.c 2 2 J B B B B B B C C A G G H H H P H P I I I R W W W E E R R I P { j k ;.k ; b -.*.*.4 4 4 4 j :.= ",
">.-.-.-.-.*.-.*.1 4 3 3 4 &.c c 2 j A A B C f B B C C A A A G G G H G G H P P R I I P H P L j ;.:.;.;.k k 4 *.*.4 >.>.>.5 :.j j ",
">.b 2.b c -.c.l k b =.=.*.> c >.c k k * J C B B B B B B B C B B A B A A A A G H G A A ` 4 1 1 x x j ; =.j = -.-.-.2.*.h &.2.x x ",
"x v 2.2.1 l -.-.l < < > *.c > 1 c j j =.j z k J C f B B B B B f B B B B B C C J ] b 4 & 4 1 1 & 1 k ; ; j - = -.-.h h <.*.x 1.x ",
"c v 2.v 1 j -.c.c.< *.b.*.1 :.c c j b =.j l j 2.l * * A D A A C B C D D G k = k >.4 5 4 *.z x 1 1 * =.=.=.*   - -.<.1.*.<.1.x 1.",
"x &.2.v b c.c.-.c.*.b.b.b.c >.>.,.j j j b 2.% k j * l l k c.c.c.v.c c >.2 k z k :.b =.=.4 1 z % 1 ; j j j . . -.-.b *.h &.1.; x ",
":.;.: ;.;.1.<.1.1.&.&.&.: l < ;.-.> > > l.1 o >.>.2 2 h 4 < :.l < c c c c c c c c , 1 -., 1 :.:.  ; c * ; * c 2.c j j >.>.5 x.5 "
};
