/* XPM */
static char *result[] = {
/* columns rows colors chars-per-pixel */
"64 64 205 2 ",
"   c black",
".  c #260B04",
"X  c #291008",
"o  c #311108",
"O  c #3A1408",
"+  c #421408",
"@  c #421808",
"#  c #421910",
"$  c #4A2110",
"%  c #522410",
"&  c #532719",
"*  c #5A2C19",
"=  c #5A3119",
"-  c #633319",
";  c #633521",
":  c #663B22",
">  c #6B3D22",
",  c #6B3C26",
"<  c #733E23",
"1  c #6D442B",
"2  c #734121",
"3  c #734429",
"4  c #7B4529",
"5  c #774A2D",
"6  c #7B4A2C",
"7  c #7C4D31",
"8  c #C51B07",
"9  c #C61E09",
"0  c #CA1E08",
"q  c #CB260B",
"w  c #CC240A",
"e  c #D4290B",
"r  c #D32C0B",
"t  c #D4340D",
"y  c #D8360E",
"u  c #DB3A0E",
"i  c #C92812",
"p  c #D32E11",
"a  c #CF3319",
"s  c #D53816",
"d  c #DB3C11",
"f  c #E33C0E",
"g  c #E63F11",
"h  c #D73B21",
"j  c #804B2D",
"k  c #834E31",
"l  c #845232",
"z  c #895635",
"x  c #8C5935",
"c  c #8C553A",
"v  c #8C593A",
"b  c #925D3C",
"n  c #94613D",
"m  c #98633E",
"M  c #DD4312",
"N  c #DE4A13",
"B  c #DB471B",
"V  c #DC5215",
"C  c #EB410F",
"Z  c #E24615",
"A  c #EC4511",
"S  c #E44D13",
"D  c #EC4C12",
"F  c #EC4C1A",
"G  c #E35315",
"H  c #ED5414",
"J  c #E55B17",
"K  c #EE5C16",
"L  c #EC551D",
"P  c #ED5C19",
"I  c #EE6017",
"U  c #E56219",
"Y  c #EE6419",
"T  c #E76E1C",
"R  c #EE6A1B",
"E  c #F1671A",
"W  c #F06D1B",
"Q  c #EE741E",
"!  c #F0731D",
"~  c #F1791F",
"^  c #D84924",
"/  c #DE522B",
"(  c #DD5C32",
")  c #E44F26",
"_  c #ED5522",
"`  c #ED5A22",
"'  c #E85728",
"]  c #DE6535",
"[  c #EE6324",
"{  c #EE6A25",
"}  c #E7672A",
"|  c #ED612C",
" . c #EF6A2A",
".. c #F06B23",
"X. c #F06C2B",
"o. c #F07325",
"O. c #F27C21",
"+. c #F0732B",
"@. c #F17A2C",
"#. c #E76833",
"$. c #EA773B",
"%. c #F17B37",
"&. c #946142",
"*. c #9A6542",
"=. c #9C6943",
"-. c #A36C44",
";. c #A56D4A",
":. c #A5724A",
">. c #AC754B",
",. c #AD794A",
"<. c #AD7552",
"1. c #AD7B52",
"2. c #B57D52",
"3. c #EB7A49",
"4. c #F38422",
"5. c #F38B24",
"6. c #F3892C",
"7. c #F49427",
"8. c #F49827",
"9. c #F59629",
"0. c #F59C29",
"q. c #F28435",
"w. c #F28C36",
"e. c #F2843D",
"r. c #F39537",
"t. c #F59C34",
"y. c #F3923C",
"u. c #F59C3B",
"i. c #F5A42A",
"p. c #F7AE2D",
"a. c #F6A534",
"s. c #F7AE32",
"d. c #F5A33A",
"f. c #F6AC3D",
"g. c #F7B135",
"h. c #F7B23B",
"j. c #F8B33C",
"k. c #B58253",
"l. c #BD8652",
"z. c #B5835A",
"x. c #BD865A",
"c. c #BD8B5B",
"v. c #BD8E63",
"b. c #EB8345",
"n. c #ED894B",
"m. c #F18244",
"M. c #F28B43",
"N. c #F49244",
"B. c #F49C44",
"V. c #F2934A",
"C. c #F0904F",
"Z. c #F49D4B",
"A. c #ED9255",
"S. c #F39959",
"D. c #F5A244",
"F. c #F6AB43",
"G. c #F4A44B",
"H. c #F6AB4B",
"J. c #F7B543",
"K. c #F8B543",
"L. c #F7B349",
"P. c #F8B74C",
"I. c #F8B94B",
"U. c #F6AC54",
"Y. c #F5A758",
"T. c #F7B353",
"R. c #F8B757",
"E. c #F8BB53",
"W. c #F8BE5C",
"Q. c #C59363",
"!. c #CE9A63",
"~. c #CE9A6B",
"^. c #E98367",
"/. c #F29866",
"(. c #F4A764",
"). c #F7B864",
"_. c #F4AD71",
"`. c #F7B87A",
"'. c #F9C163",
"]. c #F9C56C",
"[. c #FAC775",
"{. c #FACB7D",
"}. c #F6B689",
"|. c #F9CA83",
" X c #F9CF8A",
".X c #F7C698",
"XX c #F9D194",
"oX c #F9D29E",
"OX c #F8CCA3",
"+X c #F9D3A4",
"@X c #F9D4AA",
"#X c #F9D9B5",
"$X c #FADDBB",
"%X c #F9DBC0",
"&X c #FCE3C5",
"*X c #FCE6CA",
"=X c #FDE9CE",
"-X c #FEECD5",
";X c #F7EBDA",
":X c #FDEFDA",
">X c #F8EFE2",
",X c #FDF1E3",
"<X c #FDF4E9",
"1X c #FEF9F3",
"2X c #FFFFFF",
/* pixels */
"-.>.m l >.:.:.l :.c.=.6 6 > x x x z z l &.;.;.;.;.> o > -.x ; - z l * l l ;.k * * : : @ : o ; b ; < < < < 7 #   k * 6 * * ; 1.k.",
"v m >.m m n n n n =.=.=.m 2 x ,.>.&.z 6 z ;.;.: . 1 -.-.-.; ; >.z k l k l ;.;.* * : v - v ; o b ; % % b < # # # # * 6 * 6 v v v ",
"v >.>.>.l n :.n l 6 4 =.m >.x x x z z 6 &.;.;.: , -.-.-.-.>.z z >.l >.k k ;.;.k ;.v v : v ; ; ; b % % b < # l.l.# 7 7 7 =.v ; ; ",
":.v.n >.n <.~.1.<.-.v =.k.2.3 3 1 z z z :.c.c.3 =.z.E ..Y ` ` L _ _ F L F 1.3 1.z.k.- 2 > $ $ 3 < * * k z v $ v # @ 6 @ 5 * l 7 ",
":.n ,.n n c.<.<.<.=.v v -.2.m b 3 z z > :.3 $.X.K I R R E I K K K H H C A C C F ' > v v v 3 $ 3 4 * * * 1.$ # b , 2.2.6 5 * l 1.",
"z n n n n ,.~.v.1.:.=.v =.k.2.&.3 z z , I I E ! ! Q ~ ~ ! ! ! R I K K H F D A C C C C 2 2 =.3 =.3 * 1.* * $ v v $ 6 2.6 7 1.z l ",
":.v.n :.:.1.~.~.~.k.k.:.-.2.b 3 < z Y E E o.O.O.4.4.5.5.4.4.4.~ ! W E K K K H D A C C C A L =.3 3 z 1.l * , v v > @ 7 6 5 c & * ",
"k.>.v.b >.:.!.!.:.:.:.:.:.x.*.6  .E ! ~ ~ 5.5.7.7.0.0.t.0.9.5.6.4.~ ! W E K K K H D C C C C D * * :.:.l :.;.:.;.;.> > : : * l 7 ",
"*.b v.v.:.7 7 7 :.m k m :.=.b.I ! O.6.w.r.0.0.d.a.f.J.K.H.H.d.0.5.4.4.O.! ! Y I K K D C C C C C ' >.:.- k ;.% # ;.&.> - *.,.:.* ",
"*.>.b v.v.7 7 7 :.n k l n Y W %.M.M.Z.G.G.H.H.T.T.).].'.R.R.L.f.a.0.5.4.4.O.! W E K K H C C C C A A - - l 5 5 5 ;.*.> > m 7 7 7 ",
"k.v.1.v 1.:.7 7 7 l &.n ..+.M.S.Y.(.R.).W.'.'.]. X X X X|.].W.E.F.a.0.7.5.4.4.! R Y K K H D C C A A A l l # 4 3 ;.n c.n 1 * ,.7 ",
"x.z.v &.b :.l l :.=.6 { %.S./.}.}.|.|.{.`.|.XX+X#X#X$X@XXX{.].E.I.j.i.0.7.7.4.O.~ ! E K K H C C g g g A j 2.j &   + =.=.> n z.z.",
"&.b z.z.b :.l l l *.Y 3./._..XOX@X@X+XoX@X@X&X=X-X-X-X&X@XXX[.].E.h.s.i.0.7.7.4.4.! ! R K K H D C C C g g k j & & + + > m n 2 n ",
"> > b z.b l Q.:.:.{ e./.}.OX$X*X*X&X$X$X%X=X:X<X1X1X<X-X$X+X{.].E.j.g.p.i.0.0.5.5.4.~ ! R I K H D C C C f g >.k k =.> =.=.n 2 z.",
"b 1 : b > k :.Q.{ @./.`.@X%X;X,X:X:X-X-X:X:XOX,X2X2X1X:X*X@X X].E.K.g.p.p.0.0.f.9.5.4.O.Q R E K H D C C C C F k 7 =.=.1 2 2 2 n ",
"1.*.3 3 4 - , , ..A.(..X#X;X<X1X<X<X-X:X-X:X+.^.2X2X1X<X=X+X X'.E.j.g.p.p.p.i.D.L H.4.4.~ ! W Y K H D C C g g ) ;.=.z =.=.v < < ",
"1.m 1 1 3 - =...q./.`.OX*X>X1X1X<X,X:X:X-X}.D a <X1X1X>X*XOX[.'.I.g.p.p.p.p.E.+.t 3.7.5.4.O.! R E K H A C C C C x l.=.l l b 1.b ",
"2 1 =.=.m l E o.y./.`.+X*X:X,X,X:X-X$X#X}.%.G 0 /.%X*X*X#X X].I.j.s.K.E.H.H.Z.R r t Z.G.D.t.O.! E K K D C C C f D z.l l k b 1.1.",
"b =.c.c.*.k Y O.C.(.[.oX#X*X-X=X&Xn.J K D Y U 0 D D D D (.[.I.K.g.p.f.U I H C ~ t t H D D [ 5.! ! E K H D C C C C z.=.l l v 1.k.",
"1.=.v -.2. .W q.Z.Y.`. XoX@X+X+XXX+X( 9 J E T t O.M 9 _.[.E.K.p.s.p.h.A.9 t ! ~ M ~ U q B T.5.4.~ W E K H A C C C F k.*.*.<.b n ",
"m 2.2.v -.P ! 6.B.Y.).{.{.{.{.{.[.[.|.3.w u G G r i _.'.E.j.g.p.p.p.p.g.G.a e J d y 9 ] f.7.4.4.~ W E I K D C C g g ` 7 *.<.b m ",
"4 =.2.2.Y Y Q 4.u.H.T.R.'.W.W.E.W.W.'._.D Q r t R [ ].P.j.p.p.p.p.p.p.p.I.[ ! S w T H Z.i.0.7.4.4.~ W E K K D C C g F *.&.6 6 b ",
"n v 2.2.[ Y ! 4.7.t.f.J.K.K.J.j.h.J.E.Y.I t p 9 Z H '.g.s.p.p.p.p.p.p.p.E.D G p i 9 H m.i.0.8.5.4.4.! E E K H A C C A 2.2.b b b ",
"1.*.*.*.H Y ! O.5.t.i.g.g.g.p.p.g.h.I.q.r 3.)._.^ Z F.p.p.p.p.p.p.p.p.p.G.g h Y.R.n.e q.h.i.0.7.4.4.~ ~ E K H D C C C _ -.&.:.:.",
"*.*.7 ` H K W ~ 4.7.i.p.p.p.p.p.p.g.J.y.T.K.h.g.K.D.d.p.p.p.p.s.p.p.p.p.f.B.K.s.p.j.L.r.h.i.0.8.7.4.4.! ! E K H D C C A j l l b ",
"*.&.*.A H K E ~ 4.7.8.i.p.p.p.p.p.p.p.g.p.g.p.p.p.p.g.p.p.p.p.s.p.p.p.p.p.p.p.p.p.p.p.g.p.i.i.0.7.5.5.4.~ ! E K H D C C -.>.b >.",
"l *.1.A D K E ! ~ 5.8.i.i.p.p.L.J.p.p.p.p.p.p.p.p.p.p.p.p.p.p.K.j.p.p.p.p.p.p.p.p.p.p.p.p.p.p.s.F.8.5.4.4.! W E K H A C -.>.l m ",
"=.v v A D K E ! 4.5.8.i.p.p.E. .R.p.p.p.p.p.p.p.p.p.p.p.p.p.j.6.V.g.p.p.p.p.p.p.p.p.p.p.p.p.p.G.P a.7.5.5.~ ! E K H D g j k k *.",
"1.:.c C D K I W ~ 5.9.0.i.p.Z.S / h.p.p.p.p.p.p.p.p.p.p.p.g.T.R B T.p.p.p.p.p.p.p.p.p.p.p.p.E.o.q Y.0.7.5.4.O.! E K H A ` - -.-.",
"=.:.:.C D H I ! ~ 5.0.i.s.T.+.N i Y.J.h.g.p.p.p.p.p.s.h.h.L.w.R 0 b.K.h.h.g.p.p.p.p.g.g.h.J.B.K 8 #.L.a.t.9.4.~ W K H C L , *.*.",
"1.:.D g C H K W ~ 7.e.@.L D R V 9 D D P 3.t.p.p.p.h.u.q.P D P ! 8 f F P  .w.p.p.p.p.u.w.Y A K ~ 8 y D L [ $.7.4.! E H D ' k k > ",
"*.&.A A D H K E ! 5.C.s N Y Y U y ! G t e.f.p.p.p.p.G.s M J Y 7.t W J t #.K.p.p.p.p.L.( d G I ~ 9 R Y u F D.5.4.W E K A | b 4 b ",
">.m D C D H K E ! 4.5.B.a 9 u G G 9 q n.j.p.p.p.p.p.s.E.^ 0 t T M q 8 #.L.p.p.p.p.p.p.I.#.8 e G u y 9 ^ R.0.7.5.Q R K D ` m n n ",
">.2.H C C D K I ! O.5.9.Y.H 5.t T Y %.j.p.p.p.p.p.p.p.p.].D ~ u V ! D L.p.p.p.p.p.p.p.p.P.A o.I q ~ D ).p.i.8.5.O.W K D _ &.<.1.",
"l b k.C C D K I ! ~ 5.0.y.W y w 9 Y  .E.p.p.p.p.p.p.p.p.G.K S r 8 N D T.p.p.p.p.p.p.p.p.H.D J w 9 t H D.p.i.i.4.O.W I H [ 6 1.1.",
",.:.% C C D K K R Q 4.u.X.y / C.] r K E.p.g.p.p.p.p.p.p.e.Z s n.$.s G U.p.p.p.p.p.p.p.p.U.S s %.b.s Z e.p.i.8.7.4.R I H *.z z z ",
",.:.7 C C D H K R ! 4.u.Y Z.K.s.h.R.} G.p.p.p.p.p.p.p.g.o.b.E.p.s.R.%.D.g.p.p.p.p.p.p.p.Z.#.R.g.p.E.M.+.p.p.0.5.4.! K H *.1.z z ",
"l 6 :.D C C D K E ! ~ 5.7.i.i.i.p.p.g.g.p.p.p.p.p.p.p.p.g.g.p.p.p.p.p.g.p.p.p.p.p.p.p.p.p.g.p.p.p.p.g.h.p.i.0.7.4.Q I H 3 z z - ",
"* 6 6 D C C D K I W ~ 4.5.7.0.i.i.p.p.p.p.p.g.p.p.p.p.p.p.p.p.p.p.p.p.p.p.p.p.h.g.p.p.p.p.p.p.p.p.p.p.p.p.i.i.7.4.! I H =.- - k.",
"> l > | C C D H K W ! O.4.5.0.0.i.p.i.p.p.j.y.U.p.p.p.p.p.p.p.p.p.p.p.p.p.p.p.I.q.j.p.p.p.p.p.p.p.p.p.p.p.i.0.7.4.! I | n :.7 7 ",
"m *.=.l A g A D K E W ~ 4.4.7.8.i.i.p.i.p.E.G B h.p.p.p.p.p.p.p.p.p.p.p.p.p.g.6.d W.s.p.p.p.p.p.p.p.p.p.p.i.0.7.~ W K 3 & = = l ",
"> > l > H A C D H K W ! 4.4.5.7.0.0.i.p.g.q.G e ).g.p.p.p.p.p.p.p.p.p.p.p.g.'.Y r #.j.p.p.p.p.p.p.p.p.p.i.0.0.5.O.W K 3 n 7 = = ",
"n l - l l C C D H H I E ! 4.4.4.7.d.B.q.$.Q G 9 | %.M.B.f.p.p.p.p.s.K.F.N.%.+.R r w %.e.V.u.s.p.p.p.p.i.p.0.7.4.~ Y ..b n 7 :.7 ",
"z.:.>.:.l A C C D H I E W ~ ~ 4.5.#.G Y P K R w I K G M H.p.p.p.p.s.L.Z U I H O.t S I J Z %.h.p.p.p.p.p.i.0.5.4.! K 4 b x l l 2 ",
"m b ;.:.k [ g g A D K K E ! ! ! ~ 4.V.8 8 M U J u 9 B E.p.p.p.p.p.p.p.'.^ 9 q R V J w 9 A.s.p.p.p.p.i.p.0.9.5.O.E ..b b n l l l ",
"z.k &.:.:.=.A C C A H K K I W ! Q ! 6.V.f R N G G ' T.i.p.p.p.p.p.p.p.p.E.) S R y U f V.g.p.p.p.p.i.i.i.9.5.4.W K ;.x c x l l l ",
"b k b k k l l.C C A D D H K K I W ! ! V.P J w w R L I.i.p.p.p.p.p.p.p.p.I._ Q u 9 N G V.p.p.p.p.i.p.i.8.5.5.! Y X.b x b x l l l ",
"6 >.>.7 @ * -.D C C D C D D H K K I ! M.K r N i w H U.0.i.i.p.p.p.p.p.p.L.D r d ^ q G e.g.p.p.p.p.i.0.7.5.O.E I l x x x -.b l k ",
"c.>.>.5 ,.m m m D A C C A A D H H K o.| ) y.5.6.V.F y.0.i.i.p.i.p.p.p.p.D.d Y.J.j.U.} [ J.p.i.p.i.0.8.4.O.! K l l x =.x x =.k l ",
"6 5 >.>.,.6 = 7 6 C C g C C C C A H K W @.W ! ! 4.r.9.7.0.i.i.p.p.p.p.p.a.f.s.p.p.p.j.d.s.p.i.i.8.7.5.4.Q I l l :.x =.*.4 k m b ",
"5 # 4 >.5 = 6 m -.-.C C C C C C C A D K K I E ! ! O.4.5.7.0.i.i.i.p.p.p.p.p.p.p.p.p.p.p.p.i.i.0.7.5.4.! Y { l = - 4 x x 4 l b -.",
"k.Q.- &.n $ ,.,.>.k...g C C C C C C C D D K K W ! O.4.5.7.7.0.i.i.i.i.i.p.i.i.p.p.p.p.i.i.0.0.8.4.4.! Y } k.1 X   > k 7 m n l l ",
"k.Q.Q.- n 6 5 5 $ 5 O P C C C C C C C A A H K I R ! ~ 4.4.5.8.7.8.0.0.0.i.i.i.i.0.i.0.i.0.7.7.4.~ ! Y [   . k.1.<.k k : &.n n n ",
"k.- m = n ,.k.$ 6 k.5 O 6 A C C C C C C A A H K I R ! ! ~ 4.4.4.5.7.7.7.7.7.7.7.7.8.7.7.7.5.4.! W I ..*.*.X 1 1.1.> &.&.&.b :.:.",
"x m m v.m 6 7 $ $ k.k.6 k.m A A C C C C A A H H K K E W ! ! ~ ~ 4.4.4.4.4.4.4.O.4.4.4.5.4.~ ! E I *.*.: -.<.1 1.1.7 &.&.&.k b :.",
"# -.-.1 X $ 5 m *.= * 6 4 b j _ C C C C C A C A D H K K I Y E W E ! ! ! ! ! ! ! ! ! ! ! ! W I { :.z z ;.> *.*.* 6 >.>.7 >.:.z l ",
"@     o : *.*.-.*.6 *.*.6 j b <.m D A g A g C C D D D H H K K K K K I I I I I E E R I Y K Y l l l z ;.;.< * *.*.6 6 $ 6 >.:.:.:.",
">.1 , -.-.-.2 *.3 *.*.*.*.b 4 4 4 n n D C g C C C C C C C D C D D H H H K H K K K K H K X.l :.;.l z ;.z - *.*.*.=.6 6 6 6 l ;.; ",
">.-.-.-.-.-.*.*.3 6 6 6 6 &.&.b 4 l l n >.` C g C C C C C C C A C D C D A A C D A _ n > > - l :.:.;.;.z x 6 b -.6 >.>.>.7 ;.z z ",
">.m 2.b b -.x.x x *.*.*.*.< b >.v l l 2 - x x c K F C C C C A A C C C C C L K :.:.=.=.* 6 3 3 c c l > =.l : -.-.-.<.*.k &.1.v v ",
"v n 2.2.3 x -.-.x 2 2 2 *.b < 3 x l l =.l z z x * x 1.1.1.l l l.l 6 4 j n l x l z =.6 * 6 3 3 = 3 l > > l : : -.-.l k <.*.v <.v ",
"b n 2.n 3 l -.c.x.2 *.v.*.3 >.v b l -.m l z z 2.z - - - 1.x.7 l l.4 4 b n l > z :.6 6 6 =.c c 3 3 > =.=.=.-   : -.<.<.*.1.1.v 1.",
"b &.2.n n x.x.:.x.*.v.v.v.b >.>.>.l l l m k.* l l - z z z x.z.l.x.n b >.j k z z :.m =.=.6 3 c = 3 > l l l . . -.-.m &.k *.1.> v ",
":.;., ;.:.<.<.<.<.&.&.&., x 2 ;.-.< < < k.3 o >.>.6 6 4 6 2 :.x 2 n b b b b b b b 1 3 -.3 3 :.:.  : v - : > x k.b k l >.>.7 z.7 "
};
