/* XPM */
static char *result[] = {
/* columns rows colors chars-per-pixel */
"64 64 197 2 ",
"   c black",
".  c #10130F",
"X  c #0E1419",
"o  c #1A171B",
"O  c #270A03",
"+  c #291008",
"@  c #311108",
"#  c #3A1408",
"$  c #201D1C",
"%  c #21211E",
"&  c #35311F",
"*  c #1C1622",
"=  c #281C2E",
"-  c #1E2023",
";  c #242424",
":  c #282726",
">  c #2C2B2B",
",  c #352E2B",
"<  c #2C2D34",
"1  c #333333",
"2  c #3B3939",
"3  c #421408",
"4  c #421908",
"5  c #421910",
"6  c #4A2210",
"7  c #522410",
"8  c #532516",
"9  c #542A19",
"0  c #5A2C19",
"q  c #41351C",
"w  c #5A3119",
"e  c #632D19",
"r  c #633319",
"t  c #473F27",
"y  c #403C36",
"u  c #633521",
"i  c #663B23",
"p  c #6B3C21",
"a  c #6B3C26",
"s  c #733E23",
"d  c #79621C",
"f  c #504A2F",
"g  c #6D442B",
"h  c #6F492D",
"j  c #734121",
"k  c #734329",
"l  c #7B4529",
"z  c #774A2C",
"x  c #7B4A2B",
"c  c #64582D",
"v  c #7D4D31",
"b  c #7F5131",
"n  c #736A37",
"m  c #7B7136",
"M  c #3D1E40",
"N  c #3C3640",
"B  c #123161",
"V  c #4B3B55",
"C  c #653C6F",
"Z  c #55544B",
"A  c #6A6758",
"S  c #756F5C",
"D  c #796C68",
"F  c #804C2D",
"G  c #834E31",
"H  c #845232",
"J  c #895634",
"K  c #8C5935",
"L  c #8C563A",
"P  c #8C593A",
"I  c #925D3C",
"U  c #94613D",
"Y  c #98623E",
"T  c #877B38",
"R  c #946142",
"E  c #9A6542",
"W  c #9C6943",
"Q  c #A46C43",
"!  c #A46D4A",
"~  c #A5724A",
"^  c #AC754B",
"/  c #AD794A",
"(  c #AD7552",
")  c #AD7B52",
"_  c #B57D52",
"`  c #837967",
"'  c #AF8609",
"]  c #A5943A",
"[  c #AB9A3C",
"{  c #DCA802",
"}  c #D9C13D",
"|  c #8F8449",
" . c #B58252",
".. c #BD8652",
"X. c #B5835A",
"o. c #BD865A",
"O. c #BD8B5B",
"+. c #BFAE4D",
"@. c #918F72",
"#. c #978875",
"$. c #BD8D63",
"%. c #A18D7A",
"&. c #C59463",
"*. c #CE9A63",
"=. c #CE9B6B",
"-. c #DEC555",
";. c #FFE242",
":. c #FFE34A",
">. c #FFE85F",
",. c #EDDE7A",
"<. c #FFED7B",
"1. c #7D25B4",
"2. c #0E49A7",
"3. c #3B6AAF",
"4. c #6E428C",
"5. c #734393",
"6. c #7F46A5",
"7. c #0050C8",
"8. c #0066FF",
"9. c #0569FF",
"0. c #0B6BFF",
"q. c #126EFF",
"w. c #1571FF",
"e. c #1B73FF",
"r. c #297AF3",
"t. c #2275FF",
"y. c #277BFF",
"u. c #4177C8",
"i. c #447CD1",
"p. c #8D39BA",
"a. c #8C6F97",
"s. c #9C4DD0",
"d. c #AE53D6",
"f. c #A74CE2",
"g. c #B353F3",
"h. c #BB55FF",
"j. c #C05CFF",
"k. c #CD6DF8",
"l. c #7994BC",
"z. c #2E80FF",
"x. c #3883FF",
"c. c #5889D3",
"v. c #4788FF",
"b. c #4689FF",
"n. c #538EFF",
"m. c #4B98FF",
"M. c #5497FD",
"N. c #5C93FE",
"B. c #6196FF",
"V. c #6699FF",
"C. c #6A9DFF",
"Z. c #58A3FB",
"A. c #68ABEE",
"S. c #6CA3FF",
"D. c #67AAFB",
"F. c #75A8FF",
"G. c #6CB4FE",
"H. c #6ABAFF",
"J. c #78B3FC",
"K. c #73BBFF",
"L. c #7BBEFF",
"P. c #7EC2FF",
"I. c #938D87",
"U. c #B19B85",
"Y. c #ADAA85",
"T. c #B3AB87",
"R. c #C4B994",
"E. c #D6B79A",
"W. c #E6B684",
"Q. c #DBBEA1",
"!. c #90C9AD",
"~. c #CEC78C",
"^. c #FFEF86",
"/. c #FCEE8E",
"(. c #DBD6A4",
"). c #E9C9A9",
"_. c #F6D4B2",
"`. c #E8E4A9",
"'. c #FFF6A7",
"]. c #F3EEB4",
"[. c #FEFABC",
"{. c #81A6DE",
"}. c #96B7E8",
"|. c #82B9FF",
" X c #89BCFF",
".X c #D787F2",
"XX c #E28EFF",
"oX c #EA98FF",
"OX c #85C3FF",
"+X c #8CC4FF",
"@X c #8FC8FF",
"#X c #91C6FF",
"$X c #94C9FF",
"%X c #99CCFF",
"&X c #9FD2FF",
"*X c #ADD9FF",
"=X c #E2D9CF",
/* pixels */
"Q ^ Y H ^ ~ ~ H ~ O.W x l j K K K J J J R ! ! ! ! i @ g Q K u u K G 0 G H ! G 0 0 i r 4 i @ r I u s s s s G 5   G 0 x 0 0 i ) ) ",
"P Y ^ Y Y U U U Y E E W W r K / / U J x J ! ! i O j Q Q Q u u ^ J G G G H ! ! 0 0 i I i P u @ I u 7 8 I s 5 5 5 5 0 v 0 x P P P ",
"P ^ ^ ^ G U ~ U H x x W W ^ K K K J J z R ! ! g i Q Q Q Q ^ J K ^ H ^ G G ! ! G ! P P i P p u u I 7 8 I s 5 ....5 x v x W P u u ",
"~ $.U / U ) =.( ) W P Q  ._ k k g J J K ~ o.o.k Y X.X.K _ E G H _ k E E k ) k _ )  .i j p 5 5 l s 0 e H J I 5 P 5 4 x 4 v 0 H b ",
"~ U / U U O.( ) ) W P P W _ U I k J J p ~ k E W W X.P P P G E F W o.W W k k k X.k g P U I k 5 k k 0 0 0 ) 6 6 P a _ _ v z 9 H ) ",
"J U U U I ) =.$.) ~ W P ! _ _ R g K J i p k h O.o.X.r X.X.E  .E G U g E k k g W.) j _ r i W l W k 0 ) w w 5 P P 6 x _ x v ) H H ",
"~ $.U / ~ ) =.=.=. . .~ Q _ I k j K J K ~ O.O.O.O.P X.X.P X. .E W R Y k k k k k k i r I I Y Q s k J ) H 0 a P P a 4 x x v L 0 0 ",
" .~ $.I / ~ *.*.~ ~ ~ ~ ~ o.E x x H b H H x x ~ x I &.&.P ) ) Y U x U U x b b b _ ^ 4 ~ ~ H G 9 0 ~ ~ H ~ ~ ! ! ! p p i i 9 G b ",
"E U $.$.~ v v v ~ Y G I ~ E x x Q i H W r / x 7 ! R &.I 0 l x U U U U x r 7 ) ) ) ~ k ~ k G G 0 9 ~ / e G ! 5 5 ! Y p p Y ~ ~ 0 ",
"E ~ U $.$.v v v ~ U G G Y x E o.O.J H W p ~ ~ b x   0 P I x x x U x U U U H b b b ~ k ~ ~ 9 G G 9 r r e H v v z ! Y p i Y b b b ",
" .$.~ I ) ~ v v b b U R U x W o.E r W W H ~ x x ~ P U I K x l x x I x r x 7 7 H 7 k k k l 9 G G O H e H H 5 z z ! U O.U r 0 ~ b ",
"O.X.R I I ~ H H ~ W x W W x Y l l / / H J H H _ W W J r H J w J _ I l R I s F r F H G G e L L 8 0 F F F F _ v 8   3 W W k Y X.X.",
"U U X.X.R ~ G H H W l $.W K E Q W / / / 0 E _ W H H G H H _ r w w l l l l x I I I G ~ e e L 0 0 K F F ~ ! G v 8 8 3 3 a W U j U ",
"i i I X.I H &.~ ~ $.W x x K K E W H / / / H H E W H H W Y _ w w w l Y I R F I I I ~ ~ G G L L L o.F 7 ~ x G ^ G v W j E W Y j X.",
"U a i U p H ~ &.&.$.x l W E K l K H H H 0 H G A.E W W E Q J _ _ K ) I ) ) x I I I ~ Q G ~ L o.L o.F F ! v ^ ^ v v W W g j j j U ",
") E s k k r p p i H H W W K K K ~ W F F r 8 k s k J K K I E J J H _ v G 9.9.9.8.H F Q F Q ! ! L ! 7 7 7 H ! X.X.! W H W W P s s ",
") W g g k p E E E H b W W K K ~ ~ E F F E s L.I I x x x K K H K 8.8.9.e.e.e.t.9.8.8.8.8.8.8.L s ! _ H 7 7 L P P P X.W H H I ) P ",
"j k W W R H F E E r b u b ~ ~ K K E E E Q I +XI I V.U U U Y 9.9.b.N.N.V.V.V.V.B.B.B.8.9.8.9.9.L l H H H _ X.X.P P X.H H H I )  .",
"U R O.O.E H Q G H b W b i j K ~ K F F F x L.+XOXJ.H I 8.9.0.n.Z.D.K.L.OX+X@X#X X|.B.V.V.V.w.9.8.9.G F H H ! ! L X.X.W H H P )  .",
") W P Q _ $ X.I I O.H b H i H H E E ( E H OX$XOXJ H 8.9.z.m.u.H.u.u.u.}.i.i.i.#X$X$X%XS.V.V.w.e.8.8.9.9.P x x x U v _ R R ( U P ",
"U _ _ P Q m > ! I ~ H - H H b b E E H H Y K.S.L.S.8.x.m.u.u.u.3.3.3.i.c.c.c.i.i.i.r.r.%X#X|.B.N.0.y.8.8.L I _ ( x R R x W ( Y I ",
"l Q _ _ : ;.`.| m - H f @.W W - E E H H W D.I K.z.c.c.u.u.3.i.i.i.l.3.3.3.l.l.c.c.i.r.r.%X%XJ.C.n.e.8.8.9.I I I ( _ E R R x x Y ",
"U P _ _ > [ :.[.m y @.Z [.Z b A ; E / ) H x l G.c.c.c.u.}.i.3.l.c.c.u.u.c.c.i.3.3.i.i.r.c.%X%X%XV.N.y.0.0.9.8.8.9.9.9.9._ I I I ",
") R E E ] f ;.'.,.y [.Y.`.Y.R.[.1 Y Y ^ H x 9.D.c.3.c.l.i.i.u.u.c.u.}.u.i.c.i.i.3.c.i.c.r.&X%X%XF.V.n.q.0.9.8.8.s x x Q ! Y ~ ~ ",
"E R H E } T.` +.<.y '.[.Z Y.R.~.1 ^ ^ ^ H x D.D.c.c.c.l.u.u.u.u.c.u.i.i.u.c.c.c.9.9.l.l.r.r.*X%X XF.B.b.q.9.9.9.W 9 9 9 z G G U ",
"R W E G } <.[.].m t <.>.].2 ].S J H ^ ^ F x B.c.c.c.c.u.u.}.i.u.i.u.i.}.u.u.}.}.l.l.l.i.i.r.r.*X%X+XV.N.0.3.3.9.9.9.9.9.9.8.9.9.",
"H R ) : 1 ;.<.Y.[.^.~.} (.@.%.A W H H H H N.3.}.3.}.{.{.{.i.}.i.u.{.3.3.u.3.u.}.}.u.c.}.l.i.r.&X$X#XJ.G.S.3.M.3.3.3.m.m.m.m.m.D.",
"Q K K f /.| ;./.@.Z [.-.(.@.`.].$ / Y F F I 3.3.3.3.{.l.}.{.l.{.u.{.{.{.}.u.u.u.u.c.u.c.l.l.r.r.r.r.r.r.r.r.}.3.}.}.3.3.3.3.3.3.",
") ~ P ~ f <.c ;.+.)._._._.).1 S ~ / Y Y N.3.3.3.3.{.}.l.u.{.i.{.u.3.{.{.i.u.c.u.}.u.c.u.u.u.u.}.}.}.}.r.r.r.}.}.u.u.}.}.}.}.}.}.",
"W ~ ~ ~ T | ^.+.A ).%.U._._.> ! % X G E / i.i.3.3.{.l.u.u.{.{.}.u.3.}.l.{.u.u.{.{.{.{.u.{.u.l.}.}.}.}.3.3.3.3.3.3.3.3.3.3.3.3.}.",
" .~ ~ . % T '.n _._.` =XE.%.Q I : 1 X / 3.u.u.3.}.{.i.u.u.{.{.}.u.3.3.l.i.u.}.{.{.{.{.{.u.u.{.{.{.}.}.}.3.}.}.3.}.}.}.l.u.u.u.3.",
"R U I _ _ Y n Z A A #.=X!.D o X #.y F I 3.u.3.3.{.8.l.u.u.i.c.c.u.{.{.{.{.{.u.{.{.l.3.u.u.u.u.{.{.{.{.{.3.3.3.c.c.c.c.}.}.c.u.3.",
"^ I k s I G < s.h.XXC D `.Y.1 7.^ S - F 3.u.3.3.{.9.}.u.u.i.c.u.3.3.3.{.{.{.u.u.u.{.u.u.u.{.u.{.{.{.u.{.3.8.}.l.l.c.c.c.c.c.u.3.",
"^ _ R k _ : g.h.XXZ _.2 2 2 > y 2 1 % 3.3.u.3.{.{.}.}.3.u.i.i.u.3.l.l.3.3.{.{.u.u.u.u.u.u.{.u.{.{.u.u.{.3.9.3.3.3.3.c.c.c.3.c.u.",
"G I _ Y _ < 5.k.XXN _.).I.I.5.7.Q., ~ 3.Q u.3.{.{.{.{.{.u.i.}.u.i.}.3.}.u.r.3.u.u.u.{.u.{.u.{.u.u.u.{.{.}.i.}.l.l.c.c.}.3.i.c.u.",
"/ ^ 7 v ~ > 1 s.j.d.1 E.).E.U * ~ 1 U U 3.u.}.3.c.{.{.{.}.}.}.u.u.i.u.}.u.i.{.u.u.u.u.{.{.u.u.l.u.u.3.i.i.3.c.c.c.c.}.}.3.i.c.u.",
"/ ~ b x ~ B 2.V Z < R ) y , H H I ! ! ! 3.u.J.3.}.i.i.l.{.3.}.u.3.u.3.}.u.u.{.{.u.u.u.i.l.u.u.u.u.{.{.3.3.3.3.}.c.c.3.3.3.i.u.u.",
"H x ~ ~ ~ ; 2 4.4.4.C M W ~ ~ Y H I ! ! c.3.3.3.c.u.}.}.9.{.}.u.}.i.3.i.i.u.{.{.u.u.u.u.u.u.c.c.c.3.3.{.{.{.c.c.c.3.i.i.u.u.u.u.",
"0 b x > > 1 2 h.h.h.k.k.d.^ H ~ ~ I H I B.c.c.c.3.u.u.l.u.9.{.8.}.}.}.i.3.u.u.{.u.u.}.r.r.{.{.{.{.{.{.{.{.i.c.3.c.i.u.u.u.u.u.u.",
"g b : 1 1 1 2 s.h..XoX.Xf.p.o Q ! H G *.~ P ~ c.|.u.u.u.}.u.{.{.9.}.i.i.{.u.{.u.u.u.i.i.c.c.c.c.i.OXc.c.c.c.c.c.c.i.i.i.i.i.i.i.",
"U o 1 1 1 1 > = = * > 1 6.a.o W W &.H H V.S.E c.C.u.u.u.{.{.{.{.l.l.i.A.{.u.{.{.{.{.{.3.3.c.c.#X#X+XC.S.b.v.n.t.i.i.i.i.i.c.u.i.",
"j : 1 1 > f.1.I _ r o 1 1 1 o Q =.&.H J A.~ B.G.{.{.u.{.{.}.{.u.}.}.u.{.{.u.3.{.{.{.{.r.r.c.c.@X@XC.V.n.x.9.9.8.9.I U k U F w w ",
"I ; c d : Y U R U P U 1 1 & 1 =.W ~ ~ ~ ~ K z.G.{.{.{.{.{.3.{.{.}.{.{.{.u.u.3.{.{.{.3.}.c.+X+XOXS.S.n.e.9.8.8.8.P I I U U b ~ b ",
"X.; ' ' q H W H H  . .$ Q { { ^ ~ ~ P ~ A.b b G.{.{.{.{.{.{.}.{.{.{.{.{.u.{.{.{.{.{.r.c.c.@X+X|.S.n.t.t.e.0.9.9.9.8.l K K H H i ",
"I Y ~ ~ G H H H H h   + t f f & ~ ~ P k A.D.E G.t.A.{.}.{.{.{.{.{.{.i.{.u.{.{.c.c.3.r.c. X%X XS.N.V.9.9.9.8.8.x L ~ I I I H H H ",
"_ G Y ! ! W  . . .z h h  .~ F 0 0 k P P P H.E G.n.{.{.{.{.{.r.{.3.{.3.u.u.c.}.}.3.3.c.c.%X XV.B.y.w.8.8.9.l F x G ~ K K P H H F ",
"R G I H H F  .H H k  . . .~ ~ ~ ~ ~ k P ~ K.L.L._ z 9.x.{.{.r.{.{.{.}.u.c.c.3.3.3.r.%X XF.V.N.v.9.9.8.8.9.8.9.K H I I I I G H H ",
"v ^ ^ x 5 w E E r r J H Q 0 0 F ~ Q Q 6 6 K.P.K.Z.l I 9.q.z.S.#X{.r.r.u.r.r.r.r.r.|.F.V.V.t.9.0.9.l l I I H H H G K K K Y I H H ",
"o.^ ^ z ^ W E E x J J J r w F ~ H z Q Q x r H. .P / / K 9.8.y.v.S. X X X X X XS.V.V.b.b.b.y.9.9.8.! l I P ~ H H H K W K K W H H ",
"x z ^ ^ / x w x x i Q Q s F ~ ~ ~ z j Q Q U H.P P Z.^ / I l I 9.9.9.9.V.V.V.V.t.9.9.8.9.9.9.P ~ o.K l l P ~ H H ~ K E W l G Y I ",
"x 5 z ^ z w x Y E Q Q H a G ~ G ~ Q z x z P H.i P I l I l R ) v l L k 9.8.8.9.9.8.G H H x P P P K x l x ! ~ H r r l K K l H I W ",
" .&.r R Y 6 / / ^  . .3 z R E I R P P x r  .) P ) ) U I l L X.W ! _ l I E s P s s K ~ ~ K ~ ~ K x W W Y i ) h +   p G G Y U H H ",
" .&.&.r U x x b 6 z #   z R z R 0 x x i P ) ) g k I ( l l L P L L I F I R ~ L k P J a ~ ~ ~ ~ ~ I E E i   + ) ) ( G v p R I U U ",
" .r U w Y / / 6 x  .z # z z z z 0 a x v P I P g s l R l R X.X.~ L Y I F l P ~ ~ ~ ! j i ~ x x ~ I E i E E + h ) ) p R R R Y ~ ~ ",
"J U U &.U x b 6 6  .o.z _ R 0 0 z L P P v s P R ) I l l I W ! X.X.Y _ I l k j P g H ~ J K K x ~ ! Y E i E ) g ) ) v R R R H U ~ ",
"5 ~ Q g + 6 h Y W w 0 l v R s R I ~ R ~ ! ) I R ) H H L _ / H H ^ H J J J v b 0 0 g I I p H H ~ ~ J K ! a E E 0 x ^ ^ v ^ ~ H H ",
"5     @ a E E E W l E E l l I _ I U ~ ~ U k I ) ) _ _  .J / / 0 0 J 0 H ) ~ ~ ~ ~ R i r R J H H H J ! ! p 0 Y Q x v 5 G ^ ~ ~ ~ ",
"^ i g Q Q Q s Y k W E E W I l l l Y U U U k I R k H H H 9 / / 0 0 0 H ) ) ~ G v b I i X.X.H ~ ~ H J ! J p E E E W x x x x J ~ u ",
"^ Q Q Q Q E E Q k x x v v I R R x H H Y ~ I R P R 9   9 H H H H H H ) J 0 v H v w I R j p r H ~ ! ~ ~ J J x Y E x ^ ^ ^ v ~ H H ",
"^ Y _ I I Q o.K K R E E E s I ! K H H p i K J J ) ) J  .K # 4 b H x I P x L ~ ~ ~ E E 0 x k k P L H p W H u Q Q Q ( E G R ) P P ",
"P Y _ _ k J Q Q K j j j E P k k I H H W H J H J 0 K ) ) / H b O.F x l F P H J J K W x 0 x k k 0 k H p p H i i Q Q G G ( E P ) P ",
"I U _ U k K ! ..o.j R $.E k ^ I K H Y Q H J J _ P w r r  .o.b b o.x l I U J u L ~ x x x W L L k k p E W W r   i Q ) ( E ) ( P ) ",
"P U _ U Y o.o.! o.Y $.$.&.L ^ ^ ^ H H H W _ 0 K H r J J H o.o.o.o.U I ~ F J H J ~ Y W W x k L w k p H H H O O Q Q I E G R ) a P ",
"~ ! a ! ! ) / ) ) R R R a K s ! ! s s s  .g # ! ^ x x x x j ~ K j I I I I I I I I g k Q k k ~ ~   i I r p r I _ I H H ^ ^ v X.b "
};
