/* XPM */
static char *result[] = {
/* columns rows colors chars-per-pixel */
"64 64 157 2 ",
"   c black",
".  c #210800",
"X  c #290A00",
"o  c #290C08",
"O  c #291008",
"+  c #311108",
"@  c #3A1408",
"#  c #2F353F",
"$  c #333333",
"%  c #3A3835",
"&  c #3B3A37",
"*  c #3A323F",
"=  c #421408",
"-  c #421908",
";  c #421910",
":  c #4A2210",
">  c #522410",
",  c #562610",
"<  c #522419",
"1  c #542919",
"2  c #5A2C19",
"3  c #5A3119",
"4  c #632D19",
"5  c #633219",
"6  c #433E2D",
"7  c #413E3A",
"8  c #633521",
"9  c #663B23",
"0  c #6B3C21",
"q  c #6B3C26",
"w  c #733E23",
"e  c #735E1E",
"r  c #7C631B",
"t  c #4C442A",
"y  c #5A4D26",
"u  c #46423D",
"i  c #6D442B",
"p  c #6F492D",
"a  c #734121",
"s  c #734329",
"d  c #7B4529",
"f  c #774A2C",
"g  c #7B4A2B",
"h  c #665522",
"j  c #7C4D31",
"k  c #7F5131",
"l  c #2C3749",
"z  c #3F3248",
"x  c #293951",
"c  c #40324A",
"v  c #453153",
"b  c #4B305D",
"n  c #562F6F",
"m  c #4E3061",
"M  c #53306A",
"N  c #5A2F75",
"B  c #5A2F78",
"V  c #583073",
"C  c #484542",
"Z  c #524B45",
"A  c #58514A",
"S  c #65594E",
"D  c #6B5E50",
"F  c #6F6053",
"G  c #756556",
"H  c #7D6B5A",
"J  c #6F6F6F",
"K  c #8E7015",
"L  c #804C2D",
"P  c #834E31",
"I  c #845231",
"U  c #895534",
"Y  c #8C5935",
"T  c #8C563A",
"R  c #8C593A",
"E  c #925D3B",
"W  c #94613D",
"Q  c #98623E",
"!  c #946142",
"~  c #9A6542",
"^  c #9C6A43",
"/  c #806E5C",
"(  c #84715E",
")  c #A36C44",
"_  c #A46D4A",
"`  c #A5724A",
"'  c #AC754A",
"]  c #AD794A",
"[  c #AD7552",
"{  c #AD7A52",
"}  c #B57D52",
"|  c #8A7561",
" . c #8D7862",
".. c #937C66",
"X. c #A8810C",
"o. c #CC9900",
"O. c #B58252",
"+. c #BD8652",
"@. c #B5835A",
"#. c #BD865A",
"$. c #BD8A5A",
"%. c #9B826A",
"&. c #A0866C",
"*. c #BD8D63",
"=. c #A88C71",
"-. c #AE9074",
";. c #B49578",
":. c #BB9A7A",
">. c #C59463",
",. c #CE9A63",
"<. c #CE9C6B",
"1. c #2A3E82",
"2. c #622E85",
"3. c #642E88",
"4. c #6C2D96",
"5. c #712D9F",
"6. c #762CA7",
"7. c #0E489F",
"8. c #0C49A4",
"9. c #0D4DAD",
"0. c #4D72B0",
"q. c #014FC5",
"w. c #0452C7",
"e. c #0066FF",
"r. c #106EFF",
"t. c #882AC6",
"y. c #8A2ACA",
"u. c #9429DB",
"i. c #3C84FF",
"p. c #4187FF",
"a. c #4689FF",
"s. c #5390FF",
"d. c #5B93FF",
"f. c #6397FF",
"g. c #6599FF",
"h. c #689BFF",
"j. c #72A5FF",
"k. c #7CB5FF",
"l. c #8C8C8C",
"z. c #AAA1A7",
"x. c #BFABA0",
"c. c #CAA682",
"v. c #D2AC87",
"b. c #D6AF89",
"n. c #DCB38C",
"m. c #D3B59D",
"M. c #E2B78C",
"N. c #E6BB92",
"B. c #E9BE93",
"V. c #EEC296",
"C. c #F1C396",
"Z. c #F3C598",
"A. c #83B6FF",
"S. c #85B9FF",
"D. c #89BCFF",
"F. c #86C1FF",
"G. c #98CBFF",
/* pixels */
") ' Q I ' ` ` I ` $.^ g g a Y Y Y U U I ! ` _ _ _ 0 O i ) I 8 8 U P 2 P P _ P 2 2 9 9 - 0 + 8 E 8 w w w w j ;   P 2 j 2 2 8 { O.",
"R Q ' Q Q W W E Q ^ ^ ^ ~ 5 Y ] ] ! U f U _ _ q X i ) ) ) 0 8 ' Y P P P I _ _ 2 2 9 R 5 R 8 + E 8 > > E w ; ; ; ; 2 g 2 g R R R ",
"R ' ' ' I Q ` E P g g ^ ^ ' Y Y Y U U f ! _ _ q q ) ) ) ) ' U Y ' P ' P I _ _ P ` R R 9 R 8 8 8 E > > E s ; +.+.; j g j ^ R 8 8 ",
"` *.W ] E { <.{ { ^ R ) O.} s s s I Y Y ` $.$.s ~ @.O.Y @.~ P P } d ~ ~ s { s { { } 0 a 0 : ; g d 2 2 P U R ; R ; - g - j 1 k k ",
"` W ` W W $.[ { { ^ R R ) } ! E s U U 5 ` s Q ^ ^ @.R R R P ~ L Q #.Q Q s s s O.i 9 R Q R s ; d s 2 2 2 { : : R q } } j j 2 I { ",
"U W W W W { <.*.{ ^ ` R ^ } } ! s U Y i a p p $.$.@.4 @.@.~ O.~ I ^ f Q s f s n.@.a O.5 a ^ f ^ s 2 { 2 2 : R R : g } g f { I U ",
"` *.Q ] ] { <.<.<.@.O.^ ) } E s s U Y Y ) $.$.$.$.R @.@.R @.O.~ ^ ~ Q p s s p s f 5 0 E R ^ ~ s d I { U 2 q R R q - f f f T 1 2 ",
"O.` *.E ` ` ,.,.` ` ] ` ` #.~ g g I k I I f f ` g R >.>.E [ { Q W f W W g k k I { ` = ` ` L P 2 1 ` ` I ` ` _ _ _ 0 0 0 q 2 j P ",
"~ W *.*.` j j j ` Q P W ` ~ g g ^ a I ^ 5 ] j , ` E >.R , L g W W Q W g 8 > { { { ` s ` s P P 2 1 ` ' 5 P _ > ; _ Q 0 0 W ` ` 2 ",
"~ ` W *.*.j j j ` W P P ! g Q #.$.U I ^ 9 ` ` g g   2 E W a g g W f W E W k k k k ` s ` _ 2 P P 2 5 5 4 U f f s _ Q 0 0 W k k I ",
"O.*.` W { ` j j k P ! W W g ^ #.^ 5 ) Q I ` j g ` ! W E W d d g g E g 5 L , , L : d s s w 2 P P X I 5 I U ; f f _ W $.W 0 2 ` k ",
"#.@.! R ! ` I I ` ^ g ^ ^ d ^ d g ] ] U I I I O.~ ~ U 5 I Y 3 U } E d ! Q 5 L $ $ $ L I 4 T T < 2 g L L L ' j <   = ^ ^ q W @.@.",
"! E @.@.R ` I I P ^ d $.^ Y ~ ^ ^ ] ] ] 2 ~ } ^ I I P I L } 3 3 3 d d d d L E E $ $ $ $ $ T 2 2 T L L _ _ P j < < = = 0 ^ W a W ",
"0 0 E @.E I >.` ` *.^ g g Y Y ^ Q I ] ] ] I I ~ ^ I I ^ ) } 3 3 3 d E E ! L E E E $ $ $ $ $ $ T #.P , ` L j ' P j ^ w ^ ^ Q a @.",
"W 9 9 E q P ` >.>.*.g g ) ~ Y d Y I I U 2 I P ~ ^ ^ ^ ~ ) I } } U { E { { L E E E ` $ $ $ $ $ $ #.L L _ j ' ' P P ^ ^ i w a a W ",
"O.~ s s w 0 0 0 q k I ^ ^ Y Y Y ' Q L L 5 < s s s I Y U Q Q U U Y { P k P 5 5 I I L ) $ $ $ $ $ $ > > > T ^ @.@.^ ^ I ^ ^ R w w ",
"{ ! i s s 0 ~ ~ ^ k I ^ ^ Y Y ` ` ~ L L ~ s E E Y L L L I Y Y U Y j P $ $ $ $ $ I ~ ~ $ $ $ $ $ $ } P > > R R R R @.^ U I E { E ",
"a i ^ ^ ~ L P ~ Q 5 k 5 k ` ` Y Y ~ ~ ~ ~ E E E E E Q Q Y ) Y ] U k { j I $ $ $ $ $ ~ $ $ $ $ $ $ $ I $ } @.@.R R @.I I I R { { ",
"W ^ $.$.~ I ~ P I k Q I 9 a U ` Y g L L L E d w E Y Q Y Q ) Q ) ] } j > > 4 $ $ $ $ $ $ $ $ $ $ $ $ I $ $ _ ^ R @.@.^ I I R O.{ ",
"{ ^ R ^ } @.@.E W +.Y I U a k k ~ ~ { ~ I d g g U L L L g L W L P R 0 E E ^ $.$ $ $ $ $ $ $ $ $ $ $ $ $ $ g g d ! j } ! ~ [ W E ",
"Q } } R ) _ E _ E ) U U I P P I ) Q I I Q U U g d Y E U L P P P Q 0 0 E R $ $ $ $ $ $ $ $ $ $ $ $ $ $ $ $ Q { { d ~ ~ f ~ [ W E ",
"g ^ } } } _ E _ ) I I I I Q ) P ~ Q I I ~ E E U L E E U d P Q E ` R R $ $ $ $ $ $ $ $ $ $ $ $ $ $ $ $ $ $ $ $ E [ } ! ~ ! g g ! ",
"W R } } ) _ @._ E I U I I I L P P ~ } ] I a d U U I I L d L L P Q E $ $ $ $ $ $ $ $ $ $ $ $ $ $ $ $ $ $ $ $ $ $ $ ~ ~ } } E E W ",
"{ ~ ~ ~ { ~ #.) d Y W I L L Y L Y Q Q ] L L E U U E P I I I g g g $ $ $ $ $ $ $ $ $ $ $ $ $ $ $ $ $ $ $ $ $ _ s w j g ) ) W ` ` ",
"~ ~ j ~ { $.$.^ d E I E ) Q Y Y ^ ' ' ' P L E d W ) Y Y I R R g I g a 5 g $ $ $ $ $ $ $ $ F ( $ $ $ $ $ $ $ $ ^ ^ 1 1 1 j P I Q ",
"~ ! ~ P P ~ $.~ d E E Y E Q Y Y Y I ' ' L d e.e.e.e.Y E I R T g Y g d d a g $ $ $ $ $ $ $ | %.# $ $ $ $ $ $ $ s ` _ g f ) ` E ` ",
"k ~ { ~ ~ ^ d d Q ^ E Y E ) ) Y ) I I L e.e.e.e.p.s.r.~ I T R I I Y U U U $ $ $ $ $ S %.$ u  .v.H | G $ $ $ $ s s f ) j ) ` I W ",
"^ R R $.$.` R R ' _ ` W ) E E E @.] Q e.e.e.p.d.f.S.A.h.I Y Y I L $ $ $ $ $ Q $ $ S M.-.J l.| Z.N.N.| $ $ $ $ R q j ^ j j P P ~ ",
"{ ` R ` $.` ` ` R ` ` E _ E E E ` ] e.e.e.a.A.j.D.G.Y I h.W W I $ b.n.v.$ Y Y $ $ D :.A ~ l.| Z.Z.C.| $ $ $ $ { R j j j j 0 ~ ~ ",
"e.e.e.e.e.e.e.e.e.e.e.e.e.e.e.e.e.e.e.e.r.k.j.A.G.I I E E h.I $ $ & Z M.$ g Q $ ~ F ;.7 ~ J | Z.Z...$ $ $ $ 0 { R ^ $.j j 0 ~ ~ ",
"O.` ` ` R ` R R ` @.E _ E E ` E E Q P ] +.+.E 0 5 I Q I L h.I $ B.N.$ C c.$ $ $ $ F ;.C f V.V.Z...$ $ $ $ { { R R j ) ^ j P P 0 ",
"Q W E } } ~ I P I U ` _ ` E E E E L P E ' ' E ' L E E E ^ h.g U $ $ $ u Z.m.w.7.S C.C.C.C.C.Z.Z.Z.| $ $ 5.n $ E E P P P ~ Q d E ",
"e.e.e.e.e.e.e.e.e.e.e.e.e.e.e.e.e.e.e.e.i.A.j.S.G.E P P R g.j $ $ & C.C.C.C.x.q.7.D C.C.Z.Z.C.C.C.( % % 5.M :.D E L ^ } @.! Q W ",
"' } E s } ~ 0 ~ ~ ` U ` ` $.$.` ' ` e.e.e.p.S.j.S.G.E E h.j E E j $ $ $ $ $ $ $ $ $ $ D V.V.B...% &.C.H 5.V ;.Z.S ) P ~ ~ E { { ",
"I Q O.E } P q ~ ~ _ I 0 U ` $.$.E E ` e.e.e.p.d.f.S.F.h.P j U U j g U E E ] W g Q Q Q ) $ $ % % %.C.C./ 4.y.m :.N.S P P P g [ { ",
"] ` > g ` I I I I E { ) E Q W I ` _ E E e.e.e.e.a.d.r.T T s U I U U I I I E E W W Q Q Q ] $ ( &...B.N.G % u u 9.q.z.Z ~ ~ U R I ",
"] ` k g ` ^ ^ I I E E } { ` I I Q _ _ _ _ ~ e.e.e.e.U R w s ^ ~ Y k k W I E E E E P I Q Q s H N.%.=.( u C :.Z.0.w.9.l f ~ O.I R ",
"I g ` ` ` ^ U ^ I ) ) E ` ` ` ! I E _ _ W I ~ { ~ a _ _ s U T T U U W ] ` W E Y U Q Q I I P E ( v.v.G %.B.Z.Z.Z.0.l $ s d I Y 3 ",
"3 f j f ` I ~ @.^ E ) E ^ ` U ` ` E P E I I ~ U I _ _ _ T w w ) U k ] ` W g d L I P P I L E I $ # x x l -.Z.Z.b.C $ : s ~ 5 5 { ",
"a k a U ^ Q g { { O.E R @.^ ^ ^ ^ U P ,.` R ` ! ` [ } ! ! Q Q Q I p a Q a d L Q L P L I Y v b b 1.8.8.x ..:.c.A $ p s 1 W ` k k ",
"R ^ ^ U ^ { g g Q O.O.R W ^ <.^ ^ >.I I I R ~ ` ~ g { W g Q ' Q Q s s s s d g g g d d d m 4.u.y.2.z $ $ v m b * $ W > p 1 3 3 I ",
"9 a U 5 ^ W g W { 0 5 +.q ^ <.^ <.>.I U ` ` ^ R R Q E g g E ' ' I a w s a g E E g d d N u.t.6.3.3.m $ $ 5.u.u.2.* $ W p W L 3 3 ",
"W I 0 I I W W W W R E O.0 0 ^ <.^ ` ` ` ` R R R ` ! d ! { Q E ' P s ! $.^ ' ' E E W I V t.N $ M M $ $ $ 5.u.u.u.2.z E W W I ` k ",
"@.` ` ` I I Q I I O.O.O.O.` j ` ` ` R ` R I I ~ } ! s ! ! } } ~ } W ! O.{ } ! w a E E b N $ $ $ $ $ $ $ 6.u.u.u.u.v $ Y Y I U 5 ",
"Q E _ ` P I I I I p   O O 2 2 k _ ` R s R } ~ I ~ ! ! ! ! } } ~ ! { { d Q W s ! s g g $ $ $ $ $ $ $ U $ B t.u.u.6.c $ Y W I I I ",
"@.P ! ' ` ^ O.O.O.p p p O.` P 2 2 s R R R O.^ ~ ) ! ! ! ! ~ ! ! j g d d d E } } E ` ` L $ $ $ $ $ $ d d $ N 4.4.c $ $ $ Y U L I ",
"E P E P L I O.L U p O.O.O.` ` ` ` ` s R ` ^ } } } s < ~ ! j ~ ~ ! Q d E ! E } } } ` E y r r y $ $ g I U d $ $ $ $ $ $ $ E I I I ",
"f ' ' f ; 2 ) ~ 5 5 I U ) 2 2 P ` ) ) : : 8 R R 8 d ! w L w E { d R _ _ _ { { U ] ) y K o.o.X.y $ g g E E I $ $ $ $ e r 6 E I I ",
"$.' ' f ' ^ ~ ~ g U U U 5 2 I ` k f ) ) d 5 O.O.R ' ' E d d ! [ d d _ _ R { { U { $.t r e K r h #._ g R R ` I $ h K o.o.% ^ I L ",
"j f ' ' ] g 3 g g 0 ) ) w L ` ` ` g f ) ) Y O.R R ] ' ' E d E d d _ T R R U [ { { I _ ^ ^ R R _ #.E g g R ` I $ X.o.o.o.6 I ^ E ",
"f ; g ' f 3 g Q ~ ) ) I 0 P ` L ` ) f f g R 3 8 Y E d E d ! [ f d R s _ R 5 U { U I U P I R U R Y d d g ` ` I $ h e e e % I E Q ",
"O.>.5 ! Q : ] ] ' +.} @ f ! ! ! ! R R g a { { ! { { Q W g T @.^ ^ } d ! ~ s R s s U ` ` U ` ` E g ) ~ Q 9 { i o   q P j Q W I U ",
"O.>.>.5 W k f k : g @   f ! f ! 2 g g 0 R { { i s E [ d d T T T T E d ~ ! ` R w R U 0 ` ` ` ` ` E ~ ~ 9   o { { { P j 0 ! W W W ",
"O.5 Q 3 W ] ] : g @.f @ f f s f 2 q j g R E R i s d ! d ! @.*.^ T ~ E d d T ` ` ` _ 0 0 ` g g ` E ~ 9 ~ ~ o p { { 0 ! ! ! W ` ` ",
"U Q W >.W f k : : O.O.f } ! 2 2 f T R R f s R ! [ E d g E _ ^ @.@.! } ~ g s s R a I ` U Y W g ` ) ~ ~ 9 ~ { p { { j ! ! ! I E ` ",
"; ) ) i O : p Q ~ 3 2 j g ! d ! E ` Q _ ` { ! R { U I I } ] U I ] U P U I j k 2 2 i ! E 5 I I ` ` U U _ q ~ ~ 3 g ' ' j ' ` I I ",
"-     o q ~ ~ Q ~ g ~ ~ g d ! [ E Q ` ` W s ! { { { } } I ] ' 3 2 U 2 U { ` ` _ ` ! 0 9 E I I I U U _ _ 5 2 ~ Q g j ; L ' ` ` ` ",
"' 0 i ) ) ~ s ) d ~ ~ ~ ) E d d d W W W W s R ! s U k U 1 ] ] 3 2 2 I { { ` k j I R 0 @.@.I ` ` I U _ U w ) ~ ) ~ g g g g U ` 8 ",
"' ) ) ) ) ) ~ ~ s f f f d ! E ! d I I W ` ! E ! ! 1   1 I I I I I I { I 2 j P k 2 E E i a 5 I ` _ _ _ U U f Q ~ j ' ' ' f ` T I ",
"' ! } E E ) #.Y U ^ ~ ~ ~ w E ' R U I a 0 I U U O.{ I O.U - - I k g R W g T ` ` ` ^ ^ 2 f i s R T I 0 ^ I 9 ) ) ) [ ~ P ~ { R R ",
"E W } } d U ) ) U a a a ~ R s s E I I Q P T U U 2 U { O.{ I k $.L g g g R U U U U ^ f 2 f f s 3 s I 0 0 I 8 8 ) ) P P [ ! R { R ",
"E Q } W s Y ) #.#.a ^ *.! d ' R Y I ^ ^ I U U } U 3 5 3 { #.k k #.g g E W U q P ' g g g ~ T U s s 0 ^ ^ ^ 9   9 ) [ { ~ { [ R { ",
"R W } W E #.#.) #.~ *.*.*.E ' ' ' I I I ^ } 2 T U 5 U U U #.#.$.#.W E ' L P P T ` Q ^ ~ g s T 3 s 0 I I U . . ) ) E ~ P ! { q R ",
"` _ q _ _ { { { { ! ! ! q Y a _ ) w w w O.i + ' ' g g f g a ` U a E E E E E E E E i s ) i f ` `   q R 5 0 5 E +.E P I ' ' j @.k "
};
