/* XPM */
static char *result[] = {
/* columns rows colors chars-per-pixel */
"64 64 198 2 ",
"   c black",
".  c #10130F",
"X  c #0E1419",
"o  c #1A171B",
"O  c #270A03",
"+  c #26140F",
"@  c #311108",
"#  c #3A1408",
"$  c #21211E",
"%  c #35311F",
"&  c #1C1622",
"*  c #281C2E",
"=  c #1E2023",
"-  c #242424",
";  c #282726",
":  c #2C2B2B",
">  c #352E2B",
",  c #2C2D34",
"<  c #333333",
"1  c #3B3939",
"2  c #421408",
"3  c #421908",
"4  c #421910",
"5  c #4A2110",
"6  c #522410",
"7  c #532516",
"8  c #552A19",
"9  c #5A2C19",
"0  c #41351C",
"q  c #5A3119",
"w  c #632D19",
"e  c #633219",
"r  c #473F27",
"t  c #403C36",
"y  c #633521",
"u  c #663B23",
"i  c #6B3C21",
"p  c #6B3C26",
"a  c #733E23",
"s  c #79621C",
"d  c #504A2F",
"f  c #6D442B",
"g  c #6F492D",
"h  c #734121",
"j  c #74442A",
"k  c #7B4529",
"l  c #774A2C",
"z  c #7B4A2B",
"x  c #64582D",
"c  c #7D4D31",
"v  c #7F5131",
"b  c #736A37",
"n  c #7B7136",
"m  c #3D1E40",
"M  c #3C3640",
"N  c #123161",
"B  c #4B3B55",
"V  c #653C6F",
"C  c #55544B",
"Z  c #6A6758",
"A  c #756F5C",
"S  c #655660",
"D  c #796C68",
"F  c #804C2D",
"G  c #834E31",
"H  c #845232",
"J  c #895534",
"K  c #8C5935",
"L  c #8C563A",
"P  c #8C593A",
"I  c #925D3C",
"U  c #94613D",
"Y  c #98623E",
"T  c #877B38",
"R  c #946142",
"E  c #9B6642",
"W  c #9C6943",
"Q  c #A36C44",
"!  c #A46D4A",
"~  c #A5724A",
"^  c #AC754B",
"/  c #AD794A",
"(  c #AD7552",
")  c #AD7B52",
"_  c #B57D52",
"`  c #837967",
"'  c #AF8609",
"]  c #A5943A",
"[  c #AB9A3C",
"{  c #DCA802",
"}  c #D9C13D",
"|  c #8F8449",
" . c #B58252",
".. c #BD8652",
"X. c #B5835A",
"o. c #BD865A",
"O. c #BD8A5B",
"+. c #BFAE4D",
"@. c #918F72",
"#. c #978875",
"$. c #BD8D63",
"%. c #C2B14E",
"&. c #C59363",
"*. c #CE9A69",
"=. c #DEC555",
"-. c #FFE242",
";. c #FFE34A",
":. c #FFE85F",
">. c #FFED7B",
",. c #7D25B4",
"<. c #0E49A7",
"1. c #3B6AAF",
"2. c #6E428C",
"3. c #734393",
"4. c #7F46A5",
"5. c #0050C8",
"6. c #0066FF",
"7. c #0569FF",
"8. c #0B6BFF",
"9. c #126EFF",
"0. c #1571FF",
"q. c #1B73FF",
"w. c #297AF3",
"e. c #2275FF",
"r. c #257AFF",
"t. c #2B7CFF",
"y. c #4177C8",
"u. c #447CD1",
"i. c #8D39BA",
"p. c #8C6F97",
"a. c #9C4DD0",
"s. c #AE53D6",
"d. c #A74CE2",
"f. c #B353F3",
"g. c #BB55FF",
"h. c #C05CFF",
"j. c #CD6DF8",
"k. c #7994BC",
"l. c #2E80FF",
"z. c #3883FF",
"x. c #5889D3",
"c. c #4788FF",
"v. c #4689FF",
"b. c #538EFF",
"n. c #4B98FF",
"m. c #5497FD",
"M. c #5C93FE",
"N. c #6196FF",
"B. c #6699FF",
"V. c #6A9DFF",
"C. c #4AA2F5",
"Z. c #5FA4FE",
"A. c #68ABEE",
"S. c #6CA3FF",
"D. c #67AAFB",
"F. c #75A8FF",
"G. c #6CB4FE",
"H. c #6ABAFF",
"J. c #78B3FC",
"K. c #73BBFF",
"L. c #7BBEFF",
"P. c #7EC2FF",
"I. c #938D87",
"U. c #B19B85",
"Y. c #ADAA85",
"T. c #B3AB87",
"R. c #C4B994",
"E. c #D6B79A",
"W. c #E6B684",
"Q. c #DBBEA1",
"!. c #90C9AD",
"~. c #CEC78C",
"^. c #FFEF86",
"/. c #FCEE8E",
"(. c #DBD6A4",
"). c #E9C9A9",
"_. c #F6D4B2",
"`. c #E8E4A9",
"'. c #FFF6A7",
"]. c #F3EEB4",
"[. c #F9F2B8",
"{. c #FEFABC",
"}. c #81A6DE",
"|. c #96B7E8",
" X c #82B9FF",
".X c #89BCFF",
"XX c #D787F2",
"oX c #E28EFF",
"OX c #EA98FF",
"+X c #85C3FF",
"@X c #8CC4FF",
"#X c #8FC8FF",
"$X c #91C6FF",
"%X c #94C9FF",
"&X c #99CCFF",
"*X c #9FD2FF",
"=X c #ADD9FF",
"-X c #E2D9CF",
/* pixels */
"Q ^ Y H ^ ~ ~ H ~ O.W z z h K K K J J J R ! ! ! ! f @ i Q J e y J G 9 G G ! G 9 9 u u 3 i @ y I y a a a a G 4   G 9 c 9 9 y X.) ",
"P Y ^ Y Y I U U U W W W W e K / ^ U J l J ! ! u O h Q Q Q y i ^ J G G G G ! ! 9 9 i L u L y @ I y 6 6 I a 4 4 4 4 9 z 9 l P P J ",
"P ^ ^ ^ H U ~ U H z z W E ^ K K K J J l R ! ! u i Q Q Q ! ^ J K ^ G ^ G H ! ! G ~ P P u L e y y I 7 6 I j 4 ....4 z z z W P y y ",
"~ $.U / U ) *.( ( W P Q  ._ j j f K J J ~ O.O.j W X.X.K _ E G G  .j E E j ) j _ ) _ i i i 5 5 j j 9 9 G J P 4 P 4 3 c 3 c 8 H v ",
"~ U ^ U U O.) ) ) ~ P P Q _ R R j J J i ~ j W Y E X.L P P G E G W O.R E j j j X.j h P P I j 5 j j 9 q 9 ( 5 5 P p _ _ z l 8 H ) ",
"J U U U U / *.O.) W W P W _ _ I f K J i i j g O.O.X.e X.X.E  .E H Y g E j j f W.) i  .i i W j E j 9 ( q q 5 P P 5 z _ c l X.H H ",
"~ $.U / ~ ) *.*.*. . .~ Q _ Y j h K K K ~ O.O.O.O.P X.X.P  . .E Y W Y j j j f j l i e I I W E j j H ( H 9 u P P p 3 z z c H 9 9 ",
" .~ $.U ) ~ *.*.~ ~ ~ ~ ~ o.E k z H v H H l l ^ l P &.&.I ) ) R Y z U U z v v v ) ^ 3 ~ ~ F G 8 9 ~ ~ J ^ ! ~ ! ! i i i p 9 G c ",
"W U $.$.~ c c c ~ R G Y ~ E z z Y h H W i ~ z 6 ~ I &.R 9 z z U U U U z e 6 )  .) ~ f ~ j G G 9 8 ~ ^ e H ! 4 4 ! U i h U ~ ~ 8 ",
"E ~ I $.$.l c c ~ U G H U z Y o.O.H H W e ~ ~ v l   9 P I k z z U z I U U H v v v ~ j ~ ! 8 G G 8 w e w H l G l ! R i i U v v v ",
"X.$.~ U ) ~ c c v H U R Y z W o.W i W Y J ~ l l ~ R I I I z k k z U z y F 6 6 H 6 j j j a 9 G G O H w H H 4 l j ! Y O.U i 9 ~ v ",
"o.X.R P R ~ H H ~ W l W W k W k z / / J J H H  .E W J e H J q K _ I k I Y e F a F G G G w L L 9 9 F G F F _ c 7   2 W W p U X.X.",
"U R X.X.P ~ J v H W k $.W K W W W / / / 9 E _ E H H G H H _ q q q k k k k z I I I F ~ w w L 9 9 L F F ~ ~ G c 7 7 # 2 p W U h U ",
"u e U X.I H &.^ ~ $.W z z J K W Y H / / / H H E E H H W W  .q q q k U Y U G I I I ~ ~ G G L L L o.F 6 ! z c ^ G G W h W W Y h X.",
"U i h P p G ! &.&.$.z z W E K k J J H J 9 H F Q E E W W Y K _ _ J ( Y ( ( z I I A.~ ~ F ~ L o.L o.F F ~ c ( ^ l c W W h i h h U ",
") E j f a i i i i v H W W K K K ^ Y F F e 7 j j 6.6.6.6.Y Y J J J / v v v e e H H F Q F Q ! ! L ! 6 6 6 G ! _ $.! W J W W P a a ",
" .R f j j i E E E H H W W K K ~ ~ E 6.6.6.6.6.6.7.q.q.q.q.6.6.6.J c c 6 c e e H H L.E e z ~ P j ! _ H 6 6 P P P P X.W H H I ) I ",
"h f W W E H G E W e H y v ~ ^ K K 6.6.6.6.6.M.N.N.B.V.B.B.M.M.c.6.6.) G G G V.w H +XE E z j ~ P k H F H _ X.X.P P X.H H H P )  .",
"I W O.O.E G E G H F Y H y h K 6.6.6.q.B.B.B.V. X X%X@X@X+XP.K.D.D.b.9.6.6.e ~ G.+X+XP.E H P P P k G H H H ! W K X.X.W H H P )  .",
") W P W _ X.X.I I O.J H 6.6.6.6.q.0.N.V.S.&X%X%X%Xu.u.u.|.y.y.y.H.y.n.t.7.6.o.W @X%X+XP Q H H H H I ~ ~ P z z l U c $ E E ( U P ",
"R _ _ P Q ! I ! I Q G H 6.6.t.9.M.B. X$X&Xw.w.u.u.u.x.x.x.u.1.1.1.y.y.y.n.z.6.S.L.S.K.Q  .E E H Y ~ ~ ~ $ U ) ) k : n c R ( U I ",
"z Q _ _ _ ! I ! ! G H 7.6.6.0.b.V.F.&X&Xw.w.u.x.x.k.k.1.1.1.k.u.u.u.1.y.y.x.x.l.K.K D.W Q W E R o k z @.d U = n | `.-.; E l z R ",
"I P _ _ 6.6.6.6.6.6.6.8.8.t.N.B.&X&X&Xx.w.u.u.1.1.u.x.x.y.y.x.x.k.1.u.|.y.x.x.x.G. . .! P H ) - A P C {.C @.1 b {.;.[ < _ I I I ",
"( E R E / Q O.E 6.6.6.8.9.b.B.F.&X&X*Xw.x.u.x.1.u.u.x.u.y.|.y.x.y.y.u.u.k.x.1.x.D.7.E G Y W W < {.R.Y.`.Y.{.1 ^.'.-.d ] Q Y ~ ~ ",
"E E G E  .O.O.W 6.6.6.0.t.B. X.X&X=Xw.w.k.k.6.6.x.x.x.y.u.u.y.x.y.y.y.y.k.x.x.x.D.Z.Y Y  .O.Y < ~.T.T.C {.'.d ^.+.A ~.} l H H U ",
"6.6.6.6.6.6.6.6.6.1.1.9.N.B..X&X=Xw.w.u.u.k.k.k.|.|.y.y.|.u.y.u.y.u.|.u.y.x.x.x.x.B.Y  ._ Q z W D ].d ].:.>.1 n ].'.>.} Q ~ R ~ ",
"D.Z.n.n.n.n.1.1.1.m.1.S.J.J.$X&X&Xw.u.}.|.x.y.|.|.y.1.y.1.1.}.y.u..Xu.}.}.}.|.1.|.1.m. .F k k z Z Y.@.(.} ~.^.{.T.>.-.< ; ~ H I ",
"1.1.1.1.1.1.|.|.1.|.w.w.w.w.w.w.w.e.k.I.x.y.x.y.y.y.y.|.}.}.}.y.A.I.}.|.k.}.1.1.1.1.K Y k I z - `.(.@.(.=.[.C ` ^.-.| /.d G G E ",
"|.|.|.|.|.|.y.y.|.|.w.w.w.|.|.|.|.y.y.y.y.x.y.|.y.x.y.u.}.}.1.y.}.u.}.y.k.|.}.1.1.1.1.M.W W v P A < (._._._.).+.-.x >.d z i E E ",
"|.1.1.1.1.1.1.1.1.1.1.1.1.|.|.|.|.k.y.}.y.}.}.}.}.y.y.}.k.|.1.y.|.}.}.y.y.k.}.1.1.u.u.z W P X = P , _._.U.U.).S %.>.| T l i E E ",
"1.y.y.y.k.|.|.|.1.|.|.1.|.|.|.}.}.}.y.y.}.}.}.}.}.|.y.u.k.1.1.y.|.}.}.y.y.u.}.|.1.y.y.1.l X < - c E #.E.-X` _.).b '.T : . G G i ",
"1.y.x.|.|.x.x.x.x.1.1.1.A.}.}.}.}.y.y.y.y.1.k.}.}.y.}.}.}.}.}.y.x.x.u.y.y.k.6.}.1.1.y.1.K U 1 #.X o D !.-X#.Z Z C b G G E Y k I ",
"1.y.x.x.x.x.x.k.k.|.6.1.}.y.}.}.}.y.}.y.y.y.}.y.y.y.}.}.}.1.1.1.y.x.u.y.y.|.6.}.1.1.y.1.K $ A J 5., T.).D V OXh.a.< E _  .Y Y U ",
"y.x.1.x.x.x.1.1.1.1.6.1.}.y.y.}.}.y.}.y.y.y.y.y.y.}.}.1.1.k.k.1.y.u.u.y.y.|.|.}.}.1.y.1.1.$ 1 < < - 1 t 1 ).C oXg.f.; E E Y ( ) ",
"y.x.u.1.|.x.x.k.k.|.u.|.}.}.y.y.y.}.y.}.y.}.y.y.y.1.w.y.|.1.|.u.y.|.u.y.k.}.}.}.}.1.y.Y 1.H > Q.5.p.I.I.)._.t oXj.3., G G l ) ) ",
"y.x.u.1.|.|.x.x.x.x.1.u.u.1.y.y.k.y.y.}.}.y.y.y.y.}.u.y.|.y.u.y.y.|.|.|.}.}.}.x.1.|.y.1./ I > Y o G E.).E.< d.h.a.< : E E J J J ",
"y.y.u.1.1.1.x.x.|.1.1.1.1.}.}.y.y.y.y.k.u.y.y.y.}.}.y.y.|.1.y.1.u.|.1.}.k.u.u.|.1.J.y.1.Y k G I U E > 1 Y H > B B <.N j E ) K J ",
"y.y.y.y.u.u.1.x.x.x.}.}.}.1.1.x.x.x.y.y.y.y.y.y.}.}.y.u.u.1.u.|.u.|.}.6.|.|.u.x.1.1.1.x.H G I k I ) _ _ m V 2.2.2.1 ; j j J J e ",
"y.y.y.y.y.y.u.x.1.x.u.}.}.}.}.}.}.}.}.w.w.|.y.y.}.y.y.1.u.|.|.|.6.}.6.u.k.y.y.1.x.x.x.N.H I G G I F E s.j.j.h.h.g.M < : ; e e ) ",
"u.u.u.u.u.u.u.x.x.x.x.x.x.x.+Xu.x.x.x.x.u.u.y.y.y.}.y.}.u.u.|.6.k.}.u.|.y.y.y.L.x.H k J J F I I E o i.d.XXOXXXh.a.< < < < ; v v ",
"u.u.x.u.u.u.u.u.t.b.v.c.S.S.@X%X%Xx.x.1.1.}.}.}.}.}.y.}.}.u.k.k.}.}.}.}.y.y.y.B.x.k B.B.Y F G Q L & p.4.> : & * * , , < < < o H ",
"i i J e R U z 6.6.7.6.z.b.B.V.#X$Xx.x.w.w.}.}.}.}.1.y.}.}.u.|.|.u.}.|.}.}.y.}.}.F.V.k A.I I G I G & < < < o I K I ,.d., < < ; q ",
"I H i J H U U U 6.6.6.7.q.b.S.S.+X@X@Xx.|.1.}.}.}.1.y.y.}.}.}.|.}.}.1.}.}.}.}.}.A.l.H J H G G G G < : , < k K I I I U : s x ; H ",
"X.~ ~ ~ G H 6.6.7.6.8.q.e.e.b.S. X@X@Xx.x.w.}.}.}.}.}.y.}.}.}.}.}.|.}.}.}.}.}.}.G.I I A.z L L l G { { ' $ P z H L I k 0 ' ' ; e ",
"E I ~ ! G H H H H 6.6.6.6.7.N.M.S.@X%X@Xx.w.1.x.x.}.}.y.}.u.}.}.}.}.}.}.|.}.}.w.H.k D.A.K P L L % d r r K H k z K ! I I K H H H ",
"X.G I ~ ! W  . . .j g 6.6.6.9.l.N.B..X%Xx.x.1.1.|.|.x.y.y.1.}.1.}.w.}.}.}.}.A.n.H.^ G.z z P l l I Y F F k k H k H ! I K K J H H ",
"I G R G G H  .H J 6.6.6.6.6.6.6.v.M.B.S.&X&Xw.1.1.1.x.x.y.|.}.}.}.w.}.}.z.6._ _ L.L.K.P ~ P P l e k G J k H K I H I K I K H H H ",
"z ^ ^ z 3 9 E E e e H J Q 9 9 6.8.6.e.B.B.F.F.w.w.w.w.w.y.w.w.}..XS.t.0.7.( ( D.K.P.K.H Q ~ P P L F F K I H H H G K K J Q I H G ",
"O.^ ^ l / Y W E z J J H a w F 6.6.6.r.c.c.v.B.B.F..X.X.X.X.X.XS.v.z.6.6.L ) ) J ) H.O.Q H P P P o.! k I P ~ J H H K W K K E H H ",
"z c ^ ^ / l q z z i Q Q e G ~ ~ ~ z 6.6.6.6.7.7.e.B.B.B.B.7.7.7.6.! P P P J C.) ) K.W W Q P P ~ o.I k k P ~ H H ~ K W E k G Y I ",
"l 4 l ^ l q v Y E Q Q H i G ~ G ~ Q l z z P y 6.6.6.6.6.6.R ) c k L j ! P e L ) K H.H H H L P P K F z z ~ ~ H e e k K K k H I W ",
" .&.e Y U 6 / / ^  . .3 l R R R R P P z e  .) U ( ) I I k L X.W ! _ k Y Y j P a f J ~ ~ J ~ ~ K z Y W Y u ) f +   i G c Y U H H ",
" .&.&.e U l z l 5 l #   l R l R 9 z z p P ) ) j j Y ) k k L P L L Y k I R ~ L j P J i ~ ~ ~ ~ ~ I E E u   O ) ) ( F c i R U U U ",
" .e U e U / / 5 c  .l # l l j l 9 i l l P R P g j k R k I X.X.~ L Y Y k k P ~ ~ ~ ~ i i ^ z l ~ I E u E E + f ) ) i R R R Y ~ ~ ",
"J U U &.U l v 5 5  . .c  .R 9 9 l L P P z j R P ( R k k U W ! X.X.R _ Y k j j P f J ~ J K U z ~ ~ Y Q u E _ f ) ) G R R R H U ~ ",
"4 Q Q f + 5 l Y W 9 9 z z I k R R ~ U ~ ~ ( P R ( H J H _ / H H / H H J H H c 9 8 h P U e H H ~ ~ J J ! i E E 9 c ^ ^ c ^ ~ H H ",
"3     @ p Y Y E E z E E z k I ) I Y ~ ~ U j P ) ) _ _  .H / / 9 9 J q H ) ~ ~ ~ ~ P f h R H H H H J ! ! i 9 E Y z z 4 z / ~ ~ ! ",
"^ f i Q Q Q j E j E E E E R k k k U U U U j R P g H H H 8 / / q 9 9 H ) ) ~ c G c U e X.X.H ~ ~ H J ! J e Q E Q E c z z c J ~ y ",
"^ Q Q Q Q E Q E j z z z z R R I k H J Y ~ P R U I 7   8 H H J H H H ) H 9 c G v 9 U U p u e J ~ ~ ! ! J K z Y E z ^ ^ ^ c ~ J H ",
"^ Y _ Y I ! ..K J E E E E a I ^ I H J e i J J J  .) J X.K # 3 v v z U P z L ~ ~ ~ W W 9 l j j K L H i W J u Q Q Q ( E G R ) P P ",
"P U _ _ j J Q ! J h h h E P j a K J H W H J J J 8 J ) ) ) H v o.H z k z P J H L H W z 9 z j j q j H i i J y u Q Q G G ( R P ) P ",
"I Y _ U j J Q o.o.h E $.E j ^ I I H W W H J J _ L e e e / o.v v o.z z P U J y J ~ z z z W L L j j i W W W e   y Q ) ( E ) ( P ) ",
"P R _ U U o.o.Q o.W $.$.$.I ^ ^ ^ H H H W _ 9 J J e J J J o.o.o.o.I I ^ k J J J ~ W W W z j L 9 j i H H J O O Q Q I R G R ) h P ",
"~ ! p ! ~ ( ( ) ) R R R p K a ! Q a a a  .f @ ^ ~ z z l z h ~ K h I I Y I I I I I j f Q f j ~ ~   i P e i e I  .I H H ^ ^ c X.v "
};
