/* XPM */
static char *result[] = {
/* columns rows colors chars-per-pixel */
"64 64 189 2 ",
"   c black",
".  c #260A03",
"X  c #291008",
"o  c #311108",
"O  c #3A1408",
"+  c #333334",
"@  c #3B3839",
"#  c #3B3A39",
"$  c #421408",
"%  c #421908",
"&  c #421910",
"*  c #4A2110",
"=  c #522310",
"-  c #532516",
";  c #542919",
":  c #5A2C19",
">  c #5A3119",
",  c #632D19",
"<  c #633219",
"1  c #423E2F",
"2  c #413F3C",
"3  c #633521",
"4  c #663B22",
"5  c #6B3C21",
"6  c #6B3C26",
"7  c #733E23",
"8  c #6D5A1F",
"9  c #7D641B",
"0  c #484537",
"q  c #595336",
"w  c #6E442A",
"e  c #734121",
"r  c #734329",
"t  c #7B4529",
"y  c #774A2D",
"u  c #7B4A2B",
"i  c #7C4D31",
"p  c #7F5131",
"a  c #6C6337",
"s  c #796F39",
"d  c #3D3541",
"f  c #263A58",
"g  c #213D68",
"h  c #423847",
"j  c #4B3956",
"k  c #503A5E",
"l  c #613E78",
"z  c #4A4948",
"x  c #544E49",
"c  c #57564D",
"v  c #5A554D",
"b  c #585654",
"n  c #625E43",
"m  c #635B53",
"M  c #79724A",
"N  c #696658",
"B  c #756B5C",
"V  c #616167",
"C  c #786C60",
"Z  c #797971",
"A  c #8E6F15",
"S  c #804C2D",
"D  c #834E31",
"F  c #845231",
"G  c #895534",
"H  c #8C5935",
"J  c #8C563A",
"K  c #8C593A",
"L  c #925D3B",
"P  c #94613D",
"I  c #98623E",
"U  c #897931",
"Y  c #946142",
"T  c #9A6542",
"R  c #9C6A43",
"E  c #9E764F",
"W  c #A26C44",
"Q  c #A46D4A",
"!  c #A5724A",
"~  c #AC754B",
"^  c #AD794A",
"/  c #AD7552",
"(  c #AD7A52",
")  c #B57D52",
"_  c #857969",
"`  c #B28C10",
"'  c #96883A",
"]  c #A5953C",
"[  c #AA953A",
"{  c #B7A43D",
"}  c #CA9A04",
"|  c #D7A504",
" . c #EEBA05",
".. c #CBB53E",
"X. c #D4BD3F",
"o. c #FFC600",
"O. c #FFC805",
"+. c #FFCA0B",
"@. c #FFCE13",
"#. c #FFD21C",
"$. c #DCC43F",
"%. c #FFCE26",
"&. c #FFD523",
"*. c #FFD42A",
"=. c #FFD92D",
"-. c #FFD537",
";. c #FFDC34",
":. c #FFDE3A",
">. c #FFE03E",
",. c #8D844B",
"<. c #A69640",
"1. c #B58252",
"2. c #BD8652",
"3. c #B5835A",
"4. c #BD865A",
"5. c #BD8B5A",
"6. c #86846A",
"7. c #978874",
"8. c #BD8D63",
"9. c #A5917D",
"0. c #B79174",
"q. c #A5A27F",
"w. c #C59463",
"e. c #CE9A63",
"r. c #CE9C6B",
"t. c #E0C948",
"y. c #F5D941",
"u. c #FEDC47",
"i. c #FFE243",
"p. c #FFE44C",
"a. c #FEE554",
"s. c #FFE65B",
"d. c #FFE85F",
"f. c #D0C164",
"g. c #EDDF7E",
"h. c #FFE761",
"j. c #FFE965",
"k. c #FFEA6C",
"l. c #FFE875",
"z. c #FFED7C",
"x. c #134591",
"c. c #0C49A6",
"v. c #1A59BC",
"b. c #7A4B95",
"n. c #7E46A4",
"m. c #0050C8",
"M. c #835E8E",
"N. c #8F5EA8",
"B. c #956AA0",
"V. c #A975B6",
"C. c #9C4ED1",
"Z. c #A956DC",
"A. c #B36BD6",
"S. c #BB58FC",
"D. c #B964E8",
"F. c #CA6AFF",
"G. c #878684",
"H. c #96938C",
"J. c #AD9782",
"K. c #A8A481",
"L. c #B8A78B",
"P. c #B7B48C",
"I. c #A5A9B9",
"U. c #C7BF81",
"Y. c #D5B99D",
"T. c #E6B684",
"R. c #CBC799",
"E. c #F9EA83",
"W. c #FFF18D",
"Q. c #F7ED9A",
"!. c #FFF294",
"~. c #FFF39B",
"^. c #DBD7A4",
"/. c #C4D5B1",
"(. c #E9C9AA",
"). c #F6D4B2",
"_. c #FFF5A4",
"`. c #FFF6AB",
"'. c #F1ECB2",
"]. c #FFF8B4",
"[. c #F9F5B9",
"{. c #FFFABC",
"}. c #D98BF2",
"|. c #E998FF",
" X c #F5DDC6",
".X c #FDF9C3",
"XX c #FCF8CA",
"oX c #F9F6DA",
"OX c #DAE8E1",
/* pixels */
"W ~ I F ~ ! ! F Q 5.I u u e H H H G G G Y Q Q Q Q 5 o 6 W G 3 < H D : D F Q D : : 4 4 $ < o 3 L 3 7 7 7 7 D &   i : u : : 3 ( ( ",
"K I ~ I I P P P P R R R R < H ^ ^ Y G y G Q ! 4 . w W W W 3 3 ~ G F D D D Q Q : : 4 K 4 K 4 o L 3 = = L 7 & & & & : y : u K K K ",
"K ~ ~ ~ F P ! P F u u R R ~ H H H G F p Y Q Q 4 5 W W W Q ~ G G ~ D ~ D F ! Q D ! K K 4 K 3 3 3 L = = L r & 2.2.& u i i R K 3 3 ",
"! 8.P ^ P / r./ ( R K W 1.) r r r G G G ! 5.5.r R 3.1.L ) R D D 1.r T T r ( r ( ( ) 4 e 5 * & u r : , D G K & K * % u % y : F F ",
"! P ! P P 5./ ( ^ E K K W ) P Y e G G < ! r I I I 3.K K K D R D T 5.Y I r y r ( r e K K L y & r r : : : ( * * K 6 ) ) y y : F ( ",
"G P P P P ( r.8.( W W K W ) ) L w H H w e w y 5.5.3., 3.3.R 1.T S R r R r r r T.( 5 1.5 < I t R r : ( > : * K K * u ) i i ( J F ",
"! 8.P ^ ~ ( r.r.r.1.1.W Q ) L r w H G G ! 5.5.5.5.K 3.3.J 1.1.T R Y T r r r y w y 5 < L P R R r r G ( F : 6 K K 6 % y u i F ; ; ",
"1.! 8.P ~ ! e.e.! ! ! ! ! 4.T u u F F F F y p ! y L w.w.L ( / I I u P P y p p p ( ~ % ! ! F D : : ! ! F ! Q ! Q Q 5 5 5 6 : p D ",
"T P 8.8./ y i y ! P D P ! T u u T 5 G R e ! i = ! L w.L = u u P P I P u 3 = ( ( 1.W r ! r D D ; ; ~ ! , F Q * & Q I 5 5 P ! ! : ",
"T ! P 8.8.i i i ! Y D D P u T 4.5.F F I 4 ! ! y y   : L P u u S P y P P P F F p p E r ! Q : D D ; < < < F t i r Q I 5 5 P p p p ",
"3.8.! P ! ! i i i D P Y I t R 4.I e W I F ! u u ! L P L P t u e u L u < u = = S = r r r t ; D D . F < G F & y y Q I 5.P 5 : ! F ",
"4.3.L Y Y ! F F ! R u R R t R t u ^ ^ F F F F 1.T R H < S H > G ) L t Y T < S 7 S F D S , J J - : S S S S / i -   % T R 6 P 3.3.",
"P P 3.3.Y ! F F F R t 8.R G R R R ~ ^ ^ : R ) T F F F D S ) < > > t t t t S L L L D ! , , J : : J S S Q Q D i - - $ $ 6 R P e P ",
"5 5 K 3.L F w.! ! 8.R t u G H R R F ^ ^ ^ D D R R D F R W ) > > > t L L I S L L L ! ! S D J J J 4.S = ! i D ~ D i R e R R I 7 3.",
"P 5 5 P 5 D ! w.w.8.u u T R H t H F F G : F F R R R R R W F ) ) G ( I ( ( S L L L Q ! G ! J 4.J 4.S S ~ u ~ ~ i i R R 7 w e e P ",
"( Y r w 7 4 5 5 5 F F R R H H H ! R u S < - 7 r r G G G I I G G G ( i F i < < F G S I S W Q Q J Q = = = D Q 3.3.Q R F R R H 7 7 ",
"( R w r w < W R R F F R E H H ! ! T S S R 7 L L L S S u H H H H G D i = i , < D S T R < u Q K r Q ) G = = K K K K 3.R F F K ( P ",
"e r R R Y F D T I < p < p ! ! H H T I W T L L L L L P P P I H ^ G i ( D F F < < G S T R F r ! K r D G S ) 3.3.K K 3.F F D L ( ( ",
"L R 5.5.R D W D S p I p < e H ! H S S S S L 7 t L H I H P R R I ^ ( i = = , Q F , < u R S K H K r S S G F R R K 3.3.R F F K 1.( ",
"( R K R ) 3.3.J P 5.H F F 5 F F R Y ( Y F t t S F G t S u S I S D L 5 L L R 4.W F W K K W F F F F L ! Q L u u u T i ) Y Y / P P ",
"P ) ) J W Q L Q L W F F G S F D R Y F F I G G u t L L G t D D D I 5 5 K L Q F F F K K W 1.R R i R ! Q ! L L ( / t T I i T / I L ",
"u R ) ) ) Q L Q W F G G F T R D T T F F T L L G t L L G u D I I ! L K L < F F W W K R W W Y Y R ^ t t K K I P I / ) I R Y u u I ",
"P K ) ) W ! 3.Q L F F F F F F D O.o.O.( F e t F G G G t u S S D P L 1.1.L W F F F 1.1.Q K F ( ( ( L ! L L u t u ( T Y ) ) L L L ",
"( Y T T ) I 4.W t L L F F u H u H O.o.o.o.S P G G L S G S G t u u u t e G ! Q ! t T T + + + R y R D ( ( D Q E 7 7 i y W W T ! ! ",
"T T D T ( 5.5.o.o.L D K o.o.H H @.@. .o.;.o.P u P I L L F J K u F t e < u H ! L L D R x [.Q.] @ 4.D i + D r.r.E E - ; ; y F F P ",
"T Y Y D D T 5.R o.o.o.o.o.o.o.H H *.*.o.O.>.&.t u L L H F K K u H u u t e t L H K T T ) @ {.W.p.a ) r.' s E 7 7 Q W u u Q ! I ! ",
"G Y 1.Y T R t t R R o.o.o.o.o.o.I -.l.O.O.=.p.;.-.F F I F K K F F G G H G ! ! L t D T 1.D U..Xk.i.d ^ ' [ N r r 7 y Q y W ! S I ",
"R K K o.o.o.o.O.o.Q ! L o.o.L L O.%.+.o.o.=.>.~.{.s.-.L F H H S F F t G G H I H H q.K.K.u N .X~.p.<.H.f.p.0 ^ + 6 i R i u D D R ",
"1.! o.o.o.o.o.o.o.o.o.L o.o.L L %.%.o.o.O.&.=.a.{.{._.-.o.I P F F F G F G H H x ^.{.{.{.R.N {.{.M y.N E.i.0 N { K i i i i 5 T T ",
"R ! o.o.o.K K o.o.o.o.o.&.+.o.o.o.o.;.o.;.#.i.i.{.{.{.K K o.F F F G L L t t + [.{.{.{.{.{.R.6.{.a.0 {.{.k.0 p.X.K R 4.i i 5 T T ",
"( ! ! o.o.! K K ! o.o.@.#.;.@.>.+.+.-.>.p.p.p._.{.{.{.{.F H o.@.S S u u G b z b b H ^.N ^.c ' g.t.# `.P.c c $...+ i W R i D D 5 ",
"Y I P o.o.o.o.+.O.@.o.o.&.a.i.s.a.a.d.k.z.~.~..X{..X{.L R L i G p.H F u G P P P u y 6.K.6.{.R.X.' M .._.{.{.6.<.U D D D R L S L ",
"~ L r r o.o.+.;.=.i.&.+.&.p.l.j.W.~.`.{.XX{..X~ P L D D L i i G u L d.G L P ^ ( H.R.P.K.{.l.d.{ g.y.0 ,.6.6.'.a ..0 R ) 1.I I P ",
"~ o.L o.o.o.O.*.#.>.@.:.>.>.a.W.l.{.! {..X! .Xu {.R L L D i L L u S F s.G t ( c ^.{.C ^.s.$.q 0 ^.y.b _ ] X.c 1 n R S W R L ( / ",
"o.o.o.o.o.:.o.o.o.o.p.z.>.W.{.{..XXXQ ! ! ~ L L L D K D D i F G u u G L h.^ @ + + + P.a.>.v ).C ^.y.m 7.+ @ y.a ] 1.F S D y ( ( ",
"i.i.i.i.i.i.i.p.i.p.i.h.k.!..X.X! ! Y L Q ( T T Y r r J J 7 J G H G F F F L L L L G.' N @ ).).C U.+ (.J.L.z a.>.p.s I W R G G G ",
"^ ! u i ! R R F F L L ^ ( ! F F I Q Q Q Q T ( ( T r J J r r T R G F H P F _.L G._ v + Y G.L.).C Z d 7.).).z ].>.$.s R r T ( G H ",
"F y ! ! ! R F R F W W L Q ! ! P F L Q Q L F T ( T r Q Q 7 G G G G G U ! ! P L + _ 7.9.7.G.m L.H.OXd ).).J.K.].$.s I r w r G G < ",
": y p p ! F R 3.R L W P R ! F ! ~ L F L F F T F D Q Q Q J r r W G F ! ! P t V Y.+ h b L.@ Y./.OX XY.).J.2 c v B W r * r T < < ( ",
"< p e F R I u ( ( 1.L K 3.R R R R F F w.! K ! R ! ( ( L I I L L F r r I r t t + + _ ).x (.+ + + + @ + + + + d C.t r r ; I ! p p ",
"I R I F R ( u u Y 1.1.K L R r.R R w.F F F K R ! R u ( P t I ~ I T r 7 r r t t 0 @ b 2 x ).0.v.m.I.).).).).).d S.n.P ; r ; > > p ",
"e e p e R P u P ( 5 5 1.5 R r.R r.w.F G ! ! R K K P P u u I ~ ~ i 7 7 r r u P P N J.v 7.9.! V x.x.9.9.9.7.J.M.S.n.+ P e P p > > ",
"P p 4 F F >.i.p.p.p.a.k.z._..X.XR ! ! ! ! K G K ! Y u Y ( I I ! D r T 8.T ~ ~ L L L G D G S D D S @ _ N b B.|.Z.j + P P P p ! p ",
"+.O.+.+.+.>.+.+.+.+.p.z.p.W.{.{.XXXXK ! K F F R ) Y r Y Y ) ) T ) Y Y ( ( ) Y 7 r L L u u J K y t G B (.B }.S.h + + t L L S p e ",
"T o.! o.o.o.o.&.@.>.+.>.>.i.i._.k.{.H {..X) XXoX{.Y Y Y Y ) ) T T ( ( i.P L r Y r u t L L H K K K r @ + + + + + + + H L H F F F ",
"3.D L ! o.o.+.>.;.>.=.@.#.>.W.a.~._.].{.oX{.XXR R Y Y Y Y T Y T i t i.t t Y ) ) L ! ! u t H y y K T u g c.c.c.c.c.f L L L F F F ",
"L D L D o.o.o.@.+.&.o.o.&.d.i.j.a.a.j.z.W._._.XX{.r .XY Y i Y Y T +.t I P L ) ) ) ! L L ! K K y 3 M.b.b + + + h k + + P H D F D ",
"y ~ ~ o.o.> T R > o.o.+.#.>.#.>.@.#.>.>.p.s.s._.< t L t t t o.@.r J Q Q Q ( ( G / W F F R ! K B.V.F.Z.b.k + # A.A.k + + I P D D ",
"5.~ ~ o.o.T T T o.o.o.o.&.@.o.+.o.o.;.+.:.#.i.p.K ~ ~ L t O.L / t r Q Q J ( ( G ( 5.5.Q p K F A.F.j l b.d + d |.|.D.d + G R F D ",
"y y ~ o.o.o.o.o.o.o.o.W o.o.! ! O.+.o.o.+.*.*.i.].^ ~ -.o.t T t t Q J K K G ( ( ( F R R R K G N.j + + + + # d |.|.F.S.+ + p R K ",
"y % y o.o.o.o.o.o.W W G o.o.! D o.o.o.o.o.&.i.~.K l.u.L t L ( t t K r Q K < G ( G F F F F K K z + + + + + ! # Z.|.F.C.+ + D L R ",
"1.w.< I o.* ~ ^ ~ 1.1.o.o.o.o.o.o.O.+.o.+.=.i.u.u.O.I L t J 3.Q R ) t Y T r K 7 r G ! ! J ! ! Z + + + + + ( + j n.n.d + + T F F ",
"1.w.w.< P p p p * o.o.o.o.o.o.Y : y O.o.O.;.=.+.7 Y / t t J J J J I t I I Q K r K G 5 ! ! ! ! ' ` A @ +   X 1.( + + + + + + Y P ",
"1.< P > P ^ ^ * o.1.y O o.o.r y o.o.o.o.=.+.+.w r t Y t Y 3.3.E J Y I t t K ! ! ! Q 5 5 ! u A O.| } A + W . w ( + + + # | 9 ! ! ",
"G P P w.P p y * * 1.1.y ) T : : y o.o.o.o.w K Y / Y t t Y R Q 3.3.Y ) I t r r K r G ! G H P + + + + + 3 T ) w ( ^ +  .O.} A K ! ",
"& ! W w X * r I R : : y y L t Y O.o.o.! ! ! Y P ( G F F ) ~ F F ^ G G F G i D > ; 4 P Y < F F ! W G G Q 5 T Y : y + ` | A 8 F F ",
"%     o 6 T T I R t T W t t L / +.P ! ! P r K ( ( 3.) ) G ^ ^ > : F : F ( ! ! Q ! P 5 5 K F F F F G Q Q 7 : L W y u @ @ @ + ! Q ",
"^ 6 6 W W W 7 W r R T R T L t t t P P P P r Y P r F F F ; ^ ^ ; : : F ( ( ! F i p P 5 3.3.F ! ! F G Q G 5 I W T R i u u y F ! 3 ",
"~ Q W W W T W I r u y y S L I Y t F F I ! L Y Y Y ;   ; F F F G G F ( F : i i F : K L w w < F ! ! Q Q G G y I T u ~ ~ ! i ! F G ",
"~ I ) I L W 2.H G T T T T r J ~ L F F e e F G p 3.! G 1.H O % p p y L P y G ! ! ! R R : u r r J J F 5 R F 3 W W W ) T D Y ( K K ",
"K P ) ) r G ! W G e e e T K r 7 H F F I F J J G : G ( 1.( p F 5.F u u u L G G G G R u > y r r > r F 5 5 F 4 4 W W D D / T K ( K ",
"L I ) P r G W 4.4.e R 8.T r ~ L L F I W F G F ) G < < > ( 4.p p 2.t u L L G 3 G ! u u u R J J r r 5 R R R <   4 W ( / T ( / K ( ",
"K P ) P I 4.2.Q 4.Y 8.8.8.L ~ ~ ~ D F F R ) : F G < G G G 4.4.4.4.L L ! t G J J ! I R R u r J : r 5 F F G . . W W L T D Y ( 5 K ",
"! Q 6 Q Q ( ( ( ( Y Y Y 6 H 7 Q Q 7 7 7 1.w o ~ ~ u u y u e ! H e L I L L L L J L r w W r r ! !   5 L < 5 < L 1.L D F ~ ~ i 3.p "
};
