/* XPM */
static char *result[] = {
/* columns rows colors chars-per-pixel */
"64 64 192 2 ",
"   c black",
".  c #260A03",
"X  c #311108",
"o  c #3A1408",
"O  c #333334",
"+  c #3B3839",
"@  c #3B3A39",
"#  c #421408",
"$  c #421908",
"%  c #421910",
"&  c #4A2110",
"*  c #522310",
"=  c #532516",
"-  c #542919",
";  c #5A2C19",
":  c #5A3119",
">  c #632D19",
",  c #633219",
"<  c #423E2F",
"1  c #413F3C",
"2  c #633521",
"3  c #663A22",
"4  c #6B3D21",
"5  c #6B3C27",
"6  c #733E23",
"7  c #6D5A1F",
"8  c #7D641B",
"9  c #484537",
"0  c #595336",
"q  c #6D442B",
"w  c #734121",
"e  c #734329",
"r  c #7B4529",
"t  c #774A2B",
"y  c #7B4A2A",
"u  c #7D4D31",
"i  c #7F5131",
"p  c #6C6337",
"a  c #796F39",
"s  c #3D3541",
"d  c #263A58",
"f  c #213D68",
"g  c #423847",
"h  c #4B3956",
"j  c #503A5E",
"k  c #523B62",
"l  c #613E78",
"z  c #4A4948",
"x  c #544E49",
"c  c #57564D",
"v  c #5A554D",
"b  c #585654",
"n  c #625E43",
"m  c #635B53",
"M  c #79724A",
"N  c #696658",
"B  c #756B5C",
"V  c #616167",
"C  c #786C60",
"Z  c #797971",
"A  c #8E6F15",
"S  c #804C2D",
"D  c #834E31",
"F  c #845231",
"G  c #895533",
"H  c #8C5935",
"J  c #8C563A",
"K  c #8C593A",
"L  c #925D3B",
"P  c #94613D",
"I  c #98623E",
"U  c #897931",
"Y  c #946142",
"T  c #9A6542",
"R  c #9C6943",
"E  c #9E764F",
"W  c #A36C44",
"Q  c #A46D4A",
"!  c #A5724A",
"~  c #AC754B",
"^  c #AD794A",
"/  c #AD7552",
"(  c #AD7A52",
")  c #B57D52",
"_  c #857969",
"`  c #B28C10",
"'  c #96883A",
"]  c #A5953C",
"[  c #AA953A",
"{  c #B7A43D",
"}  c #CA9A04",
"|  c #D7A504",
" . c #EEBA05",
".. c #CBB53E",
"X. c #D4BD3F",
"o. c #FFC600",
"O. c #FFC805",
"+. c #FFCA0B",
"@. c #FFCE13",
"#. c #FFCC1F",
"$. c #FFD21C",
"%. c #DCC43F",
"&. c #FFCE26",
"*. c #FFD523",
"=. c #FFD42A",
"-. c #FFD92D",
";. c #FFD537",
":. c #FFDC34",
">. c #FFDE3A",
",. c #FFE03E",
"<. c #8D844B",
"1. c #A69640",
"2. c #B58252",
"3. c #BD8652",
"4. c #B5835A",
"5. c #BD865A",
"6. c #BD8B5A",
"7. c #86846A",
"8. c #978874",
"9. c #BD8D63",
"0. c #A5917D",
"q. c #A8947F",
"w. c #B79174",
"e. c #A5A27F",
"r. c #C5B451",
"t. c #C59463",
"y. c #CE9A63",
"u. c #CE9C6B",
"i. c #E0C948",
"p. c #F5D941",
"a. c #FEDC47",
"s. c #FFE243",
"d. c #FFE44C",
"f. c #FEE554",
"g. c #FFE65B",
"h. c #FFE85F",
"j. c #D0C164",
"k. c #FFE761",
"l. c #FFE965",
"z. c #FFEA6C",
"x. c #FFE875",
"c. c #FFED7C",
"v. c #134591",
"b. c #0C49A6",
"n. c #1A59BC",
"m. c #7A4B95",
"M. c #7E46A4",
"N. c #0050C8",
"B. c #835E8E",
"V. c #8F5EA8",
"C. c #956AA0",
"Z. c #A975B6",
"A. c #9C4ED1",
"S. c #A956DC",
"D. c #B36BD6",
"F. c #BB58FC",
"G. c #B964E8",
"H. c #CA6AFF",
"J. c #878684",
"K. c #96938C",
"L. c #AD9782",
"P. c #A8A481",
"I. c #B8A78B",
"U. c #B7B48C",
"Y. c #A5A9B9",
"T. c #C2A990",
"R. c #D5B99D",
"E. c #E6B684",
"W. c #CBC799",
"Q. c #F9EA83",
"!. c #FFF18D",
"~. c #F7ED9A",
"^. c #FFF294",
"/. c #FFF39B",
"(. c #DBD7A4",
"). c #C4D5B1",
"_. c #E9C9AA",
"`. c #E8D9AA",
"'. c #F6D4B2",
"]. c #FFF5A4",
"[. c #FFF6AB",
"{. c #F1ECB2",
"}. c #FFF8B4",
"|. c #F9F5B9",
" X c #FFFABC",
".X c #D98BF2",
"XX c #E998FF",
"oX c #F5DDC6",
"OX c #FDF9C3",
"+X c #FCF8CA",
"@X c #F9F6DA",
"#X c #DAE8E1",
/* pixels */
"W ~ I F ~ ! ! F ! 6.R r y w K K H G G G Y Q Q Q Q 4 X q W H 2 , J D ; D D Q D ; ; 3 3 $ 4 X 2 L 2 6 6 6 6 u %   D ; y ; ; 2 ( ( ",
"K I ~ I I P I P P R R R R , H ^ ^ P G t G Q Q 5 . q W W W 2 2 ~ G D D D F Q Q ; ; 3 K , K 2 X L 2 * * L 6 % % % % ; t ; u K K K ",
"K ~ ~ ~ F P ! P F y y R I ~ H H K G G t Y Q Q 3 4 W W W W ~ G G ~ F ~ D D ! Q D Q K K 3 K 2 2 2 L = * L e % 3.3.% u t u R K 2 2 ",
"! 9.P ^ P / u.( ( R K W 2.) e e q G H H ! 6.6.e T 4.2.H 4.T D D 2.e T T e ( e ( 4.2., 4 4 & & e e ; ; D G K & K & $ y $ u ; F i ",
"! P ! P P 6./ / ( R K K W ) P L e G G , ! t R I T 4.K K K D R D R 6.T T e e e 4.e w K L L e % e e ; ; ; ( & % K 5 ) ) y t - F ( ",
"G P P P P ( u.9.( ! R K W 2.) Y e G H q w q t 6.6.4., 4.4.T 2.T S T q I t e q E.4., 2.4 4 R t W e ; ( : ; & K K % u ) t u ( F G ",
"! 9.I ^ ^ ( u.u.u.2.2.! W ) L e t G G H W 6.6.6.6.K 4.4.J 2.2.R R T I e e t q e e 4 4 L L R T e e G ( G ; 4 K K 5 $ t u u F ; ; ",
"2.! 9.L ! ! y.y.! ! ! ! ! 5.T y t F i F i t t ! y K t.t.Y / / I P t P P y i i i ( ! # ! ! D D - ; ! ! F ! ! Q Q Q 4 4 4 5 ; D u ",
"T L 9.9.! u u u ! P D L ! R y y R 4 F I w ! u * ! Y t.K ; w y P P I L t , * 2.( ( ! q ! 6 D D ; ; ! ! > F Q = % Q I 4 , Y ^ ! : ",
"T ! P 9.9.u u u ! Y D D Y y I 5.6.H F W 4 ! ! u y   ; L L y y y P t P P P F i i i ! e ! Q ; D D ; , , , F e t r Q I 4 w P i i i ",
"4.9.! L ( ! u u i F P Y I y R 5.R , R I F ! y y ! L L L H S y y y I y 2 y = * F * e e e 6 ; D D . F > F F & t t Q I 6.P 4 - ! i ",
"5.4.P P K E F F ! R y R R r R r y ^ ^ F F F F ) T R G , F H : G ) L r L I , S 6 S D D F > J J ; ; y S S D / u =   # R R 5 P 4.4.",
"I P 4.4.K ! G F F T y 9.R H T R R ^ ^ ^ ; T ) R F F F F F ) , : ; r r r r y L L L F ! > > J ; ; J S S ! Q D u = = # # e R I w P ",
"4 4 K 4.L F t.! ! 9.R y y G H R R F ^ ^ ^ F F T T F D R I ) : : : r P I I S L L L ! ! D D J J J 5.S * Q D u ~ u D R 4 R R I w 4.",
"P 4 4 Y 5 D Q t.t.9.y y R T H r G F F F ; F D T T R R R W G ) ) H ( Y / / y L L L ! ! D ! J 5.L 5.S S ! y ~ ~ u u R R 5 4 w w P ",
"( T e q 6 4 4 4 4 F F R R H H H ! T F D , = e e e G H G I I G H G ^ F u i , , F F S T S T Q Q H Q * * * F Q 4.4.Q R G R R K 6 6 ",
"( T q e e , R R R i i R R H H ! ! T S S R e L L I S y y H H G H G u D * D , , F D W R , D Q K e Q ) F * * K K K K 4.R F F K ( P ",
"w e I R T F F T R , i 2 F ! ! H H T T T T L L L H I I L P I H ^ G i / u u F > , D S T T y e Q K r F D F ) 4.4.J K 4.F F F L 2.( ",
"L T 6.9.T D T D F F I i 2 w K W H S S y S L r 6 L G I H P W I I ( ) u * * , ! F , , S T F K K K e S F F F Q R K 4.4.R F F K ( ( ",
"( R K R ) 4.5.L H 6.H G F 4 F F T T / R F r r S G S S S y S P G D H 4 L K Q 5.R F W K K R F F F F L ! ! L y y y Y u ) Y T / P P ",
"Y ) ) K W ! L Q H W G G F F S F R I F F I G G y r L L G S D D D I , 4 P L W D D F K K R 2.T T F T ! ! ! H I ( / r Y Y u T / L P ",
"y R ) ) ) Q L Q ! F F F F T T F T I F G T L L G S H L G r D I L ! P K L 4 S F W W K R Q R T Y R ( r r L K I P P ) ) T T Y y t L ",
"P K ) ) W Q 4.Q H G F F G F F F S T ^ ^ F y r G G G G S r S S D P L 2.2.L W F D F 2.2.! J O.O.O.( L ! L L y y y / Y T ) ) L Y L ",
"( T T T / W 6.T y H P F F y K t H I O O O r L G G L S S F G y y y y y 4 G ! ! ! r T T O.o.o.O.e R D / / D R ! e e y y W W I ! ! ",
"T T D T ( 6.6.T r L F L O Y H H @ ] ~.|.x t P y P I P H G K K y F y , w y H ! H K D o.:.o.o.#.+.5.D o.o.D u.u.o.o.- - - u F D I ",
"T Y T u D R 6.T r L L a ' R H p d.!. X@ F y G y y H H L S K J y H y r r w r L L L *.,.O.o.=.&.W R o.o.o.O.o.o.o.Q W y y W ! P ! ",
"F T ( T T T r t R R N [ ' Y 1 s.z. XW.S i G G t y F F T F K K F F G G H G Q ! -.:.s.*.O.O.x.;.e o.o.o.o.o.o.e e e t W t W ! F L ",
"R K K 6.6.! K K O ~ 9 s.j.K.1.d./.|.N D P.P.P.L L L F L F H H F F G r G G p.g. X/.,.-.O.o.+.&.O.u u o.o.) K / o.O.O.o.o.o.F D T ",
"( ! K ! 6.! ! ! { N 0 ,.Q.N p.M  X Xm W. X X X(.z T L F F P P F S G G o.;.]. X Xf.-.*.O.o.o.&.*.T T o.o.u o.o.o.O.o.o.o.o.o.T T ",
"W ! ! ! K K K ! ..s.9 z. X}.@ g. X8.W. X X X X X|.+ F K L H F F F G o.H r  X X Xs.s.$.,.o.:.o.O.o.o.+.*.o.o.o.o.o.R 6.o.o.o.T T ",
"2.! ! ! K ! K O ..%.c c U.[.@ i.Q.<.b (.N (.K b c z b F F H F F @.o.r y  X X X X].f.d.s.s.:.+.+.,.@.:.$.@.o.o.K K u R o.o.D D 4 ",
"Y P K ) ) T F U ] 7. X X].r.U ' ..j.OX7.P.7.P ^ r K P K I P y d.u L G y G  XOX XOX/./.c.z.k.d.d.g.s.f.*.o.O.@.O.+.o.o.o.o.L S L ",
"~ L 6 e P i 9 ..p {.7.7.<.9 p.Q.{ h.z. Xe.U.W.K.P K D D L l.u F u L G G H L ^ / I OX X+X X[./.!.l.x.d.*.+.$.s.-.:.+.o.o.2.P P P ",
"~ ) Y e ) T w n < c X.] Z c p.(.< 0 %.h.(.7. X(.c R L L g.u L Y y y G L G S /  XI OXR OX Xy  Xz.!.f.,.,.,.@.,.$.*.O.o.o.o.I o.( ",
"F Y 2.Y ) F w ] p p.O O 8.m a.`.C '.n p.f.U.< O O + K k.D u G G u y G L L ^ I y I I I I y G OXOX X X!.,.c.d.o.O.O.O.>.O.o.o.o.o.",
"^ ! * y ! F a s.a.g.x T.L.R.@ T.C '.'.@ N ' B.T Y e e J J 6 G G G F F F F L L P P I I I ^ L L L OXOX^.z.k.s.s.,.s.s.s.s.s.s.s.s.",
"^ ! y u ! R a %.s.}.z '.'.0.O Z C '.I.J.Q O m _ J.e [.J e 6 R R H F F P F L L L L G S I I r D L L T T F T G W W q e I t T ( G G ",
"F y ! ! ! R i a %.}.e.q.'.'.1 #XK.T.b J.J.0._ _ O e Q Q e G G G H F P ^ ~ L L G G I I G S G L e P / / ^ / W W W W R e e e G G , ",
": u i t ! F R 2.B v c < L.'.R.oX#X).R.@ I.v 9 O R.V Q Q J e e I G i ! ! I r y G G S G D F L D D L F T F F W H W W e & e T , , 2.",
", i w F R T y ( A.s O O O O O O O O O '.z '._ O O / / L I I I I F q t I w r y L r G r G G D L L I y y y y ! r ! r e e - L E i i ",
"I R R F R ( t M.F.s '.'.'.'.'.Y.N.n.w.'.x 1 v @ z e ( P y L ~ I P e e e e r y y y r r r P S D W L y G y Y K r L ! P - e - : : i ",
"q w i w R P O M.F.m.q.q.0.0.0.v.v.V E 0.8.v q.V K I P y y I ~ ~ F e e e e y H P y r r G P J D L S y r y y r L K H P P e P i : : ",
"K F w i F P O h S.XXC.c N _ + u.R ! ! ! ! J L L ! Y y I / I I ~ S q I 6.R ~ ~ L I P G G G D D F OXOX/.Q.z.f.d.d.s.s.s.P P F ! i ",
"4.! W ! D F O O g G..XB _.B u ! ! ! K ! K F F I ) Y e Y Y ) ) T ) P P 2.( ) L e w H H r y K +XOX X X!.d.c.d.+.+.+.+.,.+.O.+.O.O.",
"Y L ! Q D F O O O O O O O O ; i ! Q K e K ) T G T Y Y Y s.) ) T T / ( r P P e  X@X+Xt OX XK  Xl./.s.s.s.,.+.>.@.*.o.o.o.O.F o.F ",
"4.D Y Q ! R d b.b.b.b.b.f ! S : ; e K K K ) W I T Y Y Y I a.Y T u r r r r P ) ) I +X X+X X}.[./.g.!.>.$.@.-.s.:.>.+.o.o.H F F F ",
"L D L D D O O k g O O O k m.B.^ ! ! w K ! T ) ) ) t = Y Y u +.Y Y P r I P OX2. X+X].].!.c.l.f.f.l.s.k.*.o.o.*.+.@.o.o.o.L S F F ",
"t ~ ~ t O O j D.D.@ O j m.D.H.Z.C.W ! & & 2 K K 2 r L r r e Y ( @.O.Q Q Q / / H ].f.g.d.s.>.$.@.>.$.>.$.+.o.o.F F H H o.o.L F F ",
"6.^ ~ y O s G.XXXXg O + M.l h H.Z.5 Q W t 2 2.2.K ~ ~ L r r L ) r e O.Q K ( / G d.s.$.>.+.:.o.o.+.o.@.*.O.o.o.o.F G R o.o.T F F ",
"t t ~ O O F.H.XXXX@ @ O O O O g V.t r W W K 2.K K ^ ~ ~ L r L r r Q J o.;.G / }.s.=.=.+.o.o.O.O.5.L o.o.K o.o.o.o.o.o.o.o.F R K ",
"u % t O O A.H..XS.+ W O O O O O z W r t r K 2 2 K P r L r Y / t r K e Q K a.x./ /.s.*.O.o.O.o.o.K r o.o.Q ! F O.o.o.o.o.o.F L R ",
"2.t., O O s M.M.h O 2.O O O O O Z K K y 4 / ( P / / L I r J 4.R Q ) r Y T 6 O.f.a.s.-.O.o.O.O.o.o.o.o.o.o.2.q .   4 D o.Y P F F ",
"2.t.O O O O O O & t o   O O A ` ' u t 4 K ( / q e I / y r J J J J I r I T Q K e @.-.:.O.o.O.! ! K o.o.o.o.o.O.( / D u 4 Y P P P ",
"2., 8 } < O O O u 2.y o O A } | O.A u t K K K q e r Y r I 4.4.E J L I r r K Q ! ! +.+.-.o.o.o.o.L T o.o.T . q o.( 4 Y Y Y I Q ! ",
"G T 8 } o. .O & & 2.2.y ) O + O O O K K u e K Y / P y e L Q R 4.4.T ) I t 6 e K e G ! o.o.o.o.! ! T T 3 T ) q ( ( u Y Y Y F P ! ",
"% W 7 ` } ` O T R : ; r S L S L P ! I ! ! / Y L / F G F ) ^ G G ^ F F F F i i ; ; 4 P K 4 o.o.O.! G G Q 5 T T : y ~ ~ u ~ ! F F ",
"$   O + + + T W T y T T y r Y / L I ! ! P e Y ( ( 2.) ) F ^ ^ ; ; F ; F ( ! ! ! ! K q w Y F F +.F G Q Q 4 ; I W y u & y ~ ! ! ! ",
"^ 3 w W W I r T e T T T W L r r r P I P P e K Y e F i G - ^ ^ : ; ; F ( ( ! D u i Y , 4.4.F ! ! F G Q G 4 T T T T y y y y G ! 2 ",
"~ W W W W I T T e y y t r Y L Y y F F R ! P L Y Y -   - G F F F G F ( F ; D u F ; K P 4 4 , F ! ! Q Q G G y I T u ~ ~ ~ u Q F F ",
"~ Y ) I I W 5.G G R T T T 6 L ~ L F F , 4 G F G ) ( F 2.K o $ i i t Y L u F ! ! ! R R : y e e K J F 4 R F 3 W W W / T D Y ( L K ",
"L P ) ) e H W Q G w w w T L e e L F F R G G G G ; K ( ( 2.i i 5.F r y r K J F J G R y ; t e e : e F 4 4 F 2 3 W W F D / Y K ( K ",
"K I ) P e G W 5.5.w R 9.Y e ~ L H F R R G G G ) G : , , ( 5.i i 5.y y L P F 5 F ! i y y R J J e e 4 R R R 2   3 W / / T ( ( K ( ",
"L L ) P P 5.5.W 5.R 9.9.9.L ~ ~ ~ F F F T ( ; G G , G G F 5.5.5.5.L L ! S G D G ! I R R y e J ; e 4 F F F . . W W I T D Y ( 5 K ",
"E Q q Q ! / / ( ( P Y Y 5 G 6 Q Q 6 6 w 2.q X ! ~ y y y y w ! H w P I L L L L L L e q W e e ! !   4 J 4 4 , L 2.L D F ~ ~ u 4.i "
};
