/* XPM */
static char *result[] = {
/* columns rows colors chars-per-pixel */
"64 64 159 2 ",
"   c black",
".  c #210800",
"X  c #290A00",
"o  c #290C08",
"O  c #291008",
"+  c #311108",
"@  c #3A1408",
"#  c #2F353F",
"$  c #333333",
"%  c #3A3835",
"&  c #3B3A37",
"*  c #3A323F",
"=  c #421408",
"-  c #421908",
";  c #421910",
":  c #4A2110",
">  c #522310",
",  c #562610",
"<  c #522419",
"1  c #542919",
"2  c #5A2C19",
"3  c #5A3119",
"4  c #632D19",
"5  c #633219",
"6  c #433E2D",
"7  c #413E3A",
"8  c #633521",
"9  c #6B3521",
"0  c #663B23",
"q  c #6B3C21",
"w  c #6B3E29",
"e  c #733E23",
"r  c #6F5B1F",
"t  c #735E1E",
"y  c #7C631B",
"u  c #4C442A",
"i  c #5A4D26",
"p  c #46423D",
"a  c #6D442B",
"s  c #734121",
"d  c #734329",
"f  c #7B4529",
"g  c #774A2C",
"h  c #7B4A2A",
"j  c #665522",
"k  c #7C4D31",
"l  c #7F5131",
"z  c #2C3749",
"x  c #3F3248",
"c  c #293951",
"v  c #243C60",
"b  c #40324A",
"n  c #453153",
"m  c #4B305D",
"M  c #4E3061",
"N  c #53306A",
"B  c #5A2F75",
"V  c #573071",
"C  c #484542",
"Z  c #524B45",
"A  c #58514A",
"S  c #65594E",
"D  c #6B5E50",
"F  c #6F6053",
"G  c #756556",
"H  c #7D6B5A",
"J  c #6F6F6F",
"K  c #8E7015",
"L  c #804C2D",
"P  c #834E31",
"I  c #845231",
"U  c #895534",
"Y  c #8C5935",
"T  c #8C563A",
"R  c #8C593A",
"E  c #925D3B",
"W  c #94613D",
"Q  c #98623E",
"!  c #946142",
"~  c #9A6542",
"^  c #9C6943",
"/  c #806E5C",
"(  c #84715E",
")  c #A36C44",
"_  c #A46D4A",
"`  c #A5724A",
"'  c #AC754B",
"]  c #AD794A",
"[  c #AD7552",
"{  c #AD7A52",
"}  c #B57D52",
"|  c #8A7561",
" . c #8D7862",
".. c #937C66",
"X. c #A8810C",
"o. c #BF9004",
"O. c #CC9900",
"+. c #B58252",
"@. c #BD8652",
"#. c #B5835A",
"$. c #BD865A",
"%. c #BD8B5A",
"&. c #9B826A",
"*. c #A0866C",
"=. c #BD8D63",
"-. c #A88C71",
";. c #AE9074",
":. c #B49578",
">. c #BB9A7A",
",. c #C59363",
"<. c #CE9A63",
"1. c #CE9B6B",
"2. c #D6A673",
"3. c #2A3E82",
"4. c #622E85",
"5. c #642E88",
"6. c #6C2D96",
"7. c #712D9F",
"8. c #762CA7",
"9. c #0E489F",
"0. c #0C49A4",
"q. c #0D4DAD",
"w. c #4D72B0",
"e. c #014FC5",
"r. c #0452C7",
"t. c #0066FF",
"y. c #106EFF",
"u. c #882AC6",
"i. c #8A2ACA",
"p. c #9429DB",
"a. c #3580FF",
"s. c #3C84FF",
"d. c #4187FF",
"f. c #4689FF",
"g. c #5B93FF",
"h. c #6397FF",
"j. c #689BFF",
"k. c #6FA2FF",
"l. c #72A5FF",
"z. c #7CB5FF",
"x. c #8C8C8C",
"c. c #B29880",
"v. c #AAA1A7",
"b. c #BFABA0",
"n. c #CAA682",
"m. c #D2AC87",
"M. c #DCB38C",
"N. c #D3B59D",
"B. c #E2B78C",
"V. c #E6BB92",
"C. c #E9BE93",
"Z. c #EEC296",
"A. c #F1C396",
"S. c #F3C598",
"D. c #83B6FF",
"F. c #85B9FF",
"G. c #89BCFF",
"H. c #86C1FF",
"J. c #98CBFF",
/* pixels */
") ' Q I ' ` ` I ` $.^ h f s R R R I Y U ! ` _ _ _ a o q ) U 5 8 U I 2 P P _ P 2 2 0 0 - 8 + 8 E 8 e e e e P ;   P 2 k 2 2 8 { { ",
"R Q ' Q Q W W W Q ^ ^ ^ ^ 5 Y ] ] ! U h U _ _ a X q ) ) ) 9 8 ' U P P P I _ _ 2 2 0 R 0 R 8 + E 8 > > E e ; ; ; ; 2 h 2 h T R R ",
"R ' ' ' I W ` W I h h ^ Q ' Y Y R I U g ! _ _ 0 q ) ) ) ) ' U Y ' I ' P P ` _ P _ R R 5 R 8 8 8 E > > E d - @.@.; k k g ^ R 8 8 ",
"` =.W ] W [ 1.{ { ^ R ) +.} d d a U Y Y ` %.$.d ^ #.$.Y #.~ P P +.d ~ ~ d { d { { +.s s q : : d f 2 2 P U R ; R : - g - k 2 I l ",
"` W ` W W %.{ [ { ` R R ) } W E d I Y 5 ) g ^ W ! #.R R R P ~ L ^ $.^ W d d d #.a s R R E d ; d d 2 2 2 { : : R q } } h k 1 I { ",
"U W W W W { 1.=.{ ) ^ R ) +.} ! d R Y s s g a %.%.#.4 #.#.~ +.~ h ^ d Q g d d B.#.s +.0 5 ^ h ^ d 2 { 3 2 : R R ; k } h g { I I ",
"` =.Q ] ] { 1.1.1.+.+.` ) } E d d I Y Y ` #.%.%.$.Y #.#.R #.+.~ ^ ! W g g d d a d 5 q E Q ^ ~ d d U { I 2 w R R d - h k k I 2 2 ",
"+.` =.E ` ` <.<.` ` ` ` ` $.~ h g I l I I g k ` k W ,.,.R { { Q ! h W W f l l l { ` = ` ` I P 2 2 ` ` I ` _ _ _ _ q 0 0 w 2 P l ",
"~ E =.=.` k k k ` W P W ` ~ h h ^ q I ^ 5 ] h , _ ! ,.E , h h W Q W W h 8 > { +.{ ` a ` d P P 2 2 ` ' 5 P _ < ; _ Q q q W ` ` 2 ",
"~ ` W =.=.k k k ` W P P W h ~ $.$.Y I ^ s ` ` k g   2 R W h f h W h W W W l l l l ` d ` _ 1 P P 2 4 5 5 I g g g _ Q q q W l l l ",
"+.=.` W { ` k k k l ! ! Q f ^ $.^ 5 ^ ^ I ` g k ` E W E Y L f h h E h 5 h , , L > d d d e 2 P P X I 4 I I ; d g _ Q %.W 0 2 ` I ",
"$.#.! R ! ` I I ` ^ h ^ ^ f ^ f f ] ] I I I $ $ $ ^ U 5 I Y 3 U } E f ! Q 5 L e L P I L 4 T T 2 2 h L L P ] k <   - ~ ^ q W #.#.",
"! W #.#.R ` I I I ~ h =.^ Y ^ ^ ^ ] ] $ $ $ $ $ I I I I I } 5 3 3 f f f f L E E E I ` 4 4 T 2 2 T L L _ _ P k < < = - q ^ Q s Q ",
"q q R #.! I ,.` ` =.^ h h U U ^ ^ $ $ $ $ $ $ ~ ~ I I ~ Q } 3 3 3 f E E ! L E E E ` ` P P T T T $.L , ` L k ' P k ^ e ~ ^ ! e #.",
"W q q ! q I ` ,.,.=.h h ^ ^ Y f $ $ $ $ $ $ P ~ ~ ^ ^ ^ ) U } } U { E { { L E E E ` ` P ' T $.T $.L L _ k ' ` k P ~ ^ a s s s W ",
"{ ! d d e q q 0 9 I I ^ ^ Y Y $ $ $ $ $ $ < d d d Y U U Q Q U Y Y { P l P 5 5 I I L ~ L Q _ _ E _ , > , I _ } =._ ^ I ^ ^ Y e e ",
"+.! a a d 5 ) ~ ~ I l ^ ^ R Y $ $ $ $ $ $ d Y E $ $ $ $ $ U U U Y l P > P 4 5 P L ) ^ 5 h _ R d _ } I > > T T T R #.^ I I R { W ",
"s d ^ ^ ! I I ~ ~ 5 I 8 $ ` $ $ $ $ $ $ $ W $ $ $ $ $ W Q ~ Y ] U k { k l I 5 5 I L ~ ~ L d _ R d P I I } #.#.T R #.I I I W +.{ ",
"E ^ %.%.~ P ) P I I ^ $ $ s $ $ $ $ $ $ $ $ $ $ $ $ E E E Q ) ~ ' { P > > 4 ` I 5 5 L ~ I R R R d I I I I _ ^ R #.#.^ I I R { { ",
"{ ^ R ^ } #.#.E E $.I $ $ $ $ $ $ $ $ $ $ $ $ $ $ U h L L L Q L L E 0 E R _ $.^ I ) R R ^ I I I I E ` _ E h h h ! k +.! ! [ W W ",
"E } } R ) _ E _ E ) I $ $ $ $ $ $ $ $ $ $ $ $ $ $ $ $ I L P P P Q 0 5 Q E ) P P I R R _ +.^ ! l ~ ` _ ` Y Q { [ f ! ~ k ! [ Q W ",
"h ) } } } _ E _ _ $ $ $ $ $ $ $ $ $ $ $ $ $ $ $ $ $ $ $ $ P E Q ` W E E q L I ) ) T _ ^ ) ~ ^ ^ { f f E R Q W W { } ~ ! ~ h h E ",
"Q R } } ) _ #.$ $ $ $ $ $ $ $ $ $ $ $ $ $ $ $ $ $ $ $ $ $ $ L P Q W +.+.E ) I I I +.+.^ R I ] } { E ` E E h h h [ ~ ~ } } E E Q ",
"{ ! ~ ! { ) %.~ f E $ $ $ $ $ $ $ $ $ $ $ $ $ $ $ $ $ $ $ $ $ h f h L 5 Y ` _ ` f ~ ~ I ~ ~ ^ f Q I { { P ^ _ d d h h ) _ W ` ` ",
"~ ! I ~ { %.%.~ f $ $ $ $ $ $ $ $ ( G $ $ $ $ $ $ $ $ E I T R h I g 5 s h E ` Y Y P ~ ) } $.^ ^ $.P P P I 1.1._ ^ 1 1 1 k I I Q ",
"! ~ ~ P P ~ %.^ f $ $ $ $ $ $ $ $ &.( $ $ $ $ $ $ $ E R I R R h Y g f L s s t.t.t.t.~ } } ~ h ~ ~ { 2.2.{ _ d e _ _ h g ) ` W ` ",
"I ! { ~ ~ ^ f f ~ $ $ $ $ G | / m...7 $ &.S $ $ $ $ $ Q I R R P I U U U U y.g.d.t.t.t.t.L h h h h P { [ P a d d d h ) g ) ` I E ",
") R R %.%.` R R ` $ $ $ $ ( V.V.A. .x.J ;.M.S $ $ E $ $ $ $ $ I I U L I j.z.F.h.g.s.t.t.t.T k T k k k k } R { R q k ^ k k I P ~ ",
"+.` R ` $.` ` ` R $ $ $ $ ( A.S.S.| x.W Z >.D $ $ ~ E $ n.M.M.$ I I I j.U U J.G.l.D.s.t.t.t.k R ~ ~ } k h { { { R k k k k q ~ ~ ",
"^ ` ` ` R R R ` %.#.$ $ $ & ..S.S.| J Q C :.F 0 % L I $ B.Z 7 $ $ U j.E h h Q J.G.l.z.a.t.t.t.t.t.t.t.t.t.t.t.t.t.t.t.t.t.t.t.t.",
"{ ` ` ` R ` R R ` +.E $ $ $ % ..S.Z.A.] C :.D $ $ $ $ n.C $ V.C.$ L j.h U Q Y L h Y Y Y h ~ Q P k ! ~ ! } { { R R k ^ ^ k P P 9 ",
"! W W } } ~ I I I $ N 7.$ $ | A.S.S.A.S.Z.A.A.S 0.e.N.Z.p $ $ $ L Y j.h U W W W h h Y Q Y W U f I E ^ ^ E ` #.E E P P P ~ Q h Q ",
"' E e d E I q I D >.N 7.$ $ | A.S.S.S.S.A.A.D 9.e.b.A.Z.A.A.& $ $ Y j.U Y W ] J.F.k.D.s.t.t.t.t.t.t.t.t.t.t.t.t.t.t.t.t.t.t.t.t.",
"' } ! d } ~ q D A.:.N 7./ S.*.% ..C.C.C.D $ $ $ $ $ $ $ $ $ $ E L L I j.U L J.G.l.F.d.t.t.t.U E U Y ) Y ^ ) E E E ^ P ~ ~ E [ } ",
"I E #.E } I S N.c.M i.7./ S.S...& % $ $ ` ' W E E P E P P k U U h g U E j.H.G.h.h.f.t.t.t.I Q U U P L P ~ ' E E @.} P P P h } ' ",
"] ' , g ` Z v.e.9.C 7 $ G V.C...*.| $ E _ ] ~ ! ~ d d T T d U T U U I I I y.g.f.t.t.t.t.' E Y E E L U ~ I U Y U ) ^ ^ ~ ~ Y U U ",
"] ` l g ` z q.r.w.S.n.Z 7 | -.&.V.H _ _ _ ! { { ~ e T T d w ) ~ Y Y U W I W t.t.t.t.I Q Q f P E Q Q Q I ~ U ) ) a d ^ d ~ { Y U ",
"I g ` ` ` $ c w.S.S.S.V...G m.m.( E _ _ Q I ^ { ! d _ _ e U T I U l W ` ] Y E U U Q Q I I P E f E ] } ] { ) ) ) ) ^ d d d U U 5 ",
"2 g l h ` I $ Z m.Z.S.;.# c z z $ E P ! I I ! I P _ _ _ T d e ) l Y ` ] W f h U P P I L I E L P E L Q L I ) U ) ) d : d ~ 5 5 { ",
"s I s I ^ E h # A 2.n...v 0.0.3.m M n ,.` R ` ~ ' { { ! Q E ~ Q l a s Q s f L E L I L U U L E ~ ) L L f f ` f ` f d d 1 W ` l l ",
"W ^ ^ I ^ { h $ * M m b $ $ b 4.u.p.6.M I E ~ ` ^ g { W h Q ' E W d d d d h f h h f f f W P P ~ R h U h ~ Y f E ) W 1 d 1 3 3 l ",
"q 0 I q Q W $ * 4.p.p.7.$ $ N 5.5.8.u.p.B ` ~ R R Q E h h E ' ' I d d e d h E W h f f I E E P E L h h f f f E E Y W W g W l 3 3 ",
"W I q I I Q * 4.p.p.p.7.$ $ $ N N $ B u.V T R R ` ! f ! { Q Q ' P d ! %.^ ' ' E E W I U U P P P P h U U h f Y Y W W W W W I ) I ",
"#.` ` ` I $ n p.p.p.p.8.$ $ $ $ $ $ $ B m I I ^ } ! d ! ! } } ~ } W W +.{ } E d s E Y L h R R d g U U ! ! R h I Y R f Y W I I 5 ",
"Q E ` ` P $ x 8.p.p.u.B $ 2 $ $ $ $ $ $ $ } ~ I ) ! ! ! ! } } ~ ! { { f W E d E s h h Y E R T T T h U U U I f h T ` E Y Y I I I ",
"#.P E ` $ $ $ x 6.6.B $ +.` $ $ $ $ $ % R } ~ ^ ~ ! ! ! ! ~ ! ! k f f f f Q } } E ` ` h h R f g T ! f h h h I h I _ E E E I I I ",
"Q P Q P $ % $ $ $ $ $ +.+.` ` $ $ i y y i ^ } } } d < ! ! g ~ ~ ! Q f W W ! } } } _ E R ` R R g 8 f U U f I T Y I E E T Y I I I ",
"h ` ' 6 y j $ $ $ $ U U ) 2 2 $ i X.O.O.K i R R 8 f E f f f E { f R _ _ _ { [ U } ) I I ) ` R R R h h E E I I I I Y Y Y ) E L I ",
"$.' ' u O.o.y r $ I I I 5 3 L ` j K t y y u +.+.R ' ' E f f E { f d _ _ T { { U { %.%.) I R R R $._ h E E ` I I I R ^ Y Y ^ I I ",
"k g ' % O.O.O.X.$ s ) ) e I ` ` ` d g ) ) Y +.R R ] ' ' E f ! f f _ R R R U { { { I _ ^ ^ R R ` $.E f f R ` I I ` Y ^ ^ f P ^ E ",
"g - g % t t y j $ ) ) U 0 I ` L ` ) g g f R 5 8 R E f E f Q { g f R d _ R 5 U { U I I P I R R R Y h f g ^ ` I 5 5 f Y U f I E ^ ",
"+.,.5 W W : ] ] ] +.+.@ h ! ! ! ! R R h s { { E { { W W d T #._ _ } f Q Q d T d d U ` ` Y ` ` E h ^ ^ Q 0 +.a o   q k P ! Q I L ",
"+.,.,.5 W l g h : g @   g ! h ! 2 k h q R { { d d E [ f f T T T T Q f Q ! ` R d R U 0 ` ` ` ) ` E ~ ~ 0   o #.{ { P P q ! W W ! ",
"+.5 W 5 W ] +.: g +.g @ g d g g 2 q h k R R W d d f ! f E #.#._ T E Q f f T ` ` ` ` q q ` f h ` E ~ 8 ) ~ o a { { 9 ! ! ! W ` ` ",
"R ! W =.W l g : : +.#.h } ! 2 2 g R R T k a ! R [ ! f f ! _ ^ #.#.! } Q f d d R d U ` U R W h ` ` ) ~ 0 ~ { a { { l ! ! ! I E ` ",
"- ) ` s O : a Q ~ 3 2 g h ! f ! E ` W ` ` { R ! { I I U } ] U I ] U U I I l k 2 2 0 W W 5 U I ` ` I I _ q ~ ~ 3 g ' ` k ' ` U I ",
";     + w ~ ) Q ~ h ~ ~ k f E [ E Q ` ` W d R { { } } +.U ] ] 2 2 I 3 T { ` ` ` ` R s q ! l I I I U _ _ e 2 ) ~ h h ; L [ ` ` ` ",
"] 0 q ) ) ~ e ) d ) ~ ~ ~ ! f f f W Q W W d ! R d I I I 1 ] ] 3 2 2 I { { ^ l l l ! q #.#.I ` ` I U _ U q Q Q Q ~ k h h L I ` 8 ",
"' _ ) ) ) ~ ) E d g f h f ! E Q h I I ~ ` R ! ! ! 1   1 I I I I I I { I 2 k P l 2 R W q q 5 I ` ` _ _ U U h Q ) h ' ' ' h ` I U ",
"' Q } Q E ) $.U Y ~ ~ ~ ~ e E ' E I I 5 q U U U { { U +.R @ - l I h W R h T ` _ ` ^ ^ 2 g d d R T I q ^ U 8 ) ) _ { ~ L ~ { R R ",
"E W } } d Y _ _ Y s s s ^ R d d E I I ^ I U U U 3 U { +.{ l l $.I h f f R U U U U ^ h 2 h d d 3 d I q q I 0 0 ) ) P P [ ~ T { R ",
"Y Q } W d Y ) @.$.s ~ =.~ d ' R Y I ^ ^ I U U } U 5 5 3 +.$.l l @.h g E W U 8 T ` g h k ^ T T d d q ^ ^ ^ 8   8 ) { { ~ { [ R { ",
"R Q } W E $.@._ $.~ =.=.=.E ' ' ' I I I ^ } 2 T U 5 U U I $.$.$.$.W E ` L P T P ' ^ ^ ^ h d T 2 d q I I U . . ) ) E ~ P ! { a R ",
"` _ w _ _ { { { [ ! ! ! w Y s _ _ e e e +.a + ` ' h h h h s ` Y s E ! Q E E E E Y a d ) a d ` `   0 T 0 5 q E @.E P I ' ' k #.g "
};
