/* XPM */
static char *result[] = {
/* columns rows colors chars-per-pixel */
"64 64 165 2 ",
"   c black",
".  c #210800",
"X  c #290800",
"o  c #290C00",
"O  c #290C08",
"+  c #291008",
"@  c #311008",
"#  c #311408",
"$  c #3A1408",
"%  c gray19",
"&  c #421408",
"*  c #421808",
"=  c #421C08",
"-  c #421810",
";  c #421C10",
":  c #4A2010",
">  c #4A2410",
",  c #522410",
"<  c #5A2410",
"1  c #522810",
"2  c #522419",
"3  c #522819",
"4  c #562B19",
"5  c #5A2819",
"6  c #5A2D19",
"7  c #5A3119",
"8  c #632D19",
"9  c #633119",
"0  c #633519",
"q  c #633121",
"w  c #633521",
"e  c #6B3521",
"r  c #633921",
"t  c #673921",
"y  c #633B25",
"u  c #673D25",
"i  c #673F25",
"p  c #6B3921",
"a  c #6B3D21",
"s  c #6B3D25",
"d  c #6B3F25",
"f  c #6F3F25",
"g  c #6B3D29",
"h  c #6B3F29",
"j  c #733D21",
"k  c #733F25",
"l  c #6F4329",
"z  c #6B452D",
"x  c #6F492D",
"c  c #734121",
"v  c #734129",
"b  c #734329",
"n  c #734529",
"m  c #734729",
"M  c #73452D",
"N  c #77472D",
"B  c #7B4529",
"V  c #774929",
"C  c #77492D",
"Z  c #774B2D",
"A  c #7B4929",
"S  c #7B492D",
"D  c #7B4B2D",
"F  c #7B4D2D",
"G  c #7B4931",
"H  c #7B4D31",
"J  c #7F4D31",
"K  c #7F5131",
"L  c gray40",
"P  c #804B2D",
"I  c #804D2D",
"U  c #804D31",
"Y  c #804F31",
"T  c #844D31",
"R  c #844F31",
"E  c #805131",
"W  c #845131",
"Q  c #845331",
"!  c #845531",
"~  c #845335",
"^  c #885331",
"/  c #885531",
"(  c #8C5531",
")  c #885335",
"_  c #885535",
"`  c #885735",
"'  c #8C5735",
"]  c #8C5935",
"[  c #8C553A",
"{  c #8C573A",
"}  c #88593A",
"|  c #8C593A",
" . c #8C5B3A",
".. c #90593A",
"X. c #905B3A",
"o. c #94593A",
"O. c #905D3A",
"+. c #905F3A",
"@. c #945D3A",
"#. c #945F3A",
"$. c #905D3E",
"%. c #905F3E",
"&. c #945F3E",
"*. c #94613A",
"=. c #94613E",
"-. c #94633E",
";. c #98613E",
":. c #98633E",
">. c #946142",
",. c #986342",
"<. c #986542",
"1. c #986742",
"2. c #9C6542",
"3. c #9C6742",
"4. c #9C6942",
"5. c #9C6D42",
"6. c #9C6946",
"7. c #9C6B46",
"8. c #A56942",
"9. c #A56D42",
"0. c #A06B46",
"q. c #A06D46",
"w. c #A56D46",
"e. c #A06D4A",
"r. c #A06F4A",
"t. c #A56D4A",
"y. c #A56F4A",
"u. c #A5714A",
"i. c #A5734A",
"p. c #A5754A",
"a. c #A0734E",
"s. c #A9734A",
"d. c #AD714A",
"f. c #AD754A",
"g. c #A9754E",
"h. c #A9774E",
"j. c #AD794A",
"k. c #AD7552",
"l. c #AD7952",
"z. c #AD7D52",
"x. c #AD7D56",
"c. c #B57D52",
"v. c #CD9A00",
"b. c #B58252",
"n. c #B18256",
"m. c #BD8652",
"M. c #B5825A",
"N. c #B5865A",
"B. c #BD865A",
"V. c #BD8A5A",
"C. c #BD8E5A",
"Z. c #BD8A5F",
"A. c #BD8A63",
"S. c #BD8E63",
"D. c #C59263",
"F. c #C59663",
"G. c #CE9A63",
"H. c #CE9A6B",
"J. c #CE9E6B",
"K. c #D6A673",
"L. c #B300DF",
"P. c #009AFF",
"I. c #E6B684",
"U. c #FFB9DA",
"Y. c gray95",
/* pixels */
"q.f.:.W f.u.u.W u.V.4.A A a ] ] ] _ _ _ >.t.t.t.t.d @ d 9._ w w _ R 6 R R t.U 6 6 t t * t @ w o.w k k k k Y -   Y 6 D 6 6 w z.z.",
"| :.f.:.:.=.=.=.=.4.4.4.4.a ] f.f.>._ A _ t.t.u o d 9.9.9.w w f._ R R R R t.t.6 6 t | t | w @ o.w , , o.k - - - - 6 D 6 D } } } ",
"| f.f.f.W =.u.=.W A A 4.4.f.] ] ] _ _ A >.t.t.u u 9.9.9.9.f._ _ f.R d.R R t.t.U t.| | t | w w w o., , o.k - m.m.- D D D 4.} w w ",
"u.S.*.h.*.l.H.l.l.q.| q.b.c.v v v ` ` ` u.V.V.n 1.M.M.| M.3.T T b.n <.<.n x.n x.x.c.a a a : : n n 6 6 ~ ~ | : | : * D * D 5 ~ ~ ",
"u.*.h.*.*.Z.l.l.l.q.| | q.c.&.&.v ` ` a u.n 1.1.1.M.| | | T 3.T 3.B.<.<.n n n x.n a O.O.O.n : n n 6 6 6 l.: : | s c.c.D D 5 ~ z.",
"' *.*.*.*.l.H.Z.l.q.q.| q.c.c.&.v ` ` a a n n V.V.M.9 M.M.3.b.3.T <.n <.n n n I.x.a c.a a 4.n 4.n 6 l.6 6 : | | : D c.D D z.~ ~ ",
"u.S.*.h.h.l.H.H.H.b.b.q.q.c.&.v v ` ` ` u.V.V.V.V.| M.M.| b.b.3.3.<.<.n n n n n n a a O.O.4.4.n n ~ l.~ 6 s | | s * D D D ~ 5 5 ",
"n.g.S.@.g.i.G.G.i.p.p.p.p.B.3.A A Q Q Q Q F F u.F $.D.D.$.l.l.=.=.S *.*.S K K K z.u.& u.u.T T 4 4 p.p.Q p.t.t.t.t.a a a a 5 Y Y ",
"2.@.S.S.g.H H H i.=.T =.p.3.A A 3.a Q 4.a u.F 1 u.$.D.$.5 A A =.=.*.*.S q , z.z.z.u.b u.b T T 4 4 p.p.9 Q t.: : t.-.a a -.p.p.5 ",
"2.g.@.S.S.H H H i.=.T T =.A 3.B.B.Q Q 4.a u.u.F F   5 $.$.A A A =.S *.*.*.K K K K u.b u.u.4 T T 4 9 9 9 Q N N N t.-.a a -.Y Y Y ",
"n.S.g.@.g.i.H H H T =.=.=.A 3.B.3.a 4.4.Q u.F F u.$.$.$.$.A A A A *.S q S , , K , b b b b 4 T T X Q 9 Q Q : N N t.-.V.-.a 5 p.Y ",
"B.M.%.%.%.i.W W i.6.A 6.6.B 4.B B j.j.Q Q W W c.3.4.W p W ` 7 ` c.&.B &.&.a I a I R R R 8 { { 5 5 P P P P f.J 2   & 4.4.f =.M.M.",
"=.%.M.M.%.i.W W W 6.A A.6.' 4.4.4.j.j.j.6 3.c.3.W W W W W c.7 7 7 B B B B I @.@.@.R u.8 8 { 5 5 { P P u.u.J J 2 2 & & f 4.=.c =.",
"a a %.M.%.W F.i.i.A.6.A A ' ' 4.4.Q j.j.j.W W 3.3.W W 4.4.c.7 7 7 B &.&.&.I @.@.@.u.u.R R { { { B.P < u.P J f.J J 4.f 4.4.=.c M.",
"=.a a %.a W i.F.F.A.A A 6.4.' B ' Q Q Q 6 W W 3.3.% % % 4.` c.c.% % % % l.I @.@.@.u.u.R u.{ B.{ B.P P u.P f.f.J J 4.4.f f c c =.",
"z.1.v v v p p p p E E 5.5.] ] ] u.2.I I 0 2 v v % P.P.P.% % % % P.P.P.P.% 9 9 W W I 2.I 2.t.t.| t., , , W e.M.M.e.7.W 7.7.O.j j ",
"z.1.v v v p 2.2.2.E E 5.5.] ] u.u.2.I I 2.v @.% P.P.% % L L % P.P.P.P.P.P.% 9 W W 2.2.0 I t.| n t.c.W , , | | | | N.7.W W O.z.O.",
"c v 1.1.1.R R 2.2.w E w E u.u.] ] 2.2.2.2.@.@.% P.% L L % % % P.P.P.% % P.% 9 9 W I 2.2.I n t.| n W W W c.M.M.| | N.W W W O.z.z.",
"+.1.C.C.1.R 2.R R E 5.E w c ] u.] I I I I @.% P.P.% L % % % P.P.P.P.% % P.P.% W 9 0 I 2.I | | | n W W W W e.e.| M.N.7.W W O.z.z.",
"l.0.| 0.c.N.N.o.o.B.! ! ! p R R 2.<.l.<.W A % P.% L % % L % P.P.P.P.P.P.P.P.% 0.W q.| | q.W W W W X.u.u.X.A A A =.G c.,.,.k.&.&.",
"=.c.c.| 0.y.o.y.o.q.! ! ! R R R 2.<.W W <.^ % P.% L % L L % P.% % P.P.P.P.P.% W W | | q.b.1.1.W 1.u.u.u.X.=.l.l.A ,.,.G ,.k.&.&.",
"A 0.c.c.c.y.o.y.y.! ! ! ! 2.2.R 2.<.W W <.@.% P.% L % L % % P.% P.P.% % P.P.% 0.0.| q.q.q.1.1.1.z.B B X.X.=.=.=.l.c.,.,.,.A A &.",
"=.| c.c.0.y.N.y.o.! ! ! ! R R R R <.l.l.W A % P.% L % % % P.P.P.P.P.% % P.P.% W W b.b.q.| W z.z.z.X.u.X.X.A A A l.,.,.c.c.&.&.&.",
"l.<.<.<.z.3.V.3.B O.O.W W A ] A ] :.:.f.W A % P.P.% % % % P.% P.P.P.P.P.P.% P.% B 2.2.T 2.3.3.A 3.T l.l.T r.r.v v D D 9.9.=.u.u.",
"<.<.T <.z.V.V.3.B O.W O.4.4.] ] 4.f.f.f.W A % P.P.% % % P.P.P.P.P.P.% % % P.P.% X.T 2.2.c.B.3.3.B.T T T T J.J.r.r.3 3 3 D W W =.",
"<.<.<.T T 3.V.3.B O.O.O.O.4.] ] ] W f.f.W A / % P.P.% P.P.P.% % % % v.% % % P.% X.2.2.c.c.3.A 3.3.l.K.K.l.r.v v r.9.D D 9.u.=.u.",
"W <.z.<.<.3.B B 3.4.O.O.O.4.4.% % % % % % % % % % P.% P.P.% Y.Y.% % v.% % % % % % % % c.T A A A A T l.l.T v v v v D 9.D 9.u.W =.",
"q.| | V.V.i.| | i.y.y.@.y.@.% Y.Y.Y.Y.% P.P.P.% P.% % % % U.Y.L.% % v.v.v.% % % L L L % % | H | H H H H c. .l. .a H 7.H H R R 2.",
"z.u.| u.V.i.i.i.| y.y.@.y.% Y.Y.% % Y.Y.% P.P.% P.% Y.Y.Y.Y.Y.% L.% v.% % % % % % % % L L % H | 2.<.c.H H l.l.l. .H H H H p 2.2.",
"q.u.u.u.| | | i.C.M.@.@.@.% Y.Y.Y.% Y.Y.% % % % % % % Y.% % % Y.L.% % % % % % % % % % % % L % | | <.<.H H l.a l. .7.V.H H p 2.2.",
"z.u.u.u.| i.| | i.M.@.y.@.@.% Y.% Y.Y.% j.b.O.p p L % % Y.Y.Y.Y.% % L % % % % % P.P.% Y.Y.% L % H <.<.<.c.l.l. . .H 7.7.H R R p ",
":.&.&.c.c.2.W W W _ u.u.u.@.@.% % % % &.u.f.#.f.A L % % % % % % % % L % % % L % P.% Y.Y.Y.Y.% L % X.4.4.X.u.N.@.@.T T T 3.=.A =.",
"f.&.v v &.W a W 2._ _ u.u.s.V.s.s.&.T T u.f.f.f.#.L % % % % L L L L L L L L P.% % % Y.% Y.Y.Y.% L % 4.4.4.@.@.u.@.T 3.b.b.=.=.=.",
"f.c.&.v c.2.a 2.2.u._ u.u.V.V.s.s.u.u.&.&.f.#.A #.5.L % % % P.P.L % % % % L P.% % Y.% Y.Y.Y.Y.% % L % X.4.u.@.@.@.3.T 3.3.=.l.l.",
"W &.c.&.c.W a 2.2.u._ p _ s.V.V.@.&.u.u.u.f.#.#.#.T L % % % % P.L % % % % % % % -.% % % Y.Y.% % % % % T 4.u.@.@.N.b.T T T A l.l.",
"j.p., F p.W W W W @.z.q.@.=.=.W u.t.&.&.t.l.<.<.<.v v L % % % % % % % % P.P.% % @.:.:.:.% % @.@.@.W W <.W _ _ _ 9.2.2.2.2.` ` ` ",
"j.p.F F p.6.6.W W @.@.z.z.u.W W =.t.t.t.t.<.l.l.<.v { { % % % P.P.% P.P.P.P.% % % W W :.:.n W @.@.<.<.W <._ 9.9.g n 2.n 2.z.` ` ",
"W F p.p.p.6.W 6.W q.q.@.q.u.u.=.W &.t.t.&.W <.l.<.v t.% P.P.P.% P.P.% P.P.% P.% % % :.W W W @.n @.l.l.l.l.9.9.9.9.2.n n n ` ` 9 ",
"5 F F F p.W 6.M.6.@.q.@.q.u.W u.u.&.W &.W W <.W W t.% % % P.% P.% % % % % % P.P.% % % W W @.W W @.W <.W W 9._ 9.9.n > n 2.9 9 z.",
"a Q a Q 4.=.A l.l.b.O.O.b.7.7.7.7.W W F.i.| p.1.p.% P.P.P.% P.% % % % % % P.P.P.P.% % ^ ^ T ..2.2.A A A A u.B u.B n n 3 *.u.E E ",
"&.4.4.Q 4.l.A A =.b.b.O.O.7.J.7.7.F.W W W | 1.p.1.% P.P.P.% % % % % % % % P.% P.% P.% % *.T T 2...A _ A >.X.B X.u.*.3 n 3 7 7 E ",
"a a Q a 4.=.A =.l.p p b.p 7.J.7.J.F.W W i.p.1.| | =.% % % L % % % % % v v % P.% P.P.P.% % ..T ..T A A A A B X.X.X.*.*.n *.E 7 7 ",
"&.Q a Q Q =.=.=.=.O.O.b.p p 7.J.7.i.i.i.i.| | | p.=.A % L L L % % v.% C.1.f.% % P.P.% % % % T T T A _ _ A B X.X.X.*.*.*.*.E u.E ",
"M.u.u.u.T W 4.W W b.b.b.b.u.Y u.u.u.| u.| W W 3.c.>.M >.% % % v.v.% % z.z.c.&.v % % L % % % | N N _ _ >.>.| A W | X.B X.X.W W a ",
"=.&.u.u.T W W W W x   + + 6 6 Y u.u.| v | c.3.W 3.>.>.>.>.% v.v.v.v.% B =.&.v &.% L L L % v.% | | A _ _ _ W A A | u.X.X.X.W W W ",
"M.T &.u.u.4.b.b.b.x x x b.u.Y 6 6 v | | | c.3.3.3.>.>.>.>.,.% v.v.v.% B B &.c.c.&.% L % v.v.% N | >.A A A A W A W u.X.X.X.W W W ",
"=.T &.T T W b.W W x b.b.b.u.u.u.u.u.v | u.3.c.c.c.M 3 >.>.G ,.% % % B =.=.&.c.c.c.u.% v.v.v.v.% w A _ _ A W | | W X.X.X.X.W W W ",
"Z f.f.C ; 7 2.2.7 p ^ ^ 9.6 6 Y u.9.9.> > w  . .w B @.B B B &.l.B | t.t.t.l.l.` l.q.W % v.v.v.% | A A X.X.Q Q Q Q ' ' ' 4.O.W W ",
"V.f.f.C f.2.2.2.D ^ ^ ^ p 6 Y u.Y V 9.9.V w b.b. .f.f.@.B B &.l.B n t.t.| l.l.` l.V.V.q.% % % % B.t.A X.X.u.Q Q Q ' 4.' ' 4.W W ",
"Z C f.f.f.D 7 D D p 9.9.p Y u.u.u.V V 9.9. .b. . .f.f.f.@.B &.B B t.| | | ` l.l.l.W q.q.q.| | y.B.X.A A X.u.Q Q u.' 4.4.B W 4.O.",
"Z ; C f.C 7 D 2.2.9.9.^ p Y u.Y u.9.V V V  .w w  .@.B @.B &.l.B B | n t.| 0 ` l.` W W W W | | | | A A A t.u.Q 0 0 B ' ' B W O.4.",
"b.D.0 -.-.> f.f.f.b.b.$ Z >.>.>.>.| | D a l.l.$.l.l.&.&.B [ N.e.e.c.B ;.;.v | v v ` u.u.` u.u.O.A 2.2.2.y z.z O   p U U >.=.W W ",
"b.D.D.0 -.F F F > Z $   Z >.N >.6 D D a | l.l.v v &.l.B B [ [ [ [ ;.B ;.;.u.| v | ` a u.u.u.u.u.O.2.2.y   O z.z.z.U U p >.=.=.=.",
"b.0 -.0 -.f.f.> F b.Z $ Z N N N 6 a D D | $.$.v v B &.B &.N.N.e.[ ;.;.B B | u.u.u.u.a a u.A A u.O.2.y 2.2.O z z.z.p >.>.>.=.u.u.",
"` -.-.D.-.F F > > b.b.Z b.>.6 6 N | | | D v $.$.l.&.B B &.e.e.N.N.;.c.;.B v v | v ` u.` ` O.A u.u.2.2.y 2.z.z z.z.U >.>.>.W =.u.",
"; 9.9.i + > n 2.2.6 6 S S &.B &.&.u.=.u.u.l.%.%.l.~ ~ ~ c.j.Q Q j.~ ~ ~ ~ Y Y 6 6 a %.%.a Q Q u.u._ _ t.a 2.2.7 D f.f.D f.u.~ ~ ",
";     + i 2.2.2.2.S 2.2.S B &.l.&.=.u.u.=.n %.l.l.c.c.c.~ j.j.6 6 ~ 6 ~ l.u.u.u.u.%.a a %.Q Q Q Q _ t.t.a 7 2.2.D D : D f.u.u.u.",
"f.i i 9.9.2.n 2.n 2.2.2.2.&.B B B =.=.=.=.n %.%.n ~ ~ ~ 3 j.j.6 6 6 ~ l.l.u.Y Y Y %.a M.M.Q u.u.Q _ t._ a 2.2.2.2.D D D D ~ u.w ",
"f.9.9.9.9.2.2.2.n S S S S &.&.&.B W W =.u.%.%.%.%.3   3 ~ Q Q Q Q ~ l.~ 6 Y Y Y 6 %.%.a a 0 Q u.u.t.t._ _ D 2.2.D f.f.f.D u.~ ~ ",
"f.=.c.=.=.w.B.( ( 1.1.1.1.v X.f.X.Q Q a a _ _ _ c.z.` z.` = = E E A +.+.A ) u.u.u.4.4.6 D b b [ [ Q a 4.Q r 8.8.8.l.,.T ,.l. . .",
"X.=.c.c.n ( w.w.( c c c 1.X.v v X.Q Q 4.Q _ _ _ 6 ` z.z.z.E E B.E A A A +.) ) ) ) 4.D 6 D b b 7 b Q a a Q r r 8.8.T T l.,. .l. .",
"X.=.c.=.n ( w.B.B.c 1.S.1.v f.X.X.Q 4.4.Q _ _ c._ 9 9 9 z.B.E E B.A A +.+.) e ) u.D D D 4.[ [ b b a 4.4.4.r   r 8.l.l.,.l.l. .l.",
"X.=.c.=.=.B.B.w.B.1.S.S.S.X.f.f.f.Q Q Q 4.c.6 _ _ 9 ` ` ` B.B.B.B.+.+.p.A ) ) ) u.4.4.4.D b [ 7 b a Q Q Q . . 8.8.,.,.T ,.l.a  .",
"a.t.h t.t.l.l.l.l.>.>.>.h ' c t.t.j j j b.l # d.d.A A A A c u.] c &.&.&.&.@.@.@.@.l l 9.l m u.u.  t [ t t a +.b.+.W W f.f.H M.H "
};
