/* XPM */
static char *result[] = {
/* columns rows colors chars-per-pixel */
"64 64 166 2 ",
"   c black",
".  c #210800",
"X  c #290800",
"o  c #290C00",
"O  c #290C08",
"+  c #291008",
"@  c #311008",
"#  c #311408",
"$  c #3A1408",
"%  c gray19",
"&  c #421408",
"*  c #421808",
"=  c #421C08",
"-  c #421810",
";  c #421C10",
":  c #4A2010",
">  c #4A2410",
",  c #522410",
"<  c #5A2410",
"1  c #522810",
"2  c #522419",
"3  c #522819",
"4  c #562B19",
"5  c #5A2819",
"6  c #5A2D19",
"7  c #5A3119",
"8  c #632D19",
"9  c #633119",
"0  c #633519",
"q  c #633121",
"w  c #633521",
"e  c #6B3521",
"r  c #633921",
"t  c #673921",
"y  c #633B25",
"u  c #673D25",
"i  c #673F25",
"p  c #6B3921",
"a  c #6B3D21",
"s  c #6B3D25",
"d  c #6B3F25",
"f  c #6F3F25",
"g  c #6B3D29",
"h  c #6B3F29",
"j  c #733D21",
"k  c #733F25",
"l  c #6F4329",
"z  c #6B452D",
"x  c #6F492D",
"c  c #734121",
"v  c #734129",
"b  c #734329",
"n  c #734529",
"m  c #734729",
"M  c #73452D",
"N  c #77472D",
"B  c #7B4529",
"V  c #774929",
"C  c #77492D",
"Z  c #774B2D",
"A  c #7B4929",
"S  c #7B4D29",
"D  c #7B492D",
"F  c #7B4B2D",
"G  c #7B4D2D",
"H  c #7B4931",
"J  c #7B4D31",
"K  c #7F4D31",
"L  c #7F5131",
"P  c gray40",
"I  c #804B2D",
"U  c #804D2D",
"Y  c #804D31",
"T  c #804F31",
"R  c #844D31",
"E  c #844F31",
"W  c #805131",
"Q  c #845131",
"!  c #845331",
"~  c #845531",
"^  c #845335",
"/  c #885331",
"(  c #885531",
")  c #8C5531",
"_  c #885335",
"`  c #885535",
"'  c #885735",
"]  c #8C5735",
"[  c #8C5935",
"{  c #8C553A",
"}  c #8C573A",
"|  c #88593A",
" . c #8C593A",
".. c #8C5B3A",
"X. c #90593A",
"o. c #905B3A",
"O. c #94593A",
"+. c #905D3A",
"@. c #905F3A",
"#. c #945D3A",
"$. c #945F3A",
"%. c #905D3E",
"&. c #905F3E",
"*. c #945F3E",
"=. c #94613A",
"-. c #94613E",
";. c #94633E",
":. c #98613E",
">. c #98633E",
",. c #946142",
"<. c #986342",
"1. c #986542",
"2. c #986742",
"3. c #9C6542",
"4. c #9C6742",
"5. c #9C6942",
"6. c #9C6D42",
"7. c #9C6946",
"8. c #9C6B46",
"9. c #A56942",
"0. c #A56D42",
"q. c #A06B46",
"w. c #A06D46",
"e. c #A56D46",
"r. c #A06D4A",
"t. c #A06F4A",
"y. c #A56D4A",
"u. c #A56F4A",
"i. c #A5714A",
"p. c #A5734A",
"a. c #A5754A",
"s. c #A0734E",
"d. c #A9734A",
"f. c #AD714A",
"g. c #AD754A",
"h. c #A9754E",
"j. c #A9774E",
"k. c #AD794A",
"l. c #AD7552",
"z. c #AD7952",
"x. c #AD7D52",
"c. c #AD7D56",
"v. c #B57D52",
"b. c #CD9A00",
"n. c #B58252",
"m. c #B18256",
"M. c #BD8652",
"N. c #B5825A",
"B. c #B5865A",
"V. c #BD865A",
"C. c #BD8A5A",
"Z. c #BD8E5A",
"A. c #BD8A5F",
"S. c #BD8A63",
"D. c #BD8E63",
"F. c #C59263",
"G. c #C59663",
"H. c #CE9A63",
"J. c #CE9A6B",
"K. c #CE9E6B",
"L. c #D6A673",
"P. c #B300DF",
"I. c #009AFF",
"U. c #E6B684",
"Y. c #FFB9DA",
"T. c gray95",
/* pixels */
"w.g.>.Q g.i.i.Q i.C.5.A A a [ [ [ ` ` ` ,.y.y.y.y.d @ d 0.` w w ` E 6 E E y.Y 6 6 t t * t @ w O.w k k k k T -   T 6 F 6 6 w x.x.",
" .>.g.>.>.-.-.-.-.5.5.5.5.a [ g.g.,.` A ` y.y.u o d 0.0.0.w w g.` E E E E y.y.6 6 t  .t  .w @ O.w , , O.k - - - - 6 F 6 F | | | ",
" .g.g.g.Q -.i.-.Q A A 5.5.g.[ [ [ ` ` A ,.y.y.u u 0.0.0.0.g.` ` g.E f.E E y.y.Y y. . .t  .w w w O., , O.k - M.M.- F F F 5.| w w ",
"i.D.=.j.=.z.J.z.z.w. .w.n.v.v v v ' ' ' i.C.C.n 2.N.N. .N.4.R R n.n 1.1.n c.n c.c.v.a a a : : n n 6 6 ^ ^  .:  .: * F * F 5 ^ ^ ",
"i.=.j.=.=.A.z.z.z.w. . .w.v.*.*.v ' ' a i.n 2.2.2.N. . . .R 4.R 4.V.1.1.n n n c.n a +.+.+.n : n n 6 6 6 z.: :  .s v.v.F F 5 ^ x.",
"] =.=.=.=.z.J.A.z.w.w. .w.v.v.*.v ' ' a a n n C.C.N.9 N.N.4.n.4.R 1.n 1.n n n U.c.a v.a a 5.n 5.n 6 z.6 6 :  . .: F v.F F x.^ ^ ",
"i.D.=.j.j.z.J.J.J.n.n.w.w.v.*.v v ' ' ' i.C.C.C.C. .N.N. .n.n.4.4.1.1.n n n n n n a a +.+.5.5.n n ^ z.^ 6 s  . .s * F F F ^ 5 5 ",
"m.h.D.#.h.p.H.H.p.a.a.a.a.V.4.A A ! ! ! ! G G i.G %.F.F.%.z.z.-.-.D =.=.D L L L x.i.& i.i.R R 4 4 a.a.! a.y.y.y.y.a a a a 5 T T ",
"3.#.D.D.h.J J J p.-.R -.a.4.A A 4.a ! 5.a i.G 1 i.%.F.%.5 A A -.-.=.=.D q , x.x.x.i.b i.b R R 4 4 a.a.9 ! y.: : y.;.a a ;.a.a.5 ",
"3.h.#.D.D.J J J p.-.R R -.A 4.V.V.! ! 5.a i.i.G G   5 %.%.A A A -.D =.=.=.L L L L i.b i.i.4 R R 4 9 9 9 ! N N N y.;.a a ;.T T T ",
"m.D.h.#.h.p.J J J R -.-.-.A 4.V.4.a 5.5.! i.G G i.%.%.%.%.A A A A =.D q D , , L , b b b b 4 R R X ! 9 ! ! : N N y.;.C.;.a 5 a.T ",
"V.N.&.&.&.p.Q Q p.7.A 7.7.B 5.B B k.k.! ! Q Q v.4.5.Q p Q ' 7 ' v.*.B *.*.a U a U E E E 8 } } 5 5 I I I I g.K 2   & 5.5.f -.N.N.",
"-.&.N.N.&.p.Q Q Q 7.A S.7.] 5.5.5.k.k.k.6 4.v.4.Q Q Q Q Q v.7 7 7 B B B B U #.#.#.E i.8 8 } 5 5 } I I i.i.K K 2 2 & & f 5.-.c -.",
"a a &.N.&.Q G.p.p.S.7.A A ] ] 5.5.! k.k.k.Q Q 4.4.Q Q 5.5.v.7 7 7 B *.*.*.U #.#.#.i.i.E E } } } V.I < i.I K g.K K 5.f 5.5.-.c N.",
"-.a a &.a Q p.G.G.S.A A 7.5.] B ] ! ! ! 6 Q Q 4.4.5.5.5.% % % % ' z.*.z.% % % #.#.i.i.E i.} V.} V.I I i.I g.g.K K 5.5.f f c c -.",
"x.2.v v v p p p p W W 6.6.[ [ [ i.3.U U 0 2 v v v ' ' % I.I.I.I.% % % % I.I.I.% Q U 3.U 3.y.y. .y., , , Q r.N.N.r.8.Q 8.8.+.j j ",
"x.2.v v v p 3.3.3.W W 6.6.[ [ i.i.3.U U 3.v #.#.#.J % I.I.I.I.I.I.% P P % % I.I.% 3.3.0 U y. .n y.v.Q , ,  . . . .B.8.Q Q +.x.+.",
"c v 2.2.2.E E 3.3.w W w W i.i.[ [ 3.3.3.3.#.#.#.#.=.% I.% % I.I.I.% % % P P % I.% U 3.3.U n y. .n Q Q Q v.N.N. . .B.Q Q Q +.x.x.",
"@.2.Z.Z.2.E 3.E E W 6.W w c [ i.[ U U U U #.v v #.% I.I.% % I.I.I.I.% % % P % I.I.% U 3.U  . . .n Q Q Q Q r.r. .N.B.8.Q Q +.x.x.",
"z.q. .q.v.B.B.O.O.V.~ ~ ~ p E E 3.1.z.1.Q A A A / % I.I.I.I.I.I.I.I.% P % % P % I.%  . .w.Q Q Q Q o.i.i.o.A A A -.H v.<.<.l.*.*.",
"-.v.v. .q.u.O.u.O.w.~ ~ ~ E E E 3.1.Q Q 1./ / A A % I.I.I.I.I.% % I.% P P % P % I.%  .w.n.2.2.Q 2.i.i.i.o.-.z.z.A <.<.H <.l.*.*.",
"A q.v.v.v.u.O.u.u.~ ~ ~ ~ 3.3.E 3.1.Q Q 1.#.#./ A % I.I.% % I.I.% I.% % P % P % I.% w.w.w.2.2.2.x.B B o.o.-.-.-.z.v.<.<.<.A A *.",
"-. .v.v.q.u.B.u.O.~ ~ ~ ~ E E E E 1.z.z.Q A A / / % I.I.% % I.I.I.I.I.% % % P % I.% n.w. .Q x.x.x.o.i.o.o.A A A z.<.<.v.v.*.*.*.",
"z.1.1.1.x.4.C.4.B +.+.Q Q A [ A [ >.>.g.Q A =.( % I.% I.I.I.I.I.I.% I.% % % % I.I.% 3.R 3.4.4.A 4.R z.z.R t.t.v v F F 0.0.-.i.i.",
"1.1.R 1.x.C.C.4.B +.Q +.5.5.[ [ 5.g.g.g.Q A =.A % I.I.% % % I.I.I.I.I.I.% % % I.I.% 3.3.v.V.4.4.V.R R R R K.K.t.t.3 3 3 F Q Q -.",
"1.1.1.R R 4.C.4.B +.+.+.+.5.[ [ [ Q g.g.Q A ( A % I.% % % b.% % % % I.I.I.% I.I.% 3.3.v.v.4.A 4.4.z.L.L.z.t.v v t.0.F F 0.i.-.i.",
"Q 1.x.1.1.4.B B 4.5.+.+.+.5.5.[ 5.Q Q Q Q % % % % % % % % b.% % T.T.% I.I.% I.% % % % % % % % % % R z.z.R v v v v F 0.F 0.i.Q -.",
"w. . .C.C.p. . .p.u.u.#.u.#.#.#.B.k.>.% % P P P % % % b.b.b.% % P.T.Y.% % % % I.% I.I.I.% T.T.T.T.% J J v...z...a J 8.J J E E 3.",
"x.i. .i.C.p.p.p. .u.u.#.u.#.#.#.i.k.% P P % % % % % % % % b.% P.% T.T.T.T.T.% I.% I.I.% T.T.% % T.T.% J J z.z.z...J J J J p 3.3.",
"w.i.i.i. . . .p.Z.N.#.#.#.#.#.i.#.% P % % % % % % % % % % % % P.T.% % % T.% % % % % % % T.T.% T.T.T.% J J z.a z...8.C.J J p 3.3.",
"x.i.i.i. .p. . .p.N.#.u.#.#.i.#.% P % T.T.% I.I.% % % % % P % % T.T.T.T.% % P A A [ [ [ % T.T.% T.% 1.1.v.z.z.....J 8.8.J E E p ",
">.*.*.v.v.3.Q Q Q ` i.i.i.#.#.% P % T.T.T.T.% I.% P % % % P % % % % % % % % P ;.S A [ 5.[ % % % % o.5.5.o.i.B.#.#.R R R 4.-.A -.",
"g.*.v v *.Q a Q 3.` ` i.i.d.% P % T.T.T.% T.% % % I.P P P P P P P P % % % % P z.;.5.5.[ [ / / / / o.5.5.5.#.#.i.#.R 4.n.n.-.-.-.",
"g.v.*.v v.3.a 3.3.i.` i.i.% P % % T.T.T.T.% T.% % I.P % % % % P I.I.% % % P z.;.;.5.5.5.A B / =./ o.5.o.5.i.#.#.#.4.R 4.4.-.z.z.",
"Q *.v.*.v.Q a 3.3.i.` p ` % % % % % T.T.% % % $.% % % % % % % P I.% % % % P ;.S ;.5.5.5.A / =./ / R R R 5.i.#.#.B.n.R R R A z.z.",
"k.a., G a.Q Q Q Q #.x.w.#.-.-.Q i.y.% % y.z.1.1.% % I.I.% % % % % % % % P #.#.#.#.>.>.>.g.#.#.#.#.Q Q 1.Q ` ` ` 0.3.3.3.3.' ' ' ",
"k.a.G G a.7.7.Q Q #.#.x.x.i.Q Q -.y.y.y.y.1.z.% % % I.I.I.I.% I.I.% % % ~ #.#.#.#.Q Q >.>.n Q #.#.1.1.Q 1.` 0.0.g n 3.n 3.x.' ' ",
"Q G a.a.a.7.Q 7.Q w.w.#.w.i.i.-.Q *.y.y.*.Q % % % I.% I.I.% I.I.% I.I.I.% #.#./ / >.>.Q Q Q #.n #.z.z.z.z.0.0.0.0.3.n n n ' ' 9 ",
"5 G G G a.Q 7.N.7.#.w.#.w.i.Q i.i.*.Q *.Q % % % I.I.% % % % % % I.% I.% % % A / / Q Q Q Q #.Q Q #.Q 1.Q Q 0.` 0.0.n > n 3.9 9 x.",
"a ! a ! 5.-.A z.z.n.+.+.n.8.8.8.8.Q Q G.p.% % I.I.I.I.% % % % % % I.% I.I.I.% $.A / B / / R X.3.3.A A A A i.B i.B n n 3 =.i.W W ",
"*.5.5.! 5.z.A A -.n.n.+.+.8.K.8.8.G.Q Q % % I.% I.% I.% % % % % % % % I.I.I.% A A B B B =.R R 3.X.A ` A ,.o.B o.i.=.3 n 3 7 7 W ",
"a a ! a 5.-.A -.z.p p n.p 8.K.8.K.G.Q % % I.I.I.% I.% A A % % % % % P % % % $.$.A B B / =.X.R X.R A A A A B o.o.o.=.=.n =.W 7 7 ",
"*.! a ! ! -.-.-.-.+.+.n.p p 8.K.8.p.% % % % I.I.% % A -.z.% b.% % P P P % g.g.$.$.=./ / / R R R R A ` ` A B o.o.o.=.=.=.=.W i.W ",
"N.i.i.i.R Q 5.Q Q n.n.n.n.i.T i.i.i.% % % P % % v.,.M ,.,.% % b.b.% % % x.v.*.v v +.+.A A  . .N N ` ` ,.,. .A Q  .o.B o.o.Q Q a ",
"-.*.i.i.R Q Q Q Q x   + + 6 6 T i.% b.% P P P % 4.,.,.,.,.% b.b.b.b.% B -.*.v *.v A A +.+. . . . .A ` ` ` Q A A  .i.o.o.o.Q Q Q ",
"N.R *.i.i.5.n.n.n.x x x n.i.T 6 6 % b.b.% P % 4.4.,.,.,.,.% b.b.b.% B B B *.v.v.*.i.i.A A  .N N  .,.A A A A Q A Q i.o.o.o.Q Q Q ",
"-.R *.R R Q n.Q Q x n.n.n.i.i.i.% b.b.b.b.% v.v.v.M 3 ,.,.H % % % -.B -.-.*.v.v.v.i.+.+.i. . .N w A ` ` A Q  . .Q o.o.o.o.Q Q Q ",
"Z g.g.C ; 7 3.3.7 p / / 0.6 6 T % b.b.b.% w ....w B #.B B B *.z.B  .y.y.y.z.z.' z.w.Q Q w.u. . . .A A o.o.! ! ! ! ] ] ] 5.+.Q Q ",
"C.g.g.C g.3.3.3.F / / / p 6 T i.% % % % V w n.n...g.g.#.B B *.z.B n y.y. .z.z.' z.C.C.w.Q  . . .V.y.A o.o.i.! ! ! ] 5.] ] 5.Q Q ",
"Z C g.g.g.F 7 F F p 0.0.p T i.i.i.V V 0.0...n.....g.g.g.#.B *.B B y. . . .' z.z.z.Q w.w.w. . .u.V.o.A A o.i.! ! i.] 5.5.B Q 5.+.",
"Z ; C g.C 7 F 3.3.0.0./ p T i.T i.0.V V V ..w w ..#.B #.B *.z.B B  .n y. .0 ' z.' Q Q Q Q  . . . .A A A y.i.! 0 0 B ] ] B Q +.5.",
"n.F.0 ;.;.> g.g.g.n.n.$ Z ,.,.,.,. . .F a z.z.%.z.z.*.*.B { B.r.r.v.B :.:.v  .v v ' i.i.' i.i.+.A 3.3.3.y x.z O   p Y Y ,.-.Q Q ",
"n.F.F.0 ;.G G G > Z $   Z ,.N ,.6 F F a  .z.z.v v *.z.B B { { { { :.B :.:.i. .v  .' a i.i.i.i.i.+.3.3.y   O x.x.x.Y Y p ,.-.-.-.",
"n.0 ;.0 ;.g.g.> G n.Z $ Z N N N 6 a F F  .%.%.v v B *.B *.B.B.r.{ :.:.B B  .i.i.i.i.a a i.A A i.+.3.y 3.3.O z x.x.p ,.,.,.-.i.i.",
"' ;.;.F.;.G G > > n.n.Z n.,.6 6 N  . . .F v %.%.z.*.B B *.r.r.B.B.:.v.:.B v v  .v ' i.' ' +.A i.i.3.3.y 3.x.z x.x.Y ,.,.,.Q -.i.",
"; 0.0.i + > n 3.3.6 6 D D *.B *.*.i.-.i.i.z.&.&.z.^ ^ ^ v.k.! ! k.^ ^ ^ ^ T T 6 6 a &.&.a ! ! i.i.` ` y.a 3.3.7 F g.g.F g.i.^ ^ ",
";     + i 3.3.3.3.D 3.3.D B *.z.*.-.i.i.-.n &.z.z.v.v.v.^ k.k.6 6 ^ 6 ^ z.i.i.i.i.&.a a &.! ! ! ! ` y.y.a 7 3.3.F F : F g.i.i.i.",
"g.i i 0.0.3.n 3.n 3.3.3.3.*.B B B -.-.-.-.n &.&.n ^ ^ ^ 3 k.k.6 6 6 ^ z.z.i.T T T &.a N.N.! i.i.! ` y.` a 3.3.3.3.F F F F ^ i.w ",
"g.0.0.0.0.3.3.3.n D D D D *.*.*.B Q Q -.i.&.&.&.&.3   3 ^ ! ! ! ! ^ z.^ 6 T T T 6 &.&.a a 0 ! i.i.y.y.` ` F 3.3.F g.g.g.F i.^ ^ ",
"g.-.v.-.-.e.V.) ) 2.2.2.2.v o.g.o.! ! a a ` ` ` v.x.' x.' = = W W A @.@.A _ i.i.i.5.5.6 F b b { { ! a 5.! r 9.9.9.z.<.R <.z.....",
"o.-.v.v.n ) e.e.) c c c 2.o.v v o.! ! 5.! ` ` ` 6 ' x.x.x.W W V.W A A A @._ _ _ _ 5.F 6 F b b 7 b ! a a ! r r 9.9.R R z.<...z...",
"o.-.v.-.n ) e.V.V.c 2.D.2.v g.o.o.! 5.5.! ` ` v.` 9 9 9 x.V.W W V.A A @.@._ e _ i.F F F 5.{ { b b a 5.5.5.r   r 9.z.z.<.z.z...z.",
"o.-.v.-.-.V.V.e.V.2.D.D.D.o.g.g.g.! ! ! 5.v.6 ` ` 9 ' ' ' V.V.V.V.@.@.a.A _ _ _ i.5.5.5.F b { 7 b a ! ! ! . . 9.9.<.<.R <.z.a ..",
"s.y.h y.y.z.z.z.z.,.,.,.h ] c y.y.j j j n.l # f.f.A A A A c i.[ c *.*.*.*.#.#.#.#.l l 0.l m i.i.  t { t t a @.n.@.Q Q g.g.J N.J "
};
