/* XPM */
static char *result[] = {
/* columns rows colors chars-per-pixel */
"64 64 166 2 ",
"   c black",
".  c #210800",
"X  c #290800",
"o  c #290C00",
"O  c #290C08",
"+  c #291008",
"@  c #311008",
"#  c #311408",
"$  c #3A1408",
"%  c gray19",
"&  c #421408",
"*  c #421808",
"=  c #421C08",
"-  c #421810",
";  c #421C10",
":  c #4A2010",
">  c #4A2410",
",  c #522010",
"<  c #522410",
"1  c #5A2410",
"2  c #522810",
"3  c #522419",
"4  c #522819",
"5  c #562B19",
"6  c #5A2819",
"7  c #5A2D19",
"8  c #5A3119",
"9  c #632D19",
"0  c #633119",
"q  c #633519",
"w  c #633121",
"e  c #633521",
"r  c #6B3521",
"t  c #633921",
"y  c #673921",
"u  c #633B25",
"i  c #673D25",
"p  c #673F25",
"a  c #6B3921",
"s  c #6B3D21",
"d  c #6B3D25",
"f  c #6B3F25",
"g  c #6F3F25",
"h  c #6B3D29",
"j  c #6B3F29",
"k  c #733D21",
"l  c #733F25",
"z  c #6F4329",
"x  c #6B452D",
"c  c #6F492D",
"v  c #734121",
"b  c #734129",
"n  c #734329",
"m  c #734529",
"M  c #734729",
"N  c #73452D",
"B  c #77472D",
"V  c #7B4529",
"C  c #774929",
"Z  c #77492D",
"A  c #774B2D",
"S  c #7B4929",
"D  c #7B492D",
"F  c #7B4B2D",
"G  c #7B4D2D",
"H  c #7B4931",
"J  c #7B4D31",
"K  c #7F4D31",
"L  c #7F4F31",
"P  c #7F5131",
"I  c gray40",
"U  c #804B2D",
"Y  c #804D2D",
"T  c #804D31",
"R  c #804F31",
"E  c #844D31",
"W  c #844F31",
"Q  c #805131",
"!  c #845131",
"~  c #845331",
"^  c #845531",
"/  c #845335",
"(  c #885331",
")  c #8C5531",
"_  c #885335",
"`  c #885535",
"'  c #885735",
"]  c #8C5735",
"[  c #8C5935",
"{  c #8C553A",
"}  c #8C573A",
"|  c #88593A",
" . c #8C593A",
".. c #8C5B3A",
"X. c #90593A",
"o. c #905B3A",
"O. c #94593A",
"+. c #905D3A",
"@. c #905F3A",
"#. c #945D3A",
"$. c #945F3A",
"%. c #905D3E",
"&. c #905F3E",
"*. c #945F3E",
"=. c #94613A",
"-. c #94613E",
";. c #94633E",
":. c #98613E",
">. c #98633E",
",. c #946142",
"<. c #986342",
"1. c #986542",
"2. c #986742",
"3. c #9C6542",
"4. c #9C6742",
"5. c #9C6942",
"6. c #9C6D42",
"7. c #9C6946",
"8. c #9C6B46",
"9. c #A56942",
"0. c #A56D42",
"q. c #A06B46",
"w. c #A06D46",
"e. c #A56D46",
"r. c #A06D4A",
"t. c #A06F4A",
"y. c #A56D4A",
"u. c #A56F4A",
"i. c #A5714A",
"p. c #A5734A",
"a. c #A5754A",
"s. c #A0734E",
"d. c #A9734A",
"f. c #AD714A",
"g. c #AD754A",
"h. c #A9754E",
"j. c #A9774E",
"k. c #AD794A",
"l. c #AD7552",
"z. c #AD7952",
"x. c #AD7D52",
"c. c #AD7D56",
"v. c #B57D52",
"b. c #CD9A00",
"n. c #B58252",
"m. c #B18256",
"M. c #BD8652",
"N. c #B5825A",
"B. c #B5865A",
"V. c #BD865A",
"C. c #BD8A5A",
"Z. c #BD8E5A",
"A. c #BD8A5F",
"S. c #BD8A63",
"D. c #BD8E63",
"F. c #C59263",
"G. c #C59663",
"H. c #CE9A63",
"J. c #CE9A6B",
"K. c #CE9E6B",
"L. c #D6A673",
"P. c #B300DF",
"I. c #009AFF",
"U. c #E6B684",
"Y. c #FFB9DA",
"T. c gray95",
/* pixels */
"w.g.>.! g.i.i.! i.C.5.S S s [ [ [ ` ` ` ,.y.y.y.y.f @ f 0.` e e ` W 7 W W y.T 7 7 y y * y @ e O.e l l l l R -   R 7 F 7 7 e x.x.",
" .>.g.>.>.-.-.-.-.5.5.5.5.s [ g.g.,.` S ` y.y.i o f 0.0.0.e e g.` W W W W y.y.7 7 y  .y  .e @ O.e < < O.l - - - - 7 F 7 F | | | ",
" .g.g.g.! -.i.-.! S S 5.5.g.[ [ [ ` ` S ,.y.y.i i 0.0.0.0.g.` ` g.W f.W W y.y.T y. . .y  .e e e O.< < O.l - M.M.- F F F 5.| e e ",
"i.D.=.j.=.z.J.z.z.w. .w.n.v.b b b ' ' ' i.C.C.m 2.N.N. .N.4.E E n.m 1.1.m c.m c.c.v.s s s : : m m 7 7 / /  .:  .: * F * F 6 / / ",
"i.=.j.=.=.A.z.z.z.w. . .w.v.*.*.b ' ' s i.m 2.2.2.N. . . .E 4.E 4.V.1.1.m m m c.m s +.+.+.m : m m 7 7 7 z.: :  .d v.v.F F 6 / x.",
"] =.=.=.=.z.J.A.z.w.w. .w.v.v.*.b ' ' s s m m C.C.N.0 N.N.4.n.4.E 1.m 1.m m m U.c.s v.s s 5.m 5.m 7 z.7 7 :  . .: F v.F F x./ / ",
"i.D.=.j.j.z.J.J.J.n.n.w.w.v.*.b b ' ' ' i.C.C.C.C. .N.N. .n.n.4.4.1.1.m m m m m m s s +.+.5.5.m m / z./ 7 d  . .d * F F F / 6 6 ",
"m.h.D.#.h.p.H.H.p.a.a.a.a.V.4.S S ~ ~ ~ ~ G G i.G %.F.F.%.z.z.-.-.D =.=.D P P P x.i.& i.i.E E 5 5 a.a.~ a.y.y.y.y.s s s s 6 R R ",
"3.#.D.D.h.J J J p.-.E -.a.4.S S 4.s ~ 5.s i.G 2 i.%.F.%.6 S S -.-.=.=.D w < x.x.x.i.n i.n E E 5 5 a.a.0 ~ y.: : y.;.s s ;.a.a.6 ",
"3.h.#.D.D.J J J p.-.E E -.S 4.V.V.~ ~ 5.s i.i.G G   6 %.%.S S S -.D =.=.=.P P P P i.n i.i.5 E E 5 0 0 0 ~ B B B y.;.s s ;.R R R ",
"m.D.h.#.h.p.J J J E -.-.-.S 4.V.4.s 5.5.~ i.G G i.%.%.%.%.S S S S =.D w D < < P < n n n n 5 E E X ~ 0 ~ ~ : B B y.;.C.;.s 6 a.R ",
"V.N.&.&.&.p.! ! p.7.S 7.7.V 5.V V k.k.~ ~ ! ! v.4.5.! a ! ' 8 ' v.*.V *.*.s Y s Y W W W 9 } } 6 6 U U U U g.K 3   & 5.5.g -.N.N.",
"-.&.N.N.&.p.! ! ! 7.S S.7.] 5.5.5.k.k.k.7 4.v.4.! ! ! ! ! v.8 8 8 V V V V Y #.#.#.W i.9 9 } 6 6 } U U i.i.K K 3 3 & & g 5.-.v -.",
"s s &.N.&.! G.p.p.S.7.S S ] ] 5.5.~ k.k.k.! ! 4.4.! ! 5.5.v.8 8 8 V *.*.*.Y #.#.#.i.i.W W } } } V.U 1 i.U K g.K K 5.g 5.5.-.v N.",
"-.s s &.s ! p.G.G.S.S S 7.5.] V ] ~ ~ ~ 7 ! ! 4.4.5.5.5.5.' v.v.' z.*.z.z.Y #.#.#.i.i.W i.} V.} V.U U i.U g.g.K K 5.5.g g v v -.",
"x.2.b b b a a a a Q Q 6.6.[ [ [ i.3.Y Y q 3 b b b ' ' ' =.4.) ) ) x.L L L 0 0 ! ! Y 3.Y 3.y.y. .y.< < < ! r.N.N.r.8.! 8.8.+.k k ",
"x.2.b b b a 3.3.3.Q Q 6.6.[ [ i.i.3.Y Y 3.b #.#.#.J J J % % % % ) L L , L 0 0 ! ! 3.3.q Y y. .m y.v.! < <  . . . .B.8.! ! +.x.+.",
"v b 2.2.2.W W 3.3.e Q e Q i.i.[ [ 3.3.3.3.#.#.#.#.=.% % I.I.I.I.% % x.L L ! 0 0 ! Y 3.3.Y m y. .m ! ! ! v.N.N. . .B.! ! ! +.x.x.",
"@.2.Z.Z.2.W 3.W W Q 6.Q e v [ i.[ Y Y Y Y #.b b % % I.I.I.I.% I.I.I.% , , 0 i.! 0 q Y 3.Y  . . .m ! ! ! ! r.r. .N.B.8.! ! +.x.x.",
"z.q. .q.v.B.B.O.O.V.^ ^ ^ a W W 3.1.z.1.! S S % I % I.I.I.I.I.I.I.I.% +.+.q.V.q.! w. . .w.! ! ! ! o.i.i.o.S S S -.H v.<.<.l.*.*.",
"-.v.v. .q.u.O.u.O.w.^ ^ ^ W W W 3.1.! ! 1.( ( % % I.I.% % I.I.I.I.I.I.% +.q.! ! !  . .w.n.2.2.! 2.i.i.i.o.-.z.z.S <.<.H <.l.*.*.",
"S q.v.v.v.u.O.u.u.^ ^ ^ ^ 3.3.W 3.1.! ! 1.#.% I % I.I.% % I.I.I.% % I.% a ! ! q.q. .w.w.w.2.2.2.x.V V o.o.-.-.-.z.v.<.<.<.S S *.",
"-. .v.v.q.u.B.u.O.^ ^ ^ ^ W W W W 1.z.z.! S % I % I.I.I.I.I.I.I.% % I.% +.q.! ! ! n.n.w. .! x.x.x.o.i.o.o.S S S z.<.<.v.v.*.*.*.",
"z.1.1.1.x.4.C.4.V +.+.! ! S [ S [ >.>.g.! S % % I.I.I.I.I.% % I.I.I.I.% ) i.i.i.V 3.3.E 3.4.4.S 4.E z.z.E t.t.b b F F 0.0.-.i.i.",
"1.1.E 1.x.C.C.4.V +.! +.5.5.[ [ 5.g.g.g.! S % % I.% I.I.I.I.I.I.I.I.I.I.% o.i.o.o.E 3.3.v.V.4.4.V.E E E E K.K.t.t.4 4 4 F ! ! -.",
"1.1.1.E E 4.C.4.V +.+.+.+.5.[ [ [ ! g.g.! S % I.I.I.I.I.I.% % % % % I.I.% % % % o.3.3.v.v.4.S 4.4.z.L.L.z.t.b b t.0.F F 0.i.-.i.",
"! 1.x.1.1.4.V V 4.5.+.+.+.5.5.[ 5.! ! ! ! % I.I.I.I.% % % % % % % % % I.% T.T.T.% E 3.v.E S S S S E z.z.E b b b b F 0.F 0.i.! -.",
"w. . .C.C.p. . .p.u.u.#.u.#.#.#.B.k.>.E E % I.I.I.% T.% % % b.% % b.% % % % % T.% S [ 5.S  .J  .J J J J v...z...s J 8.J J W W 3.",
"x.i. .i.C.p.p.p. .u.u.#.u.#.#.#.i.k.>.>.>.+.% % % T.T.% % b.b.% % b.% % % T.T.T.T.% [ [ 5.3.J  .3.1.v.J J z.z.z...J J J J a 3.3.",
"w.i.i.i. . . .p.Z.N.#.#.#.#.#.i.#.E E >.k.n.+.% Y.T.% % % b.b.b.b.b.% % % % % % % % % S 5. .J  . .1.1.J J z.s z...8.C.J J a 3.3.",
"x.i.i.i. .p. . .p.N.#.u.#.#.i.#.#.>.E k.k.n.% T.T.P.P.% % b.% % % % % I % % % I I I I % % 3.3.J J 1.1.1.v.z.z.....J 8.8.J W W a ",
">.*.*.v.v.3.! ! ! ` i.i.i.#.#.#.#.E % % % g.$.% T.T.P.P.% % % % % % % % I % % % I I I I I % ( V ( o.5.5.o.i.B.#.#.E E E 4.-.S -.",
"g.*.b b *.! s ! 3.` ` i.i.d.C.d.d.*.% T.T.% g.g.% % P.% I I % I I I I % % I I % % % % % % I % ( ( o.5.5.5.#.#.i.#.E 4.n.n.-.-.-.",
"g.v.*.b v.3.s 3.3.i.` i.i.C.C.d.% % % % T.% $.S $.% % % % I % % % % % I I % I % I I I I I % ( =.( o.5.o.5.i.#.#.#.4.E 4.4.-.z.z.",
"! *.v.*.v.! s 3.3.i.` a ` d.C.C.% T.T.T.T.% % % % I.I.I.% % % I % I I % % % % % % % % % % ( =.( ( E E E 5.i.#.#.B.n.E E E S z.z.",
"k.a.< G a.! ! ! ! #.x.w.#.-.-.! i.% T.T.T.% I.I.% I.I.% % % I.% I % I I I I % % #.>.>.>.g.#.#.#.#.! ! 1.! ` ` ` 0.3.3.3.3.' ' ' ",
"k.a.G G a.7.7.! ! #.#.x.x.i.! ! -.% T.T.T.% I.I.I.% % } b % I.I.% I % I I I I % % ! ! >.>.m ! #.#.1.1.! 1.` 0.0.h m 3.m 3.x.' ' ",
"! G a.a.a.7.! 7.! w.w.#.w.i.i.-.! *.% % % % % % % b y.y.b % % % % % I % I I I % % >.>.! ! ! #.m #.z.z.z.z.0.0.0.0.3.m m m ' ' 0 ",
"6 G G G a.! 7.N.7.#.w.#.w.i.! i.i.*.! *.! ! 1.! ! y.y.% % % I.% I.I.% I % % I % % ! ! ! ! #.! ! #.! 1.! ! 0.` 0.0.m > m 3.0 0 x.",
"s ~ s ~ 5.-.S z.z.n.+.+.n.8.8.8.8.! ! G.p. .a.2.a.z.% I.I.% I.% I.I.% % I I % % I % V ( ( E X.3.3.S S S S i.V i.V m m 4 =.i.Q Q ",
"*.5.5.~ 5.z.S S -.n.n.+.+.8.K.8.8.G.! ! !  .2.a.2.% I.% I.I.% % % I.% I.% % I I % % V V =.E E 3.X.S ` S ,.o.V o.i.=.4 m 4 8 8 Q ",
"s s ~ s 5.-.S -.z.a a n.a 8.K.8.K.G.! ! p.a.2. . .% I.% I.% % % % % % % I.% % % % % % ( =.X.E X.E S S S S V o.o.o.=.=.m =.Q 8 8 ",
"*.~ s ~ ~ -.-.-.-.+.+.n.a a 8.K.8.p.p.p.p. . . .a.% I.% % % % % % % % Z.% % I.I.I.% % % ( E E E E S ` ` S V o.o.o.=.=.=.=.Q i.Q ",
"N.i.i.i.E ! 5.! ! n.n.n.n.i.R i.i.i. .i. .! ! 4.v.,.% I I % % % % % I.% x.% % % % % % % %  . .B B ` ` ,.,. .S !  .o.V o.o.! ! s ",
"-.*.i.i.E ! ! ! ! c   + + 7 7 R i.i. .b  .v.4.! 4.,.,.% % I I % % % % % -.*.% I I I % % %  . . . .S ` ` ` ! S S  .i.o.o.o.! ! ! ",
"N.E *.i.i.5.n.n.n.c c c n.i.R 7 7 b  . . .v.4.4.4.,.,.,.,.% % % % b.b.b.% *.v.% I I % b.b.% B B  .,.S S S S ! S ! i.o.o.o.! ! ! ",
"-.E *.E E ! n.! ! c n.n.n.i.i.i.i.i.b  .i.4.v.v.v.N 4 ,.,.H <.<.<.% b.b.% *.v.v.% % b.b.b.%  .B e S ` ` S !  . .! o.o.o.o.! ! ! ",
"A g.g.Z ; 8 3.3.8 a ( ( 0.7 7 R i.0.0.> > e ....e V #.V V V *.z.V  .% b.% z.z.' z.% b.b.b.b.%  . .S S o.o.~ ~ ~ ~ ] ] ] 5.+.! ! ",
"C.g.g.Z g.3.3.3.F ( ( ( a 7 R i.R C 0.0.C e n.n...g.g.#.V V *.z.V m y.% % z.z.' z.C.% % b.b.%  .V.y.S o.o.i.~ ~ ~ ] 5.] ] 5.! ! ",
"A Z g.g.g.F 8 F F a 0.0.a R i.i.i.C C 0.0...n.....g.g.g.#.V *.V V y. . . .' z.z.z.! w.w.% % % u.V.o.S S o.i.~ ~ i.] 5.5.V ! 5.+.",
"A ; Z g.Z 8 F 3.3.0.0.( a R i.R i.0.C C C ..e e ..#.V #.V *.z.V V  .m y. .q ' z.' ! ! ! !  . . . .S S S y.i.~ q q V ] ] V ! +.5.",
"n.F.q ;.;.> g.g.g.n.n.$ A ,.,.,.,. . .F s z.z.%.z.z.*.*.V { B.r.r.v.V :.:.b  .b b ' i.i.' i.i.+.S 3.3.3.u x.x O   a T T ,.-.! ! ",
"n.F.F.q ;.G G G > A $   A ,.B ,.7 F F s  .z.z.b b *.z.V V { { { { :.V :.:.i. .b  .' s i.i.i.i.i.+.3.3.u   O x.x.x.T T a ,.-.-.-.",
"n.q ;.q ;.g.g.> G n.A $ A B B B 7 s F F  .%.%.b b V *.V *.B.B.r.{ :.:.V V  .i.i.i.i.s s i.S S i.+.3.u 3.3.O x x.x.a ,.,.,.-.i.i.",
"' ;.;.F.;.G G > > n.n.A n.,.7 7 B  . . .F b %.%.z.*.V V *.r.r.B.B.:.v.:.V b b  .b ' i.' ' +.S i.i.3.3.u 3.x.x x.x.T ,.,.,.! -.i.",
"; 0.0.p + > m 3.3.7 7 D D *.V *.*.i.-.i.i.z.&.&.z./ / / v.k.~ ~ k./ / / / R R 7 7 s &.&.s ~ ~ i.i.` ` y.s 3.3.8 F g.g.F g.i./ / ",
";     + p 3.3.3.3.D 3.3.D V *.z.*.-.i.i.-.m &.z.z.v.v.v./ k.k.7 7 / 7 / z.i.i.i.i.&.s s &.~ ~ ~ ~ ` y.y.s 8 3.3.F F : F g.i.i.i.",
"g.p p 0.0.3.m 3.m 3.3.3.3.*.V V V -.-.-.-.m &.&.m / / / 4 k.k.7 7 7 / z.z.i.R R R &.s N.N.~ i.i.~ ` y.` s 3.3.3.3.F F F F / i.e ",
"g.0.0.0.0.3.3.3.m D D D D *.*.*.V ! ! -.i.&.&.&.&.4   4 / ~ ~ ~ ~ / z./ 7 R R R 7 &.&.s s q ~ i.i.y.y.` ` F 3.3.F g.g.g.F i./ / ",
"g.-.v.-.-.e.V.) ) 2.2.2.2.b o.g.o.~ ~ s s ` ` ` v.x.' x.' = = Q Q S @.@.S _ i.i.i.5.5.7 F n n { { ~ s 5.~ t 9.9.9.z.<.E <.z.....",
"o.-.v.v.m ) e.e.) v v v 2.o.b b o.~ ~ 5.~ ` ` ` 7 ' x.x.x.Q Q V.Q S S S @._ _ _ _ 5.F 7 F n n 8 n ~ s s ~ t t 9.9.E E z.<...z...",
"o.-.v.-.m ) e.V.V.v 2.D.2.b g.o.o.~ 5.5.~ ` ` v.` 0 0 0 x.V.Q Q V.S S @.@._ r _ i.F F F 5.{ { n n s 5.5.5.t   t 9.z.z.<.z.z...z.",
"o.-.v.-.-.V.V.e.V.2.D.D.D.o.g.g.g.~ ~ ~ 5.v.7 ` ` 0 ' ' ' V.V.V.V.@.@.a.S _ _ _ i.5.5.5.F n { 8 n s ~ ~ ~ . . 9.9.<.<.E <.z.s ..",
"s.y.j y.y.z.z.z.z.,.,.,.j ] v y.y.k k k n.z # f.f.S S S S v i.[ v *.*.*.*.#.#.#.#.z z 0.z M i.i.  y { y y s @.n.@.! ! g.g.J N.J "
};
