/* XPM */
static char *result[] = {
/* columns rows colors chars-per-pixel */
"64 64 167 2 ",
"   c black",
".  c #210800",
"X  c #290800",
"o  c #290C00",
"O  c #290C08",
"+  c #291008",
"@  c #311008",
"#  c #311408",
"$  c #3A1408",
"%  c gray19",
"&  c #421408",
"*  c #421808",
"=  c #421C08",
"-  c #421810",
";  c #421C10",
":  c #4A2010",
">  c #4A2410",
",  c #522410",
"<  c #5A2410",
"1  c #522810",
"2  c #522419",
"3  c #522819",
"4  c #562B19",
"5  c #5A2819",
"6  c #5A2D19",
"7  c #5A3119",
"8  c #632D19",
"9  c #633119",
"0  c #633519",
"q  c #633121",
"w  c #633521",
"e  c #6B3521",
"r  c #633921",
"t  c #673921",
"y  c #633B25",
"u  c #673D25",
"i  c #673F25",
"p  c #6B3921",
"a  c #6B3D21",
"s  c #6B3D25",
"d  c #6B3F25",
"f  c #6F3F25",
"g  c #6B3D29",
"h  c #6B3F29",
"j  c #733D21",
"k  c #733F25",
"l  c #6F4329",
"z  c #6B452D",
"x  c #6F492D",
"c  c #734121",
"v  c #734129",
"b  c #734329",
"n  c #734529",
"m  c #734729",
"M  c #73452D",
"N  c #77472D",
"B  c #7B4529",
"V  c #774929",
"C  c #77492D",
"Z  c #774B2D",
"A  c #7B4929",
"S  c #7B492D",
"D  c #7B4B2D",
"F  c #7B4D2D",
"G  c #7B4931",
"H  c #7B4D31",
"J  c #7F4D31",
"K  c #7F4F31",
"L  c #7F5131",
"P  c gray40",
"I  c #804B2D",
"U  c #804D2D",
"Y  c #804D31",
"T  c #804F31",
"R  c #844D31",
"E  c #844F31",
"W  c #805131",
"Q  c #845131",
"!  c #845331",
"~  c #845531",
"^  c #845335",
"/  c #885331",
"(  c #885531",
")  c #8C5531",
"_  c #885335",
"`  c #885535",
"'  c #885735",
"]  c #8C5735",
"[  c #8C5935",
"{  c #8C553A",
"}  c #8C573A",
"|  c #88593A",
" . c #8C593A",
".. c #8C5B3A",
"X. c #90593A",
"o. c #905B3A",
"O. c #94593A",
"+. c #905D3A",
"@. c #905F3A",
"#. c #945D3A",
"$. c #945F3A",
"%. c #905D3E",
"&. c #905F3E",
"*. c #945F3E",
"=. c #94613A",
"-. c #94613E",
";. c #94633E",
":. c #94653E",
">. c #98613E",
",. c #98633E",
"<. c #946142",
"1. c #986342",
"2. c #986542",
"3. c #986742",
"4. c #9C6542",
"5. c #9C6742",
"6. c #9C6942",
"7. c #9C6D42",
"8. c #9C6946",
"9. c #9C6B46",
"0. c #A56942",
"q. c #A56D42",
"w. c #A06B46",
"e. c #A06D46",
"r. c #A56D46",
"t. c #A06D4A",
"y. c #A06F4A",
"u. c #A56D4A",
"i. c #A56F4A",
"p. c #A5714A",
"a. c #A5734A",
"s. c #A5754A",
"d. c #A0734E",
"f. c #A9734A",
"g. c #AD714A",
"h. c #AD754A",
"j. c #A9754E",
"k. c #A9774E",
"l. c #AD794A",
"z. c #AD7552",
"x. c #AD7952",
"c. c #AD7D52",
"v. c #AD7D56",
"b. c #B57D52",
"n. c #CD9A00",
"m. c #B58252",
"M. c #B18256",
"N. c #BD8652",
"B. c #B5825A",
"V. c #B5865A",
"C. c #BD865A",
"Z. c #BD8A5A",
"A. c #BD8E5A",
"S. c #BD8A5F",
"D. c #BD8A63",
"F. c #BD8E63",
"G. c #C59263",
"H. c #C59663",
"J. c #CE9A63",
"K. c #CE9A6B",
"L. c #CE9E6B",
"P. c #D6A673",
"I. c #B300DF",
"U. c #009AFF",
"Y. c #E6B684",
"T. c #FFB9DA",
"R. c gray95",
/* pixels */
"e.h.,.Q h.p.p.Q p.Z.6.A A a [ [ [ ` ` ` <.u.u.u.u.d @ d q.` w w ` E 6 E E u.Y 6 6 t t * t @ w O.w k k k k T -   T 6 D 6 6 w c.c.",
" .,.h.,.,.-.-.-.-.6.6.6.6.a [ h.h.<.` A ` u.u.u o d q.q.q.w w h.` E E E E u.u.6 6 t  .t  .w @ O.w , , O.k - - - - 6 D 6 D | | | ",
" .h.h.h.Q -.p.-.Q A A 6.6.h.[ [ [ ` ` A <.u.u.u u q.q.q.q.h.` ` h.E g.E E u.u.Y u. . .t  .w w w O., , O.k - N.N.- D D D 6.| w w ",
"p.F.=.k.=.x.K.x.x.e. .e.m.b.v v v ' ' ' p.Z.Z.n 3.B.B. .B.5.R R m.n 2.2.n v.n v.v.b.a a a : : n n 6 6 ^ ^  .:  .: * D * D 5 ^ ^ ",
"p.=.k.=.=.S.x.x.x.e. . .e.b.*.*.v ' ' a p.n 3.3.3.B. . . .R 5.R 5.C.2.2.n n n v.n a +.+.+.n : n n 6 6 6 x.: :  .s b.b.D D 5 ^ c.",
"] =.=.=.=.x.K.S.x.e.e. .e.b.b.*.v ' ' a a n n Z.Z.B.9 B.B.5.m.5.R 2.n 2.n n n Y.v.a b.a a 6.n 6.n 6 x.6 6 :  . .: D b.D D c.^ ^ ",
"p.F.=.k.k.x.K.K.K.m.m.e.e.b.*.v v ' ' ' p.Z.Z.Z.Z. .B.B. .m.m.5.5.2.2.n n n n n n a a +.+.6.6.n n ^ x.^ 6 s  . .s * D D D ^ 5 5 ",
"M.j.F.#.j.a.J.J.a.s.s.s.s.C.5.A A ! ! ! ! F F p.F %.G.G.%.x.x.-.-.S =.=.S L L L c.p.& p.p.R R 4 4 s.s.! s.u.u.u.u.a a a a 5 T T ",
"4.#.F.F.j.H H H a.-.R -.s.5.A A 5.a ! 6.a p.F 1 p.%.G.%.5 A A -.-.=.=.S q , c.c.c.p.b p.b R R 4 4 s.s.9 ! u.: : u.;.a a ;.s.s.5 ",
"4.j.#.F.F.H H H a.-.R R -.A 5.C.C.! ! 6.a p.p.F F   5 %.%.A A A -.S =.=.=.L L L L p.b p.p.4 R R 4 9 9 9 ! N N N u.;.a a ;.T T T ",
"M.F.j.#.j.a.H H H R -.-.-.A 5.C.5.a 6.6.! p.F F p.%.%.%.%.A A A A =.S q S , , L , b b b b 4 R R X ! 9 ! ! : N N u.;.Z.;.a 5 s.T ",
"C.B.&.&.&.a.Q Q a.8.A 8.8.B 6.B B l.l.! ! Q Q b.5.6.Q p Q ' 7 ' b.*.B *.*.a U a U E E E 8 } } 5 5 I I I I h.J 2   & 6.6.f -.B.B.",
"-.&.B.B.&.a.Q Q Q 8.A D.8.] 6.6.6.l.l.l.6 5.b.5.Q Q Q Q Q b.7 7 7 B B B B U #.#.#.E p.8 8 } 5 5 } I I p.p.J J 2 2 & & f 6.-.c -.",
"a a &.B.&.Q H.a.a.D.8.A A ] ] 6.6.! l.l.l.Q Q 5.5.Q Q 6.6.b.7 7 7 B *.*.*.U #.#.#.p.p.E E } } } C.I < p.I J h.J J 6.f 6.6.-.c B.",
"-.a a &.a Q a.H.H.D.A A 8.6.] B ] ! ! ! 6 Q Q 5.5.6.6.6.6.' b.b.' x.*.x.x.U #.#.#.p.p.E p.} C.} C.I I p.I h.h.J J 6.6.f f c c -.",
"c.3.v v v p p p p W W 7.7.[ [ [ p.4.U U 0 2 v v v ' ' ' =.5.) ) ) c.K K K 9 9 Q Q U 4.U 4.u.u. .u., , , Q t.B.B.t.9.Q 9.9.+.j j ",
"c.3.v v v p 4.4.4.W W 7.7.[ [ p.p.4.U U 4.v #.#.#.H H H ' ) ) ) % % % % K 9 9 Q Q 4.4.0 U u. .n u.b.Q , ,  . . . .V.9.Q Q +.c.+.",
"c v 3.3.3.E E 4.4.w W w W p.p.[ [ 4.4.4.4.#.#.#.#.=.=.=.=.5.% % U.U.U.U.% % 9 9 Q U 4.4.U n u. .n Q Q Q b.B.B. . .V.Q Q Q +.c.c.",
"@.3.A.A.3.E 4.E E W 7.W w c [ p.[ U U U U #.v v #.' =.=.=.% U.U.U.% U.U.U.U.% % 9 0 U 4.U  . . .n Q Q Q Q t.t. .B.V.9.Q Q +.c.c.",
"x.w. .w.b.V.V.O.O.C.~ ~ ~ p E E 4.2.x.2.Q A A A / / A A A % U.U.U.U.U.U.U.U.% P % e. . .e.Q Q Q Q o.p.p.o.A A A -.G b.1.1.z.*.*.",
"-.b.b. .w.i.O.i.O.e.~ ~ ~ E E E 4.2.Q Q 2./ / A A #.#./ % U.U.U.U.U.U.% % U.U.% %  . .e.m.3.3.Q 3.p.p.p.o.-.x.x.A 1.1.G 1.z.*.*.",
"A w.b.b.b.i.O.i.i.~ ~ ~ ~ 4.4.E 4.2.Q Q 2.#.#./ A #.#./ % U.% % U.U.U.% % U.U.% P % e.e.e.3.3.3.c.B B o.o.-.-.-.x.b.1.1.1.A A *.",
"-. .b.b.w.i.V.i.O.~ ~ ~ ~ E E E E 2.x.x.Q A A / / / / A % U.% % U.U.U.U.U.U.U.% P % m.e. .Q c.c.c.o.p.o.o.A A A x.1.1.b.b.*.*.*.",
"x.2.2.2.c.5.Z.5.B +.+.Q Q A [ A [ ,.,.h.Q A =.( ( o.Q Q % U.U.U.U.% % U.U.U.U.U.% % 4.R 4.5.5.A 5.R x.x.R y.y.v v D D q.q.-.p.p.",
"2.2.R 2.c.Z.Z.5.B +.Q +.6.6.[ [ 6.h.h.h.Q A =.A =.4.o.% U.U.U.U.U.U.U.U.U.U.% U.% % 4.4.b.C.5.5.C.R R R R L.L.y.y.3 3 3 D Q Q -.",
"2.2.2.R R 5.Z.5.B +.+.+.+.6.[ [ [ Q h.h.Q A ( A % % % % U.U.% % % % % U.U.U.U.U.U.% 4.b.b.5.A 5.5.x.P.P.x.y.v v y.q.D D q.p.-.p.",
"Q 2.c.2.2.5.B B 5.6.+.+.+.6.6.[ 6.Q Q Q Q ( ( % R.R.R.% U.% % % % % % % % % U.U.U.U.% b.R A A A A R x.x.R v v v v D q.D q.p.Q -.",
"e. . .Z.Z.a. . .a.i.i.#.i.#.#.#.V.l.,.R R +.+.% R.% % % % % n.% % n.% % % R.% U.U.U.% 6.A  .H  .H H H H b...x...a H 9.H H E E 4.",
"c.p. .p.Z.a.a.a. .i.i.#.i.#.#.#.p.l.,.,.,.+.% R.R.R.R.% % % n.% % n.n.% % R.R.% % % [ [ 6.4.H  .4.2.b.H H x.x.x...H H H H p 4.4.",
"e.p.p.p. . . .a.A.B.#.#.#.#.#.p.#.R R ,.l.% % % % % % % % % n.n.n.n.n.% % % R.T.% 6.A A 6. .H  . .2.2.H H x.a x...9.Z.H H p 4.4.",
"c.p.p.p. .a. . .a.B.#.i.#.#.p.#.#.,.R % % P P P P % % % P % % % % % n.% % I.I.R.R.% [ [ A 4.4.H H 2.2.2.b.x.x.....H 9.9.H E E p ",
",.*.*.b.b.4.Q Q Q ` p.p.p.#.#.#.#.R % P P P P P % % % P % % % % % % % % I.I.R.R.% A [ % % % / B / o.6.6.o.p.V.#.#.R R R 5.-.A -.",
"h.*.v v *.Q a Q 4.` ` p.p.f.Z.f.f.% P % % % % % % P P % % P P P P % P P % I.% % ;.6.% R.R.% / / / o.6.6.6.#.#.p.#.R 5.m.m.-.-.-.",
"h.b.*.v b.4.a 4.4.p.` p.p.Z.Z.f.f.p.% P P P P P % P % P P % % % % % P % % % % ;.;.6.% R.% % % % / o.6.o.6.p.#.#.#.5.R 5.5.-.x.x.",
"Q *.b.*.b.Q a 4.4.p.` p ` f.Z.Z.#.*.p.% % % % % % % % % % P P % P % % % U.U.U.% % % % R.R.R.R.% / R R R 6.p.#.#.V.m.R R R A x.x.",
"l.s., F s.Q Q Q Q #.c.e.#.-.-.Q p.u.*.*.u.x.2.2.% % P P P P % P % U.% % % U.U.% U.U.% R.R.R.% #.#.Q Q 2.Q ` ` ` q.4.4.4.4.' ' ' ",
"l.s.F F s.8.8.Q Q #.#.c.c.p.Q Q -.u.u.u.u.2.x.% % P P P P % P % U.U.% :.~ % % U.U.U.% R.R.R.% #.#.2.2.Q 2.` q.q.g n 4.n 4.c.' ' ",
"Q F s.s.s.8.Q 8.Q e.e.#.e.p.p.-.Q *.u.u.*.Q 2.% % P P P % P % % % % % s.s.#.#.% % % % % % % #.n #.x.x.x.x.q.q.q.q.4.n n n ' ' 9 ",
"5 F F F s.Q 8.B.8.#.e.#.e.p.Q p.p.*.Q *.Q Q 2.% % P % % P % U.U.% U.% % % A A / / Q Q Q Q #.Q Q #.Q 2.Q Q q.` q.q.n > n 4.9 9 c.",
"a ! a ! 6.-.A x.x.m.+.+.m.9.9.9.9.Q Q H.a. .% P % % P P % % U.U.% U.% U.U.% A $.A / B / / R X.4.4.A A A A p.B p.B n n 3 =.p.W W ",
"*.6.6.! 6.x.A A -.m.m.+.+.9.L.9.9.H.Q Q Q  .% % P P % % U.% U.% % % U.U.% U.% A A B B B =.R R 4.X.A ` A <.o.B o.p.=.3 n 3 7 7 W ",
"a a ! a 6.-.A -.x.p p m.p 9.L.9.L.H.Q Q a.% % % % % % U.% % % % % % % U.% U.% $.A B B / =.X.R X.R A A A A B o.o.o.=.=.n =.W 7 7 ",
"*.! a ! ! -.-.-.-.+.+.m.p p 9.L.9.a.a.a.% % % U.U.U.% % x.% % % % % % % % U.% $.$.=./ / / R R R R A ` ` A B o.o.o.=.=.=.=.W p.W ",
"B.p.p.p.R Q 6.Q Q m.m.m.m.p.T p.p.p. .% % % % % % % % <.% U.% % % % % P P % *.v v +.+.A A  . .N N ` ` <.<. .A Q  .o.B o.o.Q Q a ",
"-.*.p.p.R Q Q Q Q x   + + 6 6 T p.p. .% % % P P P % <.<.% % % % % P P % % *.v *.v A A +.+. . . . .A ` ` ` Q A A  .p.o.o.o.Q Q Q ",
"B.R *.p.p.6.m.m.m.x x x m.p.T 6 6 v % n.n.% P P % <.<.% n.n.n.% % % % B B *.b.b.*.p.p.A A  .N N  .<.A A A A Q A Q p.o.o.o.Q Q Q ",
"-.R *.R R Q m.Q Q x m.m.m.p.p.p.p.p.% n.n.n.% % b.M 3 % n.n.% 1.1.-.B -.-.*.b.b.b.p.+.+.p. . .N w A ` ` A Q  . .Q o.o.o.o.Q Q Q ",
"Z h.h.C ; 7 4.4.7 p / / q.6 6 T p.% n.n.n.n.% ..w B #.% n.% *.x.B  .u.u.u.x.x.' x.e.Q Q e.i. . . .A A o.o.! ! ! ! ] ] ] 6.+.Q Q ",
"Z.h.h.C h.4.4.4.D / / / p 6 T p.T % n.n.% % m.m...h.h.% % B *.x.B n u.u. .x.x.' x.Z.Z.e.Q  . . .C.u.A o.o.p.! ! ! ] 6.] ] 6.Q Q ",
"Z C h.h.h.D 7 D D p q.q.p T p.p.p.% % % q...m.....h.h.h.#.B *.B B u. . . .' x.x.x.Q e.e.e. . .i.C.o.A A o.p.! ! p.] 6.6.B Q 6.+.",
"Z ; C h.C 7 D 4.4.q.q./ p T p.T p.q.V V V ..w w ..#.B #.B *.x.B B  .n u. .0 ' x.' Q Q Q Q  . . . .A A A u.p.! 0 0 B ] ] B Q +.6.",
"m.G.0 ;.;.> h.h.h.m.m.$ Z <.<.<.<. . .D a x.x.%.x.x.*.*.B { V.t.t.b.B >.>.v  .v v ' p.p.' p.p.+.A 4.4.4.y c.z O   p Y Y <.-.Q Q ",
"m.G.G.0 ;.F F F > Z $   Z <.N <.6 D D a  .x.x.v v *.x.B B { { { { >.B >.>.p. .v  .' a p.p.p.p.p.+.4.4.y   O c.c.c.Y Y p <.-.-.-.",
"m.0 ;.0 ;.h.h.> F m.Z $ Z N N N 6 a D D  .%.%.v v B *.B *.V.V.t.{ >.>.B B  .p.p.p.p.a a p.A A p.+.4.y 4.4.O z c.c.p <.<.<.-.p.p.",
"' ;.;.G.;.F F > > m.m.Z m.<.6 6 N  . . .D v %.%.x.*.B B *.t.t.V.V.>.b.>.B v v  .v ' p.' ' +.A p.p.4.4.y 4.c.z c.c.Y <.<.<.Q -.p.",
"; q.q.i + > n 4.4.6 6 S S *.B *.*.p.-.p.p.x.&.&.x.^ ^ ^ b.l.! ! l.^ ^ ^ ^ T T 6 6 a &.&.a ! ! p.p.` ` u.a 4.4.7 D h.h.D h.p.^ ^ ",
";     + i 4.4.4.4.S 4.4.S B *.x.*.-.p.p.-.n &.x.x.b.b.b.^ l.l.6 6 ^ 6 ^ x.p.p.p.p.&.a a &.! ! ! ! ` u.u.a 7 4.4.D D : D h.p.p.p.",
"h.i i q.q.4.n 4.n 4.4.4.4.*.B B B -.-.-.-.n &.&.n ^ ^ ^ 3 l.l.6 6 6 ^ x.x.p.T T T &.a B.B.! p.p.! ` u.` a 4.4.4.4.D D D D ^ p.w ",
"h.q.q.q.q.4.4.4.n S S S S *.*.*.B Q Q -.p.&.&.&.&.3   3 ^ ! ! ! ! ^ x.^ 6 T T T 6 &.&.a a 0 ! p.p.u.u.` ` D 4.4.D h.h.h.D p.^ ^ ",
"h.-.b.-.-.r.C.) ) 3.3.3.3.v o.h.o.! ! a a ` ` ` b.c.' c.' = = W W A @.@.A _ p.p.p.6.6.6 D b b { { ! a 6.! r 0.0.0.x.1.R 1.x.....",
"o.-.b.b.n ) r.r.) c c c 3.o.v v o.! ! 6.! ` ` ` 6 ' c.c.c.W W C.W A A A @._ _ _ _ 6.D 6 D b b 7 b ! a a ! r r 0.0.R R x.1...x...",
"o.-.b.-.n ) r.C.C.c 3.F.3.v h.o.o.! 6.6.! ` ` b.` 9 9 9 c.C.W W C.A A @.@._ e _ p.D D D 6.{ { b b a 6.6.6.r   r 0.x.x.1.x.x...x.",
"o.-.b.-.-.C.C.r.C.3.F.F.F.o.h.h.h.! ! ! 6.b.6 ` ` 9 ' ' ' C.C.C.C.@.@.s.A _ _ _ p.6.6.6.D b { 7 b a ! ! ! . . 0.0.1.1.R 1.x.a ..",
"d.u.h u.u.x.x.x.x.<.<.<.h ] c u.u.j j j m.l # g.g.A A A A c p.[ c *.*.*.*.#.#.#.#.l l q.l m p.p.  t { t t a @.m.@.Q Q h.h.H B.H "
};
