/* XPM */
static char *result[] = {
/* columns rows colors chars-per-pixel */
"64 64 211 2 ",
"   c black",
".  c #260C03",
"X  c #311108",
"o  c #2F3135",
"O  c #313131",
"+  c #38343A",
"@  c #3E3D3B",
"#  c #421808",
"$  c #421910",
"%  c #4A2110",
"&  c #522613",
"*  c #5A2C19",
"=  c #5A3119",
"-  c #633319",
";  c #633521",
":  c #663B22",
">  c #6B3D22",
",  c #6B3C26",
"<  c #733E23",
"1  c #6B581E",
"2  c #755F1B",
"3  c #7B641B",
"4  c #524B30",
"5  c #6E442A",
"6  c #734121",
"7  c #734429",
"8  c #7B4529",
"9  c #774A2D",
"0  c #7B4B2C",
"q  c #675520",
"w  c #7B4D31",
"e  c #7F5131",
"r  c #746730",
"t  c #283549",
"y  c #1C3D6E",
"u  c #1A3E75",
"i  c #2C3E77",
"p  c #483754",
"a  c #4B3758",
"s  c #5B3B6F",
"d  c #5D3C72",
"f  c #18407D",
"g  c #234579",
"h  c #494846",
"j  c #504B45",
"k  c #5A574C",
"l  c #585751",
"z  c #625F4F",
"x  c #625A51",
"c  c #6A6758",
"v  c #746C57",
"b  c #624A68",
"n  c #666666",
"m  c #7B6E63",
"M  c #657969",
"N  c #7B7866",
"B  c #727272",
"V  c #7F7F7C",
"C  c #804B2D",
"Z  c #834E31",
"A  c #845232",
"S  c #895635",
"D  c #8C5737",
"F  c #8C593A",
"G  c #925D3C",
"H  c #826F37",
"J  c #94613D",
"K  c #98633E",
"L  c #946142",
"P  c #9A6542",
"I  c #9C6943",
"U  c #827C56",
"Y  c #A46C43",
"T  c #A46D4A",
"R  c #A5724A",
"E  c #AC754B",
"W  c #AD794A",
"Q  c #AD7552",
"!  c #AD7B52",
"~  c #B57D52",
"^  c #867A69",
"/  c #897776",
"(  c #A9820B",
")  c #CB9801",
"_  c #CFB93C",
"`  c #FFC700",
"'  c #FFC904",
"]  c #FFCB0B",
"[  c #FFCD13",
"{  c #FFCE1A",
"}  c #FFD016",
"|  c #FFD21B",
" . c #FFD224",
".. c #FFD32C",
"X. c #FFD434",
"o. c #FFD935",
"O. c #FFD63B",
"+. c #FFDA3D",
"@. c #B58253",
"#. c #BD8652",
"$. c #B5835A",
"%. c #BD865A",
"&. c #BD8A5B",
"*. c #85836A",
"=. c #8B8674",
"-. c #958A75",
";. c #989679",
":. c #BD8E63",
">. c #A28F7C",
",. c #A3967D",
"<. c #B9AC63",
"1. c #CFBB4A",
"2. c #CA9766",
"3. c #FFD646",
"4. c #FFDB44",
"5. c #FFDB4B",
"6. c #FFDD54",
"7. c #FFDD5B",
"8. c #FFE342",
"9. c #FFE54C",
"0. c #FFE654",
"q. c #FFE35C",
"w. c #FFE95D",
"e. c #FFDE65",
"r. c #FFE464",
"t. c #FFE965",
"y. c #FFE46C",
"u. c #FFEA6B",
"i. c #FFE473",
"p. c #FFEB73",
"a. c #FFE47C",
"s. c #FFEB7C",
"d. c #0A49AB",
"f. c #52418E",
"g. c #734295",
"h. c #004FC8",
"j. c #8245AA",
"k. c #8B47B7",
"l. c #9049BE",
"z. c #994BCC",
"x. c #A44EDC",
"c. c #AC50E7",
"v. c #B653F5",
"b. c #BC54FF",
"n. c #878685",
"m. c #9A9988",
"M. c #9C9C99",
"N. c #AD9883",
"B. c #AAA582",
"V. c #B5A789",
"C. c #B6B38B",
"Z. c #BEBB91",
"A. c #98A0B6",
"S. c #ADADAC",
"D. c #B5B4B4",
"F. c #BABABA",
"G. c #C8AE94",
"H. c #C6B896",
"J. c #D5BA9D",
"K. c #E6B684",
"L. c #A0D2BA",
"P. c #CBC89A",
"I. c #D1CB9D",
"U. c #FFE584",
"Y. c #FFEC82",
"T. c #FFE68A",
"R. c #FFED8B",
"E. c #FFF085",
"W. c #FFF18D",
"Q. c #FFEE94",
"!. c #FFEC98",
"~. c #FFF194",
"^. c #FFF29C",
"/. c #D9C7A4",
"(. c #DAD6A5",
"). c #D1CDB5",
"_. c #E9CAAB",
"`. c #E1DDA8",
"'. c #EAD7B8",
"]. c #F6D5B3",
"[. c #E7E3AD",
"{. c #FFECA6",
"}. c #FFF3A3",
"|. c #FFF5AC",
" X c #ECE8B0",
".X c #F2EDB4",
"XX c #FEEFB3",
"oX c #F6F1B7",
"OX c #FFF4B3",
"+X c #FFF9B5",
"@X c #FFF3BB",
"#X c #FFFABC",
"$X c #C3C3C3",
"%X c #CDCDCD",
"&X c #DADADA",
"*X c #FFF5C4",
"=X c #FFF9C6",
"-X c #FFF5CB",
";X c #FFF9CE",
":X c #EEEBDA",
">X c #FFF6D4",
",X c #FFF8D3",
"<X c #FFF7DA",
"1X c #FFF9DC",
"2X c #E3E3E3",
"3X c #EDEDED",
"4X c #FFFAE3",
"5X c #FFFCEC",
"6X c #F1F1F1",
"7X c #FFFDF3",
"8X c #FFFFFE",
/* pixels */
"Y E K A E R T A R &.I 8 8 : D S S S S D J R T T T > X 6 Y S : ; S Z * Z Z T Z * * : : # : X ; G ; < < < < Z $   Z * w * * : ! ! ",
"F K E K K J J J J I I I I 6 D W W L S 0 S T T : . 5 Y Y Y - ; E S Z Z Z Z T T * = : F : F ; X G ; & & G < $ $ $ $ * 0 * 0 F F F ",
"F E E E Z K R L Z 0 0 I I E D D S S S 0 L T T : > Y Y Y Y E S S E Z E Z A T T Z I F F ; D : : ; D & & D < $ #.#.$ w 0 0 I F ; ; ",
"R :.J E K ! 2.! ! I F Y @.@.7 6 5 S S F R &.&.7 P $.$.S $.P Z Z #.7 P P 7 ! 7 ~ ! ! 6 6 > $ $ 8 < * * S A G $ G $ # 0 # 9 * A A ",
"R J W J J &.! ! ! I F F Y ~ K G 7 A S - R 7 P P P $.F F F Z P Z I &.P P 7 7 7 $.7 6 F F G 7 % 7 8 * * * ! % % F , ~ ~ 0 9 * A ! ",
"S J J J J W 2.2.! R I F I 8X1XK 7 S S 6 4X7X7 &.&.$.= $.$.P @.P Z K 5 P 7 7 5 K.! 7X5X6 > I 7 I <X8X! * * $ F F $ w ~ 0 w ! A A ",
"R :.J R E ! 2.2.2.$.@.I I 4Xq.7 7 D S A p.;X&.&.&.8X;X$.F @.<XXX4XP P 5 =X7 7 7 7 @XY.G F I P 7 5.7X! S = , F F 7 # 0 0 w Z * * ",
"@.E :.G E R 2.2.R W R R E <X .-X0 A A ,XO.T.7XR w 5X4.2.G 4Xe.` i.4XJ J o.e e e 5Xa.3.,XR A Z *X[ 7XR A R T R T E - : , , * e e ",
"P G :.:.E w w w R L Z K R 1X] r.I - D a.] } <X& R 5X[ @X* {.[ ` } @XJ OX] & ! ! -X} [ R.7 Z Z 6.` 7XE - A T $ % T P > - P R R * ",
"P E J :.:.w w @X4XJ Z i.J <X` ..#XA =X+.` ` s.7X9 R.' 6.4Xq.` ` ` r.4X+.` Q.e 5Xy.` ` 3.;X* OX{ ` 7X8Xa.A 9 1X@XT K > > K e e e ",
"@.:.! F R R w e.*XZ J ' R.1X` ' +.@XU.] ` ` } 5XR } ` | r.] O.a.X.[ y.[ ` | % >X[ ` ` ] !.OXo.' ` 7Xs.{ A % OXa.T J &.J > * R e ",
"$.$.F L L R Z 6.0.5X8 o.} r.` ` ] +.o.` q. .` O.p.` ` ' ] ` 0.#X4.` ] ' ` ` p.O.` ..0.` 4.o.' ` ` y.[ 8.Z 1X6.e.  # I I , K $.$.",
"K G $.$.G R A 6.] >X8 1X` ] ` ` ` ' ' ` s.}.{ ` ] ` ` ` ` +.s.0.Y...` ` ` ` ] `  .}.i.` ' ' ` ` ` ] ' 4XT *X' e.& # # , I J 6 J ",
"> > G $.G A 2.s.] [ 4X8X` ` ` ` ` ` ` ` Y.u.^.] ` ] Q.` ` 3.E.8.W.+.` ` ^.` ` | ~.p.i.` ` ` ` ` ` ` ' 8X>X[ [ R.w I < I I K 6 $.",
"J > > L > Z R E.[ ` ` 8X8.` ` ` ` ` ` ` Y.w.8.OX` ] #XQ.O.W.~.8XR.~...^.#X` [ |.8.u.i.` ` ` ` ` ` ` 8.4X' ` | !.Z I I 7 > 6 6 J ",
"! P 7 5 7 > > - 3.` ` ` <X` ` ` 3.y.] ` s.w.1Xw.+X| }.t.W.9.}.8X~.8.^.w.|.[ |.u.,Xt.p.` ] s.X.` ` ` 4X` ` ` 6.~ T I A I I F < < ",
"! P 8X5X7 - I I 5.` ` ` ` ` ` ` 3.+Xr.] s.w.1X8X_ ^.w.1X0.E.3X3X8Xs.0.5X9.|.u.8X;Xu.p.] y.+Xo.` ` ` ` ` ` ` 7.F F $.I 5X8XG ! G ",
"6 5 *Xr.4XZ Z P !.[ ` ` ..` ` ` 4.E.u.q.Q.w.4X8XO _ w.8X,X}.M.n.3X^.1X8X1.p.8X8X,Xu.U.r.u.W.+.` ` ` X.` ` | }.F F $.4Xw.>XF ! ! ",
"G I @X[ U.Z Y Z Z ..` ` s.X.` ` X.r.8.p.|.w.1X8XO U <.F.%X8XM.k M.3X8X8X@ 8X8X8X,Xt.|.t.8.t. .` ` O.a.` ` 3.I F $.$.p.] ;XF @.! ",
"W I @X` O.-X$.-X5X3.` ` ' y.O.` ` o.0.p.W.0.4X8XO .X*.*.m.S.B ;.C.M.3XD.*.S.8X8X,X0.W.u.w...` ` 4.y.` ` ' 7.4X,XJ *XX.` -XE J J ",
"G ~ *X[ ` 3.Q.^.U.^.[ ` ` { |.3.` 6.s.OX<.3.6X8XO #X#X[.;.;.c ;.+XC.m.@ .XO 8X3XB.t.=X}.E.4.` 5.OX] ` ` { !.T.^.R.X.` } >XQ J G ",
"0 I 5Xi.` ` [ 5.T.i.] ` ` ] r.~.4.r.8.+XB r 2X8Xo +X#XI.@ C.(.;.I.#Xl o  XB.n.B z =X8X}.4.r.+.^.q.` ` ` [ a.T.3.[ ` ` U.7X8 8 J ",
"K D ~ {.` ` ` ` O.o.' ` ` `  .~.9.9.w.E.v ;.V B O oX*.I.z ;.C.=.C.#XI.4 .X#X@ ,.n 8X-XE.w.0.9.}.{ ` ` ` ] o.X.` ` ` ` @X~ G L G ",
"! P P @X| ` ` ` ` ] ` ` R.` ] 5.s.Y.~.8.r P.(.P.o c Z.k v  Xm.4 B.=X=Xh  Xc I.(.n 8XOX9.^.p.E.3.' ` R.` ` ] ` ` ` ` | -XY K R R ",
"L P Z 7XU.` ` ` ` ` ` `  .}.s.] ..9.}.4XM P.@X#X`.(.c C.v #X.X*.C.*.(.`.k `.z (.x ,XQ.4X~.9. .' R.}.{ ` ` ` ` ` ` ` Q.7X9 A A G ",
"P P P Z Q.` ` ` U. .` ` ] |.w.OX+Xs.}.8XB P.#X#X#X#X(.O v #X#XoX*.o I.#X@ @ oX(.n 8X8X8XQ.W.+X+X0.#X` ` ` X.i.` ` ` {.9 Y R G E ",
"e P ! P |. .` ` ` ^.{ ` ` { }.8.8.8.8.OX8Xn (.#X#X#X#X#XZ.N #X#X#Xv I.#X@ #X#X(.n 8X8X}.8.8.8.8.|.] ` `  .R.` ` `  .@Xw Y R A L ",
"I F F &.&.U.` ` ` U.#X{ ` } ~.s.7X+X0.|.8XB I.#X#X[.#X#XP.*..X.X.XN Z. X@ `. Xl 8X8X7X}.0.@X7Xp.^.' `  .#Xa.` ` ' !.I w Z Z Z P ",
"! R F R &.OX..` ` ` |.#X . ...~.R.8X8X}.;X8XB P.#Xc (.oX[.C.-.,.,..Xk k k l P.B 8X8X*X|.8X8Xs.}.{  ...#X^.` ` ` X.*Xw w w > P P ",
"T R T R F F i.' ` ` s.#X#XR.3.s.R.4X8X8X8X8X%X@ P..Xv C.-.H.B.oX*.Z.z `.#X#XN %X8X8X8X8X8X1Xs.s.4.~.#X+Xy.` ` ] U.I %.0 w > P P ",
"! R R <X-XT @X..` ` ` i.+X9.s.0.r.~.8X8X%XD.=.N N C.(.k ].].].].,.I.-.B.C.=X.X*.$X8X8X8X8XY.t.6.Y.8.#Xy.` ` ` +.*Xw *X4XZ Z Z > ",
"K J G ;Xa.-X8Xy.] ` ` ` #Xu.9.u.+.W.,X8XD.n.m.oX#X=.-.k ].].].].].].].-.*.;.#X X;.F.8X8X,XW.+.u.9.p.#X` ` ` ] a.8X@Xa.<XP G C G ",
"E G < 7 !.O.*X*X..` ` ` q.|.0.|.~.t.}.8X8X8XD.-.6.-./ x ].].].].].].].].].O ;.#XP.B 8X8X!.t.~.|.9.+X6.` ` ` O.-X@XX.{.~ ~ G L K ",
"E ~ L 7 >X5.X.-Xw.] ` ` ` 6.R.|.4X@X^.;X8X8X8XF.A + _.V.J.v m G.].].].].].O S.-.I.B 8X=X}.OX5X^.~.5.` ` ` ] i.@XX.7.<XP I K ! Q ",
"A G ~ G Q !.[ X.{. .` U.` { }.p.8X8X4X5X8X8X8X8X).@ ].]._.^ / n.c G.].].c $X7XD.k B 8X4X5X8X8Xu.|.] ` s.` X.!...[ {.Z Z Z 0 ! Q ",
"W E & 9 R 5X7.`  .] `  .Q.' +.~.^.8X8X8X8X8X8X8X8X%Xj ^ _._./ M.L.M J.].@ 8X8X7XS.B 8X8X8X8XQ.~.X.` !. .` ]  .` e.7XP P P S S S ",
"W E 9 0 R I 7X5.` ` ` ` #XQ.` 4.~.}.8X8X8X8X8X8X8X8X%XO U _._._.'._.].x &X8X8X8X8X3X8X8X8X~.~.o.` ^.#X` ` ` ` 7.7X7 I 7 P ! S S ",
"A 0 R R R I A s.[ ` ` ` ] #X#X+XW.Q.8X8X8X8X8X8X8XO p z.O O / ].].].k O 6X8X8X8X8X8X8X8X8XY.^.#X#X#X' ` ` ` } R.Y I 7 7 7 S S - ",
"* 8X7Xe R A I $.5.' ` ` ] +X}.t.+XE.}.8X8X8X8X8X+ ].I.a z.^ >.@ @ + G.h @ 6X8X8X8X8X8X8X!.W.+Xw.|.+X` ` ` ' e.Y Y 7 % 5 7X8X- @.",
": >X6.1X7X5X7XQ Q X.` ` ` } |.}.9.u.p.}.7X8X8X2Xj ].J.a b.k.^ _.]._.].j G.O 8X8X8X8X7X~.s.t.9.|.}.] ` ` ` 5.8 R 5X5X5X1X3.4Xe w ",
"G I -XO.y.a.T.;X7XR.] ` `  . .!.W.0.u.0.}.7X%X@ Z.`.N.p x.b.k./ G.k >.b O O 8X%X&X7X!.0.u.0.~.~.[ ..` ` [ Q.5X-Xa.T.r.O.<X* = e ",
"> > A {.] 7.5.| !.|. .` ' s.O.6.p.~.4XOXs.).h c d.S.O O a l.k.g.s s d k.+ n D.c / /.s.@X1XR.s.5.+.s.` ` ..OXQ.| 6.5.] @XJ A = = ",
"G A > 1X6.` ` ` | ]  .` ` [ s.^.i.E.}.8X$X/ ^ -.o h.@ U t y t s j.j.j.i o A.y N.-.=.%X8X~.W.y.}.a.' ` '  .] | ` ` ` 7.4XJ A R e ",
"$.E R T -XO.` ` ` ` ` ` ` ` [ a.|.t.p.Z.m.J.N.-.o g M.j.t f d.y u f u u o h.g ^ x V.V ,Xu.u.|.i.] ` ` ` ` ` ` ` ` 5.>XD D A A > ",
"L G R T Z *XO.` ` 7.] ` ` ` ` [ r.t.p.*.N.].V.].>.@ 2XO a g.f.y u u y g.+ u N._.V.V.*.~.u.u.e.[ ` ` ` ` [ 6.` ` 3.-XD G G A A A ",
"$.Z G R T P U.[ ` X.i.Y.` ` ` ` { r.E././ J.].].].+ n O d b.x.s O O O c.z.O ].].I.j.).}.W.q.[ ` ` ` ' s.i...` [ Q.E G G D A A A ",
"K Z K Z Z A 4Xr.] ` ..#XQ.R.i.` ` [ y.Y.`.B J.].x $XO a x.b.b.g.O O O x.v.O k x *.&X=XE.r.[ ` ` a.R.Q.|...` ] i.4XG G D D A Z A ",
"9 E W 8 $ = P 5XO.` ` { +Xt.+X^.^.q.[ i.s.'.n j &X6XO a b.b.b.g.O O k.v.b.O &X&X:X*Xs.r.] r.^.^.#Xw.#X{ ` ` 5.5XA S S S Y G Z A ",
"&.E E 9 E P P P 5X..` ` { }.9.9.p.+X|.+X+Xu.:X3X8X@ p c.b.b.g.+ O O + c.b.c.l 8X,Xp.+X+X|.+Xu.9.9.|.] ` ` O.7XA A S I S D Y Z A ",
"9 9 E E E 9 = 0 0 > { ` ` { }.8.8.8.8.8.8.8.8.7X8XO p b.b.k.+ o O O z.p v.b.t 4X8.8.8.8.8.8.8.8.|.' ` ` ..R A A R S I I 8 A K G ",
"e X 8 E 9 = 0 7X8XY r.' ` ' ..|.R.8.9.OX8X8X8X8XO + b.b.b.v.g.o O O O z.p c.l 8X8X8X7X}.8.9.W.|. .` ` [ p.T 8X7X- 8 S S 8 A G K ",
"@.2.- K K % W ^.OX7X4Xt. .[ s.| X.s.^.~.=X8X8X8XO + x.x.x.g.o h @ O O O z.O 8X8X8X8X*X^.~.Y...{ R.]  .u.4X7X|.}.  > Z Z K J A S ",
"@.2.2.= K 0 0 0 i.{.s.@X*XX.3.i.| 4.r.~.7X8X8X8XO O O O O O h F./ O O O O O 8X8X8X8X5XR.t.X. .s.+.X.;XXXY.!.U.! ! Z Z : L J J J ",
"@.- K - J W W % 0 i.OX7.{.=Xy.0.r.X.4.9.Q.5X8X8XO O O O O h F.I V O o q q 1 F.8X8X5XR.0.+.X.y.5.i.;X{.e.{.U.5 ! ! : L L L J R R ",
"S J J :.J e e % $ #.{.8Xi.T.e.y.q.u.s.~.Q.}.7XS.2 2 2 1 h F.I $.F.j q ( ) ) 2 D.5X}.~.W.s.p.7.r.i.T.i.7X|.~ 5 ! ! Z L L L A K T ",
"$ Y Y 5 . % q K P * * 0 7XU.!.a.4.+.Y.^.4XoX7Xh ) ) ) ( B W A S W F.H 3 2 3 2 l 5X*X,X^.s.o.3.a.!.U.S T : P P = 8 E E w E R A A ",
"$     X > P P P P 8 P P 8 7X*X4X{.p.4.!.!.4XL @ 1 1 q q B W W = = A $XS.S.D.S.F.R 1X^.R.3.Y.{.5X@X8XT T < * P P 9 0 $ 0 E T R R ",
"E 5 : Y Y P 8 P 7 I P P I L 8 8 0 4X@X1X1X5XL $X$X$X$X$X%XW W = * = A ! ! R w e A 7X1X>X@X5XT R A S T A > P P P I 0 0 0 0 S R ; ",
"E Y Y Y Y P P P 7 0 8 w w K G L 8 A A J R G G G F &   & A A A A A A ! A * Z A Z * F J > > - A R R T T S A 0 G Y 0 E E E w R A S ",
"W J ~ K K Y %.D S P P I L < D E F A A 6 > S S S @.@.S @.D # # e A 8 G G 8 A R R R I I * 9 7 7 D D A > Y A ; Y Y Y ~ P Z L ! F F ",
"D J ~ ~ 7 S Y Y S 6 6 6 I G < 7 D S A K A S S S * F ! @.! A e #.A 8 8 0 G S S S S I 0 * w < 7 = 7 A > > A : : Y Y Z Z Q L F ! F ",
"G K ~ J 7 S Y %.%.6 P :.P < Q G G A K Y A S S ~ A = - = ! %.A e &.0 8 G G S ; A R 0 0 0 I D D 7 7 > I I I -   : Y ! Q P ~ Q F ! ",
"F K ~ J K %.%.Y %.P :.:.:.G E E E A A A I ~ * S S - S S S &.%.&.%.J G R C S S S R P P I w 7 D * 7 > A A A . . Y Y K P Z P ! > F ",
"R T , T T Q ! ! ! L L L , S < T Y < < < @.5 X R E 8 0 8 8 6 R D 6 G G G G G G G G 5 7 Y 7 7 R R   : D : : - G ~ G Z Z E E w $.w "
};
