/* XPM */
static char *result[] = {
/* columns rows colors chars-per-pixel */
"64 64 226 2 ",
"   c black",
".  c #000001",
"X  c #000003",
"o  c #000005",
"O  c #000006",
"+  c #000007",
"@  c #00000A",
"#  c #060209",
"$  c #00000E",
"%  c #01000F",
"&  c #02020E",
"*  c #0A000D",
"=  c #0A060F",
"-  c #0F0C0F",
";  c #181500",
":  c #060010",
">  c #060013",
",  c #060312",
"<  c #090512",
"1  c #0A0612",
"2  c #0F0412",
"3  c #0B0515",
"4  c #0E0811",
"5  c #0F0B16",
"6  c #100D17",
"7  c #1C0D11",
"8  c #150D19",
"9  c #140E1B",
"0  c #1A1117",
"q  c #220400",
"w  c #210800",
"e  c #290800",
"r  c #290C00",
"t  c #2F0008",
"y  c #290C08",
"u  c #300800",
"i  c #370E0E",
"p  c #291008",
"a  c #311008",
"s  c #311408",
"d  c #3A1408",
"f  c #21171C",
"g  c #281E1F",
"h  c #2C1E1F",
"j  c #002A00",
"k  c #201B21",
"l  c #192721",
"z  c #103A21",
"x  c #042730",
"c  c #143336",
"v  c #1B3A33",
"b  c #292121",
"n  c #2A2427",
"m  c #292727",
"M  c #2C262A",
"N  c #2A262C",
"B  c #252D2D",
"V  c #2E2A2D",
"C  c #2E2F2F",
"Z  c #362723",
"A  c #33302F",
"S  c #312F30",
"D  c #312F32",
"F  c #2E3232",
"G  c #303230",
"H  c #313132",
"J  c gray20",
"K  c #421408",
"L  c #421808",
"P  c #421C08",
"I  c #421810",
"U  c #421C10",
"Y  c #591416",
"T  c #4A2010",
"R  c #4A2410",
"E  c #522410",
"W  c #5A2410",
"Q  c #522810",
"!  c #522419",
"~  c #522819",
"^  c #562B19",
"/  c #5A2819",
"(  c #5A2D19",
")  c #5A3119",
"_  c #723800",
"`  c #632D19",
"'  c #633119",
"]  c #633519",
"[  c #4A1829",
"{  c #633121",
"}  c #633521",
"|  c #6B3521",
" . c #633921",
".. c #673921",
"X. c #633B25",
"o. c #673D25",
"O. c #673F25",
"+. c #6B3921",
"@. c #6B3D21",
"#. c #6B3D25",
"$. c #6B3F25",
"%. c #6F3F25",
"&. c #6B3D29",
"*. c #6B3F29",
"=. c #733D21",
"-. c #733F25",
";. c #6F4329",
":. c #6B452D",
">. c #6F492D",
",. c #734121",
"<. c #734129",
"1. c #734329",
"2. c #734529",
"3. c #734729",
"4. c #77472D",
"5. c #7B4529",
"6. c #774929",
"7. c #77492D",
"8. c #774B2D",
"9. c #7B4929",
"0. c #7B492D",
"q. c #7B4B2D",
"w. c #7B4D2D",
"e. c #7B4931",
"r. c #7B4D31",
"t. c #7F4D31",
"y. c #7F4F31",
"u. c #7F5131",
"i. c #823713",
"p. c #804B2D",
"a. c #804D2D",
"s. c #804D31",
"d. c #804F31",
"f. c #844D31",
"g. c #844F31",
"h. c #805131",
"j. c #845131",
"k. c #845331",
"l. c #845531",
"z. c #845335",
"x. c #885331",
"c. c #885531",
"v. c #8C5531",
"b. c #885335",
"n. c #885535",
"m. c #885735",
"M. c #8C5735",
"N. c #8C5935",
"B. c #8C553A",
"V. c #8C573A",
"C. c #88593A",
"Z. c #8C593A",
"A. c #8C5B3A",
"S. c #90593A",
"D. c #905B3A",
"F. c #94593A",
"G. c #905D3A",
"H. c #905F3A",
"J. c #945D3A",
"K. c #945F3A",
"L. c #905D3E",
"P. c #905F3E",
"I. c #945F3E",
"U. c #94613A",
"Y. c #94613E",
"T. c #94633E",
"R. c #98613E",
"E. c #98633E",
"W. c #946142",
"Q. c #986342",
"!. c #986542",
"~. c #986742",
"^. c #9C6542",
"/. c #9C6742",
"(. c #9C6942",
"). c #9C6D42",
"_. c #9C6946",
"`. c #9C6B46",
"'. c #A56942",
"]. c #A56D42",
"[. c #A06B46",
"{. c #A06D46",
"}. c #A56D46",
"|. c #A06D4A",
" X c #A06F4A",
".X c #A56D4A",
"XX c #A56F4A",
"oX c #A5714A",
"OX c #A5734A",
"+X c #A5754A",
"@X c #A0734E",
"#X c #A9734A",
"$X c #AD714A",
"%X c #AD754A",
"&X c #A9754E",
"*X c #A9774E",
"=X c #AD794A",
"-X c #AD7552",
";X c #AD7952",
":X c #AD7D52",
">X c #AD7D56",
",X c #B57D52",
"<X c #CC9900",
"1X c #B58252",
"2X c #B18256",
"3X c #BD8652",
"4X c #B5825A",
"5X c #B5865A",
"6X c #BD865A",
"7X c #BD8A5A",
"8X c #BD8E5A",
"9X c #BD8A5F",
"0X c #BD8A63",
"qX c #BD8E63",
"wX c #C59263",
"eX c #C59663",
"rX c #CE9A63",
"tX c #CE9A6B",
"yX c #CE9E6B",
"uX c #D6A673",
"iX c #0050C8",
"pX c #9429DB",
"aX c #FFAC83",
"sX c #E6B684",
"dX c #F3C598",
"fX c gray95",
/* pixels */
"{.%XE.j.%XoXoXj.oX7X(.9.9.@.N.N.N.n.n.n.W..X.X.X.X$.a $.].n.} } n.g.( g.g..Xs.( ( ....L ..a } F.} -.-.-.-.d.I   d.( q.( ( } :X:X",
"Z.E.%XE.E.Y.Y.Y.Y.(.(.(.(.@.N.%X%XW.n.9.n..X.Xo.r $.].].].} } %Xn.g.g.g.g..X.X( ( ..Z...Z.} a F.} E E F.-.I I I I ( q.( q.C.C.C.",
"Z.%X%X%Xj.Y.oXY.j.9.9.(.(.%XN.N.N.n.n.9.W..X.Xo.o.].].].].%Xn.n.%Xg.$Xg.g..X.Xs..XZ.Z...Z.} } } F.E E F.-.I 3X3XI q.q.q.(.C.} } ",
"oXqXU.*XU.;XtX;X;X{.Z.{.1X,X<.<.<.m.m.m.oX7X7X2.~.4X4XZ.4X/.f.f.1X2.!.!.2.>X2.>X>X,X@.@.@.T T 2.2.( ( z.z.Z.T Z.T L q.L q./ z.z.",
"oXU.*XU.U.9X;X;X;X{.Z.Z.{.,XI.I.<.m.m.@.oX2.~.~.~.4XZ.Z.Z.f./.f./.6X!.!.2.2.2.>X2.@.G.G.G.2.T 2.2.( ( ( ;XT T Z.#.,X,Xq.q./ z.:X",
"M.U.U.U.U.;XtX9X;X{.{.Z.{.,X,XI.<.m.m.@.@.2.2.7X7X4X' 4X4X/.1X/.f.!.2.!.2.2.2.sX>X@.,X@.@.(.2.(.2.( ;X( ( T Z.Z.T q.,Xq.q.:Xz.z.",
"oXqXU.*X*X;XtXtXtX1X1X{.{.,XI.<.<.m.m.m.oX7X7X7X7XZ.4X4XZ.1X1X/./.!.!.2.2.2.2.2.2.@.@.G.G.(.(.2.2.z.;Xz.( #.Z.Z.#.L q.q.q.z./ / ",
"2X&XqXJ.&XOXrXrXOX+X+X+X+X6X/.9.9.k.k.k.k.w.w.oXw.L.wXwXL.;X;XY.Y.0.U.U.0.u.u.u.:XoXK oXoXf.f.^ ^ +X+Xk.+X.X.X.X.X@.@.@.@./ d.d.",
"^.J.qXqX&Xr.r.r.OXY.f.Y.+X/.9.9./.@.k.(.@.oXw.Q oXL.wXL./ 9.9.Y.Y.U.U.0.{ E :X:X:XoX1.oX1.f.f.^ ^ +X+X' k..XT T .XT.@.@.T.+X+X/ ",
"^.&XJ.qXqXr.r.r.OXY.f.f.Y.9./.6X6Xk.k.(.@.oXoXw.w.  / L.L.9.9.9.Y.0.U.U.U.u.u.u.u.oX1.oXoX^ f.f.^ ' ' ' k.4.4.4..XT.@.@.T.d.d.d.",
"2XqX&XJ.&XOXr.r.r.f.Y.Y.Y.9./.6X/.@.(.(.k.oXw.w.oXL.L.    9.9.9.9.U.0.{ 0.E E u.E 1.1.1.1.^ f.f.e k.' k.k.T 4.4..XT.7XT.@./ +Xd.",
"6X4XP.P.P.OXj.j.OX_.9._._.5.(.5.5.=X=Xk.k.j.j.,X/.(.j.+.    X m.,XI.5.I.I.@.a.@.a.g.g.g.` V.V./ / p.p.p.p.%Xt.!   K (.(.%.Y.4X4X",
"Y.P.4X4XP.OXj.j.j._.9.0X_.M.(.(.(.=X=X=X( /.,X/.j.j.j.j.j.  J % 3 5.5.5.5.a.J.J.J.g.oX` ` V./ / V.p.p.oXoXt.t.! ! K K %.(.Y.,.Y.",
"@.@.P.4XP.j.eXOXOX0X_.9.9.M.M.(.(.k.=X=X=Xj.j././.j.j.(.(.  X J J > I.I.I.a.J.J.J.oXoXg.g.V.V.V.6Xp.W oXp.t.%Xt.t.(.%.(.(.Y.,.4X",
"Y.@.@.P.@.j.OXeXeX0X9.9._.(.M.5.M.k.k.    + : 5 6 # (.(.(.m.. J J J % ;X;Xa.J.J.J.oXoXg.oXV.6XV.6Xp.p.oXp.%X%Xt.t.(.(.%.%.,.,.Y.",
":X~.<.<.<.+.+.+.+.h.h.).).N.N.N.oX^.a.a.]   4 9 J J 1 = U./.  J J J J $ y.' ' j.j.a.^.a.^..X.XZ..XE E E j.|.4X4X|.`.j.`.`.G.=.=.",
":X~.<.<.<.+.^.^.^.h.h.).).N.N.oXoX^.a.a.^.<.J.- k J J J 8 v.< J J J J , y.'   j.j.^.^.] a..XZ.2..X,Xj.E E Z.Z.Z.Z.5X`.j.j.G.:XG.",
",.<.~.~.~.g.g.^.^.} h.} h.oXoXN.N.^.^.^.^.J.J.J.f M J J J N J J J J J J & j.  ' j.a.^.^.a.2..XZ.2.j.j.j.,X4X4XZ.Z.5Xj.j.j.G.:X:X",
"H.~.8X8X~.g.^.g.g.h.).h.} ,.N.oXN.a.a.a.a.J.<.<.J.V J J J J J J J J J J H '     ' ] a.^.a.Z.Z.Z.2.j.j.j.j.|.|.Z.4X5X`.j.j.G.:X:X",
";X[.Z.[.,X5X5XF.F.6Xl.l.l.+.g.g.^.!.;X!.j.9.9.9.x.J J J J J J J J J J J J J O   j.{.Z.Z.{.j.j.j.j.D.oXoXD.9.9.9.Y.e.,XQ.Q.-XI.I.",
"Y.,X,XZ.[.XXF.XXF.{.l.l.l.g.g.g.^.!.j.j.!.x.g J J J J J J J J J J J J J J J J o j.Z.Z.{.1X~.~.j.~.oXoXoXD.Y.;X;X9.Q.Q.e.Q.-XI.I.",
"9.[.,X,X,XXXF.XXXXl.l.l.l.^.^.g.^.!.j.j.2 n J J J J J J J J J J J J J J J J J J     {.{.{.~.~.~.:X5.5.D.D.Y.Y.Y.;X,XQ.Q.Q.9.9.I.",
"Y.Z.,X,X[.XX5XXXF.l.l.l.l.g.g.g.g.!.;X@ J J J J J J J J J J J J J J J J J J J J J       Z.j.:X:X:XD.oXD.D.9.9.9.;XQ.Q.,X,XI.I.I.",
";X!.!.!.:X/.7X/.5.G.G.j.j.9.N.9.N.E.E.O * S J J J J J J J J J J J J J J J J J J J ^.^.f.^././.9./.f.;X;Xf. X X<.<.q.q.].].Y.oXoX",
"!.!.f.!.:X7X7X/.5.G.j.G.(.(.N.N.(.%X%X%Xj.9.J J J J J J J J J J J J J J J J J J J J ^.^.,X6X/./.6Xf.f.f.f.yXyX X X~ ~ ~ q.j.j.Y.",
"!.!.!.f.f./.7X/.5.G.G.G.G.(.N.N.N.j.%X%Xj.9.c.9.J J J J J J J J J J J J J J J J J J C ,X,X/.9././.;XuXuX;X X<.<. X].q.q.].oXY.oX",
"j.!.:X!.!./.5.5./.(.G.G.G.(.(.N.(.j.j.j.j.c.c.J J J J J J J J J dXJ J J J J J J J J J ,Xf.9.9.9.9.f.;X;Xf.<.<.<.<.q.].q.].oXj.Y.",
"{.Z.Z.7X7XOXZ.Z.OXXXXXJ.XXJ.J.J.5X=XE.f.f.G.G.h J J J dXJ J J dXdXJ J dXJ J J J J J J (.9.Z.r.Z.r.r.r.r.,XA.;XA.@.r.`.r.r.g.g.^.",
":XoXZ.oX7XOXOXOXZ.XXXXJ.XXJ.J.J.oX=XE.E.E.G.G.i Z ^.J dXJ J dXdXdXJ J J J J dXJ J J J N.(.^.r.Z.^.!.,Xr.r.;X;X;XA.r.r.r.r.+.^.^.",
"{.oXoXoXZ.Z.Z.OX8X4XJ.J.J.J.J.oXJ.f.f.E.=X1XG.+.+.j.J dXJ dXdXdXJ J dXdXJ dXdXJ J @X9.9.(.Z.r.Z.Z.!.!.r.r.;X@.;XA.`.7Xr.r.+.^.^.",
":XoXoXoXZ.OXZ.Z.OX4XJ.XXJ.J.oXJ.J.E.f.=X=X1XG.+.+.j.^.J dXdXJ J fXfXJ dXdXdXdXJ @X-.N.N.9.^.^.r.r.!.!.!.,X;X;XA.A.r.`.`.r.g.g.+.",
"E.I.I.,X,X^.j.j.j.n.oXoXoXJ.J.J.J.f.f.I.oX%XK.%X9.G.G.A dXdXJ J fXfXJ dXdXJ J pXJ -.-.(.N.U.x.5.x.D.(.(.D.oX5XJ.J.f.f.f./.Y.9.Y.",
"%XI.<.<.I.j.@.j.^.n.n.oXoX#X7X#X#XI.f.f.oX%X%X%XK.G.f.f.J dXdXdXdXdXdXdXJ J pXJ dXJ n.n.N.x.x.x.x.D.(.(.(.J.J.oXJ.f./.1X1XY.Y.Y.",
"%X,XI.<.,X^.@.^.^.oXn.oXoX7X7X#X#XoXoXI.I.%XK.9.K.).G.G.b J dXdXdXdXJ J dXJ pXJ dXdXJ @X9.5.x.U.x.D.(.D.(.oXJ.J.J./.f././.Y.;X;X",
"j.I.,XI.,Xj.@.^.^.oXn.+.n.#X7X7XJ.I.oXoXoX%XK.K.K.f.G.f.m J J J J J dXdXJ pXpXJ dXdXJ @X-.x.U.x.x.f.f.f.(.oXJ.J.5X1Xf.f.f.9.;X;X",
"=X+XE w.+Xj.j.j.j.J.:X{.J.Y.Y.j.oX.XI.I..X;X!.!.!.Y t 7 J J dXdXJ dXdXJ pXpXJ J J dXdXJ -.J.J.J.J.j.j.!.j.n.n.n.].^.^.^.^.m.m.m.",
"=X+Xw.w.+X_._.j.j.J.J.:X:XoXj.j.Y..X.X.X.X!.;X;XaXdXJ dXJ pXJ dXdXdXJ pXpXJ J J J J dXJ @X2.j.J.J.!.!.j.!.n.].].&.2.^.2.^.:Xm.m.",
"j.w.+X+X+X_.j._.j.{.{.J.{.oXoXY.j.I..X.XI.j.!.;XdXdXJ dXJ J pXJ J J pXpXJ J dXJ dXdXJ J j.j.J.2.J.;X;X;X;X].].].].^.2.2.2.m.m.' ",
"/ w.w.w.+Xj._.4X_.J.{.J.{.oXj.oXoXI.j.I.j.j.!.i.dXdXJ J J iXJ pXpXpXpXJ pXJ dXJ dXdXJ J j.J.j.j.J.j.!.j.j.].n.].].2.R 2.^.' ' :X",
"@.k.@.k.(.Y.9.;X;X1XG.G.1X`.`.`.`.j.j.eXOXZ.+XJ dXdXJ dXJ iXJ J J J J J J J J dXdXdXJ J x.f.S.^.^.9.9.9.9.oX5.oX5.2.2.~ U.oXh.h.",
"I.(.(.k.(.;X9.9.Y.1X1XG.G.`.yX`.`.eXj.j.j.Z.~.+X[ J J J J J J iXiXiXiXiXJ J J dXdXdXJ 5.U.f.f.^.S.9.n.9.W.D.5.D.oXU.~ 2.~ ) ) h.",
"@.@.k.@.(.Y.9.Y.;X+.+.1X+.`.yX`.yXeXj.j.OX+X~.q.q.q.J J pXpXpXJ J J J J pXpXJ J J J @Xx.U.S.f.S.f.9.9.9.9.5.D.D.D.U.U.2.U.h.) ) ",
"I.k.@.k.k.Y.Y.Y.Y.G.G.1X+.+.`.yX`.OXOXOXOXZ.Z.Z.+XJ pXpXpXpXpXJ J J J pXpXpXpXJ J @Xx.x.x.f.f.f.f.9.n.n.9.5.D.D.D.U.U.U.U.h.oXh.",
"4XoXoXoXf.j.(.j.j.1X1X1X1XoXd.oXoXoXZ.oXZ.j.j./.J pXpXpXpXpXJ J J J J pXpXpXpXpXJ J -.9.9.Z.Z.4.4.n.n.W.W.Z.9.j.Z.D.5.D.D.j.j.@.",
"Y.I.oXoXf.j.j.j.j.>.  p p ( ( d.oXoXZ.<.Z.,Xq.q.J J pXpXpXJ J J J J J pXpXpXpXpXJ J -.G.G.Z.Z.Z.Z.9.n.n.n.j.9.9.Z.oXD.D.D.j.j.j.",
"4Xf.I.oXoX(.1X1X1X>.>.>.1XoXd.( ( <.Z.Z.Z.,Xq.q.D J J J J J J J e.5.J J pXpXpXpXJ J J @X9.Z.4.4.Z.W.9.9.9.9.j.9.j.oXD.D.D.j.j.j.",
"Y.f.I.f.f.j.1Xj.j.>.1X1X1XoXoXoXoXoX<.Z.oX/.,X,X0 J J J J J J F Q.Y.5.J J J J J J J J -.oXZ.Z.4.} 9.n.n.9.j.Z.Z.j.D.D.D.D.j.j.j.",
"8.%X%X7.U ) ^.^.) +.x.x.].( ( d.oX].].R R } A.A.} 5.J J J J x ;X5.Z..XB J J J J J J J @X{.XXZ.Z.Z.9.9.D.D.k.k.k.k.M.M.M.(.G.j.j.",
"7X%X%X7.%X^.^.^.q.x.x.x.+.( d.oXd.6.].].6.} 1X1XA.%XJ J J J c ;X5.2..X.Xl J J J J J q.{.j.Z.Z.Z.6X.X9.D.D.oXk.k.k.M.(.M.M.(.j.j.",
"8.7.%X%X%Xq.) q.q.+.].].+.d.oXoXoX6.6.].].A.1XA.A.%X<X<XJ J v 5.5..XZ.Z.G J J J J J q.q.{.Z.Z.XX6XD.9.9.D.oXk.k.oXM.(.(.5.j.(.G.",
"8.U 7.%X7.) q.^.^.].].x.+.d.oXd.oX].6.6.6.A.} } _ <X<XJ j z ;X5.5.Z.2..XZ.J J <X<X<XJ q.j.Z.Z.Z.Z.9.9.9..XoXk.] ] 5.M.M.5.j.G.(.",
"1XwX] T.T.R %X%X%X1X1Xd 8.W.W.W.W.Z.Z.q.@.;X;XL.u q ; I.5.B.5X|.|.,X5.R.R.J <X<X<X<XJ oXm.oXoXG.9.^.^.^.X.:X:.y   +.s.s.W.Y.j.j.",
"1XwXwX] T.w.w.w.R 8.d   8.W.4.W.( q.q.@.Z.;X;X<.<.I.;X5.5.B.B.B.B.R.5.R.R.J J J J J J oXoXoXoXoXG.^.^.X.  y :X:X:Xs.s.+.W.Y.Y.Y.",
"1X] T.] T.%X%XR w.1X8.d 8.4.4.4.( @.q.q.Z.L.L.<.<.5.I.5.I.5X5X|.B.R.R.5.5.Z.oXoXq.q.@.@.oX9.9.oXG.^.X.^.^.y :.:X:X+.W.W.W.Y.oXoX",
"m.T.T.wXT.w.w.R R 1X1X8.1XW.( ( 4.Z.Z.Z.q.<.L.L.;XI.5.5.I.|.|.5X5XR.,XR.5.<.<.Z.<.m.oXm.m.G.9.oXoX^.^.X.^.:X:.:X:Xs.W.W.W.j.Y.oX",
"U ].].O.p R 2.^.^.( ( 0.0.I.5.I.I.oXY.oXoX;XP.P.;Xz.z.z.,X=Xk.k.=Xz.z.z.z.d.d.( ( @.P.P.@.k.k.oXoXn.n..X@.^.^.) q.%X%Xq.%XoXz.z.",
"U     p O.^.^.^.^.0.^.^.0.5.I.;XI.Y.oXoXY.2.P.;X;X,X,X,Xz.=X=X( ( z.( z.;XoXoXoXoXP.@.@.P.k.k.k.k.n..X.X@.) ^.^.q.q.T q.%XoXoXoX",
"%XO.O.].].^.2.^.2.^.^.^.^.I.5.5.5.Y.Y.Y.Y.2.P.P.2.z.z.z.~ =X=X( ( ( z.;X;XoXd.d.d.P.@.4X4Xk.oXoXk.n..Xn.@.^.^.^.^.q.q.q.q.z.oX} ",
"%X].].].].^.^.^.2.0.0.0.0.I.I.I.5.j.j.Y.oXP.P.P.P.~   ~ z.k.k.k.k.z.;Xz.( d.d.d.( P.P.@.@.] k.oXoX.X.Xn.n.q.^.^.q.%X%X%Xq.oXz.z.",
"%XY.,XY.Y.}.6Xv.v.~.~.~.~.<.D.%XD.k.k.@.@.n.n.n.,X:Xm.:Xm.P P h.h.9.H.H.9.b.oXoXoX(.(.( q.1.1.B.B.k.@.(.k. .'.'.'.;XQ.f.Q.;XA.A.",
"D.Y.,X,X2.v.}.}.v.,.,.,.~.D.<.<.D.k.k.(.k.n.n.n.( m.:X:X:Xh.h.6Xh.9.9.9.H.b.b.b.b.(.q.( q.1.1.) 1.k.@.@.k. . .'.'.f.f.;XQ.A.;XA.",
"D.Y.,XY.2.v.}.6X6X,.~.qX~.<.%XD.D.k.(.(.k.n.n.,Xn.' ' ' :X6Xh.h.6X9.9.H.H.b.| b.oXq.q.q.(.B.B.1.1.@.(.(.(. .   .'.;X;XQ.;X;XA.;X",
"D.Y.,XY.Y.6X6X}.6X~.qXqXqXD.%X%X%Xk.k.k.(.,X( n.n.' m.m.m.6X6X6X6XH.H.+X9.b.b.b.oX(.(.(.q.1.B.) 1.@.k.k.k.w w '.'.Q.Q.f.Q.;X@.A.",
"@X.X*..X.X;X;X;X;XW.W.W.*.M.,..X.X=.=.=.1X;.s $X$X9.9.9.9.,.oXN.,.I.I.I.I.J.J.J.J.;.;.].;.3.oXoX  ..B.....@.H.1XH.j.j.%X%Xr.4Xr."
};
