/* XPM */
static char *result[] = {
/* columns rows colors chars-per-pixel */
"64 64 209 2 ",
"   c black",
".  c #260A03",
"X  c #291008",
"o  c #341208",
"O  c #3F3B2F",
"+  c #333333",
"@  c #393937",
"#  c #3A383A",
"$  c #421808",
"%  c #421910",
"&  c #4A2110",
"*  c #522411",
"=  c #532919",
"-  c #5A2C19",
";  c #5A3119",
":  c #633219",
">  c #633521",
",  c #663B22",
"<  c #6B3D22",
"1  c #6B3C26",
"2  c #733E23",
"3  c #715C1E",
"4  c #7D641A",
"5  c #4F472E",
"6  c #6D442B",
"7  c #734121",
"8  c #734429",
"9  c #7B4529",
"0  c #774A2D",
"q  c #7B4A2B",
"w  c #675522",
"e  c #7C4D31",
"r  c #7F5131",
"t  c #67633E",
"y  c #2C3748",
"u  c #3D3642",
"i  c #223D62",
"p  c #42374A",
"a  c #4B3957",
"s  c #583D6B",
"d  c #623F79",
"f  c #3A557F",
"g  c #494844",
"h  c #514C47",
"j  c #545349",
"k  c #5C564E",
"l  c #575757",
"z  c #635D53",
"x  c #6B6659",
"c  c #75695E",
"v  c #5A566D",
"b  c #4E5873",
"n  c #5F6B67",
"m  c #6A6A69",
"M  c #796965",
"N  c #797763",
"B  c #7B7A79",
"V  c #8C7018",
"C  c #A27D0E",
"Z  c #804B2D",
"A  c #834E31",
"S  c #845232",
"D  c #895534",
"F  c #8C5935",
"G  c #8C553A",
"H  c #8C593A",
"J  c #925D3C",
"K  c #8B7425",
"L  c #94613D",
"P  c #98633E",
"I  c #946142",
"U  c #9A6542",
"Y  c #9C6943",
"T  c #A36C44",
"R  c #A46D4A",
"E  c #A5724A",
"W  c #AC754B",
"Q  c #AD794A",
"!  c #AD7552",
"~  c #AD7B52",
"^  c #B57D52",
"/  c #847668",
"(  c #8D7D6E",
")  c #857777",
"_  c #AA8918",
"`  c #A58826",
"'  c #CB9A02",
"]  c #FFC702",
"[  c #FFC805",
"{  c #FFC708",
"}  c #FFC90B",
"|  c #FFCC13",
" . c #FFCD1C",
".. c #FFD017",
"X. c #FFD11B",
"o. c #FECE26",
"O. c #FFD424",
"+. c #FFD52C",
"@. c #FFD92C",
"#. c #FFDB33",
"$. c #FFD339",
"%. c #FFDF3B",
"&. c #FFE03E",
"*. c #B58252",
"=. c #BD8652",
"-. c #B5835A",
";. c #BD865A",
":. c #BD8A5B",
">. c #AC9A5D",
",. c #BAA253",
"<. c #87856C",
"1. c #8C8A73",
"2. c #968775",
"3. c #989677",
"4. c #BD8E63",
"5. c #A6927E",
"6. c #A3A17F",
"7. c #CA9766",
"8. c #FFD543",
"9. c #FFD74A",
"0. c #FFDA4B",
"q. c #FFD751",
"w. c #FFDC52",
"e. c #FFDC5C",
"r. c #FFE243",
"t. c #FFE34C",
"y. c #FFE554",
"u. c #FFE65B",
"i. c #FFE85F",
"p. c #DFC979",
"a. c #FEDD67",
"s. c #FFDF72",
"d. c #FFE365",
"f. c #FFE863",
"g. c #FFE46B",
"h. c #FFEA6C",
"j. c #FFE474",
"k. c #FFEC75",
"l. c #FFE57B",
"z. c #FFEC7B",
"x. c #124695",
"c. c #0B4AA7",
"v. c #754594",
"b. c #7A618B",
"n. c #83598F",
"m. c #8A6F87",
"M. c #8848B2",
"N. c #984DCB",
"B. c #9D4ED2",
"V. c #A450DD",
"C. c #AB51E7",
"Z. c #B052EE",
"A. c #B453F4",
"S. c #BB55FE",
"D. c #8B8B8B",
"F. c #9A9985",
"G. c #96918E",
"H. c #AB998A",
"J. c #AAA783",
"K. c #BCA78D",
"L. c #B8B58C",
"P. c #BFBC91",
"I. c #A8A7A7",
"U. c #B7B7B6",
"Y. c #C5AC92",
"T. c #D2B69B",
"R. c #E6B684",
"E. c #DBBEA1",
"W. c #C5C295",
"Q. c #D2CE9E",
"!. c #FFE486",
"~. c #FFED84",
"^. c #FFEC8C",
"/. c #FFF087",
"(. c #FFF08C",
"). c #FFED93",
"_. c #FDE698",
"`. c #FFEC9C",
"'. c #FFF294",
"]. c #FFF39C",
"[. c #DFC1A3",
"{. c #DBD6A4",
"}. c #EACAAA",
"|. c #E4DAA9",
" X c #F6D4B2",
".X c #E9E4AD",
"XX c #FFEDA7",
"oX c #FFF4A3",
"OX c #FFF6AB",
"+X c #FFF8AF",
"@X c #F4EEB3",
"#X c #F5F0B5",
"$X c #FFF6B2",
"%X c #FFF8B4",
"&X c #FBF5BA",
"*X c #FFFABC",
"=X c #BCEFC4",
"-X c #E8DCD0",
";X c #FFFAC3",
":X c #FFF7CA",
">X c #F3E8DC",
",X c #FEF5D4",
"<X c #FFFBD3",
"1X c #FFFBDC",
"2X c gray88",
"3X c #FFFBE2",
"4X c #FFFCEA",
"5X c #F2F2F2",
"6X c #FEFEFD",
/* pixels */
"T W P S W E E A E :.Y q q : F F F D D D I R R R R 7 X 1 T D > > D A - S A R A - - , , $ 1 o : J > 2 2 2 2 A %   A - q - ; > ~ ~ ",
"H P W P I J P P L Y Y Y P 7 F Q Q I D q D R R , . 6 T T T > > W D A A A A R R - - , H : H > o J > * * J 2 % % % % - e - q H H H ",
"H W W W S P E I S q q Y Y W F F F D D 0 I R R , < T T T T W D S W A W A S E R A R H H , H > > > J * * J 2 % =.=.% q e q Y H , > ",
"E 4.L W P ~ 7.~ ! Y H T *.^ 8 8 6 D F F E :.:.8 Y -.;.F ^ T A A *.9 U U 8 ~ 8 ~ ~ ^ , 7 < & & 8 8 - - A S H & H % % q $ e = S S ",
"E L E L L :.^ ~ ~ Y H H T ^ I L 8 D D : E 8 Y P I -.G H H A Y A Y :.Y P 8 8 8 -.8 7 H H J 8 % 8 8 - - - ~ & & H , ^ ^ q q = S ~ ",
"D L L L L ~ 7.7.~ E Y H T ^ ^ J 8 D D 6 7 8 8 :.:.-.: -.-.Y ^ Y A I 6 Y 8 8 6 R.~ < *.< < Y q Y 8 - ~ - ; % H H % e ^ q e ~ S D ",
"E 4.L W Q ~ 7.7.7.*.*.E T ^  .8 8 D H D E 0.:.:.:.H -.-.G *.*.Y P Y I 8 8 8 8 8 8 < 9.`.J Y U 8 8 +.! S - 1 H H 6 $ q q e G - = ",
"*.W 4.J E E 7.7.E W E E E ;.U q 0 S r r j.].e E q L 0.@XJ ~ a.%X*Xq L L q 0.r r ~ E ].l.E A A - - *XE S W R R R R < < < < = A A ",
"U L 4.4.E e e e E I A P E U *X0.Y < S P h.'.g.* E J ;Xl.,X6Xe.*X%Xw.P q a.;X~ ~ ~ j.`.j.:XA A = w.*XE : S R % % R P < < L E E - ",
"Y E L 4.4.e e e E L A A L q *X*Xo.D S a.*X*X).q e s.).l.1Xj.$X*X*X%Xe.:Xk.).g.r j.).*X*Xj.,XA $.*X*X: : S q e 0 R P < < L r S r ",
"-.4.E L ! E q e e S I L o.q ;X*Xg.9.1Xz.*X*X].XX6X`.oX*Xj.g.*Xk.k.$Xg.s.*XoX).r ).].*X*X~.3Xe.g.*X;X,Xw.;X% 9 0 R L :.L < - E r ",
";.-.H I L E S S E Y 0 +.d.$.+X*X*Xj.a.*XOX/.*X;X!.).*X*X^.%X*Xr.r.*X$X^.*X*X^.j.;X*X/.oX*Xa.z.*X*X$X0.g.0.W e y.  $ Y Y 1 L -.-.",
"J H -.-.J E S S ).Y 9 4.$X^.*X*X*X*X^.*X].t./.*XoXoX*X*X*X*Xk.| | k.*X*X*X*XoXoX*X/.t.'.*X).%X*X*X%X).%XE e A ).* $ $ 2 Y J 7 L ",
"< < I -.J S 7.E g.*XY q ;X*X*X*X*X*X*X*X].@.#./.*X*Xz.oX*X*Xt.] ] t.*X*XoXz.*X*X/.@.#.].*X*X*X*X*X*X*X;XZ e ;Xa.A Y 1 Y Y P 7 -.",
"L < < H < S E 4.u.*X;X4X$.oX*X*X*X*X*X*X].@.[ +.(.*Xh.y.oXf.| :X,X} f.oXy.h.*X(.@.] +.].*X*X*X*X*X*XoX9.4X*X*Xd.e U Y 6 2 7 7 L ",
"~ U 8 8 8 2 : 1 1 *X*X*X1X;X*X*X*Xu.*X*X'.@.e.l.@.(.h...%.} D D D ] ..&...h.(.@.O. .@.'.*X*Xu.*X*X*X;X1X;X*X*X%XR Y S Y Y H 2 2 ",
"~ Y 6 8 8 < U Y U *X*X*X;X*X*X*X%Xr.u.*X].@.+.J $.+. .$X$.] D D D 1X] $.XX| @.[ S ] @.].*Xy.r.%X*X*X*X;X*X*X*X;XH -.Y S S H ~ J ",
"7 8 Y [ I A A U  .g.*X*X*X*X*X*X*X%.} u.'.@. .J J $.] `.6XU D W D 1X .e l.] [ : S ] @.'.u.} &.*X*X*X*X*X*X*Xj.$.H -.S A [ J *.~ ",
"J Y :.k.} A U A A ,X*X*Xf.oX*X*X%Xr.] } %.@. .8 J D $.^.J Y Y Y ! ^ A * !.| E S : ] @.&.} ] r.*X*X*X].f.*X*X<X6X-.-.Y | ~.H ~ ~ ",
"! Y H *X;X-.-.J 3X*X%X*X*Xf.oX*X*XOX} { +.O.o.q D D q 7 9 A P A A H 1 H J Y -.E S ] O.X.] } OX*X*XoXf.*X*X$X:X4X3Xe *.;X*X! L L ",
"L ^ ^ '.*X;X:Xe.).l.^.*X*X*Xy.].*X$X%.+.&X} 8.9 q J J D q S n + m : < J J T S r S ] ] Y } %.+X*X].t.*X*X*X^.!.).l.<X:X*X'.! J I ",
"q T ^ 8.*X*X!.!.1X1X:X*X*X*Xh.r.^.'.y.o.U J s.S q L J D <.x #X@ T J J x c x j h T H Y T ] y.'.!.r.h.*X*X*X<X3X1X^.~.*X*X0.q q J ",
"L H ^ ^ *X*X*X*X<XoXOX*X*X*X*Xr.] #.g.O.^.9 q S S S D 1.{.*XP.B U.N 1.*X*X.XF.S S *.*.E | g.#.] t.*X*X*X*XoXOX<X*X*X*X*X4XJ J J ",
"~ I I U ~.*X*X*X*Xz.'.*X'.%X*Xk.X.{ e.X.o.9 L D D H F.{.*X*Xg I.<.*X*X*X.XF.E E 9 U U } O.8.[ X.k.*X%X'.*X'.l.*X*X*X*X~.T I E E ",
"U U A U g.*X*X*X*X*X*X*X(././.*Xk.} !.q.q._.J 9 L D.L.%X*X*Xg 1.*X*X*X*XW.l I.D H S l.| { a.[ k.%X/././.*X*X*X*X*X*X*Xl.q S S J ",
"U I I A A *X*X*X'.oX*X*X*Xy.X.k.z.X.o.W ;X`.D F.F.F.3.{.*X6.3.&X*X#X6..X3.6.3.F.G.U !.^ ^ ] O.z.k.O.y.*X*X*XoX].*X*X*X4XT E P E ",
"S I ~ Y U j.*X*XoXz.oX*X*X'.@.X.X.| } s.S S D 3.3.6.N W.*Xj .X*X&X1.J.1.W.*X*X{.J.1.Y *.A ] | X.X.#.(.*X*XoXz.oX*X*Xj.XXT E S J ",
"T H H :.;.).*X*X*Xk.i.oX*X*Xt.[ XXa.] o.A L H j j k 6.1.|.W.&X*X&X5 {.l *X*X*X*X*X{.N P ] ] e s.] t.*X*XOXi.k.*X*X*X`.e e A A Y ",
"*.E H E :.!.g.*X*XOXf.u.OX*X].#.8.Q P a.s.J 1.W.W.W.<.J.#X*X*X*Xx @ N Q.*X*XW.J.%X6.g + Y Y e O.#.].*XOXu.f.oX*X*Xg._.e e < U U ",
"Y E E E H H $X*X*X*Xh.r.y.i.%Xr.] A A U >.<.|.*X*X*X|.#X<..X*X*XQ.Q.P.<.*XW.1.6.k I.q q Y H e [ r.%Xi.u.r.h.*X*X*X$X:.e e < T U ",
"~ E E E H E s.d.*X*X$Xi.r...t.oX#.{ A Q # # j j J.;X*X<.P.&X*X*X*X*X#XP.j <.6.5 D.F F F q P ] #.OXt...&.i.+X*X*Xg.l.U T A A Z > ",
"P L J ^ ^ U S :X*X*X*X$Xi.[ [ t.+X] A J E W I.<.3.5 P.x Q.&X*Xg *X*X*X&XL.@ 1..X3.G.F P F L [ OXt.[ [ u.$X*X*X*X:XA A A Y J Z J ",
"W I 8 2 J S < s.f.*X*X*Xi.&.[ ] { %.} A E D.<.&X*X#XN + Q.*X*X# @ g ;X*X&XL.<.&X$X<.P F F [ #.[ ] [ r.i.*X*X*Xg.e.A Y ^ *.P J P ",
"W ^ J 8 ^ *X<X6X<X*X*X*X*Xu.[ Q E ] { J H ! <.&X*X&XN Y.z {.*X#  X{.j &X*XL.+ + + + @ P q ] ] L D [ y.*X*X*X*X:X6X:X*XY Y J ! ~ ",
"A I ^ P ^ S $X<Xs.l.*X%X*X*Xt.[ J J E { E W G.3..X<.# K.}.g [.#  X XE.x @XL.B q P T P T ] D L S ] t.*X*X$X*Xl.g.<X+XA A A q ~ ~ ",
"Q E * q E S y.*X<X<X*Xk.'.%Xi.} E R L I R ~ Y I.g 5.( Y.c h # +  X X XT.N J.m L J P P P Q J J J } i.*X'.k.*X<X<X*Xw.Y U U D D D ",
"Q E r q E Y Y *X*X*X*X*Xi.'.%Xi.} R R R T U ! ~ B 5. X X XT.x z Y.T. X}.H.j m I J A S P P 8 S | f.*X'.i.*X*X*X*X*X8 Y 8 U ~ D D ",
"S q E E E Y S `.oX*X*X*Xz.r.'.].r.] R R J D U m.s m.Y.}. Xh 2X5Xn m  XY.m J J D D P P S S S ] &.].(.r.k.*X*X*XoXoXY 8 8 8 D D : ",
"; q e q E S U -.~.*X*X*X*Xu.r.@.&...S P D Z x n.V.M.p <.}.( -X>X=X=X}.G.b.q 9 G.j + S S S L ..r.@.r.y.*X*X*X*Xz.T 8 & 8 U ; : *.",
"7 r 7 S Y I q ~ <X;X*X*X*Xz.r.X.O.O. .7.E F / Y.n.V.d x 2.H.}. X X}.D.v.n.2.B ( ( z h S D ..O.@.X.r./.*X*X*X;XE 9 8 8 = P E r e ",
"L Y Y S Y ! q q J ).].*X*X*X/.r.X.[ O.] S x H. X( M.d Y.5.( ( 5.2.2.p B.x T.z z z 5./ / K o.] X.r.~.*X*X*X'.j.H E L = 8 = ; ; r ",
": , D : h.L q L ).@XOX*X*X!.%X/.r.[ q.O.' M  XY.n.V.M.) [. XH.( 2.@ v.n.H.T.2.z x ( g K.j p.} 8./.%X~.*X*XXX!.J F L J u.L r ; ; ",
"I D 7 r u.*X*X'.e.XXz.].*X'.k.k./.O.8.E t f / 2.m.N.S.s Y. X X/  Xp C.u H.I.b k 2.Y.k x B a.@.~.k.k.'.*X].l.).0.^.L L 0.L S E S ",
"-.E E E A *X*X*X].oX).OX*X*X'.r.h.&.] E # b H.2.h a B.N.) c c + c M.d ^ ~ l x.x.b / 5 p q  .%.h.r.'.*X*XOX).oX'.*X*X%XJ H S D : ",
"J I E E A S *X*X*X*X*X*X*X*X*X].r.| } ' k T. X[.c + a s u + + + + s ~ 9 P J 8 i y Z 9 J $.} | r.].*X*X*X*X*X*X*X*X*XJ J J S S S ",
"-.A J E R Y :X*X*X~.].*X*X*X*X*X].#.o._._ 2. X X[.c x.x.c.c.c.c.c.@ 9 9 9 I ^ ^ I R E | XX .@.].*X*X*X*X*X]./.*X*XE G F H S S S ",
"P A J A A S *.d.*X$Xk.y.oX*X*X*X&X].%.9.5XI.2. X2.# y y y y y y y + # + J J ^ ^ ^ R J J 8.#.oX*X*X*X*XOXy.k.$X*Xd.J J J F D A S ",
"q W W q % - U | h.*X%Xf.t.t.t.*X*X*X].#.e.5XI.5 + + + N.a + + + + Z.Z.N.+ ~ ~ D ! R S  .#.].*X*X*Xt.t.r.f.$X*Xg.| D D D T F S S ",
":.W W 9 W Y U Y q *X*X%Xi.} &.r.r.y.&X].#.e.6X*.+ + M.A.S.p + + + p S.S.A.N.~ G ~ :.{ @.].*Xy.r.r.&.} u.*X*X*XS S F Y F D Y S S ",
"0 0 W W W q - q q *X*X*X*Xu.[ ] ] &.r.&.r.@._ + + M.S.S.S.a + + + C.a S.S.S.M.! ~ [ +.r.r.&.r.] ] } y.*X*X*XS S E F Y Y Z A T F ",
"0 % 0 W 0 ; q Y U T +X*X*X*Xu.[ [ ] ] ] } | ` + v.S.S.S.S.p g g + p N.a A.S.S.v._ ] [ [ ] ] ] [ } y.*X*X%XE S ; : 9 D D 9 S J Y ",
"*.7.: I P & W Q W *.[ j.%X*XOXu.y.{ ] $.,X5XD.+ v.A.S.S.C.v 4.Y # + + + s V.V.v.8 S E R O.] } y.u.OX*X*Xl.| 6 X   < A e P L S A ",
"*.7.7.: L q A q & q o  ./.*Xf.].&Xt.X.!.} ! + + + v.B.B.a G H G G + + + + + + + G D < [ !.o.y.*X].f.%X~.+.. ~ *.~ e A 1 J P L L ",
"*.; L : L Q Q & e *.q o f.(.].i.(.OXt.[ H H + + + + + + + -.-.R G J + + + + + Y E E < < ] r.%X'.i.].'.f.).o.6 ~ ~ < I I I I R E ",
"D P L 4.L r q & & *.-.0 *.y.u./.f.z.q.| [ K + + + + + + P Y E -.-.P + O w w w w 8 D E ] | w.(.i./.i.y., U ~ 6 ~ ~ A I I I S I E ",
"% T T 6 X & w P P ; - 9 q P 9 i.z.i.X.+.$.V 3 3 5 + + S ^ Q S S Q D + 5 ' ' ' C w < } o.+.X.i.z.f.D F R < U U ; q W W q W E S S ",
"%     o 1 U P T Y q Y U q 9 J ! f.w.f.8.,.w ' ' C 5 ^ -.S Q Q - - D + 5 V V V 4 w K < 7 O.f.0.h.S o.R R 1 - T P q q % Z W E E E ",
"W 6 1 T T U 8 P 8 Y U U U J 9 q 9  .w.P _ 5 4 4 4 5 S S = Q Q ; - - S ~ ! Y e e r L : -.-.0.| E S D R D < U P P U q q q q D R > ",
"W T T T T U P T 8 q q q q I I J q S S L T L L I J =   = S S S S S S ~ S - A S e - H I 7 : : D E E R R D D q P T e W W W e E S D ",
"W L ^ J P T ;.F D P Y Y U 2 J W H S S 7 , D S D *.Q D *.H $ $ r S q H L q D E E E Y Y - q 0 8 G G S < Y S > T T T ~ U A I ~ H H ",
"F L ^ ^ 8 D T R D 7 7 7 U J 2 8 J S S Y S G D S - F ~ ~ *.r r ;.S 9 q 9 H S D D S Y q - q 8 8 - 8 S < < S : , T T A A ! U H ~ H ",
"J P ^ L 8 D T ;.;.7 U 4.U 2 ! J F S P T S D D ^ D ; : : Q ;.r r ;.9 q J L D 1 S E q q q Y G G 8 8 < Y Y Y ,   , T ~ ~ U ~ ! H ~ ",
"H P ^ L L ;.;.R ;.U 4.4.7.J E W W S S S Y ^ - D D : D D D ;.;.:.;.L J E Z A D D E Y Y Y q 8 G ; 8 < D S S . . T T J U A I ~ < H ",
"E R 1 R E ! ! ~ ~ I I J 1 D 2 R T 2 2 2 *.6 o W E q q q q 7 E D 7 J P J J J J J J 6 8 T 6 8 E E   < H : < : J *.J A S W W e -.e "
};
