/* XPM */
static char *result[] = {
/* columns rows colors chars-per-pixel */
"64 64 226 2 ",
"   c black",
".  c #000001",
"X  c #000003",
"o  c #000005",
"O  c #000006",
"+  c #000007",
"@  c #00000A",
"#  c #060209",
"$  c #00000E",
"%  c #01000F",
"&  c #02020E",
"*  c #0A000D",
"=  c #0A060F",
"-  c #0F0C0F",
";  c #181500",
":  c #060010",
">  c #060013",
",  c #060312",
"<  c #090512",
"1  c #0A0612",
"2  c #0F0412",
"3  c #0B0515",
"4  c #0E0811",
"5  c #0F0B16",
"6  c #100D17",
"7  c #1C0D11",
"8  c #150D19",
"9  c #140E1B",
"0  c #1A1117",
"q  c #220400",
"w  c #210800",
"e  c #290800",
"r  c #290C00",
"t  c #2F0008",
"y  c #290C08",
"u  c #300800",
"i  c #370E0E",
"p  c #291008",
"a  c #311008",
"s  c #311408",
"d  c #3A1408",
"f  c #21171C",
"g  c #281E1F",
"h  c #2C1E1F",
"j  c #002A00",
"k  c #201B21",
"l  c #192721",
"z  c #103A21",
"x  c #042730",
"c  c #143336",
"v  c #1B3A33",
"b  c #292121",
"n  c #2A2427",
"m  c #292727",
"M  c #2C262A",
"N  c #2A262C",
"B  c #252D2D",
"V  c #2E2A2D",
"C  c #2E2F2F",
"Z  c #362723",
"A  c #33302F",
"S  c #312F30",
"D  c #312F32",
"F  c #2E3232",
"G  c #303230",
"H  c #313132",
"J  c gray20",
"K  c #421408",
"L  c #421808",
"P  c #421C08",
"I  c #421810",
"U  c #421C10",
"Y  c #591416",
"T  c #4A2010",
"R  c #4A2410",
"E  c #522410",
"W  c #5A2410",
"Q  c #522810",
"!  c #522419",
"~  c #522819",
"^  c #562B19",
"/  c #5A2819",
"(  c #5A2D19",
")  c #5A3119",
"_  c #723800",
"`  c #632D19",
"'  c #633119",
"]  c #633519",
"[  c #4A1829",
"{  c #633121",
"}  c #633521",
"|  c #6B3521",
" . c #633921",
".. c #673921",
"X. c #633B25",
"o. c #673D25",
"O. c #673F25",
"+. c #6B3921",
"@. c #6B3D21",
"#. c #6B3D25",
"$. c #6B3F25",
"%. c #6F3F25",
"&. c #6B3D29",
"*. c #6B3F29",
"=. c #733D21",
"-. c #733F25",
";. c #6F4329",
":. c #6B452D",
">. c #6F492D",
",. c #734121",
"<. c #734129",
"1. c #734329",
"2. c #734529",
"3. c #734729",
"4. c #77472D",
"5. c #7B4529",
"6. c #774929",
"7. c #77492D",
"8. c #774B2D",
"9. c #7B4929",
"0. c #7B4D29",
"q. c #7B492D",
"w. c #7B4B2D",
"e. c #7B4D2D",
"r. c #7B4931",
"t. c #7B4D31",
"y. c #7F4D31",
"u. c #7F4F31",
"i. c #7F5131",
"p. c #823713",
"a. c #804B2D",
"s. c #804D2D",
"d. c #804D31",
"f. c #804F31",
"g. c #844D31",
"h. c #844F31",
"j. c #805131",
"k. c #845131",
"l. c #845331",
"z. c #845531",
"x. c #845335",
"c. c #885331",
"v. c #8C5531",
"b. c #885335",
"n. c #885535",
"m. c #885735",
"M. c #8C5735",
"N. c #8C5935",
"B. c #8C553A",
"V. c #8C573A",
"C. c #88593A",
"Z. c #8C593A",
"A. c #8C5B3A",
"S. c #90593A",
"D. c #905B3A",
"F. c #94593A",
"G. c #905D3A",
"H. c #905F3A",
"J. c #945D3A",
"K. c #945F3A",
"L. c #905D3E",
"P. c #905F3E",
"I. c #945F3E",
"U. c #94613A",
"Y. c #94613E",
"T. c #94633E",
"R. c #98613E",
"E. c #98633E",
"W. c #946142",
"Q. c #986342",
"!. c #986542",
"~. c #986742",
"^. c #9C6542",
"/. c #9C6742",
"(. c #9C6942",
"). c #9C6D42",
"_. c #9C6946",
"`. c #9C6B46",
"'. c #A56942",
"]. c #A56D42",
"[. c #A06B46",
"{. c #A06D46",
"}. c #A56D46",
"|. c #A06D4A",
" X c #A06F4A",
".X c #A56D4A",
"XX c #A56F4A",
"oX c #A5714A",
"OX c #A5734A",
"+X c #A5754A",
"@X c #A0734E",
"#X c #A9734A",
"$X c #AD714A",
"%X c #AD754A",
"&X c #A9754E",
"*X c #A9774E",
"=X c #AD794A",
"-X c #AD7552",
";X c #AD7952",
":X c #AD7D52",
">X c #AD7D56",
",X c #B57D52",
"<X c #CC9900",
"1X c #B58252",
"2X c #B18256",
"3X c #BD8652",
"4X c #B5825A",
"5X c #B5865A",
"6X c #BD865A",
"7X c #BD8A5A",
"8X c #BD8E5A",
"9X c #BD8A5F",
"0X c #BD8A63",
"qX c #BD8E63",
"wX c #C59263",
"eX c #C59663",
"rX c #CE9A63",
"tX c #CE9A6B",
"yX c #CE9E6B",
"uX c #D6A673",
"iX c #0050C8",
"pX c #9429DB",
"aX c #FFAC83",
"sX c #E6B684",
"dX c #F3C598",
"fX c gray95",
/* pixels */
"{.%XE.k.%XoXoXk.oX7X(.9.9.@.N.N.N.n.n.n.W..X.X.X.X$.a $.].n.} } n.h.( h.h..Xd.( ( ....L ..a } F.} -.-.-.-.f.I   f.( w.( ( } :X:X",
"Z.E.%XE.E.Y.Y.Y.Y.(.(.(.(.@.N.%X%XW.n.9.n..X.Xo.r $.].].].} } %Xn.h.h.h.h..X.X( ( ..Z...Z.} a F.} E E F.-.I I I I ( w.( w.C.C.C.",
"Z.%X%X%Xk.Y.oXY.k.9.9.(.(.%XN.N.N.n.n.9.W..X.Xo.o.].].].].%Xn.n.%Xh.$Xh.h..X.Xd..XZ.Z...Z.} } } F.E E F.-.I 3X3XI w.w.w.(.C.} } ",
"oXqXU.*XU.;XtX;X;X{.Z.{.1X,X<.<.<.m.m.m.oX7X7X2.~.4X4XZ.4X/.g.g.1X2.!.!.2.>X2.>X>X,X@.@.@.T T 2.2.( ( x.x.Z.T Z.T L w.L w./ x.x.",
"oXU.*XU.U.9X;X;X;X{.Z.Z.{.,XI.I.<.m.m.@.oX2.~.~.~.4XZ.Z.Z.g./.g./.6X!.!.2.2.2.>X2.@.G.G.G.2.T 2.2.( ( ( ;XT T Z.#.,X,Xw.w./ x.:X",
"M.U.U.U.U.;XtX9X;X{.{.Z.{.,X,XI.<.m.m.@.@.2.2.7X7X4X' 4X4X/.1X/.g.!.2.!.2.2.2.sX>X@.,X@.@.(.2.(.2.( ;X( ( T Z.Z.T w.,Xw.w.:Xx.x.",
"oXqXU.*X*X;XtXtXtX1X1X{.{.,XI.<.<.m.m.m.oX7X7X7X7XZ.4X4XZ.1X1X/./.!.!.2.2.2.2.2.2.@.@.G.G.(.(.2.2.x.;Xx.( #.Z.Z.#.L w.w.w.x./ / ",
"2X&XqXJ.&XOXrXrXOX+X+X+X+X6X/.9.9.l.l.l.l.e.e.oXe.L.wXwXL.;X;XY.Y.q.U.U.q.i.i.i.:XoXK oXoXg.g.^ ^ +X+Xl.+X.X.X.X.X@.@.@.@./ f.f.",
"^.J.qXqX&Xt.t.t.OXY.g.Y.+X/.9.9./.@.l.(.@.oXe.Q oXL.wXL./ 9.9.Y.Y.U.U.q.{ E :X:X:XoX1.oX1.g.g.^ ^ +X+X' l..XT T .XT.@.@.T.+X+X/ ",
"^.&XJ.qXqXt.t.t.OXY.g.g.Y.9./.6X6Xl.l.(.@.oXoXe.e.  / L.L.9.9.9.Y.q.U.U.U.i.i.i.i.oX1.oXoX^ g.g.^ ' ' ' l.4.4.4..XT.@.@.T.f.f.f.",
"2XqX&XJ.&XOXt.t.t.g.Y.Y.Y.9./.6X/.@.(.(.l.oXe.e.oXL.L.L.L.9.9.9.9.U.    q.E E i.E 1.1.1.1.^ g.g.e l.' l.l.T 4.4..XT.7XT.@./ +Xf.",
"6X4XP.P.P.OXk.k.OX_.9._._.5.(.5.5.=X=Xl.l.k.k.,X/.(.k.+.k.m.) m.X     I.I.@.s.@.s.h.h.h.` V.V./ / a.a.a.a.%Xy.!   K (.(.%.Y.4X4X",
"Y.P.4X4XP.OXk.k.k._.9.0X_.M.(.(.(.=X=X=X( /.,X/.k.k.k.k.k.,X3 % J   5.5.5.s.J.J.J.h.oX` ` V./ / V.a.a.oXoXy.y.! ! K K %.(.Y.,.Y.",
"@.@.P.4XP.k.eXOXOX0X_.9.9.M.M.(.(.l.=X=X=Xk.k././.k.k.(.(.> J J X   I.I.I.s.J.J.J.oXoXh.h.V.V.V.6Xa.W oXa.y.%Xy.y.(.%.(.(.Y.,.4X",
"Y.@.@.P.@.k.OXeXeX0X9.9._.(.M.5.M.l.l.l.( k.k././.(.(.(.% J J J . ;XI.;X;X# 6 5 : +     oXV.6XV.6Xa.a.oXa.%X%Xy.y.(.(.%.%.,.,.Y.",
":X~.<.<.<.+.+.+.+.j.j.).).N.N.N.oX^.s.s.] ! <.<.<.m.m.$ J J J J   :Xu.= 1 J J 9 4   ^.s.^..X.XZ..XE E E k.|.4X4X|.`.k.`.`.G.=.=.",
":X~.<.<.<.+.^.^.^.j.j.).).N.N.oXoX^.s.s.^.<.J.J.  t.t., J J J J < u.8 J J J k - k.^.^.] s..XZ.2..X,Xk.E E Z.Z.Z.Z.5X`.k.k.G.:XG.",
",.<.~.~.~.h.h.^.^.} j.} j.oXoXN.N.^.^.^.^.J.J.J.  U.& J J J J J J N J J J M f ' k.s.^.^.s.2..XZ.2.k.k.k.,X4X4XZ.Z.5Xk.k.k.G.:X:X",
"H.~.8X8X~.h.^.h.h.j.).j.} ,.N.oXN.s.s.s.s.J.<.    m.H J J J J J J J J J J V oXk.' ] s.^.s.Z.Z.Z.2.k.k.k.k.|.|.Z.4X5X`.k.k.G.:X:X",
";X[.Z.[.,X5X5XF.F.6Xz.z.z.+.h.h.^.!.;X!.k.9.9.  O J J J J J J J J J J J J J 6X[.k.{.Z.Z.{.k.k.k.k.D.oXoXD.9.9.9.Y.r.,XQ.Q.-XI.I.",
"Y.,X,XZ.[.XXF.XXF.{.z.z.z.h.h.h.^.!.k.k.!.c.c.o J J J J J J J J J J J J J J J J g Z.Z.{.1X~.~.k.~.oXoXoXD.Y.;X;X9.Q.Q.r.Q.-XI.I.",
"9.[.,X,X,XXXF.XXXXz.z.z.z.^.^.h.^.!.k.k.!.    J J J J J J J J J J J J J J J J J J n 2 {.{.~.~.~.:X5.5.D.D.Y.Y.Y.;X,XQ.Q.Q.9.9.I.",
"Y.Z.,X,X[.XX5XXXF.z.z.z.z.h.h.h.h.!.;X      J J J J J J J J J J J J J J J J J J J J J @ Z.k.:X:X:XD.oXD.D.9.9.9.;XQ.Q.,X,XI.I.I.",
";X!.!.!.:X/.7X/.5.G.G.k.k.9.N.9.N.E.E.%Xk.9.J J J J J J J J J J J J J J J J J J J S * O ^././.9./.g.;X;Xg. X X<.<.w.w.].].Y.oXoX",
"!.!.g.!.:X7X7X/.5.G.k.G.(.(.N.N.(.%X%X%Xk.J J J J J J J J J J J J J J J J J J J J g.^.^.,X6X/./.6Xg.g.g.g.yXyX X X~ ~ ~ w.k.k.Y.",
"!.!.!.g.g./.7X/.5.G.G.G.G.(.N.N.N.k.%X%XC J J J J J J J J J J J J J J J J J J D.D.^.^.,X,X/.9././.;XuXuX;X X<.<. X].w.w.].oXY.oX",
"k.!.:X!.!./.5.5./.(.G.G.G.(.(.N.(.k.k.k.J J J J J J J J J J dXJ J J J J J J J J 5.g.^.,Xg.9.9.9.9.g.;X;Xg.<.<.<.<.w.].w.].oXk.Y.",
"{.Z.Z.7X7XOXZ.Z.OXXXXXJ.XXJ.J.J.5X=XE.g.J J J J J J J dXJ J dXdXJ J J dXJ J J h M.9.N.(.9.Z.t.Z.t.t.t.t.,XA.;XA.@.t.`.t.t.h.h.^.",
":XoXZ.oX7XOXOXOXZ.XXXXJ.XXJ.J.J.oX=XE.E.J J J J dXJ J J J J dXdXdXJ J dXJ M.Z i ^.N.N.N.(.^.t.Z.^.!.,Xt.t.;X;X;XA.t.t.t.t.+.^.^.",
"{.oXoXoXZ.Z.Z.OX8X4XJ.J.J.J.J.oXJ.g.g.E.=X@XJ J dXdXJ dXdXJ J dXdXdXJ dXJ 9.^.9.^.(.9.9.(.Z.t.Z.Z.!.!.t.t.;X@.;XA.`.7Xt.t.+.^.^.",
":XoXoXoXZ.OXZ.Z.OX4XJ.XXJ.J.oXJ.J.E.g.=X=X-.@XJ dXdXdXdXJ fXfXJ J dXdXJ c.^.M.9.9.N.N.N.9.^.^.t.t.!.!.!.,X;X;XA.A.t.`.`.t.h.h.+.",
"E.I.I.,X,X^.k.k.k.n.oXoXoXJ.J.J.J.g.g.I.-.-.J pXJ J dXdXJ fXfXJ J dXdXA c.T.T.T.0.9.N.(.N.U.c.5.c.D.(.(.D.oX5XJ.J.g.g.g./.Y.9.Y.",
"%XI.<.<.I.k.@.k.^.n.n.oXoX#X7X#X#XI.g.n.n.J dXJ pXJ J dXdXdXdXdXdXdXJ c.F.T.;X;XT.(.(.N.N.c.c.c.c.D.(.(.(.J.J.oXJ.g./.1X1XY.Y.Y.",
"%X,XI.<.,X^.@.^.^.oXn.oXoX7X7X#X#XoXoX@XJ dXdXJ pXJ dXJ J dXdXdXdXJ b F.c.0.;XT.T.(.(.(.9.5.c.U.c.D.(.D.(.oXJ.J.J./.g././.Y.;X;X",
"k.I.,XI.,Xk.@.^.^.oXn.+.n.#X7X7XJ.I.-.@XJ dXdXJ pXpXJ dXdXJ J J J J m F.F.;XT.0.T.(.(.(.9.c.U.c.c.g.g.g.(.oXJ.J.5X1Xg.g.g.9.;X;X",
"=X+XE e.+Xk.k.k.k.J.:X{.J.Y.Y.k.oX.X-.J dXdXJ J J pXpXJ dXdXJ dXdXJ J 7 t Y J.J.J.E.E.E.%XJ.J.J.J.k.k.!.k.n.n.n.].^.^.^.^.m.m.m.",
"=X+Xe.e.+X_._.k.k.J.J.:X:XoXk.k.Y..X@XJ dXJ J J J J pXpXJ dXdXdXJ pXJ dXJ dXaXJ.J.k.k.E.E.2.k.J.J.!.!.k.!.n.].].&.2.^.2.^.:Xm.m.",
"k.e.+X+X+X_.k._.k.{.{.J.{.oXoXY.k.I..XJ J dXdXJ dXJ J pXpXJ J J pXJ J dXJ dXdXc.c.E.E.k.k.k.J.2.J.;X;X;X;X].].].].^.2.2.2.m.m.' ",
"/ e.e.e.+Xk._.4X_.J.{.J.{.oXk.oXoXI.k.J J dXdXJ dXJ pXJ pXpXpXpXJ iXJ J J dXdXp.c.k.k.k.k.J.k.k.J.k.!.k.k.].n.].].2.R 2.^.' ' :X",
"@.l.@.l.(.Y.9.;X;X1XG.G.1X`.`.`.`.k.k.J J dXdXdXJ J J J J J J J J iXJ dXJ dXdXJ 9.c.5.c.c.g.S.^.^.9.9.9.9.oX5.oX5.2.2.~ U.oXj.j.",
"I.(.(.l.(.;X9.9.Y.1X1XG.G.`.yX`.`.eXk.k.J dXdXdXJ J J iXiXiXiXiXJ J J J J J [ 9.9.5.5.5.U.g.g.^.S.9.n.9.W.D.5.D.oXU.~ 2.~ ) ) j.",
"@.@.l.@.(.Y.9.Y.;X+.+.1X+.`.yX`.yXeXk.k.@XJ J J J pXpXJ J J J J pXpXpXJ J w.w.w.9.5.5.c.U.S.g.S.g.9.9.9.9.5.D.D.D.U.U.2.U.j.) ) ",
"I.l.@.l.l.Y.Y.Y.Y.G.G.1X+.+.`.yX`.OXOXOXOX@XJ J pXpXpXpXJ J J J pXpXpXpXpXJ %XK.K.U.c.c.c.g.g.g.g.9.n.n.9.5.D.D.D.U.U.U.U.j.oXj.",
"4XoXoXoXg.k.(.k.k.1X1X1X1XoXf.oXoXoXZ.oX-.J J pXpXpXpXpXJ J J J J pXpXpXpXpXJ <.<.G.G.9.9.Z.Z.4.4.n.n.W.W.Z.9.k.Z.D.5.D.D.k.k.@.",
"Y.I.oXoXg.k.k.k.k.>.  p p ( ( f.oXoXZ.<.-.J J pXpXpXpXpXJ J J J J J pXpXpXJ J w.w.9.9.G.G.Z.Z.Z.Z.9.n.n.n.k.9.9.Z.oXD.D.D.k.k.k.",
"4Xg.I.oXoX(.1X1X1X>.>.>.1XoXf.( ( <.Z.@XJ J J pXpXpXpXJ J Q.Q.J J J J J J J D w.w.oXoX9.9.Z.4.4.Z.W.9.9.9.9.k.9.k.oXD.D.D.k.k.k.",
"Y.g.I.g.g.k.1Xk.k.>.1X1X1XoXoXoXoXoX<.-.J J J J J J J J W.r.Q.F J J J J J J 0 ,X,XoXG.G.oXZ.Z.4.} 9.n.n.9.k.Z.Z.k.D.D.D.D.k.k.k.",
"8.%X%X7.U ) ^.^.) +.c.c.].( ( f.oX].].@XJ J J J J J J B 5.5.I.;Xx J J J J ;X;Xm.;X{.k.k.{.XXZ.Z.Z.9.9.D.D.l.l.l.l.M.M.M.(.G.k.k.",
"7X%X%X7.%X^.^.^.w.c.c.c.+.( f.oXf.6.].].w.J J J J J l J.5.5.I.;Xc J J J J ;X;Xm.;X7X7X{.k.Z.Z.Z.6X.X9.D.D.oXl.l.l.M.(.M.M.(.k.k.",
"8.7.%X%X%Xw.) w.w.+.].].+.f.oXoXoX6.6.w.w.J J J J J G %XJ.5.I.5.v J J <X<Xm.;X;X;Xk.{.{.{.Z.Z.XX6XD.9.9.D.oXl.l.oXM.(.(.5.k.(.G.",
"8.U 7.%X7.) w.^.^.].].c.+.f.oXf.oX].6.w.J <X<X<XJ J 5.J.5.I.;X5.5.z j J <X<X_ ;Xm.k.k.k.k.Z.Z.Z.Z.9.9.9..XoXl.] ] 5.M.M.5.k.G.(.",
"1XwX] T.T.R %X%X%X1X1Xd 8.W.W.W.W.Z.Z.w.J <X<X<X<XJ I.I.5.B.5X|.|.,X5.R.; q u <.<.m.oXoXm.oXoXG.9.^.^.^.X.:X:.y   +.d.d.W.Y.k.k.",
"1XwXwX] T.e.e.e.R 8.d   8.W.4.W.( w.w.@.J J J J J J ;X5.5.B.B.B.B.R.5.R.R.oXZ.<.Z.m.@.oXoXoXoXoXG.^.^.X.  y :X:X:Xd.d.+.W.Y.Y.Y.",
"1X] T.] T.%X%XR e.1X8.d 8.4.4.4.( @.w.w.Z.w.w.<.<.5.I.5.I.5X5X|.B.R.R.5.5.Z.oXoXoXoX@.@.oX9.9.oXG.^.X.^.^.y :.:X:X+.W.W.W.Y.oXoX",
"m.T.T.wXT.e.e.R R 1X1X8.1XW.( ( 4.Z.Z.Z.w.<.L.L.;XI.5.5.I.|.|.5X5XR.,XR.5.<.<.Z.<.m.oXm.m.G.9.oXoX^.^.X.^.:X:.:X:Xd.W.W.W.k.Y.oX",
"U ].].O.p R 2.^.^.( ( q.q.I.5.I.I.oXY.oXoX;XP.P.;Xx.x.x.,X=Xl.l.=Xx.x.x.x.f.f.( ( @.P.P.@.l.l.oXoXn.n..X@.^.^.) w.%X%Xw.%XoXx.x.",
"U     p O.^.^.^.^.q.^.^.q.5.I.;XI.Y.oXoXY.2.P.;X;X,X,X,Xx.=X=X( ( x.( x.;XoXoXoXoXP.@.@.P.l.l.l.l.n..X.X@.) ^.^.w.w.T w.%XoXoXoX",
"%XO.O.].].^.2.^.2.^.^.^.^.I.5.5.5.Y.Y.Y.Y.2.P.P.2.x.x.x.~ =X=X( ( ( x.;X;XoXf.f.f.P.@.4X4Xl.oXoXl.n..Xn.@.^.^.^.^.w.w.w.w.x.oX} ",
"%X].].].].^.^.^.2.q.q.q.q.I.I.I.5.k.k.Y.oXP.P.P.P.~   ~ x.l.l.l.l.x.;Xx.( f.f.f.( P.P.@.@.] l.oXoX.X.Xn.n.w.^.^.w.%X%X%Xw.oXx.x.",
"%XY.,XY.Y.}.6Xv.v.~.~.~.~.<.D.%XD.l.l.@.@.n.n.n.,X:Xm.:Xm.P P j.j.9.H.H.9.b.oXoXoX(.(.( w.1.1.B.B.l.@.(.l. .'.'.'.;XQ.g.Q.;XA.A.",
"D.Y.,X,X2.v.}.}.v.,.,.,.~.D.<.<.D.l.l.(.l.n.n.n.( m.:X:X:Xj.j.6Xj.9.9.9.H.b.b.b.b.(.w.( w.1.1.) 1.l.@.@.l. . .'.'.g.g.;XQ.A.;XA.",
"D.Y.,XY.2.v.}.6X6X,.~.qX~.<.%XD.D.l.(.(.l.n.n.,Xn.' ' ' :X6Xj.j.6X9.9.H.H.b.| b.oXw.w.w.(.B.B.1.1.@.(.(.(. .   .'.;X;XQ.;X;XA.;X",
"D.Y.,XY.Y.6X6X}.6X~.qXqXqXD.%X%X%Xl.l.l.(.,X( n.n.' m.m.m.6X6X6X6XH.H.+X9.b.b.b.oX(.(.(.w.1.B.) 1.@.l.l.l.w w '.'.Q.Q.g.Q.;X@.A.",
"@X.X*..X.X;X;X;X;XW.W.W.*.M.,..X.X=.=.=.1X;.s $X$X9.9.9.9.,.oXN.,.I.I.I.I.J.J.J.J.;.;.].;.3.oXoX  ..B.....@.H.1XH.k.k.%X%Xt.4Xt."
};
