/* XPM */
static char *result[] = {
/* columns rows colors chars-per-pixel */
"64 64 207 2 ",
"   c black",
".  c #260C03",
"X  c #311108",
"o  c #2F3135",
"O  c #313131",
"+  c #38343A",
"@  c #3E3D3B",
"#  c #421808",
"$  c #421910",
"%  c #4A2110",
"&  c #532715",
"*  c #5A2C19",
"=  c #5A3119",
"-  c #633319",
";  c #633521",
":  c #663B22",
">  c #6B3D22",
",  c #6B3C26",
"<  c #733E23",
"1  c #6B581E",
"2  c #755F1B",
"3  c #7B641B",
"4  c #524B30",
"5  c #6E432A",
"6  c #734121",
"7  c #734429",
"8  c #7B4529",
"9  c #774A2D",
"0  c #7B4B2C",
"q  c #735329",
"w  c #7B4D31",
"e  c #746730",
"r  c #283549",
"t  c #1C3D6E",
"y  c #1A3E75",
"u  c #2C3E77",
"i  c #483754",
"p  c #4B3758",
"a  c #5B3B6F",
"s  c #5D3C72",
"d  c #18407D",
"f  c #234579",
"g  c #494846",
"h  c #504B45",
"j  c #5A574C",
"k  c #585751",
"l  c #625F4F",
"z  c #625A51",
"x  c #6A6758",
"c  c #746C57",
"v  c #666666",
"b  c #7B6E63",
"n  c #657969",
"m  c #7B7866",
"M  c #727272",
"N  c #7F7F7C",
"B  c #834E31",
"V  c #845232",
"C  c #895635",
"Z  c #8C5737",
"A  c #8C593A",
"S  c #925E3C",
"D  c #826F37",
"F  c #94613D",
"G  c #98633E",
"H  c #946142",
"J  c #9A6542",
"K  c #9C6943",
"L  c #A46C44",
"P  c #A56D4A",
"I  c #A5724A",
"U  c #AC754B",
"Y  c #AD794A",
"T  c #AD7B52",
"R  c #B57D52",
"E  c #867A69",
"W  c #897776",
"Q  c #A9820B",
"!  c #CB9801",
"~  c #CFB93C",
"^  c #FFC700",
"/  c #FFC904",
"(  c #FFCB0B",
")  c #FFCD13",
"_  c #FFCE1A",
"`  c #FFD016",
"'  c #FFD21B",
"]  c #FFD224",
"[  c #FFD32C",
"{  c #EED43E",
"}  c #FFD434",
"|  c #FFD935",
" . c #FFD63B",
".. c #FFDA3D",
"X. c #B58252",
"o. c #BD8652",
"O. c #B5835A",
"+. c #BD865A",
"@. c #BD8A5B",
"#. c #85836A",
"$. c #8B8674",
"%. c #958A75",
"&. c #989679",
"*. c #BD8E63",
"=. c #A28F7C",
"-. c #A3967D",
";. c #B9AC63",
":. c #CFBB4A",
">. c #C99666",
",. c #FFD646",
"<. c #FFDB44",
"1. c #FFDB4B",
"2. c #FFDD54",
"3. c #FFDD5B",
"4. c #FFE342",
"5. c #FFE54C",
"6. c #FFE654",
"7. c #FFE35C",
"8. c #FFE95D",
"9. c #FFDE65",
"0. c #FFE464",
"q. c #FFE965",
"w. c #FFE46C",
"e. c #FFEA6B",
"r. c #FFE473",
"t. c #FFEB73",
"y. c #FFE47C",
"u. c #FFEB7C",
"i. c #0A49AB",
"p. c #52418E",
"a. c #734295",
"s. c #004FC8",
"d. c #8245AA",
"f. c #8B47B7",
"g. c #9049BE",
"h. c #994BCC",
"j. c #A44EDC",
"k. c #AC50E7",
"l. c #B653F5",
"z. c #BC54FF",
"x. c #878685",
"c. c #9A9988",
"v. c #9C9C99",
"b. c #AD9883",
"n. c #AAA582",
"m. c #B5A789",
"M. c #B6B38B",
"N. c #BEBB91",
"B. c #98A0B6",
"V. c #ADADAC",
"C. c #B5B4B4",
"Z. c #BABABA",
"A. c #C8AE94",
"S. c #C6B896",
"D. c #D5BA9D",
"F. c #E6B684",
"G. c #A0D2BA",
"H. c #CBC89A",
"J. c #D1CB9D",
"K. c #FFE584",
"L. c #FFEC82",
"P. c #FFE68A",
"I. c #FFED8B",
"U. c #FFF085",
"Y. c #FFF18D",
"T. c #FFEE94",
"R. c #FFEC98",
"E. c #FFF194",
"W. c #FFF29C",
"Q. c #D9C7A4",
"!. c #DAD6A5",
"~. c #D1CDB5",
"^. c #E9CAAB",
"/. c #E1DDA8",
"(. c #EAD7B8",
"). c #F6D5B3",
"_. c #E7E3AD",
"`. c #FFECA6",
"'. c #FFF3A3",
"]. c #FFF5AC",
"[. c #ECE8B0",
"{. c #F2EDB4",
"}. c #FEEFB3",
"|. c #F6F1B7",
" X c #FFF4B3",
".X c #FFF9B5",
"XX c #FFF3BB",
"oX c #FFFABC",
"OX c #C3C3C3",
"+X c #CDCDCD",
"@X c #DADADA",
"#X c #FFF5C4",
"$X c #FFF9C6",
"%X c #FFF5CB",
"&X c #FFF9CE",
"*X c #EEEBDA",
"=X c #FFF6D4",
"-X c #FFF8D3",
";X c #FFF7DA",
":X c #FFF9DC",
">X c #E3E3E3",
",X c #EDEDED",
"<X c #FFFAE3",
"1X c #FFFCEC",
"2X c #F1F1F1",
"3X c #FFFDF3",
"4X c #FFFFFE",
/* pixels */
"L U G V U I I V I +.K 8 8 - A A Z C C C F P P P P : X : L C - ; Z B * B B P B * * : : # : X - S ; < < < < B $   B * 0 * * ; X.T ",
"A G U G G F S G F K K K K 6 Z Y U H C 0 C P I : . 5 L I L ; ; U Z B B B B U P * * , Z : A ; X S ; & & S < $ $ $ $ * w * 0 A A A ",
"A U U U V H I H V 0 0 K G Y Z Z Z C C q H P P , > L L L L U C C U B U B V P P B I A A : A ; ; ; Z & & Z < $ o.o.$ w 0 0 K A ; ; ",
"I *.F U F R >.T T K Z L X.X.7 6 7 C C C I @.@.6 F O.+.Z O.J B B X.7 J J 7 T 7 T T X.- > > $ % 8 < * - B V A % Z $ $ 0 # 9 * C w ",
"I F Y F F @.T T T I A A I R F F 7 C C - I 7 J J K O.Z Z A V J B J +.J J 7 7 7 X.5 > A F A 7 % 6 8 * * * T % $ S : R R w 9 * V T ",
"C F F F F Y >.>.T K L A L R 4X:X7 C C 5 5 <X3X+.+.O.= O.O.J X.J B J 5 J 7 7 5 F.O.6 3X<X5 K 7 K 7 <X4X* * % A Z % 0 R 0 w T w C ",
"I *.F I U T >.>.>.X.X.I K R 3X<.6 C C A I u.oX+.@.A O.&XZ X.X.<X}.;XJ 7 7 &X4X7 7 - &Xe.A G J 7 7 3.<XV * : A Z , # 0 0 w V * * ",
"X.U *.S U I >.>.I I I I I +.3X_ $XV V w ;X,.y.1X0 S >.| H T <Xr.^ 9.<XF 0 4.3Xw T 3XI. .-XV B * %X] :XV I P I U P > > > , * B w ",
"G A *.*.T w w w I F B G I J 3X/ 1.> V K I.( ` %XI A >.( ].9 XX` ^ ` `.0 XX) 1XX.T :X' ( u.B B * 9./ :X- V P % $ P F > > F I I * ",
"K T S *.*.w w w $X:XB B y.4X3X^ ]  XV -X<.^ ^ w.3X  T.^ ..1X0.^ ^ ^ 7.:X2./ I.w 3Xu.^ ^ ..%XB XX[ ^ :X- r.9 0 <XXXJ > > F w w V ",
"X.*.I S U I 0 w t.}.S H _ u.3X^ / |  XR.( ^ ^ ` ;XS ' ^ ) w.` [ u. .( q.' ^ ' w 1X) ^ ^ / K.XX<./ ^ :XI./ $ 9 #X0.F +.F > * I V ",
"@.O.H S S I V B 9.5.:XK 4.) w.^ ^ ^ | ..^ 2.[ ^  .e.^ ^ / ( ^ <.oX3.^ ( / ^ ^ t. .^ ] 7.^ | ../ ^ ^ q.` | U <X7.2.# K K 6 F O.O.",
"F A O.O.H I V B 9./ #X*.<X/ ( ^ ^ ^ / ( ^ r.'.] ^ ( ^ ^ ^ ^ [ L.6.u...^ ^ ^ ^ / ^ _ '.u.^ / / ^ ^ ^ / / :Xw =X/ 2.# # , K F 6 F ",
"> > H O.S B >.I T.) ) =X4X/ ^ ^ ^ ^ ^ ^ ^ r.t.E._ ^ ^ '.^ ^ ..Y.4.L.<.^ ^ T.( ^ ) W.e.u.^ ^ ^ ^ ^ ^ ^ ^ 4X<X) ) u.K , K K F 6 O.",
"F > > S > B P >.I._ ^ ^ 1X4.^ ^ ^ ^ ^ ^ ^ r.e.4.].( ^ oXW.[ E.I.4XE.E. .T.oX( ^  X4.8.L.^ ^ ^ ^ ^ ^ ^ 4.4X^ ^ ( L.J K 5 6 6 6 F ",
"T J 5 7 < > > > ; 2.^ ^ ^ <X^ ^ ^ | u.( ^ r.q.-Xe.].) ].8.W.4.E.4XW.4.E.q.'._ .X8.:X8.L.^ / r.<.^ ^ ^ :X^ ^ ^ ,.P K V K K Z < < ",
"T J 7 4X<X: J J J 3./ ^ ^ ^ ^ ^ ^ } .Xw.( r.e.-X4Xe.].5.<X8.u.4X,X2XI.6.;X8.W.{ 4X:X8.L.( 7..X<.^ ^ ^ ^ ^ ^ ^ 1.Z O.K V 1X3XT A ",
"6 5 J =X7.<XB J J W.' ^ ^ } ^ ^ ^  .Y.e.q.K.e.&X4X4Xt.:.4X:XW.,Xx.v.'.-X4X8.~ O 4X<X8.Y.7.t.U.<.^ ^ ^ [ ^ ^ ) R.A O.C <Xe.#XT X.",
"S K @.&X( r.J B B B ,.^ ^ y...^ ^ ] q.4.e.].q.-X4X4X4X@ 4X4X>Xv.k v.3X+XC.;.m O 4X<X8..Xr.4.0.[ ^ ^  .y.^ ^ [ A O.O.K K.) XXT X.",
"T K A &X^ } XXS =X<X2./ ^ ^ w.<.^ ^ [ 8.e.Y.6.-X4X4XV.$.C.,Xv.M.&.M V.&.#.#.|.O 4X:X5.Y.e.8.| ^ ^ ,.q./ ^ ^ ,.1X&Xw %X..^ |.H S ",
"H R R =X_ ^ } I.'.P.R._ ^ ^ /  X1.^ <.U.'.$X8.n.,X4Xo {.@ v.M.oX&.x &.&._.oXoXO 4X<X{ ;. Xu.7.^ <.]._ ^ ^ ) R.P.W.T.,.^ ) #XS S ",
"8 L R 3XK.^ ^ ( <.P.r.) ^ ^ / 7.W...0.<.'.4X%Xl M x.n.{.o l oXJ.&.!.M.g J.oXoXo 4X*Xl M  X<.7.<.I.0./ ^ ^ ( r.P.1.( ^ ^ r.1X0 S ",
"F A R R XX^ ^ ^ ^ } | ( ^ ^ ^ _ '.5.6.7.I.%X4Xv n.@ oX{.4 H.oXn.$.M.&.l H.#.{.O m N &.c U.q.5.5.E.[ ^ ^ ^ / |  .^ ^ ^ ^ `.S S H ",
"T J H J #X] ^ ^ ^ ^ ( ^ ^ T.^ / <.U.t.W.5.|.4Xx !.J.l [.g $XoXM.4 &.[.c j N.x O H.!.H.e 5.E.U.u.2./ ^ I.^ ^ ( ^ ^ ^ ^ ' XXG I I ",
"J J V J 3XR.^ ^ ^ ^ ^ ^ ^ _ '.I./ ] 5.E.<XT.%Xv !.k /.j _.!.#.n.#.[.oXn M.l !._.oXoXH.M <X'.5.[ / u.'.] ^ ^ ^ ^ ^ ^ ^ K.3XV V S ",
"J H J w B `.^ ^ ^ r.[ ^ ^ ^ .X6..X.XY.E.4X4X4Xx !.{.@ @ oXJ.o #.|.oXoXx @ J.oX.XoXoXH.M 4X'.L..X Xq.]./ ^ ^ ] K.^ ^ / P.P P G I ",
"V J T J J oX[ ^ ^ ^ I.[ ^ ^ ( ].4.4.4.4.'.4X4Xv !.oXoX@ oXJ.c oX$XoXm N.oXoXoXoXoX!.v 4X X4.4.4.4.'._ ^ ^ _ E.^ ^ ^ ] ].L I V S ",
"K A A @.+.I T./ ^ ^ u.XX[ ^ / W.e.3X#X6.'.3X4X4Xk [._.@ _.N.#.|.{.{.#.H.oXoX_.oXoXH.M 4X].6. X3Xu.E.) ^ _ oXI.^ ^ / K.w 0 B B J ",
"T I A P +.I XX} ^ ^ ^ W.oX[ ] _ '.u.4X4X X#X4X4XM H.j j j l [.-.-.&.n._.|.!.x oXH.M 4X&X'.4X4XK.W.[ ] ] oX].^ ^ ^ [  Xw w > J L ",
"K I I I A A A K./ ^ ^ w.oXoXE...u.U.:X4X4X4X4X4X+Xc oXoX!.l H.m .X-.S.%.n.m |.N.@ +X4X4X4X4X<XI.u.<.Y.oXoXu.^ ^ / r.+.w w > J J ",
"X.I I I <X#XA #X .^ ^ ^ w.oX4.U.1.e.L.4X4X4X4XOX$.{.$XM.n.%.Q.-.).).).).j /.M.m E #.C.+X4X4XE.q.6.L.5..Xr.^ ^ ^ [ XXK %X:XB B > ",
"F H S R :Xy.XX4Xy.( ^ ^ ^ oXt.5.t.| Y.&X4X4XZ.&.[.oX&.#.%.).).).).).).).j $.&.oX|.c.x.C.4X-XI...q.5.t..X^ ^ ^ / w.4X#XK.%XS 8 S ",
"U S 7 < S `.} XX&X .^ ^ ^ 2.oX5.].E.q.T.4X4XM H.oX&.O ).).).).).).).).).k W %.2.$.C.4X4X4X'.q.E.'.6.].7.^ ^ ^ [ #X%X .P.R H H S ",
"U R H 7 R :X3.[ XXr./ ^ ^ ^ 1.E.'.1X X'.#X4XM H.%.V.o ).).).).).m.m b A.m.^.@ 3 Z.4X4X4X-XW.XX<X].Y.2./ ^ ^ / q.%X} 1.=XJ H T T ",
"B S R F R B `.' [ R.} ^ u.^ / ].q.4X4X1X<X4XM j C.3XOXc ).).A.z c.M E ^.).).@ OX4X4X4X4X1X<X4X4Xt.'._ ^ K.^ ] `.[ _ T.B B 8 T T ",
"Y U & 0 I B 3X9.^ ] ( ^ ] E./ } E.T.4X4X4X4XM V.2X4X4X@ ).D.n G.c.%.^.).b j +X4X4X4X4X4X4X4X4XW.E.,./ I.] / / ] ^ 3.1XG J C C C ",
"Y U 9 0 I K K 4X9.^ ^ ^ ^ oXW.^  .E.R.4X4X4X,X4X4X4X4X@Xz ).^.(.^.).).b O +X4X4X4X4X4X4X4X4X'.Y.<.^ T.oX^ ^ ^ ^ 1.3XK 7 J R C C ",
"V 0 I I U K V K P.) ^ ^ ^ / oXoXoXE.L.4X4X4X4X4X4X4X4X2XO z ).).).#.O O h.i + 4X4X4X4X4X4X4XE.E.oXoXoX) ^ ^ ^ ) u.K 6 7 7 C C - ",
"* 0 4X3XI V K R K 9./ ^ ^ ^  X].8..XY.E.4X4X4X4X4X4X2X@ g A.@ + @ %.b h.p D.).O 4X4X4X4X4X'.U..Xq.'..X/ ^ ^ ^ 1.L 7 % 7 J 3X4XT ",
"> V <X1.:X1X3X1XT O.,.^ ^ ^ / '.'.5.e.u.R.3X4X4X4X4X+ A.h ^.^.).^.W f.z.a D.).h >X4X4X3XW.r.e.5.W.'.` ^ ^ ^  .I 8 1X1X3X:X3.-Xw ",
"S K K ;X} 0.P.y.&X1XT.) ^ ^ [ _ W.W.5.e.6.R.3X@X+X4XO O s =.k A.W f.z.j.i b.).C.@ +X4X'.6.e.6.E.W.] [ / ^ ( I.3X&XP.y.r. .%X= w ",
"> > V > #X( 1.2.' Y. X} ^ ^ u...5.u.Y.:XoXu.J.W x C.x + f.s s s a.g.g.p o o B.i.c 4 ~.u. X<XE.t.2. .t./ ^ ] }.E.] ,.3./ `.V = = ",
"F V > V <X3.^ ^ ^ ' ( ' / ^ / y.'.w.Y.E.4X~.$.%.b.t B.o u d.d.d.s r t r M + s.O =.E W OX4X'.U.r.W.u.( ^ ^ ] / ] ^ ^ ^ 2.-Xw I V ",
"O.I I I B =X,.^ ^ ^ ^ ^ ^ ^ ^ ( r.].e.e.-Xd.m.z E d s.o u y y d d y u r W v.f O W =.Q.%.S.t.q.'.y._ ^ ^ ^ ^ ^ ^ ^ ^  .%XS V V > ",
"S S I I B V =X,.^ ^ 2.) ^ ^ ^ ^ ) 7.e.r.W.#.m.m.^.b.t + a.t t t y p.d.i O @X@ =.).b.).m.E u.e.0.) ^ ^ ^ ^ / 3.^ ^  .#XS S V V V ",
"O.B H I P K R T.` ^ [ r.L.^ ^ ^ ^ _ 8.I.'.~.$.D.).).o g.j.O O O s j.z.a O v + ).).).D.$.Q.L.0._ ^ ^ ^ ^ L.r.} ^ ( y.S Z Z V V V ",
"J B S B B V X.<Xr.) ^ ] ].T.I.y.^ ^ ) 7.L.%X@Xm z z O z.k.O O O a.z.z.j.i O OXz ).Q.E ~.U.e.) ^ ^ r.I.I.oX[ ^ ( q.<XS S Z B B V ",
"9 U U 0 $ = J J 1X1.^ ^ _ oX8.XXW.W.q.( w.u.&X>X@X@XO z.l.f.O O a.z.z.z.p o 2X@Xh x (.u.r.( 7.W.W. Xq.oX_ ^ ^  .1XZ C C L S V V ",
"+.U U 7 U J J K 0 3X .^ ^ ( ].5.5.e..X]..X.Xe.-X4Xg l.z.j.r O O O d.z.z.k.i r 4X,X*Xq. X.X]..Xt.5.5.'.` ^ ^ [ 3XV Z K C Z G V V ",
"0 0 U U Y 0 = 0 0 > P [ ^ ^ / ].4.4.4.4.4.4.4.4.<Xg z.k.i h.O O O O f.z.z.i O 4X1X4.4.4.4.4.4.4.4.'.' ^ ^ _ B V I Z K K B B G S ",
"w X 0 U 0 = 0 J 3X4XL e.( ^ / [ ].Y.5.4.'.3X4X4X4Xk k.i h.O O O O a.l.z.z.z.+ o 4X4X4X4X].5.4.I.].} ^ ^ / q.V 3X3X0 Z C 8 V F G ",
"+.>.- G F % U Y `.].3X<Xr.] / I.' [ L.T.W.#X4X4X4X4XO h.O O O @ 4 O a.j.j.j.+ O 4X4X4X&XT.W.u. ._ L.) ] q.<X3XXXR.- B B F G V V ",
"X.>.>.- F q 0 0 % K.R.K. X&X}  .y.] } q.Y.1X4X4X4X4XO O O O O N Z.g o o O O O O 4X4X4X3XT.q. .] w.<.} $XXXu.`.r.R B B , G F F F ",
"X.- F = F U Y % 0 X.P.`.9.`.&Xr.1.w.| ..6.I.<X4X4XZ.1 1 4 O O N Z C.g O O O O O 4X4X1XT.6.4.[ q.2.w.#X`.3.}.y.T T ; H H H G I I ",
"C F F >.F q 0 % % X.O.'.3Xr.I.r.q.3.r.u.Y.T.'.1XC.e ! ! ! 1 g Z.R H Z.g 1 2 2 2 V.3X'.E.Y.L.r.7.0.9.P.r.4XW.5 T T w H H H V S I ",
"X U L 6 X % 9 J J = * 8 9 S K.R.y.1.| u.W.-X#X1Xk 1 3 3 2 D Z.B T C C M Q ! ! ! g 1XXX<XW.L. .<.y.R.P.4X- L J = 0 U U 0 U I V V ",
"$     X : J J J J 0 J J 0 B 3X#X<X'.L.<.I.R.:XT Z.C.V.C.V.~.Y = * V * M 4 1 1 1 g A <XE.R.<.t.`.<X#X3XP > * J L 0 0 % 0 U I I I ",
"U : 5 L L J < L 7 J J J J S 8 8 8 F 1XXX;X:X3XS 9 w C w & Y Y = * * w @X~.OXOXOXOXH 3X:X<XXX<XI V C P C > J J S K 0 0 0 0 V P ; ",
"U L L L L L L G 7 0 0 0 8 H S S 0 V V F I A F S S &   * w C V V V V T C * B 0 w * A F > > - V I I P P C C 8 G L 0 U U U w I V Z ",
"U F R S S P +.Z C K J J J < S U A V V 6 > C C C T X.C X.A X # w B 0 S A 8 C P I I K K * 8 7 7 A A V > J V : L L P U J B H T A A ",
"S F R R 7 C L L C 6 6 < J A 7 7 A V V G V C C C = C T T T w V @.V 0 8 8 S C C V V K w * w < 7 = 7 V > > V : - P L B B T H A T A ",
"S F R F 7 C L +.+.6 G *.J 7 U S S V G L V C C R C = - - X.+.w V o.0 8 S S C ; V I 0 0 0 K Z A 7 7 > J K J ;   : L U T J R T A T ",
"S G R F S +.+.L +.G *.*.*.S U U U B V V K R * C C - A C C +.+.+.+.F S I B C C C I K K K w < Z * 7 > V V V . . L L H J B H R : Z ",
"I P : P P T T T T J H H , Z < P P < < < X.6 X U I 0 8 9 8 6 I C 6 F S S S S S S S 6 5 P 7 7 I I   : S - > - S R S B V U U w O.w "
};
