/* XPM */
static char *result[] = {
/* columns rows colors chars-per-pixel */
"64 64 207 2 ",
"   c black",
".  c #260B04",
"X  c #291008",
"o  c #331208",
"O  c #3F3B2F",
"+  c #333333",
"@  c #393937",
"#  c #3A383A",
"$  c #421808",
"%  c #421910",
"&  c #4A2110",
"*  c #522412",
"=  c #532919",
"-  c #5A2C19",
";  c #5A3119",
":  c #633219",
">  c #633521",
",  c #663B22",
"<  c #6B3C22",
"1  c #6B3C26",
"2  c #733E23",
"3  c #715C1E",
"4  c #7D641A",
"5  c #4F472E",
"6  c #6D442B",
"7  c #734121",
"8  c #734429",
"9  c #7B4529",
"0  c #774A2D",
"q  c #7B4A2B",
"w  c #675522",
"e  c #7C4D31",
"r  c #7F5131",
"t  c #2C3748",
"y  c #3D3642",
"u  c #223D62",
"i  c #42374A",
"p  c #4B3957",
"a  c #583D6B",
"s  c #623F79",
"d  c #19427E",
"f  c #494844",
"g  c #514C47",
"h  c #545349",
"j  c #5C564E",
"k  c #575757",
"l  c #635D53",
"z  c #6B6659",
"x  c #75695E",
"c  c #5A566D",
"v  c #4E5873",
"b  c #5F6B67",
"n  c #6A6A69",
"m  c #796965",
"M  c #797763",
"N  c #7B7A79",
"B  c #8C7018",
"V  c #A27D0E",
"C  c #804B2D",
"Z  c #834E31",
"A  c #845232",
"S  c #895534",
"D  c #8C5935",
"F  c #8C553A",
"G  c #8C593A",
"H  c #925D3C",
"J  c #8B7425",
"K  c #94613D",
"L  c #98633E",
"P  c #946142",
"I  c #9A6542",
"U  c #9C6943",
"Y  c #A36C44",
"T  c #A56D4A",
"R  c #A5724A",
"E  c #AC754B",
"W  c #AD794A",
"Q  c #AD7552",
"!  c #AD7B52",
"~  c #B57D52",
"^  c #847668",
"/  c #8D7D6E",
"(  c #857777",
")  c #AA8918",
"_  c #CB9A02",
"`  c #FFC702",
"'  c #FFC805",
"]  c #FFC708",
"[  c #FFC90B",
"{  c #FFCC13",
"}  c #FFCD1C",
"|  c #FFD017",
" . c #FFD11B",
".. c #FECE26",
"X. c #FFD424",
"o. c #FFD52C",
"O. c #FFD92C",
"+. c #FFDB33",
"@. c #FFD339",
"#. c #FFDF3B",
"$. c #FFE03E",
"%. c #B58252",
"&. c #BD8652",
"*. c #B5835A",
"=. c #BD865A",
"-. c #BD8A5B",
";. c #AC9A5D",
":. c #BAA253",
">. c #87856C",
",. c #8C8A73",
"<. c #968775",
"1. c #989677",
"2. c #BD8E63",
"3. c #A6927E",
"4. c #A3A17F",
"5. c #C99766",
"6. c #FFD543",
"7. c #FFD74A",
"8. c #FFDA4B",
"9. c #FFD751",
"0. c #FFDC52",
"q. c #FFDC5C",
"w. c #FFE243",
"e. c #FFE34C",
"r. c #FFE554",
"t. c #FFE65B",
"y. c #FFE85F",
"u. c #DFC979",
"i. c #FEDD67",
"p. c #FFDF72",
"a. c #FFE365",
"s. c #FFE863",
"d. c #FFE46B",
"f. c #FFEA6C",
"g. c #FFE474",
"h. c #FFEC75",
"j. c #FFE57B",
"k. c #FFEC7B",
"l. c #124695",
"z. c #0B4AA7",
"x. c #74478D",
"c. c #774498",
"v. c #7A618B",
"b. c #83598F",
"n. c #8A6F87",
"m. c #8848B2",
"M. c #984DCB",
"N. c #9D4ED2",
"B. c #A450DD",
"V. c #AB51E7",
"C. c #B052EE",
"Z. c #B453F4",
"A. c #BB55FE",
"S. c #8B8B8B",
"D. c #9A9985",
"F. c #96918E",
"G. c #AB998A",
"H. c #AAA783",
"J. c #BCA78D",
"K. c #B8B58C",
"L. c #BFBC91",
"P. c #A8A7A7",
"I. c #B7B7B6",
"U. c #C5AC92",
"Y. c #D2B69B",
"T. c #E6B684",
"R. c #DBBEA1",
"E. c #C5C295",
"W. c #D2CE9E",
"Q. c #FFE486",
"!. c #FFED84",
"~. c #FFEC8C",
"^. c #FFF087",
"/. c #FFF08C",
"(. c #FFED93",
"). c #FDE698",
"_. c #FFEC9C",
"`. c #FFF294",
"'. c #FFF39C",
"]. c #DBD6A4",
"[. c #EACAAA",
"{. c #E4DAA9",
"}. c #F6D4B2",
"|. c #E9E4AD",
" X c #FFEDA7",
".X c #FFF4A3",
"XX c #FFF6AB",
"oX c #FFF8AF",
"OX c #F4EEB3",
"+X c #F5F0B5",
"@X c #FFF6B2",
"#X c #FFF8B4",
"$X c #FBF5BA",
"%X c #FFFABC",
"&X c #BCEFC4",
"*X c #E8DCD0",
"=X c #FFFAC3",
"-X c #FFF7CA",
";X c #F3E8DC",
":X c #FEF5D4",
">X c #FFFBD3",
",X c #FFFBDC",
"<X c gray88",
"1X c #FFFBE2",
"2X c #FFFCEA",
"3X c #F2F2F2",
"4X c #FEFEFD",
/* pixels */
"Y E L A E R R A R -.U q q : D D D S S S P T T T T < o < Y D : > S Z - A Z T Z - - , : $ , o > H > 2 2 2 2 Z %   Z - q ; - > ! ! ",
"G L E L L P L H K U U U L 7 D W W P S 0 S T T , . 6 Y Y Y > > E S A Z Z Z T T - - , G , G > o H > * * H 2 % % % % - q - e G G G ",
"G E E E A K R P A q q U U E D D D A A 0 P T T < < Y Y Y Y E S S E Z E Z A T T Z T G S , G > > : H * * H 8 % &.&.% q q q U G > > ",
"R 2.K E K ~ 5.! Q U G Y %.~ 8 8 8 S G S R -.-.8 U *.*.D *.I Z Z %.8 I I 8 ! 0 ! ! ~ 6 7 < & % 0 2 - - Z S G % G % $ e $ e = S r ",
"R K R K K -.~ ! ! R G G Y ~ K K 8 S S , R 8 U L U *.G G G Z I Z U -.U P 8 8 8 %.6 < K K D 0 & 8 9 - - - ! & & G 1 ~ ~ q 0 - A ! ",
"S K K K K ! 5.5.! U U G T ~ ~ H 8 S S 6 7 8 8 -.-.*.: *.~ I %.I Z P 8 I 8 8 6 T.*.7 ~ : 7 L 8 U 8 - ! - - & G G & q ~ e q ! S S ",
"R 2.K E W ! 5.5.5.*.%.Y U ~ o.2 8 S S S (.8.-.-.-.G *.*.G %.%.I I I P 8 8 8 8 8 8 : 7.H G U I 8 8 } ! S - 1 G G 1 $ q q e A = = ",
"%.E 2.H R R 5.5.R E E R R =.=Xq q A r r j.'.q R q G 8.5.P Q ! %X#Xi.K K XX0.r r ! R .Xg.R A Z - - R R A R R T T T < < < 1 - e Z ",
"U H 2.2.Q e e e R K Z L R I %X0.U < A -Xg._.g.* T H =Xd.- 0 0.#X#Xq.4X:Xj.=X! ! ! g.'.d.8 Z Z = 7.%XT : Z T & % T K : 7 I R R - ",
"U R K 2.2.0 e 0 R P Z Z K 0 %X%X@.A >Xg.%X%X(.g.q p.`.g.-Xq.#X%X%X#Xg.,Xk.(.p.r r (.%X%Xi.= Z o.%X=X: : S 0 0 9 R K 6 : K r r r ",
"%.2.R H Q R q e e Z K =X0.:X%X%Xd.q.1X!.%X%X'.(.R (.'.%Xp.d.#Xh.h.@Xd.j.%X.X_.4X X'.%X%Xk.1X7.d.%X%X: o.A % 0 0 T P -.L < = R r ",
"*.*.P H H R A A t.U 0 8.d.7.#X%X%Xj.i.%X.X^.%X=Xg.~.%X%X~.@X%Xe.w.%X@X~.%X%X(.!.=X%X^..X%Xq.j.%X%X@X@.a.O.E e *   $ U U 7 L *.*.",
"P H *.*.P R A A (.U 9 2.#X(.#X%X%X#X(.%X'.e.~.%X.X.X%X%X%X%Xf.{ { h.%X%X%X%X.X.X%X^.e.'.%X~.#X%X%X%X~.@XR e e `.* $ $ 2 U P 7 K ",
"< < H *.H Z 5.R d.=XU q =X%X%X%X%X%X%X%X'.+.O.~.%X%Xk..X%X%Xe.' ` e.%X%X.Xk.%X%X^.O.O.'.%X%X%X%X%X%X%X=XZ e %Xd.Z U 1 I U K 7 *.",
"I : 6 G , Z T 5.t.%X%X2X7..X%X%X%X%X%X%X'.O.' O./.%Xf.r..Xa.[ :X:X| s..Xr.f.%X/.O.' O.'.%X%X%X%X%X%X.X@.2X%X%Xi.e U U 6 2 7 7 K ",
"%.P 8 8 2 < < < #X%X%X=X,X=X%X%X%Xr.%X%X`.O.{ X.O./.f.| #.{ ` S S W { #.| f./.O.j.q.O.'.%X%Xt.%X%X%X=X,X%X%X%X*.T U A U U G 2 2 ",
"%.P 6 8 8 : Y I =X%X%X%X%X%X%X%X%Xw.r.%X'.O.` H ' o.|  Xo.` ,XS D A ` @. X} O.6.Z o.O.'.%Xr.w.%X%X%X%X%X%X%X%XF G *.U A A G %.G ",
"7 6 I ' P A Z I 6.g.%X%X%X%X%X%X#X#.[ t.`.O.` H H ` ` j.H } ,X! S q ! 4X X' @.: A  .O.`.t.[ #.#X%X%X%X%X%X%Xg.} G *.A A ' H %.! ",
"K I -.!.[ A I Z 4X>X%X%Xs..X%X%X%Xw.` [ #.O.` 8 H S { !.H I Y I E ! e * ).@.T Z : ..o.#.[ ` w.%X%X%X.Xa.%X%X-XG *.*.U [ k.G ! ! ",
"! U G %X=X*.*.1X2X=X#X%X%Xs..X%X%XXX[ ` | X.` q S A 9 q 9 Z K Z Z H 1 H G Y 2.U A ..X.o.[ [ XX%X%X.Xs.%X%X#X%X1XP e ~ =X%XQ K K ",
"P ~ ~ `.%X-X>Xj._.Q.~.%X%X%Xr.'.%XoX#.[ I ` ` 0 0 K H S q Z q n + z , H G Y Z A A @.[ =Xo.#.@X%X'.e.%X%X%X~.j.(.q.-X=X%X(.E L H ",
"0 Y ~ 8.%X%XQ.~.,X1X-X%X%X%Xf.w.!.`.r.` P H H S g j z z z A K K @ OXz >.1 Z A Y Y p.U Y ..r.(.~.w.f.%X%X%X>X,X,XQ.!.%X%X6.0 0 P ",
"L G ~ 2X%X%X%X%X>X.X.X%X%X%X%Xw.` +.s.| A 9 9 S S 1.|.%X%X,.M I.N L.=X{.,.Y A Z A ~ ~ ~.X.d.+.` w.%X%X%X%X.X.X>X%X%X%X%X~ H H H ",
"! P P I !.%X%X%X%Xk.'.%X`.#X%Xh. .' 6. .' 9 K S S K D.|.%X#X%X>.P.f %X%X].D.R R 9 I I ..X.q.] } k.%X#X`.%X`.j.%X%X%X%X!.Y L R R ",
"I I Z P j.%X%X%X%X%X%X%X^.!.^.%Xh.' q.[ { j.H q K P.k E.%X%X%X%X,.5 $X$X%XL.S.G H Z (.9.9.Q.[ h.%X^.!.^.%X%X%X%X%X%X%Xp.0 A A K ",
"P I I Z 1X%X%X%X'..X%X%X%Xt. .h.k.X.` E A Q.S F.D.1.1.1.|.4.+X%X$XD.H.%X].1.D.D.D.L _.=XQ } X.h.h. .t.%X%X%X.X'.%X%X%Xq Y R H R ",
"A L ! U  Xj.%X%X.Xk..X%X%X`.O. . . .` A A S ,.H.].%X%XE.,.4.>.$X%X|.h %XE.M H.,.,.A I %.p.[ } {  .O.`.%X%X.Xk..X%X%Xg.0 Y R S H ",
"U G G -.=._.%X%X%Xh.y..X%X%Xe.' p.W ` ` A M ].=X#X%X%X%Xl ].f $X%X$XE.{.>.4.l h h q G I ..` i. X' e.%X%X.Xy.h.%X%X%X(.e Z Z A L ",
"%.R G R -.).d.%X%XXXy.y..X%X'.+...W L L @ f H.%XH.E.%X%XW.M @ z %X%X%X+XH.>.E.E.E.,.G g.a.U e 6.+.'.%XoXt.s..X%X%Xp.Q.e q < I I ",
"U R T R G D @X%X%X%Xf.w.t.y.#Xw.` Z Z L W %.F.l 1.,.E.%X>.L.W.W.%X%X|.M +X|.%X%X$X|.,.;.U G e ` w.#Xy.t.w.f.%X%X%X@X-.e e < L Y ",
"! R R R G R j.d.%X%XoXy.w.| e..X+.` Z W W %.H S.5 D.>.h L.$X%X%X%X%X$XL.>.=X%XH.g g 5 @ 0 I ' #..Xe.{ $.y.oX%X%Xa.p.Y U e Z Z < ",
"P L K ~ ~ I A =X%X%X%X#Xy.' ' e.XX` Z H R E S.1.OX,.@ K.$X%X%X%Xf %X%XW.b L.5 1.>.P.F L D K ' oXe.' [ t.@X%X%X%X-XZ Z Z I P 9 H ",
"E P 2 8 L A , q.a.%X%X%Xy.#.' ` ' #.` Z Y E ,.$X%X>.K.%X%X%Xf + @ %X%XW.@ M $X#X%X>.S.D D [ +.[ ` ' #.y.%X%X%Xd.d.Z I %.%.L K K ",
"E ~ P 8 ~ %X-X4X>X%X%X%X%Xt.' W R ` ` H K + + + + + K.%X$Xh [.}.@ %X].j J.M $X%X%X>.I I 0 ' ` K S ' t.%X%X%X%X-X4X>X%XI I L Q ! ",
"Z H %.H ~ A @X>Xi.k.%X#X%X%Xe.` H H R ' R E H K K N K.OXz Y.}.}.@ ].g [.J.@ >.|.1.F.L U ' A L S ` e.%X%X#X%Xg.g.>X@XZ Z Z 0 ! ! ",
"W R * q R Z 0.%X,X-X%Xh.`.%Xy.{ R T H L T W U P U n 4.M Y.}.}.}.+ + g x U./ 3.f P.L L L E H D K [ y.%X`.h.%X>X>X%X0.I I I F S S ",
"W R r q R U U %X%X%X%X%Xy.`.#Xy.[ T T T T I ~ Q P n k G.[.}.Y.U.k n Y.}.}.}.D.( K A A K L 8 A [ s.#X`.y.%X%X%X%X%X8 L 8 I ! S S ",
"A q R R R U S .X.X%X%X%Xh.w.`.'.w.` T T H A I Q U 8 T n Y.}.n b 3X<Xg }.[.J.n.a n.K L A A A ` #.'.`.w.h.%X%X%X.X`.U 8 8 8 D S : ",
"- q r q R A I *.k.%X%X%X%Xt.w.O.#.{ A H Z A + g F.Y T v./ }.&X&X;X*X^ [./ i m.B.b.z Z A A K | #.O.w.t.%X%X%X%X!.Y 8 & 8 I : : ! ",
"7 r 7 A U P q ! ! %X%X%X%X!.w. .O.O. .5.E g l / / N S.b.x.F.[.}.}.[.3.3.z s B.n.U.^ 9 S S | O.o. .w.k.%X%X%X=X,X9 0 8 = K R r r ",
"H U U A U ! 0 0 P g.'.%X%X%X!.w. .` ..J m x 3.l l l Y.l N.p <.<.<.<./ 3.J.s m.^ }.J.l 9 `  .'  .w.!.%X%X%X X~.H R K = 8 = ; ; r ",
": 6 r 7 t.K q L ! Q. X%X%X!.#X^.w.[ u.j U.g <.z l <.Y.J.x.m.# <.3.3.}.R.( M.N.b.U.}.m _ ..9.' w.^.#X!.%X%XXX X).D K K d.K r ; ; ",
"K A 7 A 8.K K ~.8.(.h.'.%X`.h.h.^.O.i.N x j U.<.j v P.D.5 V.y [.^ }.}.U.a A.N.( <.^ l.S S @.O.~.h.h.`.%X'.j. Xq.`.%X%Xq.L A R r ",
"*.R U R Z %X%X%X`..X(.XX%X%X`.w.f.#.} U g f x v l.d c P H s m.m + x x ( N.N.p g <.H.c # 0 ` #.f.w.`.%X%XXX(..X'.%X%X%XH D A A : ",
"P H R T Z A %X%X%X%X%X%X%X%X%X'.#.{ ] @.G ~ I t u P P P P ~ a + + + + i a p + x R.}.Y.j _ ] { #.'.%X%X%X%X%X%X%X%X%XD H H A A A ",
"*.Z H R R I %.%X%X!.'.%X%X%X%X%X'.O... X} ~ I I I P P P P P @ z.z.z.z.z.z.d x R.}.}.<.) |...+.'.%X%X%X%X%X'.!.%X%X=XH H H A Z A ",
"L Z P Z Z A %.a.%XoXh.r..X%X%X%X%X.X+.6.R I ~ ~ ~ 8 = P + # + t t t t t t t y 3.}.<.P.:X7.+.'.%X%X%X%X.Xr.h.@X%Xi.H H D D S A A ",
"q E E q % - U { a.%X#Xs.e.e.e.%X%X%X'.+.} > G G > 9 H + N.C.C.+ + + + p m.+ + # i P.4X0.+.'.%X%X%Xe.e.e.s.#X%Xd.{ S D D U D Z A ",
"-.E E 0 W L U U q %X%X%Xy.[ #.w.w.r.%X.XO.[ %.%.G E M.Z.A.A.i + + + p A.A.m.+ + E 4Xq.+.'.%Xr.w.w.#.[ y.%X%X%XA A D U D D U A A ",
"0 0 E E W q ; q q , %X%X%Xt.[ ` ` #.w.#.#.O.' G G m.A.A.A.p V.@ + + i A.A.A.m.+ + ) o.w.w.#.w.` ` [ t.%X%X%X%XA R G U U 9 Z U D ",
"0 % q R 0 ; q L I Y Y #X%X%Xr.[ ' ` ` ' ' ` ` ) c.A.A.C.p N.y + i f i A.A.A.A.c.+ ) [ [ ` ` ` ' ' t.%X%X#XXXS ; : 9 G D 9 A H U ",
"%.5.: L K & W W E %.[ h.%X%XXXr.r.[ ' ..< ! ! H c.B.B.a + + + @ T ~ c V.A.A.C.x.@ S.3X:X@.' [ r.t.XX%X#Xk.[ 6 .   < q Z L K A A ",
"%.5.5.: K q 0 0 & q o ..!.%Xs.'.%Xr...Q.[ ! Q 6 + + + + + + + G G H C p N.N.x.+ + + , { Q.} e.#X'.s.%X!.} . ! ! ! Z Z < P L K K ",
"%.; K : K W %.* q %...(.a./.'.y.'.#Xw.` G G G 6 8 + + + + + *.T F H H + + + + + + + < < ] w.XX`.y.'.~.s.I . 6 %.! < P P P H T R ",
"D L K -.K q r & & %.%.q %.t.y.!.y./.0.[ ` 6 G P w w w w O + Y *.*.I ~ L + + + + + + J ` { 0.k.y.^.t.r., U ! 6 ! ! e P P P A L R ",
"% Y Y 6 X & 6 L U ; - q q H q s.k.y. .O...[ P w V _ _ _ 5 + Z A E Z S S A + + 5 3 w J ..O. .y.k.y.D S R 1 I I ; q E R e E R A A ",
"%     o 1 I Y I U q I I 9 9 ..Q s.0.s.} K 8 B w B B B B 5 + W - - S - A ! R 5 V _ _ w :.6.s.0.f.A G T T < - H Y q e % Z E R R R ",
"E 6 1 Y Y I 2 I 8 I U I U P 9 9 9 { 7.L K 8 P H 6 r r A & W W ; - - A ! ! R 5 4 4 4 5 ) *.8.} R A S T S < L Y I I q q q q S T > ",
"E Y Y Y Y I Y L 8 0 9 q q P P H 9 A A K R H P P G =   = S A A A A S ! S - Z Z q - H H 7 , : A R T T T S S q L I q E E E q R A F ",
"E K ~ L H Y =.S D I I I I 2 H E G A A 7 < S A S ~ ! S %.G o $ r r 0 H G 0 S R R R U U - q 8 8 G G A < U A > Y Y Y Q I Z P ! G G ",
"D K ~ ~ 8 D Y T D 7 7 7 I G 8 2 H A S U A S S S - G ! ! ! r r -.Z q 9 9 K S S S S U q - q 8 8 ; 8 A : 7 A , , Y Y Z Z Q P G ! G ",
"H L ~ K 7 D Y =.=.7 I 2.I 8 E H D A L U A S S ~ F ; : : W =.A r &.q q H D S 1 A R C q q I F G 8 8 < U U U :   , Y ! Q I ! ! G ! ",
"G K ~ K P =.=.Y =.I 2.2.2.H E E E A A A U ~ - S S : S S D -.=.=.-.K H R C F Z S R L U U q 8 F - 8 < A A S . . Y Y H I Z P ! < G ",
"R T 1 T T ! ! E ! P P P 1 S 8 T Y 2 2 2 %.6 o E E 9 0 0 9 7 R D 7 H H H H H H H H 6 6 Y 8 8 R R   , G < < : H %.H Z A E E e *.r "
};
