/* XPM */
static char *result[] = {
/* columns rows colors chars-per-pixel */
"64 64 201 2 ",
"   c black",
".  c #210800",
"X  c #290A00",
"o  c #291008",
"O  c #311108",
"+  c #3A1408",
"@  c #421408",
"#  c #421908",
"$  c #421910",
"%  c #4A2110",
"&  c #522410",
"*  c #5A2410",
"=  c #522419",
"-  c #542A19",
";  c #5A2C19",
":  c #5A3119",
">  c #633219",
",  c #633521",
"<  c #663B22",
"1  c #6B3D22",
"2  c #6B3C26",
"3  c #733E23",
"4  c #6E432A",
"5  c #734121",
"6  c #734429",
"7  c #7B4529",
"8  c #774A2D",
"9  c #7B4A2C",
"0  c #674E36",
"q  c #7C4D31",
"w  c #655134",
"e  c #695536",
"r  c #6A5A35",
"t  c #64533B",
"y  c #6C553C",
"u  c #6D5A3C",
"i  c #755439",
"p  c #715E3C",
"a  c #72623E",
"s  c #786A3E",
"d  c #655743",
"f  c #6A5641",
"g  c #675943",
"h  c #6C5B43",
"j  c #6E5E49",
"k  c #755B42",
"l  c #735D44",
"z  c #735E4B",
"x  c #6C604A",
"c  c #746343",
"v  c #796544",
"b  c #776947",
"n  c #7B6A45",
"m  c #74634A",
"M  c #7B654B",
"N  c #7D6B4C",
"B  c #736653",
"V  c #796551",
"C  c #756957",
"Z  c #7C6C53",
"A  c #7B6D5A",
"S  c #7E7054",
"D  c #7F735B",
"F  c #804B2D",
"G  c #834E31",
"H  c #835232",
"J  c #895635",
"K  c #8C5935",
"L  c #8C553A",
"P  c #8C593A",
"I  c #925E3C",
"U  c #94613D",
"Y  c #98633E",
"T  c #816D4D",
"R  c #946142",
"E  c #9A6542",
"W  c #9C6943",
"Q  c #85744A",
"!  c #82724D",
"~  c #836D52",
"^  c #857352",
"/  c #897455",
"(  c #877952",
")  c #8B7C54",
"_  c #83745A",
"`  c #8B7559",
"'  c #8C7B5B",
"]  c #907F57",
"[  c #917D5D",
"{  c #A36C44",
"}  c #A56D4A",
"|  c #A5724A",
" . c #AC754B",
".. c #AD794A",
"X. c #AD7552",
"o. c #AD7B52",
"O. c #B57D52",
"+. c #827565",
"@. c #857A66",
"#. c #8C7D63",
"$. c #887B6A",
"%. c #947E61",
"&. c #937E67",
"*. c #8F8359",
"=. c #93835D",
"-. c #98895F",
";. c #B58253",
":. c #BD8652",
">. c #B5835A",
",. c #BD865A",
"<. c #BD8A5B",
"1. c #8D816B",
"2. c #958462",
"3. c #998564",
"4. c #968867",
"5. c #9B8B65",
"6. c #94856C",
"7. c #9D8C6A",
"8. c #9D9164",
"9. c #9F906D",
"0. c #8D8374",
"q. c #968A74",
"w. c #9D957B",
"e. c #A18D6C",
"r. c #BD8D63",
"t. c #A2926C",
"y. c #A4996C",
"u. c #A8996F",
"i. c #A48E73",
"p. c #A59472",
"a. c #A79776",
"s. c #AB9C74",
"d. c #AD9C79",
"f. c #B19F77",
"g. c #B29F7B",
"h. c #ADA174",
"j. c #AFA17C",
"k. c #B4A478",
"l. c #B2A37C",
"z. c #B5AA7C",
"x. c #B9AA7E",
"c. c #C59463",
"v. c #CE9A63",
"b. c #CE9A6B",
"n. c #B6A581",
"m. c #B8A583",
"M. c #B7A882",
"N. c #BAAB84",
"B. c #B5AB8C",
"V. c #BDAD8A",
"C. c #B7B083",
"Z. c #BDB184",
"A. c #BFB28B",
"S. c #C1AF86",
"D. c #C1AE8C",
"F. c #C2B587",
"G. c #C3B48C",
"H. c #C5BA8C",
"J. c #CABC8E",
"K. c #C6B693",
"L. c #C7BA91",
"P. c #CBBD94",
"I. c #D0BE98",
"U. c #E6B684",
"Y. c #CDC295",
"T. c #CFC299",
"R. c #D1C496",
"E. c #D5CA97",
"W. c #D2C59A",
"Q. c #D5CA9C",
"!. c #D9CC9E",
"~. c #DAD19E",
"^. c #D6C6A1",
"/. c #D7CBA1",
"(. c #DBCDA3",
"). c #DDD2A4",
"_. c #DCD3A9",
"`. c #E1D5A5",
"'. c #E3D9A6",
"]. c #E2D6AA",
"[. c #E5DBAB",
"{. c #E9DDAD",
"}. c #E5DAB0",
"|. c #EBDEB1",
" X c #E7E0AB",
".X c #EBE2AE",
"XX c #EDE3B3",
"oX c #EEE6B8",
"OX c #F1E5B5",
"+X c #F4ECB6",
"@X c #F9EEB7",
"#X c #F2E6B9",
"$X c #F6EDBA",
"%X c #F8EEBA",
"&X c #F6F0B7",
"*X c #F6F0BB",
"=X c #F9F1BB",
"-X c #F9EEC2",
";X c #FAF1C2",
":X c #FAF6C6",
">X c #FFFEF9",
/* pixels */
"{  .Y H  .| | H | <.W 9 7 5 K K K J J H R } } } } 1 o 4 { K , , K G ; G G } G ; ; < 1 @ < O , I , 3 3 3 3 G $   G ; 9 ; ; , o.o.",
"P Y  .Y Y Y I U U W W W W > K .. .E J 9 K } } < X 4 { { { > ,  .J G H G H } } ; ; < P < P , O I , * & I 3 $ $ $ $ ; 9 ; q P P P ",
"P  . . .F Y | I H 9 9 W W  .K K K H H 8 R } } < 1 { { { {  .J J  .G  .G H } } G } P P 1 P > < , I & & L 3 $ :.:.$ q 9 q W P , , ",
"| r.U  .U o.b.o.X.{ P W ;.O.6 6 4 K J J | <.<.6 E >.>.K >.E G G ;.6 E R 6 o.6 o.o.O.1 1 1 $ % 6 3 ; ; J J I $ P $ # 9 # 9 ; H i ",
"| U | U U <.o.o.o.| P P { O.R Y 6 J J < | 6 E W W >.P P P G W H W >.E R 6 8 6 o.6 1 P P I 6 % 6 6 ; ; ; o.% % P 2 O.O.9 9 - K o.",
"J U U U U ..b.r.o.W | P W O.O.I 6 J J 5 1 6 6 <.<.>.> >.>.1.6.B.A.n.@.w.6 6 6 U.;.1 ;.1 > W 6 E 6 ; o.; : $ P P $ q O.9 9 o.J H ",
"| r.U  ...o.b.b.b.;.;.W { O.R 6 6 J J K | <.<.<.<.P >.>.N V./.)._._.T.7.Z 6 6 6 6 1 > I U W { 6 6 J o.J ; 2 P P 2 # 9 9 q H - ; ",
";. .r.I | | v.v.| | | |  .,.E 7 9 H H H H 9 9 | 9 P C l 9.T.{.oX$X$X~.V.^ x 1.q o. .# | | H G - ; | | H | | } } } 1 1 1 2 ; q G ",
"E I r.r.| q q q | U G Y | E 7 7 W 1 H W 1 | 9 0.m 2.q.m l.`.+X$X$X&XoXR.Q N 7.D A | 6 | 6 G G - - |  .> G } & $ } Y 4 1 Y | ..- ",
"E | U r.r.q q q | U G H U 9 W <.,.H H W @.A C Z a.L.(.N z.XX=X$X#X&X+X!.Q 8.(.V.2.x +.C | - G G - > > > H 8 8 8 } Y > 1 U q H q ",
";.r.| U o.| q q q q U R Y 9 W ,.E 1 g h y ~ ~ c 2.{.$X8.l.$X%X$X*X$X$X).n R.#XY.b b Z m j A G G X H > H H $ 6 8 } Y <.U 1 ; | q ",
",.>.R P R | H H | W 9 W W 7 Y 7 7 m _ 2.p.a.l.V.l.!.$X/.H.#X+X=X$X$X*X_.Z.oXOXx.N.M.j.a.6.~ g 0.; F F F F O.q =   @ W W 5 Y >.>.",
"R I >.>.I | H H H W 7 r.W K E W A S j.G.Y.(.XX#XoXoX&X*X$X].!..X+XR.OX[.+X$X+XOXoX X}.T.G.M.` g L F F { | G q = = @ @ 3 W U 5 U ",
"1 1 I >.I H c.| | r.W 9 9 K K W m 7.Q.oX$X&X$X*X&X$X*X$X@XH.R.s.R.E.k.`.@X@X&X=X&X+X*X$X%XW.m.c @.F *  .q G  .G F Y 4 E W U 5 >.",
"U 1 1 I 1 G | c.c.r.9 9 W W K _ *.l./.oXoX*X+X+X$X@X$X+X-X`.T.].XX/.G.#X+X+X$X*X@X@X$X%X%X}.F.#._ q.9 } q  . .G H W W 4 4 5 5 U ",
"o.E 6 4 3 1 1 1 1 q H W W K +.f ' l.W.Y.C. X$X@X+X.XOX+X%XXXP.N.B.D.`.#X$XoX.XoX$X%XOX!.C.Q.K.n.Z a.& & J W >.>.W W H W W K 3 3 ",
";.R 4 >X4 1 E E E H H C d d A ` ^ m.l.s.*.h.J.[..X$XH.s.G.T y l a u u 7.N.s.{.%X|.).x.e.=.W.N.e.b x t @.& P P P P >.W H H P o.I ",
"5 4 E E Y H G E E , +.h ` d.m.K.*.d.W.F.z.).).).~.$XW.^ l / 7.g.n.p.=.N c e.|.+X!.).{.W.f.D.^.! 9.j.7.^ h j >.P P >.H H H I ;.o.",
"I E <.<.E H E G G H g ` A.R.W.}.L.) ).[.!.$X@XOX*X$Xj.^ ^ N.I.]._.W.P.9._ ( (.#X%X#X%X}.{.|.N.Q P.Y.P.V./ m } P >.>.W H H P o.o.",
"o.W P | O.>.>.I L C #.m.Y.[.$X$X$X8.~.%X$X@X[.'.).).S ( N._.$X@X&X*XoXP.9.N V.].].).-X$X$X{.h.Z.%X|.{.W.G.` B 7 Y q O.E E X.U U ",
"Y O.O.P { | I } I m 2.L.{.+X&X+X+XH. X$X@X$XOXE.R.Y.b t.].$X%X@X&X@X$XXXV.=.7.(.R.'.=X@X$X$Xz.oX@X+X+X.XR.d.~ 0.7 E R q R X.I I ",
"9 W O.O.O.} I } _ N l.R.@X&X+X=X=X-X$X-X*X$X=X[.).N.N N.|.$X@X@X@X+X&X#XR.y.=.W.'.oX@X*X&X$X[.=X@X%X@X*XXXS.' h X.O.E E E 9 7 Y ",
"U P O.O.{ } >.} ' Z N.`.+X+X X+X$X$X%X%X$X+X&X@X%X/.N n.#X$X%X%X$X$X&X$X!.-.t.$X$X$X+X$X@X$X%X%X%XOX+X+XXXL.7.u o.R E O.O.I U I ",
"o.R E E o.E <.%.M ^ l.~.&X=X~.z.oXXX-X=X;X@X@X=X*X+Xy.j.#X-X%X%X&X$XoX-X(.=.W.*X*X&X#X$X%X+X-X%X$XY.*X+X+XR.t.p &.9 9 { { R | | ",
"E E G R O.<.<.k y v g.(.$X$X$XY.h.A.A.]._.P.#X*X=X+X{.x.P.#X%X%X@X=X$X].F.N.%X-X$X#X{.R.].OX(.W.l.).*X$X!.G.5.e M &.- - 9 H G Y ",
"E E E G G E f v / p 2.P./.OX$XXX8.N a N b N 8.J.OX=X$X].!.#X%X%X@X@X@X|.Y.#X%X%X].l.2.c T ' ' d.h.oX%XXXQ.G.~ i l h A q { | I | ",
"H E o.E E A T d.I.5.v 2.a.!.{.-Xl.w N ! ' ' =.) y. X*X@X%X%X@X%X@X%X%X%X$X%X%XW.) 2.3.[ ~ p y y (.-XoXQ.L.3.v s.g.` h 9 { | H R ",
"W P P <.,.f %.N.(.$XZ.( n t.l.(.7.v [ d.M.(.).]._.!.=X@X%X%X%X%X%X%X@X@X$X$X{.].[./.(.P.m.3.M v /.Q.Z.s.N ^ N.).I.e.N +.q G G E ",
"o. .P } D B 3.W.].$X$X[.Y.Y.W.|.( Q G.(.(.$X{.W.;X*X$X@X@X%X%X%X@X@X*X@X$X$X$X%X}._.%X|.`.H.7.r l.Q.M.n.h./.*XOXY.s._ d q > { E ",
"W | | | d l d.W.[.$X$X$X$X$X%X#X^ ' Q.OXN.G.R.h.h. X%X@X@X%X@X%X%X$X@X*X+X+X*XY.y.N._.l.#X{.g.T h.%X%X$X:X&X&X*X).G./ f q 1 E E ",
"o.| | | &.k &.D.Q.$X:X;X*X$X@X#XN n.Q.-X;Xs.x.Y.#X$X@X%X%X%X@X%X%X%X%X$X@X@X$X=X}.H.n.L.$XOXN./ h.-X%X$XOX=X$XOXQ.N.N t q G G 3 ",
"Y U U O.A 0 ~ [ ( ( 7.~.$X*X@X#X*.4.T.%X%Xf.P.'.=X+X=X@X%X%X%X%X%X@X%X%X%X@X$X$XOX).s.I.%X@XS.r l.%X$X=X*X#XXX/.K.2.l c W R 7 I ",
"X.R 2 3 _ y 0 e N 2.L.).'.$X$X$Xh.s !.+XY.h.!.$X@X*X@X@X@X@X%X%X%X%X%X%X%X=X@X@X@X$Xx.l.{.#XM.r Q.+X+X X`.N.) c p l 0 h ;.U I Y ",
"X.O.R 3 +.i / e.N.[.oX%X@X$X@X$X_.S z.OX'.F.XX$X$X$X$X@X%X*X%X%X%X@X%X@X$X@X%X%X@X=X).J.#X{.2.^ XX*X@X=X%X.X`.l.5.N h t E Y X.o.",
"G I O.I f / e.W.XX;X;X@X@X$X&X=X*XXXA.~.:X+X+X*X@X*X&X=X%X%X@X@X%X%X%X=X@X@X%XOX#XOX*X%X$X(.*.oX%X@X@X%XOX&X@XOXP.d.N u G 9 o.o.",
".. .* F k ` f.I.XX$X=X@X$X&X+X*X*X*X$X$X+X+X$X+X+X&X$X$X=X$X@X@X*X@X$X@X%X$X@X$X@X$X#X$X$X X$X%X%X=X$X@X&X@X$X$X(.L.5.~ E J J J ",
".. .9 $.~ [ G.!.#X$X$X$X$X$X+X&X$X$X$X*XoX*XOX+X&X%X$X$X@X@X@X@X&X&X+X*X*X%X$X-X%XXX&X&X$X@X@X=X$X$X@X@X+X+X+X+X[.Y.y._ t o.J J ",
"H 9 | 1.T 3.I.Q.:X$X#XoXOXOX#X+X*X=X+X$X$X%X XE.XX%X%X@X#X%X@X*X+X&X*X*X@X%X%X|.}.T.-X$X@X@X@X&X@X=X#X%X+X$X@X%X#XQ.l.2.d J K : ",
"- 9 9 1.N -.L.W.W.S.=.c v ! f.R.;X=XE.OX-XoXL.! ^ a.P.|.-X#X%X%X*X&X$X%X%X).V.^ ^ d./.-X%X%X*X*X%X).K.N.N.N.G.|.XXT.N.*.h > > o.",
"1 i 5 D M [ G.5.a b ^ ] ] 2.u.5.x.J.P.L.W.' r c c u l [ XX-X%X$X&X+X=X%XN.c a c a e m d.W.z.'.).N.*.b b N T n T p.P.s.^ u | H q ",
"Y W W @.e / [ c ' 7.l.L.W.].].+XOXk.=.5.c e c ' 2.7.2.! =.$X%X%X&X&X$XY.n ] 5.3.=./ p u ( Z.h.u.Q.W.P.F.M.9.=.! p 7.e.T 0 : : H ",
"5 > H a.u l M =.l.P.{.XX@X#X@X@X&X@X}.2.w ^ [ F.I.(.).T.F.OX%X@X@X$X@X!.H.(.`.(.G.t.` l c t.~.$X#X#X$XXX[._.L.N.[ T M v y q : : ",
"R H 1 7.3.y M 5.P.`.@X+X@X$X+X&X@X%X#X2.M ' N.!.$X$X%X-X#X%X@X@X@X$X@X@X%X%X%X@X|.I.i./ r P.%X$X&X@X$X=X*X#X_.W.m.` k l U q | H ",
">.| | w._ k ~ l.Y.{.@X=X@X@X$X$X@X%X#X3.c 2.S.|.-X%X%X%X@X$X%X$X@X%X%X@X@X@X$X*X$X^.a./ w W.%X%X=X@X$X*X&X-X$XR.F.%.z M I H H 1 ",
"Y R | } 6.c ` L.(.$X+X@X%X%X@X%X%X%X#Xm.l p.L.%X%X%X%X%X%X@X@X$X%X%X%X$X=X@X%X*X%X(.S./ v OX%X%X@X%X%X%X*X&X+X{.P.p.M T K H H H ",
">.G I |  .m / I./.$X@X@X%X%X%X%X%X%X%X{.p ' x.;X%X%X%X%X%X=X%X%X$X%X%X%X%X@X@X@X%X(.e.n N.%X%X@X@X%X=X$X+X&X=X+XW.d.v Z I H H H ",
"I G U G G C ` L./.#X$X+X*X%X%X%X%X%X%X#XS.T u.].%X$X=X$X%X$X%X%X@X%X=X@X%X$X=X$X$XJ.*.=.|.%X$X@X$X%X@X@X=X+X@X{.R.d.M 1.I H F H ",
"9  ...8 $ q.V M.Y.XX$XoX$X-X%X%X@X@X@X%X%XP.=.L.`.$X+X=X%X@X@X@X%X%X$X@X%X%X@X$XE.5.5.'.%X$X$X=X@X%X%X%X@X$X$X(.K.7.k K Y I H H ",
"<. . .8 ..E h 9.C.T.!.{.$X$X%X$X@X@X@X%X-X%X|.].#X#X%X%X@X@X@X@X%X%X@X@X%X%X%X$X{.].#X%X=X*X$X$X=X$X$X=X$X_.[.R.F.%.V K K E H H ",
"8 8  . ...9 0.C #.d.F.E.+X+X*X+X$X%X$X%X%X%X%X%X%X%X%X%X$X@X$X*X+X%X@X@X%X$X%X%X%X%X%X@X@X@X@X*X$X$X$X&X}.!.J.k.%.V W E 7 G W I ",
"8 $ 9  .8 : 8 1.g m ^ t.XX%X$X%X$X$X%X$X%X@X%X%X+X@X#X%X+X&X&X&X+X@X+X=X$X#X%X%X#X%X$X@X@X@X&X&X$X+X+X$X_.j.5.^ d 7 K L 7 H I Y ",
";.c.> U U % .... .A t ^ A.W.].W.H.[.$X$X%X%X%XOX[.`.OX{.$XOX&X&X$X$X#X#X#X|.|.).|.%X*X$X*X$X&X X).XX X_.7.b h 1.  1 G q R Y H H ",
";.c.c.> Y 9 8 9 % 1.d m ' a.Z.p.5.P.(.XX%XOX_.).z.Z./.H.].'.+X*X&X$XoX].!.G.W.5.I.(.XX$X%X$X).H.u.P.T.j.2.h C 1.o.G G 1 R I Y U ",
";.> U : U ..;.% 9 ;.8 + j b ^ N c i.A.P.W.T.Y.L.] t.m.N.P.W.XXXX@X$X).Y.I.g.m.~ d.P.T.W.Y.W.A.7.a 2.6.Z g $.$.;.o.< R R R Y } | ",
"K U U c.U 9 9 % % ;.;.9 ;.R m _ Z V %.k.A.V.a.3.v v %.7.D.d.T.E.).R.H.d.g.[ ` 0 ` 7.m.D.D.a.2.~ l l V < E O.4 o.o.G R R R H U | ",
"$ { { 4 o % 8 Y W : - 9 9 I 7 I R | u ~ ' _ c u 0 0 M ~ p.2.j.T.H.V.a.5.%.z k 0 y k V #.[ ~ h _ | J K } 1 E E : 9  . .9  .| H H ",
"#     O 2 E E E E 9 E E q 7 R X.I Y 6.l y h C o.A m t y ~ ~ ' 2.8.2.^ ~ m t l z 1.1.B g h m H H H J } } 1 ; { I 9 9 $ F ..| | | ",
" .4 1 { { { 3 { 6 E E E E I 7 7 7 U I R U 6 R I 6 H J V l l ~ T / ~ N h j @.G G q I 1 >.>.H | | H J } J 1 E E { E q 9 9 9 H | , ",
" .{ } { { E { I 6 9 9 9 F I I I 7 H H Y | P R I P -   - H H m f z t _ H ; H q G ; R I 1 1 > H | | } } J L 7 Y E 9  . . .q | J J ",
" .Y O.I I { :.K K E E E E 6 I  .I H H 5 1 J J J O.o.J o.K # # H H 9 P U 9 H | | | W W ; 9 6 6 L L H 5 W H > { { { X.E G R X.P P ",
"P U O.O.6 J { } J 5 5 5 E P 6 3 I H H Y G J J J ; J ;.o.o.H q <.H 7 7 7 I H L H J W 9 ; 9 6 6 : 6 H 1 1 H , , { { G G X.E P o.P ",
"I Y O.U 6 K { ,.,.5 W r.E 6  .I K H W W H J J O.J > > : o.,.H q <.9 7 I P K 2 J  .7 9 9 E L L 6 6 1 W W W <   < { X.o.E X.o.P o.",
"P R O.U Y >.,.{ ,.E r.r.r.I  . . .H H H W O.- K H > J J H <.>.:.,.I I  .F G J J | W W W 9 6 L : 6 5 H H J . . { { I E G R o.1 P ",
"| } 2 } } o.X.o.o.R R R 2 K 3 } { 3 3 3 ;.6 O  . .9 9 9 9 5  .K 5 U I I I I I I I 4 4 { 4 6 | |   < P > 1 > I :.I G H  . .q >.q "
};
