/* XPM */
static char *result[] = {
/* columns rows colors chars-per-pixel */
"64 64 130 2 ",
"   c black",
".  c #210800",
"X  c #290C00",
"o  c #291008",
"O  c #311008",
"+  c #311408",
"@  c #2C0711",
"#  c #421408",
"$  c #421808",
"%  c #421810",
"&  c #421C10",
"*  c #4A2010",
"=  c #4A2410",
"-  c #522410",
";  c #522419",
":  c #5A2819",
">  c #5A2D19",
",  c #5A3119",
"<  c #633119",
"1  c #633519",
"2  c #461A35",
"3  c #602C2C",
"4  c #633521",
"5  c #633921",
"6  c #673921",
"7  c #673D25",
"8  c #673F25",
"9  c #6B3921",
"0  c #6B3D21",
"q  c #6B3D25",
"w  c #6B3F25",
"e  c #6F3F25",
"r  c #6B3F29",
"t  c #733D21",
"y  c #733F25",
"u  c #6F4329",
"i  c #734121",
"p  c #734129",
"a  c #734329",
"s  c #734529",
"d  c #734729",
"f  c #77472D",
"g  c #7B4529",
"h  c #77492D",
"j  c #774B2D",
"k  c #7B4929",
"l  c #7B492D",
"z  c #7B4B2D",
"x  c #7B4D2D",
"c  c #7B4931",
"v  c #7B4D31",
"b  c #7F4D31",
"n  c #81462C",
"m  c #804D31",
"M  c #804F31",
"N  c #844D31",
"B  c #844F31",
"V  c #805131",
"C  c #845131",
"Z  c #845331",
"A  c #845335",
"S  c #8C5531",
"D  c #885335",
"F  c #885535",
"G  c #885735",
"H  c #8C5735",
"J  c #8C5935",
"K  c #8C553A",
"L  c #88593A",
"P  c #8C593A",
"I  c #8C5B3A",
"U  c #905B3A",
"Y  c #94593A",
"T  c #905D3A",
"R  c #905F3A",
"E  c #945D3A",
"W  c #905F3E",
"Q  c #945F3E",
"!  c #99602C",
"~  c #94613A",
"^  c #94613E",
"/  c #94633E",
"(  c #98633E",
")  c #B9792C",
"_  c #946142",
"`  c #986342",
"'  c #986542",
"]  c #986742",
"[  c #9C6542",
"{  c #9C6942",
"}  c #9C6B46",
"|  c #A56942",
" . c #A56D42",
".. c #A06B46",
"X. c #A06D46",
"o. c #A56D46",
"O. c #A56D4A",
"+. c #A5714A",
"@. c #A5734A",
"#. c #A5754A",
"$. c #A0734E",
"%. c #AD714A",
"&. c #AD754A",
"*. c #A9754E",
"=. c #A9774E",
"-. c #AD794A",
";. c #AD7552",
":. c #AD7952",
">. c #AD7D52",
",. c #AD7D56",
"<. c #B57D52",
"1. c #D19135",
"2. c #D9A13E",
"3. c #B58252",
"4. c #B18256",
"5. c #BD8652",
"6. c #B5825A",
"7. c #B5865A",
"8. c #BD865A",
"9. c #BD8A5A",
"0. c #BD8E5A",
"q. c #BD8A5F",
"w. c #BD8E63",
"e. c #E1B146",
"r. c #C59263",
"t. c #C59663",
"y. c #CE9A63",
"u. c #CE9A6B",
"i. c #E9C94F",
"p. c #FFFEF9",
/* pixels */
"X.&.( C &.+.+.C +.9.{ k k 0 J J J F F F _ O.O.O.O.w O w  .F 4 4 F B > B B O.m > > 6 6 $ 6 O 4 Y 4 y y y y M %   M > z > > 4 >.>.",
"P ( &.( ( ^ ^ ^ ^ { { { { 0 J &.&._ F k F O.O.7 X w  . . .4 4 &.F B B B B O.O.> > 6 P 6 P 4 O Y 4 - - Y y % % % % > z > z L L L ",
"P &.&.&.C ^ +.^ C k k { { &.J J J F F k _ O.O.7 @ @ @ @ @ @ @ @ @ @ @ @ B O.O.m O.P P 6 P 4 4 4 Y - - Y y % 5.5.% z z z { L 4 4 ",
"+.w.~ =.~ :.u.:.:.X.P X.3.<.p p p G G G +.9.@ @ 2 3 n n n ! ) ) ! n 3 2 @ @ @ @ ,.<.0 0 0 * * s s > > A A P * P * $ z $ z : A A ",
"+.~ =.~ ~ q.:.:.:.X.P P X.<.Q Q p G G 0 @ @ 2 3 n n n n ! ) ) ) ) ) ) ) ! n 3 2 @ 0 T T T s * s s > > > :.* * P q <.<.z z : A >.",
"H ~ ~ ~ ~ :.u.q.:.X.X.P X.<.<.Q p G G @ 2 3 3 3 n n n ! ) ) ) ) ) ) ) ) ) ! n 3 2 @ <.0 0 { s { s > :.> > * P P * z <.z z >.A A ",
"+.w.~ =.=.:.u.u.u.3.3.X.X.<.Q @ @ @ @ 2 3 3 3 n n n n n n n n ! ! ! ! ! ! ! ! n 3 2 @ @ @ @ @ @ s A :.A > q P P q $ z z z A : : ",
"4.*.w.E *.@.y.y.@.#.#.#.@ @ @ 2 3 3 n n n n 3 3 3 n n ! ) 1.1.) ! ! ! n 3 3 3 3 3 3 3 3 3 3 3 2 @ @ @ Z #.O.O.O.O.0 0 0 0 : M M ",
"[ E w.w.*.v v v @.^ N @ 2 3 n ! ! ! ! n 3 3 3 3 n n ) 1.e.e.e.e.1.1.1.) n n 3 3 3 3 3 3 3 3 3 3 3 3 2 @ Z O.* * O./ 0 0 / #.#.: ",
"[ *.E w.w.v v v @.^ @ 2 n ! ) ) ) ! ! n 3 3 3 n ) 1.e.e.e.e.e.e.e.1.1.1.) ! n n 3 3 3 3 3 3 3 3 3 3 3 @ Z f f f O./ 0 0 / M M M ",
"4.w.*.E *.@.v v v @ 2 3 ! ) ) ) ! ! n 3 3 3 n ) 1.e.e.e.e.e.e.1.1.1.1.) ! n ! ) ) ) ! n 3 3 3 3 n n 3 2 @ @ f f O./ 9./ 0 : #.M ",
"8.6.W W W @.C C @ 2 3 3 ) ) ) ! ! n n 3 3 3 ! 1.e.e.e.e.1.1.) ) 1.1.) ) ! ! ) ) ) ) ) ) ! n 3 n ! ! ! n 3 2 @ ;   # { { e ^ 6.6.",
"^ W 6.6.W @.C C @ 3 3 3 ) ! n ! ! ! ! n 3 3 ) 1.1.1.1.) ) ) ) ) ) 1.1.) ) ) ) ) ) ) ) ) ) ! n ! ! ! ! ! n 3 2 @ ; # # e { ^ i ^ ",
"0 0 W 6.W C t.@.@ 3 3 3 ! n ! ) 1.1.) n 3 n ) ) ) ) ) ) ) ) 1.1.2.2.2.2.1.1.) ) ) ) ) ) ) ! n ! ) ! ! ! ! n 3 @ b { e { { ^ i 6.",
"^ 0 0 W 0 C @.@ 2 3 3 n n ! ) 1.1.1.1.) n n ! ) ) ) ) 1.2.2.2.e.e.e.e.e.e.e.2.1.) ) ) ) ! ! ! ) 1.) ! ! ! ! 3 @ b { { e e i i ^ ",
">.] p p p 9 9 @ 3 3 n ! ) 1.1.1.1.1.) ! n n n ! ) ) 1.2.2.2.e.e.e.e.e.e.e.e.2.1.) ) ) ! ! ! ) 1.1.2.) ! ! n 3 2 @ } C } } T t t ",
">.] p p.p 9 @ 2 3 n ! ) 1.1.1.1.1.) ! n n n n n ! ) 2.2.2.2.e.e.e.e.e.e.e.e.2.) 1.e.i.) ! ! ) 1.1.1.2.) ! 3 3 3 @ 7.} C C T >.T ",
"i p ] ] ] B @ 2 n n ) 1.1.1.1.1.) ! n n ! ! ! n n ! 1.2.2.e.e.e.e.e.e.e.e.2.) 1.e.e.i.2.) ! ! ) 1.1.2.1.! 3 3 3 2 @ C C C T >.>.",
"R ] 0.0.] B @ 3 n ! 1.1.1.1.1.) ! n ! ! ! ! ! ! ! ! ) 2.2.e.e.e.e.e.e.e.2.1.) e.e.e.e.i.2.) ! ! ) 1.1.2.) n 3 3 2 @ } C C T >.>.",
":...P ..<.7.@ 3 n ) 1.1.) ) ! ! ! ! ! ) ) ) ) ) ! ! ! ! ) ) 1.1.1.1.1.) ) ) 1.e.e.e.e.e.i.e.) n ! ) 1.1.2.! 3 3 2 2 @ ` ` ;.Q Q ",
"^ <.<.P ..@ 2 3 ! ! ) ) ) ! ! ! ! ! 1.2.e.e.e.2.) ) 1.1.2.2.2.1.e.e.e.e.2.) 2.e.e.e.e.e.e.i.e.) n ! ) 1.2.) n 3 3 3 @ c ` ;.Q Q ",
"k ..<.<.@ 2 3 3 ! ! ! ! ! ! n ! ) 1.e.e.e.e.e.1.) 1.2.e.e.e.e.2.i.i.i.i.e.1.2.e.e.e.e.e.e.e.i.1.n n ! 1.1.) n 3 3 3 @ ` ` k k Q ",
"^ P <.<.@ 3 3 3 ! ! ! ! ! n ! ) 1.e.e.e.e.e.2.1.1.e.i.i.i.i.e.2.i.i.i.i.i.e.1.e.e.e.e.e.e.e.i.e.! n n ! ) ) ! 3 n n @ <.<.Q Q Q ",
":.' ' @ 2 3 3 2 n ! ! n n n ! 1.e.e.e.e.e.2.1.1.e.i.i.i.i.i.2.i.i.i.i.i.i.i.1.e.e.e.e.e.e.e.e.i.1.n n n ! ! ! n ! n @  . .^ +.+.",
"' ' N @ 3 3 3 2 3 n n n n n ) 2.e.e.e.e.2.1.1.e.i.i.i.i.e.e.e.i.i.i.i.i.i.i.2.e.e.e.e.e.e.e.e.i.e.! n n n n ! ! ! ! 2 @ z C C ^ ",
"' ' ' @ 3 n 3 2 2 3 n n n n 1.e.e.e.e.2.1.1.) i.i.i.i.e.e.i.i.i.i.i.i.i.i.i.i.2.e.e.e.e.e.e.e.i.e.) n n n n ! ! ! n 2 @  .+.^ +.",
"C ' @ 2 n n 3 2 2 2 3 n n n 1.e.e.e.2.1.1.) ) 1.2.2.e.i.i.i.i.i.i.i.i.i.i.i.i.2.e.e.e.e.e.e.e.e.1.) n n n ! ! ! n 3 2 @  .+.C ^ ",
"X.P @ n ! n 3 2 3 3 n n n n 1.2.2.2.2.1.) 1.e.i.i.i.i.i.i.i.i.i.i.i.i.i.i.i.i.e.2.e.e.e.e.e.e.1.! n n n ! ! ! n 3 2 2 @ v B B [ ",
">.+.@ ! ! n 3 3 n n n n n n ) 1.2.2.2.) 1.e.i.i.i.i.i.i.i.i.i.i.i.i.i.i.i.i.i.e.1.e.e.e.e.e.2.! n n n ! ! ! n 3 2 2 2 2 @ 9 [ [ ",
"X.+.@ ! ! n 3 3 n ! ! n n n ) 1.2.2.1.) e.i.i.i.i.i.i.i.i.i.i.i.i.i.i.i.i.i.e.2.) 2.e.e.e.2.! n n n ! ) ! ! n 2 2 2 2 2 2 @ [ [ ",
">.+.@ ! n 3 3 3 ! ) ) ! n n ) ) 1.1.) ! e.i.i.i.i.i.i.i.i.i.i.i.i.i.i.i.i.i.2.1.! ) 1.2.1.) n n n ! ) ) ! ! n 2 2 2 2 2 3 @ B 9 ",
"( Q @ n 3 3 n 3 ) ) ) ) n ! ) 1.) ) ! ! e.i.i.i.i.i.i.i.i.i.i.i.i.i.i.i.i.e.1.e.i.i.e.1.) ! n n ! ) 1.) ! ! ! 3 2 2 2 3 3 2 @ ^ ",
"&.Q @ 3 3 n n 3 ) ) ) ) ! ) 2.e.i.i.e.! 2.e.i.i.i.i.i.i.i.i.i.i.i.i.i.i.i.2.e.i.i.i.i.e.1.) ! n ) 1.1.1.n ! ! n 3 2 3 3 n 3 @ ^ ",
"&.<.@ 3 n ! ! n ) ) ) ) ) 2.e.i.i.i.i.! 2.2.i.i.i.i.i.i.i.i.i.i.i.i.i.i.e.2.i.i.i.i.i.e.e.1.) ! ) 1.1.1.n ! ! n 3 3 3 n n 3 @ :.",
"C Q @ 3 ! ! ! n ! ) ) ) e.e.i.i.i.i.i.) ) 1.2.i.i.i.i.i.i.i.i.i.i.i.i.i.2.e.i.i.i.i.i.e.2.2.1.) 1.1.1.1.n n ) ! n 3 n n ! n @ :.",
"-.#.@ 3 ! ! ! ! n ) ) ! 2.e.i.i.i.i.e.1.) 1.1.2.i.i.i.i.i.i.i.i.i.i.i.i.2.i.i.i.i.i.e.2.2.2.2.1.1.1.1.1.3 n 1.) ! n n ! ! ! @ G ",
"-.#.@ 2 n ! ! ! n ! ) ! ) 2.i.i.i.i.1.) 1.1.1.1.i.i.i.i.i.i.i.i.i.i.i.e.e.i.i.i.e.e.2.2.2.2.2.) 1.1.1.) 3 n 1.1.) n ! ! ! ! @ G ",
"C x @ 2 3 n ! ! n n ) ! ! ) e.i.i.e.1.1.2.1.1.1.2.i.i.i.i.i.i.i.i.i.i.e.i.i.i.i.e.e.2.2.2.2.2.! ) 1.) ! 3 n 1.1.) n ! ! ! ! @ < ",
": x x @ 3 3 n ! n ! 1.) ! ! 1.e.1.) 1.2.e.2.1.1.1.e.i.i.i.i.i.i.i.e.e.2.i.i.i.e.2.2.2.2.2.2.2.! ! ) ! n 3 n 1.) ! n ! ! ! ) @ >.",
"0 Z 0 @ 3 3 3 n ! ) 2.1.) ! ! ) ! ! 2.e.e.e.2.1.) 1.2.e.i.i.i.i.e.1.) 1.e.e.2.2.2.2.2.2.2.2.1.! n ! n 3 n n ) ! n 3 n ! ) ) @ V ",
"Q { { @ 3 3 2 n ! 1.2.2.1.) ! n n ! e.e.e.e.e.2.1.) ) ) ) ) ) ) ! ! ) 1.) 1.2.2.2.2.2.2.2.1.) ! n n n n ! n ! n 3 3 n ! ) n @ V ",
"0 0 Z @ 3 3 2 n ! 2.2.2.2.1.) n n ! e.i.e.e.e.e.2.1.) ) ) ) ! ! ! ) 1.1.1.) 1.2.2.2.2.2.1.) ! n n n n ! ) ! n n 3 3 3 ! n 3 @ , ",
"Q Z 0 @ 3 3 2 n ! 1.2.2.2.2.1.! n ! 2.i.i.e.e.e.e.2.1.) ! ! n n ) 1.1.1.1.1.) 2.2.2.2.1.) ! n 3 3 3 n ) ) ) ! 3 3 3 3 n 3 2 @ V ",
"6.+.+.@ 2 3 2 n n ! 1.2.2.2.) ! 3 n ) 2.i.i.i.e.e.e.2.1.1.) ! ! 1.1.1.1.1.1.! ) 1.1.) ! n 3 3 3 3 3 ! ) ) ) ! 3 2 2 2 3 2 @ C 0 ",
"^ Q +.+.@ 3 2 3 3 n ) 1.2.) ! n 3 3 ! ) 1.e.i.i.e.2.1.1.1.) ) ! 1.1.1.1.1.1.! ! n n n n 3 3 3 3 3 n ) ) ) ! n 3 2 2 2 2 2 @ C C ",
"6.N Q +.@ 2 2 2 3 3 n ) ) ! n 3 2 3 3 n ! ) 2.2.2.1.1.1.1.1.) ) 1.1.1.1.1.1.! ) ! n n n 3 3 3 3 n ! ) ) ! n n n 2 2 2 2 @ C C C ",
"^ N Q N N @ 2 2 2 3 3 ! ! n 3 2 2 2 3 3 n n ! ) ) 1.1.1.1.1.1.! ) 1.1.1.1.) ! ) ) ) ! n n n n n ! ) ! ! n n n n 2 2 2 @ U C C C ",
"j &.&.h & , @ 2 2 2 3 n n 3 2 2 2 3 3 n n n n n n ! ) ) 1.1.) n ! ) 1.) ! ! n ! ) ) ) ! ! ! ! ! ! ! ! n n n n 3 2 2 @ H { T C C ",
"9.&.&.h &.[ [ @ 2 2 n 3 3 2 2 2 3 3 n ! ) ! n n n n n ! ! ! n n n ! ! ! ! n n n ! ! ) ) 1.1.) ! n n n n n n 3 2 2 2 @ H H { C C ",
"j h &.&.&.z , @ 2 3 n 3 2 2 2 3 3 n ! ) ) ) ) ) ! n n n n n n ! ) ) ) ) ! n n n ! ) 1.1.1.1.1.! n n n n 3 2 2 2 2 2 @ { g C { T ",
"j & h &.h , z @ 2 3 n n 3 2 2 3 n ! ) ) ) ) ) ) ) ) ! ! n ! ) 1.1.1.) ! n n n ! ) 1.1.1.1.1.) n 3 3 n 3 2 2 3 2 2 2 @ H g C T { ",
"3.r.1 / / = &.@ 2 3 n n n 3 2 3 3 ! ) ) ) ) ) ) ) ) ) ! 3 n ! 1.1.) n 3 3 3 3 n ! ) 1.1.1.) ! 3 n n n 2 2 3 3 2 @ @ m m _ ^ C C ",
"3.r.r.1 / x x x @ 2 3 n n n 3 3 3 n ! ) ) ) ) ) ) ) ! n 3 3 3 n n ! ! ! n 3 3 3 n n n 3 3 3 3 n n n 3 3 3 3 3 @ >.m m 9 _ ^ ^ ^ ",
"3.1 / 1 / &.&.= @ 2 2 3 n n n 3 3 3 n ! ) ) ) ) ) ! n 3 3 n n n ! ) ) ) ) ! n n n n n 3 3 3 3 n n 3 3 3 3 3 2 @ >.9 _ _ _ ^ +.+.",
"G / / r./ x x = = @ @ 2 2 2 2 2 3 3 3 n ! ) ) ) ! n 3 2 n n n ! ) ) ) ) ) ) ! n 3 3 3 3 3 3 n n n n n 3 2 2 @ >.>.m _ _ _ C ^ +.",
"&  . .8 o = s [ [ > > @ @ @ 2 2 2 2 3 3 n ! ! ! n 3 2 3 n n ! ) ) ) ) ) ) ! n 3 3 3 3 3 n n n n n n 3 @ @ @ [ , z &.&.z &.+.A A ",
"&     o 8 [ [ [ [ l [ [ l g @ @ 2 2 3 n n n n 3 2 2 2 3 n n n ! ) ) ) ) ! n 3 3 3 3 3 n n n n n n 3 @ O.0 , [ [ z z * z &.+.+.+.",
"&.8 8  . .[ s [ s [ [ [ [ Q g g @ @ 2 3 n n n n n 3 2 2 3 n n n n n n n n 3 3 3 3 3 n n n n n n 3 2 @ F 0 [ [ [ [ z z z z A +.4 ",
"&. . . . .[ [ [ s l l l l Q Q Q g C @ 2 3 n n n n n 3 2 2 2 2 2 2 2 2 2 3 3 3 3 3 3 3 n n n 3 2 @ @ O.F F z [ [ z &.&.&.z +.A A ",
"&.^ <.^ ^ o.8.S S ] ] ] ] p U &.U Z Z @ @ @ 2 3 n n n 3 2 2 2 2 2 2 2 3 3 3 3 3 3 2 @ @ @ @ @ @ K Z 0 { Z 5 | | | :.` N ` :.I I ",
"U ^ <.<.s S o.o.S i i i ] U p p U Z Z { Z F @ @ 2 2 2 2 2 2 2 2 2 2 3 3 3 3 3 3 2 @ z > z a a , a Z 0 0 Z 5 5 | | N N :.` I :.I ",
"U ^ <.^ s S o.8.8.i ] w.] p &.U U Z { { Z F F <.@ @ @ @ 2 2 2 2 2 2 2 3 3 3 2 @ @ z z z { K K a a 0 { { { 5   5 | :.:.` :.:.I :.",
"U ^ <.^ ^ 8.8.o.8.] w.w.w.U &.&.&.Z Z Z { <.> F F < G G @ @ @ @ @ @ @ @ @ @ @ D +.{ { { z a K , a 0 Z Z Z . . | | ` ` N ` :.0 I ",
"$.O.r O.O.:.:.:.:._ _ _ r H i O.O.t t t 3.u + %.%.k k k k i +.J i Q Q Q Q E E E E u u  .u d +.+.  6 K 6 6 0 R 3.R C C &.&.v 6.v "
};
